<svg width="36" height="36" viewBox="0 0 36 36" fill="none" xmlns="http://www.w3.org/2000/svg">
<path d="M1.24138 0H0V1.24138H1.24138V0Z" fill="#858B93"/>
<path d="M2.48276 0H1.24138V1.24138H2.48276V0Z" fill="#858B93"/>
<path d="M3.72414 0H2.48276V1.24138H3.72414V0Z" fill="#858B93"/>
<path d="M4.96552 0H3.72414V1.24138H4.96552V0Z" fill="#858B93"/>
<path d="M6.2069 0H4.96552V1.24138H6.2069V0Z" fill="#858B93"/>
<path d="M7.44828 0H6.2069V1.24138H7.44828V0Z" fill="#858B93"/>
<path d="M8.68966 0H7.44828V1.24138H8.68966V0Z" fill="#858B93"/>
<path d="M11.1724 0H9.93104V1.24138H11.1724V0Z" fill="#858B93"/>
<path d="M12.4138 0H11.1724V1.24138H12.4138V0Z" fill="#858B93"/>
<path d="M14.8966 0H13.6552V1.24138H14.8966V0Z" fill="#858B93"/>
<path d="M17.3793 0H16.1379V1.24138H17.3793V0Z" fill="#858B93"/>
<path d="M18.6207 0H17.3793V1.24138H18.6207V0Z" fill="#858B93"/>
<path d="M22.3448 0H21.1034V1.24138H22.3448V0Z" fill="#858B93"/>
<path d="M23.5862 0H22.3448V1.24138H23.5862V0Z" fill="#858B93"/>
<path d="M24.8276 0H23.5862V1.24138H24.8276V0Z" fill="#858B93"/>
<path d="M26.069 0H24.8276V1.24138H26.069V0Z" fill="#858B93"/>
<path d="M28.5517 0H27.3103V1.24138H28.5517V0Z" fill="#858B93"/>
<path d="M29.7931 0H28.5517V1.24138H29.7931V0Z" fill="#858B93"/>
<path d="M31.0345 0H29.7931V1.24138H31.0345V0Z" fill="#858B93"/>
<path d="M32.2759 0H31.0345V1.24138H32.2759V0Z" fill="#858B93"/>
<path d="M33.5172 0H32.2759V1.24138H33.5172V0Z" fill="#858B93"/>
<path d="M34.7586 0H33.5172V1.24138H34.7586V0Z" fill="#858B93"/>
<path d="M36 0H34.7586V1.24138H36V0Z" fill="#858B93"/>
<path d="M1.24138 1.24138H0V2.48276H1.24138V1.24138Z" fill="#858B93"/>
<path d="M8.68966 1.24138H7.44828V2.48276H8.68966V1.24138Z" fill="#858B93"/>
<path d="M13.6552 1.24138H12.4138V2.48276H13.6552V1.24138Z" fill="#858B93"/>
<path d="M14.8966 1.24138H13.6552V2.48276H14.8966V1.24138Z" fill="#858B93"/>
<path d="M17.3793 1.24138H16.1379V2.48276H17.3793V1.24138Z" fill="#858B93"/>
<path d="M18.6207 1.24138H17.3793V2.48276H18.6207V1.24138Z" fill="#858B93"/>
<path d="M19.8621 1.24138H18.6207V2.48276H19.8621V1.24138Z" fill="#858B93"/>
<path d="M21.1034 1.24138H19.8621V2.48276H21.1034V1.24138Z" fill="#858B93"/>
<path d="M22.3448 1.24138H21.1034V2.48276H22.3448V1.24138Z" fill="#858B93"/>
<path d="M28.5517 1.24138H27.3103V2.48276H28.5517V1.24138Z" fill="#858B93"/>
<path d="M36 1.24138H34.7586V2.48276H36V1.24138Z" fill="#858B93"/>
<path d="M1.24138 2.48276H0V3.72414H1.24138V2.48276Z" fill="#858B93"/>
<path d="M3.72414 2.48276H2.48276V3.72414H3.72414V2.48276Z" fill="#858B93"/>
<path d="M4.96552 2.48276H3.72414V3.72414H4.96552V2.48276Z" fill="#858B93"/>
<path d="M6.2069 2.48276H4.96552V3.72414H6.2069V2.48276Z" fill="#858B93"/>
<path d="M8.68966 2.48276H7.44828V3.72414H8.68966V2.48276Z" fill="#858B93"/>
<path d="M11.1724 2.48276H9.93104V3.72414H11.1724V2.48276Z" fill="#858B93"/>
<path d="M12.4138 2.48276H11.1724V3.72414H12.4138V2.48276Z" fill="#858B93"/>
<path d="M13.6552 2.48276H12.4138V3.72414H13.6552V2.48276Z" fill="#858B93"/>
<path d="M21.1034 2.48276H19.8621V3.72414H21.1034V2.48276Z" fill="#858B93"/>
<path d="M22.3448 2.48276H21.1034V3.72414H22.3448V2.48276Z" fill="#858B93"/>
<path d="M24.8276 2.48276H23.5862V3.72414H24.8276V2.48276Z" fill="#858B93"/>
<path d="M28.5517 2.48276H27.3103V3.72414H28.5517V2.48276Z" fill="#858B93"/>
<path d="M31.0345 2.48276H29.7931V3.72414H31.0345V2.48276Z" fill="#858B93"/>
<path d="M32.2759 2.48276H31.0345V3.72414H32.2759V2.48276Z" fill="#858B93"/>
<path d="M33.5172 2.48276H32.2759V3.72414H33.5172V2.48276Z" fill="#858B93"/>
<path d="M36 2.48276H34.7586V3.72414H36V2.48276Z" fill="#858B93"/>
<path d="M1.24138 3.72414H0V4.96552H1.24138V3.72414Z" fill="#858B93"/>
<path d="M3.72414 3.72414H2.48276V4.96552H3.72414V3.72414Z" fill="#858B93"/>
<path d="M4.96552 3.72414H3.72414V4.96552H4.96552V3.72414Z" fill="#858B93"/>
<path d="M6.2069 3.72414H4.96552V4.96552H6.2069V3.72414Z" fill="#858B93"/>
<path d="M8.68966 3.72414H7.44828V4.96552H8.68966V3.72414Z" fill="#858B93"/>
<path d="M11.1724 3.72414H9.93104V4.96552H11.1724V3.72414Z" fill="#858B93"/>
<path d="M13.6552 3.72414H12.4138V4.96552H13.6552V3.72414Z" fill="#858B93"/>
<path d="M14.8966 3.72414H13.6552V4.96552H14.8966V3.72414Z" fill="#858B93"/>
<path d="M16.1379 3.72414H14.8966V4.96552H16.1379V3.72414Z" fill="#858B93"/>
<path d="M21.1034 3.72414H19.8621V4.96552H21.1034V3.72414Z" fill="#858B93"/>
<path d="M24.8276 3.72414H23.5862V4.96552H24.8276V3.72414Z" fill="#858B93"/>
<path d="M26.069 3.72414H24.8276V4.96552H26.069V3.72414Z" fill="#858B93"/>
<path d="M28.5517 3.72414H27.3103V4.96552H28.5517V3.72414Z" fill="#858B93"/>
<path d="M31.0345 3.72414H29.7931V4.96552H31.0345V3.72414Z" fill="#858B93"/>
<path d="M32.2759 3.72414H31.0345V4.96552H32.2759V3.72414Z" fill="#858B93"/>
<path d="M33.5172 3.72414H32.2759V4.96552H33.5172V3.72414Z" fill="#858B93"/>
<path d="M36 3.72414H34.7586V4.96552H36V3.72414Z" fill="#858B93"/>
<path d="M1.24138 4.96552H0V6.2069H1.24138V4.96552Z" fill="#858B93"/>
<path d="M3.72414 4.96552H2.48276V6.2069H3.72414V4.96552Z" fill="#858B93"/>
<path d="M4.96552 4.96552H3.72414V6.2069H4.96552V4.96552Z" fill="#858B93"/>
<path d="M6.2069 4.96552H4.96552V6.2069H6.2069V4.96552Z" fill="#858B93"/>
<path d="M8.68966 4.96552H7.44828V6.2069H8.68966V4.96552Z" fill="#858B93"/>
<path d="M11.1724 4.96552H9.93104V6.2069H11.1724V4.96552Z" fill="#858B93"/>
<path d="M13.6552 4.96552H12.4138V6.2069H13.6552V4.96552Z" fill="#858B93"/>
<path d="M14.8966 4.96552H13.6552V6.2069H14.8966V4.96552Z" fill="#858B93"/>
<path d="M18.6207 4.96552H17.3793V6.2069H18.6207V4.96552Z" fill="#858B93"/>
<path d="M21.1034 4.96552H19.8621V6.2069H21.1034V4.96552Z" fill="#858B93"/>
<path d="M22.3448 4.96552H21.1034V6.2069H22.3448V4.96552Z" fill="#858B93"/>
<path d="M23.5862 4.96552H22.3448V6.2069H23.5862V4.96552Z" fill="#858B93"/>
<path d="M24.8276 4.96552H23.5862V6.2069H24.8276V4.96552Z" fill="#858B93"/>
<path d="M26.069 4.96552H24.8276V6.2069H26.069V4.96552Z" fill="#858B93"/>
<path d="M28.5517 4.96552H27.3103V6.2069H28.5517V4.96552Z" fill="#858B93"/>
<path d="M31.0345 4.96552H29.7931V6.2069H31.0345V4.96552Z" fill="#858B93"/>
<path d="M32.2759 4.96552H31.0345V6.2069H32.2759V4.96552Z" fill="#858B93"/>
<path d="M33.5172 4.96552H32.2759V6.2069H33.5172V4.96552Z" fill="#858B93"/>
<path d="M36 4.96552H34.7586V6.2069H36V4.96552Z" fill="#858B93"/>
<path d="M1.24138 6.2069H0V7.44828H1.24138V6.2069Z" fill="#858B93"/>
<path d="M8.68966 6.2069H7.44828V7.44828H8.68966V6.2069Z" fill="#858B93"/>
<path d="M11.1724 6.2069H9.93104V7.44828H11.1724V6.2069Z" fill="#858B93"/>
<path d="M12.4138 6.2069H11.1724V7.44828H12.4138V6.2069Z" fill="#858B93"/>
<path d="M13.6552 6.2069H12.4138V7.44828H13.6552V6.2069Z" fill="#858B93"/>
<path d="M14.8966 6.2069H13.6552V7.44828H14.8966V6.2069Z" fill="#858B93"/>
<path d="M16.1379 6.2069H14.8966V7.44828H16.1379V6.2069Z" fill="#858B93"/>
<path d="M17.3793 6.2069H16.1379V7.44828H17.3793V6.2069Z" fill="#858B93"/>
<path d="M18.6207 6.2069H17.3793V7.44828H18.6207V6.2069Z" fill="#858B93"/>
<path d="M19.8621 6.2069H18.6207V7.44828H19.8621V6.2069Z" fill="#858B93"/>
<path d="M22.3448 6.2069H21.1034V7.44828H22.3448V6.2069Z" fill="#858B93"/>
<path d="M23.5862 6.2069H22.3448V7.44828H23.5862V6.2069Z" fill="#858B93"/>
<path d="M24.8276 6.2069H23.5862V7.44828H24.8276V6.2069Z" fill="#858B93"/>
<path d="M28.5517 6.2069H27.3103V7.44828H28.5517V6.2069Z" fill="#858B93"/>
<path d="M36 6.2069H34.7586V7.44828H36V6.2069Z" fill="#858B93"/>
<path d="M1.24138 7.44828H0V8.68966H1.24138V7.44828Z" fill="#858B93"/>
<path d="M2.48276 7.44828H1.24138V8.68966H2.48276V7.44828Z" fill="#858B93"/>
<path d="M3.72414 7.44828H2.48276V8.68966H3.72414V7.44828Z" fill="#858B93"/>
<path d="M4.96552 7.44828H3.72414V8.68966H4.96552V7.44828Z" fill="#858B93"/>
<path d="M6.2069 7.44828H4.96552V8.68966H6.2069V7.44828Z" fill="#858B93"/>
<path d="M7.44828 7.44828H6.2069V8.68966H7.44828V7.44828Z" fill="#858B93"/>
<path d="M8.68966 7.44828H7.44828V8.68966H8.68966V7.44828Z" fill="#858B93"/>
<path d="M11.1724 7.44828H9.93104V8.68966H11.1724V7.44828Z" fill="#858B93"/>
<path d="M13.6552 7.44828H12.4138V8.68966H13.6552V7.44828Z" fill="#858B93"/>
<path d="M16.1379 7.44828H14.8966V8.68966H16.1379V7.44828Z" fill="#858B93"/>
<path d="M18.6207 7.44828H17.3793V8.68966H18.6207V7.44828Z" fill="#858B93"/>
<path d="M21.1034 7.44828H19.8621V8.68966H21.1034V7.44828Z" fill="#858B93"/>
<path d="M23.5862 7.44828H22.3448V8.68966H23.5862V7.44828Z" fill="#858B93"/>
<path d="M26.069 7.44828H24.8276V8.68966H26.069V7.44828Z" fill="#858B93"/>
<path d="M28.5517 7.44828H27.3103V8.68966H28.5517V7.44828Z" fill="#858B93"/>
<path d="M29.7931 7.44828H28.5517V8.68966H29.7931V7.44828Z" fill="#858B93"/>
<path d="M31.0345 7.44828H29.7931V8.68966H31.0345V7.44828Z" fill="#858B93"/>
<path d="M32.2759 7.44828H31.0345V8.68966H32.2759V7.44828Z" fill="#858B93"/>
<path d="M33.5172 7.44828H32.2759V8.68966H33.5172V7.44828Z" fill="#858B93"/>
<path d="M34.7586 7.44828H33.5172V8.68966H34.7586V7.44828Z" fill="#858B93"/>
<path d="M36 7.44828H34.7586V8.68966H36V7.44828Z" fill="#858B93"/>
<path d="M12.4138 8.68966H11.1724V9.93104H12.4138V8.68966Z" fill="#858B93"/>
<path d="M13.6552 8.68966H12.4138V9.93104H13.6552V8.68966Z" fill="#858B93"/>
<path d="M14.8966 8.68966H13.6552V9.93104H14.8966V8.68966Z" fill="#858B93"/>
<path d="M17.3793 8.68966H16.1379V9.93104H17.3793V8.68966Z" fill="#858B93"/>
<path d="M18.6207 8.68966H17.3793V9.93104H18.6207V8.68966Z" fill="#858B93"/>
<path d="M21.1034 8.68966H19.8621V9.93104H21.1034V8.68966Z" fill="#858B93"/>
<path d="M26.069 8.68966H24.8276V9.93104H26.069V8.68966Z" fill="#858B93"/>
<path d="M3.72414 9.93104H2.48276V11.1724H3.72414V9.93104Z" fill="#858B93"/>
<path d="M4.96552 9.93104H3.72414V11.1724H4.96552V9.93104Z" fill="#858B93"/>
<path d="M6.2069 9.93104H4.96552V11.1724H6.2069V9.93104Z" fill="#858B93"/>
<path d="M7.44828 9.93104H6.2069V11.1724H7.44828V9.93104Z" fill="#858B93"/>
<path d="M8.68966 9.93104H7.44828V11.1724H8.68966V9.93104Z" fill="#858B93"/>
<path d="M9.93104 9.93104H8.68966V11.1724H9.93104V9.93104Z" fill="#858B93"/>
<path d="M12.4138 9.93104H11.1724V11.1724H12.4138V9.93104Z" fill="#858B93"/>
<path d="M13.6552 9.93104H12.4138V11.1724H13.6552V9.93104Z" fill="#858B93"/>
<path d="M21.1034 9.93104H19.8621V11.1724H21.1034V9.93104Z" fill="#858B93"/>
<path d="M22.3448 9.93104H21.1034V11.1724H22.3448V9.93104Z" fill="#858B93"/>
<path d="M24.8276 9.93104H23.5862V11.1724H24.8276V9.93104Z" fill="#858B93"/>
<path d="M27.3103 9.93104H26.069V11.1724H27.3103V9.93104Z" fill="#858B93"/>
<path d="M29.7931 9.93104H28.5517V11.1724H29.7931V9.93104Z" fill="#858B93"/>
<path d="M31.0345 9.93104H29.7931V11.1724H31.0345V9.93104Z" fill="#858B93"/>
<path d="M32.2759 9.93104H31.0345V11.1724H32.2759V9.93104Z" fill="#858B93"/>
<path d="M33.5172 9.93104H32.2759V11.1724H33.5172V9.93104Z" fill="#858B93"/>
<path d="M36 9.93104H34.7586V11.1724H36V9.93104Z" fill="#858B93"/>
<path d="M3.72414 11.1724H2.48276V12.4138H3.72414V11.1724Z" fill="#858B93"/>
<path d="M4.96552 11.1724H3.72414V12.4138H4.96552V11.1724Z" fill="#858B93"/>
<path d="M6.2069 11.1724H4.96552V12.4138H6.2069V11.1724Z" fill="#858B93"/>
<path d="M16.1379 11.1724H14.8966V12.4138H16.1379V11.1724Z" fill="#858B93"/>
<path d="M17.3793 11.1724H16.1379V12.4138H17.3793V11.1724Z" fill="#858B93"/>
<path d="M21.1034 11.1724H19.8621V12.4138H21.1034V11.1724Z" fill="#858B93"/>
<path d="M22.3448 11.1724H21.1034V12.4138H22.3448V11.1724Z" fill="#858B93"/>
<path d="M23.5862 11.1724H22.3448V12.4138H23.5862V11.1724Z" fill="#858B93"/>
<path d="M24.8276 11.1724H23.5862V12.4138H24.8276V11.1724Z" fill="#858B93"/>
<path d="M27.3103 11.1724H26.069V12.4138H27.3103V11.1724Z" fill="#858B93"/>
<path d="M32.2759 11.1724H31.0345V12.4138H32.2759V11.1724Z" fill="#858B93"/>
<path d="M33.5172 11.1724H32.2759V12.4138H33.5172V11.1724Z" fill="#858B93"/>
<path d="M34.7586 11.1724H33.5172V12.4138H34.7586V11.1724Z" fill="#858B93"/>
<path d="M36 11.1724H34.7586V12.4138H36V11.1724Z" fill="#858B93"/>
<path d="M4.96552 12.4138H3.72414V13.6552H4.96552V12.4138Z" fill="#858B93"/>
<path d="M8.68966 12.4138H7.44828V13.6552H8.68966V12.4138Z" fill="#858B93"/>
<path d="M9.93104 12.4138H8.68966V13.6552H9.93104V12.4138Z" fill="#858B93"/>
<path d="M16.1379 12.4138H14.8966V13.6552H16.1379V12.4138Z" fill="#858B93"/>
<path d="M19.8621 12.4138H18.6207V13.6552H19.8621V12.4138Z" fill="#858B93"/>
<path d="M24.8276 12.4138H23.5862V13.6552H24.8276V12.4138Z" fill="#858B93"/>
<path d="M27.3103 12.4138H26.069V13.6552H27.3103V12.4138Z" fill="#858B93"/>
<path d="M28.5517 12.4138H27.3103V13.6552H28.5517V12.4138Z" fill="#858B93"/>
<path d="M32.2759 12.4138H31.0345V13.6552H32.2759V12.4138Z" fill="#858B93"/>
<path d="M33.5172 12.4138H32.2759V13.6552H33.5172V12.4138Z" fill="#858B93"/>
<path d="M34.7586 12.4138H33.5172V13.6552H34.7586V12.4138Z" fill="#858B93"/>
<path d="M36 12.4138H34.7586V13.6552H36V12.4138Z" fill="#858B93"/>
<path d="M2.48276 13.6552H1.24138V14.8966H2.48276V13.6552Z" fill="#858B93"/>
<path d="M16.1379 13.6552H14.8966V14.8966H16.1379V13.6552Z" fill="#858B93"/>
<path d="M17.3793 13.6552H16.1379V14.8966H17.3793V13.6552Z" fill="#858B93"/>
<path d="M18.6207 13.6552H17.3793V14.8966H18.6207V13.6552Z" fill="#858B93"/>
<path d="M23.5862 13.6552H22.3448V14.8966H23.5862V13.6552Z" fill="#858B93"/>
<path d="M24.8276 13.6552H23.5862V14.8966H24.8276V13.6552Z" fill="#858B93"/>
<path d="M27.3103 13.6552H26.069V14.8966H27.3103V13.6552Z" fill="#858B93"/>
<path d="M32.2759 13.6552H31.0345V14.8966H32.2759V13.6552Z" fill="#858B93"/>
<path d="M33.5172 13.6552H32.2759V14.8966H33.5172V13.6552Z" fill="#858B93"/>
<path d="M34.7586 13.6552H33.5172V14.8966H34.7586V13.6552Z" fill="#858B93"/>
<path d="M1.24138 14.8966H0V16.1379H1.24138V14.8966Z" fill="#858B93"/>
<path d="M2.48276 14.8966H1.24138V16.1379H2.48276V14.8966Z" fill="#858B93"/>
<path d="M3.72414 14.8966H2.48276V16.1379H3.72414V14.8966Z" fill="#858B93"/>
<path d="M6.2069 14.8966H4.96552V16.1379H6.2069V14.8966Z" fill="#858B93"/>
<path d="M7.44828 14.8966H6.2069V16.1379H7.44828V14.8966Z" fill="#858B93"/>
<path d="M8.68966 14.8966H7.44828V16.1379H8.68966V14.8966Z" fill="#858B93"/>
<path d="M9.93104 14.8966H8.68966V16.1379H9.93104V14.8966Z" fill="#858B93"/>
<path d="M11.1724 14.8966H9.93104V16.1379H11.1724V14.8966Z" fill="#858B93"/>
<path d="M12.4138 14.8966H11.1724V16.1379H12.4138V14.8966Z" fill="#858B93"/>
<path d="M14.8966 14.8966H13.6552V16.1379H14.8966V14.8966Z" fill="#858B93"/>
<path d="M16.1379 14.8966H14.8966V16.1379H16.1379V14.8966Z" fill="#858B93"/>
<path d="M17.3793 14.8966H16.1379V16.1379H17.3793V14.8966Z" fill="#858B93"/>
<path d="M18.6207 14.8966H17.3793V16.1379H18.6207V14.8966Z" fill="#858B93"/>
<path d="M21.1034 14.8966H19.8621V16.1379H21.1034V14.8966Z" fill="#858B93"/>
<path d="M23.5862 14.8966H22.3448V16.1379H23.5862V14.8966Z" fill="#858B93"/>
<path d="M29.7931 14.8966H28.5517V16.1379H29.7931V14.8966Z" fill="#858B93"/>
<path d="M31.0345 14.8966H29.7931V16.1379H31.0345V14.8966Z" fill="#858B93"/>
<path d="M32.2759 14.8966H31.0345V16.1379H32.2759V14.8966Z" fill="#858B93"/>
<path d="M36 14.8966H34.7586V16.1379H36V14.8966Z" fill="#858B93"/>
<path d="M7.44828 16.1379H6.2069V17.3793H7.44828V16.1379Z" fill="#858B93"/>
<path d="M12.4138 16.1379H11.1724V17.3793H12.4138V16.1379Z" fill="#858B93"/>
<path d="M13.6552 16.1379H12.4138V17.3793H13.6552V16.1379Z" fill="#858B93"/>
<path d="M14.8966 16.1379H13.6552V17.3793H14.8966V16.1379Z" fill="#858B93"/>
<path d="M22.3448 16.1379H21.1034V17.3793H22.3448V16.1379Z" fill="#858B93"/>
<path d="M23.5862 16.1379H22.3448V17.3793H23.5862V16.1379Z" fill="#858B93"/>
<path d="M24.8276 16.1379H23.5862V17.3793H24.8276V16.1379Z" fill="#858B93"/>
<path d="M32.2759 16.1379H31.0345V17.3793H32.2759V16.1379Z" fill="#858B93"/>
<path d="M33.5172 16.1379H32.2759V17.3793H33.5172V16.1379Z" fill="#858B93"/>
<path d="M34.7586 16.1379H33.5172V17.3793H34.7586V16.1379Z" fill="#858B93"/>
<path d="M36 16.1379H34.7586V17.3793H36V16.1379Z" fill="#858B93"/>
<path d="M1.24138 17.3793H0V18.6207H1.24138V17.3793Z" fill="#858B93"/>
<path d="M3.72414 17.3793H2.48276V18.6207H3.72414V17.3793Z" fill="#858B93"/>
<path d="M4.96552 17.3793H3.72414V18.6207H4.96552V17.3793Z" fill="#858B93"/>
<path d="M6.2069 17.3793H4.96552V18.6207H6.2069V17.3793Z" fill="#858B93"/>
<path d="M8.68966 17.3793H7.44828V18.6207H8.68966V17.3793Z" fill="#858B93"/>
<path d="M13.6552 17.3793H12.4138V18.6207H13.6552V17.3793Z" fill="#858B93"/>
<path d="M16.1379 17.3793H14.8966V18.6207H16.1379V17.3793Z" fill="#858B93"/>
<path d="M19.8621 17.3793H18.6207V18.6207H19.8621V17.3793Z" fill="#858B93"/>
<path d="M22.3448 17.3793H21.1034V18.6207H22.3448V17.3793Z" fill="#858B93"/>
<path d="M23.5862 17.3793H22.3448V18.6207H23.5862V17.3793Z" fill="#858B93"/>
<path d="M26.069 17.3793H24.8276V18.6207H26.069V17.3793Z" fill="#858B93"/>
<path d="M29.7931 17.3793H28.5517V18.6207H29.7931V17.3793Z" fill="#858B93"/>
<path d="M32.2759 17.3793H31.0345V18.6207H32.2759V17.3793Z" fill="#858B93"/>
<path d="M33.5172 17.3793H32.2759V18.6207H33.5172V17.3793Z" fill="#858B93"/>
<path d="M1.24138 18.6207H0V19.8621H1.24138V18.6207Z" fill="#858B93"/>
<path d="M2.48276 18.6207H1.24138V19.8621H2.48276V18.6207Z" fill="#858B93"/>
<path d="M3.72414 18.6207H2.48276V19.8621H3.72414V18.6207Z" fill="#858B93"/>
<path d="M4.96552 18.6207H3.72414V19.8621H4.96552V18.6207Z" fill="#858B93"/>
<path d="M7.44828 18.6207H6.2069V19.8621H7.44828V18.6207Z" fill="#858B93"/>
<path d="M11.1724 18.6207H9.93104V19.8621H11.1724V18.6207Z" fill="#858B93"/>
<path d="M16.1379 18.6207H14.8966V19.8621H16.1379V18.6207Z" fill="#858B93"/>
<path d="M17.3793 18.6207H16.1379V19.8621H17.3793V18.6207Z" fill="#858B93"/>
<path d="M19.8621 18.6207H18.6207V19.8621H19.8621V18.6207Z" fill="#858B93"/>
<path d="M23.5862 18.6207H22.3448V19.8621H23.5862V18.6207Z" fill="#858B93"/>
<path d="M24.8276 18.6207H23.5862V19.8621H24.8276V18.6207Z" fill="#858B93"/>
<path d="M26.069 18.6207H24.8276V19.8621H26.069V18.6207Z" fill="#858B93"/>
<path d="M28.5517 18.6207H27.3103V19.8621H28.5517V18.6207Z" fill="#858B93"/>
<path d="M31.0345 18.6207H29.7931V19.8621H31.0345V18.6207Z" fill="#858B93"/>
<path d="M1.24138 19.8621H0V21.1034H1.24138V19.8621Z" fill="#858B93"/>
<path d="M7.44828 19.8621H6.2069V21.1034H7.44828V19.8621Z" fill="#858B93"/>
<path d="M8.68966 19.8621H7.44828V21.1034H8.68966V19.8621Z" fill="#858B93"/>
<path d="M13.6552 19.8621H12.4138V21.1034H13.6552V19.8621Z" fill="#858B93"/>
<path d="M17.3793 19.8621H16.1379V21.1034H17.3793V19.8621Z" fill="#858B93"/>
<path d="M18.6207 19.8621H17.3793V21.1034H18.6207V19.8621Z" fill="#858B93"/>
<path d="M19.8621 19.8621H18.6207V21.1034H19.8621V19.8621Z" fill="#858B93"/>
<path d="M22.3448 19.8621H21.1034V21.1034H22.3448V19.8621Z" fill="#858B93"/>
<path d="M28.5517 19.8621H27.3103V21.1034H28.5517V19.8621Z" fill="#858B93"/>
<path d="M33.5172 19.8621H32.2759V21.1034H33.5172V19.8621Z" fill="#858B93"/>
<path d="M36 19.8621H34.7586V21.1034H36V19.8621Z" fill="#858B93"/>
<path d="M3.72414 21.1034H2.48276V22.3448H3.72414V21.1034Z" fill="#858B93"/>
<path d="M4.96552 21.1034H3.72414V22.3448H4.96552V21.1034Z" fill="#858B93"/>
<path d="M6.2069 21.1034H4.96552V22.3448H6.2069V21.1034Z" fill="#858B93"/>
<path d="M7.44828 21.1034H6.2069V22.3448H7.44828V21.1034Z" fill="#858B93"/>
<path d="M9.93104 21.1034H8.68966V22.3448H9.93104V21.1034Z" fill="#858B93"/>
<path d="M13.6552 21.1034H12.4138V22.3448H13.6552V21.1034Z" fill="#858B93"/>
<path d="M16.1379 21.1034H14.8966V22.3448H16.1379V21.1034Z" fill="#858B93"/>
<path d="M21.1034 21.1034H19.8621V22.3448H21.1034V21.1034Z" fill="#858B93"/>
<path d="M26.069 21.1034H24.8276V22.3448H26.069V21.1034Z" fill="#858B93"/>
<path d="M28.5517 21.1034H27.3103V22.3448H28.5517V21.1034Z" fill="#858B93"/>
<path d="M29.7931 21.1034H28.5517V22.3448H29.7931V21.1034Z" fill="#858B93"/>
<path d="M31.0345 21.1034H29.7931V22.3448H31.0345V21.1034Z" fill="#858B93"/>
<path d="M34.7586 21.1034H33.5172V22.3448H34.7586V21.1034Z" fill="#858B93"/>
<path d="M36 21.1034H34.7586V22.3448H36V21.1034Z" fill="#858B93"/>
<path d="M1.24138 22.3448H0V23.5862H1.24138V22.3448Z" fill="#858B93"/>
<path d="M2.48276 22.3448H1.24138V23.5862H2.48276V22.3448Z" fill="#858B93"/>
<path d="M4.96552 22.3448H3.72414V23.5862H4.96552V22.3448Z" fill="#858B93"/>
<path d="M7.44828 22.3448H6.2069V23.5862H7.44828V22.3448Z" fill="#858B93"/>
<path d="M8.68966 22.3448H7.44828V23.5862H8.68966V22.3448Z" fill="#858B93"/>
<path d="M11.1724 22.3448H9.93104V23.5862H11.1724V22.3448Z" fill="#858B93"/>
<path d="M16.1379 22.3448H14.8966V23.5862H16.1379V22.3448Z" fill="#858B93"/>
<path d="M17.3793 22.3448H16.1379V23.5862H17.3793V22.3448Z" fill="#858B93"/>
<path d="M18.6207 22.3448H17.3793V23.5862H18.6207V22.3448Z" fill="#858B93"/>
<path d="M19.8621 22.3448H18.6207V23.5862H19.8621V22.3448Z" fill="#858B93"/>
<path d="M24.8276 22.3448H23.5862V23.5862H24.8276V22.3448Z" fill="#858B93"/>
<path d="M28.5517 22.3448H27.3103V23.5862H28.5517V22.3448Z" fill="#858B93"/>
<path d="M29.7931 22.3448H28.5517V23.5862H29.7931V22.3448Z" fill="#858B93"/>
<path d="M32.2759 22.3448H31.0345V23.5862H32.2759V22.3448Z" fill="#858B93"/>
<path d="M33.5172 22.3448H32.2759V23.5862H33.5172V22.3448Z" fill="#858B93"/>
<path d="M36 22.3448H34.7586V23.5862H36V22.3448Z" fill="#858B93"/>
<path d="M1.24138 23.5862H0V24.8276H1.24138V23.5862Z" fill="#858B93"/>
<path d="M2.48276 23.5862H1.24138V24.8276H2.48276V23.5862Z" fill="#858B93"/>
<path d="M4.96552 23.5862H3.72414V24.8276H4.96552V23.5862Z" fill="#858B93"/>
<path d="M6.2069 23.5862H4.96552V24.8276H6.2069V23.5862Z" fill="#858B93"/>
<path d="M12.4138 23.5862H11.1724V24.8276H12.4138V23.5862Z" fill="#858B93"/>
<path d="M17.3793 23.5862H16.1379V24.8276H17.3793V23.5862Z" fill="#858B93"/>
<path d="M22.3448 23.5862H21.1034V24.8276H22.3448V23.5862Z" fill="#858B93"/>
<path d="M23.5862 23.5862H22.3448V24.8276H23.5862V23.5862Z" fill="#858B93"/>
<path d="M24.8276 23.5862H23.5862V24.8276H24.8276V23.5862Z" fill="#858B93"/>
<path d="M29.7931 23.5862H28.5517V24.8276H29.7931V23.5862Z" fill="#858B93"/>
<path d="M31.0345 23.5862H29.7931V24.8276H31.0345V23.5862Z" fill="#858B93"/>
<path d="M36 23.5862H34.7586V24.8276H36V23.5862Z" fill="#858B93"/>
<path d="M1.24138 24.8276H0V26.069H1.24138V24.8276Z" fill="#858B93"/>
<path d="M6.2069 24.8276H4.96552V26.069H6.2069V24.8276Z" fill="#858B93"/>
<path d="M8.68966 24.8276H7.44828V26.069H8.68966V24.8276Z" fill="#858B93"/>
<path d="M13.6552 24.8276H12.4138V26.069H13.6552V24.8276Z" fill="#858B93"/>
<path d="M17.3793 24.8276H16.1379V26.069H17.3793V24.8276Z" fill="#858B93"/>
<path d="M21.1034 24.8276H19.8621V26.069H21.1034V24.8276Z" fill="#858B93"/>
<path d="M24.8276 24.8276H23.5862V26.069H24.8276V24.8276Z" fill="#858B93"/>
<path d="M26.069 24.8276H24.8276V26.069H26.069V24.8276Z" fill="#858B93"/>
<path d="M27.3103 24.8276H26.069V26.069H27.3103V24.8276Z" fill="#858B93"/>
<path d="M28.5517 24.8276H27.3103V26.069H28.5517V24.8276Z" fill="#858B93"/>
<path d="M29.7931 24.8276H28.5517V26.069H29.7931V24.8276Z" fill="#858B93"/>
<path d="M31.0345 24.8276H29.7931V26.069H31.0345V24.8276Z" fill="#858B93"/>
<path d="M33.5172 24.8276H32.2759V26.069H33.5172V24.8276Z" fill="#858B93"/>
<path d="M34.7586 24.8276H33.5172V26.069H34.7586V24.8276Z" fill="#858B93"/>
<path d="M12.4138 26.069H11.1724V27.3103H12.4138V26.069Z" fill="#858B93"/>
<path d="M14.8966 26.069H13.6552V27.3103H14.8966V26.069Z" fill="#858B93"/>
<path d="M17.3793 26.069H16.1379V27.3103H17.3793V26.069Z" fill="#858B93"/>
<path d="M21.1034 26.069H19.8621V27.3103H21.1034V26.069Z" fill="#858B93"/>
<path d="M22.3448 26.069H21.1034V27.3103H22.3448V26.069Z" fill="#858B93"/>
<path d="M23.5862 26.069H22.3448V27.3103H23.5862V26.069Z" fill="#858B93"/>
<path d="M24.8276 26.069H23.5862V27.3103H24.8276V26.069Z" fill="#858B93"/>
<path d="M26.069 26.069H24.8276V27.3103H26.069V26.069Z" fill="#858B93"/>
<path d="M31.0345 26.069H29.7931V27.3103H31.0345V26.069Z" fill="#858B93"/>
<path d="M33.5172 26.069H32.2759V27.3103H33.5172V26.069Z" fill="#858B93"/>
<path d="M34.7586 26.069H33.5172V27.3103H34.7586V26.069Z" fill="#858B93"/>
<path d="M1.24138 27.3103H0V28.5517H1.24138V27.3103Z" fill="#858B93"/>
<path d="M2.48276 27.3103H1.24138V28.5517H2.48276V27.3103Z" fill="#858B93"/>
<path d="M3.72414 27.3103H2.48276V28.5517H3.72414V27.3103Z" fill="#858B93"/>
<path d="M4.96552 27.3103H3.72414V28.5517H4.96552V27.3103Z" fill="#858B93"/>
<path d="M6.2069 27.3103H4.96552V28.5517H6.2069V27.3103Z" fill="#858B93"/>
<path d="M7.44828 27.3103H6.2069V28.5517H7.44828V27.3103Z" fill="#858B93"/>
<path d="M8.68966 27.3103H7.44828V28.5517H8.68966V27.3103Z" fill="#858B93"/>
<path d="M11.1724 27.3103H9.93104V28.5517H11.1724V27.3103Z" fill="#858B93"/>
<path d="M12.4138 27.3103H11.1724V28.5517H12.4138V27.3103Z" fill="#858B93"/>
<path d="M13.6552 27.3103H12.4138V28.5517H13.6552V27.3103Z" fill="#858B93"/>
<path d="M14.8966 27.3103H13.6552V28.5517H14.8966V27.3103Z" fill="#858B93"/>
<path d="M17.3793 27.3103H16.1379V28.5517H17.3793V27.3103Z" fill="#858B93"/>
<path d="M19.8621 27.3103H18.6207V28.5517H19.8621V27.3103Z" fill="#858B93"/>
<path d="M22.3448 27.3103H21.1034V28.5517H22.3448V27.3103Z" fill="#858B93"/>
<path d="M26.069 27.3103H24.8276V28.5517H26.069V27.3103Z" fill="#858B93"/>
<path d="M28.5517 27.3103H27.3103V28.5517H28.5517V27.3103Z" fill="#858B93"/>
<path d="M31.0345 27.3103H29.7931V28.5517H31.0345V27.3103Z" fill="#858B93"/>
<path d="M33.5172 27.3103H32.2759V28.5517H33.5172V27.3103Z" fill="#858B93"/>
<path d="M36 27.3103H34.7586V28.5517H36V27.3103Z" fill="#858B93"/>
<path d="M1.24138 28.5517H0V29.7931H1.24138V28.5517Z" fill="#858B93"/>
<path d="M8.68966 28.5517H7.44828V29.7931H8.68966V28.5517Z" fill="#858B93"/>
<path d="M11.1724 28.5517H9.93104V29.7931H11.1724V28.5517Z" fill="#858B93"/>
<path d="M12.4138 28.5517H11.1724V29.7931H12.4138V28.5517Z" fill="#858B93"/>
<path d="M18.6207 28.5517H17.3793V29.7931H18.6207V28.5517Z" fill="#858B93"/>
<path d="M22.3448 28.5517H21.1034V29.7931H22.3448V28.5517Z" fill="#858B93"/>
<path d="M26.069 28.5517H24.8276V29.7931H26.069V28.5517Z" fill="#858B93"/>
<path d="M31.0345 28.5517H29.7931V29.7931H31.0345V28.5517Z" fill="#858B93"/>
<path d="M33.5172 28.5517H32.2759V29.7931H33.5172V28.5517Z" fill="#858B93"/>
<path d="M1.24138 29.7931H0V31.0345H1.24138V29.7931Z" fill="#858B93"/>
<path d="M3.72414 29.7931H2.48276V31.0345H3.72414V29.7931Z" fill="#858B93"/>
<path d="M4.96552 29.7931H3.72414V31.0345H4.96552V29.7931Z" fill="#858B93"/>
<path d="M6.2069 29.7931H4.96552V31.0345H6.2069V29.7931Z" fill="#858B93"/>
<path d="M8.68966 29.7931H7.44828V31.0345H8.68966V29.7931Z" fill="#858B93"/>
<path d="M11.1724 29.7931H9.93104V31.0345H11.1724V29.7931Z" fill="#858B93"/>
<path d="M12.4138 29.7931H11.1724V31.0345H12.4138V29.7931Z" fill="#858B93"/>
<path d="M13.6552 29.7931H12.4138V31.0345H13.6552V29.7931Z" fill="#858B93"/>
<path d="M14.8966 29.7931H13.6552V31.0345H14.8966V29.7931Z" fill="#858B93"/>
<path d="M19.8621 29.7931H18.6207V31.0345H19.8621V29.7931Z" fill="#858B93"/>
<path d="M21.1034 29.7931H19.8621V31.0345H21.1034V29.7931Z" fill="#858B93"/>
<path d="M23.5862 29.7931H22.3448V31.0345H23.5862V29.7931Z" fill="#858B93"/>
<path d="M26.069 29.7931H24.8276V31.0345H26.069V29.7931Z" fill="#858B93"/>
<path d="M27.3103 29.7931H26.069V31.0345H27.3103V29.7931Z" fill="#858B93"/>
<path d="M28.5517 29.7931H27.3103V31.0345H28.5517V29.7931Z" fill="#858B93"/>
<path d="M29.7931 29.7931H28.5517V31.0345H29.7931V29.7931Z" fill="#858B93"/>
<path d="M31.0345 29.7931H29.7931V31.0345H31.0345V29.7931Z" fill="#858B93"/>
<path d="M33.5172 29.7931H32.2759V31.0345H33.5172V29.7931Z" fill="#858B93"/>
<path d="M34.7586 29.7931H33.5172V31.0345H34.7586V29.7931Z" fill="#858B93"/>
<path d="M36 29.7931H34.7586V31.0345H36V29.7931Z" fill="#858B93"/>
<path d="M1.24138 31.0345H0V32.2759H1.24138V31.0345Z" fill="#858B93"/>
<path d="M3.72414 31.0345H2.48276V32.2759H3.72414V31.0345Z" fill="#858B93"/>
<path d="M4.96552 31.0345H3.72414V32.2759H4.96552V31.0345Z" fill="#858B93"/>
<path d="M6.2069 31.0345H4.96552V32.2759H6.2069V31.0345Z" fill="#858B93"/>
<path d="M8.68966 31.0345H7.44828V32.2759H8.68966V31.0345Z" fill="#858B93"/>
<path d="M11.1724 31.0345H9.93104V32.2759H11.1724V31.0345Z" fill="#858B93"/>
<path d="M12.4138 31.0345H11.1724V32.2759H12.4138V31.0345Z" fill="#858B93"/>
<path d="M14.8966 31.0345H13.6552V32.2759H14.8966V31.0345Z" fill="#858B93"/>
<path d="M17.3793 31.0345H16.1379V32.2759H17.3793V31.0345Z" fill="#858B93"/>
<path d="M18.6207 31.0345H17.3793V32.2759H18.6207V31.0345Z" fill="#858B93"/>
<path d="M19.8621 31.0345H18.6207V32.2759H19.8621V31.0345Z" fill="#858B93"/>
<path d="M23.5862 31.0345H22.3448V32.2759H23.5862V31.0345Z" fill="#858B93"/>
<path d="M29.7931 31.0345H28.5517V32.2759H29.7931V31.0345Z" fill="#858B93"/>
<path d="M32.2759 31.0345H31.0345V32.2759H32.2759V31.0345Z" fill="#858B93"/>
<path d="M1.24138 32.2759H0V33.5172H1.24138V32.2759Z" fill="#858B93"/>
<path d="M3.72414 32.2759H2.48276V33.5172H3.72414V32.2759Z" fill="#858B93"/>
<path d="M4.96552 32.2759H3.72414V33.5172H4.96552V32.2759Z" fill="#858B93"/>
<path d="M6.2069 32.2759H4.96552V33.5172H6.2069V32.2759Z" fill="#858B93"/>
<path d="M8.68966 32.2759H7.44828V33.5172H8.68966V32.2759Z" fill="#858B93"/>
<path d="M11.1724 32.2759H9.93104V33.5172H11.1724V32.2759Z" fill="#858B93"/>
<path d="M12.4138 32.2759H11.1724V33.5172H12.4138V32.2759Z" fill="#858B93"/>
<path d="M13.6552 32.2759H12.4138V33.5172H13.6552V32.2759Z" fill="#858B93"/>
<path d="M16.1379 32.2759H14.8966V33.5172H16.1379V32.2759Z" fill="#858B93"/>
<path d="M18.6207 32.2759H17.3793V33.5172H18.6207V32.2759Z" fill="#858B93"/>
<path d="M19.8621 32.2759H18.6207V33.5172H19.8621V32.2759Z" fill="#858B93"/>
<path d="M23.5862 32.2759H22.3448V33.5172H23.5862V32.2759Z" fill="#858B93"/>
<path d="M24.8276 32.2759H23.5862V33.5172H24.8276V32.2759Z" fill="#858B93"/>
<path d="M26.069 32.2759H24.8276V33.5172H26.069V32.2759Z" fill="#858B93"/>
<path d="M28.5517 32.2759H27.3103V33.5172H28.5517V32.2759Z" fill="#858B93"/>
<path d="M31.0345 32.2759H29.7931V33.5172H31.0345V32.2759Z" fill="#858B93"/>
<path d="M32.2759 32.2759H31.0345V33.5172H32.2759V32.2759Z" fill="#858B93"/>
<path d="M33.5172 32.2759H32.2759V33.5172H33.5172V32.2759Z" fill="#858B93"/>
<path d="M36 32.2759H34.7586V33.5172H36V32.2759Z" fill="#858B93"/>
<path d="M1.24138 33.5172H0V34.7586H1.24138V33.5172Z" fill="#858B93"/>
<path d="M8.68966 33.5172H7.44828V34.7586H8.68966V33.5172Z" fill="#858B93"/>
<path d="M12.4138 33.5172H11.1724V34.7586H12.4138V33.5172Z" fill="#858B93"/>
<path d="M18.6207 33.5172H17.3793V34.7586H18.6207V33.5172Z" fill="#858B93"/>
<path d="M21.1034 33.5172H19.8621V34.7586H21.1034V33.5172Z" fill="#858B93"/>
<path d="M23.5862 33.5172H22.3448V34.7586H23.5862V33.5172Z" fill="#858B93"/>
<path d="M27.3103 33.5172H26.069V34.7586H27.3103V33.5172Z" fill="#858B93"/>
<path d="M29.7931 33.5172H28.5517V34.7586H29.7931V33.5172Z" fill="#858B93"/>
<path d="M32.2759 33.5172H31.0345V34.7586H32.2759V33.5172Z" fill="#858B93"/>
<path d="M33.5172 33.5172H32.2759V34.7586H33.5172V33.5172Z" fill="#858B93"/>
<path d="M34.7586 33.5172H33.5172V34.7586H34.7586V33.5172Z" fill="#858B93"/>
<path d="M1.24138 34.7586H0V36H1.24138V34.7586Z" fill="#858B93"/>
<path d="M2.48276 34.7586H1.24138V36H2.48276V34.7586Z" fill="#858B93"/>
<path d="M3.72414 34.7586H2.48276V36H3.72414V34.7586Z" fill="#858B93"/>
<path d="M4.96552 34.7586H3.72414V36H4.96552V34.7586Z" fill="#858B93"/>
<path d="M6.2069 34.7586H4.96552V36H6.2069V34.7586Z" fill="#858B93"/>
<path d="M7.44828 34.7586H6.2069V36H7.44828V34.7586Z" fill="#858B93"/>
<path d="M8.68966 34.7586H7.44828V36H8.68966V34.7586Z" fill="#858B93"/>
<path d="M14.8966 34.7586H13.6552V36H14.8966V34.7586Z" fill="#858B93"/>
<path d="M16.1379 34.7586H14.8966V36H16.1379V34.7586Z" fill="#858B93"/>
<path d="M17.3793 34.7586H16.1379V36H17.3793V34.7586Z" fill="#858B93"/>
<path d="M18.6207 34.7586H17.3793V36H18.6207V34.7586Z" fill="#858B93"/>
<path d="M19.8621 34.7586H18.6207V36H19.8621V34.7586Z" fill="#858B93"/>
<path d="M21.1034 34.7586H19.8621V36H21.1034V34.7586Z" fill="#858B93"/>
<path d="M22.3448 34.7586H21.1034V36H22.3448V34.7586Z" fill="#858B93"/>
<path d="M23.5862 34.7586H22.3448V36H23.5862V34.7586Z" fill="#858B93"/>
<path d="M24.8276 34.7586H23.5862V36H24.8276V34.7586Z" fill="#858B93"/>
<path d="M26.069 34.7586H24.8276V36H26.069V34.7586Z" fill="#858B93"/>
<path d="M27.3103 34.7586H26.069V36H27.3103V34.7586Z" fill="#858B93"/>
<path d="M28.5517 34.7586H27.3103V36H28.5517V34.7586Z" fill="#858B93"/>
<path d="M29.7931 34.7586H28.5517V36H29.7931V34.7586Z" fill="#858B93"/>
<path d="M32.2759 34.7586H31.0345V36H32.2759V34.7586Z" fill="#858B93"/>
</svg>
