<svg xmlns="http://www.w3.org/2000/svg" xmlns:xlink="http://www.w3.org/1999/xlink" viewBox="0 0 42 42"><defs><clipPath id="clip-path"><rect width="42" height="42" rx="14" fill="none"/></clipPath><linearGradient id="linear-gradient" x1="-235.5" y1="3379.82" x2="-235.5" y2="3397.88" gradientTransform="matrix(1, 0, 0, -1, 256.5, 3406.88)" gradientUnits="userSpaceOnUse"><stop offset="0" stop-color="#a93aff"/><stop offset="1" stop-color="#ff81ff"/></linearGradient><linearGradient id="linear-gradient-2" x1="-235.5" y1="3378.2" x2="-235.5" y2="3379.84" gradientTransform="matrix(1, 0, 0, -1, 256.5, 3406.88)" gradientUnits="userSpaceOnUse"><stop offset="0" stop-color="#ffbef9"/><stop offset="1" stop-color="#ffd5ff"/></linearGradient></defs><title>ic_bang_gia</title><g id="Layer_2" data-name="Layer 2"><g id="Layer_1-2" data-name="Layer 1"><g clip-path="url(#clip-path)"><rect width="42" height="42" rx="14" fill="#ff79f4" fill-opacity="0.3"/><rect x="11.28" y="15.01" width="19.44" height="10.89" fill="#fff"/><path d="M33.24,11.58a.81.81,0,0,0-.82-.82H21.82V9.82a.82.82,0,0,0-1.64,0v.94H9.58a.81.81,0,0,0-.82.82V27.06H33.24Zm-3.68,5.09-3.17,3.17a.81.81,0,0,1-.94.15l-2.64-1.32-2.74,2.75a.82.82,0,0,1-.95.15l-2.63-1.32L13.74,23a.82.82,0,1,1-1.16-1.16l3.16-3.16a.82.82,0,0,1,1-.16l2.63,1.32,2.75-2.74a.82.82,0,0,1,.95-.16l2.63,1.32,2.75-2.75a.82.82,0,0,1,1.16,1.16Z" fill="url(#linear-gradient)"/><path d="M15.24,31.31a.82.82,0,0,0,1.49.7l2.33-4.73H17.25Z" fill="#fff"/><path d="M25.53,27.28H23.72L26.06,32a.82.82,0,0,0,1.49-.7Z" fill="#fff"/><path d="M34.18,27H7.82a.82.82,0,0,0,0,1.64H34.18a.82.82,0,1,0,0-1.64Z" fill="url(#linear-gradient-2)"/></g></g></g></svg>