<svg xmlns="http://www.w3.org/2000/svg" xmlns:xlink="http://www.w3.org/1999/xlink" viewBox="0 0 42 42"><defs><clipPath id="clip-path"><rect width="42" height="42" rx="14" fill="none"/></clipPath><linearGradient id="linear-gradient" x1="-234.99" y1="2885.73" x2="-234.99" y2="2904.68" gradientTransform="matrix(1, 0, 0, -1, 256.5, 2916.68)" gradientUnits="userSpaceOnUse"><stop offset="0" stop-color="#a93aff"/><stop offset="1" stop-color="#ff81ff"/></linearGradient><linearGradient id="linear-gradient-3" x1="-232.15" y1="2905.11" x2="-237.4" y2="2900.74" gradientTransform="matrix(1, 0, 0, -1, 256.5, 2916.68)" gradientUnits="userSpaceOnUse"><stop offset="0" stop-color="#ca53dd"/><stop offset="1" stop-color="#eb71ff" stop-opacity="0"/></linearGradient><linearGradient id="linear-gradient-4" x1="-235.88" y1="2886.9" x2="-235.88" y2="2904.4" gradientTransform="matrix(1, 0, 0, -1, 256.5, 2916.68)" gradientUnits="userSpaceOnUse"><stop offset="0" stop-color="#0e0714"/><stop offset="1" stop-color="#b820b8"/></linearGradient><linearGradient id="linear-gradient-5" x1="-223.18" y1="2897.25" x2="-223.18" y2="2896.37" gradientTransform="matrix(1, 0, 0, -1, 256.5, 2916.68)" gradientUnits="userSpaceOnUse"><stop offset="0" stop-color="#e098dd"/><stop offset="1" stop-color="#b97cb6"/></linearGradient><linearGradient id="linear-gradient-6" x1="-226.47" y1="2889.81" x2="-226.47" y2="2896.37" gradientTransform="matrix(1, 0, 0, -1, 256.5, 2916.68)" gradientUnits="userSpaceOnUse"><stop offset="0" stop-color="#ffbef9"/><stop offset="1" stop-color="#fff1ff"/></linearGradient></defs><title>ic_bc_sd_gd</title><g id="Layer_2" data-name="Layer 2"><g id="Layer_1-2" data-name="Layer 1"><g clip-path="url(#clip-path)"><rect width="42" height="42" rx="14" fill="#ff79f4" fill-opacity="0.3"/><path d="M31,14.84V16a2.86,2.86,0,0,1,1.37,1,2.91,2.91,0,0,1,.53,1.63v9.48A2.83,2.83,0,0,1,30,31H13a2.83,2.83,0,0,1-2.84-2.84V14.84A2.83,2.83,0,0,1,13,12H28.14A2.83,2.83,0,0,1,31,14.84Z" fill="url(#linear-gradient)"/><path d="M31,14.84V16a2.86,2.86,0,0,1,1.37,1,2.91,2.91,0,0,1,.53,1.63v9.48A2.83,2.83,0,0,1,30,31H13a2.83,2.83,0,0,1-2.84-2.84V14.84A2.83,2.83,0,0,1,13,12H28.14A2.83,2.83,0,0,1,31,14.84Z" fill="url(#linear-gradient)"/><path d="M31,14.84V16a10.62,10.62,0,0,0-1.9-.18h-19v-.95A2.83,2.83,0,0,1,13,12H28.13A2.83,2.83,0,0,1,31,14.84Z" fill="url(#linear-gradient-3)"/><path d="M28,14H13.23a.92.92,0,0,0-.65.26.86.86,0,0,0-.27.62.88.88,0,0,0,.27.62,1,1,0,0,0,.65.26h15.7v-.88a.88.88,0,0,0-.27-.62A.92.92,0,0,0,28,14Z" fill="url(#linear-gradient-4)"/><path d="M32.88,19.44l.88.88h-.88Z" fill="url(#linear-gradient-5)"/><path d="M33.75,20.31H29.67a3.28,3.28,0,1,0,0,6.56h2.64a1.55,1.55,0,0,0,1.44-1.42V20.31Zm-4.27,4.16a.88.88,0,1,0-.84-.88A.85.85,0,0,0,29.48,24.47Z" fill-rule="evenodd" fill="url(#linear-gradient-6)"/><path d="M21.42,24.57h-.15a2.29,2.29,0,0,1-.18.29,1,1,0,0,1-.64.4,2.17,2.17,0,0,1-.54.06,1.77,1.77,0,0,1-1.37-.57,2.31,2.31,0,0,1-.4-.71,3,3,0,0,1-.14-.95v-.16a2.73,2.73,0,0,1,.15-.94,2.18,2.18,0,0,1,.43-.69,1.71,1.71,0,0,1,.62-.44,2.13,2.13,0,0,1,.75-.15,1.53,1.53,0,0,1,.84.2,1.43,1.43,0,0,1,.48.55h.15v-1H20.05v-1h1.37V19h1.11v.42h.53v1h-.53V25.2H21.42Zm-1.16-.29a1.1,1.1,0,0,0,.83-.33,1.21,1.21,0,0,0,.33-.87V23a1.12,1.12,0,0,0-.33-.86,1.1,1.1,0,0,0-.83-.33A1.12,1.12,0,0,0,19.09,23v.11a1.24,1.24,0,0,0,.32.88,1.16,1.16,0,0,0,.85.32Z" fill="#fff"/><path d="M22.2,26.31H18.53V27H22.2Z" fill="#fff"/></g></g></g></svg>