<svg xmlns="http://www.w3.org/2000/svg" xmlns:xlink="http://www.w3.org/1999/xlink" viewBox="0 0 42 42"><defs><clipPath id="clip-path"><path d="M0,21c0-6.52,0-9.78,1.07-12.36A14,14,0,0,1,8.64,1.07C11.21,0,14.48,0,21,0s9.79,0,12.36,1.07a14,14,0,0,1,7.57,7.57C42,11.22,42,14.48,42,21s0,9.78-1.07,12.36a14,14,0,0,1-7.57,7.57C30.79,42,27.52,42,21,42s-9.79,0-12.36-1.07a14,14,0,0,1-7.57-7.57C0,30.78,0,27.52,0,21Z" fill="none"/></clipPath><linearGradient id="linear-gradient" x1="-229.5" y1="3015.21" x2="-229.5" y2="3008.32" gradientTransform="matrix(1, 0, 0, -1, 256.5, 3040.68)" gradientUnits="userSpaceOnUse"><stop offset="0" stop-color="#28ffb0"/><stop offset="1" stop-color="#0f9980"/></linearGradient><linearGradient id="linear-gradient-2" x1="-234.82" y1="3008.55" x2="-234.82" y2="3030.31" gradientTransform="matrix(1, 0, 0, -1, 256.5, 3040.68)" gradientUnits="userSpaceOnUse"><stop offset="0" stop-color="#2f7beb"/><stop offset="1" stop-color="#75adff"/></linearGradient><linearGradient id="linear-gradient-3" x1="-229.48" y1="3018.28" x2="-229.48" y2="3006.28" gradientTransform="matrix(1, 0, 0, -1, 256.5, 3040.68)" gradientUnits="userSpaceOnUse"><stop offset="0" stop-color="#eaf6ff"/><stop offset="1" stop-color="#b7e0ff"/></linearGradient></defs><title>ic_bc_lai_lo</title><g id="Layer_2" data-name="Layer 2"><g id="Layer_1-2" data-name="Layer 1"><g clip-path="url(#clip-path)"><path d="M0,21c0-6.52,0-9.78,1.07-12.36A14,14,0,0,1,8.64,1.07C11.21,0,14.48,0,21,0s9.79,0,12.36,1.07a14,14,0,0,1,7.57,7.57C42,11.22,42,14.48,42,21s0,9.78-1.07,12.36a14,14,0,0,1-7.57,7.57C30.79,42,27.52,42,21,42s-9.79,0-12.36-1.07a14,14,0,0,1-7.57-7.57C0,30.78,0,27.52,0,21Z" fill="#708cee" fill-opacity="0.2"/><path d="M30.21,25.48H23.8v6.89h6.41Z" fill="url(#linear-gradient)"/><path d="M29.58,9.94H13.79a1.41,1.41,0,0,0-1.29,1.5V31.31a1.41,1.41,0,0,0,1.29,1.5H29.58a1.4,1.4,0,0,0,1.29-1.5V11.44A1.4,1.4,0,0,0,29.58,9.94Z" fill="url(#linear-gradient-2)"/><path d="M29.11,28.66c-.36,0-.5.39-.5.9s.16.89.5.89.47-.31.47-.89-.14-.9-.48-.9Z" fill="#e1fffb"/><path d="M24.94,26.35c-.36,0-.5.39-.5.89s.17.89.5.89.47-.31.47-.89-.13-.89-.48-.89Z" fill="#e1fffb"/><path d="M27,22.4a6,6,0,1,0,6,6A6,6,0,0,0,27,22.4Zm-3.7,4.87A1.63,1.63,0,0,1,25,25.53a1.53,1.53,0,0,1,1.59,1.64A1.65,1.65,0,0,1,24.92,29a1.57,1.57,0,0,1-1.6-1.67Zm2.51,4H25l3.16-5.74H29Zm3.26,0a1.58,1.58,0,0,1-1.6-1.68,1.63,1.63,0,0,1,1.64-1.74,1.53,1.53,0,0,1,1.59,1.65,1.65,1.65,0,0,1-1.63,1.78Z" fill="url(#linear-gradient-3)"/><path d="M19.52,8.58A1.48,1.48,0,0,1,21,7.1h1.29a1.48,1.48,0,0,1,1.48,1.48V9.92H19.52Z" fill="#e1fffb"/><path d="M15.2,17.3h8.6" fill="none" stroke="#e1fffb" stroke-linecap="round" stroke-width="1.4"/><path d="M15.2,20.3h5.6" fill="none" stroke="#e1fffb" stroke-linecap="round" stroke-width="1.4"/><path d="M15.2,14.3H27.8" fill="none" stroke="#e1fffb" stroke-linecap="round" stroke-width="1.4"/></g></g></g></svg>