<svg width="42" height="42" viewBox="0 0 42 42" fill="none" xmlns="http://www.w3.org/2000/svg">
<g filter="url(#filter0_b_11140_18458)">
<g clip-path="url(#clip0_11140_18458)">
<path d="M0 21C0 14.4768 0 11.2152 1.06569 8.64243C2.4866 5.21204 5.21204 2.4866 8.64243 1.06569C11.2152 0 14.4768 0 21 0C27.5232 0 30.7848 0 33.3576 1.06569C36.788 2.4866 39.5134 5.21204 40.9343 8.64243C42 11.2152 42 14.4768 42 21C42 27.5232 42 30.7848 40.9343 33.3576C39.5134 36.788 36.788 39.5134 33.3576 40.9343C30.7848 42 27.5232 42 21 42C14.4768 42 11.2152 42 8.64243 40.9343C5.21204 39.5134 2.4866 36.788 1.06569 33.3576C0 30.7848 0 27.5232 0 21Z" fill="#9B79FF" fill-opacity="0.3"/>
<g filter="url(#filter1_d_11140_18458)">
<rect x="10" y="9.85938" width="21.4439" height="22.8736" rx="1.5" fill="url(#paint0_linear_11140_18458)"/>
<rect x="12.1445" y="13.0039" width="15.7255" height="1.4296" rx="0.714799" fill="url(#paint1_linear_11140_18458)"/>
<rect x="12.1445" y="16.208" width="12.1515" height="1.4296" rx="0.714799" fill="url(#paint2_linear_11140_18458)"/>
<rect x="12.1445" y="19.4126" width="7.98601" height="1.60687" rx="0.803433" fill="url(#paint3_linear_11140_18458)"/>
<rect x="24" y="26" width="8" height="6" rx="1.5" fill="url(#paint4_linear_11140_18458)"/>
<path fill-rule="evenodd" clip-rule="evenodd" d="M22 29C22 25.6915 24.6915 23 28 23C31.3085 23 34 25.6915 34 29C34 32.3085 31.3085 35 28 35C24.6915 35 22 32.3085 22 29ZM28.0404 29.8897C28.084 30.6422 28.7029 31.0756 29.6816 31.0756C30.723 31.0756 31.3391 30.5767 31.3391 29.7916V29.7889C31.3391 29.1591 30.952 28.8211 30.1178 28.6602L29.7143 28.5839C29.2917 28.5048 29.1064 28.3931 29.1064 28.1804V28.1777C29.1064 27.9514 29.3136 27.7851 29.6816 27.7851C30.0414 27.7851 30.295 27.946 30.325 28.205L30.3277 28.235H31.2573L31.2546 28.1777C31.2191 27.4634 30.6603 27 29.6734 27C28.771 27 28.114 27.488 28.114 28.2459V28.2486C28.114 28.8511 28.5257 29.2355 29.3054 29.3799L29.7088 29.4563C30.1696 29.5462 30.344 29.6498 30.344 29.8734V29.8761C30.344 30.1215 30.0987 30.2905 29.7007 30.2905C29.3163 30.2905 29.0219 30.1242 28.9728 29.8707L28.9673 29.8407H28.0377L28.0404 29.8897ZM24.6 27.0709V31.0047H25.6005V29.8516H26.2766C27.1544 29.8516 27.7215 29.3118 27.7215 28.4694V28.464C27.7215 27.6216 27.1544 27.0709 26.2766 27.0709H24.6ZM25.6005 27.8369H26.0367C26.4592 27.8369 26.7101 28.055 26.7101 28.464V28.4694C26.7101 28.8783 26.4592 29.0992 26.0367 29.0992H25.6005V27.8369Z" fill="url(#paint5_linear_11140_18458)"/>
<path d="M19 8.5C19 7.67157 19.6716 7 20.5 7H21.7888C22.6172 7 23.2888 7.67157 23.2888 8.5V9.85919H19V8.5Z" fill="url(#paint6_linear_11140_18458)"/>
</g>
</g>
</g>
<defs>
<filter id="filter0_b_11140_18458" x="-14" y="-14" width="70" height="70" filterUnits="userSpaceOnUse" color-interpolation-filters="sRGB">
<feFlood flood-opacity="0" result="BackgroundImageFix"/>
<feGaussianBlur in="BackgroundImageFix" stdDeviation="7"/>
<feComposite in2="SourceAlpha" operator="in" result="effect1_backgroundBlur_11140_18458"/>
<feBlend mode="normal" in="SourceGraphic" in2="effect1_backgroundBlur_11140_18458" result="shape"/>
</filter>
<filter id="filter1_d_11140_18458" x="2" y="3.57143" width="40" height="44" filterUnits="userSpaceOnUse" color-interpolation-filters="sRGB">
<feFlood flood-opacity="0" result="BackgroundImageFix"/>
<feColorMatrix in="SourceAlpha" type="matrix" values="0 0 0 0 0 0 0 0 0 0 0 0 0 0 0 0 0 0 127 0" result="hardAlpha"/>
<feOffset dy="4.57143"/>
<feGaussianBlur stdDeviation="4"/>
<feComposite in2="hardAlpha" operator="out"/>
<feColorMatrix type="matrix" values="0 0 0 0 0.496518 0 0 0 0 0.300365 0 0 0 0 0.9125 0 0 0 0.45 0"/>
<feBlend mode="normal" in2="BackgroundImageFix" result="effect1_dropShadow_11140_18458"/>
<feBlend mode="normal" in="SourceGraphic" in2="effect1_dropShadow_11140_18458" result="shape"/>
</filter>
<linearGradient id="paint0_linear_11140_18458" x1="21" y1="10" x2="20.6916" y2="32.9959" gradientUnits="userSpaceOnUse">
<stop stop-color="#7F42FF"/>
<stop offset="1" stop-color="#5721CC"/>
</linearGradient>
<linearGradient id="paint1_linear_11140_18458" x1="20.0073" y1="14.4335" x2="20.0073" y2="13.0039" gradientUnits="userSpaceOnUse">
<stop stop-color="#D9D9D9"/>
<stop offset="0.5028" stop-color="#F2F2F2"/>
<stop offset="1" stop-color="white"/>
</linearGradient>
<linearGradient id="paint2_linear_11140_18458" x1="18.2203" y1="17.6376" x2="18.2203" y2="16.208" gradientUnits="userSpaceOnUse">
<stop stop-color="#D9D9D9"/>
<stop offset="0.5028" stop-color="#F2F2F2"/>
<stop offset="1" stop-color="white"/>
</linearGradient>
<linearGradient id="paint3_linear_11140_18458" x1="16.1375" y1="21.0195" x2="16.1375" y2="19.4126" gradientUnits="userSpaceOnUse">
<stop stop-color="#D9D9D9"/>
<stop offset="0.5028" stop-color="#F2F2F2"/>
<stop offset="1" stop-color="white"/>
</linearGradient>
<linearGradient id="paint4_linear_11140_18458" x1="28.1037" y1="26.0369" x2="28.0468" y2="32.0695" gradientUnits="userSpaceOnUse">
<stop stop-color="#7F42FF"/>
<stop offset="1" stop-color="#5721CC"/>
</linearGradient>
<linearGradient id="paint5_linear_11140_18458" x1="28" y1="35" x2="28" y2="23" gradientUnits="userSpaceOnUse">
<stop stop-color="#D9D9D9"/>
<stop offset="0.5028" stop-color="#F2F2F2"/>
<stop offset="1" stop-color="white"/>
</linearGradient>
<linearGradient id="paint6_linear_11140_18458" x1="21.1444" y1="9.85919" x2="21.1444" y2="7" gradientUnits="userSpaceOnUse">
<stop stop-color="#D9D9D9"/>
<stop offset="0.5028" stop-color="#F2F2F2"/>
<stop offset="1" stop-color="white"/>
</linearGradient>
<clipPath id="clip0_11140_18458">
<path d="M0 21C0 14.4768 0 11.2152 1.06569 8.64243C2.4866 5.21204 5.21204 2.4866 8.64243 1.06569C11.2152 0 14.4768 0 21 0C27.5232 0 30.7848 0 33.3576 1.06569C36.788 2.4866 39.5134 5.21204 40.9343 8.64243C42 11.2152 42 14.4768 42 21C42 27.5232 42 30.7848 40.9343 33.3576C39.5134 36.788 36.788 39.5134 33.3576 40.9343C30.7848 42 27.5232 42 21 42C14.4768 42 11.2152 42 8.64243 40.9343C5.21204 39.5134 2.4866 36.788 1.06569 33.3576C0 30.7848 0 27.5232 0 21Z" fill="white"/>
</clipPath>
</defs>
</svg>
