<svg xmlns="http://www.w3.org/2000/svg" xmlns:xlink="http://www.w3.org/1999/xlink" viewBox="0 0 43 43"><defs><clipPath id="clip-path"><path d="M0,21.5C0,14.51,0,11,1.22,8.28A14,14,0,0,1,8.28,1.22C11,0,14.51,0,21.5,0S32,0,34.72,1.22a14,14,0,0,1,7.06,7.06C43,11,43,14.51,43,21.5S43,32,41.78,34.72a14,14,0,0,1-7.06,7.06C32,43,28.49,43,21.5,43S11,43,8.28,41.78a14,14,0,0,1-7.06-7.06C0,32,0,28.49,0,21.5Z" fill="none"/></clipPath><linearGradient id="linear-gradient" x1="-235.31" y1="3032.89" x2="-235.31" y2="3010.02" gradientTransform="matrix(1, 0, 0, -1, 256.5, 3042.68)" gradientUnits="userSpaceOnUse"><stop offset="0" stop-color="#28ffb0"/><stop offset="1" stop-color="#0f9980"/></linearGradient><linearGradient id="linear-gradient-2" x1="-230" y1="3018.68" x2="-230" y2="3010.68" xlink:href="#linear-gradient"/><linearGradient id="linear-gradient-3" x1="-242.5" y1="3025.38" x2="-232.5" y2="3025.38" gradientTransform="matrix(1, 0, 0, -1, 256.5, 3042.68)" gradientUnits="userSpaceOnUse"><stop offset="0" stop-color="#fff"/><stop offset="1" stop-color="#d5ffe0"/></linearGradient><linearGradient id="linear-gradient-4" x1="-242.5" y1="3022.38" x2="-235.5" y2="3022.38" xlink:href="#linear-gradient-3"/><linearGradient id="linear-gradient-5" x1="-242.5" y1="3028.38" x2="-228.5" y2="3028.38" xlink:href="#linear-gradient-3"/><linearGradient id="linear-gradient-6" x1="-229.5" y1="3020.68" x2="-229.5" y2="3008.68" gradientTransform="matrix(1, 0, 0, -1, 256.5, 3042.68)" gradientUnits="userSpaceOnUse"><stop offset="0" stop-color="#e8f9f2"/><stop offset="1" stop-color="#e1ffe9"/></linearGradient></defs><title>ic_bc_bd_ts_rong</title><g id="Layer_2" data-name="Layer 2"><g id="Layer_1-2" data-name="Layer 1"><g clip-path="url(#clip-path)"><path d="M0,21.5C0,14.51,0,11,1.22,8.28A14,14,0,0,1,8.28,1.22C11,0,14.51,0,21.5,0S32,0,34.72,1.22a14,14,0,0,1,7.06,7.06C43,11,43,14.51,43,21.5S43,32,41.78,34.72a14,14,0,0,1-7.06,7.06C32,43,28.49,43,21.5,43S11,43,8.28,41.78a14,14,0,0,1-7.06-7.06C0,32,0,28.49,0,21.5Z" fill="#1ac795" fill-opacity="0.3"/><path d="M29.08,9.79H13.29A1.41,1.41,0,0,0,12,11.29V31.16a1.41,1.41,0,0,0,1.29,1.5H29.08a1.41,1.41,0,0,0,1.29-1.5V11.29A1.41,1.41,0,0,0,29.08,9.79Z" fill="url(#linear-gradient)"/><path d="M30,24H23v8h7Z" fill="url(#linear-gradient-2)"/><path d="M18.9,8.43A1.48,1.48,0,0,1,20.38,7h1.29a1.48,1.48,0,0,1,1.48,1.48V9.77H18.9Z" fill="#fff" stroke="#fff" stroke-width="0.04"/><path d="M14.7,17.3h8.6" fill="none" stroke-linecap="round" stroke-width="1.4" stroke="url(#linear-gradient-3)"/><path d="M14.7,20.3h5.6" fill="none" stroke-linecap="round" stroke-width="1.4" stroke="url(#linear-gradient-4)"/><path d="M14.7,14.3H27.3" fill="none" stroke-linecap="round" stroke-width="1.4" stroke="url(#linear-gradient-5)"/><path d="M33,28a6,6,0,1,1-6-6A6,6,0,0,1,33,28Zm-5.43,1.15h-.12a1.27,1.27,0,0,1-.13.22.79.79,0,0,1-.19.17.83.83,0,0,1-.3.13,2.15,2.15,0,0,1-.4,0,1.56,1.56,0,0,1-.57-.1,1.41,1.41,0,0,1-.45-.33,1.44,1.44,0,0,1-.3-.53A2.16,2.16,0,0,1,25,28v-.12a2.25,2.25,0,0,1,.11-.71,1.82,1.82,0,0,1,.32-.52,1.36,1.36,0,0,1,.47-.32,1.56,1.56,0,0,1,.56-.12,1.22,1.22,0,0,1,.63.15,1.06,1.06,0,0,1,.36.42h.12v-.75h-1v-.75h1V25h.83v.32h.39v.75H28.4v3.55h-.83Zm-.88-.22a.82.82,0,0,0,.63-.25.92.92,0,0,0,.25-.65V28a.84.84,0,0,0-.88-.89.88.88,0,0,0-.63.24.87.87,0,0,0-.24.66V28a.92.92,0,0,0,.24.66.85.85,0,0,0,.63.24ZM25.4,30.45h2.75V31H25.4Z" fill-rule="evenodd" fill="url(#linear-gradient-6)"/></g></g></g></svg>