<svg xmlns="http://www.w3.org/2000/svg" xmlns:xlink="http://www.w3.org/1999/xlink" viewBox="0 0 42 42"><defs><clipPath id="clip-path"><rect width="42" height="42" rx="14" fill="none"/></clipPath><linearGradient id="linear-gradient" x1="-235.78" y1="3601.02" x2="-235.78" y2="3578.15" gradientTransform="matrix(1, 0, 0, -1, 256.5, 3610.88)" gradientUnits="userSpaceOnUse"><stop offset="0" stop-color="#28ffb0"/><stop offset="1" stop-color="#0f9980"/></linearGradient><linearGradient id="linear-gradient-2" x1="-227.33" y1="3586.21" x2="-227.33" y2="3577.21" xlink:href="#linear-gradient"/></defs><title>ic_book_order</title><g id="Layer_2" data-name="Layer 2"><g id="Layer_1-2" data-name="Layer 1"><g clip-path="url(#clip-path)"><rect width="42" height="42" rx="14" fill="#1ac795" fill-opacity="0.3"/><rect x="10" y="9.86" width="21.44" height="22.87" rx="1.5" fill="url(#linear-gradient)"/><rect x="12.14" y="13" width="15.73" height="1.43" rx="0.71" fill="#fff"/><path d="M12.86,16.21H23.58a.71.71,0,0,1,.72.71h0a.72.72,0,0,1-.72.72H12.86a.72.72,0,0,1-.72-.72h0A.72.72,0,0,1,12.86,16.21Z" fill="#fff"/><rect x="12.14" y="19.41" width="7.99" height="1.61" rx="0.8" fill="#fff"/><rect x="26.67" y="24.66" width="5" height="9" fill="url(#linear-gradient-2)"/><path d="M28,23a6,6,0,1,0,6,6A6,6,0,0,0,28,23Zm2.85,9.1a.48.48,0,0,1-.7,0l-2.5-2.5a.47.47,0,0,1-.15-.35V26a.5.5,0,0,1,1,0v3l2.35,2.36A.48.48,0,0,1,30.85,32.1Z" fill="#fff"/><path d="M19,8.5A1.5,1.5,0,0,1,20.5,7h1.29a1.5,1.5,0,0,1,1.5,1.5V9.86H19Z" fill="#fff"/></g></g></g></svg>