<svg width="42" height="42" viewBox="0 0 42 42" fill="none" xmlns="http://www.w3.org/2000/svg">
<g clip-path="url(#clip0_8801_46833)">
<path d="M0 21C0 14.4768 0 11.2152 1.06569 8.64243C2.4866 5.21204 5.21204 2.4866 8.64243 1.06569C11.2152 0 14.4768 0 21 0V0C27.5232 0 30.7848 0 33.3576 1.06569C36.788 2.4866 39.5134 5.21204 40.9343 8.64243C42 11.2152 42 14.4768 42 21V21C42 27.5232 42 30.7848 40.9343 33.3576C39.5134 36.788 36.788 39.5134 33.3576 40.9343C30.7848 42 27.5232 42 21 42V42C14.4768 42 11.2152 42 8.64243 40.9343C5.21204 39.5134 2.4866 36.788 1.06569 33.3576C0 30.7848 0 27.5232 0 21V21Z" fill="#167B5E" fill-opacity="0.3"/>
<g filter="url(#filter0_d_8801_46833)">
<path d="M32.47 10.7998C32.47 9.97979 32.01 9.52979 31.18 9.52979H15.39C14.56 9.52979 14.1 9.96979 14.1 10.7998V31.1898C14.1 31.7098 14.28 32.1198 14.76 32.3498C15.22 32.5698 15.65 32.4698 16.05 32.1598C16.66 31.6898 17.28 31.2298 17.91 30.7698C18.52 30.3198 19.12 29.8598 19.74 29.3998L22.32 31.9798C22.99 32.6498 23.58 32.6498 24.25 31.9798C25.1 31.1298 25.95 30.2798 26.83 29.3898C28.09 30.3298 29.3 31.2398 30.52 32.1598C30.92 32.4598 31.34 32.5598 31.81 32.3498C32.29 32.1298 32.47 31.6998 32.47 31.1898V10.7998Z" fill="url(#paint0_linear_8801_46833)"/>
<path d="M25.36 20.8398H20.44" stroke="url(#paint1_linear_8801_46833)" stroke-width="1.4" stroke-linecap="round" stroke-linejoin="round"/>
<path d="M27.73 17.3398H18.07" stroke="url(#paint2_linear_8801_46833)" stroke-width="1.4" stroke-linecap="round" stroke-linejoin="round"/>
<path d="M29.69 13.8398H16.11" stroke="url(#paint3_linear_8801_46833)" stroke-width="1.4" stroke-linecap="round" stroke-linejoin="round"/>
<path d="M12.93 24.6798L8.11002 29.4998C7.66002 29.9498 6.93002 29.9498 6.48002 29.4998C6.03002 29.0498 6.03002 28.3198 6.48002 27.8698L11.3 23.0498" fill="url(#paint4_linear_8801_46833)"/>
<path d="M16.39 25.8598C19.99 25.8598 22.9 22.9498 22.9 19.3498C22.9 15.7498 19.99 12.8398 16.39 12.8398C12.79 12.8398 9.88 15.7498 9.88 19.3498C9.88 22.9498 12.79 25.8598 16.39 25.8598Z" fill="url(#paint5_linear_8801_46833)"/>
<path d="M16.98 21.3697H17.47C17.63 21.3697 17.78 21.4297 17.91 21.5297C18.19 21.4897 18.46 21.4197 18.69 21.3097C18.76 21.2097 18.81 21.0997 18.87 20.9897V19.8897C18.87 19.6397 18.96 19.4097 19.12 19.2397C18.89 17.9097 17.76 16.9097 16.4 16.9097C15.04 16.9097 13.91 17.9197 13.68 19.2397C13.84 19.4197 13.93 19.6497 13.93 19.8897V20.9897C14.38 21.9197 15.32 22.5597 16.4 22.5597C16.42 22.5597 16.43 22.5597 16.45 22.5597C16.35 22.4297 16.28 22.2697 16.28 22.0897C16.28 21.6897 16.6 21.3697 16.99 21.3697H16.98Z" fill="url(#paint6_linear_8801_46833)"/>
<path d="M12.64 21.8198H12.67C13.04 21.8198 13.34 21.5298 13.34 21.1698V19.8798C13.34 19.6298 13.19 19.4098 12.97 19.2998C13.07 17.5498 14.56 16.1598 16.39 16.1598C18.22 16.1598 19.71 17.5498 19.81 19.2998C19.59 19.4098 19.44 19.6198 19.44 19.8798V21.1698C19.44 21.2598 19.46 21.3398 19.49 21.4098C19.1 21.6798 18.54 21.8698 17.9 21.9198C17.83 21.8098 17.71 21.7398 17.56 21.7398H17.03C16.81 21.7398 16.63 21.9098 16.63 22.1298C16.63 22.3498 16.81 22.5198 17.03 22.5198H17.56C17.71 22.5198 17.85 22.4298 17.91 22.3098C18.65 22.2498 19.29 22.0298 19.74 21.7098C19.84 21.7798 19.97 21.8098 20.1 21.8098H20.13C20.5 21.8098 20.8 21.5198 20.8 21.1598V19.8698C20.8 19.6098 20.64 19.3898 20.42 19.2898C20.32 17.2098 18.55 15.5498 16.39 15.5498C14.23 15.5498 12.46 17.2098 12.36 19.2898C12.14 19.3898 11.98 19.6198 11.98 19.8698V21.1598C11.98 21.5198 12.28 21.8098 12.65 21.8098L12.64 21.8198Z" fill="url(#paint7_linear_8801_46833)"/>
<path fill-rule="evenodd" clip-rule="evenodd" d="M16.39 24.8598C19.43 24.8598 21.9 22.3898 21.9 19.3498C21.9 16.3098 19.43 13.8398 16.39 13.8398C13.35 13.8398 10.88 16.3098 10.88 19.3498C10.88 22.3898 13.35 24.8598 16.39 24.8598ZM22.9 19.3498C22.9 22.9498 19.99 25.8598 16.39 25.8598C12.79 25.8598 9.88 22.9498 9.88 19.3498C9.88 15.7498 12.79 12.8398 16.39 12.8398C19.99 12.8398 22.9 15.7498 22.9 19.3498Z" fill="url(#paint8_linear_8801_46833)"/>
</g>
</g>
<defs>
<filter id="filter0_d_8801_46833" x="-1.85748" y="6.10121" width="42.3275" height="38.9526" filterUnits="userSpaceOnUse" color-interpolation-filters="sRGB">
<feFlood flood-opacity="0" result="BackgroundImageFix"/>
<feColorMatrix in="SourceAlpha" type="matrix" values="0 0 0 0 0 0 0 0 0 0 0 0 0 0 0 0 0 0 127 0" result="hardAlpha"/>
<feOffset dy="4.57143"/>
<feGaussianBlur stdDeviation="4"/>
<feComposite in2="hardAlpha" operator="out"/>
<feColorMatrix type="matrix" values="0 0 0 0 0.0706443 0 0 0 0 0.623333 0 0 0 0 0.557011 0 0 0 0.45 0"/>
<feBlend mode="normal" in2="BackgroundImageFix" result="effect1_dropShadow_8801_46833"/>
<feBlend mode="normal" in="SourceGraphic" in2="effect1_dropShadow_8801_46833" result="shape"/>
</filter>
<linearGradient id="paint0_linear_8801_46833" x1="23.285" y1="9.52979" x2="23.285" y2="32.4823" gradientUnits="userSpaceOnUse">
<stop stop-color="#3FE4A8"/>
<stop offset="1" stop-color="#0D8732"/>
</linearGradient>
<linearGradient id="paint1_linear_8801_46833" x1="22.9" y1="21.8398" x2="22.9" y2="20.8398" gradientUnits="userSpaceOnUse">
<stop stop-color="#D9D9D9"/>
<stop offset="0.5028" stop-color="#F2F2F2"/>
<stop offset="1" stop-color="white"/>
</linearGradient>
<linearGradient id="paint2_linear_8801_46833" x1="22.9" y1="18.3398" x2="22.9" y2="17.3398" gradientUnits="userSpaceOnUse">
<stop stop-color="#D9D9D9"/>
<stop offset="0.5028" stop-color="#F2F2F2"/>
<stop offset="1" stop-color="white"/>
</linearGradient>
<linearGradient id="paint3_linear_8801_46833" x1="22.9" y1="14.8398" x2="22.9" y2="13.8398" gradientUnits="userSpaceOnUse">
<stop stop-color="#D9D9D9"/>
<stop offset="0.5028" stop-color="#F2F2F2"/>
<stop offset="1" stop-color="white"/>
</linearGradient>
<linearGradient id="paint4_linear_8801_46833" x1="9.53627" y1="23.0498" x2="9.53627" y2="29.8373" gradientUnits="userSpaceOnUse">
<stop stop-color="#3FE4A8"/>
<stop offset="1" stop-color="#0D8732"/>
</linearGradient>
<linearGradient id="paint5_linear_8801_46833" x1="16.39" y1="12.8398" x2="16.39" y2="25.8598" gradientUnits="userSpaceOnUse">
<stop stop-color="#3FE4A8"/>
<stop offset="1" stop-color="#0D8732"/>
</linearGradient>
<linearGradient id="paint6_linear_8801_46833" x1="16.4" y1="22.5597" x2="16.4" y2="16.9097" gradientUnits="userSpaceOnUse">
<stop stop-color="#D9D9D9"/>
<stop offset="0.5028" stop-color="#F2F2F2"/>
<stop offset="1" stop-color="white"/>
</linearGradient>
<linearGradient id="paint7_linear_8801_46833" x1="16.39" y1="22.5198" x2="16.39" y2="15.5498" gradientUnits="userSpaceOnUse">
<stop stop-color="#D9D9D9"/>
<stop offset="0.5028" stop-color="#F2F2F2"/>
<stop offset="1" stop-color="white"/>
</linearGradient>
<linearGradient id="paint8_linear_8801_46833" x1="16.39" y1="12.8398" x2="16.39" y2="25.8598" gradientUnits="userSpaceOnUse">
<stop stop-color="#3FE4A8"/>
<stop offset="1" stop-color="#0D8732"/>
</linearGradient>
<clipPath id="clip0_8801_46833">
<path d="M0 21C0 14.4768 0 11.2152 1.06569 8.64243C2.4866 5.21204 5.21204 2.4866 8.64243 1.06569C11.2152 0 14.4768 0 21 0V0C27.5232 0 30.7848 0 33.3576 1.06569C36.788 2.4866 39.5134 5.21204 40.9343 8.64243C42 11.2152 42 14.4768 42 21V21C42 27.5232 42 30.7848 40.9343 33.3576C39.5134 36.788 36.788 39.5134 33.3576 40.9343C30.7848 42 27.5232 42 21 42V42C14.4768 42 11.2152 42 8.64243 40.9343C5.21204 39.5134 2.4866 36.788 1.06569 33.3576C0 30.7848 0 27.5232 0 21V21Z" fill="white"/>
</clipPath>
</defs>
</svg>
