<svg width="42" height="42" viewBox="0 0 42 42" fill="none" xmlns="http://www.w3.org/2000/svg">
<g clip-path="url(#clip0_7998_218371)">
<path d="M0 21C0 14.4768 0 11.2152 1.06569 8.64243C2.4866 5.21204 5.21204 2.4866 8.64243 1.06569C11.2152 0 14.4768 0 21 0V0C27.5232 0 30.7848 0 33.3576 1.06569C36.788 2.4866 39.5134 5.21204 40.9343 8.64243C42 11.2152 42 14.4768 42 21V21C42 27.5232 42 30.7848 40.9343 33.3576C39.5134 36.788 36.788 39.5134 33.3576 40.9343C30.7848 42 27.5232 42 21 42V42C14.4768 42 11.2152 42 8.64243 40.9343C5.21204 39.5134 2.4866 36.788 1.06569 33.3576C0 30.7848 0 27.5232 0 21V21Z" fill="#1AC795" fill-opacity="0.3"/>
<g filter="url(#filter0_d_7998_218371)">
<path d="M32.4701 10.8C32.4701 9.98003 32.0101 9.53003 31.1801 9.53003H15.3901C14.5601 9.53003 14.1001 9.97003 14.1001 10.8V31.19C14.1001 31.71 14.2801 32.12 14.7601 32.35C15.2201 32.57 15.6501 32.47 16.0501 32.16C16.6601 31.69 17.2801 31.23 17.9101 30.77C18.5201 30.32 19.1201 29.86 19.7401 29.4L22.3201 31.98C22.9901 32.65 23.5801 32.65 24.2501 31.98C25.1001 31.13 25.9501 30.28 26.8301 29.39C28.0901 30.33 29.3001 31.24 30.5201 32.16C30.9201 32.46 31.3401 32.56 31.8101 32.35C32.2901 32.13 32.4701 31.7 32.4701 31.19V10.8Z" fill="url(#paint0_linear_7998_218371)"/>
<path d="M25.3599 20.84H20.4399" stroke="white" stroke-width="1.4" stroke-linecap="round" stroke-linejoin="round"/>
<path d="M27.7301 17.34H18.0701" stroke="white" stroke-width="1.4" stroke-linecap="round" stroke-linejoin="round"/>
<path d="M29.6901 13.84H16.1101" stroke="white" stroke-width="1.4" stroke-linecap="round" stroke-linejoin="round"/>
<path d="M12.9301 24.68L8.11008 29.5C7.66008 29.95 6.93008 29.95 6.48008 29.5C6.03008 29.05 6.03008 28.3201 6.48008 27.8701L11.3001 23.05" fill="url(#paint1_linear_7998_218371)"/>
<path d="M16.3901 25.86C19.9901 25.86 22.9001 22.95 22.9001 19.35C22.9001 15.75 19.9901 12.84 16.3901 12.84C12.7901 12.84 9.88013 15.75 9.88013 19.35C9.88013 22.95 12.7901 25.86 16.3901 25.86Z" fill="url(#paint2_linear_7998_218371)"/>
<path d="M16.9799 21.37H17.4699C17.6299 21.37 17.7799 21.43 17.9099 21.53C18.1899 21.49 18.4599 21.42 18.6899 21.31C18.7599 21.21 18.8099 21.1 18.8699 20.99V19.89C18.8699 19.64 18.9599 19.41 19.1199 19.24C18.8899 17.91 17.7599 16.91 16.3999 16.91C15.0399 16.91 13.9099 17.92 13.6799 19.24C13.8399 19.42 13.9299 19.65 13.9299 19.89V20.99C14.3799 21.92 15.3199 22.56 16.3999 22.56C16.4199 22.56 16.4299 22.56 16.4499 22.56C16.3499 22.43 16.2799 22.27 16.2799 22.09C16.2799 21.69 16.5999 21.37 16.9899 21.37H16.9799Z" fill="url(#paint3_linear_7998_218371)"/>
<path d="M12.64 21.82H12.67C13.04 21.82 13.34 21.53 13.34 21.17V19.88C13.34 19.63 13.19 19.41 12.97 19.3C13.07 17.55 14.56 16.16 16.39 16.16C18.22 16.16 19.71 17.55 19.81 19.3C19.59 19.41 19.44 19.62 19.44 19.88V21.17C19.44 21.26 19.46 21.34 19.49 21.41C19.1 21.68 18.54 21.87 17.9 21.92C17.83 21.81 17.71 21.74 17.56 21.74H17.03C16.81 21.74 16.63 21.91 16.63 22.13C16.63 22.35 16.81 22.52 17.03 22.52H17.56C17.71 22.52 17.85 22.43 17.91 22.31C18.65 22.25 19.29 22.03 19.74 21.71C19.84 21.78 19.97 21.81 20.1 21.81H20.13C20.5 21.81 20.8 21.52 20.8 21.16V19.87C20.8 19.61 20.64 19.39 20.42 19.29C20.32 17.21 18.55 15.55 16.39 15.55C14.23 15.55 12.46 17.21 12.36 19.29C12.14 19.39 11.98 19.62 11.98 19.87V21.16C11.98 21.52 12.28 21.81 12.65 21.81L12.64 21.82Z" fill="url(#paint4_linear_7998_218371)"/>
<path fill-rule="evenodd" clip-rule="evenodd" d="M16.3901 24.86C19.4301 24.86 21.9001 22.39 21.9001 19.35C21.9001 16.31 19.4301 13.84 16.3901 13.84C13.3501 13.84 10.8801 16.31 10.8801 19.35C10.8801 22.39 13.3501 24.86 16.3901 24.86ZM22.9001 19.35C22.9001 22.95 19.9901 25.86 16.3901 25.86C12.7901 25.86 9.88013 22.95 9.88013 19.35C9.88013 15.75 12.7901 12.84 16.3901 12.84C19.9901 12.84 22.9001 15.75 22.9001 19.35Z" fill="url(#paint5_linear_7998_218371)"/>
</g>
</g>
<defs>
<filter id="filter0_d_7998_218371" x="-1.85742" y="5.53003" width="42.3276" height="38.9525" filterUnits="userSpaceOnUse" color-interpolation-filters="sRGB">
<feFlood flood-opacity="0" result="BackgroundImageFix"/>
<feColorMatrix in="SourceAlpha" type="matrix" values="0 0 0 0 0 0 0 0 0 0 0 0 0 0 0 0 0 0 127 0" result="hardAlpha"/>
<feOffset dy="4"/>
<feGaussianBlur stdDeviation="4"/>
<feComposite in2="hardAlpha" operator="out"/>
<feColorMatrix type="matrix" values="0 0 0 0 0.101289 0 0 0 0 0.706667 0 0 0 0 0.630198 0 0 0 0.45 0"/>
<feBlend mode="normal" in2="BackgroundImageFix" result="effect1_dropShadow_7998_218371"/>
<feBlend mode="normal" in="SourceGraphic" in2="effect1_dropShadow_7998_218371" result="shape"/>
</filter>
<linearGradient id="paint0_linear_7998_218371" x1="23.2901" y1="10.46" x2="23.2901" y2="32.19" gradientUnits="userSpaceOnUse">
<stop stop-color="#28FFB0"/>
<stop offset="1" stop-color="#0F9980"/>
</linearGradient>
<linearGradient id="paint1_linear_7998_218371" x1="3.58008" y1="32.9301" x2="14.0201" y2="21.59" gradientUnits="userSpaceOnUse">
<stop stop-color="#28FFB0"/>
<stop offset="1" stop-color="#0F9980"/>
</linearGradient>
<linearGradient id="paint2_linear_7998_218371" x1="-4.17987" y1="10.68" x2="18.4901" y2="20.24" gradientUnits="userSpaceOnUse">
<stop stop-color="#28FFB0"/>
<stop offset="1" stop-color="#0F9980"/>
</linearGradient>
<linearGradient id="paint3_linear_7998_218371" x1="16.4799" y1="23.98" x2="16.3299" y2="15.95" gradientUnits="userSpaceOnUse">
<stop stop-color="#B3FFC7"/>
<stop offset="1" stop-color="white"/>
</linearGradient>
<linearGradient id="paint4_linear_7998_218371" x1="16.45" y1="23.98" x2="16.31" y2="15.96" gradientUnits="userSpaceOnUse">
<stop stop-color="#B3FFC7"/>
<stop offset="1" stop-color="white"/>
</linearGradient>
<linearGradient id="paint5_linear_7998_218371" x1="12.4001" y1="28.75" x2="34.4001" y2="-23.03" gradientUnits="userSpaceOnUse">
<stop stop-color="#21FFC8"/>
<stop offset="1" stop-color="#0F9980"/>
</linearGradient>
<clipPath id="clip0_7998_218371">
<path d="M0 21C0 14.4768 0 11.2152 1.06569 8.64243C2.4866 5.21204 5.21204 2.4866 8.64243 1.06569C11.2152 0 14.4768 0 21 0V0C27.5232 0 30.7848 0 33.3576 1.06569C36.788 2.4866 39.5134 5.21204 40.9343 8.64243C42 11.2152 42 14.4768 42 21V21C42 27.5232 42 30.7848 40.9343 33.3576C39.5134 36.788 36.788 39.5134 33.3576 40.9343C30.7848 42 27.5232 42 21 42V42C14.4768 42 11.2152 42 8.64243 40.9343C5.21204 39.5134 2.4866 36.788 1.06569 33.3576C0 30.7848 0 27.5232 0 21V21Z" fill="white"/>
</clipPath>
</defs>
</svg>
