<svg width="42" height="42" viewBox="0 0 42 42" fill="none" xmlns="http://www.w3.org/2000/svg">
<g clip-path="url(#clip0_8014_10042)">
<path d="M0 14C0 6.26801 6.26801 0 14 0H28C35.732 0 42 6.26801 42 14V28C42 35.732 35.732 42 28 42H14C6.26801 42 0 35.732 0 28V14Z" fill="#EEAD70" fill-opacity="0.3"/>
<mask id="mask0_8014_10042" style="mask-type:luminance" maskUnits="userSpaceOnUse" x="0" y="0" width="42" height="42">
<path d="M28 0H14C6.26801 0 0 6.26801 0 14V28C0 35.732 6.26801 42 14 42H28C35.732 42 42 35.732 42 28V14C42 6.26801 35.732 0 28 0Z" fill="white"/>
</mask>
<g mask="url(#mask0_8014_10042)">
<g filter="url(#filter0_d_8014_10042)">
<path d="M29.0848 9.42969H13.2852C12.5754 9.42969 12 10.1013 12 10.9297V30.7997C12 31.6281 12.5754 32.2997 13.2852 32.2997H29.0848C29.7946 32.2997 30.37 31.6281 30.37 30.7997V10.9297C30.37 10.1013 29.7946 9.42969 29.0848 9.42969Z" fill="url(#paint0_linear_8014_10042)"/>
<path d="M31.32 25.5H21.23V30.82H31.32V25.5Z" fill="url(#paint1_linear_8014_10042)"/>
<path d="M26.2301 27.1099C26.0801 27.1099 25.9801 27.1199 25.9301 27.1299V28.0699C25.9801 28.0699 26.0501 28.0799 26.1501 28.0799C26.5401 28.0799 26.7801 27.8799 26.7801 27.5699C26.7801 27.2999 26.5901 27.1099 26.2201 27.1099H26.2301Z" fill="url(#paint2_linear_8014_10042)"/>
<path d="M31.82 25.5H21.73V30.82H31.82V25.5Z" fill="url(#paint3_linear_8014_10042)"/>
<path d="M24.8641 27.1304H25.1766C25.4793 27.1304 25.659 27.2866 25.659 27.5796V27.5835C25.659 27.8765 25.4793 28.0347 25.1766 28.0347H24.8641V27.1304Z" fill="url(#paint4_linear_8014_10042)"/>
<path fill-rule="evenodd" clip-rule="evenodd" d="M26.5 22C23.1863 22 20.5 24.6863 20.5 28C20.5 31.3137 23.1863 34 26.5 34C29.8137 34 32.5 31.3137 32.5 28C32.5 24.6863 29.8137 22 26.5 22ZM21.9129 26.5815V29.3999H22.6297V28.3491H23.7215V27.8003H22.6297V27.1577H23.8309V26.5815H21.9129ZM24.1473 26.5815V29.3999H24.8641V28.5737H25.3484C25.9773 28.5737 26.3836 28.187 26.3836 27.5835V27.5796C26.3836 26.9761 25.9773 26.5815 25.3484 26.5815H24.1473ZM27.3562 27.1577V29.3999H28.0711V27.1577H28.8484V26.5815H26.5789V27.1577H27.3562ZM29.0613 28.6011C29.0926 29.1401 29.5359 29.4507 30.2371 29.4507C30.9832 29.4507 31.4246 29.0933 31.4246 28.5308V28.5288C31.4246 28.0776 31.1473 27.8354 30.5496 27.7202L30.2605 27.6655C29.9578 27.6089 29.825 27.5288 29.825 27.3765V27.3745C29.825 27.2124 29.9734 27.0933 30.2371 27.0933C30.4949 27.0933 30.6766 27.2085 30.698 27.394L30.7 27.4155H31.366L31.3641 27.3745C31.3387 26.8628 30.9383 26.5308 30.2312 26.5308C29.5848 26.5308 29.1141 26.8804 29.1141 27.4233V27.4253C29.1141 27.8569 29.409 28.1323 29.9676 28.2358L30.2566 28.2905C30.5867 28.355 30.7117 28.4292 30.7117 28.5894V28.5913C30.7117 28.7671 30.5359 28.8882 30.2508 28.8882C29.9754 28.8882 29.7645 28.769 29.7293 28.5874L29.7254 28.5659H29.0594L29.0613 28.6011Z" fill="url(#paint5_linear_8014_10042)"/>
<path d="M18.75 8.06984C18.75 7.24984 19.41 6.58984 20.23 6.58984H21.52C22.34 6.58984 23 7.24984 23 8.06984V9.40984H18.75V8.06984Z" fill="white" stroke="white" stroke-width="0.04"/>
<path fill-rule="evenodd" clip-rule="evenodd" d="M14 14.3001C14 13.9135 14.3134 13.6001 14.7 13.6001H27.3C27.6866 13.6001 28 13.9135 28 14.3001C28 14.6867 27.6866 15.0001 27.3 15.0001H14.7C14.3134 15.0001 14 14.6867 14 14.3001ZM14 17.3001C14 16.9135 14.3134 16.6001 14.7 16.6001H23.3C23.6866 16.6001 24 16.9135 24 17.3001C24 17.6867 23.6866 18.0001 23.3 18.0001H14.7C14.3134 18.0001 14 17.6867 14 17.3001ZM14 20.3001C14 19.9135 14.3134 19.6001 14.7 19.6001H20.3C20.6866 19.6001 21 19.9135 21 20.3001C21 20.6867 20.6866 21.0001 20.3 21.0001H14.7C14.3134 21.0001 14 20.6867 14 20.3001Z" fill="url(#paint6_linear_8014_10042)"/>
</g>
</g>
</g>
<defs>
<filter id="filter0_d_8014_10042" x="4" y="2.56982" width="36.5" height="43.4302" filterUnits="userSpaceOnUse" color-interpolation-filters="sRGB">
<feFlood flood-opacity="0" result="BackgroundImageFix"/>
<feColorMatrix in="SourceAlpha" type="matrix" values="0 0 0 0 0 0 0 0 0 0 0 0 0 0 0 0 0 0 127 0" result="hardAlpha"/>
<feOffset dy="4"/>
<feGaussianBlur stdDeviation="4"/>
<feComposite in2="hardAlpha" operator="out"/>
<feColorMatrix type="matrix" values="0 0 0 0 0 0 0 0 0 0 0 0 0 0 0 0 0 0 0.1 0"/>
<feBlend mode="normal" in2="BackgroundImageFix" result="effect1_dropShadow_8014_10042"/>
<feBlend mode="normal" in="SourceGraphic" in2="effect1_dropShadow_8014_10042" result="shape"/>
</filter>
<linearGradient id="paint0_linear_8014_10042" x1="21.185" y1="32.2997" x2="21.185" y2="9.42969" gradientUnits="userSpaceOnUse">
<stop stop-color="#FF8D3A"/>
<stop offset="1" stop-color="#FFC581"/>
</linearGradient>
<linearGradient id="paint1_linear_8014_10042" x1="26.275" y1="30.82" x2="26.275" y2="25.5" gradientUnits="userSpaceOnUse">
<stop stop-color="#FF8D3A"/>
<stop offset="1" stop-color="#FFC581"/>
</linearGradient>
<linearGradient id="paint2_linear_8014_10042" x1="26.3551" y1="28.0799" x2="26.3551" y2="27.1099" gradientUnits="userSpaceOnUse">
<stop stop-color="#FCDBFF"/>
<stop offset="1" stop-color="white"/>
</linearGradient>
<linearGradient id="paint3_linear_8014_10042" x1="26.775" y1="30.82" x2="26.775" y2="25.5" gradientUnits="userSpaceOnUse">
<stop stop-color="#FF8D3A"/>
<stop offset="1" stop-color="#FFC581"/>
</linearGradient>
<linearGradient id="paint4_linear_8014_10042" x1="26.5" y1="34" x2="26.5" y2="22" gradientUnits="userSpaceOnUse">
<stop stop-color="#FFF2DB"/>
<stop offset="1" stop-color="white"/>
</linearGradient>
<linearGradient id="paint5_linear_8014_10042" x1="26.5" y1="34" x2="26.5" y2="22" gradientUnits="userSpaceOnUse">
<stop stop-color="#FFF2DB"/>
<stop offset="1" stop-color="white"/>
</linearGradient>
<linearGradient id="paint6_linear_8014_10042" x1="21" y1="21.0001" x2="21" y2="13.6001" gradientUnits="userSpaceOnUse">
<stop stop-color="#FFF2DB"/>
<stop offset="1" stop-color="white"/>
</linearGradient>
<clipPath id="clip0_8014_10042">
<path d="M0 14C0 6.26801 6.26801 0 14 0H28C35.732 0 42 6.26801 42 14V28C42 35.732 35.732 42 28 42H14C6.26801 42 0 35.732 0 28V14Z" fill="white"/>
</clipPath>
</defs>
</svg>
