<svg xmlns="http://www.w3.org/2000/svg" xmlns:xlink="http://www.w3.org/1999/xlink" viewBox="0 0 42 42"><defs><clipPath id="clip-path"><rect width="42" height="42" rx="14" fill="none"/></clipPath><linearGradient id="linear-gradient" x1="-235.5" y1="3168.53" x2="-235.5" y2="3192.95" gradientTransform="matrix(1, 0, 0, -1, 256.5, 3202.88)" gradientUnits="userSpaceOnUse"><stop offset="0" stop-color="#a93aff"/><stop offset="1" stop-color="#ff81ff"/></linearGradient><linearGradient id="linear-gradient-2" x1="-238.55" y1="3171.56" x2="-232.38" y2="3189.11" gradientTransform="matrix(1, 0, 0, -1, 256.5, 3202.88)" gradientUnits="userSpaceOnUse"><stop offset="0" stop-color="#ffbef9"/><stop offset="1" stop-color="#fff1ff"/></linearGradient><linearGradient id="linear-gradient-3" x1="-247.83" y1="3174.81" x2="-241.67" y2="3192.37" xlink:href="#linear-gradient-2"/><linearGradient id="linear-gradient-4" x1="-246.6" y1="3174.38" x2="-240.43" y2="3191.94" xlink:href="#linear-gradient-2"/></defs><title>ic_chuyen_tien_daytrade</title><g id="Layer_2" data-name="Layer 2"><g id="Layer_1-2" data-name="Layer 1"><g clip-path="url(#clip-path)"><rect width="42" height="42" rx="14" fill="#ff79f4" fill-opacity="0.3"/><path d="M30.9,11.1A14,14,0,1,0,35,21,13.92,13.92,0,0,0,30.9,11.1Z" fill="url(#linear-gradient)"/><path d="M13.59,28.91A11.16,11.16,0,1,0,21,9.42a10.9,10.9,0,0,0-3.72.64.66.66,0,0,0-.44.62v3a.66.66,0,0,0,.31.56.64.64,0,0,0,.64,0A7,7,0,1,1,16.49,26l1.19-1.19a.65.65,0,0,0,.16-.65.66.66,0,0,0-.49-.45l-6.73-1.4a.67.67,0,0,0-.6.18.68.68,0,0,0-.13.18.65.65,0,0,0-.06.31.22.22,0,0,0,0,.09l1.4,6.73a.64.64,0,0,0,.45.49.67.67,0,0,0,.65-.16l1.23-1.23Z" fill="url(#linear-gradient-2)"/><path d="M15.56,11.85H15v-.43h-.91v.43H13.3v.73h.78v.75c-.06-.05-.1-.11-.16-.15a1.84,1.84,0,0,0-1.12-.33,1.94,1.94,0,0,0-1.14.33,2.06,2.06,0,0,0-.74.88,3,3,0,0,0-.26,1.27,3,3,0,0,0,.26,1.27,2.21,2.21,0,0,0,.73.89,2,2,0,0,0,1.13.33,1.91,1.91,0,0,0,1.13-.33,2.2,2.2,0,0,0,.27-.26v.46H15v-5.1h.57v-.73Zm-1.51,4.34a1.26,1.26,0,0,1-.41.59,1.19,1.19,0,0,1-.73.21,1.11,1.11,0,0,1-.72-.22,1.41,1.41,0,0,1-.43-.6,2.47,2.47,0,0,1-.14-.84,2.37,2.37,0,0,1,.14-.83,1.41,1.41,0,0,1,.43-.6,1.16,1.16,0,0,1,.74-.22,1.12,1.12,0,0,1,.7.21,1.18,1.18,0,0,1,.41.58,2.91,2.91,0,0,1,0,1.72Z" fill="url(#linear-gradient-3)"/><path d="M14.89,19.07H11.3v.69h3.59Z" fill="url(#linear-gradient-4)"/></g></g></g></svg>