<svg xmlns="http://www.w3.org/2000/svg" xmlns:xlink="http://www.w3.org/1999/xlink" viewBox="0 0 42 42"><defs><clipPath id="clip-path"><rect width="42" height="42" rx="14" fill="none"/></clipPath><linearGradient id="linear-gradient" x1="-231.82" y1="3595.14" x2="-231.82" y2="3604.75" gradientTransform="matrix(1, 0, 0, -1, 256.5, 3610.88)" gradientUnits="userSpaceOnUse"><stop offset="0" stop-color="#fff"/><stop offset="1" stop-color="#ffebd3"/></linearGradient><linearGradient id="linear-gradient-2" x1="-239.18" y1="3584.62" x2="-239.18" y2="3575" xlink:href="#linear-gradient"/><linearGradient id="linear-gradient-3" x1="-235.5" y1="3578.5" x2="-235.5" y2="3601.25" gradientTransform="matrix(1, 0, 0, -1, 256.5, 3610.88)" gradientUnits="userSpaceOnUse"><stop offset="0" stop-color="#ff8d3a"/><stop offset="1" stop-color="#ffc581"/></linearGradient><linearGradient id="linear-gradient-4" x1="-224.44" y1="3595.14" x2="-224.44" y2="3604.75" xlink:href="#linear-gradient"/><linearGradient id="linear-gradient-5" x1="-246.68" y1="3584.62" x2="-246.68" y2="3575" xlink:href="#linear-gradient"/></defs><title>ic_chuyen_tien_phai_sinh</title><g id="Layer_2" data-name="Layer 2"><g id="Layer_1-2" data-name="Layer 1"><g clip-path="url(#clip-path)"><rect width="42" height="42" rx="14" fill="#eead70" fill-opacity="0.3"/><path d="M28.75,6.13V8.47H21.37A7.38,7.38,0,0,0,14,15.54a8.21,8.21,0,0,1,13.24-2.15h1.51v2.35l6.62-4.81Z" fill="url(#linear-gradient)"/><path d="M13.25,35.88V33.53h7.38A7.38,7.38,0,0,0,28,26.46a8.21,8.21,0,0,1-13.24,2.15H13.25V26.26L6.63,31.07Z" fill="url(#linear-gradient-2)"/><path d="M21,9.63A11.38,11.38,0,1,0,32.38,21,11.38,11.38,0,0,0,21,9.63Z" fill="url(#linear-gradient-3)"/><path d="M22.44,23.14h-.22a2.06,2.06,0,0,1-.24.39,1.45,1.45,0,0,1-.36.33,1.73,1.73,0,0,1-.53.22,2.55,2.55,0,0,1-.73.09,2.9,2.9,0,0,1-1-.19,2.68,2.68,0,0,1-.83-.59,3.21,3.21,0,0,1-.55-1,4,4,0,0,1-.19-1.3v-.21a4,4,0,0,1,.2-1.29,3.1,3.1,0,0,1,.58-.95,2.63,2.63,0,0,1,.85-.6,2.78,2.78,0,0,1,1-.2,2,2,0,0,1,1.14.28,1.73,1.73,0,0,1,.66.75h.22V17.54H20.57V16.18h1.87V15.6H24v.58h.72v1.36H24V24H22.44Zm-1.59-.41A1.48,1.48,0,0,0,22,22.28a1.61,1.61,0,0,0,.45-1.18V21A1.55,1.55,0,0,0,22,19.78a1.46,1.46,0,0,0-1.14-.46,1.58,1.58,0,0,0-1.15.44A1.61,1.61,0,0,0,19.27,21v.15a1.65,1.65,0,0,0,.43,1.2A1.62,1.62,0,0,0,20.85,22.73Z" fill="#fff"/><path d="M18.5,25h5v1h-5Z" fill="#fff"/><path d="M28.75,8.47V6.13l6.62,4.8-6.62,4.81V8.47Z" fill="url(#linear-gradient-4)"/><path d="M13.13,33.53v2.35L6.51,31.07l6.62-4.81v7.27Z" fill="url(#linear-gradient-5)"/></g></g></g></svg>