<svg xmlns="http://www.w3.org/2000/svg" xmlns:xlink="http://www.w3.org/1999/xlink" viewBox="0 0 42 42"><defs><clipPath id="clip-path"><path d="M0,21c0-6.52,0-9.79,1.07-12.36A14,14,0,0,1,8.64,1.07C11.22,0,14.48,0,21,0s9.78,0,12.36,1.07a14,14,0,0,1,7.57,7.57C42,11.21,42,14.48,42,21s0,9.79-1.07,12.36a14,14,0,0,1-7.57,7.57C30.78,42,27.52,42,21,42s-9.78,0-12.36-1.07a14,14,0,0,1-7.57-7.57C0,30.79,0,27.52,0,21Z" fill="none"/></clipPath><linearGradient id="linear-gradient" x1="-235.5" y1="3198.65" x2="-235.5" y2="3168.95" gradientTransform="matrix(1, 0, 0, -1, 256.5, 3202.88)" gradientUnits="userSpaceOnUse"><stop offset="0" stop-color="#28ffb0"/><stop offset="1" stop-color="#0f9980"/></linearGradient><linearGradient id="linear-gradient-2" x1="-239.64" y1="3173.26" x2="-239.64" y2="3183.46" gradientTransform="matrix(1, 0, 0, -1, 256.5, 3202.88)" gradientUnits="userSpaceOnUse"><stop offset="0" stop-color="#b3ffc7"/><stop offset="1" stop-color="#fff"/></linearGradient><linearGradient id="linear-gradient-3" x1="-231.36" y1="3173.26" x2="-231.36" y2="3183.46" xlink:href="#linear-gradient-2"/><linearGradient id="linear-gradient-4" x1="-235.5" y1="3186.23" x2="-235.5" y2="3191.08" xlink:href="#linear-gradient-2"/><linearGradient id="linear-gradient-5" x1="-235.65" y1="3181.86" x2="-235.65" y2="3190.01" xlink:href="#linear-gradient"/><linearGradient id="linear-gradient-6" x1="-235.66" y1="3181.86" x2="-235.66" y2="3190.01" xlink:href="#linear-gradient"/></defs><title>ic_chuyen_tien_nn</title><g id="Layer_2" data-name="Layer 2"><g id="Layer_1-2" data-name="Layer 1"><g clip-path="url(#clip-path)"><path d="M0,21c0-6.52,0-9.79,1.07-12.36A14,14,0,0,1,8.64,1.07C11.22,0,14.48,0,21,0s9.78,0,12.36,1.07a14,14,0,0,1,7.57,7.57C42,11.21,42,14.48,42,21s0,9.79-1.07,12.36a14,14,0,0,1-7.57,7.57C30.78,42,27.52,42,21,42s-9.78,0-12.36-1.07a14,14,0,0,1-7.57-7.57C0,30.79,0,27.52,0,21Z" fill="#1ac795" fill-opacity="0.3"/><path d="M33.41,18.64a.58.58,0,0,0,.59-.59V15.69a.6.6,0,0,0-.29-.51L22.14,8.31a2.31,2.31,0,0,0-2.29,0L8.29,15.18a.6.6,0,0,0-.29.51v2.36a.58.58,0,0,0,.59.59h1.77V29.28A2.36,2.36,0,0,0,8,31.64v1.77a.58.58,0,0,0,.59.59H33.41a.58.58,0,0,0,.59-.59V31.64a2.36,2.36,0,0,0-2.36-2.36V18.64Z" fill="url(#linear-gradient)"/><path d="M18.64,18.64H15.09V29.28h3.55Z" fill="url(#linear-gradient-2)"/><path d="M26.91,18.64H23.36V29.28h3.55Z" fill="url(#linear-gradient-3)"/><path d="M21,17.15a3.27,3.27,0,1,0-3.27-3.27A3.26,3.26,0,0,0,21,17.15Z" fill="url(#linear-gradient-4)"/><path d="M21.3,14.65h-.08a.6.6,0,0,1-.09.15.77.77,0,0,1-.13.12.54.54,0,0,1-.19.08,1,1,0,0,1-.27,0,1,1,0,0,1-.38-.07.84.84,0,0,1-.31-.22,1.1,1.1,0,0,1-.2-.35,1.43,1.43,0,0,1-.07-.48v-.08a1.36,1.36,0,0,1,.08-.47,1,1,0,0,1,.52-.57,1,1,0,0,1,.38-.08.73.73,0,0,1,.42.1.67.67,0,0,1,.24.28h.08v-.5h-.69v-.5h.69v-.21h.56v.21h.27v.5h-.27V15H21.3Zm-.58-.15a.57.57,0,0,0,.42-.16.6.6,0,0,0,.16-.44v-.05a.57.57,0,0,0-.58-.6.55.55,0,0,0-.42.16.62.62,0,0,0-.16.44v.05a.58.58,0,0,0,.16.44A.57.57,0,0,0,20.72,14.5Z" fill="url(#linear-gradient-5)"/><path d="M21.76,15.53H19.92v.37h1.84Z" fill="url(#linear-gradient-6)"/></g></g></g></svg>