<svg xmlns="http://www.w3.org/2000/svg" xmlns:xlink="http://www.w3.org/1999/xlink" viewBox="0 0 42 42"><defs><clipPath id="clip-path"><rect width="42" height="42" rx="14" fill="none"/></clipPath><linearGradient id="linear-gradient" x1="-235.5" y1="2618.5" x2="-235.5" y2="2644.87" gradientTransform="matrix(1, 0, 0, -1, 256.5, 2652.68)" gradientUnits="userSpaceOnUse"><stop offset="0" stop-color="#ee7219"/><stop offset="1" stop-color="#ffae4e"/></linearGradient><linearGradient id="linear-gradient-2" x1="-235.5" y1="2641.35" x2="-235.5" y2="2625.53" gradientTransform="matrix(1, 0, 0, -1, 256.5, 2652.68)" gradientUnits="userSpaceOnUse"><stop offset="0" stop-color="#dd5e16"/><stop offset="1" stop-color="#e67157"/></linearGradient></defs><title>Call-center</title><g id="Layer_2" data-name="Layer 2"><g id="Layer_1-2" data-name="Layer 1"><g clip-path="url(#clip-path)"><rect width="42" height="42" rx="14" fill="#ee7f70" fill-opacity="0.3"/><path d="M33.36,14.85H31.52A11.39,11.39,0,0,0,12.21,12a11.6,11.6,0,0,0-1.76,2.9H8.64A2.64,2.64,0,0,0,6,17.49V21a2.64,2.64,0,0,0,2.64,2.64h3.61l-.38-1.15A9.68,9.68,0,1,1,30.12,16v0a8,8,0,0,1,.41,1.6,9.68,9.68,0,0,1-.44,4.82h0A9.64,9.64,0,0,1,21,28.91a2.64,2.64,0,1,0,2.62,2.64V30.37a11.44,11.44,0,0,0,7.87-6.73h1.85A2.64,2.64,0,0,0,36,21V17.49A2.64,2.64,0,0,0,33.36,14.85Z" fill="url(#linear-gradient)"/><path d="M13.93,25.19a1.38,1.38,0,0,0-.84,1.09.88.88,0,0,0,.88.88h7a7.92,7.92,0,1,0-6.55-3.48.84.84,0,0,1,.09.95A1.73,1.73,0,0,1,13.93,25.19Zm9.71-5.94a.88.88,0,1,1,.88.88A.87.87,0,0,1,23.64,19.25Zm-3.52,0a.88.88,0,1,1,.88.88A.88.88,0,0,1,20.12,19.25Zm-3.52,0a.88.88,0,1,1,.88.88A.88.88,0,0,1,16.6,19.25Z" fill="url(#linear-gradient-2)"/></g></g></g></svg>