<svg width="42" height="47" viewBox="0 0 42 47" fill="none" xmlns="http://www.w3.org/2000/svg">
<rect width="42" height="42" rx="14" fill="#708CEE" fill-opacity="0.2"/>
<g filter="url(#filter0_d_7805_33160)">
<path fill-rule="evenodd" clip-rule="evenodd" d="M23.3125 8.19791C22.831 8 22.2207 8 21 8C19.7794 8 19.169 8 18.6876 8.19791C18.0456 8.4618 17.5356 8.96795 17.2697 9.60502C17.1484 9.89584 17.1009 10.2341 17.0823 10.7274C17.055 11.4524 16.6803 12.1235 16.0472 12.4862C15.4142 12.849 14.6413 12.8354 13.995 12.4964C13.5552 12.2657 13.2363 12.1374 12.9218 12.0963C12.2329 12.0063 11.5363 12.1916 10.985 12.6114C10.5716 12.9262 10.2664 13.4508 9.6561 14.4999C9.04576 15.5491 8.74059 16.0736 8.67258 16.5864C8.58188 17.27 8.76856 17.9615 9.19154 18.5085C9.3846 18.7582 9.65593 18.9681 10.077 19.2307C10.6961 19.6168 11.0944 20.2744 11.0944 21C11.0944 21.7256 10.696 22.3831 10.077 22.7691C9.65586 23.0317 9.38449 23.2417 9.19141 23.4914C8.76843 24.0385 8.58176 24.7299 8.67245 25.4135C8.74047 25.9263 9.04563 26.4509 9.65597 27.5C10.2663 28.5491 10.5715 29.0737 10.9849 29.3886C11.5361 29.8083 12.2328 29.9936 12.9217 29.9036C13.2361 29.8625 13.555 29.7342 13.9948 29.5036C14.6411 29.1645 15.4141 29.151 16.0472 29.5137C16.6803 29.8765 17.055 30.5476 17.0823 31.2727C17.1009 31.766 17.1484 32.1042 17.2697 32.395C17.5356 33.0321 18.0456 33.5382 18.6876 33.8021C19.169 34 19.7794 34 21 34C22.2207 34 22.831 34 23.3125 33.8021C23.9544 33.5382 24.4644 33.0321 24.7303 32.395C24.8517 32.1041 24.8992 31.7659 24.9178 31.2726C24.9451 30.5476 25.3197 29.8765 25.9527 29.5137C26.5859 29.1509 27.3588 29.1645 28.0052 29.5035C28.4449 29.7342 28.7638 29.8624 29.0782 29.9035C29.7671 29.9935 30.4638 29.8082 31.015 29.3885C31.4284 29.0736 31.7336 28.5491 32.344 27.4999C32.9543 26.4508 33.2595 25.9262 33.3275 25.4134C33.4182 24.7298 33.2315 24.0384 32.8085 23.4913C32.6154 23.2416 32.3441 23.0317 31.9229 22.769C31.3039 22.383 30.9056 21.7254 30.9056 20.9999C30.9057 20.2744 31.304 19.6169 31.9229 19.2309C32.3442 18.9683 32.6156 18.7584 32.8086 18.5086C33.2316 17.9615 33.4183 17.2701 33.3276 16.5865C33.2596 16.0737 32.9544 15.5491 32.3441 14.5C31.7337 13.4509 31.4286 12.9263 31.0152 12.6114C30.4639 12.1917 29.7672 12.0064 29.0784 12.0964C28.7639 12.1375 28.4451 12.2658 28.0053 12.4964C27.3589 12.8355 26.586 12.849 25.9529 12.4863C25.3197 12.1235 24.9451 11.4524 24.9178 10.7273C24.8992 10.234 24.8517 9.89583 24.7303 9.60502C24.4644 8.96795 23.9544 8.4618 23.3125 8.19791ZM21 24.9C23.1703 24.9 24.9297 23.1539 24.9297 21C24.9297 18.8461 23.1703 17.1 21 17.1C18.8297 17.1 17.0703 18.8461 17.0703 21C17.0703 23.1539 18.8297 24.9 21 24.9Z" fill="url(#paint0_linear_7805_33160)"/>
<ellipse cx="21.003" cy="20.9972" rx="3.93451" ry="3.91124" fill="url(#paint1_linear_7805_33160)"/>
</g>
<defs>
<filter id="filter0_d_7805_33160" x="0.650025" y="4.57143" width="40.7" height="42" filterUnits="userSpaceOnUse" color-interpolation-filters="sRGB">
<feFlood flood-opacity="0" result="BackgroundImageFix"/>
<feColorMatrix in="SourceAlpha" type="matrix" values="0 0 0 0 0 0 0 0 0 0 0 0 0 0 0 0 0 0 127 0" result="hardAlpha"/>
<feOffset dy="4.57143"/>
<feGaussianBlur stdDeviation="4"/>
<feComposite in2="hardAlpha" operator="out"/>
<feColorMatrix type="matrix" values="0 0 0 0 0.128489 0 0 0 0 0.432899 0 0 0 0 0.653333 0 0 0 0.45 0"/>
<feBlend mode="normal" in2="BackgroundImageFix" result="effect1_dropShadow_7805_33160"/>
<feBlend mode="normal" in="SourceGraphic" in2="effect1_dropShadow_7805_33160" result="shape"/>
</filter>
<linearGradient id="paint0_linear_7805_33160" x1="21" y1="34" x2="21" y2="8" gradientUnits="userSpaceOnUse">
<stop stop-color="#5558FF"/>
<stop offset="1" stop-color="#00C0FF"/>
</linearGradient>
<linearGradient id="paint1_linear_7805_33160" x1="21.003" y1="24.9084" x2="21.003" y2="17.0859" gradientUnits="userSpaceOnUse">
<stop stop-color="#EEEBFF"/>
<stop offset="1" stop-color="#FFF1FF"/>
</linearGradient>
</defs>
</svg>
