<svg xmlns="http://www.w3.org/2000/svg" xmlns:xlink="http://www.w3.org/1999/xlink" viewBox="0 0 42 42"><defs><linearGradient id="linear-gradient" x1="-221.35" y1="2771.6" x2="-224.87" y2="2766.14" gradientTransform="matrix(1, 0, 0, -1, 256.5, 2794.88)" gradientUnits="userSpaceOnUse"><stop offset="0" stop-color="#fff"/><stop offset="1" stop-color="#ffe0bd"/></linearGradient><linearGradient id="linear-gradient-2" x1="-240.19" y1="2766.21" x2="-240.19" y2="2782.86" gradientTransform="matrix(1, 0, 0, -1, 256.5, 2794.88)" gradientUnits="userSpaceOnUse"><stop offset="0" stop-color="#dd5e16"/><stop offset="1" stop-color="#e67157"/></linearGradient><linearGradient id="linear-gradient-3" x1="-239.85" y1="2779.09" x2="-241.15" y2="2769.94" xlink:href="#linear-gradient"/></defs><title>ic_cam_co</title><g id="Layer_2" data-name="Layer 2"><g id="Layer_1-2" data-name="Layer 1"><path d="M0,21c0-6.52,0-9.79,1.07-12.36A14,14,0,0,1,8.64,1.07C11.22,0,14.48,0,21,0s9.78,0,12.36,1.07a14,14,0,0,1,7.57,7.57C42,11.21,42,14.48,42,21s0,9.79-1.07,12.36a14,14,0,0,1-7.57,7.57C30.78,42,27.52,42,21,42s-9.78,0-12.36-1.07a14,14,0,0,1-7.57-7.57C0,30.79,0,27.52,0,21Z" fill="#ee7f70" fill-opacity="0.3"/><path d="M25.54,23.56l-3.83,3.83a.94.94,0,0,0-.26.65.9.9,0,0,0,.28.65.88.88,0,0,0,.65.26,1,1,0,0,0,.65-.27l3.6-3.61a.57.57,0,0,1,.18-.12.57.57,0,0,1,.42,0,.55.55,0,0,1,.3.3.57.57,0,0,1,0,.42.57.57,0,0,1-.12.18l-3.62,3.62a2,2,0,0,1-1.26.57,2,2,0,0,1-1.33-.38H16.88a1.17,1.17,0,0,0-.37,0,.92.92,0,0,0-.32.18.89.89,0,0,0-.22.29,1.06,1.06,0,0,0-.09.36.88.88,0,0,0,.06.36.89.89,0,0,0,.19.31,1,1,0,0,0,.3.21.9.9,0,0,0,.36.08h8A1.69,1.69,0,0,0,26,31l2.58-2.58A2,2,0,0,1,30,27.84h1.82V23.07H26.71a1.51,1.51,0,0,0-.63.13A1.76,1.76,0,0,0,25.54,23.56Z" fill="#fff"/><path d="M34.14,22.35h-.77a.55.55,0,0,0-.37.14.53.53,0,0,0-.17.35v5.25a.49.49,0,0,0,.17.34.54.54,0,0,0,.36.14h.77a.55.55,0,0,0,.54-.54V22.88a.5.5,0,0,0-.16-.38.66.66,0,0,0-.17-.12.52.52,0,0,0-.21,0Z" fill="url(#linear-gradient)"/><path d="M20.34,27.46a2.07,2.07,0,0,1,.51-.9l3.79-3.79a8.81,8.81,0,0,0,.63-3.3,9,9,0,1,0-4.93,8Z" fill="url(#linear-gradient-2)"/><path d="M15.36,23.22a1.18,1.18,0,0,1-.8-.31l-2.87-2.55a1.2,1.2,0,0,1,1.59-1.81l2,1.77,4-4.24A1.21,1.21,0,1,1,21,17.73l-4.78,5.1a1.23,1.23,0,0,1-.88.38Z" fill="url(#linear-gradient-3)"/></g></g></svg>