<svg xmlns="http://www.w3.org/2000/svg" xmlns:xlink="http://www.w3.org/1999/xlink" viewBox="0 0 42 42"><defs><clipPath id="clip-path"><rect width="42" height="42" rx="14" fill="none"/></clipPath><linearGradient id="linear-gradient" x1="-235.87" y1="3028.95" x2="-235.87" y2="3006.66" gradientTransform="matrix(1, 0, 0, -1, 256.5, 3040.68)" gradientUnits="userSpaceOnUse"><stop offset="0" stop-color="#fe984e"/><stop offset="1" stop-color="#fb7d40"/></linearGradient><linearGradient id="linear-gradient-2" x1="-228.4" y1="3018.88" x2="-228.4" y2="3034.68" gradientTransform="matrix(1, 0, 0, -1, 256.5, 3040.68)" gradientUnits="userSpaceOnUse"><stop offset="0" stop-color="#ffddbe"/><stop offset="1" stop-color="#fff1ff"/></linearGradient></defs><title>ic_default_feature</title><g id="Layer_2" data-name="Layer 2"><g id="Layer_1-2" data-name="Layer 1"><g clip-path="url(#clip-path)"><rect width="42" height="42" rx="14" fill="#eead70" fill-opacity="0.3"/><path d="M32.41,20.5H21.49V9.58a.84.84,0,0,0-.84-.84,12.63,12.63,0,1,0,12.6,12.6A.84.84,0,0,0,32.41,20.5Z" fill="url(#linear-gradient)"/><path d="M21.19,6a1,1,0,0,0-1,1V20.82a1,1,0,0,0,1,1H35a1,1,0,0,0,1-1A14.88,14.88,0,0,0,21.19,6Z" fill="url(#linear-gradient-2)"/></g></g></g></svg>