<svg width="42" height="42" viewBox="0 0 42 42" fill="none" xmlns="http://www.w3.org/2000/svg">
<path d="M0 21C0 14.4768 0 11.2152 1.06569 8.64243C2.4866 5.21204 5.21204 2.4866 8.64243 1.06569C11.2152 0 14.4768 0 21 0C27.5232 0 30.7848 0 33.3576 1.06569C36.788 2.4866 39.5134 5.21204 40.9343 8.64243C42 11.2152 42 14.4768 42 21C42 27.5232 42 30.7848 40.9343 33.3576C39.5134 36.788 36.788 39.5134 33.3576 40.9343C30.7848 42 27.5232 42 21 42C14.4768 42 11.2152 42 8.64243 40.9343C5.21204 39.5134 2.4866 36.788 1.06569 33.3576C0 30.7848 0 27.5232 0 21Z" fill="#167B5E" fill-opacity="0.3"/>
<path d="M11.4947 30.2091C11.6657 30.2099 11.8142 30.091 11.8517 29.9241C11.8757 29.8169 11.9008 29.7145 11.9372 29.6163C12.1652 28.9994 12.7663 28.5745 13.4395 28.573C15.9055 28.5674 18.3715 28.5659 20.8371 28.5741C21.6321 28.5768 22.2703 29.1333 22.4192 29.9118C22.4192 29.9125 22.4196 29.9136 22.4196 29.9144C22.4526 30.0861 22.6026 30.2103 22.7777 30.2099C22.9742 30.2095 23.1707 30.2091 23.3672 30.2106C23.767 30.2133 24.0913 30.5354 24.0943 30.9348C24.0966 31.2509 24.0955 31.567 24.0947 31.8831C24.0936 32.4123 23.8585 32.65 23.3327 32.6504C19.6465 32.6511 15.9606 32.6508 12.2743 32.6508C11.8135 32.6508 11.353 32.653 10.8921 32.6496C10.432 32.6463 10.1852 32.3969 10.1815 31.9338C10.1785 31.5839 10.1766 31.234 10.1822 30.8841C10.1886 30.4731 10.4458 30.2178 10.8576 30.211C11.0687 30.2076 11.2798 30.2084 11.4947 30.2091Z" fill="url(#paint0_linear_10583_55795)"/>
<path d="M23.3672 30.2106C23.1707 30.2091 22.9742 30.2095 22.7777 30.2099L11.4947 30.2091L11.4927 30.2091C11.2785 30.2084 11.0681 30.2076 10.8576 30.211C10.4458 30.2178 10.1886 30.4731 10.1822 30.8841C10.1766 31.234 10.1785 31.5839 10.1815 31.9338C10.1852 32.3969 10.432 32.6463 10.8921 32.6496C11.353 32.653 11.8135 32.6508 12.2743 32.6508C15.9606 32.6508 19.6465 32.6511 23.3327 32.6504C23.8585 32.65 24.0936 32.4123 24.0947 31.8831C24.0955 31.567 24.0966 31.2509 24.0943 30.9348C24.0913 30.5354 23.767 30.2133 23.3672 30.2106Z" fill="url(#paint1_linear_10583_55795)"/>
<path d="M20.32 9.79515C20.2812 9.40732 20.4204 9.00514 20.7374 8.72197C21.2433 8.26958 22.0245 8.32149 22.5047 8.80173L27.6301 13.9271C28.1103 14.4069 28.1622 15.1885 27.7098 15.6944C27.4267 16.0114 27.0245 16.1502 26.6367 16.1118L20.6436 10.1187C20.5355 10.0106 20.2619 10.1213 20.1157 10.1661C18.6623 10.6117 13.7488 15.4526 13.3395 16.9423L19.1702 22.7739C19.3263 22.93 19.2619 23.2441 19.2848 23.4637C19.3236 23.8515 19.1844 24.2537 18.8674 24.5369C18.3614 24.9892 17.5803 24.9373 17.1 24.4571L11.9751 19.3313C11.4949 18.8515 11.443 18.07 11.8954 17.564C12.1785 17.247 12.5807 17.1082 12.9685 17.1466C13.1224 17.1626 13.2978 17.0917 13.3395 16.9423C13.7488 15.4526 18.6623 10.6117 20.1157 10.1661C20.2643 10.1205 20.336 9.94918 20.32 9.79515Z" fill="url(#paint2_linear_10583_55795)"/>
<path d="M13.3392 16.9421C13.7485 15.4524 18.662 10.6115 20.1154 10.1658C20.2615 10.121 20.5351 10.0104 20.6432 10.1185L26.6363 16.1115C26.4823 16.0955 26.3333 16.1761 26.2654 16.3158C25.9466 16.9776 25.3041 17.8167 24.6195 18.6102C24.4364 18.8225 24.4631 19.1453 24.6825 19.3201C26.5175 20.7821 28.3785 22.255 30.1833 23.6829L31.7013 24.8843C31.857 25.0076 32.0128 25.1312 32.1681 25.2549L32.1882 25.2709C32.5601 25.5664 32.9443 25.8717 33.3269 26.1677C33.9291 26.6332 34.2655 27.2717 34.3266 28.0646C34.3461 28.8074 34.062 29.5282 33.5468 30.0434C33.291 30.2992 32.9931 30.4929 32.6605 30.6191C31.6313 31.0103 30.5015 30.7288 29.7833 29.9025C28.6164 28.5609 27.4487 27.2202 26.2806 25.8799L25.895 25.4373C24.6789 24.0415 23.4628 22.6456 22.2487 21.2483C22.2075 21.2014 22.1358 21.1985 22.0901 21.2409C21.3056 21.968 20.4645 22.6229 19.4887 23.0925C19.3493 23.1603 19.2688 23.3097 19.2845 23.4634L13.2927 17.4708C13.1843 17.3624 13.2984 17.0898 13.3392 16.9421Z" fill="url(#paint3_linear_10583_55795)"/>
<path d="M19.0317 21.032L16.2501 18.2503L17.4356 17.0648C18.0563 16.4441 18.8467 16.4325 19.4423 17.0282L19.4462 17.032C20.0418 17.6277 20.0226 18.4103 19.4019 19.031L18.9238 19.5091L19.7392 20.3245L19.0317 21.032ZM17.8076 17.7761L17.4992 18.0845L18.3917 18.9771L18.7002 18.6686C18.999 18.3698 19.0202 18.0363 18.731 17.7472L18.7272 17.7433C18.438 17.4542 18.1064 17.4773 17.8076 17.7761Z" fill="white"/>
<path d="M22.6751 17.4889C21.983 18.1809 21.2389 18.312 20.6761 17.8108L20.6394 17.778L21.2968 17.1207L21.3218 17.138C21.5358 17.2826 21.8616 17.192 22.1334 16.9202C22.4148 16.6388 22.4688 16.3458 22.2953 16.1723L22.2934 16.1703C22.1353 16.0123 21.9387 16.0624 21.5493 16.3245L21.21 16.5559C20.5565 17.005 19.9937 17.0243 19.5676 16.5983L19.5657 16.5964C19.0298 16.0605 19.1493 15.2508 19.7874 14.6128C20.4852 13.9149 21.2081 13.8475 21.7382 14.3275L21.7806 14.366L21.1233 15.0234L21.1002 15.0041C20.8958 14.8422 20.6028 14.9077 20.3484 15.1621C20.0881 15.4224 20.0592 15.6865 20.2192 15.8465L20.2211 15.8484C20.3715 15.9988 20.5816 15.9467 20.9363 15.7038L21.2756 15.4725C21.9792 14.9964 22.4919 14.9617 22.9372 15.407L22.9392 15.4089C23.4943 15.9641 23.4115 16.7525 22.6751 17.4889Z" fill="white"/>
<defs>
<linearGradient id="paint0_linear_10583_55795" x1="19.5" y1="30.0005" x2="19.5" y2="28.5005" gradientUnits="userSpaceOnUse">
<stop stop-color="#A3FFD8"/>
<stop offset="1" stop-color="#D9FFEE"/>
</linearGradient>
<linearGradient id="paint1_linear_10583_55795" x1="17.1371" y1="30.2085" x2="17.1371" y2="32.6515" gradientUnits="userSpaceOnUse">
<stop stop-color="#3FE4A8"/>
<stop offset="1" stop-color="#0D8732"/>
</linearGradient>
<linearGradient id="paint2_linear_10583_55795" x1="16.3147" y1="13.1417" x2="23.2901" y2="20.1171" gradientUnits="userSpaceOnUse">
<stop stop-color="#AEFFD0"/>
<stop offset="1" stop-color="#CDFFE1"/>
</linearGradient>
<linearGradient id="paint3_linear_10583_55795" x1="17.1089" y1="12.3469" x2="34.1761" y2="29.4141" gradientUnits="userSpaceOnUse">
<stop stop-color="#3FE4A8"/>
<stop offset="1" stop-color="#0D8732"/>
</linearGradient>
</defs>
</svg>
