<svg xmlns="http://www.w3.org/2000/svg" xmlns:xlink="http://www.w3.org/1999/xlink" viewBox="0 0 42 42"><defs><linearGradient id="linear-gradient" x1="-235.5" y1="3377.89" x2="-235.5" y2="3374.79" gradientTransform="matrix(1, 0, 0, -1, 256.5, 3406.88)" gradientUnits="userSpaceOnUse"><stop offset="0" stop-color="#fb8142"/><stop offset="1" stop-color="#feb74d"/></linearGradient><linearGradient id="linear-gradient-2" x1="-228.39" y1="3388.32" x2="-230.46" y2="3382.14" gradientTransform="matrix(1, 0, 0, -1, 256.5, 3406.88)" gradientUnits="userSpaceOnUse"><stop offset="0" stop-color="#dd5e16"/><stop offset="1" stop-color="#e67157"/></linearGradient><linearGradient id="linear-gradient-3" x1="-647.64" y1="3888.82" x2="-647.64" y2="3890.89" gradientTransform="matrix(0, 1, 1, 0, -3874.19, 672.08)" gradientUnits="userSpaceOnUse"><stop offset="0" stop-color="#ff8d3a"/><stop offset="1" stop-color="#ffc581"/></linearGradient><linearGradient id="linear-gradient-4" x1="-643.04" y1="3901.38" x2="-643.04" y2="3903.44" gradientTransform="matrix(0, 1, 1, 0, -3882.16, 654.92)" xlink:href="#linear-gradient-3"/><linearGradient id="linear-gradient-5" x1="-644.11" y1="3900.76" x2="-644.11" y2="3890.46" gradientTransform="matrix(0, 1, 1, 0, -3877.68, 662.25)" xlink:href="#linear-gradient-2"/></defs><title>ic_dat_lenh</title><g id="Layer_2" data-name="Layer 2"><g id="Layer_1-2" data-name="Layer 1"><rect width="42" height="42" rx="14" fill="#ee7f70" fill-opacity="0.3"/><path d="M8.55,29h24.9A1.54,1.54,0,0,1,35,30.54h0a1.55,1.55,0,0,1-1.55,1.55H8.55A1.55,1.55,0,0,1,7,30.54H7A1.54,1.54,0,0,1,8.55,29Z" fill="url(#linear-gradient)"/><path d="M23,18.8A1.16,1.16,0,0,1,24.4,18l7,1.72a1.16,1.16,0,0,1,.83,1.49L30.94,25a1.15,1.15,0,0,1-1.56.69l-6.59-2.9a1.16,1.16,0,0,1-.63-1.43Z" fill="url(#linear-gradient-2)"/><rect x="14.62" y="18.82" width="2.07" height="11.24" rx="1" transform="translate(-12.49 31.54) rotate(-71.51)" fill="url(#linear-gradient-3)"/><rect x="19.22" y="6.26" width="2.07" height="11.24" rx="1" transform="translate(2.56 27.32) rotate(-71.51)" fill="url(#linear-gradient-4)"/><rect x="12.78" y="13.58" width="10.3" height="9.11" rx="1.16" transform="translate(-4.95 29.38) rotate(-71.51)" fill="url(#linear-gradient-5)"/></g></g></svg>