<svg xmlns="http://www.w3.org/2000/svg" xmlns:xlink="http://www.w3.org/1999/xlink" viewBox="0 0 42 42"><defs><linearGradient id="linear-gradient" x1="-236.13" y1="3373.23" x2="-236.13" y2="3395.11" gradientTransform="matrix(1, 0, 0, -1, 256.5, 3406.88)" gradientUnits="userSpaceOnUse"><stop offset="0" stop-color="#ff8d3a"/><stop offset="1" stop-color="#ffc581"/></linearGradient><linearGradient id="linear-gradient-2" x1="-236.26" y1="3395.01" x2="-236.26" y2="3400.13" xlink:href="#linear-gradient"/></defs><title>ic_ezsaving</title><g id="Layer_2" data-name="Layer 2"><g id="Layer_1-2" data-name="Layer 1"><rect width="42" height="42" rx="14" fill="#ffc24d" fill-opacity="0.4"/><path d="M32.47,28c0,6.2-3.36,6.4-12.09,6.4h0c-8.73,0-12.09-.2-12.09-6.4,0-5.21,4.66-8.18,9-15.15h6.15C27.81,19.83,32.47,22.8,32.47,28Z" fill="url(#linear-gradient)"/><path d="M25.77,7.64l-2,4.4H16.68l-2-4.25c0-.32.38-.58.79-.6a2.86,2.86,0,0,1,1.16.27,2.77,2.77,0,0,0,1.17.26c.88-.06,1.58-.89,2.42-.69.51.12.79.58,1.3.7s1.22-.29,1.83-.5A2.58,2.58,0,0,1,25.77,7.64Z" fill="url(#linear-gradient-2)"/><path d="M16.68,11.85h7.11L23.47,13s-.71-.06-1.41-.09l1.79,4.95a.54.54,0,0,1-.51.72.56.56,0,0,1-.53-.42l-1.13-5-.41,3.58a.56.56,0,1,1-1.09-.22l1.05-3.62H19.07C18.25,12.9,17,13,17,13l-.32-1.14Z" fill="#fffefc" fill-rule="evenodd"/><path d="M33.73,33.46l.05-.71H33.6c-.48-1.1-2.19-2-4.29-2.17s-4,.49-4.63,1.55h-.15l-.05.62c-.1,1.4,1.88,2.7,4.43,2.9S33.62,34.86,33.73,33.46Z" fill="#fe9c08"/><path d="M29,35c-2.55-.21-4.53-1.5-4.42-2.9s2.26-2.37,4.82-2.17,4.53,1.5,4.42,2.9S31.51,35.21,29,35Z" fill="#ffac2f"/><path d="M29.29,30.37c2.22.18,4,1.24,4,2.41a.49.49,0,0,0,0-.12c.1-1.21-1.69-2.35-4-2.53S25.06,30.79,25,32v.12C25.17,31,27.06,30.2,29.29,30.37Z" fill="#fe9c08"/><path d="M29,34.54c2.23.17,4.12-.61,4.33-1.76,0-1.17-1.78-2.23-4-2.41S25.17,31,25,32.13C25,33.3,26.73,34.36,29,34.54Z" fill="#ffdc69"/><path d="M29.72,30.89c.49.61,1,1.23,1.41,1.87l.93,1.32a3.5,3.5,0,0,0,.64-.39c-.33-.5-.67-1-1-1.49s-.82-1.11-1.24-1.65a7.86,7.86,0,0,0-1.13-.17C29.45,30.54,29.59,30.71,29.72,30.89Z" fill="#ffdc69" opacity="0.5" style="isolation:isolate"/><path d="M26.37,31.88c.57.69,1.12,1.41,1.65,2.14.11.15.21.3.32.44a6.17,6.17,0,0,0,.62.08,7,7,0,0,0,1,0c-.32-.42-.64-.83-1-1.24-.74-.9-1.49-1.79-2.21-2.71a4.15,4.15,0,0,0-1.08.5C25.93,31.36,26.16,31.62,26.37,31.88Z" fill="#ffdc69" opacity="0.5" style="isolation:isolate"/><path d="M33.2,33.93l-.06.08a.38.38,0,0,1-.09.09l0,.06-.07.05a2.5,2.5,0,0,1-.38.25,1.46,1.46,0,0,1-.25.13l-.28.12-.32.11-.35.09-.18,0L31,35c-.13,0-.26,0-.4.05l-.2,0h-.2l-.42,0H28.9l-.42,0L28.05,35a6.84,6.84,0,0,1-.81-.19,5.26,5.26,0,0,1-.73-.28,5.76,5.76,0,0,1-.61-.33,4.8,4.8,0,0,1-.47-.36l-.17-.17c-.06,0-.1-.1-.15-.15a2.15,2.15,0,0,1-.18-.23l-.06-.08.07.08a.57.57,0,0,0,.08.09l.11.12.15.14.19.16a3.08,3.08,0,0,0,.48.32,5.76,5.76,0,0,0,1.32.57,7.1,7.1,0,0,0,.8.17l.41,0,.43,0,.21,0h.64a1.34,1.34,0,0,0,.2,0h.41l.2,0,.39,0,.19,0a1.13,1.13,0,0,0,.18,0l.34-.08.32-.09.29-.1.25-.11a3.77,3.77,0,0,0,.38-.23l.13-.1.09-.08Z" fill="#fff" opacity="0.6" style="isolation:isolate"/><path d="M29.1,30.74l-.16-.8-.2,0c-.85-1.05-3-1.52-5.34-1.06S19.15,30.69,18.82,32l-.16,0,.14.7c.3,1.55,2.86,2.37,5.7,1.81S29.41,32.29,29.1,30.74Z" fill="#fe9c08"/><path d="M24.36,33.87c-2.84.56-5.39-.25-5.7-1.81s1.76-3.27,4.6-3.83,5.4.25,5.71,1.81S27.21,33.31,24.36,33.87Z" fill="#ffac2f"/><path d="M23.32,28.72c2.48-.49,4.71.14,5.09,1.41a.68.68,0,0,0,0-.14c-.26-1.35-2.56-2-5.13-1.54s-4.43,2-4.16,3.37a.35.35,0,0,0,0,.13C19,30.63,20.83,29.2,23.32,28.72Z" fill="#fe9c08"/><path d="M24.22,33.36c2.49-.48,4.31-1.91,4.19-3.23-.38-1.27-2.61-1.9-5.09-1.41S19,30.63,19.13,32C19.51,33.22,21.74,33.85,24.22,33.36Z" fill="#ffdc69"/><path d="M24,29.15c.71.51,1.41,1.06,2.1,1.61l1.42,1.15a3.34,3.34,0,0,0,.58-.62c-.52-.44-1-.88-1.57-1.31s-1.22-1-1.85-1.42a9.87,9.87,0,0,0-1.28.15Z" fill="#ffdc69" opacity="0.5" style="isolation:isolate"/><path d="M20.6,31.25c.83.58,1.64,1.2,2.44,1.83l.48.39c.23,0,.47-.06.7-.11a9.15,9.15,0,0,0,1.12-.3q-.7-.54-1.44-1.05c-1.08-.76-2.17-1.5-3.23-2.28a4.3,4.3,0,0,0-1,.87Z" fill="#ffdc69" opacity="0.5" style="isolation:isolate"/><path d="M28.67,31.41a.49.49,0,0,1-.05.11.66.66,0,0,1-.06.12.56.56,0,0,0,0,.08s0,.05-.06.08a2.64,2.64,0,0,1-.33.39l-.23.21-.28.22-.31.21-.36.21-.19.09-.19.1a4.08,4.08,0,0,1-.42.17l-.21.09-.22.08-.45.14-.47.13-.12,0-.11,0-.24.05-.48.09a4,4,0,0,1-.48.08,5.92,5.92,0,0,1-.94,0,6,6,0,0,1-.87-.08,5.13,5.13,0,0,1-.77-.18,5.32,5.32,0,0,1-.62-.25l-.24-.13-.21-.12a3,3,0,0,1-.26-.19l-.1-.07.1.06.12.08.16.09.21.11.24.12.62.21a6.63,6.63,0,0,0,1.62.21,7.5,7.5,0,0,0,.93-.06l.46-.07.47-.1.24,0,.12,0,.11,0,.46-.12.23-.07.22-.07.22-.07.21-.08c.14-.06.28-.1.41-.17l.2-.08.19-.09.35-.19.32-.2.28-.2c.08-.07.17-.13.24-.2a3.82,3.82,0,0,0,.35-.36l.11-.15a.52.52,0,0,0,.07-.12Z" fill="#fff" opacity="0.6" style="isolation:isolate"/><path d="M21.49,25.45h-.16a1.46,1.46,0,0,1-.17.29,1,1,0,0,1-.26.23,1.21,1.21,0,0,1-.38.17,2.19,2.19,0,0,1-1.28-.08,1.9,1.9,0,0,1-.6-.43,2.32,2.32,0,0,1-.4-.69A3,3,0,0,1,18.1,24v-.15a2.67,2.67,0,0,1,.15-.93,2.06,2.06,0,0,1,.42-.69,1.65,1.65,0,0,1,.62-.43,1.85,1.85,0,0,1,.74-.15,1.54,1.54,0,0,1,.83.2,1.27,1.27,0,0,1,.47.55h.16v-1H20.14v-1h1.35V20h1.09v.42h.52v1h-.52v4.67H21.49Zm-1.15-.29a1.1,1.1,0,0,0,.83-.33,1.18,1.18,0,0,0,.32-.85v-.11a1.18,1.18,0,0,0-.32-.85,1.1,1.1,0,0,0-.83-.33,1.15,1.15,0,0,0-.83.32,1.16,1.16,0,0,0-.31.86V24a1.16,1.16,0,0,0,.31.86A1.15,1.15,0,0,0,20.34,25.16Z" fill="#fff"/><path d="M18.64,26.8h3.62v.72H18.64Z" fill="#fff"/></g></g></svg>