<svg width="43" height="42" viewBox="0 0 43 42" fill="none" xmlns="http://www.w3.org/2000/svg">
<g filter="url(#filter0_b_10583_56041)">
<g clip-path="url(#clip0_10583_56041)">
<path d="M0 21C0 14.4768 0 11.2152 1.06569 8.64243C2.4866 5.21204 5.21204 2.4866 8.64243 1.06569C11.2152 0 14.4768 0 21 0H22C28.5232 0 31.7848 0 34.3576 1.06569C37.788 2.4866 40.5134 5.21204 41.9343 8.64243C43 11.2152 43 14.4768 43 21C43 27.5232 43 30.7848 41.9343 33.3576C40.5134 36.788 37.788 39.5134 34.3576 40.9343C31.7848 42 28.5232 42 22 42H21C14.4768 42 11.2152 42 8.64243 40.9343C5.21204 39.5134 2.4866 36.788 1.06569 33.3576C0 30.7848 0 27.5232 0 21Z" fill="#70A2EE" fill-opacity="0.25"/>
<g filter="url(#filter1_d_10583_56041)">
<path d="M15.4129 30.8387C14.8167 31.3718 14.0479 31.6653 13.248 31.6653C11.4571 31.6653 10 30.2083 10 28.4173L10 17.4133C10 14.4284 12.4284 12 15.4133 12H24.4941H32.9133L32.9133 19.6461V22.0747C32.9133 27 32.9133 29.5 27.5 29.5H16.9095L15.4129 30.8387Z" fill="url(#paint0_linear_10583_56041)"/>
<path d="M14.6875 22.8062H17.5C18.0178 22.8062 18.4375 22.3864 18.4375 21.8687C18.4375 21.3509 18.0178 20.9312 17.5 20.9312H14.6875C14.1697 20.9312 13.75 21.3509 13.75 21.8687C13.75 22.3864 14.1697 22.8062 14.6875 22.8062Z" fill="url(#paint1_linear_10583_56041)"/>
<path d="M14.6875 19.0562H17.5C18.0178 19.0562 18.4375 18.6364 18.4375 18.1187C18.4375 17.6009 18.0178 17.1812 17.5 17.1812H14.6875C14.1697 17.1812 13.75 17.6009 13.75 18.1187C13.75 18.6364 14.1697 19.0562 14.6875 19.0562Z" fill="url(#paint2_linear_10583_56041)"/>
<path d="M20.1925 21.8686C20.1925 22.3864 20.6122 22.8061 21.13 22.8061C23.0904 22.8061 24.9334 22.0427 26.3196 20.6565L33.1755 13.7999C34.2746 12.7009 34.2748 10.9217 33.1755 9.82245C32.079 8.72585 30.2947 8.72585 29.198 9.82245L22.3421 16.679C20.956 18.0653 20.1925 19.9083 20.1925 21.8686Z" fill="url(#paint3_linear_10583_56041)"/>
</g>
</g>
</g>
<defs>
<filter id="filter0_b_10583_56041" x="-14" y="-14" width="71" height="70" filterUnits="userSpaceOnUse" color-interpolation-filters="sRGB">
<feFlood flood-opacity="0" result="BackgroundImageFix"/>
<feGaussianBlur in="BackgroundImageFix" stdDeviation="7"/>
<feComposite in2="SourceAlpha" operator="in" result="effect1_backgroundBlur_10583_56041"/>
<feBlend mode="normal" in="SourceGraphic" in2="effect1_backgroundBlur_10583_56041" result="shape"/>
</filter>
<filter id="filter1_d_10583_56041" x="2" y="5" width="40" height="40" filterUnits="userSpaceOnUse" color-interpolation-filters="sRGB">
<feFlood flood-opacity="0" result="BackgroundImageFix"/>
<feColorMatrix in="SourceAlpha" type="matrix" values="0 0 0 0 0 0 0 0 0 0 0 0 0 0 0 0 0 0 127 0" result="hardAlpha"/>
<feOffset dy="4"/>
<feGaussianBlur stdDeviation="4"/>
<feComposite in2="hardAlpha" operator="out"/>
<feColorMatrix type="matrix" values="0 0 0 0 0.235294 0 0 0 0 0.466667 0 0 0 0 1 0 0 0 0.1 0"/>
<feBlend mode="normal" in2="BackgroundImageFix" result="effect1_dropShadow_10583_56041"/>
<feBlend mode="normal" in="SourceGraphic" in2="effect1_dropShadow_10583_56041" result="shape"/>
</filter>
<linearGradient id="paint0_linear_10583_56041" x1="21.4567" y1="31.6653" x2="21.4567" y2="5.84828" gradientUnits="userSpaceOnUse">
<stop stop-color="#3A7DFF"/>
<stop offset="1" stop-color="#81CAFF"/>
</linearGradient>
<linearGradient id="paint1_linear_10583_56041" x1="16.0938" y1="22.8062" x2="16.0938" y2="20.9312" gradientUnits="userSpaceOnUse">
<stop stop-color="#FCDBFF"/>
<stop offset="1" stop-color="white"/>
</linearGradient>
<linearGradient id="paint2_linear_10583_56041" x1="16.0938" y1="19.0562" x2="16.0938" y2="17.1812" gradientUnits="userSpaceOnUse">
<stop stop-color="#FCDBFF"/>
<stop offset="1" stop-color="white"/>
</linearGradient>
<linearGradient id="paint3_linear_10583_56041" x1="27.0962" y1="22.8061" x2="27.0962" y2="9" gradientUnits="userSpaceOnUse">
<stop stop-color="#FCDBFF"/>
<stop offset="1" stop-color="white"/>
</linearGradient>
<clipPath id="clip0_10583_56041">
<path d="M0 21C0 14.4768 0 11.2152 1.06569 8.64243C2.4866 5.21204 5.21204 2.4866 8.64243 1.06569C11.2152 0 14.4768 0 21 0H22C28.5232 0 31.7848 0 34.3576 1.06569C37.788 2.4866 40.5134 5.21204 41.9343 8.64243C43 11.2152 43 14.4768 43 21C43 27.5232 43 30.7848 41.9343 33.3576C40.5134 36.788 37.788 39.5134 34.3576 40.9343C31.7848 42 28.5232 42 22 42H21C14.4768 42 11.2152 42 8.64243 40.9343C5.21204 39.5134 2.4866 36.788 1.06569 33.3576C0 30.7848 0 27.5232 0 21Z" fill="white"/>
</clipPath>
</defs>
</svg>
