<svg xmlns="http://www.w3.org/2000/svg" xmlns:xlink="http://www.w3.org/1999/xlink" viewBox="0 0 42 42"><defs><linearGradient id="linear-gradient" x1="-235.5" y1="2573.63" x2="-235.5" y2="2561.7" gradientTransform="matrix(1, 0, 0, -1, 256.5, 2590.88)" gradientUnits="userSpaceOnUse"><stop offset="0" stop-color="#28ffb0"/><stop offset="1" stop-color="#0f9980"/></linearGradient><linearGradient id="linear-gradient-2" x1="-235.5" y1="2574.74" x2="-235.5" y2="2578.35" gradientTransform="matrix(1, 0, 0, -1, 256.5, 2590.88)" gradientUnits="userSpaceOnUse"><stop offset="0" stop-color="#b3ffc7"/><stop offset="1" stop-color="#fff"/></linearGradient></defs><title>ic_gia_han</title><g id="Layer_2" data-name="Layer 2"><g id="Layer_1-2" data-name="Layer 1"><path d="M0,21c0-6.52,0-9.78,1.07-12.36A14,14,0,0,1,8.64,1.07C11.22,0,14.48,0,21,0s9.78,0,12.36,1.07a14,14,0,0,1,7.57,7.57C42,11.22,42,14.48,42,21s0,9.78-1.07,12.36a14,14,0,0,1-7.57,7.57C30.78,42,27.52,42,21,42s-9.78,0-12.36-1.07a14,14,0,0,1-7.57-7.57C0,30.78,0,27.52,0,21Z" fill="#1ac795" fill-opacity="0.3"/><path d="M11.11,16.94H30.89V28A1.92,1.92,0,0,1,29,29.93H13A1.92,1.92,0,0,1,11.11,28Z" fill="url(#linear-gradient)"/><path d="M29.86,12.07H12.14a1.08,1.08,0,0,0-1,1.12v2.94H30.89V13.19A1.08,1.08,0,0,0,29.86,12.07ZM13.22,14.91A.81.81,0,1,1,14,14.1.81.81,0,0,1,13.22,14.91Zm15.56,0a.81.81,0,1,1,.81-.81A.81.81,0,0,1,28.78,14.91Z" fill-rule="evenodd" fill="url(#linear-gradient-2)"/><path d="M21,20.68V25.6" fill="none" stroke="#fff" stroke-linecap="round" stroke-linejoin="round" stroke-width="1.4"/><path d="M23.46,23.14H18.54" fill="none" stroke="#fff" stroke-linecap="round" stroke-linejoin="round" stroke-width="1.4"/></g></g></svg>