<svg xmlns="http://www.w3.org/2000/svg" xmlns:xlink="http://www.w3.org/1999/xlink" viewBox="0 0 42 42"><defs><clipPath id="clip-path"><path d="M0,21c0-6.52,0-9.78,1.07-12.36A14,14,0,0,1,8.64,1.07C11.22,0,14.48,0,21,0s9.79,0,12.36,1.07a14,14,0,0,1,7.57,7.57C42,11.22,42,14.48,42,21s0,9.78-1.07,12.36a14,14,0,0,1-7.57,7.57C30.79,42,27.52,42,21,42s-9.78,0-12.36-1.07a14,14,0,0,1-7.57-7.57C0,30.78,0,27.52,0,21Z" fill="none"/></clipPath><mask id="mask" x="0" y="0" width="42" height="42" maskUnits="userSpaceOnUse"><g id="mask1_7805_30974" data-name="mask1 7805 30974"><path d="M42,0H0V42H42Z" fill="#fff"/></g></mask><linearGradient id="linear-gradient" x1="-235.35" y1="2886.71" x2="-235.35" y2="2906.32" gradientTransform="matrix(1, 0, 0, -1, 256.5, 2916.68)" gradientUnits="userSpaceOnUse"><stop offset="0" stop-color="#dd5e16"/><stop offset="1" stop-color="#e67157"/></linearGradient><linearGradient id="linear-gradient-2" x1="-235.35" y1="2882.67" x2="-235.35" y2="2911.1" gradientTransform="matrix(1, 0, 0, -1, 256.5, 2916.68)" gradientUnits="userSpaceOnUse"><stop offset="0" stop-color="#ff8d3a"/><stop offset="1" stop-color="#ffc581"/></linearGradient><linearGradient id="linear-gradient-3" x1="-242.5" y1="2904.18" x2="-228.19" y2="2904.18" gradientTransform="matrix(1, 0, 0, -1, 256.5, 2916.68)" gradientUnits="userSpaceOnUse"><stop offset="0" stop-color="#ffddbe"/><stop offset="1" stop-color="#fff1ff"/></linearGradient><linearGradient id="linear-gradient-4" x1="-256.35" y1="2900.72" x2="-233.38" y2="2900.72" xlink:href="#linear-gradient-3"/></defs><title>ic_gd_tien</title><g id="Layer_2" data-name="Layer 2"><g id="Layer_1-2" data-name="Layer 1"><g clip-path="url(#clip-path)"><path d="M0,21c0-6.52,0-9.78,1.07-12.36A14,14,0,0,1,8.64,1.07C11.22,0,14.48,0,21,0s9.79,0,12.36,1.07a14,14,0,0,1,7.57,7.57C42,11.22,42,14.48,42,21s0,9.78-1.07,12.36a14,14,0,0,1-7.57,7.57C30.79,42,27.52,42,21,42s-9.78,0-12.36-1.07a14,14,0,0,1-7.57-7.57C0,30.78,0,27.52,0,21Z" fill="#eead70" fill-opacity="0.3"/><g mask="url(#mask)"><path d="M31.31,11.34H11a3,3,0,0,0-3,3V27.65a3,3,0,0,0,3,3H31.31a3,3,0,0,0,3-3V14.34A3,3,0,0,0,31.31,11.34Z" fill="url(#linear-gradient)"/><path d="M27.27,7H15a4,4,0,0,0-4,4V31a4,4,0,0,0,4,4H27.27a4,4,0,0,0,4-4V11A4,4,0,0,0,27.27,7Z" fill="url(#linear-gradient-2)"/><path d="M14.63,11.8H27.68a.7.7,0,0,1,0,1.4h-13a.7.7,0,0,1,0-1.4Z" fill="url(#linear-gradient-3)"/><path d="M14.52,15.26H22.6c.29,0,.52.31.52.7s-.23.7-.52.7H14.52c-.29,0-.52-.31-.52-.7S14.23,15.26,14.52,15.26Z" fill="url(#linear-gradient-4)"/><path d="M22.07,27h-.15a1.53,1.53,0,0,1-.18.29,1,1,0,0,1-.64.4,2.17,2.17,0,0,1-.54.06,1.77,1.77,0,0,1-1.37-.57,2.31,2.31,0,0,1-.4-.71,3,3,0,0,1-.14-.95v-.16a2.73,2.73,0,0,1,.15-.94,2.18,2.18,0,0,1,.43-.69,1.71,1.71,0,0,1,.62-.44,2.09,2.09,0,0,1,.75-.15,1.53,1.53,0,0,1,.84.2,1.43,1.43,0,0,1,.48.55h.15v-1H20.7v-1h1.37V21.5h1.11v.42h.53v1h-.53v4.74H22.07Zm-1.16-.29a1.1,1.1,0,0,0,.83-.33,1.21,1.21,0,0,0,.33-.87v-.11a1.12,1.12,0,0,0-.33-.86,1.1,1.1,0,0,0-.83-.33,1.12,1.12,0,0,0-1.17,1.2v.11a1.24,1.24,0,0,0,.32.88,1.16,1.16,0,0,0,.85.32Z" fill="#fff"/><path d="M22.85,28.77H19.18v.73h3.67Z" fill="#fff"/></g></g></g></g></svg>