<svg xmlns="http://www.w3.org/2000/svg" xmlns:xlink="http://www.w3.org/1999/xlink" viewBox="0 0 42 42"><defs><linearGradient id="linear-gradient" x1="-235.5" y1="2989.04" x2="-235.5" y2="2966.17" gradientTransform="matrix(1, 0, 0, -1, 256.5, 2998.88)" gradientUnits="userSpaceOnUse"><stop offset="0" stop-color="#fe984e"/><stop offset="1" stop-color="#fb7d40"/></linearGradient><linearGradient id="linear-gradient-2" x1="-237.2" y1="2990.46" x2="-232.95" y2="2990.46" gradientTransform="matrix(1, 0, 0, -1, 256.5, 2998.88)" gradientUnits="userSpaceOnUse"><stop offset="0" stop-color="#ffddbe"/><stop offset="1" stop-color="#fff1ff"/></linearGradient><linearGradient id="linear-gradient-3" x1="-229.68" y1="2964.14" x2="-229.68" y2="2974.61" xlink:href="#linear-gradient-2"/><linearGradient id="linear-gradient-4" x1="-229.69" y1="2970.12" x2="-229.69" y2="2972.34" xlink:href="#linear-gradient"/><linearGradient id="linear-gradient-5" x1="-229.69" y1="2966.24" x2="-229.69" y2="2974" xlink:href="#linear-gradient"/><linearGradient id="linear-gradient-6" x1="-231.19" y1="2967.21" x2="-228.41" y2="2967.21" xlink:href="#linear-gradient"/><linearGradient id="linear-gradient-7" x1="-230.89" y1="2964.74" x2="-228.88" y2="2964.74" xlink:href="#linear-gradient"/></defs><title>ic_han_muc</title><g id="Layer_2" data-name="Layer 2"><g id="Layer_1-2" data-name="Layer 1"><path d="M0,21c0-6.52,0-9.79,1.07-12.36A14,14,0,0,1,8.64,1.07C11.21,0,14.48,0,21,0s9.79,0,12.36,1.07a14,14,0,0,1,7.57,7.57C42,11.21,42,14.48,42,21s0,9.79-1.07,12.36a14,14,0,0,1-7.57,7.57C30.79,42,27.52,42,21,42s-9.79,0-12.36-1.07a14,14,0,0,1-7.57-7.57C0,30.79,0,27.52,0,21Z" fill="#eead70" fill-opacity="0.3"/><path d="M12.89,9.84H29.11a1.42,1.42,0,0,1,1.32,1.5V31.21a1.42,1.42,0,0,1-1.32,1.5H12.89a1.42,1.42,0,0,1-1.32-1.5V11.34A1.42,1.42,0,0,1,12.89,9.84Z" fill="url(#linear-gradient)"/><path d="M19.3,8.49A1.48,1.48,0,0,1,20.78,7h1.29a1.48,1.48,0,0,1,1.48,1.48V9.83H19.3Z" fill="url(#linear-gradient-2)"/><path d="M31.06,24.77A6,6,0,1,0,32.82,29,6,6,0,0,0,31.06,24.77Z" fill="url(#linear-gradient-3)"/><path d="M27.16,26.27h-.7v2.55h.7Z" fill="url(#linear-gradient-4)"/><path d="M30.4,32.6l-.25.25-1.06-1.06.5-.5.55.55a4.36,4.36,0,0,0,1-2.48h-.78v-.7h.78a4.39,4.39,0,0,0-1-2.48l-.55.55-.5-.5.55-.55a4.39,4.39,0,0,0-2.48-1v.78h-.7v-.78a4.39,4.39,0,0,0-2.48,1l.55.55-.5.5-.55-.55a4.39,4.39,0,0,0-1,2.48h.78v.7h-.78a4.3,4.3,0,0,0,1,2.48l.55-.55.5.5-1.06,1.06-.25-.25a5.08,5.08,0,1,1,7.18,0Z" fill="url(#linear-gradient-5)"/><path d="M27.19,33H27.1a1.4,1.4,0,0,1-.1.16.58.58,0,0,1-.14.13.67.67,0,0,1-.21.09,1.23,1.23,0,0,1-.29,0,1.07,1.07,0,0,1-.41-.08.78.78,0,0,1-.33-.24,1.13,1.13,0,0,1-.22-.39,1.62,1.62,0,0,1-.08-.52v-.09a1.72,1.72,0,0,1,.08-.52,1.28,1.28,0,0,1,.23-.38.88.88,0,0,1,.34-.24,1.15,1.15,0,0,1,.41-.08.87.87,0,0,1,.46.11.79.79,0,0,1,.27.3h.09v-.55h-.75v-.55h.75v-.23h.61v.23h.29v.55h-.29v2.59H27.2V33Zm-.63-.16a.62.62,0,0,0,.46-.18.65.65,0,0,0,.18-.48v-.06a.63.63,0,0,0-.18-.47.68.68,0,0,0-.92,0,.63.63,0,0,0-.17.48v.06a.69.69,0,0,0,.17.48A.61.61,0,0,0,26.56,32.83Z" fill="url(#linear-gradient-6)"/><path d="M27.62,33.94h-2v.4h2Z" fill="url(#linear-gradient-7)"/><path d="M19.13,21.84H14.21" fill="none" stroke="#fff" stroke-linecap="round" stroke-linejoin="round" stroke-width="1.4"/><path d="M23.86,18.34H14.21" fill="none" stroke="#fff" stroke-linecap="round" stroke-linejoin="round" stroke-width="1.4"/><path d="M27.79,14.84H14.21" fill="none" stroke="#fff" stroke-linecap="round" stroke-linejoin="round" stroke-width="1.4"/></g></g></svg>