<svg xmlns="http://www.w3.org/2000/svg" xmlns:xlink="http://www.w3.org/1999/xlink" viewBox="0 0 42 42"><defs><linearGradient id="linear-gradient" x1="-222.71" y1="2969.1" x2="-222.71" y2="2974.89" gradientTransform="matrix(1, 0, 0, -1, 256.5, 2998.88)" gradientUnits="userSpaceOnUse"><stop offset="0" stop-color="#fff1e3"/><stop offset="1" stop-color="#ffc4c4"/></linearGradient><linearGradient id="linear-gradient-2" x1="-221.31" y1="2974.35" x2="-224.83" y2="2968.89" gradientTransform="matrix(1, 0, 0, -1, 256.5, 2998.88)" gradientUnits="userSpaceOnUse"><stop offset="0" stop-color="#fff"/><stop offset="1" stop-color="#ffe0bd"/></linearGradient><linearGradient id="linear-gradient-3" x1="-241.36" y1="2988.56" x2="-241.36" y2="2984.55" gradientTransform="matrix(1, 0, 0, -1, 256.5, 2998.88)" gradientUnits="userSpaceOnUse"><stop offset="0" stop-color="#ff908d"/><stop offset="1" stop-color="#e25552"/></linearGradient><linearGradient id="linear-gradient-4" x1="-241.19" y1="2983.39" x2="-241.19" y2="2969.67" xlink:href="#linear-gradient-3"/><linearGradient id="linear-gradient-5" x1="-240.55" y1="2981.22" x2="-244.25" y2="2974.86" xlink:href="#linear-gradient"/><linearGradient id="linear-gradient-6" x1="-236.66" y1="2978.97" x2="-240.36" y2="2972.6" xlink:href="#linear-gradient"/></defs><title>ic_ky_quy_t</title><g id="Layer_2" data-name="Layer 2"><g id="Layer_1-2" data-name="Layer 1"><path d="M0,21c0-6.52,0-9.79,1.07-12.36A14,14,0,0,1,8.64,1.07C11.22,0,14.48,0,21,0s9.79,0,12.36,1.07a14,14,0,0,1,7.57,7.57C42,11.21,42,14.48,42,21s0,9.79-1.07,12.36a14,14,0,0,1-7.57,7.57C30.79,42,27.52,42,21,42s-9.78,0-12.36-1.07a14,14,0,0,1-7.57-7.57C0,30.79,0,27.52,0,21Z" fill="#ee7f70" fill-opacity="0.3"/><path d="M25.58,24.8l-3.83,3.83a.94.94,0,0,0-.26.65.9.9,0,0,0,.28.65.88.88,0,0,0,.65.26,1,1,0,0,0,.65-.27l3.6-3.61a.57.57,0,0,1,.18-.12.57.57,0,0,1,.42,0,.55.55,0,0,1,.3.3.57.57,0,0,1,0,.42.57.57,0,0,1-.12.18l-3.62,3.62a2,2,0,0,1-1.26.57,2,2,0,0,1-1.33-.38H16.92a1.17,1.17,0,0,0-.37,0,.92.92,0,0,0-.32.18.89.89,0,0,0-.22.29,1.06,1.06,0,0,0-.09.36.88.88,0,0,0,.06.36.89.89,0,0,0,.19.31,1,1,0,0,0,.3.21.9.9,0,0,0,.36.08h8A1.69,1.69,0,0,0,26,32.25l2.58-2.58A2,2,0,0,1,30,29.08h1.82V24.31H26.75a1.51,1.51,0,0,0-.63.13A1.76,1.76,0,0,0,25.58,24.8Z" fill="#fff"/><path d="M34.18,23.59h-.77a.55.55,0,0,0-.37.14.53.53,0,0,0-.17.35v5.25a.49.49,0,0,0,.17.34.54.54,0,0,0,.36.14h.77a.55.55,0,0,0,.54-.54V24.12a.5.5,0,0,0-.16-.38.66.66,0,0,0-.17-.12.52.52,0,0,0-.21,0Z" fill="url(#linear-gradient)"/><path d="M25.58,24.82l-3.83,3.83a.94.94,0,0,0-.26.65.9.9,0,0,0,.28.65.88.88,0,0,0,.65.26,1,1,0,0,0,.65-.27l3.6-3.61a.57.57,0,0,1,.18-.12.57.57,0,0,1,.42,0,.55.55,0,0,1,.3.3.57.57,0,0,1,0,.42.57.57,0,0,1-.12.18l-3.62,3.62a2,2,0,0,1-1.26.57,2,2,0,0,1-1.33-.38H16.92a1.17,1.17,0,0,0-.37,0,.92.92,0,0,0-.32.18.89.89,0,0,0-.22.29,1.06,1.06,0,0,0-.09.36.88.88,0,0,0,.06.36.89.89,0,0,0,.19.31,1,1,0,0,0,.3.21.9.9,0,0,0,.36.08h8A1.69,1.69,0,0,0,26,32.27l2.58-2.58A2,2,0,0,1,30,29.1h1.82V24.33H26.75a1.51,1.51,0,0,0-.63.13A1.76,1.76,0,0,0,25.58,24.82Z" fill="#fff"/><path d="M34.18,23.6h-.77a.55.55,0,0,0-.37.14.53.53,0,0,0-.17.35v5.25a.49.49,0,0,0,.17.34.54.54,0,0,0,.36.14h.77a.55.55,0,0,0,.54-.54V24.13a.5.5,0,0,0-.16-.38.66.66,0,0,0-.17-.12.52.52,0,0,0-.21,0Z" fill="url(#linear-gradient-2)"/><path d="M10.3,13.09a15.3,15.3,0,0,0,1.94,1.46.33.33,0,0,0,.19.06h5.44a.31.31,0,0,0,.19-.06A15.3,15.3,0,0,0,20,13.09a5.77,5.77,0,0,0,1.18-1.36,1.53,1.53,0,0,0,.11-1.58,1,1,0,0,0-1-.43,3.13,3.13,0,0,0-1,.37,3.94,3.94,0,0,1-1.61.62,2.55,2.55,0,0,1-1.09-.7,2.35,2.35,0,0,0-1.52-.77,2.31,2.31,0,0,0-1.52.77,2.55,2.55,0,0,1-1.09.7,3.94,3.94,0,0,1-1.61-.62,2.9,2.9,0,0,0-1-.37,1,1,0,0,0-1,.43,1.53,1.53,0,0,0,.11,1.58,5.77,5.77,0,0,0,1.18,1.36Z" fill="url(#linear-gradient-3)"/><path d="M23.29,25.41a7.26,7.26,0,0,0,.05-.83,12.18,12.18,0,0,0-1.43-5.41,7.78,7.78,0,0,0-3.75-3.8.3.3,0,0,0-.13,0H12.59a.4.4,0,0,0-.13,0,7.78,7.78,0,0,0-3.75,3.8,12.18,12.18,0,0,0-1.43,5.41,4.35,4.35,0,0,0,2.45,4.29,13.55,13.55,0,0,0,5.58.82,15.27,15.27,0,0,0,5-.61,2.05,2.05,0,0,1,.58-1.25l2.41-2.41Z" fill="url(#linear-gradient-4)"/><path d="M13.48,25.15V20.76H11.8v-.94h4.36v.94H14.48v4.39h-1Z" fill="url(#linear-gradient-5)"/><path d="M18,24.15V22.87H16.68v-.78H18V20.82h.78v1.27H20v.78H18.74v1.28Z" fill="url(#linear-gradient-6)"/></g></g></svg>