<svg width="43" height="42" viewBox="0 0 43 42" fill="none" xmlns="http://www.w3.org/2000/svg">
<rect width="43" height="42" rx="14" fill="#EEAD70" fill-opacity="0.3"/>
<path d="M30.745 11.27C30.745 10.45 30.285 10 29.455 10H13.665C12.835 10 12.375 10.44 12.375 11.27V31.66C12.375 32.18 12.555 32.59 13.035 32.82C13.495 33.04 13.925 32.94 14.325 32.63C14.935 32.16 15.555 31.7 16.185 31.24C16.795 30.79 17.395 30.33 18.015 29.87L20.595 32.45C21.265 33.12 21.855 33.12 22.525 32.45C23.375 31.6 24.225 30.75 25.105 29.86C26.365 30.8 27.575 31.71 28.795 32.63C29.195 32.93 29.615 33.03 30.085 32.82C30.565 32.6 30.745 32.17 30.745 31.66V11.27Z" fill="url(#paint0_linear_10583_54833)"/>
<path d="M31.7729 19H28.0514C27.6756 19 27.3351 19.2157 27.1918 19.5453C27.0476 19.8759 27.1276 20.2559 27.3937 20.5087L28.5966 21.6515L24.7952 25.2628L21.7315 22.3523C21.4273 22.0616 20.9491 22.0112 20.5844 22.226L10.8157 27.9708C10.3784 28.228 10.2444 28.7725 10.5142 29.187C10.6901 29.4574 10.9943 29.6059 11.3059 29.6059C11.4734 29.6059 11.6418 29.5635 11.7944 29.4733L20.9361 24.097L24.1365 27.1374C24.5003 27.483 25.0882 27.483 25.452 27.1374L29.9121 22.9012L31.1151 24.044C31.2928 24.2128 31.531 24.303 31.7729 24.303C31.8929 24.303 32.0138 24.2809 32.1292 24.2358C32.4771 24.0988 32.7032 23.7762 32.7032 23.4191V19.8838C32.7032 19.396 32.2873 19 31.7729 19Z" fill="url(#paint1_linear_10583_54833)"/>
<path d="M25.035 18H15.375" stroke="white" stroke-width="1.4" stroke-linecap="round" stroke-linejoin="round"/>
<path d="M27.375 14H15.375" stroke="white" stroke-width="1.4" stroke-linecap="round" stroke-linejoin="round"/>
<defs>
<linearGradient id="paint0_linear_10583_54833" x1="21.56" y1="32.9525" x2="21.56" y2="10" gradientUnits="userSpaceOnUse">
<stop stop-color="#FF8D3A"/>
<stop offset="1" stop-color="#FFC581"/>
</linearGradient>
<linearGradient id="paint1_linear_10583_54833" x1="21.5391" y1="29.6059" x2="21.5391" y2="19" gradientUnits="userSpaceOnUse">
<stop stop-color="#FCDBFF"/>
<stop offset="1" stop-color="white"/>
</linearGradient>
</defs>
</svg>
