<svg width="42" height="42" viewBox="0 0 42 42" fill="none" xmlns="http://www.w3.org/2000/svg">
<g clip-path="url(#clip0_8612_34376)">
<rect width="42" height="42" rx="14" fill="#167B5E" fill-opacity="0.3"/>
<g filter="url(#filter0_d_8612_34376)">
<path d="M30.9574 31.348H16.9572C16.5869 31.348 16.2867 30.971 16.2867 30.5059V13.5613C16.2867 12.3217 17.0868 11.3169 18.0737 11.3169H30.6264C31.6134 11.3169 32.4134 12.3217 32.4134 13.5613V29.5193C32.4134 30.5294 31.7616 31.348 30.9574 31.348Z" fill="url(#paint0_linear_8612_34376)"/>
<path d="M17.0434 12.9553C17.2899 13.9271 18.0087 14.5869 18.8208 14.5869H23.7718C23.7064 14.5869 23.6416 14.5822 23.5775 14.5737L21.5675 12.0509C21.2232 11.5971 20.7396 11.3237 20.217 11.3237H18.1097C17.5401 11.3237 17.0303 11.6449 16.6882 12.1505C16.8445 12.3818 16.9668 12.6534 17.0434 12.9553Z" fill="url(#paint1_linear_8612_34376)"/>
<path d="M30.096 31.3477H13.781C13.0952 31.3477 12.5393 30.6495 12.5393 29.7882V14.3369C12.5393 13.4756 13.0952 12.7773 13.781 12.7773H30.096C30.7818 12.7773 31.3377 13.4756 31.3377 14.3369V29.7882C31.3377 30.6495 30.7818 31.3477 30.096 31.3477Z" fill="url(#paint2_linear_8612_34376)"/>
<path d="M23.9286 15.1776V14.5869H23.7719C22.9599 14.5869 22.2411 13.9271 21.9946 12.9553C21.748 11.9835 21.0292 11.3237 20.2171 11.3237H18.1098C17.0797 11.3237 16.2444 12.3727 16.2444 13.6667V15.1776H23.9286Z" fill="url(#paint3_linear_8612_34376)"/>
<path d="M17.0434 12.9553C16.7968 11.9835 16.078 11.3237 15.2661 11.3237H13.1588C12.1285 11.3237 11.2933 12.3727 11.2933 13.6667V29.034C11.2933 30.3118 12.1182 31.3478 13.1356 31.3478H30.6283C30.347 31.3478 30.119 31.0614 30.119 30.7081V16.9299C30.119 15.636 29.2838 14.5869 28.2535 14.5869H18.8208C18.0087 14.5869 17.2899 13.9271 17.0434 12.9553Z" fill="url(#paint4_linear_8612_34376)"/>
<path d="M33.2374 23.3579C32.5741 23.2862 31.9109 23.1428 31.2835 22.9097C30.7098 22.7125 30.1541 22.4437 29.6343 22.121C29.3654 21.9597 29.0069 21.9597 28.738 22.121C28.2182 22.4437 27.6625 22.7125 27.0888 22.9097C26.4614 23.1248 25.7982 23.2862 25.1349 23.3579C24.6868 23.4117 24.3641 23.7702 24.3641 24.2183V26.7996C24.3641 28.7356 25.4218 30.5282 27.1068 31.4603L28.7739 32.3924C29.0428 32.5359 29.3475 32.5359 29.6164 32.3924L31.2835 31.4603C32.9685 30.5282 34.0261 28.7356 34.0261 26.7996V24.2183C34.0261 23.7702 33.6855 23.3937 33.2553 23.3579H33.2374Z" fill="#F4F4F4"/>
<path d="M28.8273 28.8431C28.6839 28.8431 28.5405 28.7893 28.4329 28.6997L27.0168 27.4449C26.7658 27.2298 26.7479 26.8533 26.963 26.6024C27.1781 26.3514 27.5546 26.3335 27.8055 26.5486L28.7914 27.427L30.7453 25.3297C30.9784 25.0966 31.3548 25.0787 31.5878 25.2938C31.8209 25.5268 31.8388 25.9033 31.6237 26.1363L29.2754 28.6459C29.1679 28.7714 29.0065 28.8431 28.8452 28.8252L28.8273 28.8431Z" fill="url(#paint5_linear_8612_34376)"/>
</g>
</g>
<defs>
<filter id="filter0_d_8612_34376" x="1" y="7.57143" width="42" height="38" filterUnits="userSpaceOnUse" color-interpolation-filters="sRGB">
<feFlood flood-opacity="0" result="BackgroundImageFix"/>
<feColorMatrix in="SourceAlpha" type="matrix" values="0 0 0 0 0 0 0 0 0 0 0 0 0 0 0 0 0 0 127 0" result="hardAlpha"/>
<feOffset dy="4.57143"/>
<feGaussianBlur stdDeviation="4"/>
<feComposite in2="hardAlpha" operator="out"/>
<feColorMatrix type="matrix" values="0 0 0 0 0.0706443 0 0 0 0 0.623333 0 0 0 0 0.557011 0 0 0 0.45 0"/>
<feBlend mode="normal" in2="BackgroundImageFix" result="effect1_dropShadow_8612_34376"/>
<feBlend mode="normal" in="SourceGraphic" in2="effect1_dropShadow_8612_34376" result="shape"/>
</filter>
<linearGradient id="paint0_linear_8612_34376" x1="20.0566" y1="28.6535" x2="31.2198" y2="28.3479" gradientUnits="userSpaceOnUse">
<stop stop-color="#33CE8D"/>
<stop offset="1" stop-color="#109D82"/>
</linearGradient>
<linearGradient id="paint1_linear_8612_34376" x1="22.9394" y1="17.136" x2="16.3681" y2="11.9039" gradientUnits="userSpaceOnUse">
<stop stop-color="#FF9517" stop-opacity="0"/>
<stop offset="0.3074" stop-color="#EE8421" stop-opacity="0.305882"/>
<stop offset="0.6784" stop-color="#E07728" stop-opacity="0.678431"/>
<stop offset="1" stop-color="#DB722B"/>
</linearGradient>
<linearGradient id="paint2_linear_8612_34376" x1="21.9385" y1="6.17154" x2="21.9385" y2="31.5437" gradientUnits="userSpaceOnUse">
<stop stop-color="#FFFCF8"/>
<stop offset="0.1875" stop-color="#FAF8F6"/>
<stop offset="0.4041" stop-color="#ECEEF2"/>
<stop offset="0.6353" stop-color="#D5DCEA"/>
<stop offset="0.875" stop-color="#B5C4DF"/>
<stop offset="1" stop-color="#A1B5D8"/>
</linearGradient>
<linearGradient id="paint3_linear_8612_34376" x1="22.2444" y1="14.5" x2="15.7444" y2="14.5" gradientUnits="userSpaceOnUse">
<stop stop-color="#FFFCF8"/>
<stop offset="0.1875" stop-color="#FAF8F6"/>
<stop offset="0.4041" stop-color="#ECEEF2"/>
<stop offset="0.6353" stop-color="#D5DCEA"/>
<stop offset="0.875" stop-color="#B5C4DF"/>
<stop offset="1" stop-color="#A1B5D8"/>
</linearGradient>
<linearGradient id="paint4_linear_8612_34376" x1="20.9608" y1="11.3237" x2="20.9608" y2="31.3478" gradientUnits="userSpaceOnUse">
<stop stop-color="#3FE4A8"/>
<stop offset="1" stop-color="#0D8732"/>
</linearGradient>
<linearGradient id="paint5_linear_8612_34376" x1="29.2943" y1="25.1431" x2="29.2943" y2="28.8431" gradientUnits="userSpaceOnUse">
<stop stop-color="#3FE4A8"/>
<stop offset="1" stop-color="#0D8732"/>
</linearGradient>
<clipPath id="clip0_8612_34376">
<rect width="42" height="42" rx="14" fill="white"/>
</clipPath>
</defs>
</svg>
