<svg width="42" height="42" viewBox="0 0 42 42" fill="none" xmlns="http://www.w3.org/2000/svg">
<g filter="url(#filter0_b_10930_18408)">
<g clip-path="url(#clip0_10930_18408)">
<path d="M0 21C0 14.4768 0 11.2152 1.06569 8.64243C2.4866 5.21204 5.21204 2.4866 8.64243 1.06569C11.2152 0 14.4768 0 21 0V0C27.5232 0 30.7848 0 33.3576 1.06569C36.788 2.4866 39.5134 5.21204 40.9343 8.64243C42 11.2152 42 14.4768 42 21V21C42 27.5232 42 30.7848 40.9343 33.3576C39.5134 36.788 36.788 39.5134 33.3576 40.9343C30.7848 42 27.5232 42 21 42V42C14.4768 42 11.2152 42 8.64243 40.9343C5.21204 39.5134 2.4866 36.788 1.06569 33.3576C0 30.7848 0 27.5232 0 21V21Z" fill="#EE7F70" fill-opacity="0.25"/>
<g filter="url(#filter1_d_10930_18408)">
<path d="M29.0848 9.83984H13.2852C12.5754 9.83984 12 10.5115 12 11.3399V31.2099C12 32.0383 12.5754 32.7099 13.2852 32.7099H29.0848C29.7946 32.7099 30.37 32.0383 30.37 31.2099V11.3399C30.37 10.5115 29.7946 9.83984 29.0848 9.83984Z" fill="url(#paint0_linear_10930_18408)"/>
<path d="M24.5794 16.2901C23.9841 14.9134 22.8911 14.3088 22.4399 14.0995C20.2865 13.0995 17.7192 14.0436 16.7192 16.1971C15.7192 18.3505 16.6634 20.9178 18.8168 21.9178C19.2633 22.1271 19.7377 22.2527 20.2214 22.2992C20.3284 22.3085 20.4307 22.2527 20.4726 22.155L20.9656 21.0899C21.0028 21.0109 20.9935 20.9178 20.947 20.8434C20.9005 20.769 20.8167 20.7271 20.7284 20.7318C20.2958 20.7504 19.8772 20.6667 19.4819 20.4806C18.1192 19.8481 17.5238 18.2296 18.1564 16.8668C18.7889 15.5041 20.4075 14.9087 21.7702 15.5413C22.3516 15.811 22.812 16.2668 23.0818 16.8389L22.4725 17.0622C22.3841 17.0947 22.3237 17.1691 22.3097 17.2621C22.2958 17.3552 22.333 17.4435 22.4074 17.4993L24.5376 19.0853C24.6073 19.1365 24.6957 19.1505 24.7748 19.1179C24.8027 19.1086 24.8306 19.09 24.8492 19.076C24.8864 19.0435 24.9096 19.0063 24.9236 18.9737C24.9282 18.9598 24.9329 18.9458 24.9329 18.9365L25.5329 16.3505C25.5561 16.2622 25.5236 16.1645 25.4538 16.104C25.384 16.0436 25.2864 16.025 25.198 16.0575L24.5701 16.2901H24.5794Z" fill="url(#paint1_linear_10930_18408)"/>
<path d="M20.9145 18.8016H20.8494C20.8308 18.8435 20.8029 18.8853 20.775 18.9225C20.7471 18.9597 20.7099 18.9923 20.6633 19.0249C20.6168 19.0528 20.5657 19.076 20.5006 19.0946C20.4401 19.1132 20.361 19.1225 20.2727 19.1225C20.1564 19.1225 20.0541 19.1039 19.9517 19.0621C19.8541 19.0202 19.7703 18.9597 19.6959 18.8807C19.6262 18.797 19.5657 18.6993 19.5238 18.583C19.482 18.4667 19.4634 18.3319 19.4634 18.183V18.1179C19.4634 17.9691 19.4866 17.8342 19.5285 17.7179C19.575 17.6016 19.6308 17.504 19.7052 17.4249C19.7843 17.3412 19.868 17.2807 19.9703 17.2389C20.0727 17.197 20.1796 17.1738 20.2913 17.1738C20.4401 17.1738 20.5564 17.2017 20.6447 17.2575C20.7331 17.3133 20.7982 17.3923 20.8494 17.49H20.9145V17.0668H20.3331V16.6435H20.9145V16.4668H21.3842V16.6435H21.6075V17.0668H21.3842V19.0667H20.9145V18.797V18.8016ZM20.4215 18.6714C20.5657 18.6714 20.6866 18.6249 20.775 18.5318C20.868 18.4388 20.9145 18.3132 20.9145 18.1644V18.1179C20.9145 17.9644 20.868 17.8435 20.775 17.7551C20.6866 17.6621 20.5657 17.6156 20.4215 17.6156C20.2773 17.6156 20.1564 17.6621 20.0634 17.7551C19.9703 17.8481 19.9285 17.9691 19.9285 18.1226V18.1691C19.9285 18.3272 19.975 18.4481 20.0634 18.5411C20.1564 18.6295 20.2727 18.676 20.4215 18.676V18.6714Z" fill="url(#paint2_linear_10930_18408)"/>
<path d="M21.2401 19.5317H19.6913V19.8434H21.2401V19.5317Z" fill="url(#paint3_linear_10930_18408)"/>
<path d="M18.75 8.48C18.75 7.66 19.41 7 20.23 7H21.52C22.34 7 23 7.66 23 8.48V9.82H18.75V8.48Z" fill="white" stroke="white" stroke-width="0.04"/>
</g>
<path fill-rule="evenodd" clip-rule="evenodd" d="M16 26.5C16 26.2239 16.2239 26 16.5 26H25.9C26.1761 26 26.4 26.2239 26.4 26.5C26.4 26.7761 26.1761 27 25.9 27H16.5C16.2239 27 16 26.7761 16 26.5Z" fill="url(#paint4_linear_10930_18408)"/>
<path fill-rule="evenodd" clip-rule="evenodd" d="M16 28.5C16 28.2239 16.2239 28 16.5 28H23.2143C23.4904 28 23.7143 28.2239 23.7143 28.5C23.7143 28.7761 23.4904 29 23.2143 29H16.5C16.2239 29 16 28.7761 16 28.5Z" fill="url(#paint5_linear_10930_18408)"/>
</g>
</g>
<defs>
<filter id="filter0_b_10930_18408" x="-14" y="-14" width="70" height="70" filterUnits="userSpaceOnUse" color-interpolation-filters="sRGB">
<feFlood flood-opacity="0" result="BackgroundImageFix"/>
<feGaussianBlur in="BackgroundImageFix" stdDeviation="7"/>
<feComposite in2="SourceAlpha" operator="in" result="effect1_backgroundBlur_10930_18408"/>
<feBlend mode="normal" in="SourceGraphic" in2="effect1_backgroundBlur_10930_18408" result="shape"/>
</filter>
<filter id="filter1_d_10930_18408" x="4" y="2.97998" width="34.37" height="41.73" filterUnits="userSpaceOnUse" color-interpolation-filters="sRGB">
<feFlood flood-opacity="0" result="BackgroundImageFix"/>
<feColorMatrix in="SourceAlpha" type="matrix" values="0 0 0 0 0 0 0 0 0 0 0 0 0 0 0 0 0 0 127 0" result="hardAlpha"/>
<feOffset dy="4"/>
<feGaussianBlur stdDeviation="4"/>
<feComposite in2="hardAlpha" operator="out"/>
<feColorMatrix type="matrix" values="0 0 0 0 0 0 0 0 0 0 0 0 0 0 0 0 0 0 0.1 0"/>
<feBlend mode="normal" in2="BackgroundImageFix" result="effect1_dropShadow_10930_18408"/>
<feBlend mode="normal" in="SourceGraphic" in2="effect1_dropShadow_10930_18408" result="shape"/>
</filter>
<linearGradient id="paint0_linear_10930_18408" x1="21.185" y1="9.83984" x2="21.185" y2="32.7099" gradientUnits="userSpaceOnUse">
<stop stop-color="#FF908D"/>
<stop offset="1" stop-color="#E25552"/>
</linearGradient>
<linearGradient id="paint1_linear_10930_18408" x1="20.9301" y1="22.3002" x2="20.9301" y2="13.7002" gradientUnits="userSpaceOnUse">
<stop stop-color="#FCDBFF"/>
<stop offset="1" stop-color="white"/>
</linearGradient>
<linearGradient id="paint2_linear_10930_18408" x1="20.5354" y1="19.1225" x2="20.5354" y2="16.4668" gradientUnits="userSpaceOnUse">
<stop stop-color="#FCDBFF"/>
<stop offset="1" stop-color="white"/>
</linearGradient>
<linearGradient id="paint3_linear_10930_18408" x1="20.4657" y1="19.8434" x2="20.4657" y2="19.5317" gradientUnits="userSpaceOnUse">
<stop stop-color="#FCDBFF"/>
<stop offset="1" stop-color="white"/>
</linearGradient>
<linearGradient id="paint4_linear_10930_18408" x1="21.2" y1="27" x2="21.2" y2="26" gradientUnits="userSpaceOnUse">
<stop stop-color="#FCDBFF"/>
<stop offset="1" stop-color="white"/>
</linearGradient>
<linearGradient id="paint5_linear_10930_18408" x1="19.8571" y1="29" x2="19.8571" y2="28" gradientUnits="userSpaceOnUse">
<stop stop-color="#FCDBFF"/>
<stop offset="1" stop-color="white"/>
</linearGradient>
<clipPath id="clip0_10930_18408">
<path d="M0 21C0 14.4768 0 11.2152 1.06569 8.64243C2.4866 5.21204 5.21204 2.4866 8.64243 1.06569C11.2152 0 14.4768 0 21 0V0C27.5232 0 30.7848 0 33.3576 1.06569C36.788 2.4866 39.5134 5.21204 40.9343 8.64243C42 11.2152 42 14.4768 42 21V21C42 27.5232 42 30.7848 40.9343 33.3576C39.5134 36.788 36.788 39.5134 33.3576 40.9343C30.7848 42 27.5232 42 21 42V42C14.4768 42 11.2152 42 8.64243 40.9343C5.21204 39.5134 2.4866 36.788 1.06569 33.3576C0 30.7848 0 27.5232 0 21V21Z" fill="white"/>
</clipPath>
</defs>
</svg>
