<svg width="80" height="80" viewBox="0 0 80 80" fill="none" xmlns="http://www.w3.org/2000/svg">
<g filter="url(#filter0_b_11953_595142)">
<g clip-path="url(#clip0_11953_595142)">
<rect width="80" height="80" rx="18" fill="#FF79F4" fill-opacity="0.3"/>
<g filter="url(#filter1_d_11953_595142)">
<path d="M38.3124 35.1924H40.2407C40.8762 35.1924 41.4807 35.4137 41.9675 35.8076C43.0773 35.6554 44.1253 35.3603 45.0335 34.9582C45.2957 34.561 45.5235 34.139 45.7334 33.7068V29.3891C45.7334 28.4128 46.0884 27.5035 46.7039 26.8106C45.8046 21.5874 41.3583 17.6167 35.9953 17.6167C30.6339 17.6167 26.1865 21.5879 25.2872 26.8112C25.9022 27.5035 26.2577 28.4128 26.2577 29.3891V33.7068C28.041 37.3688 31.7262 39.89 35.9948 39.89C36.0612 39.89 36.1256 39.8814 36.1915 39.8798C35.7796 39.3817 35.5211 38.7471 35.5211 38.0455C35.5217 36.4725 36.7738 35.1924 38.3124 35.1924Z" fill="url(#paint0_linear_11953_595142)"/>
<path d="M21.7493 36.4302H21.873C23.2302 36.4302 24.3315 35.3613 24.3315 34.0394V29.2704C24.3315 28.3334 23.7744 27.5262 22.9636 27.1351C23.3142 20.6817 28.8329 15.5371 35.5675 15.5371C42.3021 15.5371 47.8229 20.6812 48.1723 27.1351C47.3616 27.5257 46.805 28.3334 46.805 29.2704V34.0394C46.805 34.3562 46.8687 34.6513 46.98 34.9276C45.5463 35.9212 43.4607 36.6307 41.1118 36.827C40.8459 36.4349 40.3926 36.1726 39.8745 36.1726H37.9179C37.1023 36.1726 36.443 36.8135 36.443 37.6019C36.443 38.3914 37.1018 39.0334 37.9179 39.0334H39.8745C40.4445 39.0334 40.9304 38.7181 41.1755 38.261C43.9028 38.0522 46.2741 37.2441 47.9401 36.0489C48.3217 36.2889 48.7744 36.4297 49.263 36.4297H49.3861C50.7449 36.4297 51.8442 35.3608 51.8442 34.0389V29.2698C51.8442 28.3199 51.2704 27.4998 50.4425 27.119C50.0818 19.4611 43.5485 13.3333 35.568 13.3333C27.5875 13.3333 21.0531 19.4611 20.6951 27.1201C19.8661 27.5003 19.2908 28.3209 19.2908 29.2709V34.0399C19.2908 35.3613 20.3932 36.4302 21.7493 36.4302Z" fill="url(#paint1_linear_11953_595142)"/>
<path d="M61.312 46.465H54.2236C53.5077 46.465 52.8591 46.8757 52.5862 47.5037C52.3115 48.1333 52.4639 48.8572 52.9707 49.3387L55.2621 51.5154L48.0212 58.3941L42.1857 52.8504C41.6062 52.2965 40.6953 52.2006 40.0007 52.6097L21.3935 63.5523C20.5606 64.0421 20.3055 65.0792 20.8194 65.8687C21.1543 66.3839 21.7338 66.6667 22.3274 66.6667C22.6464 66.6667 22.9672 66.5859 23.2578 66.4142L40.6705 56.1736L46.7666 61.9647C47.4595 62.623 48.5794 62.623 49.2723 61.9647L57.7678 53.8958L60.0592 56.0726C60.3976 56.3941 60.8513 56.5658 61.312 56.5658C61.5406 56.5658 61.771 56.5237 61.9908 56.4379C62.6535 56.1769 63.0841 55.5625 63.0841 54.8823V48.1484C63.0841 47.2192 62.292 46.465 61.312 46.465Z" fill="url(#paint2_linear_11953_595142)"/>
<path fill-rule="evenodd" clip-rule="evenodd" d="M27.439 41.6061H43.7545C46.8338 41.8869 49.6128 43.2064 51.7383 45.2115C51.2729 45.5865 50.8897 46.0731 50.637 46.6533C49.995 48.1249 50.3683 49.7996 51.506 50.8804L52.1744 51.5154L48.0211 55.461L43.6549 51.3131L43.6522 51.3106C42.3674 50.0849 40.4145 49.8987 38.9226 50.7766L20.4785 61.6233C17.291 60.9889 15.238 59.3246 15.238 54.9884C15.238 47.9828 20.597 42.2311 27.439 41.6061Z" fill="url(#paint3_linear_11953_595142)"/>
<g filter="url(#filter2_d_11953_595142)">
<path d="M65.3558 32.8681C64.8444 32.4517 64.2368 32.0976 63.531 31.7932C62.8278 31.4919 62.0579 31.2019 61.2238 30.9238C60.7904 30.7861 60.4086 30.6496 60.0834 30.5307C59.7563 30.4068 59.4826 30.2766 59.2619 30.142C59.0423 30.0017 58.8775 29.852 58.7656 29.6891C58.6561 29.5312 58.602 29.3381 58.602 29.1192C58.602 28.8997 58.6517 28.7097 58.7536 28.5562C58.8568 28.4053 58.9958 28.282 59.1669 28.1851C59.3399 28.0907 59.5411 28.0234 59.7701 27.9756C59.9978 27.9335 60.2412 27.9146 60.5023 27.9146C60.7545 27.9146 61.0011 27.9498 61.2464 28.0266C61.4898 28.1002 61.7232 28.1964 61.9421 28.3084C62.1623 28.4229 62.3692 28.5506 62.5611 28.6933C62.7554 28.8324 62.9316 28.9714 63.0888 29.1066L63.1957 29.1984C63.3039 29.2947 63.4052 29.3727 63.4958 29.4375C63.587 29.4997 63.687 29.5293 63.7965 29.5293C63.9292 29.5293 64.0644 29.4645 64.1984 29.3293L66.0068 27.4039C66.1075 27.2957 66.1842 27.195 66.2345 27.1101C66.288 27.0214 66.3125 26.9308 66.3125 26.8252C66.3125 26.7251 66.2591 26.6025 66.1534 26.4584C66.0458 26.3169 65.903 26.1703 65.7206 26.0118C65.5407 25.8527 65.33 25.691 65.0916 25.5225C64.8501 25.352 64.5966 25.1897 64.328 25.0324C63.9103 24.8035 63.4908 24.616 63.0718 24.4714C62.6498 24.3254 62.2189 24.2141 61.7767 24.1317V22.5503C61.7767 22.3924 61.7125 22.2692 61.5811 22.1729C61.4527 22.0792 61.3282 22.0326 61.2131 22.0326H58.9901C58.8171 22.0326 58.6882 22.0836 58.6014 22.1842C58.5133 22.288 58.4705 22.4075 58.4705 22.5503V24.1946C57.7855 24.3254 57.1691 24.5343 56.6225 24.8117C56.0765 25.0928 55.6123 25.4319 55.2349 25.8338C54.8568 26.2351 54.5662 26.6949 54.3605 27.2038C54.1561 27.7177 54.0542 28.2763 54.0542 28.882C54.0542 29.5727 54.1712 30.2011 54.4083 30.7653C54.6448 31.3283 54.9977 31.8416 55.4708 32.3115C55.9406 32.7795 56.5319 33.204 57.2427 33.5852C57.951 33.9715 58.7763 34.3262 59.721 34.6539C59.9337 34.7275 60.1853 34.8156 60.4771 34.9194C60.7684 35.0263 61.047 35.1546 61.3162 35.3056C61.5817 35.4559 61.8094 35.6258 61.9962 35.8195C62.1786 36.0114 62.2717 36.2315 62.2717 36.4737C62.2717 36.6951 62.239 36.9033 62.1717 37.1002C62.1063 37.2971 61.9943 37.4701 61.8352 37.621C61.6773 37.767 61.4653 37.8915 61.1929 37.9808C60.9218 38.0683 60.5841 38.1154 60.1827 38.1154C59.7487 38.1154 59.3361 38.0412 58.9423 37.8915C58.5479 37.7399 58.151 37.5336 57.7509 37.2663C57.4811 37.0851 57.2452 36.9033 57.037 36.7171C56.8257 36.5335 56.6558 36.3831 56.5212 36.2743C56.4118 36.1787 56.3174 36.1076 56.2369 36.0629C56.162 36.012 56.0872 35.9875 56.0136 35.9875C55.9111 35.9875 55.7783 36.046 55.6117 36.1667L53.5692 38.1161C53.3881 38.2821 53.2975 38.4312 53.2975 38.5633C53.2975 38.6828 53.3881 38.8401 53.5692 39.0376C53.578 39.0451 53.5862 39.0489 53.5919 39.0564C53.6 39.0564 53.607 39.069 53.6164 39.0829C53.6246 39.0917 53.634 39.0986 53.6403 39.1024C53.6479 39.1061 53.656 39.1187 53.6636 39.1294L53.6988 39.1684C53.8233 39.2993 53.997 39.4785 54.2108 39.6968C54.4304 39.9201 54.6958 40.144 55.0103 40.373C55.5299 40.751 56.0815 41.0788 56.6634 41.3517C57.2458 41.6273 57.8472 41.8317 58.4705 41.9669V43.6911C58.4705 44.0377 58.6423 44.2113 58.9901 44.2113H61.2131C61.5873 44.2113 61.7767 44.0383 61.7767 43.6911V41.9996C62.5328 41.8694 63.2278 41.6417 63.8606 41.3216C64.4947 41.007 65.0438 40.6038 65.5099 40.122C65.9735 39.6446 66.3352 39.0954 66.5956 38.479C66.8554 37.8563 66.985 37.182 66.985 36.441C66.985 35.6226 66.8409 34.925 66.5547 34.3508C66.2673 33.7758 65.8666 33.2814 65.3558 32.8681Z" fill="white"/>
</g>
</g>
</g>
</g>
<defs>
<filter id="filter0_b_11953_595142" x="-46.6667" y="-46.6667" width="173.333" height="173.333" filterUnits="userSpaceOnUse" color-interpolation-filters="sRGB">
<feFlood flood-opacity="0" result="BackgroundImageFix"/>
<feGaussianBlur in="BackgroundImageFix" stdDeviation="23.3333"/>
<feComposite in2="SourceAlpha" operator="in" result="effect1_backgroundBlur_11953_595142"/>
<feBlend mode="normal" in="SourceGraphic" in2="effect1_backgroundBlur_11953_595142" result="shape"/>
</filter>
<filter id="filter1_d_11953_595142" x="-11.4286" y="1.90477" width="105.08" height="106.667" filterUnits="userSpaceOnUse" color-interpolation-filters="sRGB">
<feFlood flood-opacity="0" result="BackgroundImageFix"/>
<feColorMatrix in="SourceAlpha" type="matrix" values="0 0 0 0 0 0 0 0 0 0 0 0 0 0 0 0 0 0 127 0" result="hardAlpha"/>
<feOffset dy="15.2381"/>
<feGaussianBlur stdDeviation="13.3333"/>
<feComposite in2="hardAlpha" operator="out"/>
<feColorMatrix type="matrix" values="0 0 0 0 0.390384 0 0 0 0 0.0548835 0 0 0 0 0.445 0 0 0 0.25 0"/>
<feBlend mode="normal" in2="BackgroundImageFix" result="effect1_dropShadow_11953_595142"/>
<feBlend mode="normal" in="SourceGraphic" in2="effect1_dropShadow_11953_595142" result="shape"/>
</filter>
<filter id="filter2_d_11953_595142" x="49.9642" y="22.0326" width="20.3542" height="28.8453" filterUnits="userSpaceOnUse" color-interpolation-filters="sRGB">
<feFlood flood-opacity="0" result="BackgroundImageFix"/>
<feColorMatrix in="SourceAlpha" type="matrix" values="0 0 0 0 0 0 0 0 0 0 0 0 0 0 0 0 0 0 127 0" result="hardAlpha"/>
<feOffset dy="3.33333"/>
<feGaussianBlur stdDeviation="1.66667"/>
<feComposite in2="hardAlpha" operator="out"/>
<feColorMatrix type="matrix" values="0 0 0 0 0 0 0 0 0 0 0 0 0 0 0 0 0 0 0.25 0"/>
<feBlend mode="normal" in2="BackgroundImageFix" result="effect1_dropShadow_11953_595142"/>
<feBlend mode="normal" in="SourceGraphic" in2="effect1_dropShadow_11953_595142" result="shape"/>
</filter>
<linearGradient id="paint0_linear_11953_595142" x1="35.9956" y1="39.89" x2="35.9956" y2="17.6167" gradientUnits="userSpaceOnUse">
<stop stop-color="#FCDBFF"/>
<stop offset="1" stop-color="white"/>
</linearGradient>
<linearGradient id="paint1_linear_11953_595142" x1="35.5675" y1="39.0334" x2="35.5675" y2="13.3333" gradientUnits="userSpaceOnUse">
<stop stop-color="#A93AFF"/>
<stop offset="1" stop-color="#FF81FF"/>
</linearGradient>
<linearGradient id="paint2_linear_11953_595142" x1="41.8192" y1="66.6667" x2="41.8192" y2="46.465" gradientUnits="userSpaceOnUse">
<stop stop-color="#FCDBFF"/>
<stop offset="1" stop-color="white"/>
</linearGradient>
<linearGradient id="paint3_linear_11953_595142" x1="33.7063" y1="61.6233" x2="33.7063" y2="41.6061" gradientUnits="userSpaceOnUse">
<stop stop-color="#A93AFF"/>
<stop offset="1" stop-color="#FF81FF"/>
</linearGradient>
<clipPath id="clip0_11953_595142">
<rect width="80" height="80" rx="18" fill="white"/>
</clipPath>
</defs>
</svg>
