<svg xmlns="http://www.w3.org/2000/svg" xmlns:xlink="http://www.w3.org/1999/xlink" viewBox="0 0 42 42"><defs><linearGradient id="linear-gradient" x1="-240.56" y1="2633.3" x2="-240.56" y2="2618.66" gradientTransform="matrix(1, 0, 0, -1, 256.5, 2652.68)" gradientUnits="userSpaceOnUse"><stop offset="0" stop-color="#28ffb0"/><stop offset="1" stop-color="#0f9980"/></linearGradient><linearGradient id="linear-gradient-2" x1="-240.56" y1="2642.68" x2="-240.56" y2="2627.9" xlink:href="#linear-gradient"/></defs><title>mo tai khoan</title><g id="Layer_2" data-name="Layer 2"><g id="Layer_1-2" data-name="Layer 1"><rect width="42" height="42" rx="14" fill="#1ac795" fill-opacity="0.3"/><path d="M25.86,24.81,22,28.65a.92.92,0,0,0,.67,1.56.93.93,0,0,0,.65-.27L27,26.33a.42.42,0,0,1,.18-.11.46.46,0,0,1,.2,0,.54.54,0,0,1,.21,0,.58.58,0,0,1,.18.11.54.54,0,0,1,.11.18.45.45,0,0,1,0,.2.46.46,0,0,1,0,.21.54.54,0,0,1-.11.18L24.1,30.72a2,2,0,0,1-2.6.19H17.18a.87.87,0,0,0-.36,0,.94.94,0,0,0-.32.19.77.77,0,0,0-.22.29.88.88,0,0,0-.1.36,1.09,1.09,0,0,0,.06.36.86.86,0,0,0,.5.53,1.05,1.05,0,0,0,.36.08h8a1.7,1.7,0,0,0,1.17-.49l2.58-2.58a2,2,0,0,1,.65-.44,2.07,2.07,0,0,1,.77-.15h1.82V24.33H27a1.73,1.73,0,0,0-.64.12A1.77,1.77,0,0,0,25.86,24.81Z" fill="#fff"/><path d="M34.46,23.6h-.77a.52.52,0,0,0-.36.14.56.56,0,0,0-.17.36v5.25a.51.51,0,0,0,.17.34.54.54,0,0,0,.36.14h.77a.51.51,0,0,0,.38-.16.53.53,0,0,0,.16-.38V24.14a.52.52,0,0,0,0-.21.61.61,0,0,0-.29-.29A.78.78,0,0,0,34.46,23.6Z" fill="#b5facd"/><path d="M21.28,27.88l3.6-3.61v-.43A4.47,4.47,0,0,0,21,19.39a.52.52,0,0,0-.25,0,.46.46,0,0,0-.21.13,6.28,6.28,0,0,1-4.55,2A6.4,6.4,0,0,1,13.46,21a6.25,6.25,0,0,1-2.07-1.45.6.6,0,0,0-.21-.14.69.69,0,0,0-.25,0A4.47,4.47,0,0,0,7,23.84v4.49a1.61,1.61,0,0,0,.1.53,1.39,1.39,0,0,0,.31.45,1.49,1.49,0,0,0,.44.3,1.39,1.39,0,0,0,.53.1H20.73a2,2,0,0,1,.55-1.83Z" fill="url(#linear-gradient)"/><path d="M15.94,20.43a5.26,5.26,0,0,0,2.9-.88,5.35,5.35,0,0,0,1.92-2.34,5.29,5.29,0,0,0,.29-3,5.15,5.15,0,0,0-1.43-2.66,5.21,5.21,0,1,0-3.68,8.9Z" fill="url(#linear-gradient-2)"/><path d="M16.41,12.69a.48.48,0,1,0-.95,0v2.05H13.41a.48.48,0,0,0,0,.95h2.05v2a.48.48,0,0,0,.95,0v-2h2.05a.48.48,0,1,0,0-.95H16.41Z" fill="#fff"/></g></g></svg>