<svg xmlns="http://www.w3.org/2000/svg" xmlns:xlink="http://www.w3.org/1999/xlink" viewBox="0 0 42 42"><defs><linearGradient id="linear-gradient" x1="-235.32" y1="3170.74" x2="-235.32" y2="3193.2" gradientTransform="matrix(1, 0, 0, -1, 256.5, 3202.88)" gradientUnits="userSpaceOnUse"><stop offset="0" stop-color="#2f7beb"/><stop offset="1" stop-color="#75adff"/></linearGradient><linearGradient id="linear-gradient-2" x1="-227.93" y1="3184.94" x2="-227.93" y2="3174.33" gradientTransform="matrix(1, 0, 0, -1, 256.5, 3202.88)" gradientUnits="userSpaceOnUse"><stop offset="0" stop-color="#eaf6ff"/><stop offset="1" stop-color="#b7e0ff"/></linearGradient><linearGradient id="linear-gradient-3" x1="-237.5" y1="3185.88" x2="-237.5" y2="3184.88" xlink:href="#linear-gradient-2"/><linearGradient id="linear-gradient-4" x1="-235.5" y1="3188.88" x2="-235.5" y2="3187.88" xlink:href="#linear-gradient-2"/></defs><title>ic_mau_chuyen_tien</title><g id="Layer_2" data-name="Layer 2"><g id="Layer_1-2" data-name="Layer 1"><path d="M0,21c0-6.52,0-9.79,1.07-12.36A14,14,0,0,1,8.64,1.07C11.21,0,14.48,0,21,0s9.79,0,12.36,1.07a14,14,0,0,1,7.57,7.57C42,11.21,42,14.48,42,21s0,9.79-1.07,12.36a14,14,0,0,1-7.57,7.57C30.79,42,27.52,42,21,42s-9.79,0-12.36-1.07a14,14,0,0,1-7.57-7.57C0,30.79,0,27.52,0,21Z" fill="#708cee" fill-opacity="0.2"/><path d="M28.29,9.55H14.08a2,2,0,0,0-2.08,2V30a2,2,0,0,0,2.08,2H28.29a2,2,0,0,0,2.08-2V11.57A2,2,0,0,0,28.29,9.55Z" fill="url(#linear-gradient)"/><path d="M33.38,19.81,32,18.43a1.7,1.7,0,0,0-2.4,0L23.75,24.3a1.65,1.65,0,0,0-.49,1.2v1.36A1.69,1.69,0,0,0,25,28.55h1.39a1.75,1.75,0,0,0,1.17-.45l5.87-5.87a1.71,1.71,0,0,0,0-2.41Z" fill="url(#linear-gradient-2)"/><path d="M19.39,26.45h-.16a1.69,1.69,0,0,1-.17.29,1.47,1.47,0,0,1-.26.23,1.39,1.39,0,0,1-.39.17,2,2,0,0,1-.53.06,2,2,0,0,1-.74-.14,1.7,1.7,0,0,1-.6-.43,2.12,2.12,0,0,1-.4-.69A3,3,0,0,1,16,25v-.15a2.67,2.67,0,0,1,.15-.93,2.14,2.14,0,0,1,.41-.69,1.87,1.87,0,0,1,.62-.43,1.93,1.93,0,0,1,.75-.15,1.51,1.51,0,0,1,.82.2,1.36,1.36,0,0,1,.48.55h.16v-1H18v-1h1.36V21h1.09v.42H21v1h-.52v4.67H19.39Zm-1.15-.29a1.09,1.09,0,0,0,.82-.32,1.17,1.17,0,0,0,.33-.86v-.11a1.15,1.15,0,0,0-.33-.85,1.06,1.06,0,0,0-.82-.33,1.13,1.13,0,0,0-.83.32,1.17,1.17,0,0,0-.32.86V25a1.17,1.17,0,0,0,.32.86A1.13,1.13,0,0,0,18.24,26.16Z" fill="#fff"/><path d="M16.54,27.8h3.61v.72H16.54Z" fill="#fff"/><line x1="14.7" y1="16.3" x2="23.3" y2="16.3" fill="none" stroke-linecap="round" stroke-width="1.4" stroke="url(#linear-gradient-3)"/><line x1="14.7" y1="13.3" x2="27.3" y2="13.3" fill="none" stroke-linecap="round" stroke-width="1.4" stroke="url(#linear-gradient-4)"/></g></g></svg>