<svg xmlns="http://www.w3.org/2000/svg" xmlns:xlink="http://www.w3.org/1999/xlink" viewBox="0 0 42 42"><defs><clipPath id="clip-path"><rect width="42" height="42" rx="14" fill="none"/></clipPath><linearGradient id="linear-gradient" x1="-235" y1="3578.36" x2="-235" y2="3597.32" gradientTransform="matrix(1, 0, 0, -1, 256.5, 3610.88)" gradientUnits="userSpaceOnUse"><stop offset="0" stop-color="#a93aff"/><stop offset="1" stop-color="#ff81ff"/></linearGradient><linearGradient id="linear-gradient-3" x1="-232.15" y1="3597.74" x2="-237.4" y2="3593.37" gradientTransform="matrix(1, 0, 0, -1, 256.5, 3610.88)" gradientUnits="userSpaceOnUse"><stop offset="0" stop-color="#ca53dd"/><stop offset="1" stop-color="#eb71ff" stop-opacity="0"/></linearGradient><linearGradient id="linear-gradient-4" x1="-235.87" y1="3579.53" x2="-235.87" y2="3597.03" gradientTransform="matrix(1, 0, 0, -1, 256.5, 3610.88)" gradientUnits="userSpaceOnUse"><stop offset="0" stop-color="#0e0714"/><stop offset="1" stop-color="#b820b8"/></linearGradient><linearGradient id="linear-gradient-5" x1="-235.95" y1="3594.39" x2="-235.95" y2="3603.88" gradientTransform="matrix(1, 0, 0, -1, 256.5, 3610.88)" gradientUnits="userSpaceOnUse"><stop offset="0" stop-color="#ffbef9"/><stop offset="1" stop-color="#fff1ff"/></linearGradient><linearGradient id="linear-gradient-6" x1="-223.19" y1="3589.88" x2="-223.19" y2="3589" gradientTransform="matrix(1, 0, 0, -1, 256.5, 3610.88)" gradientUnits="userSpaceOnUse"><stop offset="0" stop-color="#e098dd"/><stop offset="1" stop-color="#b97cb6"/></linearGradient><linearGradient id="linear-gradient-7" x1="-226.47" y1="3582.44" x2="-226.47" y2="3589" xlink:href="#linear-gradient-5"/></defs><title>ic_nop_tien</title><g id="Layer_2" data-name="Layer 2"><g id="Layer_1-2" data-name="Layer 1"><g clip-path="url(#clip-path)"><rect width="42" height="42" rx="14" fill="#ff79f4" fill-opacity="0.3"/><path d="M31,16.41v1.12a2.87,2.87,0,0,1,1.9,2.67v9.48a2.88,2.88,0,0,1-.84,2,2.84,2.84,0,0,1-2,.83H13a2.83,2.83,0,0,1-2.84-2.84V16.41A2.85,2.85,0,0,1,13,13.56H28.14A2.85,2.85,0,0,1,31,16.41Z" fill="url(#linear-gradient)"/><path d="M31,16.41v1.12a2.87,2.87,0,0,1,1.9,2.67v9.48a2.88,2.88,0,0,1-.84,2,2.84,2.84,0,0,1-2,.83H13a2.83,2.83,0,0,1-2.84-2.84V16.41A2.85,2.85,0,0,1,13,13.56H28.14A2.85,2.85,0,0,1,31,16.41Z" fill="url(#linear-gradient)"/><path d="M31,16.41v1.12a10.62,10.62,0,0,0-1.9-.18H10.13v-.94A2.85,2.85,0,0,1,13,13.56H28.14A2.85,2.85,0,0,1,31,16.41Z" fill="url(#linear-gradient-3)"/><path d="M28,15.6H13.24a1,1,0,0,0-.66.26.84.84,0,0,0,0,1.23,1,1,0,0,0,.66.26h15.7v-.87a.85.85,0,0,0-.27-.62A1,1,0,0,0,28,15.6Z" fill="url(#linear-gradient-4)"/><path d="M19.88,16.2a1,1,0,0,0,.31.21.89.89,0,0,0,.36.07.94.94,0,0,0,.37-.07.9.9,0,0,0,.3-.21l2.85-2.84a.89.89,0,0,0,.25-.49.91.91,0,0,0-.05-.54.92.92,0,0,0-.35-.43,1,1,0,0,0-.52-.16H21.5V8a1,1,0,0,0-1.9,0v3.79H17.71a1,1,0,0,0-.53.16,1,1,0,0,0-.34.43.84.84,0,0,0-.06.54.9.9,0,0,0,.26.49Z" fill="url(#linear-gradient-5)"/><path d="M32.88,21l.87.88h-.87Z" fill="url(#linear-gradient-6)"/><path d="M33.75,21.88H29.67a3.28,3.28,0,1,0,0,6.56h2.64A1.54,1.54,0,0,0,33.75,27V21.88ZM29.47,26a.88.88,0,1,0-.84-.87A.86.86,0,0,0,29.47,26Z" fill-rule="evenodd" fill="url(#linear-gradient-7)"/></g></g></g></svg>