<svg width="42" height="42" viewBox="0 0 42 42" fill="none" xmlns="http://www.w3.org/2000/svg">
<g clip-path="url(#clip0_8801_46850)">
<path d="M0 21C0 14.4768 0 11.2152 1.06569 8.64243C2.4866 5.21204 5.21204 2.4866 8.64243 1.06569C11.2152 0 14.4768 0 21 0V0C27.5232 0 30.7848 0 33.3576 1.06569C36.788 2.4866 39.5134 5.21204 40.9343 8.64243C42 11.2152 42 14.4768 42 21V21C42 27.5232 42 30.7848 40.9343 33.3576C39.5134 36.788 36.788 39.5134 33.3576 40.9343C30.7848 42 27.5232 42 21 42V42C14.4768 42 11.2152 42 8.64243 40.9343C5.21204 39.5134 2.4866 36.788 1.06569 33.3576C0 30.7848 0 27.5232 0 21V21Z" fill="#167B5E" fill-opacity="0.3"/>
<g filter="url(#filter0_d_8801_46850)">
<path d="M19.22 17.2099H20.02C20.28 17.2099 20.53 17.2999 20.74 17.4699C21.2 17.4099 21.64 17.2799 22.01 17.1199C22.12 16.9599 22.21 16.7799 22.3 16.5999V14.8099C22.3 14.3999 22.45 14.0299 22.7 13.7399C22.33 11.5699 20.48 9.91992 18.26 9.91992C16.04 9.91992 14.19 11.5699 13.82 13.7399C14.08 14.0299 14.22 14.3999 14.22 14.8099V16.5999C14.96 18.1199 16.49 19.1699 18.26 19.1699C18.29 19.1699 18.31 19.1699 18.34 19.1699C18.17 18.9599 18.06 18.6999 18.06 18.4099C18.06 17.7599 18.58 17.2299 19.22 17.2299V17.2099Z" fill="url(#paint0_linear_8801_46850)"/>
<path d="M12.14 17.95H12.19C12.79 17.95 13.28 17.48 13.28 16.89V14.78C13.28 14.36 13.03 14.01 12.67 13.83C12.83 10.97 15.27 8.68996 18.25 8.68996C21.23 8.68996 23.68 10.97 23.83 13.83C23.47 14 23.22 14.36 23.22 14.78V16.89C23.22 17.03 23.25 17.16 23.3 17.28C22.66 17.72 21.74 18.03 20.7 18.12C20.58 17.95 20.38 17.83 20.15 17.83H19.28C18.92 17.83 18.63 18.11 18.63 18.46C18.63 18.81 18.92 19.09 19.28 19.09H20.15C20.4 19.09 20.62 18.95 20.73 18.75C21.94 18.66 22.99 18.3 23.73 17.77C23.9 17.88 24.1 17.94 24.32 17.94H24.37C24.97 17.94 25.46 17.47 25.46 16.88V14.77C25.46 14.35 25.21 13.99 24.84 13.82C24.68 10.43 21.79 7.70996 18.25 7.70996C14.71 7.70996 11.82 10.42 11.66 13.82C11.29 13.99 11.04 14.35 11.04 14.77V16.88C11.04 17.47 11.53 17.94 12.13 17.94L12.14 17.95Z" fill="url(#paint1_linear_8801_46850)"/>
<path fill-rule="evenodd" clip-rule="evenodd" d="M20.66 28.3798C20.78 28.2298 20.9 28.1098 21.03 27.9998C20.9 27.8998 20.78 27.7698 20.66 27.6298C20.23 27.0798 20.04 26.3698 20.13 25.6898C20.2 25.1698 20.43 24.7798 20.77 24.1798C21.12 23.5798 21.35 23.1798 21.77 22.8698C22.22 22.5298 22.79 22.3398 23.36 22.3398C23.47 22.3398 23.58 22.3398 23.7 22.3598C23.89 22.3898 24.07 22.4298 24.23 22.4998C24.26 22.3298 24.3 22.1598 24.38 21.9798C24.54 21.6098 24.78 21.2898 25.07 21.0298C24.24 20.5598 23.3 20.2798 22.32 20.2798H14.17C12.68 20.2798 11.26 20.8698 10.21 21.9198C9.16001 22.9698 8.57001 24.3998 8.57001 25.8798V27.8898C8.57001 29.3198 10.09 29.4398 10.1 29.4398H20.17C20.25 29.0598 20.4 28.6898 20.65 28.3798H20.66Z" fill="url(#paint2_linear_8801_46850)"/>
<path fill-rule="evenodd" clip-rule="evenodd" d="M28.56 21.81C28.33 21.71 28.03 21.71 27.44 21.71C26.85 21.71 26.55 21.71 26.32 21.81C26.01 21.94 25.76 22.18 25.63 22.49C25.57 22.63 25.55 22.79 25.54 23.03C25.53 23.38 25.35 23.7 25.04 23.88C24.73 24.06 24.36 24.05 24.05 23.88C23.84 23.77 23.68 23.71 23.53 23.69C23.2 23.65 22.86 23.74 22.59 23.94C22.39 24.09 22.24 24.35 21.95 24.85C21.65 25.36 21.51 25.61 21.47 25.86C21.43 26.19 21.52 26.52 21.72 26.79C21.81 26.91 21.94 27.01 22.15 27.14C22.45 27.33 22.64 27.64 22.64 28C22.64 28.36 22.45 28.67 22.15 28.86C21.95 28.99 21.82 29.09 21.72 29.21C21.52 29.47 21.43 29.81 21.47 30.14C21.5 30.39 21.65 30.64 21.95 31.15C22.25 31.66 22.39 31.91 22.59 32.06C22.86 32.26 23.19 32.35 23.53 32.31C23.68 32.29 23.84 32.23 24.05 32.12C24.36 31.96 24.74 31.95 25.04 32.12C25.35 32.3 25.53 32.62 25.54 32.97C25.54 33.21 25.57 33.37 25.63 33.51C25.76 33.82 26.01 34.06 26.32 34.19C26.55 34.29 26.85 34.29 27.44 34.29C28.03 34.29 28.33 34.29 28.56 34.19C28.87 34.06 29.12 33.82 29.25 33.51C29.31 33.37 29.33 33.21 29.34 32.97C29.35 32.62 29.53 32.3 29.84 32.12C30.15 31.94 30.52 31.95 30.83 32.12C31.04 32.23 31.2 32.29 31.35 32.31C31.68 32.35 32.02 32.26 32.29 32.06C32.49 31.91 32.64 31.65 32.93 31.15C33.23 30.64 33.37 30.39 33.41 30.14C33.45 29.81 33.36 29.48 33.16 29.21C33.07 29.09 32.94 28.99 32.73 28.86C32.43 28.67 32.24 28.36 32.24 28C32.24 27.65 32.43 27.33 32.73 27.14C32.93 27.01 33.06 26.91 33.16 26.79C33.36 26.53 33.45 26.19 33.41 25.86C33.38 25.61 33.23 25.36 32.93 24.85C32.63 24.34 32.49 24.09 32.29 23.94C32.02 23.74 31.69 23.65 31.35 23.69C31.2 23.71 31.04 23.77 30.83 23.88C30.52 24.04 30.14 24.05 29.84 23.88C29.53 23.7 29.35 23.38 29.34 23.03C29.34 22.79 29.31 22.63 29.25 22.49C29.12 22.18 28.87 21.94 28.56 21.81ZM27.44 29.88C28.49 29.88 29.34 29.04 29.34 27.99C29.34 26.94 28.49 26.1 27.44 26.1C26.39 26.1 25.54 26.94 25.54 27.99C25.54 29.04 26.39 29.88 27.44 29.88Z" fill="url(#paint3_linear_8801_46850)"/>
</g>
</g>
<defs>
<filter id="filter0_d_8801_46850" x="0.570008" y="4.28139" width="40.8493" height="42.5801" filterUnits="userSpaceOnUse" color-interpolation-filters="sRGB">
<feFlood flood-opacity="0" result="BackgroundImageFix"/>
<feColorMatrix in="SourceAlpha" type="matrix" values="0 0 0 0 0 0 0 0 0 0 0 0 0 0 0 0 0 0 127 0" result="hardAlpha"/>
<feOffset dy="4.57143"/>
<feGaussianBlur stdDeviation="4"/>
<feComposite in2="hardAlpha" operator="out"/>
<feColorMatrix type="matrix" values="0 0 0 0 0.0706443 0 0 0 0 0.623333 0 0 0 0 0.557011 0 0 0 0.45 0"/>
<feBlend mode="normal" in2="BackgroundImageFix" result="effect1_dropShadow_8801_46850"/>
<feBlend mode="normal" in="SourceGraphic" in2="effect1_dropShadow_8801_46850" result="shape"/>
</filter>
<linearGradient id="paint0_linear_8801_46850" x1="18.26" y1="19.1699" x2="18.26" y2="9.91992" gradientUnits="userSpaceOnUse">
<stop stop-color="#D9D9D9"/>
<stop offset="0.5028" stop-color="#F2F2F2"/>
<stop offset="1" stop-color="white"/>
</linearGradient>
<linearGradient id="paint1_linear_8801_46850" x1="18.25" y1="7.70996" x2="18.25" y2="19.09" gradientUnits="userSpaceOnUse">
<stop stop-color="#3FE4A8"/>
<stop offset="1" stop-color="#0D8732"/>
</linearGradient>
<linearGradient id="paint2_linear_8801_46850" x1="16.82" y1="20.2798" x2="16.82" y2="29.4398" gradientUnits="userSpaceOnUse">
<stop stop-color="#3FE4A8"/>
<stop offset="1" stop-color="#0D8732"/>
</linearGradient>
<linearGradient id="paint3_linear_8801_46850" x1="27.44" y1="34.29" x2="27.44" y2="21.71" gradientUnits="userSpaceOnUse">
<stop stop-color="#D9D9D9"/>
<stop offset="0.5028" stop-color="#F2F2F2"/>
<stop offset="1" stop-color="white"/>
</linearGradient>
<clipPath id="clip0_8801_46850">
<path d="M0 21C0 14.4768 0 11.2152 1.06569 8.64243C2.4866 5.21204 5.21204 2.4866 8.64243 1.06569C11.2152 0 14.4768 0 21 0V0C27.5232 0 30.7848 0 33.3576 1.06569C36.788 2.4866 39.5134 5.21204 40.9343 8.64243C42 11.2152 42 14.4768 42 21V21C42 27.5232 42 30.7848 40.9343 33.3576C39.5134 36.788 36.788 39.5134 33.3576 40.9343C30.7848 42 27.5232 42 21 42V42C14.4768 42 11.2152 42 8.64243 40.9343C5.21204 39.5134 2.4866 36.788 1.06569 33.3576C0 30.7848 0 27.5232 0 21V21Z" fill="white"/>
</clipPath>
</defs>
</svg>
