<svg xmlns="http://www.w3.org/2000/svg" xmlns:xlink="http://www.w3.org/1999/xlink" viewBox="0 0 42 42"><defs><linearGradient id="linear-gradient" x1="-235.63" y1="3373.84" x2="-235.63" y2="3398.92" gradientTransform="matrix(1, 0, 0, -1, 256.5, 3406.88)" gradientUnits="userSpaceOnUse"><stop offset="0" stop-color="#a93aff"/><stop offset="1" stop-color="#ff81ff"/></linearGradient></defs><title>ic_smart_otp</title><g id="Layer_2" data-name="Layer 2"><g id="Layer_1-2" data-name="Layer 1"><rect width="42" height="42" rx="14" fill="#ff79f4" fill-opacity="0.3"/><path d="M20.88,8a12.34,12.34,0,0,0-3.83.93l-.85.29c-1.73.6-3.06,1.05-4,1.44A9.59,9.59,0,0,0,11,11.2a2.62,2.62,0,0,0-.86.73A2.58,2.58,0,0,0,9.7,13a9.53,9.53,0,0,0-.14,1.35c-.06,1-.06,2.45-.06,4.29v1.87c0,7.12,5.38,10.53,8.57,11.93h0a7.69,7.69,0,0,0,1.19.45,6.46,6.46,0,0,0,1.58.16,6.43,6.43,0,0,0,1.57-.16,7.69,7.69,0,0,0,1.19-.45h0c3.19-1.4,8.57-4.81,8.57-11.93V18.62c0-1.84,0-3.26-.06-4.29A9.53,9.53,0,0,0,32.05,13a2.58,2.58,0,0,0-.4-1.05,2.62,2.62,0,0,0-.86-.73,9.59,9.59,0,0,0-1.23-.58c-.95-.39-2.28-.84-4-1.44l-.85-.29A12.35,12.35,0,0,0,20.88,8Z" fill-rule="evenodd" fill="url(#linear-gradient)"/><path d="M20.88,15a4.37,4.37,0,0,0-2.63,7.87V24a2,2,0,0,0,2,2h1.17a2,2,0,0,0,2-2V22.83A4.37,4.37,0,0,0,20.88,15Zm-2.63,4.37a2.63,2.63,0,0,1,5.25,0,2.65,2.65,0,0,1-1.31,2.28.86.86,0,0,0-.44.75V24a.29.29,0,0,1-.29.29H20.29A.29.29,0,0,1,20,24V22.36a.86.86,0,0,0-.44-.75A2.65,2.65,0,0,1,18.25,19.33Z" fill="#fff" fill-rule="evenodd"/><path d="M20.88,15a4.37,4.37,0,0,0-2.63,7.87V24a2,2,0,0,0,2,2h1.17a2,2,0,0,0,2-2V22.83A4.37,4.37,0,0,0,20.88,15Zm-2.63,4.37a2.63,2.63,0,0,1,5.25,0,2.65,2.65,0,0,1-1.31,2.28.86.86,0,0,0-.44.75V24a.29.29,0,0,1-.29.29H20.29A.29.29,0,0,1,20,24V22.36a.86.86,0,0,0-.44-.75A2.65,2.65,0,0,1,18.25,19.33Z" fill="#fff" fill-rule="evenodd"/></g></g></svg>