<svg xmlns="http://www.w3.org/2000/svg" xmlns:xlink="http://www.w3.org/1999/xlink" viewBox="0 0 42 42"><defs><linearGradient id="linear-gradient" x1="-222.76" y1="2766.35" x2="-222.76" y2="2772.14" gradientTransform="matrix(1, 0, 0, -1, 256.5, 2794.88)" gradientUnits="userSpaceOnUse"><stop offset="0" stop-color="#ffddbe"/><stop offset="1" stop-color="#fff1ff"/></linearGradient><linearGradient id="linear-gradient-2" x1="-240.2" y1="2783.52" x2="-240.2" y2="2766.41" gradientTransform="matrix(1, 0, 0, -1, 256.5, 2794.88)" gradientUnits="userSpaceOnUse"><stop offset="0" stop-color="#fe984e"/><stop offset="1" stop-color="#fb7d40"/></linearGradient></defs><title>ic_suc_mua_trong_ngay</title><g id="Layer_2" data-name="Layer 2"><g id="Layer_1-2" data-name="Layer 1"><path d="M0,21c0-6.52,0-9.79,1.07-12.36A14,14,0,0,1,8.64,1.07C11.21,0,14.48,0,21,0s9.79,0,12.36,1.07a14,14,0,0,1,7.57,7.57C42,11.21,42,14.48,42,21s0,9.79-1.07,12.36a14,14,0,0,1-7.57,7.57C30.79,42,27.52,42,21,42s-9.79,0-12.36-1.07a14,14,0,0,1-7.57-7.57C0,30.79,0,27.52,0,21Z" fill="#eead70" fill-opacity="0.3"/><path d="M25.53,23.55,21.7,27.38a.94.94,0,0,0-.26.65.9.9,0,0,0,.28.65.88.88,0,0,0,.65.26,1,1,0,0,0,.65-.27l3.6-3.61a.57.57,0,0,1,.18-.12.57.57,0,0,1,.42,0,.55.55,0,0,1,.3.3.57.57,0,0,1,0,.42.57.57,0,0,1-.12.18l-3.62,3.62a2,2,0,0,1-1.26.57,2,2,0,0,1-1.33-.38H16.87a1.17,1.17,0,0,0-.37,0,.92.92,0,0,0-.32.18.89.89,0,0,0-.22.29,1.06,1.06,0,0,0-.09.36.88.88,0,0,0,.06.36.89.89,0,0,0,.19.31,1,1,0,0,0,.3.21.9.9,0,0,0,.36.08h8A1.69,1.69,0,0,0,25.94,31l2.58-2.58a2,2,0,0,1,1.42-.59h1.82V23.06H26.7a1.51,1.51,0,0,0-.63.13A1.76,1.76,0,0,0,25.53,23.55Z" fill="#fff"/><path d="M34.13,22.34h-.77a.55.55,0,0,0-.37.14.53.53,0,0,0-.17.35v5.25a.49.49,0,0,0,.17.34.54.54,0,0,0,.36.14h.77a.55.55,0,0,0,.54-.54V22.87a.5.5,0,0,0-.16-.38.66.66,0,0,0-.17-.12.52.52,0,0,0-.21,0Z" fill="url(#linear-gradient)"/><path d="M20.33,27.45a2.07,2.07,0,0,1,.51-.9l3.79-3.79a8.81,8.81,0,0,0,.63-3.3,9,9,0,1,0-4.93,8Z" fill="url(#linear-gradient-2)"/><path d="M17.11,20.85H17a1.4,1.4,0,0,1-.16.26,1,1,0,0,1-.24.22,1.42,1.42,0,0,1-.35.15,1.73,1.73,0,0,1-.49.06,1.77,1.77,0,0,1-.69-.13,1.63,1.63,0,0,1-.55-.39,2.11,2.11,0,0,1-.37-.64,2.55,2.55,0,0,1-.13-.86v-.14a2.54,2.54,0,0,1,.14-.86,2,2,0,0,1,.38-.63,1.6,1.6,0,0,1,.57-.4,1.81,1.81,0,0,1,.69-.14,1.4,1.4,0,0,1,.76.18A1.26,1.26,0,0,1,17,18h.14v-.91H15.86v-.91h1.25v-.38h1v.38h.48v.91h-.48v4.3h-1v-.58Zm-1.05-.27a1,1,0,0,0,.76-.3,1.08,1.08,0,0,0,.3-.79v-.1a1,1,0,0,0-.3-.78,1,1,0,0,0-.76-.3A1,1,0,0,0,15,19.4v.1a1.11,1.11,0,0,0,.29.8,1.06,1.06,0,0,0,.77.29Z" fill="#fff"/><path d="M17.82,22.43H14.49v.67h3.33Z" fill="#fff"/></g></g></svg>