<svg xmlns="http://www.w3.org/2000/svg" xmlns:xlink="http://www.w3.org/1999/xlink" viewBox="0 0 42 42"><defs><clipPath id="clip-path"><rect width="42" height="42" rx="14" fill="none"/></clipPath><linearGradient id="linear-gradient" x1="-246.38" y1="2756" x2="-246.38" y2="2785.12" gradientTransform="matrix(1, 0, 0, -1, 256.5, 2790.68)" gradientUnits="userSpaceOnUse"><stop offset="0" stop-color="#0e0714"/><stop offset="1" stop-color="#b820b8"/></linearGradient><linearGradient id="linear-gradient-2" x1="-235.61" y1="2756.97" x2="-235.61" y2="2788.24" gradientTransform="matrix(1, 0, 0, -1, 256.5, 2790.68)" gradientUnits="userSpaceOnUse"><stop offset="0" stop-color="#a93aff"/><stop offset="1" stop-color="#ff81ff"/></linearGradient><linearGradient id="linear-gradient-3" x1="-232.43" y1="2728.46" x2="-232.43" y2="2758.17" xlink:href="#linear-gradient"/><linearGradient id="linear-gradient-4" x1="-242.27" y1="2771.41" x2="-233.03" y2="2771.41" gradientTransform="matrix(1, 0, 0, -1, 256.5, 2790.68)" gradientUnits="userSpaceOnUse"><stop offset="0" stop-color="#ffbef9"/><stop offset="1" stop-color="#fff1ff"/></linearGradient><linearGradient id="linear-gradient-5" x1="-225.33" y1="2775.2" x2="-239.28" y2="2775.2" xlink:href="#linear-gradient-4"/><linearGradient id="linear-gradient-6" x1="-241.5" y1="2762.38" x2="-231.5" y2="2762.38" gradientTransform="matrix(1, 0, 0, -1, 256.5, 2790.68)" gradientUnits="userSpaceOnUse"><stop offset="0" stop-color="#ffcefb"/><stop offset="1" stop-color="#fff"/></linearGradient><linearGradient id="linear-gradient-7" x1="-241.5" y1="2765.38" x2="-227.5" y2="2765.38" xlink:href="#linear-gradient-6"/></defs><title>ic_sk_tien</title><g id="Layer_2" data-name="Layer 2"><g id="Layer_1-2" data-name="Layer 1"><g clip-path="url(#clip-path)"><rect width="42" height="42" rx="14" fill="#ff79f4" fill-opacity="0.3"/><path d="M10.11,8A2.1,2.1,0,0,0,8,10.11h4.23A2.1,2.1,0,0,0,10.12,8Z" fill="url(#linear-gradient)"/><path d="M29.56,8H10.11a2.1,2.1,0,0,1,2.11,2.11V31.89A2.1,2.1,0,0,0,14.33,34H31.66V10.12A2.1,2.1,0,0,0,29.55,8Z" fill="url(#linear-gradient-2)"/><path d="M29.56,31.89H16.46A2.1,2.1,0,0,1,14.35,34H31.68a2.1,2.1,0,0,0,2.11-2.11Z" fill="url(#linear-gradient-3)"/><path d="M17.23,18.54a.4.4,0,0,0,.33-.17l.18-.23A4.54,4.54,0,0,0,26,19.89a.42.42,0,0,0-.12-.57.4.4,0,0,0-.57.11,3.7,3.7,0,0,1-6.74-1.51l.36.27a.41.41,0,0,0,.58-.07.4.4,0,0,0-.07-.58l-1-.76c-.2-.16-.5-.25-.68,0l-.83,1.09a.4.4,0,0,0,.07.58.38.38,0,0,0,.25.09Z" fill="url(#linear-gradient-4)"/><path d="M18.54,15.45a.43.43,0,0,0,.58-.12,3.69,3.69,0,0,1,6.73,1.51l-.35-.27a.42.42,0,1,0-.52.65L26,18c.21.16.5.25.68,0l.84-1.09a.42.42,0,0,0-.66-.51l-.18.23a4.53,4.53,0,0,0-8.24-1.75.42.42,0,0,0,.12.58Z" fill="url(#linear-gradient-5)"/><path d="M15.7,28.3h8.6" fill="none" stroke-linecap="round" stroke-width="1.4" stroke="url(#linear-gradient-6)"/><path d="M15.7,25.3H28.3" fill="none" stroke-linecap="round" stroke-width="1.4" stroke="url(#linear-gradient-7)"/><path d="M22.93,18.11h-.09l-.1.17a1,1,0,0,1-.15.13.58.58,0,0,1-.21.09,1.42,1.42,0,0,1-.31,0,1,1,0,0,1-.42-.08.92.92,0,0,1-.35-.24,1.18,1.18,0,0,1-.22-.4,1.69,1.69,0,0,1-.08-.53v-.09a1.44,1.44,0,0,1,.09-.53,1.49,1.49,0,0,1,.23-.39.92.92,0,0,1,.35-.24,1.07,1.07,0,0,1,.43-.09.88.88,0,0,1,.47.11.91.91,0,0,1,.27.31h.09V15.8h-.78v-.56h.78V15h.62v.24h.3v.56h-.3v2.67h-.62ZM22.27,18a.65.65,0,0,0,.47-.19.7.7,0,0,0,.19-.49v-.06a.62.62,0,0,0-.19-.48.61.61,0,0,0-.47-.19.62.62,0,0,0-.65.68v.06a.67.67,0,0,0,.17.49.65.65,0,0,0,.48.18Z" fill="#fff"/><path d="M23.36,19.09H21.3v.41h2.06Z" fill="#fff"/></g></g></g></svg>