<svg width="42" height="42" viewBox="0 0 42 42" fill="none" xmlns="http://www.w3.org/2000/svg">
<g filter="url(#filter0_b_8014_9995)">
<g clip-path="url(#clip0_8014_9995)">
<path d="M0 21C0 14.4768 0 11.2152 1.06569 8.64243C2.4866 5.21204 5.21204 2.4866 8.64243 1.06569C11.2152 0 14.4768 0 21 0C27.5232 0 30.7848 0 33.3576 1.06569C36.788 2.4866 39.5134 5.21204 40.9343 8.64243C42 11.2152 42 14.4768 42 21C42 27.5232 42 30.7848 40.9343 33.3576C39.5134 36.788 36.788 39.5134 33.3576 40.9343C30.7848 42 27.5232 42 21 42C14.4768 42 11.2152 42 8.64243 40.9343C5.21204 39.5134 2.4866 36.788 1.06569 33.3576C0 30.7848 0 27.5232 0 21Z" fill="#9B79FF" fill-opacity="0.3"/>
<g filter="url(#filter1_d_8014_9995)">
<path d="M10.1105 8C8.94301 8 8 8.94301 8 10.1105H12.2301C12.2301 8.94301 11.287 8 10.1195 8H10.1105Z" fill="url(#paint0_linear_8014_9995)"/>
<path d="M29.5633 8H10.1105C11.278 8 12.221 8.943 12.221 10.1105V31.8895C12.221 33.057 13.164 34 14.3315 34H31.6649V10.1195C31.6649 8.95199 30.7219 8.00898 29.5543 8.00898L29.5633 8Z" fill="url(#paint1_linear_8014_9995)"/>
<path d="M29.5634 31.8896H16.4601C16.4601 33.0572 15.5171 34.0002 14.3495 34.0002H31.6829C32.8504 34.0002 33.7934 33.0572 33.7934 31.8896H29.5634Z" fill="url(#paint2_linear_8014_9995)"/>
<path fill-rule="evenodd" clip-rule="evenodd" d="M17.0343 15.5079C17.0784 12.4552 19.5853 10 22.6639 10C24.6999 10 26.4843 11.0734 27.4729 12.6814C27.6064 12.8985 27.5385 13.1828 27.3214 13.3163C27.1042 13.4498 26.82 13.3819 26.6865 13.1648C25.8601 11.8206 24.3682 10.9231 22.6639 10.9231C20.0889 10.9231 18.0023 12.9709 17.9575 15.5066L18.2039 15.2621C18.3849 15.0826 18.6771 15.0837 18.8566 15.2647C19.0362 15.4456 19.035 15.7378 18.8541 15.9174L17.8203 16.943C17.6404 17.1216 17.3501 17.1216 17.1702 16.943L16.1365 15.9174C15.9555 15.7378 15.9544 15.4456 16.1339 15.2647C16.3134 15.0837 16.6057 15.0826 16.7866 15.2621L17.0343 15.5079ZM27.407 15.0564C27.5868 14.8786 27.8761 14.8786 28.0559 15.0564L29.0936 16.082C29.2749 16.2612 29.2766 16.5534 29.0974 16.7347C28.9182 16.916 28.626 16.9177 28.4447 16.7385L28.1925 16.4892C28.1498 19.5448 25.6318 22 22.5431 22C20.5008 22 18.71 20.9274 17.7177 19.3193C17.5838 19.1024 17.6511 18.818 17.868 18.6842C18.085 18.5503 18.3693 18.6176 18.5032 18.8345C19.3327 20.1786 20.8308 21.0769 22.5431 21.0769C25.1315 21.0769 27.2259 19.0259 27.2693 16.4904L27.0182 16.7385C26.837 16.9177 26.5447 16.916 26.3655 16.7347C26.1864 16.5534 26.1881 16.2612 26.3694 16.082L27.407 15.0564Z" fill="white"/>
<path d="M24.8002 17.0843C24.3914 17.0843 24.1329 16.9032 24.1147 16.5889L24.1135 16.5684H24.5018L24.5041 16.581C24.5246 16.6869 24.6476 16.7563 24.8082 16.7563C24.9744 16.7563 25.0769 16.6857 25.0769 16.5832V16.5821C25.0769 16.4887 25.004 16.4455 24.8116 16.4079L24.6431 16.376C24.3174 16.3156 24.1454 16.1551 24.1454 15.9034V15.9023C24.1454 15.5857 24.4199 15.3818 24.7968 15.3818C25.209 15.3818 25.4425 15.5754 25.4573 15.8738L25.4584 15.8977H25.0701L25.069 15.8852C25.0564 15.777 24.9505 15.7098 24.8002 15.7098C24.6465 15.7098 24.5599 15.7793 24.5599 15.8738V15.8749C24.5599 15.9637 24.6374 16.0104 24.8139 16.0435L24.9824 16.0753C25.3309 16.1425 25.4926 16.2837 25.4926 16.5468V16.5479C25.4926 16.8759 25.2352 17.0843 24.8002 17.0843Z" fill="white"/>
<path d="M23.1206 17.0549V15.7476H22.6674V15.4116H23.9906V15.7476H23.5374V17.0549H23.1206Z" fill="white"/>
<path d="M21.2495 17.0549V15.4116H21.9499C22.3165 15.4116 22.5534 15.6417 22.5534 15.9935V15.9958C22.5534 16.3477 22.3165 16.5732 21.9499 16.5732H21.6674V17.0549H21.2495ZM21.8496 15.7316H21.6674V16.2589H21.8496C22.0262 16.2589 22.1309 16.1666 22.1309 15.9958V15.9935C22.1309 15.8227 22.0262 15.7316 21.8496 15.7316Z" fill="white"/>
<path d="M19.9468 17.0549V15.4116H21.0651V15.7476H20.3647V16.1222H21.0013V16.4422H20.3647V17.0549H19.9468Z" fill="white"/>
<path d="M15.7 28.2998H24.2999" stroke="white" stroke-width="1.2" stroke-linecap="round"/>
<path d="M15.7 25.2998H28.2999" stroke="white" stroke-width="1.2" stroke-linecap="round"/>
</g>
</g>
</g>
<defs>
<filter id="filter0_b_8014_9995" x="-14" y="-14" width="70" height="70" filterUnits="userSpaceOnUse" color-interpolation-filters="sRGB">
<feFlood flood-opacity="0" result="BackgroundImageFix"/>
<feGaussianBlur in="BackgroundImageFix" stdDeviation="7"/>
<feComposite in2="SourceAlpha" operator="in" result="effect1_backgroundBlur_8014_9995"/>
<feBlend mode="normal" in="SourceGraphic" in2="effect1_backgroundBlur_8014_9995" result="shape"/>
</filter>
<filter id="filter1_d_8014_9995" x="0" y="4" width="41.7933" height="42.0005" filterUnits="userSpaceOnUse" color-interpolation-filters="sRGB">
<feFlood flood-opacity="0" result="BackgroundImageFix"/>
<feColorMatrix in="SourceAlpha" type="matrix" values="0 0 0 0 0 0 0 0 0 0 0 0 0 0 0 0 0 0 127 0" result="hardAlpha"/>
<feOffset dy="4"/>
<feGaussianBlur stdDeviation="4"/>
<feComposite in2="hardAlpha" operator="out"/>
<feColorMatrix type="matrix" values="0 0 0 0 0.360784 0 0 0 0 0.141176 0 0 0 0 0.823529 0 0 0 0.1 0"/>
<feBlend mode="normal" in2="BackgroundImageFix" result="effect1_dropShadow_8014_9995"/>
<feBlend mode="normal" in="SourceGraphic" in2="effect1_dropShadow_8014_9995" result="shape"/>
</filter>
<linearGradient id="paint0_linear_8014_9995" x1="10.115" y1="8" x2="19.5" y2="10" gradientUnits="userSpaceOnUse">
<stop stop-color="#9D9D9D"/>
<stop offset="1" stop-color="#373737"/>
</linearGradient>
<linearGradient id="paint1_linear_8014_9995" x1="10.594" y1="17.6408" x2="31.847" y2="22.4014" gradientUnits="userSpaceOnUse">
<stop stop-color="#7F42FF"/>
<stop offset="1" stop-color="#5721CC"/>
</linearGradient>
<linearGradient id="paint2_linear_8014_9995" x1="14.3495" y1="32.9449" x2="36.5" y2="38.0001" gradientUnits="userSpaceOnUse">
<stop stop-color="#E3E3E3"/>
<stop offset="1" stop-color="#ADADAD"/>
</linearGradient>
<clipPath id="clip0_8014_9995">
<path d="M0 21C0 14.4768 0 11.2152 1.06569 8.64243C2.4866 5.21204 5.21204 2.4866 8.64243 1.06569C11.2152 0 14.4768 0 21 0C27.5232 0 30.7848 0 33.3576 1.06569C36.788 2.4866 39.5134 5.21204 40.9343 8.64243C42 11.2152 42 14.4768 42 21C42 27.5232 42 30.7848 40.9343 33.3576C39.5134 36.788 36.788 39.5134 33.3576 40.9343C30.7848 42 27.5232 42 21 42C14.4768 42 11.2152 42 8.64243 40.9343C5.21204 39.5134 2.4866 36.788 1.06569 33.3576C0 30.7848 0 27.5232 0 21Z" fill="white"/>
</clipPath>
</defs>
</svg>
