<svg xmlns="http://www.w3.org/2000/svg" xmlns:xlink="http://www.w3.org/1999/xlink" viewBox="0 0 42 42"><defs><clipPath id="clip-path"><path d="M0,21c0-6.52,0-9.78,1.07-12.36A14,14,0,0,1,8.64,1.07C11.21,0,14.48,0,21,0s9.79,0,12.36,1.07a14,14,0,0,1,7.57,7.57C42,11.22,42,14.48,42,21s0,9.78-1.07,12.36a14,14,0,0,1-7.57,7.57C30.79,42,27.52,42,21,42s-9.79,0-12.36-1.07a14,14,0,0,1-7.57-7.57C0,30.78,0,27.52,0,21Z" fill="none"/></clipPath><linearGradient id="linear-gradient" x1="-246.38" y1="2882" x2="-246.38" y2="2911.12" gradientTransform="matrix(1, 0, 0, -1, 256.5, 2916.68)" gradientUnits="userSpaceOnUse"><stop offset="0" stop-color="#7f42ff"/><stop offset="1" stop-color="#5721cc"/></linearGradient><linearGradient id="linear-gradient-2" x1="-235.61" y1="2912.66" x2="-235.61" y2="2883.72" xlink:href="#linear-gradient"/><linearGradient id="linear-gradient-3" x1="-232.43" y1="2856.25" x2="-232.43" y2="2885.97" gradientTransform="matrix(1, 0, 0, -1, 256.5, 2916.68)" gradientUnits="userSpaceOnUse"><stop offset="0" stop-color="#7f42ff"/><stop offset="1" stop-color="#4f00aa"/></linearGradient><linearGradient id="linear-gradient-4" x1="-237.93" y1="2899.94" x2="-230.98" y2="2899.94" gradientTransform="matrix(1, 0, 0, -1, 256.5, 2916.68)" gradientUnits="userSpaceOnUse"><stop offset="0" stop-color="#bfbeff"/><stop offset="1" stop-color="#fff1ff"/></linearGradient></defs><title>ic_sk_co_tuc_cp_thuong</title><g id="Layer_2" data-name="Layer 2"><g id="Layer_1-2" data-name="Layer 1"><g clip-path="url(#clip-path)"><path d="M0,21c0-6.52,0-9.78,1.07-12.36A14,14,0,0,1,8.64,1.07C11.21,0,14.48,0,21,0s9.79,0,12.36,1.07a14,14,0,0,1,7.57,7.57C42,11.22,42,14.48,42,21s0,9.78-1.07,12.36a14,14,0,0,1-7.57,7.57C30.79,42,27.52,42,21,42s-9.79,0-12.36-1.07a14,14,0,0,1-7.57-7.57C0,30.78,0,27.52,0,21Z" fill="#8270ee" fill-opacity="0.3"/><path d="M10.11,8A2.1,2.1,0,0,0,8,10.11h4.23A2.1,2.1,0,0,0,10.12,8Z" fill="url(#linear-gradient)"/><path d="M29.56,8H10.11a2.1,2.1,0,0,1,2.11,2.11V31.89A2.1,2.1,0,0,0,14.33,34H31.67V10.12A2.11,2.11,0,0,0,29.55,8Z" fill="url(#linear-gradient-2)"/><path d="M29.56,31.89H16.46A2.1,2.1,0,0,1,14.35,34H31.68a2.1,2.1,0,0,0,2.11-2.11Z" fill="url(#linear-gradient-3)"/><path d="M15.7,27.8h8.6" fill="none" stroke="#e5dcff" stroke-linecap="round" stroke-width="1.4"/><path d="M15.7,24.8H28.3" fill="none" stroke="#e5dcff" stroke-linecap="round" stroke-width="1.4"/><path d="M21.61,15.59a1.54,1.54,0,0,1-1.54,1.67,1.48,1.48,0,0,1-1.5-1.57,1.53,1.53,0,0,1,1.54-1.64,1.43,1.43,0,0,1,1.49,1.54Zm-2,.06c0,.5.16.84.48.84s.44-.29.44-.84-.12-.83-.45-.83S19.63,15.18,19.63,15.65Zm.56,3.78,3-5.39h.75l-3,5.39Zm5.33-1.68A1.53,1.53,0,0,1,24,19.42a1.47,1.47,0,0,1-1.5-1.58A1.52,1.52,0,0,1,24,16.21a1.43,1.43,0,0,1,1.49,1.54Zm-2,.07c0,.49.15.83.47.83s.44-.29.44-.83S24.34,17,24,17,23.55,17.34,23.55,17.82Z" fill="url(#linear-gradient-4)"/></g></g></g></svg>