<svg width="42" height="42" viewBox="0 0 42 42" fill="none" xmlns="http://www.w3.org/2000/svg">
<g filter="url(#filter0_b_10888_18453)">
<g clip-path="url(#clip0_10888_18453)">
<path d="M0 21C0 14.4768 0 11.2152 1.06569 8.64243C2.4866 5.21204 5.21204 2.4866 8.64243 1.06569C11.2152 0 14.4768 0 21 0V0C27.5232 0 30.7848 0 33.3576 1.06569C36.788 2.4866 39.5134 5.21204 40.9343 8.64243C42 11.2152 42 14.4768 42 21V21C42 27.5232 42 30.7848 40.9343 33.3576C39.5134 36.788 36.788 39.5134 33.3576 40.9343C30.7848 42 27.5232 42 21 42V42C14.4768 42 11.2152 42 8.64243 40.9343C5.21204 39.5134 2.4866 36.788 1.06569 33.3576C0 30.7848 0 27.5232 0 21V21Z" fill="#FF79F4" fill-opacity="0.25"/>
<g filter="url(#filter1_d_10888_18453)">
<path d="M29.0848 9.83984H13.2852C12.5754 9.83984 12 10.5115 12 11.3399V31.2099C12 32.0383 12.5754 32.7099 13.2852 32.7099H29.0848C29.7946 32.7099 30.37 32.0383 30.37 31.2099V11.3399C30.37 10.5115 29.7946 9.83984 29.0848 9.83984Z" fill="url(#paint0_linear_10888_18453)"/>
<path d="M31.32 25.9102H21.23V31.2302H31.32V25.9102Z" fill="url(#paint1_linear_10888_18453)"/>
<path d="M26.2301 27.52C26.0801 27.52 25.9801 27.53 25.9301 27.54V28.48C25.9801 28.48 26.0501 28.49 26.1501 28.49C26.5401 28.49 26.7801 28.29 26.7801 27.98C26.7801 27.71 26.5901 27.52 26.2201 27.52H26.2301Z" fill="url(#paint2_linear_10888_18453)"/>
<path fill-rule="evenodd" clip-rule="evenodd" d="M26.5 22.4102C23.1863 22.4102 20.5 25.0964 20.5 28.4102C20.5 31.7239 23.1863 34.4102 26.5 34.4102C29.8137 34.4102 32.5 31.7239 32.5 28.4102C32.5 25.0964 29.8137 22.4102 26.5 22.4102Z" fill="url(#paint3_linear_10888_18453)"/>
<path d="M30.0595 26.7002C29.4642 25.3235 28.3712 24.7189 27.9201 24.5096C25.7666 23.5096 23.1993 24.4538 22.1993 26.6072C21.1993 28.7606 22.1435 31.328 24.2969 32.328C24.7434 32.5373 25.2178 32.6628 25.7015 32.7093C25.8085 32.7186 25.9108 32.6628 25.9527 32.5652L26.4457 31.5001C26.4829 31.421 26.4736 31.328 26.4271 31.2536C26.3806 31.1792 26.2969 31.1373 26.2085 31.142C25.7759 31.1606 25.3574 31.0768 24.962 30.8908C23.5993 30.2583 23.0039 28.6397 23.6365 27.277C24.269 25.9142 25.8876 25.3189 27.2503 25.9514C27.8317 26.2212 28.2921 26.677 28.5619 27.2491L27.9526 27.4723C27.8642 27.5049 27.8038 27.5793 27.7898 27.6723C27.7759 27.7653 27.8131 27.8537 27.8875 27.9095L30.0177 29.4955C30.0874 29.5467 30.1758 29.5606 30.2549 29.5281C30.2828 29.5188 30.3107 29.5002 30.3293 29.4862C30.3665 29.4536 30.3897 29.4164 30.4037 29.3839C30.4083 29.3699 30.413 29.356 30.413 29.3467L31.013 26.7607C31.0362 26.6723 31.0037 26.5747 30.9339 26.5142C30.8641 26.4537 30.7665 26.4351 30.6781 26.4677L30.0502 26.7002H30.0595Z" fill="url(#paint4_linear_10888_18453)"/>
<path d="M26.3946 29.2118H26.3295C26.3109 29.2536 26.283 29.2955 26.2551 29.3327C26.2272 29.3699 26.19 29.4025 26.1434 29.435C26.0969 29.4629 26.0458 29.4862 25.9807 29.5048C25.9202 29.5234 25.8411 29.5327 25.7528 29.5327C25.6365 29.5327 25.5342 29.5141 25.4318 29.4722C25.3342 29.4304 25.2504 29.3699 25.176 29.2908C25.1063 29.2071 25.0458 29.1094 25.0039 28.9932C24.9621 28.8769 24.9435 28.742 24.9435 28.5932V28.5281C24.9435 28.3792 24.9667 28.2444 25.0086 28.1281C25.0551 28.0118 25.1109 27.9141 25.1853 27.8351C25.2644 27.7513 25.3481 27.6909 25.4504 27.649C25.5528 27.6072 25.6597 27.5839 25.7714 27.5839C25.9202 27.5839 26.0365 27.6118 26.1248 27.6676C26.2132 27.7234 26.2783 27.8025 26.3295 27.9002H26.3946V27.4769H25.8132V27.0537H26.3946V26.877H26.8644V27.0537H27.0876V27.4769H26.8644V29.4769H26.3946V29.2071V29.2118ZM25.9016 29.0815C26.0458 29.0815 26.1667 29.035 26.2551 28.942C26.3481 28.849 26.3946 28.7234 26.3946 28.5746V28.5281C26.3946 28.3746 26.3481 28.2537 26.2551 28.1653C26.1667 28.0723 26.0458 28.0258 25.9016 28.0258C25.7574 28.0258 25.6365 28.0723 25.5435 28.1653C25.4504 28.2583 25.4086 28.3792 25.4086 28.5327V28.5792C25.4086 28.7374 25.4551 28.8583 25.5435 28.9513C25.6365 29.0397 25.7528 29.0862 25.9016 29.0862V29.0815Z" fill="url(#paint5_linear_10888_18453)"/>
<path d="M26.7202 29.9419H25.1714V30.2535H26.7202V29.9419Z" fill="url(#paint6_linear_10888_18453)"/>
<path d="M18.75 8.48C18.75 7.66 19.41 7 20.23 7H21.52C22.34 7 23 7.66 23 8.48V9.82H18.75V8.48Z" fill="white" stroke="white" stroke-width="0.04"/>
<path fill-rule="evenodd" clip-rule="evenodd" d="M14 14.7103C14 14.3237 14.3134 14.0103 14.7 14.0103H27.3C27.6866 14.0103 28 14.3237 28 14.7103C28 15.0969 27.6866 15.4103 27.3 15.4103H14.7C14.3134 15.4103 14 15.0969 14 14.7103ZM14 17.7103C14 17.3237 14.3134 17.0103 14.7 17.0103H23.3C23.6866 17.0103 24 17.3237 24 17.7103C24 18.0969 23.6866 18.4103 23.3 18.4103H14.7C14.3134 18.4103 14 18.0969 14 17.7103ZM14 20.7103C14 20.3237 14.3134 20.0103 14.7 20.0103H20.3C20.6866 20.0103 21 20.3237 21 20.7103C21 21.0969 20.6866 21.4103 20.3 21.4103H14.7C14.3134 21.4103 14 21.0969 14 20.7103Z" fill="url(#paint7_linear_10888_18453)"/>
</g>
</g>
</g>
<defs>
<filter id="filter0_b_10888_18453" x="-14" y="-14" width="70" height="70" filterUnits="userSpaceOnUse" color-interpolation-filters="sRGB">
<feFlood flood-opacity="0" result="BackgroundImageFix"/>
<feGaussianBlur in="BackgroundImageFix" stdDeviation="7"/>
<feComposite in2="SourceAlpha" operator="in" result="effect1_backgroundBlur_10888_18453"/>
<feBlend mode="normal" in="SourceGraphic" in2="effect1_backgroundBlur_10888_18453" result="shape"/>
</filter>
<filter id="filter1_d_10888_18453" x="4" y="2.97998" width="36.5" height="43.4302" filterUnits="userSpaceOnUse" color-interpolation-filters="sRGB">
<feFlood flood-opacity="0" result="BackgroundImageFix"/>
<feColorMatrix in="SourceAlpha" type="matrix" values="0 0 0 0 0 0 0 0 0 0 0 0 0 0 0 0 0 0 127 0" result="hardAlpha"/>
<feOffset dy="4"/>
<feGaussianBlur stdDeviation="4"/>
<feComposite in2="hardAlpha" operator="out"/>
<feColorMatrix type="matrix" values="0 0 0 0 0 0 0 0 0 0 0 0 0 0 0 0 0 0 0.1 0"/>
<feBlend mode="normal" in2="BackgroundImageFix" result="effect1_dropShadow_10888_18453"/>
<feBlend mode="normal" in="SourceGraphic" in2="effect1_dropShadow_10888_18453" result="shape"/>
</filter>
<linearGradient id="paint0_linear_10888_18453" x1="21.185" y1="32.7099" x2="21.185" y2="9.83984" gradientUnits="userSpaceOnUse">
<stop stop-color="#A93AFF"/>
<stop offset="1" stop-color="#FF81FF"/>
</linearGradient>
<linearGradient id="paint1_linear_10888_18453" x1="26.275" y1="31.2302" x2="26.275" y2="25.9102" gradientUnits="userSpaceOnUse">
<stop stop-color="#FF8D3A"/>
<stop offset="1" stop-color="#FFC581"/>
</linearGradient>
<linearGradient id="paint2_linear_10888_18453" x1="26.3551" y1="28.49" x2="26.3551" y2="27.52" gradientUnits="userSpaceOnUse">
<stop stop-color="#FCDBFF"/>
<stop offset="1" stop-color="white"/>
</linearGradient>
<linearGradient id="paint3_linear_10888_18453" x1="26.5" y1="34.4102" x2="26.5" y2="22.4102" gradientUnits="userSpaceOnUse">
<stop stop-color="#FCDBFF"/>
<stop offset="1" stop-color="white"/>
</linearGradient>
<linearGradient id="paint4_linear_10888_18453" x1="26.4102" y1="32.7104" x2="26.4102" y2="24.1104" gradientUnits="userSpaceOnUse">
<stop stop-color="#A93AFF"/>
<stop offset="1" stop-color="#FF81FF"/>
</linearGradient>
<linearGradient id="paint5_linear_10888_18453" x1="26.0155" y1="29.5327" x2="26.0155" y2="26.877" gradientUnits="userSpaceOnUse">
<stop stop-color="#A93AFF"/>
<stop offset="1" stop-color="#FF81FF"/>
</linearGradient>
<linearGradient id="paint6_linear_10888_18453" x1="25.9458" y1="30.2535" x2="25.9458" y2="29.9419" gradientUnits="userSpaceOnUse">
<stop stop-color="#A93AFF"/>
<stop offset="1" stop-color="#FF81FF"/>
</linearGradient>
<linearGradient id="paint7_linear_10888_18453" x1="21" y1="21.4103" x2="21" y2="14.0103" gradientUnits="userSpaceOnUse">
<stop stop-color="#FCDBFF"/>
<stop offset="1" stop-color="white"/>
</linearGradient>
<clipPath id="clip0_10888_18453">
<path d="M0 21C0 14.4768 0 11.2152 1.06569 8.64243C2.4866 5.21204 5.21204 2.4866 8.64243 1.06569C11.2152 0 14.4768 0 21 0V0C27.5232 0 30.7848 0 33.3576 1.06569C36.788 2.4866 39.5134 5.21204 40.9343 8.64243C42 11.2152 42 14.4768 42 21V21C42 27.5232 42 30.7848 40.9343 33.3576C39.5134 36.788 36.788 39.5134 33.3576 40.9343C30.7848 42 27.5232 42 21 42V42C14.4768 42 11.2152 42 8.64243 40.9343C5.21204 39.5134 2.4866 36.788 1.06569 33.3576C0 30.7848 0 27.5232 0 21V21Z" fill="white"/>
</clipPath>
</defs>
</svg>
