<svg xmlns="http://www.w3.org/2000/svg" xmlns:xlink="http://www.w3.org/1999/xlink" viewBox="0 0 42 42"><defs><clipPath id="clip-path"><path d="M0,21c0-6.52,0-9.79,1.07-12.36A14,14,0,0,1,8.64,1.07C11.21,0,14.48,0,21,0s9.79,0,12.36,1.07a14,14,0,0,1,7.57,7.57C42,11.21,42,14.48,42,21s0,9.79-1.07,12.36a14,14,0,0,1-7.57,7.57C30.79,42,27.52,42,21,42s-9.79,0-12.36-1.07a14,14,0,0,1-7.57-7.57C0,30.79,0,27.52,0,21Z" fill="none"/></clipPath><linearGradient id="linear-gradient" x1="-233.37" y1="2780.22" x2="-233.37" y2="2758.49" gradientTransform="matrix(1, 0, 0, -1, 256.5, 2790.68)" gradientUnits="userSpaceOnUse"><stop offset="0" stop-color="#7f42ff"/><stop offset="1" stop-color="#5721cc"/></linearGradient><linearGradient id="linear-gradient-2" x1="-250.81" y1="2760.53" x2="-245.42" y2="2765.92" xlink:href="#linear-gradient"/><linearGradient id="linear-gradient-3" x1="-246.76" y1="2771.33" x2="-233.74" y2="2771.33" xlink:href="#linear-gradient"/><linearGradient id="linear-gradient-4" x1="-240.25" y1="2764.82" x2="-240.25" y2="2777.84" gradientTransform="matrix(1, 0, 0, -1, 256.5, 2790.68)" gradientUnits="userSpaceOnUse"><stop offset="0" stop-color="#7f89ff"/><stop offset="1" stop-color="#827ecc"/></linearGradient></defs><title>ic_tra_cuu_phi</title><g id="Layer_2" data-name="Layer 2"><g id="Layer_1-2" data-name="Layer 1"><g clip-path="url(#clip-path)"><path d="M0,21c0-6.52,0-9.79,1.07-12.36A14,14,0,0,1,8.64,1.07C11.21,0,14.48,0,21,0s9.79,0,12.36,1.07a14,14,0,0,1,7.57,7.57C42,11.21,42,14.48,42,21s0,9.79-1.07,12.36a14,14,0,0,1-7.57,7.57C30.79,42,27.52,42,21,42s-9.79,0-12.36-1.07a14,14,0,0,1-7.57-7.57C0,30.79,0,27.52,0,21Z" fill="#8270ee" fill-opacity="0.3"/><path d="M32.32,10.8A1.16,1.16,0,0,0,31,9.53H15.24A1.15,1.15,0,0,0,14,10.8V31.19a1.17,1.17,0,0,0,2,1c.61-.47,1.23-.93,1.86-1.39l1.83-1.37L22.17,32a1.18,1.18,0,0,0,1.93,0l2.58-2.59,3.69,2.77a1.2,1.2,0,0,0,1.29.19,1.16,1.16,0,0,0,.66-1.16Z" fill="url(#linear-gradient)"/><path d="M17.2,17.3H27.8" fill="none" stroke="#fff" stroke-linecap="round" stroke-width="1.4"/><path d="M17.2,20.3h8.6" fill="none" stroke="#fff" stroke-linecap="round" stroke-width="1.4"/><path d="M17.2,14.3H29.8" fill="none" stroke="#fff" stroke-linecap="round" stroke-width="1.4"/><path d="M12.79,24.68,8,29.5a1.15,1.15,0,1,1-1.63-1.63l4.82-4.82" fill="url(#linear-gradient-2)"/><path d="M16.25,25.86a6.51,6.51,0,1,0-6.51-6.51A6.5,6.5,0,0,0,16.25,25.86Z" fill="url(#linear-gradient-3)"/><path d="M16.25,24.86a5.51,5.51,0,1,0-5.51-5.51A5.51,5.51,0,0,0,16.25,24.86Zm6.51-5.51a6.51,6.51,0,1,1-6.51-6.51A6.5,6.5,0,0,1,22.76,19.35Z" fill-rule="evenodd" fill="url(#linear-gradient-4)"/><path d="M16.87,20.88h-.13a1.65,1.65,0,0,1-.15.25,1.07,1.07,0,0,1-.22.2,1,1,0,0,1-.33.14,2,2,0,0,1-.46.05,1.69,1.69,0,0,1-.64-.12,1.55,1.55,0,0,1-.52-.37,1.74,1.74,0,0,1-.34-.6,2.47,2.47,0,0,1-.12-.81v-.13a2.2,2.2,0,0,1,.13-.8,1.83,1.83,0,0,1,.36-.59,1.5,1.5,0,0,1,.53-.37,1.74,1.74,0,0,1,.64-.13,1.31,1.31,0,0,1,.71.17,1.18,1.18,0,0,1,.41.47h.13v-.85H15.7v-.85h1.17v-.36h.94v.36h.45v.85h-.45v4h-.94Zm-1-.25a.93.93,0,0,0,.71-.28,1,1,0,0,0,.28-.74v-.09a1,1,0,0,0-.28-.73.93.93,0,0,0-.71-.28.95.95,0,0,0-1,1v.09a1,1,0,0,0,.27.75,1,1,0,0,0,.72.27Z" fill="#fff"/><path d="M17.53,22.36H14.41V23h3.12Z" fill="#fff"/></g></g></g></svg>