<svg xmlns="http://www.w3.org/2000/svg" xmlns:xlink="http://www.w3.org/1999/xlink" viewBox="0 0 42 42"><defs><linearGradient id="linear-gradient" x1="-247.15" y1="2771.02" x2="-235.28" y2="2780.59" gradientTransform="matrix(1, 0, 0, -1, 256.5, 2794.88)" gradientUnits="userSpaceOnUse"><stop offset="0" stop-color="#2f7beb"/><stop offset="1" stop-color="#75adff"/></linearGradient></defs><title>ic_tra_tien_vay</title><g id="Layer_2" data-name="Layer 2"><g id="Layer_1-2" data-name="Layer 1"><path d="M0,21c0-6.52,0-9.79,1.07-12.36A14,14,0,0,1,8.64,1.07C11.21,0,14.48,0,21,0s9.79,0,12.36,1.07a14,14,0,0,1,7.57,7.57C42,11.21,42,14.48,42,21s0,9.79-1.07,12.36a14,14,0,0,1-7.57,7.57C30.79,42,27.52,42,21,42s-9.79,0-12.36-1.07a14,14,0,0,1-7.57-7.57C0,30.79,0,27.52,0,21Z" fill="#708cee" fill-opacity="0.2"/><path d="M25.52,23.55l-3.83,3.83a.94.94,0,0,0-.26.65.9.9,0,0,0,.28.65.88.88,0,0,0,.65.26,1,1,0,0,0,.65-.27l3.6-3.61a.57.57,0,0,1,.18-.12.57.57,0,0,1,.42,0,.55.55,0,0,1,.3.3.57.57,0,0,1,0,.42.57.57,0,0,1-.12.18l-3.62,3.62a2,2,0,0,1-1.26.57,2,2,0,0,1-1.33-.38H16.86a1.17,1.17,0,0,0-.37,0,.92.92,0,0,0-.32.18.89.89,0,0,0-.22.29,1.06,1.06,0,0,0-.09.36.88.88,0,0,0,.06.36.89.89,0,0,0,.19.31,1,1,0,0,0,.3.21.9.9,0,0,0,.36.08h8A1.69,1.69,0,0,0,25.93,31l2.58-2.58a2,2,0,0,1,1.42-.59h1.82V23.06H26.69a1.51,1.51,0,0,0-.63.13A1.76,1.76,0,0,0,25.52,23.55Z" fill="#fff"/><path d="M34.13,22.33h-.77a.55.55,0,0,0-.37.14.53.53,0,0,0-.17.35v5.25a.49.49,0,0,0,.17.34.54.54,0,0,0,.36.14h.77a.55.55,0,0,0,.54-.54V22.86a.5.5,0,0,0-.16-.38.66.66,0,0,0-.17-.12.52.52,0,0,0-.21,0Z" fill="#e1fffb"/><path d="M25.1,15.46a9.26,9.26,0,1,0-9.37,12.92.53.53,0,0,0,.54-.31l1.06-2.29a.56.56,0,0,0,0-.53.52.52,0,0,0-.47-.24,5.66,5.66,0,0,1-2.68-.54,5.85,5.85,0,0,1,4.92-10.62,5.8,5.8,0,0,1,2.82,2.79l-1.31.48a.54.54,0,0,0-.14.94L25,21.47a.52.52,0,0,0,.51.07.53.53,0,0,0,.32-.31.31.31,0,0,0,0-.08l1.29-5.56a.53.53,0,0,0-.17-.53.55.55,0,0,0-.55-.1l-1.35.5Z" fill="url(#linear-gradient)"/><path d="M17.22,20.86h-.14a1.4,1.4,0,0,1-.16.26,1,1,0,0,1-.24.22,1.42,1.42,0,0,1-.35.15,1.73,1.73,0,0,1-.49.06,1.77,1.77,0,0,1-.69-.13A1.63,1.63,0,0,1,14.6,21a2.11,2.11,0,0,1-.37-.64,2.55,2.55,0,0,1-.13-.86v-.14a2.54,2.54,0,0,1,.14-.86,2,2,0,0,1,.38-.63,1.6,1.6,0,0,1,.57-.4,1.81,1.81,0,0,1,.69-.14,1.4,1.4,0,0,1,.76.18,1.26,1.26,0,0,1,.44.5h.14v-.91H16v-.91h1.25v-.38h1v.38h.48v.91h-.48v4.3h-1v-.58Zm-1.06-.28a1,1,0,0,0,.76-.3,1.08,1.08,0,0,0,.3-.79v-.1a1,1,0,0,0-.3-.78,1,1,0,0,0-.76-.3A1,1,0,0,0,15.1,19.4v.1a1.11,1.11,0,0,0,.29.8,1.06,1.06,0,0,0,.77.29Z" fill="#fff"/><path d="M17.92,22.43H14.59v.67h3.33Z" fill="#fff"/></g></g></svg>