<svg xmlns="http://www.w3.org/2000/svg" xmlns:xlink="http://www.w3.org/1999/xlink" viewBox="0 0 42 42"><defs><clipPath id="clip-path"><rect width="42" height="42" rx="14" fill="none"/></clipPath><linearGradient id="linear-gradient" x1="-235.87" y1="3599.14" x2="-235.87" y2="3576.85" gradientTransform="matrix(1, 0, 0, -1, 256.5, 3610.88)" gradientUnits="userSpaceOnUse"><stop offset="0" stop-color="#fe984e"/><stop offset="1" stop-color="#fb7d40"/></linearGradient><linearGradient id="linear-gradient-2" x1="-228.4" y1="3589.08" x2="-228.4" y2="3604.88" gradientTransform="matrix(1, 0, 0, -1, 256.5, 3610.88)" gradientUnits="userSpaceOnUse"><stop offset="0" stop-color="#ffddbe"/><stop offset="1" stop-color="#fff1ff"/></linearGradient></defs><title>ic_tai_san</title><g id="Layer_2" data-name="Layer 2"><g id="Layer_1-2" data-name="Layer 1"><g clip-path="url(#clip-path)"><rect width="42" height="42" rx="14" fill="#eead70" fill-opacity="0.3"/><path d="M32.41,20.5H21.49V9.58a.84.84,0,0,0-.84-.84,12.63,12.63,0,1,0,12.6,12.6A.84.84,0,0,0,32.41,20.5Z" fill="url(#linear-gradient)"/><path d="M21.19,6a1,1,0,0,0-1,1V20.82a1,1,0,0,0,1,1H35a1,1,0,0,0,1-1A14.88,14.88,0,0,0,21.19,6Z" fill="url(#linear-gradient-2)"/><path d="M27.15,13.6a1.6,1.6,0,0,1-1.59,1.74A1.53,1.53,0,0,1,24,13.71,1.58,1.58,0,0,1,25.59,12a1.49,1.49,0,0,1,1.55,1.59Zm-2,.07c0,.51.17.87.49.87s.46-.3.46-.87-.12-.87-.46-.87S25.1,13.18,25.1,13.67Zm.58,3.93L28.76,12h.77l-3.08,5.6Zm5.54-1.75a1.6,1.6,0,0,1-1.6,1.74A1.54,1.54,0,0,1,28.07,16a1.58,1.58,0,0,1,1.59-1.7,1.49,1.49,0,0,1,1.55,1.6Zm-2,.07c0,.51.16.86.49.86s.46-.29.46-.86S30,15,29.65,15,29.17,15.42,29.17,15.92Z" fill="#eead70" fill-opacity="0.3"/></g></g></g></svg>