<svg width="122" height="122" viewBox="0 0 122 122" fill="none" xmlns="http://www.w3.org/2000/svg">
<g filter="url(#filter0_bd_10596_18476)">
<g clip-path="url(#clip0_10596_18476)">
<path d="M40 57C40 50.4768 40 47.2152 41.0657 44.6424C42.4866 41.212 45.212 38.4866 48.6424 37.0657C51.2152 36 54.4768 36 61 36C67.5232 36 70.7848 36 73.3576 37.0657C76.788 38.4866 79.5134 41.212 80.9343 44.6424C82 47.2152 82 50.4768 82 57C82 63.5232 82 66.7848 80.9343 69.3576C79.5134 72.788 76.788 75.5134 73.3576 76.9343C70.7848 78 67.5232 78 61 78C54.4768 78 51.2152 78 48.6424 76.9343C45.212 75.5134 42.4866 72.788 41.0657 69.3576C40 66.7848 40 63.5232 40 57Z" fill="#70A2EE" fill-opacity="0.2"/>
<g filter="url(#filter1_d_10596_18476)">
<path d="M70.87 47.27C70.87 46.45 70.41 46 69.58 46C64.32 46 59.06 46 53.79 46C52.96 46 52.5 46.44 52.5 47.27C52.5 54.07 52.5 60.87 52.5 67.66C52.5 68.18 52.68 68.59 53.16 68.82C53.62 69.04 54.05 68.94 54.45 68.63C55.06 68.16 55.68 67.7 56.31 67.24C56.92 66.79 57.52 66.33 58.14 65.87C59.02 66.75 59.87 67.6 60.72 68.45C61.39 69.12 61.98 69.12 62.65 68.45C63.5 67.6 64.35 66.75 65.23 65.86C66.49 66.8 67.7 67.71 68.92 68.63C69.32 68.93 69.74 69.03 70.21 68.82C70.69 68.6 70.87 68.17 70.87 67.66C70.87 60.86 70.87 54.07 70.87 47.27Z" fill="url(#paint0_linear_10596_18476)"/>
<path d="M56.1099 53.77H66.7099" stroke="url(#paint1_linear_10596_18476)" stroke-width="1.4" stroke-linecap="round"/>
<path d="M56.1099 56.77H64.7099" stroke="url(#paint2_linear_10596_18476)" stroke-width="1.4" stroke-linecap="round"/>
<path d="M56.1099 50.77H68.7099" stroke="url(#paint3_linear_10596_18476)" stroke-width="1.4" stroke-linecap="round"/>
<path d="M52.7875 60.84L47.9674 65.66C47.5174 66.11 46.7875 66.11 46.3375 65.66C45.8875 65.21 45.8875 64.48 46.3375 64.03L51.1575 59.21" fill="url(#paint4_linear_10596_18476)"/>
<g filter="url(#filter2_b_10596_18476)">
<path d="M56.2474 62.02C59.8474 62.02 62.7574 59.11 62.7574 55.51C62.7574 51.91 59.8474 49 56.2474 49C52.6474 49 49.7374 51.91 49.7374 55.51C49.7374 59.11 52.6474 62.02 56.2474 62.02Z" fill="url(#paint5_linear_10596_18476)" fill-opacity="0.4"/>
</g>
<path fill-rule="evenodd" clip-rule="evenodd" d="M56.2474 61.02C59.2874 61.02 61.7574 58.55 61.7574 55.51C61.7574 52.47 59.2874 50 56.2474 50C53.2074 50 50.7374 52.47 50.7374 55.51C50.7374 58.55 53.2074 61.02 56.2474 61.02ZM62.7574 55.51C62.7574 59.11 59.8474 62.02 56.2474 62.02C52.6474 62.02 49.7374 59.11 49.7374 55.51C49.7374 51.91 52.6474 49 56.2474 49C59.8474 49 62.7574 51.91 62.7574 55.51Z" fill="url(#paint6_linear_10596_18476)"/>
<path d="M56.2505 52.9995C55.3933 52.9995 54.6926 53.7002 54.6926 54.5573C54.6926 55.4145 55.3933 56.1152 56.2505 56.1152C57.1076 56.1152 57.8083 55.4145 57.8083 54.5573C57.8083 53.7002 57.1076 52.9995 56.2505 52.9995Z" fill="url(#paint7_linear_10596_18476)"/>
<path d="M58.9238 57.36C58.883 57.258 58.8286 57.1627 58.7674 57.0743C58.4544 56.6117 57.9715 56.3056 57.4272 56.2308C57.3592 56.224 57.2844 56.2376 57.23 56.2784C56.9442 56.4893 56.6041 56.5981 56.2504 56.5981C55.8966 56.5981 55.5565 56.4893 55.2708 56.2784C55.2163 56.2376 55.1415 56.2172 55.0735 56.2308C54.5293 56.3056 54.0395 56.6117 53.7334 57.0743C53.6721 57.1627 53.6177 57.2648 53.5769 57.36C53.5565 57.4008 53.5633 57.4485 53.5837 57.4893C53.6381 57.5845 53.7061 57.6798 53.7674 57.7614C53.8626 57.8906 53.9646 58.0063 54.0803 58.1151C54.1755 58.2104 54.2844 58.2988 54.3932 58.3872C54.9306 58.7886 55.5769 58.9995 56.2436 58.9995C56.9102 58.9995 57.5565 58.7886 58.0939 58.3872C58.2027 58.3056 58.3116 58.2104 58.4068 58.1151C58.5157 58.0063 58.6245 57.8906 58.7198 57.7614C58.7878 57.6729 58.849 57.5845 58.9034 57.4893C58.9374 57.4485 58.9442 57.4008 58.9238 57.36Z" fill="url(#paint8_linear_10596_18476)"/>
</g>
</g>
</g>
<defs>
<filter id="filter0_bd_10596_18476" x="3.8147e-06" y="3.8147e-06" width="122" height="122" filterUnits="userSpaceOnUse" color-interpolation-filters="sRGB">
<feFlood flood-opacity="0" result="BackgroundImageFix"/>
<feGaussianBlur in="BackgroundImageFix" stdDeviation="7"/>
<feComposite in2="SourceAlpha" operator="in" result="effect1_backgroundBlur_10596_18476"/>
<feColorMatrix in="SourceAlpha" type="matrix" values="0 0 0 0 0 0 0 0 0 0 0 0 0 0 0 0 0 0 127 0" result="hardAlpha"/>
<feOffset dy="4"/>
<feGaussianBlur stdDeviation="20"/>
<feColorMatrix type="matrix" values="0 0 0 0 0.342981 0 0 0 0 0.331528 0 0 0 0 0.904167 0 0 0 0.2 0"/>
<feBlend mode="normal" in2="effect1_backgroundBlur_10596_18476" result="effect2_dropShadow_10596_18476"/>
<feBlend mode="normal" in="SourceGraphic" in2="effect2_dropShadow_10596_18476" result="shape"/>
</filter>
<filter id="filter1_d_10596_18476" x="38" y="42" width="40.87" height="38.9526" filterUnits="userSpaceOnUse" color-interpolation-filters="sRGB">
<feFlood flood-opacity="0" result="BackgroundImageFix"/>
<feColorMatrix in="SourceAlpha" type="matrix" values="0 0 0 0 0 0 0 0 0 0 0 0 0 0 0 0 0 0 127 0" result="hardAlpha"/>
<feOffset dy="4"/>
<feGaussianBlur stdDeviation="4"/>
<feComposite in2="hardAlpha" operator="out"/>
<feColorMatrix type="matrix" values="0 0 0 0 0.235294 0 0 0 0 0.466667 0 0 0 0 1 0 0 0 0.1 0"/>
<feBlend mode="normal" in2="BackgroundImageFix" result="effect1_dropShadow_10596_18476"/>
<feBlend mode="normal" in="SourceGraphic" in2="effect1_dropShadow_10596_18476" result="shape"/>
</filter>
<filter id="filter2_b_10596_18476" x="45.7374" y="45" width="21.02" height="21.02" filterUnits="userSpaceOnUse" color-interpolation-filters="sRGB">
<feFlood flood-opacity="0" result="BackgroundImageFix"/>
<feGaussianBlur in="BackgroundImageFix" stdDeviation="2"/>
<feComposite in2="SourceAlpha" operator="in" result="effect1_backgroundBlur_10596_18476"/>
<feBlend mode="normal" in="SourceGraphic" in2="effect1_backgroundBlur_10596_18476" result="shape"/>
</filter>
<linearGradient id="paint0_linear_10596_18476" x1="61.685" y1="68.9525" x2="61.685" y2="46" gradientUnits="userSpaceOnUse">
<stop stop-color="#5558FF"/>
<stop offset="1" stop-color="#00C0FF"/>
</linearGradient>
<linearGradient id="paint1_linear_10596_18476" x1="-nan" y1="-nan" x2="-nan" y2="-nan" gradientUnits="userSpaceOnUse">
<stop stop-color="white"/>
<stop offset="1" stop-color="#FFCBC9"/>
</linearGradient>
<linearGradient id="paint2_linear_10596_18476" x1="-nan" y1="-nan" x2="-nan" y2="-nan" gradientUnits="userSpaceOnUse">
<stop stop-color="white"/>
<stop offset="1" stop-color="#FFCBC9"/>
</linearGradient>
<linearGradient id="paint3_linear_10596_18476" x1="-nan" y1="-nan" x2="-nan" y2="-nan" gradientUnits="userSpaceOnUse">
<stop stop-color="white"/>
<stop offset="1" stop-color="#FFCBC9"/>
</linearGradient>
<linearGradient id="paint4_linear_10596_18476" x1="49.3937" y1="65.9975" x2="49.3937" y2="59.21" gradientUnits="userSpaceOnUse">
<stop stop-color="#FCDBFF"/>
<stop offset="1" stop-color="white"/>
</linearGradient>
<linearGradient id="paint5_linear_10596_18476" x1="56.2474" y1="62.02" x2="56.2474" y2="49" gradientUnits="userSpaceOnUse">
<stop stop-color="#5558FF"/>
<stop offset="1" stop-color="#00C0FF"/>
</linearGradient>
<linearGradient id="paint6_linear_10596_18476" x1="56.2474" y1="62.02" x2="56.2474" y2="49" gradientUnits="userSpaceOnUse">
<stop stop-color="#FCDBFF"/>
<stop offset="1" stop-color="white"/>
</linearGradient>
<linearGradient id="paint7_linear_10596_18476" x1="56.2505" y1="56.1152" x2="56.2505" y2="52.9995" gradientUnits="userSpaceOnUse">
<stop stop-color="#FCDBFF"/>
<stop offset="1" stop-color="white"/>
</linearGradient>
<linearGradient id="paint8_linear_10596_18476" x1="56.2499" y1="58.9995" x2="56.2499" y2="56.2266" gradientUnits="userSpaceOnUse">
<stop stop-color="#FCDBFF"/>
<stop offset="1" stop-color="white"/>
</linearGradient>
<clipPath id="clip0_10596_18476">
<path d="M40 57C40 50.4768 40 47.2152 41.0657 44.6424C42.4866 41.212 45.212 38.4866 48.6424 37.0657C51.2152 36 54.4768 36 61 36C67.5232 36 70.7848 36 73.3576 37.0657C76.788 38.4866 79.5134 41.212 80.9343 44.6424C82 47.2152 82 50.4768 82 57C82 63.5232 82 66.7848 80.9343 69.3576C79.5134 72.788 76.788 75.5134 73.3576 76.9343C70.7848 78 67.5232 78 61 78C54.4768 78 51.2152 78 48.6424 76.9343C45.212 75.5134 42.4866 72.788 41.0657 69.3576C40 66.7848 40 63.5232 40 57Z" fill="white"/>
</clipPath>
</defs>
</svg>
