<svg xmlns="http://www.w3.org/2000/svg" xmlns:xlink="http://www.w3.org/1999/xlink" viewBox="0 0 42 42"><defs><linearGradient id="linear-gradient" x1="-234.82" y1="2779.75" x2="-234.82" y2="2758.02" gradientTransform="matrix(1, 0, 0, -1, 256.5, 2790.68)" gradientUnits="userSpaceOnUse"><stop offset="0" stop-color="#fb8784"/><stop offset="1" stop-color="#e25552"/></linearGradient><linearGradient id="linear-gradient-2" x1="-241.09" y1="2772.91" x2="-229.09" y2="2772.91" gradientTransform="matrix(1, 0, 0, -1, 256.5, 2790.68)" gradientUnits="userSpaceOnUse"><stop offset="0" stop-color="#fff"/><stop offset="1" stop-color="#ffcbc9"/></linearGradient><linearGradient id="linear-gradient-3" x1="-241.09" y1="2769.91" x2="-231.09" y2="2769.91" xlink:href="#linear-gradient-2"/><linearGradient id="linear-gradient-4" x1="-241.09" y1="2775.91" x2="-227.09" y2="2775.91" xlink:href="#linear-gradient-2"/><linearGradient id="linear-gradient-5" x1="-247.11" y1="2760.69" x2="-247.11" y2="2767.47" gradientTransform="matrix(1, 0, 0, -1, 256.5, 2790.68)" gradientUnits="userSpaceOnUse"><stop offset="0" stop-color="#ff908d"/><stop offset="1" stop-color="#e25552"/></linearGradient><linearGradient id="linear-gradient-6" x1="-240.25" y1="2778.14" x2="-240.25" y2="2756.19" gradientTransform="matrix(1, 0, 0, -1, 256.5, 2790.68)" gradientUnits="userSpaceOnUse"><stop offset="0.67" stop-color="#d44e52"/><stop offset="1" stop-color="#943a29"/></linearGradient><linearGradient id="linear-gradient-7" x1="-240.25" y1="2764.66" x2="-240.25" y2="2804.69" xlink:href="#linear-gradient-5"/></defs><title>ic_tra_cuu_thay_doi_bieu_phi</title><g id="Layer_2" data-name="Layer 2"><g id="Layer_1-2" data-name="Layer 1"><path d="M0,21c0-6.52,0-9.79,1.07-12.36A14,14,0,0,1,8.64,1.07C11.21,0,14.48,0,21,0s9.79,0,12.36,1.07a14,14,0,0,1,7.57,7.57C42,11.21,42,14.48,42,21s0,9.79-1.07,12.36a14,14,0,0,1-7.57,7.57C30.79,42,27.52,42,21,42s-9.79,0-12.36-1.07a14,14,0,0,1-7.57-7.57C0,30.79,0,27.52,0,21Z" fill="#ee7f70" fill-opacity="0.3"/><path d="M30.87,11.27A1.16,1.16,0,0,0,29.58,10H13.79a1.15,1.15,0,0,0-1.29,1.27V31.66a1.17,1.17,0,0,0,1.95,1c.61-.47,1.23-.93,1.86-1.39l1.83-1.37,2.58,2.58a1.18,1.18,0,0,0,1.93,0l2.58-2.59,3.69,2.77a1.2,1.2,0,0,0,1.29.19,1.16,1.16,0,0,0,.66-1.16Z" fill="url(#linear-gradient)"/><path d="M16.11,17.77h10.6" fill="none" stroke-linecap="round" stroke-width="1.4" stroke="url(#linear-gradient-2)"/><path d="M16.11,20.77h8.6" fill="none" stroke-linecap="round" stroke-width="1.4" stroke="url(#linear-gradient-3)"/><path d="M16.11,14.77h12.6" fill="none" stroke-linecap="round" stroke-width="1.4" stroke="url(#linear-gradient-4)"/><path d="M12.79,24.84,8,29.66A1.15,1.15,0,0,1,6.34,28l4.82-4.82" fill="url(#linear-gradient-5)"/><path d="M16.25,26a6.51,6.51,0,1,0-6.51-6.51A6.5,6.5,0,0,0,16.25,26Z" fill="url(#linear-gradient-6)"/><path d="M16.25,25a5.51,5.51,0,1,0-5.51-5.51A5.51,5.51,0,0,0,16.25,25Zm6.51-5.51A6.51,6.51,0,1,1,16.25,13,6.5,6.5,0,0,1,22.76,19.51Z" fill-rule="evenodd" fill="url(#linear-gradient-7)"/><path d="M16.27,17l1,1,0,0H14.15a1.11,1.11,0,0,0-.81.34,1.14,1.14,0,0,0-.34.81,1.13,1.13,0,0,0,.34.81,1.14,1.14,0,0,0,.81.34" fill="none" stroke="#fcfcfc" stroke-linecap="round" stroke-linejoin="round" stroke-width="0.75"/><path d="M16.23,22l-1-1,0,0h3.18a1.11,1.11,0,0,0,.81-.34,1.14,1.14,0,0,0,.34-.81,1.13,1.13,0,0,0-.34-.81,1.14,1.14,0,0,0-.81-.34" fill="none" stroke="#fcfcfc" stroke-linecap="round" stroke-linejoin="round" stroke-width="0.75"/></g></g></svg>