<svg width="42" height="42" viewBox="0 0 42 42" fill="none" xmlns="http://www.w3.org/2000/svg">
<g clip-path="url(#clip0_8801_46845)">
<path d="M0 21C0 14.4768 0 11.2152 1.06569 8.64243C2.4866 5.21204 5.21204 2.4866 8.64243 1.06569C11.2152 0 14.4768 0 21 0V0C27.5232 0 30.7848 0 33.3576 1.06569C36.788 2.4866 39.5134 5.21204 40.9343 8.64243C42 11.2152 42 14.4768 42 21V21C42 27.5232 42 30.7848 40.9343 33.3576C39.5134 36.788 36.788 39.5134 33.3576 40.9343C30.7848 42 27.5232 42 21 42V42C14.4768 42 11.2152 42 8.64243 40.9343C5.21204 39.5134 2.4866 36.788 1.06569 33.3576C0 30.7848 0 27.5232 0 21V21Z" fill="#167B5E" fill-opacity="0.3"/>
<g filter="url(#filter0_d_8801_46845)">
<path d="M25.49 11.2395V27.0495C25.49 27.7195 24.94 28.2695 24.27 28.2695H12.32C11.65 28.2695 11.1 27.7195 11.1 27.0495V14.0295L15.11 10.0195H24.27C24.94 10.0195 25.49 10.5695 25.49 11.2395Z" fill="url(#paint0_linear_8801_46845)"/>
<path d="M15.11 10.0098L11.1 14.0198H15.11V10.0098Z" fill="url(#paint1_linear_8801_46845)"/>
<path d="M29.29 15.0298V30.8398C29.29 31.5098 28.74 32.0598 28.07 32.0598H16.12C15.45 32.0598 14.9 31.5098 14.9 30.8398V29.6298H25.09C26.07 29.6298 26.86 28.8298 26.86 27.8598V13.8198H28.07C28.74 13.8198 29.29 14.3698 29.29 15.0398V15.0298Z" fill="url(#paint2_linear_8801_46845)"/>
</g>
</g>
<defs>
<filter id="filter0_d_8801_46845" x="3.10001" y="6.58119" width="34.19" height="38.0503" filterUnits="userSpaceOnUse" color-interpolation-filters="sRGB">
<feFlood flood-opacity="0" result="BackgroundImageFix"/>
<feColorMatrix in="SourceAlpha" type="matrix" values="0 0 0 0 0 0 0 0 0 0 0 0 0 0 0 0 0 0 127 0" result="hardAlpha"/>
<feOffset dy="4.57143"/>
<feGaussianBlur stdDeviation="4"/>
<feComposite in2="hardAlpha" operator="out"/>
<feColorMatrix type="matrix" values="0 0 0 0 0.0706443 0 0 0 0 0.623333 0 0 0 0 0.557011 0 0 0 0.45 0"/>
<feBlend mode="normal" in2="BackgroundImageFix" result="effect1_dropShadow_8801_46845"/>
<feBlend mode="normal" in="SourceGraphic" in2="effect1_dropShadow_8801_46845" result="shape"/>
</filter>
<linearGradient id="paint0_linear_8801_46845" x1="18.295" y1="10.0195" x2="18.295" y2="28.2695" gradientUnits="userSpaceOnUse">
<stop stop-color="#3FE4A8"/>
<stop offset="1" stop-color="#0D8732"/>
</linearGradient>
<linearGradient id="paint1_linear_8801_46845" x1="13.105" y1="14.0198" x2="13.105" y2="10.0098" gradientUnits="userSpaceOnUse">
<stop stop-color="#D9D9D9"/>
<stop offset="0.5028" stop-color="#F2F2F2"/>
<stop offset="1" stop-color="white"/>
</linearGradient>
<linearGradient id="paint2_linear_8801_46845" x1="22.095" y1="32.0598" x2="22.095" y2="13.8198" gradientUnits="userSpaceOnUse">
<stop stop-color="#D9D9D9"/>
<stop offset="0.5028" stop-color="#F2F2F2"/>
<stop offset="1" stop-color="white"/>
</linearGradient>
<clipPath id="clip0_8801_46845">
<path d="M0 21C0 14.4768 0 11.2152 1.06569 8.64243C2.4866 5.21204 5.21204 2.4866 8.64243 1.06569C11.2152 0 14.4768 0 21 0V0C27.5232 0 30.7848 0 33.3576 1.06569C36.788 2.4866 39.5134 5.21204 40.9343 8.64243C42 11.2152 42 14.4768 42 21V21C42 27.5232 42 30.7848 40.9343 33.3576C39.5134 36.788 36.788 39.5134 33.3576 40.9343C30.7848 42 27.5232 42 21 42V42C14.4768 42 11.2152 42 8.64243 40.9343C5.21204 39.5134 2.4866 36.788 1.06569 33.3576C0 30.7848 0 27.5232 0 21V21Z" fill="white"/>
</clipPath>
</defs>
</svg>
