<svg xmlns="http://www.w3.org/2000/svg" xmlns:xlink="http://www.w3.org/1999/xlink" viewBox="0 0 43 42"><defs><clipPath id="clip-path"><path d="M0,21c0-6.52,0-9.78,1.07-12.36A14,14,0,0,1,8.64,1.07C11.22,0,14.48,0,21,0h1c6.52,0,9.78,0,12.36,1.07a14,14,0,0,1,7.57,7.57C43,11.22,43,14.48,43,21s0,9.78-1.07,12.36a14,14,0,0,1-7.57,7.57C31.78,42,28.52,42,22,42H21c-6.52,0-9.78,0-12.36-1.07a14,14,0,0,1-7.57-7.57C0,30.78,0,27.52,0,21Z" fill="none"/></clipPath><linearGradient id="linear-gradient" x1="11.15" y1="32.55" x2="26.28" y2="27.25" gradientTransform="matrix(1, 0, 0, -1, 0, 44)" gradientUnits="userSpaceOnUse"><stop offset="0" stop-color="#7f42ff"/><stop offset="1" stop-color="#5721cc"/></linearGradient><linearGradient id="linear-gradient-2" x1="15.39" y1="13.44" x2="15.39" y2="23.28" gradientTransform="matrix(1, 0, 0, -1, 0, 44)" gradientUnits="userSpaceOnUse"><stop offset="0" stop-color="#fcdbff"/><stop offset="1" stop-color="#fff"/></linearGradient><linearGradient id="linear-gradient-3" x1="27.72" y1="11" x2="27.72" y2="23.66" xlink:href="#linear-gradient-2"/><linearGradient id="linear-gradient-4" x1="13" y1="31.5" x2="23.5" y2="31.5" gradientTransform="matrix(1, 0, 0, -1, 0, 44)" gradientUnits="userSpaceOnUse"><stop offset="0" stop-color="#fffdff"/><stop offset="1" stop-color="#fcdcff"/></linearGradient><linearGradient id="linear-gradient-5" y1="29" x2="21" y2="29" xlink:href="#linear-gradient-4"/></defs><g id="Layer_2" data-name="Layer 2"><g id="Layer_1-2" data-name="Layer 1"><g clip-path="url(#clip-path)"><path d="M0,21c0-6.52,0-9.78,1.07-12.36A14,14,0,0,1,8.64,1.07C11.22,0,14.48,0,21,0h1c6.52,0,9.78,0,12.36,1.07a14,14,0,0,1,7.57,7.57C43,11.22,43,14.48,43,21s0,9.78-1.07,12.36a14,14,0,0,1-7.57,7.57C31.78,42,28.52,42,22,42H21c-6.52,0-9.78,0-12.36-1.07a14,14,0,0,1-7.57-7.57C0,30.78,0,27.52,0,21Z" fill="#9b79ff" fill-opacity="0.25"/><path d="M12.11,18.84h6.74l2.61,2.61a.71.71,0,0,0,.49.21.63.63,0,0,0,.27-.06.69.69,0,0,0,.44-.65V18.84H24.3a2.11,2.11,0,0,0,2.11-2.11V11.11A2.12,2.12,0,0,0,24.3,9H12.11A2.12,2.12,0,0,0,10,11.11v5.62A2.11,2.11,0,0,0,12.11,18.84Z" fill="url(#linear-gradient)"/><path d="M19.61,24.94h-.77a3.59,3.59,0,0,0-.52-1.24l.55-.55a.69.69,0,0,0,0-1,.71.71,0,0,0-1,0l-.55.55a3.39,3.39,0,0,0-1.24-.51v-.78a.7.7,0,0,0-1.4,0v.78a3.39,3.39,0,0,0-1.24.51l-.55-.55a.7.7,0,0,0-1,1l.55.55A3.39,3.39,0,0,0,12,24.94h-.78a.7.7,0,0,0,0,1.4H12a3.39,3.39,0,0,0,.51,1.24l-.55.55a.71.71,0,0,0,.5,1.2.67.67,0,0,0,.49-.21l.55-.55a3.59,3.59,0,0,0,1.24.52v.77a.7.7,0,1,0,1.4,0v-.77a3.59,3.59,0,0,0,1.24-.52l.55.55a.67.67,0,0,0,.49.21.7.7,0,0,0,.5-.21.69.69,0,0,0,0-1l-.55-.55a3.59,3.59,0,0,0,.52-1.24h.77a.7.7,0,0,0,0-1.4Zm-4.22,1.4a.7.7,0,1,1,.7-.7A.7.7,0,0,1,15.39,26.34Z" fill="url(#linear-gradient-2)"/><path d="M33.65,27.66l-.58-.34a4.63,4.63,0,0,0,0-.65,4.82,4.82,0,0,0,0-.65l.58-.33a.72.72,0,0,0,.26-1L32.5,22.29a.7.7,0,0,0-1-.26l-.58.34a5.14,5.14,0,0,0-1.13-.66v-.66a.7.7,0,0,0-.7-.71H26.32a.71.71,0,0,0-.71.71v.66a5.38,5.38,0,0,0-1.13.66L23.91,22a.7.7,0,0,0-1,.26l-1.41,2.44a.7.7,0,0,0,.26,1l.57.33c0,.22,0,.44,0,.65s0,.44,0,.65l-.57.34a.69.69,0,0,0-.26,1L23,31.05a.69.69,0,0,0,1,.26l.57-.33a5.8,5.8,0,0,0,1.13.65v.67a.7.7,0,0,0,.71.7h2.81a.7.7,0,0,0,.7-.7v-.67A5.52,5.52,0,0,0,31,31l.58.33a.69.69,0,0,0,1-.26l1.41-2.43A.71.71,0,0,0,33.65,27.66Zm-5.93,1.12a2.11,2.11,0,1,1,2.11-2.11A2.12,2.12,0,0,1,27.72,28.78Z" fill="url(#linear-gradient-3)"/><path d="M12.25,12.5a.76.76,0,0,1,.75-.75H23.5a.75.75,0,0,1,0,1.5H13A.76.76,0,0,1,12.25,12.5Z" fill-rule="evenodd" fill="url(#linear-gradient-4)"/><path d="M12.25,15a.76.76,0,0,1,.75-.75h8a.75.75,0,0,1,0,1.5H13A.76.76,0,0,1,12.25,15Z" fill-rule="evenodd" fill="url(#linear-gradient-5)"/></g></g></g></svg>