<svg xmlns="http://www.w3.org/2000/svg" xmlns:xlink="http://www.w3.org/1999/xlink" viewBox="0 0 42 42"><defs><clipPath id="clip-path"><path d="M0,21c0-6.52,0-9.79,1.07-12.36A14,14,0,0,1,8.64,1.07C11.22,0,14.48,0,21,0s9.79,0,12.36,1.07a14,14,0,0,1,7.57,7.57C42,11.21,42,14.48,42,21s0,9.79-1.07,12.36a14,14,0,0,1-7.57,7.57C30.79,42,27.52,42,21,42s-9.78,0-12.36-1.07a14,14,0,0,1-7.57-7.57C0,30.79,0,27.52,0,21Z" fill="none"/></clipPath><linearGradient id="linear-gradient" x1="-233.22" y1="2784.42" x2="-233.22" y2="2762.69" gradientTransform="matrix(1, 0, 0, -1, 256.5, 2794.88)" gradientUnits="userSpaceOnUse"><stop offset="0" stop-color="#28ffb0"/><stop offset="1" stop-color="#0f9980"/></linearGradient><linearGradient id="linear-gradient-2" x1="-252.92" y1="2761.95" x2="-242.48" y2="2773.29" xlink:href="#linear-gradient"/><linearGradient id="linear-gradient-3" x1="-260.68" y1="2784.2" x2="-238.01" y2="2774.64" xlink:href="#linear-gradient"/><linearGradient id="linear-gradient-4" x1="-244.1" y1="2766.13" x2="-222.1" y2="2817.91" gradientTransform="matrix(1, 0, 0, -1, 256.5, 2794.88)" gradientUnits="userSpaceOnUse"><stop offset="0" stop-color="#21ffc8"/><stop offset="1" stop-color="#0f9980"/></linearGradient><linearGradient id="linear-gradient-5" x1="-240.12" y1="2772.34" x2="-240.12" y2="2777.79" gradientTransform="matrix(1, 0, 0, -1, 256.5, 2794.88)" gradientUnits="userSpaceOnUse"><stop offset="0" stop-color="#b3ffc7"/><stop offset="1" stop-color="#fff"/></linearGradient><linearGradient id="linear-gradient-6" x1="-240.11" y1="2772.29" x2="-240.11" y2="2777.54" xlink:href="#linear-gradient-5"/></defs><title>ic_tra_cuu_vay</title><g id="Layer_2" data-name="Layer 2"><g id="Layer_1-2" data-name="Layer 1"><g clip-path="url(#clip-path)"><path d="M0,21c0-6.52,0-9.79,1.07-12.36A14,14,0,0,1,8.64,1.07C11.22,0,14.48,0,21,0s9.79,0,12.36,1.07a14,14,0,0,1,7.57,7.57C42,11.21,42,14.48,42,21s0,9.79-1.07,12.36a14,14,0,0,1-7.57,7.57C30.79,42,27.52,42,21,42s-9.78,0-12.36-1.07a14,14,0,0,1-7.57-7.57C0,30.79,0,27.52,0,21Z" fill="#1ac795" fill-opacity="0.3"/><path d="M32.47,10.8a1.16,1.16,0,0,0-1.29-1.27H15.39A1.15,1.15,0,0,0,14.1,10.8V31.19a1.17,1.17,0,0,0,2,1c.61-.47,1.23-.93,1.86-1.39l1.83-1.37L22.32,32a1.18,1.18,0,0,0,1.93,0l2.58-2.59,3.69,2.77a1.2,1.2,0,0,0,1.29.19,1.16,1.16,0,0,0,.66-1.16Z" fill="url(#linear-gradient)"/><path d="M25.36,20.84H20.44" fill="none" stroke="#fff" stroke-linecap="round" stroke-linejoin="round" stroke-width="1.4"/><path d="M27.73,17.34H18.07" fill="none" stroke="#fff" stroke-linecap="round" stroke-linejoin="round" stroke-width="1.4"/><path d="M29.69,13.84H16.11" fill="none" stroke="#fff" stroke-linecap="round" stroke-linejoin="round" stroke-width="1.4"/><path d="M12.93,24.68,8.11,29.5a1.15,1.15,0,1,1-1.63-1.63l4.82-4.82" fill="url(#linear-gradient-2)"/><path d="M16.39,25.86a6.51,6.51,0,1,0-6.51-6.51A6.5,6.5,0,0,0,16.39,25.86Z" fill="url(#linear-gradient-3)"/><path d="M16.39,24.86a5.51,5.51,0,1,0-5.51-5.51A5.51,5.51,0,0,0,16.39,24.86Zm6.51-5.51a6.51,6.51,0,1,1-6.51-6.51A6.5,6.5,0,0,1,22.9,19.35Z" fill-rule="evenodd" fill="url(#linear-gradient-4)"/><path d="M16.39,16.42a.64.64,0,0,0-.43.22.74.74,0,0,1-.31.2,1.14,1.14,0,0,1-.46-.18,1,1,0,0,0-.27-.11.29.29,0,0,0-.28.12.43.43,0,0,0,0,.45,1.76,1.76,0,0,0,.34.39,4.64,4.64,0,0,0,.55.41l0,0h1.54s0,0,.05,0a4.64,4.64,0,0,0,.55-.41,1.76,1.76,0,0,0,.34-.39.43.43,0,0,0,0-.45.27.27,0,0,0-.28-.12.7.7,0,0,0-.27.11,1.25,1.25,0,0,1-.46.18c-.1,0-.19-.1-.31-.2a.67.67,0,0,0-.43-.22Z" fill="url(#linear-gradient-5)"/><path d="M15.62,18.36h0a2.14,2.14,0,0,0-1.06,1,3.3,3.3,0,0,0-.41,1.48,1.16,1.16,0,0,0,.7,1.17,4,4,0,0,0,1.58.22A4,4,0,0,0,18,22.05a1.19,1.19,0,0,0,.7-1.17,3.18,3.18,0,0,0-.41-1.48,2.22,2.22,0,0,0-1.06-1H15.62Z" fill="url(#linear-gradient-6)"/></g></g></g></svg>