<svg width="42" height="42" viewBox="0 0 42 42" fill="none" xmlns="http://www.w3.org/2000/svg">
<g clip-path="url(#clip0_11229_18463)">
<path d="M0 21C0 14.4768 0 11.2152 1.06569 8.64243C2.4866 5.21204 5.21204 2.4866 8.64243 1.06569C11.2152 0 14.4768 0 21 0C27.5232 0 30.7848 0 33.3576 1.06569C36.788 2.4866 39.5134 5.21204 40.9343 8.64243C42 11.2152 42 14.4768 42 21C42 27.5232 42 30.7848 40.9343 33.3576C39.5134 36.788 36.788 39.5134 33.3576 40.9343C30.7848 42 27.5232 42 21 42C14.4768 42 11.2152 42 8.64243 40.9343C5.21204 39.5134 2.4866 36.788 1.06569 33.3576C0 30.7848 0 27.5232 0 21Z" fill="#167B5E" fill-opacity="0.3"/>
<g filter="url(#filter0_d_11229_18463)">
<path d="M32.1833 21.25C32.7724 21.25 33.2549 21.7285 33.2026 22.3153C33.0246 24.3128 32.3481 26.24 31.2276 27.9168C29.9091 29.8902 28.0349 31.4283 25.8422 32.3366C23.6495 33.2448 21.2367 33.4824 18.9089 33.0194C16.5811 32.5564 14.4429 31.4135 12.7647 29.7353C11.0865 28.0571 9.9436 25.9189 9.48058 23.5911C9.01755 21.2633 9.25519 18.8505 10.1634 16.6578C11.0717 14.4651 12.6098 12.5909 14.5832 11.2724C16.26 10.1519 18.1872 9.47539 20.1847 9.29737C20.7715 9.24508 21.25 9.72756 21.25 10.3167V11.7833C21.25 12.3724 20.7705 12.843 20.1862 12.9176C18.9019 13.0816 17.6677 13.541 16.5832 14.2657C15.2018 15.1887 14.1252 16.5006 13.4894 18.0355C12.8536 19.5704 12.6873 21.2593 13.0114 22.8888C13.3355 24.5182 14.1355 26.0149 15.3103 27.1897C16.4851 28.3645 17.9818 29.1645 19.6112 29.4886C21.2407 29.8127 22.9296 29.6464 24.4645 29.0106C25.9994 28.3748 27.3113 27.2982 28.2343 25.9168C28.959 24.8323 29.4184 23.5981 29.5824 22.3138C29.657 21.7295 30.1276 21.25 30.7167 21.25H32.1833Z" fill="url(#paint0_linear_11229_18463)"/>
<path d="M32.0069 19.2935C32.5864 19.1881 32.9755 18.631 32.8191 18.063C32.2869 16.131 31.2775 14.3572 29.8766 12.9084C28.4757 11.4597 26.7367 10.3913 24.8237 9.79449C24.2613 9.61905 23.6915 9.98919 23.5666 10.5649L23.2559 11.9983C23.131 12.574 23.4999 13.1355 24.0552 13.3322C25.2746 13.7643 26.3826 14.474 27.2886 15.4109C28.1946 16.3478 28.8667 17.479 29.2575 18.7123C29.4355 19.2739 29.9843 19.6614 30.5639 19.556L32.0069 19.2935Z" fill="url(#paint1_linear_11229_18463)"/>
<path d="M19.5093 26.6075C19.2766 26.6075 19.1215 26.4135 19.1215 26.2196V19.8972C19.1215 19.7032 19.2766 19.5093 19.5093 19.5093H21.216C21.4099 19.5093 21.6039 19.7032 21.6039 19.8972V26.2196C21.6039 26.4135 21.4099 26.6075 21.216 26.6075H19.5093Z" fill="url(#paint2_linear_11229_18463)"/>
<path d="M22.496 26.6069C22.3021 26.6069 22.1082 26.413 22.1082 26.2191V20.7888C22.1082 20.5948 22.3021 20.4009 22.496 20.4009H24.2415C24.4354 20.4009 24.6294 20.5948 24.6294 20.7888V26.2191C24.6294 26.413 24.4354 26.6069 24.2415 26.6069H22.496Z" fill="url(#paint3_linear_11229_18463)"/>
<path d="M25.7155 16.3287V16.4063V16.4839L25.4052 17.6863C25.3664 17.8415 25.2113 17.9578 25.0173 17.9578C24.9785 17.9578 24.9397 17.9578 24.9009 17.9578C24.707 17.919 24.5906 17.6863 24.6294 17.4924L24.6682 17.3372L23.8149 17.9578C23.8537 18.0742 23.8537 18.1518 23.8537 18.2681C23.8537 18.8887 23.3494 19.4318 22.69 19.4318C22.0306 19.4318 21.5264 18.8887 21.5264 18.2681C21.5264 18.1518 21.5652 18.0354 21.5652 17.9578L20.7119 17.376C20.5179 17.5312 20.2852 17.5699 20.0525 17.5699C19.8973 17.5699 19.7422 17.5312 19.6258 17.4924L18.307 18.9663C18.3846 19.1215 18.4622 19.3154 18.4622 19.5093C18.4622 20.1687 17.9191 20.673 17.2985 20.673C16.6779 20.673 16.1349 20.1687 16.1349 19.5093C16.1349 18.8887 16.6779 18.3457 17.2985 18.3457C17.4537 18.3457 17.6088 18.3845 17.764 18.4233L19.0828 16.9493C19.0052 16.7942 18.9276 16.6003 18.9276 16.4063C18.9276 15.7857 19.4706 15.2427 20.0913 15.2427C20.7506 15.2427 21.2549 15.7857 21.2549 16.4063C21.2549 16.5227 21.2549 16.639 21.2161 16.7166L22.0694 17.3372C22.2634 17.2209 22.4961 17.1433 22.7288 17.1433C22.9616 17.1433 23.1943 17.2209 23.3882 17.3372L24.4743 16.5615L24.0476 16.4451C23.8537 16.4063 23.7373 16.1736 23.7761 15.9796C23.8537 15.7857 24.0476 15.6693 24.2416 15.7081L25.444 16.0572H25.4828C25.5216 16.0572 25.5216 16.096 25.5603 16.096C25.5991 16.096 25.5991 16.1348 25.6379 16.1348C25.6379 16.1348 25.6767 16.1348 25.6767 16.1736C25.6767 16.2124 25.7155 16.2124 25.7155 16.2512V16.3287Z" fill="url(#paint4_linear_11229_18463)"/>
<path d="M16.1349 26.2191V21.7585C16.1349 21.5645 16.3288 21.3706 16.5228 21.3706H18.2682C18.5009 21.3706 18.6561 21.5645 18.6561 21.7585V26.2191C18.6561 26.413 18.5009 26.607 18.2682 26.607H16.5616C16.3288 26.607 16.1349 26.4518 16.1349 26.2191Z" fill="url(#paint5_linear_11229_18463)"/>
</g>
</g>
<defs>
<filter id="filter0_d_11229_18463" x="0.716667" y="5.59286" width="41.0667" height="41.0667" filterUnits="userSpaceOnUse" color-interpolation-filters="sRGB">
<feFlood flood-opacity="0" result="BackgroundImageFix"/>
<feColorMatrix in="SourceAlpha" type="matrix" values="0 0 0 0 0 0 0 0 0 0 0 0 0 0 0 0 0 0 127 0" result="hardAlpha"/>
<feOffset dy="4.87619"/>
<feGaussianBlur stdDeviation="4.26667"/>
<feComposite in2="hardAlpha" operator="out"/>
<feColorMatrix type="matrix" values="0 0 0 0 0.0706443 0 0 0 0 0.623333 0 0 0 0 0.557011 0 0 0 0.45 0"/>
<feBlend mode="normal" in2="BackgroundImageFix" result="effect1_dropShadow_11229_18463"/>
<feBlend mode="normal" in="SourceGraphic" in2="effect1_dropShadow_11229_18463" result="shape"/>
</filter>
<linearGradient id="paint0_linear_11229_18463" x1="29.3077" y1="9.25" x2="29.3077" y2="33.25" gradientUnits="userSpaceOnUse">
<stop stop-color="#3FE4A8"/>
<stop offset="1" stop-color="#27AF51"/>
</linearGradient>
<linearGradient id="paint1_linear_11229_18463" x1="21.25" y1="33.25" x2="21.25" y2="9.25" gradientUnits="userSpaceOnUse">
<stop stop-color="#FCDBFF"/>
<stop offset="1" stop-color="white"/>
</linearGradient>
<linearGradient id="paint2_linear_11229_18463" x1="20.3627" y1="19.5093" x2="20.3627" y2="26.6075" gradientUnits="userSpaceOnUse">
<stop stop-color="#3FE4A8"/>
<stop offset="1" stop-color="#27AF51"/>
</linearGradient>
<linearGradient id="paint3_linear_11229_18463" x1="23.3688" y1="20.4009" x2="23.3688" y2="26.6069" gradientUnits="userSpaceOnUse">
<stop stop-color="#3FE4A8"/>
<stop offset="1" stop-color="#27AF51"/>
</linearGradient>
<linearGradient id="paint4_linear_11229_18463" x1="20.9252" y1="20.673" x2="20.9252" y2="15.2427" gradientUnits="userSpaceOnUse">
<stop stop-color="#FCDBFF"/>
<stop offset="1" stop-color="white"/>
</linearGradient>
<linearGradient id="paint5_linear_11229_18463" x1="17.3955" y1="21.3706" x2="17.3955" y2="26.607" gradientUnits="userSpaceOnUse">
<stop stop-color="#3FE4A8"/>
<stop offset="1" stop-color="#27AF51"/>
</linearGradient>
<clipPath id="clip0_11229_18463">
<path d="M0 21C0 14.4768 0 11.2152 1.06569 8.64243C2.4866 5.21204 5.21204 2.4866 8.64243 1.06569C11.2152 0 14.4768 0 21 0C27.5232 0 30.7848 0 33.3576 1.06569C36.788 2.4866 39.5134 5.21204 40.9343 8.64243C42 11.2152 42 14.4768 42 21C42 27.5232 42 30.7848 40.9343 33.3576C39.5134 36.788 36.788 39.5134 33.3576 40.9343C30.7848 42 27.5232 42 21 42C14.4768 42 11.2152 42 8.64243 40.9343C5.21204 39.5134 2.4866 36.788 1.06569 33.3576C0 30.7848 0 27.5232 0 21Z" fill="white"/>
</clipPath>
</defs>
</svg>
