<svg xmlns="http://www.w3.org/2000/svg" xmlns:xlink="http://www.w3.org/1999/xlink" viewBox="0 0 42 42"><defs><clipPath id="clip-path"><path d="M0,21c0-6.52,0-9.79,1.07-12.36A14,14,0,0,1,8.64,1.07C11.22,0,14.48,0,21,0s9.79,0,12.36,1.07a14,14,0,0,1,7.57,7.57C42,11.21,42,14.48,42,21s0,9.79-1.07,12.36a14,14,0,0,1-7.57,7.57C30.79,42,27.52,42,21,42s-9.78,0-12.36-1.07a14,14,0,0,1-7.57-7.57C0,30.79,0,27.52,0,21Z" fill="none"/></clipPath><linearGradient id="linear-gradient" x1="-235.5" y1="3169.48" x2="-235.5" y2="3192.16" gradientTransform="matrix(1, 0, 0, -1, 256.5, 3202.88)" gradientUnits="userSpaceOnUse"><stop offset="0" stop-color="#ff8d3a"/><stop offset="1" stop-color="#ffc581"/></linearGradient><linearGradient id="linear-gradient-2" x1="-235.5" y1="3182.43" x2="-235.5" y2="3187.25" gradientTransform="matrix(1, 0, 0, -1, 256.5, 3202.88)" gradientUnits="userSpaceOnUse"><stop offset="0" stop-color="#ffddbe"/><stop offset="1" stop-color="#fff1ff"/></linearGradient><linearGradient id="linear-gradient-3" x1="-235.52" y1="3174.01" x2="-235.52" y2="3190.84" xlink:href="#linear-gradient-2"/></defs><title>ic_thay_doi_han_muc_chuyen_tien</title><g id="Layer_2" data-name="Layer 2"><g id="Layer_1-2" data-name="Layer 1"><g clip-path="url(#clip-path)"><path d="M0,21c0-6.52,0-9.79,1.07-12.36A14,14,0,0,1,8.64,1.07C11.22,0,14.48,0,21,0s9.79,0,12.36,1.07a14,14,0,0,1,7.57,7.57C42,11.21,42,14.48,42,21s0,9.79-1.07,12.36a14,14,0,0,1-7.57,7.57C30.79,42,27.52,42,21,42s-9.78,0-12.36-1.07a14,14,0,0,1-7.57-7.57C0,30.79,0,27.52,0,21Z" fill="#eead70" fill-opacity="0.3"/><path d="M30.19,11.81A13,13,0,1,0,34,21,12.93,12.93,0,0,0,30.19,11.81Z" fill="url(#linear-gradient)"/><path d="M21.76,15.06H20.24v5.52h1.52Z" fill="url(#linear-gradient-2)"/><path d="M28.76,28.77h0l-.38.37a.21.21,0,0,1-.31,0l-2-2a.24.24,0,0,1,0-.35l.72-.72a.24.24,0,0,1,.35,0l.83.83a.26.26,0,0,0,.37,0,9.36,9.36,0,0,0,2-4.89.24.24,0,0,0-.24-.27H29a.25.25,0,0,1-.25-.25v-1a.25.25,0,0,1,.25-.25h1.17A.25.25,0,0,0,30.4,20a9.43,9.43,0,0,0-2-4.89.26.26,0,0,0-.37,0l-.82.83a.25.25,0,0,1-.36,0l-.72-.72a.24.24,0,0,1,0-.35l.83-.83a.25.25,0,0,0,0-.37,9.43,9.43,0,0,0-4.89-2,.25.25,0,0,0-.27.25V13a.25.25,0,0,1-.25.25h-1a.25.25,0,0,1-.25-.25V11.84a.25.25,0,0,0-.27-.25,9.46,9.46,0,0,0-4.89,2,.26.26,0,0,0,0,.37l.83.83a.24.24,0,0,1,0,.35l-.72.72a.24.24,0,0,1-.35,0L14,15.06a.26.26,0,0,0-.37,0,9.51,9.51,0,0,0-2,4.89.25.25,0,0,0,.25.27H13a.25.25,0,0,1,.25.25v1a.25.25,0,0,1-.25.25H11.83a.25.25,0,0,0-.25.27,9.44,9.44,0,0,0,2,4.89.26.26,0,0,0,.37,0l.83-.83a.24.24,0,0,1,.35,0l.72.72a.24.24,0,0,1,0,.35l-1.94,1.95a.25.25,0,0,1-.36,0l-.36-.36a11,11,0,1,1,15.55,0Z" fill="url(#linear-gradient-3)"/><path d="M21.89,28.45h-.16a1.69,1.69,0,0,1-.17.29,1.25,1.25,0,0,1-.27.23,1.21,1.21,0,0,1-.38.17,2,2,0,0,1-.53.06,2,2,0,0,1-.74-.14,1.7,1.7,0,0,1-.6-.43,2.12,2.12,0,0,1-.4-.69A3,3,0,0,1,18.5,27v-.15a2.67,2.67,0,0,1,.15-.93,2.14,2.14,0,0,1,.41-.69,1.87,1.87,0,0,1,.62-.43,1.93,1.93,0,0,1,.75-.15,1.51,1.51,0,0,1,.82.2,1.36,1.36,0,0,1,.48.55h.16v-1H20.53v-1h1.36V23H23v.42h.52v1H23v4.67H21.89Zm-1.15-.29a1.09,1.09,0,0,0,.82-.32,1.17,1.17,0,0,0,.33-.86v-.11a1.15,1.15,0,0,0-.33-.85,1.06,1.06,0,0,0-.82-.33,1.13,1.13,0,0,0-.83.32,1.17,1.17,0,0,0-.32.86V27a1.17,1.17,0,0,0,.32.86A1.13,1.13,0,0,0,20.74,28.16Z" fill="#fff"/><path d="M19,29.8h3.61v.72H19Z" fill="#fff"/></g></g></g></svg>