<svg width="42" height="42" viewBox="0 0 42 42" fill="none" xmlns="http://www.w3.org/2000/svg">
<g clip-path="url(#clip0_8801_46814)">
<path d="M0 21C0 14.4768 0 11.2152 1.06569 8.64243C2.4866 5.21204 5.21204 2.4866 8.64243 1.06569C11.2152 0 14.4768 0 21 0V0C27.5232 0 30.7848 0 33.3576 1.06569C36.788 2.4866 39.5134 5.21204 40.9343 8.64243C42 11.2152 42 14.4768 42 21V21C42 27.5232 42 30.7848 40.9343 33.3576C39.5134 36.788 36.788 39.5134 33.3576 40.9343C30.7848 42 27.5232 42 21 42V42C14.4768 42 11.2152 42 8.64243 40.9343C5.21204 39.5134 2.4866 36.788 1.06569 33.3576C0 30.7848 0 27.5232 0 21V21Z" fill="#167B5E" fill-opacity="0.3"/>
<g filter="url(#filter0_d_8801_46814)">
<path d="M18.225 28.73C24.055 30.31 30.035 26.87 31.615 21.04C33.195 15.21 29.755 9.23002 23.925 7.65002C18.095 6.07002 12.115 9.51002 10.535 15.34C8.955 21.17 12.395 27.15 18.225 28.73Z" fill="#167B5E" fill-opacity="0.3"/>
<path d="M21.955 20.3501H22.695C22.935 20.3501 23.165 20.4301 23.355 20.5801C23.775 20.5201 24.175 20.4101 24.525 20.2601C24.625 20.1101 24.715 19.9501 24.795 19.7801V18.1301C24.795 17.7601 24.935 17.4101 25.165 17.1501C24.825 15.1601 23.125 13.6401 21.075 13.6401C19.025 13.6401 17.335 15.1601 16.985 17.1501C17.215 17.4101 17.355 17.7601 17.355 18.1301V19.7801C18.035 21.1801 19.445 22.1401 21.075 22.1401C21.105 22.1401 21.125 22.1401 21.155 22.1401C20.995 21.9501 20.895 21.7101 20.895 21.4401C20.895 20.8401 21.375 20.3501 21.965 20.3501H21.955Z" fill="url(#paint0_linear_8801_46814)"/>
<path d="M15.425 20.9402H15.475C16.035 20.9402 16.485 20.5002 16.485 19.9602V18.0102C16.485 17.6302 16.255 17.3002 15.925 17.1402C16.065 14.5002 18.325 12.4002 21.085 12.4002C23.845 12.4002 26.095 14.5002 26.245 17.1402C25.915 17.3002 25.685 17.6302 25.685 18.0102V19.9602C25.685 20.0902 25.715 20.2102 25.755 20.3202C25.165 20.7302 24.315 21.0202 23.355 21.1002C23.245 20.9402 23.065 20.8302 22.845 20.8302H22.045C21.715 20.8302 21.445 21.0902 21.445 21.4102C21.445 21.7302 21.715 22.0002 22.045 22.0002H22.845C23.075 22.0002 23.275 21.8702 23.375 21.6802C24.495 21.5902 25.465 21.2602 26.145 20.7802C26.305 20.8802 26.485 20.9402 26.685 20.9402H26.735C27.295 20.9402 27.745 20.5002 27.745 19.9602V18.0102C27.745 17.6202 27.515 17.2902 27.175 17.1302C27.025 14.0002 24.355 11.4902 21.095 11.4902C17.835 11.4902 15.155 14.0002 15.015 17.1302C14.675 17.2902 14.445 17.6202 14.445 18.0102V19.9602C14.445 20.5002 14.895 20.9402 15.455 20.9402H15.425Z" fill="url(#paint1_linear_8801_46814)"/>
<path d="M28.525 25.1399C25.995 27.7599 22.155 28.9599 18.375 27.9399C16.495 27.4299 14.885 26.4299 13.635 25.1299C13.005 25.9699 12.645 26.9899 12.645 28.0499V29.7999C12.645 31.0499 13.975 31.1599 13.975 31.1599H28.185C28.185 31.1599 29.515 31.0599 29.515 29.7999V28.0499C29.515 26.9899 29.155 25.9799 28.525 25.1399Z" fill="url(#paint2_linear_8801_46814)"/>
<path d="M15.345 26.3801L8.705 33.0201C8.085 33.6401 7.085 33.6401 6.465 33.0201C5.845 32.4001 5.845 31.4001 6.465 30.7801L13.105 24.1401" fill="url(#paint3_linear_8801_46814)"/>
<path fill-rule="evenodd" clip-rule="evenodd" d="M18.665 27.11C23.585 28.44 28.665 25.52 29.995 20.6C31.325 15.68 28.405 10.6 23.485 9.27002C18.565 7.94002 13.485 10.86 12.155 15.78C10.825 20.7 13.745 25.78 18.665 27.11ZM31.615 21.04C30.035 26.87 24.055 30.31 18.225 28.73C12.395 27.15 8.955 21.17 10.535 15.34C12.115 9.51002 18.095 6.07002 23.925 7.65002C29.755 9.23002 33.195 15.21 31.615 21.04Z" fill="url(#paint4_linear_8801_46814)"/>
<path fill-rule="evenodd" clip-rule="evenodd" d="M24.625 22.8501H17.525C16.725 22.8501 15.955 23.0701 15.255 23.4401C16.235 24.5201 17.515 25.3501 19.025 25.7601C21.965 26.5601 24.975 25.5601 26.885 23.4401C26.195 23.0701 25.425 22.8501 24.615 22.8501H24.625Z" fill="url(#paint5_linear_8801_46814)"/>
</g>
</g>
<defs>
<filter id="filter0_d_8801_46814" x="-2" y="3.83754" width="41.9989" height="42.2192" filterUnits="userSpaceOnUse" color-interpolation-filters="sRGB">
<feFlood flood-opacity="0" result="BackgroundImageFix"/>
<feColorMatrix in="SourceAlpha" type="matrix" values="0 0 0 0 0 0 0 0 0 0 0 0 0 0 0 0 0 0 127 0" result="hardAlpha"/>
<feOffset dy="4.57143"/>
<feGaussianBlur stdDeviation="4"/>
<feComposite in2="hardAlpha" operator="out"/>
<feColorMatrix type="matrix" values="0 0 0 0 0.0706443 0 0 0 0 0.623333 0 0 0 0 0.557011 0 0 0 0.45 0"/>
<feBlend mode="normal" in2="BackgroundImageFix" result="effect1_dropShadow_8801_46814"/>
<feBlend mode="normal" in="SourceGraphic" in2="effect1_dropShadow_8801_46814" result="shape"/>
</filter>
<linearGradient id="paint0_linear_8801_46814" x1="21.075" y1="22.1401" x2="21.075" y2="13.6401" gradientUnits="userSpaceOnUse">
<stop stop-color="#D9D9D9"/>
<stop offset="0.5028" stop-color="#F2F2F2"/>
<stop offset="1" stop-color="white"/>
</linearGradient>
<linearGradient id="paint1_linear_8801_46814" x1="21.095" y1="22.0002" x2="21.095" y2="11.4902" gradientUnits="userSpaceOnUse">
<stop stop-color="#D9D9D9"/>
<stop offset="0.5028" stop-color="#F2F2F2"/>
<stop offset="1" stop-color="white"/>
</linearGradient>
<linearGradient id="paint2_linear_8801_46814" x1="21.08" y1="31.1599" x2="21.08" y2="25.1299" gradientUnits="userSpaceOnUse">
<stop stop-color="#D9D9D9"/>
<stop offset="0.5028" stop-color="#F2F2F2"/>
<stop offset="1" stop-color="white"/>
</linearGradient>
<linearGradient id="paint3_linear_8801_46814" x1="10.6725" y1="24.1401" x2="10.6725" y2="33.4851" gradientUnits="userSpaceOnUse">
<stop stop-color="#3FE4A8"/>
<stop offset="1" stop-color="#0D8732"/>
</linearGradient>
<linearGradient id="paint4_linear_8801_46814" x1="21.075" y1="7.26611" x2="21.075" y2="29.1139" gradientUnits="userSpaceOnUse">
<stop stop-color="#3FE4A8"/>
<stop offset="1" stop-color="#0D8732"/>
</linearGradient>
<linearGradient id="paint5_linear_8801_46814" x1="21.07" y1="26.0347" x2="21.07" y2="22.8501" gradientUnits="userSpaceOnUse">
<stop stop-color="#D9D9D9"/>
<stop offset="0.5028" stop-color="#F2F2F2"/>
<stop offset="1" stop-color="white"/>
</linearGradient>
<clipPath id="clip0_8801_46814">
<path d="M0 21C0 14.4768 0 11.2152 1.06569 8.64243C2.4866 5.21204 5.21204 2.4866 8.64243 1.06569C11.2152 0 14.4768 0 21 0V0C27.5232 0 30.7848 0 33.3576 1.06569C36.788 2.4866 39.5134 5.21204 40.9343 8.64243C42 11.2152 42 14.4768 42 21V21C42 27.5232 42 30.7848 40.9343 33.3576C39.5134 36.788 36.788 39.5134 33.3576 40.9343C30.7848 42 27.5232 42 21 42V42C14.4768 42 11.2152 42 8.64243 40.9343C5.21204 39.5134 2.4866 36.788 1.06569 33.3576C0 30.7848 0 27.5232 0 21V21Z" fill="white"/>
</clipPath>
</defs>
</svg>
