<svg xmlns="http://www.w3.org/2000/svg" xmlns:xlink="http://www.w3.org/1999/xlink" viewBox="0 0 42 42"><defs><mask id="mask" x="8.5" y="8" width="28" height="28" maskUnits="userSpaceOnUse"><g id="mask0_7805_30974" data-name="mask0 7805 30974"><path d="M8.5,8h28V36H8.5Z" fill="#fff"/></g></mask><linearGradient id="linear-gradient" x1="-235.88" y1="2618.43" x2="-235.88" y2="2642.93" gradientTransform="matrix(1, 0, 0, -1, 256.5, 2652.68)" gradientUnits="userSpaceOnUse"><stop offset="0" stop-color="#2f7beb"/><stop offset="1" stop-color="#75adff"/></linearGradient><linearGradient id="linear-gradient-2" x1="-224.35" y1="2618.43" x2="-224.35" y2="2629.48" gradientTransform="matrix(1, 0, 0, -1, 256.5, 2652.68)" gradientUnits="userSpaceOnUse"><stop offset="0" stop-color="#ffe3e1"/><stop offset="1" stop-color="#8a92d9"/></linearGradient></defs><title>tin-tuc</title><g id="Layer_2" data-name="Layer 2"><g id="Layer_1-2" data-name="Layer 1"><rect width="42" height="42" rx="14" fill="#337ee2" fill-opacity="0.3"/><g mask="url(#mask)"><path d="M31.91,34.25H12.6A3.28,3.28,0,0,1,9.32,31V12.09a2.34,2.34,0,0,1,2.34-2.34H26.29a2.34,2.34,0,0,1,2.34,2.34V31A3.28,3.28,0,0,0,31.91,34.25Z" fill="url(#linear-gradient)"/><path d="M34.21,23.21a1.47,1.47,0,0,1,1.47,1.47V31a3.28,3.28,0,0,1-3.28,3.28h-.49A3.27,3.27,0,0,1,28.63,31V23.21Z" fill="url(#linear-gradient-2)"/><path d="M12.88,13.69H25.13" fill="none" stroke="#e1fffb" stroke-linecap="round" stroke-linejoin="round" stroke-width="1.56"/><path d="M12.88,17.19H25.13" fill="none" stroke="#e1fffb" stroke-linecap="round" stroke-linejoin="round" stroke-width="1.64"/><path d="M19,27.44H12.78v-7H19Z" fill="#e1fffb" stroke="#e1fffb" stroke-linecap="round" stroke-linejoin="round" stroke-width="1.56"/><path d="M22.11,20.44h3.11" fill="none" stroke="#e1fffb" stroke-linecap="round" stroke-linejoin="round" stroke-width="1.56"/><path d="M22.11,23.94h3.11" fill="none" stroke="#e1fffb" stroke-linecap="round" stroke-linejoin="round" stroke-width="1.56"/><path d="M22.11,27.44h3.11" fill="none" stroke="#e1fffb" stroke-linecap="round" stroke-linejoin="round" stroke-width="1.56"/></g></g></g></svg>