<svg xmlns="http://www.w3.org/2000/svg" xmlns:xlink="http://www.w3.org/1999/xlink" viewBox="0 0 43 43"><defs><clipPath id="clip-path"><path d="M0,21.5C0,14.51,0,11,1.22,8.28A14,14,0,0,1,8.28,1.22C11,0,14.51,0,21.5,0S32,0,34.72,1.22a14,14,0,0,1,7.06,7.06C43,11,43,14.51,43,21.5S43,32,41.78,34.72a14,14,0,0,1-7.06,7.06C32,43,28.49,43,21.5,43S11,43,8.28,41.78a14,14,0,0,1-7.06-7.06C0,32,0,28.49,0,21.5Z" fill="none"/></clipPath><linearGradient id="linear-gradient" x1="-233.37" y1="2782.75" x2="-233.37" y2="2761.02" gradientTransform="matrix(1, 0, 0, -1, 256.5, 2792.68)" gradientUnits="userSpaceOnUse"><stop offset="0" stop-color="#28ffb0"/><stop offset="1" stop-color="#0f9980"/></linearGradient><linearGradient id="linear-gradient-2" x1="-239.64" y1="2775.91" x2="-227.64" y2="2775.91" gradientTransform="matrix(1, 0, 0, -1, 256.5, 2792.68)" gradientUnits="userSpaceOnUse"><stop offset="0" stop-color="#fff"/><stop offset="1" stop-color="#d8ffe2"/></linearGradient><linearGradient id="linear-gradient-3" x1="-239.64" y1="2772.91" x2="-229.64" y2="2772.91" xlink:href="#linear-gradient-2"/><linearGradient id="linear-gradient-4" x1="-239.64" y1="2778.91" x2="-225.64" y2="2778.91" xlink:href="#linear-gradient-2"/><linearGradient id="linear-gradient-5" x1="-253.07" y1="2760.28" x2="-242.62" y2="2771.62" xlink:href="#linear-gradient"/><linearGradient id="linear-gradient-6" x1="-260.82" y1="2782.54" x2="-238.15" y2="2772.98" xlink:href="#linear-gradient"/><linearGradient id="linear-gradient-7" x1="-244.25" y1="2764.46" x2="-222.25" y2="2816.24" gradientTransform="matrix(1, 0, 0, -1, 256.5, 2792.68)" gradientUnits="userSpaceOnUse"><stop offset="0" stop-color="#21ffc8"/><stop offset="1" stop-color="#0f9980"/></linearGradient><linearGradient id="linear-gradient-8" x1="-242.95" y1="2773.86" x2="-237.56" y2="2773.86" gradientTransform="matrix(1, 0, 0, -1, 256.5, 2792.68)" gradientUnits="userSpaceOnUse"><stop offset="0" stop-color="#b3ffc7"/><stop offset="1" stop-color="#fff"/></linearGradient><linearGradient id="linear-gradient-9" x1="-238.53" y1="2768.92" x2="-239.98" y2="2773.65" xlink:href="#linear-gradient"/></defs><title>ic_tra_cuu_cq</title><g id="Layer_2" data-name="Layer 2"><g id="Layer_1-2" data-name="Layer 1"><g clip-path="url(#clip-path)"><path d="M0,21.5C0,14.51,0,11,1.22,8.28A14,14,0,0,1,8.28,1.22C11,0,14.51,0,21.5,0S32,0,34.72,1.22a14,14,0,0,1,7.06,7.06C43,11,43,14.51,43,21.5S43,32,41.78,34.72a14,14,0,0,1-7.06,7.06C32,43,28.49,43,21.5,43S11,43,8.28,41.78a14,14,0,0,1-7.06-7.06C0,32,0,28.49,0,21.5Z" fill="#1ac795" fill-opacity="0.3"/><path d="M32.32,10.27A1.16,1.16,0,0,0,31,9H15.24A1.15,1.15,0,0,0,14,10.27V30.66a1.17,1.17,0,0,0,2,1c.61-.47,1.23-.93,1.86-1.39l1.83-1.37,2.58,2.58a1.18,1.18,0,0,0,1.93,0l2.58-2.59,3.69,2.77a1.2,1.2,0,0,0,1.29.19,1.16,1.16,0,0,0,.66-1.16Z" fill="url(#linear-gradient)"/><path d="M17.56,16.77h10.6" fill="none" stroke-linecap="round" stroke-width="1.4" stroke="url(#linear-gradient-2)"/><path d="M17.56,19.77h8.6" fill="none" stroke-linecap="round" stroke-width="1.4" stroke="url(#linear-gradient-3)"/><path d="M17.56,13.77h12.6" fill="none" stroke-linecap="round" stroke-width="1.4" stroke="url(#linear-gradient-4)"/><path d="M12.79,24.15,8,29a1.15,1.15,0,1,1-1.63-1.63l4.82-4.82" fill="url(#linear-gradient-5)"/><path d="M16.25,25.33a6.51,6.51,0,1,0-6.51-6.51A6.5,6.5,0,0,0,16.25,25.33Z" fill="url(#linear-gradient-6)"/><path d="M16.25,24.33a5.51,5.51,0,1,0-5.51-5.51A5.51,5.51,0,0,0,16.25,24.33Zm6.51-5.51a6.51,6.51,0,1,1-6.51-6.51A6.5,6.5,0,0,1,22.76,18.82Z" fill-rule="evenodd" fill="url(#linear-gradient-7)"/><path d="M18.51,16.65a4.85,4.85,0,0,1-2-.69.5.5,0,0,0-.5,0,4.57,4.57,0,0,1-.92.44,5.07,5.07,0,0,1-1.09.25.48.48,0,0,0-.43.48v1.44a3,3,0,0,0,1.53,2.6l.93.52a.49.49,0,0,0,.47,0l.93-.52A3,3,0,0,0,19,18.57V17.13a.48.48,0,0,0-.43-.48Z" fill="url(#linear-gradient-8)"/><path d="M16.05,19.71a.35.35,0,0,1-.22-.08l-.79-.7a.33.33,0,1,1,.44-.5l.55.49,1.09-1.17a.33.33,0,0,1,.49.45L16.3,19.6a.28.28,0,0,1-.24.1Z" fill="url(#linear-gradient-9)"/></g></g></g></svg>