<svg width="43" height="42" viewBox="0 0 43 42" fill="none" xmlns="http://www.w3.org/2000/svg">
<g clip-path="url(#clip0_10589_18952)">
<rect width="43" height="42" rx="14" fill="#EEAD70" fill-opacity="0.3"/>
<g filter="url(#filter0_d_10589_18952)">
<path d="M14.88 10H28.13C29.65 10 30.88 11.23 30.88 12.75V31H23.01H14.88C13.36 31 12.13 29.77 12.13 28.25V12.75C12.13 11.23 13.36 10 14.88 10Z" fill="url(#paint0_linear_10589_18952)"/>
<path d="M21.5734 13C22.6486 13 23.5234 13.8748 23.5234 14.95C23.5234 16.0252 22.6486 16.9 21.5734 16.9C20.4981 16.9 19.6234 16.0252 19.6234 14.95C19.6234 13.8748 20.4981 13 21.5734 13ZM24.3467 26H18.7134V24.7H19.6234V19.5H18.7567V18.2H23.5234V24.7H24.3467V26Z" fill="url(#paint1_linear_10589_18952)"/>
</g>
</g>
<defs>
<filter id="filter0_d_10589_18952" x="4.13" y="6" width="34.75" height="37" filterUnits="userSpaceOnUse" color-interpolation-filters="sRGB">
<feFlood flood-opacity="0" result="BackgroundImageFix"/>
<feColorMatrix in="SourceAlpha" type="matrix" values="0 0 0 0 0 0 0 0 0 0 0 0 0 0 0 0 0 0 127 0" result="hardAlpha"/>
<feOffset dy="4"/>
<feGaussianBlur stdDeviation="4"/>
<feComposite in2="hardAlpha" operator="out"/>
<feColorMatrix type="matrix" values="0 0 0 0 0.575 0 0 0 0 0.37375 0 0 0 0 0 0 0 0 0.1 0"/>
<feBlend mode="normal" in2="BackgroundImageFix" result="effect1_dropShadow_10589_18952"/>
<feBlend mode="normal" in="SourceGraphic" in2="effect1_dropShadow_10589_18952" result="shape"/>
</filter>
<linearGradient id="paint0_linear_10589_18952" x1="21.5552" y1="31" x2="21.5552" y2="5.24169" gradientUnits="userSpaceOnUse">
<stop stop-color="#FF8D3A"/>
<stop offset="1" stop-color="#FFC581"/>
</linearGradient>
<linearGradient id="paint1_linear_10589_18952" x1="21.53" y1="26" x2="21.53" y2="13" gradientUnits="userSpaceOnUse">
<stop stop-color="#FCDBFF"/>
<stop offset="1" stop-color="white"/>
</linearGradient>
<clipPath id="clip0_10589_18952">
<rect width="43" height="42" rx="14" fill="white"/>
</clipPath>
</defs>
</svg>
