<svg width="42" height="42" viewBox="0 0 42 42" fill="none" xmlns="http://www.w3.org/2000/svg">
<g clip-path="url(#clip0_10797_55991)">
<rect width="42" height="42" rx="14" fill="#FF79F4" fill-opacity="0.3"/>
<g filter="url(#filter1_d_10797_55991)">
<path d="M20.1141 18.4758H21.1264C21.4601 18.4758 21.7774 18.592 22.033 18.7988C22.6156 18.7189 23.1659 18.5639 23.6427 18.3528C23.7803 18.1443 23.8999 17.9228 24.0101 17.6958V15.429C24.0101 14.9165 24.1965 14.4391 24.5196 14.0754C24.0475 11.3332 21.7132 9.24854 18.8976 9.24854C16.0829 9.24854 13.748 11.3334 13.2759 14.0756C13.5988 14.4391 13.7854 14.9165 13.7854 15.429V17.6958C14.7216 19.6184 16.6563 20.9421 18.8973 20.9421C18.9322 20.9421 18.966 20.9375 19.0006 20.9367C18.7844 20.6752 18.6487 20.342 18.6487 19.9737C18.649 19.1478 19.3063 18.4758 20.1141 18.4758Z" fill="url(#paint0_linear_10797_55991)"/>
<path d="M11.4184 19.1258H11.4833C12.1959 19.1258 12.7741 18.5647 12.7741 17.8707V15.3669C12.7741 14.875 12.4816 14.4513 12.0559 14.2459C12.24 10.8579 15.1373 8.15698 18.6729 8.15698C22.2086 8.15698 25.107 10.8576 25.2905 14.2459C24.8648 14.451 24.5726 14.875 24.5726 15.3669V17.8707C24.5726 18.037 24.6061 18.1919 24.6645 18.337C23.9118 18.8586 22.8169 19.2311 21.5837 19.3342C21.4441 19.1283 21.2061 18.9906 20.9342 18.9906H19.9069C19.4788 18.9906 19.1326 19.3271 19.1326 19.741C19.1326 20.1555 19.4785 20.4925 19.9069 20.4925H20.9342C21.2334 20.4925 21.4885 20.327 21.6172 20.087C23.049 19.9774 24.2939 19.5531 25.1686 18.9257C25.3689 19.0517 25.6066 19.1256 25.8631 19.1256H25.9277C26.6411 19.1256 27.2182 18.5644 27.2182 17.8704V15.3667C27.2182 14.8679 26.917 14.4374 26.4824 14.2375C26.293 10.2171 22.863 7 18.6732 7C14.4835 7 11.0529 10.2171 10.8649 14.238C10.4297 14.4376 10.1277 14.8685 10.1277 15.3672V17.871C10.1277 18.5647 10.7065 19.1258 11.4184 19.1258Z" fill="url(#paint1_linear_10797_55991)"/>
<path d="M32.1889 24.394H28.4675C28.0916 24.394 27.7511 24.6097 27.6078 24.9394C27.4636 25.2699 27.5436 25.65 27.8097 25.9027L29.0126 27.0455L25.2112 30.6568L22.1475 27.7464C21.8433 27.4556 21.3651 27.4052 21.0004 27.62L11.2317 33.3649C10.7944 33.6221 10.6604 34.1665 10.9302 34.581C11.1061 34.8515 11.4103 34.9999 11.722 34.9999C11.8894 34.9999 12.0578 34.9575 12.2104 34.8674L21.3521 29.4911L24.5525 32.5314C24.9163 32.877 25.5043 32.877 25.868 32.5314L30.3282 28.2952L31.5311 29.438C31.7088 29.6068 31.947 29.697 32.1889 29.697C32.3089 29.697 32.4298 29.6749 32.5452 29.6298C32.8932 29.4928 33.1192 29.1702 33.1192 28.8132V25.2779C33.1192 24.79 32.7034 24.394 32.1889 24.394Z" fill="url(#paint2_linear_10797_55991)"/>
<path fill-rule="evenodd" clip-rule="evenodd" d="M14.4055 21.8433H22.9711C24.5878 21.9907 26.0468 22.6835 27.1627 23.7362C26.9184 23.933 26.7172 24.1885 26.5845 24.4931C26.2475 25.2657 26.4435 26.1449 27.0408 26.7123L27.3917 27.0456L25.2112 29.1171L22.9189 26.9395L22.9176 26.9381C22.243 26.2946 21.2177 26.1969 20.4345 26.6578L10.7513 32.3523C9.07784 32.0193 8 31.1455 8 28.869C8 25.191 10.8135 22.1714 14.4055 21.8433Z" fill="url(#paint3_linear_10797_55991)"/>
<g filter="url(#filter2_d_10797_55991)">
<path d="M34.3118 17.256C34.0433 17.0374 33.7243 16.8515 33.3538 16.6916C32.9846 16.5335 32.5804 16.3812 32.1425 16.2353C31.915 16.1629 31.7145 16.0913 31.5438 16.0289C31.3721 15.9638 31.2284 15.8954 31.1125 15.8248C30.9972 15.7511 30.9107 15.6725 30.8519 15.587C30.7945 15.5041 30.7661 15.4027 30.7661 15.2878C30.7661 15.1726 30.7922 15.0728 30.8457 14.9923C30.8998 14.913 30.9728 14.8483 31.0626 14.7974C31.1534 14.7479 31.2591 14.7125 31.3793 14.6874C31.4989 14.6653 31.6267 14.6554 31.7637 14.6554C31.8961 14.6554 32.0256 14.6739 32.1544 14.7142C32.2822 14.7528 32.4047 14.8034 32.5196 14.8621C32.6352 14.9222 32.7439 14.9893 32.8446 15.0642C32.9466 15.1372 33.0391 15.2102 33.1216 15.2812L33.1778 15.3294C33.2346 15.38 33.2878 15.4209 33.3353 15.4549C33.3832 15.4876 33.4357 15.5031 33.4932 15.5031C33.5628 15.5031 33.6338 15.4691 33.7042 15.3981L34.6536 14.3873C34.7064 14.3305 34.7467 14.2776 34.7732 14.233C34.8012 14.1865 34.8141 14.1389 34.8141 14.0834C34.8141 14.0309 34.786 13.9665 34.7306 13.8909C34.6741 13.8166 34.5991 13.7397 34.5034 13.6565C34.4089 13.5729 34.2983 13.488 34.1731 13.3995C34.0463 13.31 33.9132 13.2248 33.7722 13.1423C33.5529 13.0221 33.3327 12.9237 33.1127 12.8477C32.8911 12.7711 32.6649 12.7126 32.4328 12.6694V11.8392C32.4328 11.7563 32.3991 11.6916 32.3301 11.641C32.2627 11.5918 32.1973 11.5674 32.1369 11.5674H30.9698C30.879 11.5674 30.8113 11.5941 30.7657 11.647C30.7195 11.7015 30.6971 11.7642 30.6971 11.8392V12.7024C30.3374 12.7711 30.0138 12.8807 29.7268 13.0264C29.4402 13.174 29.1965 13.352 28.9983 13.563C28.7999 13.7737 28.6473 14.0151 28.5393 14.2822C28.432 14.5521 28.3785 14.8453 28.3785 15.1633C28.3785 15.5259 28.4399 15.8558 28.5644 16.152C28.6886 16.4476 28.8738 16.7171 29.1222 16.9638C29.3689 17.2095 29.6793 17.4324 30.0524 17.6325C30.4243 17.8353 30.8576 18.0215 31.3536 18.1936C31.4652 18.2322 31.5973 18.2784 31.7505 18.3329C31.9034 18.3891 32.0497 18.4564 32.191 18.5357C32.3304 18.6146 32.4499 18.7038 32.548 18.8055C32.6438 18.9062 32.6927 19.0218 32.6927 19.1489C32.6927 19.2652 32.6755 19.3745 32.6402 19.4778C32.6058 19.5812 32.547 19.672 32.4635 19.7513C32.3806 19.8279 32.2693 19.8933 32.1263 19.9402C31.984 19.9861 31.8066 20.0108 31.596 20.0108C31.3681 20.0108 31.1515 19.9719 30.9447 19.8933C30.7377 19.8137 30.5293 19.7054 30.3193 19.565C30.1776 19.4699 30.0538 19.3745 29.9445 19.2767C29.8335 19.1803 29.7443 19.1014 29.6737 19.0442C29.6162 18.994 29.5667 18.9567 29.5244 18.9333C29.4851 18.9065 29.4458 18.8937 29.4072 18.8937C29.3533 18.8937 29.2837 18.9244 29.1961 18.9878L28.1239 20.0112C28.0288 20.0984 27.9812 20.1766 27.9812 20.246C27.9812 20.3087 28.0288 20.3913 28.1239 20.495C28.1285 20.4989 28.1328 20.5009 28.1358 20.5049C28.14 20.5049 28.1437 20.5115 28.1486 20.5187C28.1529 20.5234 28.1579 20.527 28.1612 20.529C28.1651 20.531 28.1694 20.5376 28.1734 20.5432L28.1919 20.5637C28.2573 20.6323 28.3484 20.7265 28.4607 20.8411C28.576 20.9583 28.7153 21.0759 28.8804 21.1961C29.1532 21.3945 29.4428 21.5666 29.7483 21.7099C30.0541 21.8545 30.3698 21.9619 30.6971 22.0329V22.9381C30.6971 23.12 30.7872 23.2112 30.9698 23.2112H32.1369C32.3334 23.2112 32.4328 23.1203 32.4328 22.9381V22.05C32.8297 21.9817 33.1946 21.8621 33.5268 21.6941C33.8597 21.5289 34.148 21.3173 34.3927 21.0643C34.6361 20.8136 34.826 20.5254 34.9627 20.2017C35.0991 19.8748 35.1671 19.5208 35.1671 19.1318C35.1671 18.7021 35.0915 18.3359 34.9412 18.0344C34.7903 17.7325 34.58 17.473 34.3118 17.256Z" fill="white"/>
</g>
</g>
</g>
<defs>
<filter id="filter1_d_10797_55991" x="4.76837e-07" y="3.57143" width="43.1672" height="44" filterUnits="userSpaceOnUse" color-interpolation-filters="sRGB">
<feFlood flood-opacity="0" result="BackgroundImageFix"/>
<feColorMatrix in="SourceAlpha" type="matrix" values="0 0 0 0 0 0 0 0 0 0 0 0 0 0 0 0 0 0 127 0" result="hardAlpha"/>
<feOffset dy="4.57143"/>
<feGaussianBlur stdDeviation="4"/>
<feComposite in2="hardAlpha" operator="out"/>
<feColorMatrix type="matrix" values="0 0 0 0 0.390384 0 0 0 0 0.0548835 0 0 0 0 0.445 0 0 0 0.45 0"/>
<feBlend mode="normal" in2="BackgroundImageFix" result="effect1_dropShadow_10797_55991"/>
<feBlend mode="normal" in="SourceGraphic" in2="effect1_dropShadow_10797_55991" result="shape"/>
</filter>
<filter id="filter2_d_10797_55991" x="26.9812" y="11.5674" width="9.18604" height="13.6436" filterUnits="userSpaceOnUse" color-interpolation-filters="sRGB">
<feFlood flood-opacity="0" result="BackgroundImageFix"/>
<feColorMatrix in="SourceAlpha" type="matrix" values="0 0 0 0 0 0 0 0 0 0 0 0 0 0 0 0 0 0 127 0" result="hardAlpha"/>
<feOffset dy="1"/>
<feGaussianBlur stdDeviation="0.5"/>
<feComposite in2="hardAlpha" operator="out"/>
<feColorMatrix type="matrix" values="0 0 0 0 0 0 0 0 0 0 0 0 0 0 0 0 0 0 0.25 0"/>
<feBlend mode="normal" in2="BackgroundImageFix" result="effect1_dropShadow_10797_55991"/>
<feBlend mode="normal" in="SourceGraphic" in2="effect1_dropShadow_10797_55991" result="shape"/>
</filter>
<linearGradient id="paint0_linear_10797_55991" x1="18.8978" y1="20.9421" x2="18.8978" y2="9.24854" gradientUnits="userSpaceOnUse">
<stop stop-color="#FCDBFF"/>
<stop offset="1" stop-color="white"/>
</linearGradient>
<linearGradient id="paint1_linear_10797_55991" x1="18.6729" y1="20.4925" x2="18.6729" y2="7" gradientUnits="userSpaceOnUse">
<stop stop-color="#A93AFF"/>
<stop offset="1" stop-color="#FF81FF"/>
</linearGradient>
<linearGradient id="paint2_linear_10797_55991" x1="21.9551" y1="34.9999" x2="21.9551" y2="24.394" gradientUnits="userSpaceOnUse">
<stop stop-color="#FCDBFF"/>
<stop offset="1" stop-color="white"/>
</linearGradient>
<linearGradient id="paint3_linear_10797_55991" x1="17.6959" y1="32.3523" x2="17.6959" y2="21.8433" gradientUnits="userSpaceOnUse">
<stop stop-color="#A93AFF"/>
<stop offset="1" stop-color="#FF81FF"/>
</linearGradient>
<clipPath id="clip0_10797_55991">
<rect width="42" height="42" rx="14" fill="white"/>
</clipPath>
</defs>
</svg>
