<svg width="42" height="42" viewBox="0 0 42 42" fill="none" xmlns="http://www.w3.org/2000/svg">
<path d="M0 21C0 14.4768 0 11.2152 1.06569 8.64243C2.4866 5.21204 5.21204 2.4866 8.64243 1.06569C11.2152 0 14.4768 0 21 0C27.5232 0 30.7848 0 33.3576 1.06569C36.788 2.4866 39.5134 5.21204 40.9343 8.64243C42 11.2152 42 14.4768 42 21C42 27.5232 42 30.7848 40.9343 33.3576C39.5134 36.788 36.788 39.5134 33.3576 40.9343C30.7848 42 27.5232 42 21 42C14.4768 42 11.2152 42 8.64243 40.9343C5.21204 39.5134 2.4866 36.788 1.06569 33.3576C0 30.7848 0 27.5232 0 21Z" fill="#EEAD70" fill-opacity="0.3"/>
<path d="M26.9199 9.43021C24.7099 7.64021 21.8199 6.95021 18.9799 7.54021C15.2899 8.31021 12.3799 11.3402 11.7399 15.0702C11.0299 19.1802 13.0699 23.2202 16.7199 25.0902V30.4002C16.7199 32.7602 18.6399 34.6702 20.9899 34.6702C23.3399 34.6702 25.2599 32.7502 25.2599 30.4002V25.0902C28.3899 23.4902 30.3899 20.2702 30.3899 16.7302C30.3899 13.8902 29.1199 11.2302 26.9099 9.43021H26.9199Z" fill="url(#paint0_linear_10797_56003)"/>
<path d="M9.79992 21.0104L8.24992 21.7304C7.81992 21.9304 7.63992 22.4404 7.83992 22.8704C8.03992 23.2904 8.53992 23.4804 8.97992 23.2804L10.5299 22.5604C10.9599 22.3604 11.1399 21.8504 10.9399 21.4204C10.7399 20.9904 10.2299 20.8104 9.79992 21.0104ZM32.1999 12.4404L33.7499 11.7204C34.1799 11.5204 34.3599 11.0104 34.1599 10.5804C33.9599 10.1504 33.4499 9.97036 33.0199 10.1704L31.4699 10.8904C31.0399 11.0904 30.8599 11.6004 31.0599 12.0304C31.2599 12.4504 31.7599 12.6404 32.1999 12.4404ZM10.5199 10.9004L8.96992 10.1804C8.53992 9.98036 8.02992 10.1704 7.82992 10.5904C7.62992 11.0204 7.81992 11.5304 8.23992 11.7304L9.78992 12.4504C10.2199 12.6504 10.7299 12.4604 10.9299 12.0404C11.1299 11.6104 10.9399 11.1004 10.5199 10.9004ZM33.7499 21.7304L32.1999 21.0104C31.7699 20.8104 31.2599 21.0004 31.0599 21.4204C30.8599 21.8504 31.0499 22.3604 31.4699 22.5604L33.0199 23.2804C33.4499 23.4804 33.9599 23.2904 34.1599 22.8704C34.3599 22.4404 34.1699 21.9304 33.7499 21.7304ZM24.4199 14.1604C23.0099 14.1604 21.8599 15.3104 21.8599 16.7204V17.5704H20.1499V16.7204C20.1499 15.3104 18.9999 14.1604 17.5899 14.1604C16.1799 14.1604 15.0299 15.3104 15.0299 16.7204C15.0299 18.1304 16.1799 19.2804 17.5899 19.2804H18.4399V21.8404C18.4399 22.3104 18.8199 22.6904 19.2899 22.6904C19.7599 22.6904 20.1399 22.3104 20.1399 21.8404V19.2804H21.8499V21.8404C21.8499 22.3104 22.2299 22.6904 22.6999 22.6904C23.1699 22.6904 23.5499 22.3104 23.5499 21.8404V19.2804H24.3999C25.8099 19.2804 26.9599 18.1304 26.9599 16.7204C26.9599 15.3104 25.8099 14.1604 24.3999 14.1604H24.4199ZM18.4399 17.5804H17.5899C17.1199 17.5804 16.7399 17.2004 16.7399 16.7304C16.7399 16.2604 17.1199 15.8804 17.5899 15.8804C18.0599 15.8804 18.4399 16.2604 18.4399 16.7304V17.5804ZM24.4199 17.5804H23.5699V16.7304C23.5699 16.2604 23.9499 15.8804 24.4199 15.8804C24.8899 15.8804 25.2699 16.2604 25.2699 16.7304C25.2699 17.2004 24.8899 17.5804 24.4199 17.5804ZM26.1299 27.8304H15.8799C15.4099 27.8304 15.0299 28.2104 15.0299 28.6804C15.0299 29.1504 15.4099 29.5304 15.8799 29.5304H26.1299C26.5999 29.5304 26.9799 29.1504 26.9799 28.6804C26.9799 28.2104 26.5999 27.8304 26.1299 27.8304ZM9.82992 16.7304C9.82992 16.2604 9.44992 15.8804 8.97992 15.8804H7.26992C6.79992 15.8804 6.41992 16.2604 6.41992 16.7304C6.41992 17.2004 6.79992 17.5804 7.26992 17.5804H8.97992C9.44992 17.5804 9.82992 17.2004 9.82992 16.7304ZM34.7299 15.8704H33.0199C32.5499 15.8704 32.1699 16.2504 32.1699 16.7204C32.1699 17.1904 32.5499 17.5704 33.0199 17.5704H34.7299C35.1999 17.5704 35.5799 17.1904 35.5799 16.7204C35.5799 16.2504 35.1999 15.8704 34.7299 15.8704Z" fill="url(#paint1_linear_10797_56003)"/>
<defs>
<linearGradient id="paint0_linear_10797_56003" x1="11.5999" y1="21.0002" x2="30.3999" y2="21.0002" gradientUnits="userSpaceOnUse">
<stop stop-color="#FE984E"/>
<stop offset="1" stop-color="#FB7D40"/>
</linearGradient>
<linearGradient id="paint1_linear_10797_56003" x1="20.9999" y1="29.5404" x2="20.9999" y2="10.0904" gradientUnits="userSpaceOnUse">
<stop stop-color="#FFDDBE"/>
<stop offset="1" stop-color="#FFF1FF"/>
</linearGradient>
</defs>
</svg>
