<svg width="42" height="42" viewBox="0 0 42 42" fill="none" xmlns="http://www.w3.org/2000/svg">
<rect width="42" height="42" rx="14" fill="#959595" fill-opacity="0.12"/>
<path d="M13.1268 33.0914H12.6893V33.5289V35.0164L7.25396 31.068L12.6893 27.1195V28.607V29.0445H13.1268H14.4575C16.0309 30.5558 18.1543 31.5055 20.5096 31.5055C23.1129 31.5055 25.4524 30.3439 27.0352 28.516C26.0715 31.1789 23.5098 33.0914 20.5096 33.0914H13.1268Z" stroke="#838383" stroke-width="0.875"/>
<path d="M28.6252 8.90859H29.0627V8.47109V6.98358L34.498 10.932L29.0627 14.8805V13.393V12.9555H28.6252H27.2945C25.7211 11.4442 23.5977 10.4945 21.2424 10.4945C18.6391 10.4945 16.2996 11.6561 14.7167 13.484C15.6805 10.8211 18.2421 8.90859 21.2424 8.90859H28.6252Z" stroke="#838383" stroke-width="0.875"/>
<path d="M9.9375 21C9.9375 14.9695 14.8445 10.0625 20.875 10.0625C26.9055 10.0625 31.8125 14.9695 31.8125 21C31.8125 27.0305 26.9055 31.9375 20.875 31.9375C14.8445 31.9375 9.9375 27.0305 9.9375 21Z" fill="#838383" stroke="#838383" stroke-width="0.875"/>
<path d="M22.7503 23.1361V22.6986H22.3128H22.0968H22.0668C22.1064 22.6641 22.145 22.6277 22.1824 22.5892C22.5699 22.1912 22.7503 21.6796 22.7503 21.0961V20.9521C22.7503 20.3709 22.5711 19.862 22.1823 19.4709C22.1415 19.4281 22.0993 19.3876 22.0558 19.3496H22.0968H22.3128H22.7503V18.9121V17.5441V17.1066H22.3128H20.8783V16.6136H22.3128H22.7503V16.1761V16.0376H23.3873V16.1761V16.6136H23.8248H24.1073V17.1066H23.8248H23.3873V17.5441V23.5626H22.7503V23.1361ZM21.7061 19.1091C21.4165 18.9562 21.0871 18.8826 20.7288 18.8826C20.1569 18.8826 19.6563 19.0659 19.2675 19.4547C18.8788 19.8434 18.7073 20.3613 18.7073 20.9521V21.0961C18.7073 21.6874 18.879 22.2062 19.2632 22.6012L19.2631 22.6013L19.2717 22.6097C19.6612 22.9886 20.1605 23.1656 20.7288 23.1656C21.0853 23.1656 21.4136 23.0943 21.703 22.9454L21.701 22.9498C21.6504 23.0572 21.5861 23.1639 21.5068 23.2696L21.5068 23.2696L21.504 23.2734C21.4544 23.341 21.3782 23.4135 21.2632 23.4862L21.2631 23.4861L21.2541 23.4921C21.158 23.5562 21.028 23.6151 20.8551 23.6616L20.8551 23.6616L20.8508 23.6628C20.7008 23.7048 20.4991 23.7306 20.2368 23.7306C19.9231 23.7306 19.6367 23.6767 19.3735 23.5724C19.1223 23.4619 18.8986 23.3037 18.7008 23.094C18.5124 22.8781 18.3564 22.6104 18.2377 22.2832C18.129 21.9624 18.0703 21.5809 18.0703 21.1321V20.9161C18.0703 20.4787 18.1321 20.1037 18.2469 19.7847C18.3733 19.4558 18.5367 19.1917 18.7318 18.9835C18.9395 18.7624 19.1731 18.5987 19.4342 18.4875C19.7078 18.3743 19.9942 18.3176 20.2968 18.3176C20.7266 18.3176 21.0125 18.4008 21.1965 18.5217L21.1965 18.5218L21.204 18.5265C21.4079 18.6547 21.5755 18.8414 21.7036 19.1039L21.7061 19.1091Z" stroke="#D8D8D8" stroke-width="0.875"/>
<path d="M18.8125 25.4375H22.9375V25.5625H18.8125V25.4375Z" stroke="#D8D8D8" stroke-width="0.875"/>
</svg>
