<svg width="42" height="42" viewBox="0 0 42 42" fill="none" xmlns="http://www.w3.org/2000/svg">
<path d="M13.7852 10.4401H29.5848C29.9487 10.4401 30.37 10.8125 30.37 11.4401V31.3101C30.37 31.9376 29.9487 32.3101 29.5848 32.3101H13.7852C13.4213 32.3101 13 31.9376 13 31.3101V11.4401C13 10.8125 13.4213 10.4401 13.7852 10.4401Z" stroke="#636363"/>
<path d="M31 25H23V32H31V25Z" fill="#BFBFBF"/>
<path d="M29.0898 28.2603C28.7298 28.2603 28.5898 28.6503 28.5898 29.1603C28.5898 29.6903 28.7498 30.0503 29.0898 30.0503C29.3998 30.0503 29.5598 29.7403 29.5598 29.1603C29.5598 28.6403 29.4198 28.2603 29.0798 28.2603H29.0898Z" fill="#636363"/>
<path d="M24.9199 25.9502C24.5599 25.9502 24.4199 26.3402 24.4199 26.8402C24.4199 27.3702 24.5899 27.7302 24.9199 27.7302C25.2299 27.7302 25.3899 27.4202 25.3899 26.8402C25.3899 26.3302 25.2599 25.9502 24.9099 25.9502H24.9199Z" fill="#636363"/>
<path d="M27 22C23.69 22 21 24.69 21 28C21 31.31 23.69 34 27 34C30.31 34 33 31.31 33 28C33 24.69 30.31 22 27 22ZM23.3 26.87C23.3 25.93 23.91 25.13 24.94 25.13C25.97 25.13 26.53 25.87 26.53 26.77C26.53 27.92 25.74 28.55 24.9 28.55C23.99 28.55 23.3 27.88 23.3 26.88V26.87ZM25.81 30.87H25.02L28.18 25.13H28.97L25.81 30.87ZM29.07 30.87C28.16 30.87 27.47 30.2 27.47 29.19C27.47 28.25 28.08 27.45 29.11 27.45C30.14 27.45 30.7 28.19 30.7 29.1C30.7 30.25 29.91 30.88 29.07 30.88V30.87Z" fill="#636363"/>
<path d="M19.52 8.5801C19.52 7.7601 20.18 7.1001 21 7.1001H22.29C23.11 7.1001 23.77 7.7601 23.77 8.5801V9.9201H19.52V8.5801Z" fill="#636363"/>
<path d="M28 14H16" stroke="#636363" stroke-linecap="round" stroke-linejoin="round"/>
<path d="M25 16H16" stroke="#636363" stroke-linecap="round" stroke-linejoin="round"/>
<g filter="url(#filter0_d_9642_103134)">
<path d="M22 18H16" stroke="#636363" stroke-linecap="round" stroke-linejoin="round"/>
</g>
<defs>
<filter id="filter0_d_9642_103134" x="7.5" y="14.5" width="23" height="17" filterUnits="userSpaceOnUse" color-interpolation-filters="sRGB">
<feFlood flood-opacity="0" result="BackgroundImageFix"/>
<feColorMatrix in="SourceAlpha" type="matrix" values="0 0 0 0 0 0 0 0 0 0 0 0 0 0 0 0 0 0 127 0" result="hardAlpha"/>
<feOffset dy="5"/>
<feGaussianBlur stdDeviation="4"/>
<feComposite in2="hardAlpha" operator="out"/>
<feColorMatrix type="matrix" values="0 0 0 0 0 0 0 0 0 0 0 0 0 0 0 0 0 0 0.45 0"/>
<feBlend mode="normal" in2="BackgroundImageFix" result="effect1_dropShadow_9642_103134"/>
<feBlend mode="normal" in="SourceGraphic" in2="effect1_dropShadow_9642_103134" result="shape"/>
</filter>
</defs>
</svg>
