<svg width="42" height="42" viewBox="0 0 42 42" fill="none" xmlns="http://www.w3.org/2000/svg">
<g clip-path="url(#clip0_9642_103346)">
<mask id="mask0_9642_103346" style="mask-type:luminance" maskUnits="userSpaceOnUse" x="0" y="0" width="42" height="42">
<path d="M42 0H0V42H42V0Z" fill="white"/>
</mask>
<g mask="url(#mask0_9642_103346)">
<path d="M13.2852 10.2902H29.0848C29.4487 10.2902 29.87 10.6626 29.87 11.2902V31.1602C29.87 31.7877 29.4487 32.1602 29.0848 32.1602H13.2852C12.9213 32.1602 12.5 31.7877 12.5 31.1602V11.2902C12.5 10.6626 12.9213 10.2902 13.2852 10.2902Z" stroke="#636363"/>
<path d="M32 25H22V30H32V25Z" fill="#BFBFBF"/>
<path d="M25.3641 27.1304H25.6766C25.9793 27.1304 26.159 27.2866 26.159 27.5796V27.5835C26.159 27.8765 25.9793 28.0347 25.6766 28.0347H25.3641V27.1304Z" fill="#636363"/>
<path fill-rule="evenodd" clip-rule="evenodd" d="M27 22C23.6863 22 21 24.6863 21 28C21 31.3137 23.6863 34 27 34C30.3137 34 33 31.3137 33 28C33 24.6863 30.3137 22 27 22ZM22.4129 26.5815V29.3999H23.1297V28.3491H24.2215V27.8003H23.1297V27.1577H24.3309V26.5815H22.4129ZM24.6473 26.5815V29.3999H25.3641V28.5737H25.8484C26.4773 28.5737 26.8836 28.187 26.8836 27.5835V27.5796C26.8836 26.9761 26.4773 26.5815 25.8484 26.5815H24.6473ZM27.8562 27.1577V29.3999H28.5711V27.1577H29.3484V26.5815H27.0789V27.1577H27.8562ZM29.5613 28.6011C29.5926 29.1401 30.0359 29.4507 30.7371 29.4507C31.4832 29.4507 31.9246 29.0933 31.9246 28.5308V28.5288C31.9246 28.0776 31.6473 27.8354 31.0496 27.7202L30.7605 27.6655C30.4578 27.6089 30.325 27.5288 30.325 27.3765V27.3745C30.325 27.2124 30.4734 27.0933 30.7371 27.0933C30.9949 27.0933 31.1766 27.2085 31.198 27.394L31.2 27.4155H31.866L31.8641 27.3745C31.8387 26.8628 31.4383 26.5308 30.7312 26.5308C30.0848 26.5308 29.6141 26.8804 29.6141 27.4233V27.4253C29.6141 27.8569 29.909 28.1323 30.4676 28.2358L30.7566 28.2905C31.0867 28.355 31.2117 28.4292 31.2117 28.5894V28.5913C31.2117 28.7671 31.0359 28.8882 30.7508 28.8882C30.4754 28.8882 30.2645 28.769 30.2293 28.5874L30.2254 28.5659H29.5594L29.5613 28.6011Z" fill="#636363"/>
<path d="M18.9 8.4302C18.9 7.6102 19.56 6.9502 20.38 6.9502H21.67C22.49 6.9502 23.15 7.6102 23.15 8.4302V9.7702H18.9V8.4302Z" fill="#636363" stroke="#636363" stroke-width="0.04"/>
<path d="M27 14H15" stroke="#636363" stroke-linecap="round" stroke-linejoin="round"/>
<path d="M24 16H15" stroke="#636363" stroke-linecap="round" stroke-linejoin="round"/>
<g filter="url(#filter0_d_9642_103346)">
<path d="M21 18H15" stroke="#636363" stroke-linecap="round" stroke-linejoin="round"/>
</g>
</g>
</g>
<defs>
<filter id="filter0_d_9642_103346" x="6.5" y="14.5" width="23" height="17" filterUnits="userSpaceOnUse" color-interpolation-filters="sRGB">
<feFlood flood-opacity="0" result="BackgroundImageFix"/>
<feColorMatrix in="SourceAlpha" type="matrix" values="0 0 0 0 0 0 0 0 0 0 0 0 0 0 0 0 0 0 127 0" result="hardAlpha"/>
<feOffset dy="5"/>
<feGaussianBlur stdDeviation="4"/>
<feComposite in2="hardAlpha" operator="out"/>
<feColorMatrix type="matrix" values="0 0 0 0 0 0 0 0 0 0 0 0 0 0 0 0 0 0 0.45 0"/>
<feBlend mode="normal" in2="BackgroundImageFix" result="effect1_dropShadow_9642_103346"/>
<feBlend mode="normal" in="SourceGraphic" in2="effect1_dropShadow_9642_103346" result="shape"/>
</filter>
<clipPath id="clip0_9642_103346">
<path d="M0 21C0 14.4768 0 11.2152 1.06569 8.64243C2.4866 5.21204 5.21204 2.4866 8.64243 1.06569C11.2152 0 14.4768 0 21 0V0C27.5232 0 30.7848 0 33.3576 1.06569C36.788 2.4866 39.5134 5.21204 40.9343 8.64243C42 11.2152 42 14.4768 42 21V21C42 27.5232 42 30.7848 40.9343 33.3576C39.5134 36.788 36.788 39.5134 33.3576 40.9343C30.7848 42 27.5232 42 21 42V42C14.4768 42 11.2152 42 8.64243 40.9343C5.21204 39.5134 2.4866 36.788 1.06569 33.3576C0 30.7848 0 27.5232 0 21V21Z" fill="white"/>
</clipPath>
</defs>
</svg>
