<svg width="42" height="42" viewBox="0 0 42 42" fill="none" xmlns="http://www.w3.org/2000/svg">
<path d="M28.4514 13.6011H23.9925H18.0075H13.6111C13.3662 13.6011 13.1312 13.6933 12.958 13.8574C12.7848 14.0215 12.6875 14.244 12.6875 14.4761C12.6875 14.7081 12.7848 14.9307 12.958 15.0948C13.1312 15.2589 13.3662 15.3511 13.6111 15.3511H29.375V14.4761C29.375 14.244 29.2777 14.0215 29.1045 13.8574C28.9313 13.6933 28.6963 13.6011 28.4514 13.6011Z" fill="#636363"/>
<path d="M30.1677 12.749C30.6072 13.1885 30.8542 13.7846 30.8542 14.4063C30.8542 15.3101 31.464 16.0107 31.9806 16.4791C32.1049 16.5918 32.2174 16.7181 32.3158 16.8563C32.5951 17.2488 32.7467 17.7178 32.75 18.1995V20.0938V21.625V23.375V24.25V25.125V25.5625V25.7813V27.6771C32.75 28.2987 32.5031 28.8948 32.0635 29.3344C31.624 29.7739 31.0279 30.0208 30.4062 30.0208H13.3438C12.7221 30.0208 12.126 29.7739 11.6865 29.3344C11.2469 28.8948 11 28.2987 11 27.6771V14.4063C11 13.7846 11.2469 13.1885 11.6865 12.749C12.126 12.3094 12.7221 12.0625 13.3438 12.0625H15.96H25.8942H28.5104C29.132 12.0625 29.7282 12.3094 30.1677 12.749Z" stroke="#636363"/>
<path d="M33.25 19L34.125 19.875H33.25V19Z" fill="#636363"/>
<path fill-rule="evenodd" clip-rule="evenodd" d="M34.125 19.875C34.125 19.875 33.6734 19.875 33.25 19.875C32.8907 19.875 32.5517 19.875 32.526 19.875L32.512 19.875L30.0448 19.875C28.2356 19.875 26.6875 21.2991 26.6875 23.1563C26.6875 25.0134 28.2356 26.4375 30.0448 26.4375L32.512 26.4375L32.526 26.4375C32.582 26.4375 32.636 26.4376 32.6856 26.4344C33.4204 26.388 34.0704 25.813 34.125 25.0097C34.1286 24.957 34.1286 24.9003 34.1285 24.8476L34.1285 24.8334V21.4792L34.1285 21.4649C34.1286 21.4123 34.125 21.3028 34.125 21.3028V19.875ZM29.8501 24.0313C30.3159 24.0313 30.6935 23.6395 30.6935 23.1563C30.6935 22.673 30.3159 22.2813 29.8501 22.2813C29.3844 22.2813 29.0068 22.673 29.0068 23.1563C29.0068 23.6395 29.3844 24.0313 29.8501 24.0313Z" fill="#636363"/>
<path d="M21.9234 23.5693H21.7705C21.7234 23.6634 21.6646 23.7693 21.594 23.8634C21.5235 23.9457 21.4411 24.0281 21.3352 24.0987C21.2293 24.1693 21.0999 24.2281 20.947 24.2634C20.7941 24.2987 20.6176 24.3222 20.4058 24.3222C20.1353 24.3222 19.8882 24.2751 19.6529 24.181C19.4294 24.0869 19.2176 23.934 19.0412 23.7457C18.8765 23.5575 18.7353 23.3222 18.6412 23.0399C18.5471 22.7693 18.5 22.4517 18.5 22.087V21.934C18.5 21.5811 18.5471 21.2634 18.6529 20.9929C18.7588 20.7223 18.9 20.487 19.0765 20.2988C19.2529 20.1105 19.4647 19.9576 19.7 19.8635C19.9353 19.7694 20.1941 19.7105 20.4529 19.7105C20.8058 19.7105 21.0882 19.7811 21.2882 19.9105C21.4882 20.0399 21.6529 20.2282 21.7705 20.4635H21.9234V19.4635H20.547V18.4635H21.9234V18.04H23.0293V18.4635H23.5587V19.4635H23.0293V24.2045H21.9234V23.5693ZM20.7588 23.2752C21.0999 23.2752 21.3823 23.1693 21.594 22.9458C21.8058 22.7222 21.9234 22.4281 21.9234 22.0752V21.9693C21.9234 21.6164 21.8176 21.3223 21.594 21.1105C21.3823 20.887 21.0999 20.7811 20.7588 20.7811C20.4176 20.7811 20.1353 20.887 19.9117 21.1105C19.6882 21.334 19.5941 21.6164 19.5941 21.9811V22.087C19.5941 22.4517 19.7 22.7458 19.9117 22.9693C20.1235 23.181 20.4058 23.2869 20.7588 23.2869V23.2752Z" fill="#636363"/>
<path d="M22.6998 25.3108H19.0293V26.0402H22.6998V25.3108Z" fill="#636363"/>
</svg>
