<svg width="42" height="42" viewBox="0 0 42 42" fill="none" xmlns="http://www.w3.org/2000/svg">
<rect x="10.5" y="10.3593" width="20.4439" height="21.8736" rx="1.5" stroke="#636363"/>
<path d="M27 14.0038H15" stroke="#636363" stroke-linecap="round" stroke-linejoin="round"/>
<path d="M24 16.0038H15" stroke="#636363" stroke-linecap="round" stroke-linejoin="round"/>
<g filter="url(#filter0_d_9642_102939)">
<path d="M21 18.0038H15" stroke="#636363" stroke-linecap="round" stroke-linejoin="round"/>
</g>
<rect x="26.6655" y="24.664" width="5" height="9" fill="#BFBFBF"/>
<path d="M28 23C24.6915 23 22 25.6915 22 29C22 32.3085 24.6915 35 28 35C31.3085 35 34 32.3085 34 29C34 25.6915 31.3085 23 28 23ZM30.8535 32.1035C30.756 32.201 30.628 32.25 30.5 32.25C30.372 32.25 30.2439 32.201 30.1465 32.1035L27.6465 29.6035C27.5525 29.51 27.5 29.383 27.5 29.25V26C27.5 25.7235 27.724 25.5 28 25.5C28.276 25.5 28.5 25.7235 28.5 26V29.043L30.8535 31.3965C31.049 31.592 31.049 31.908 30.8535 32.1035Z" fill="#636363"/>
<path d="M19 8.49994C19 7.67151 19.6716 6.99994 20.5 6.99994H21.7888C22.6172 6.99994 23.2888 7.67151 23.2888 8.49994V9.85913H19V8.49994Z" fill="#636363"/>
<defs>
<filter id="filter0_d_9642_102939" x="6.5" y="14.5038" width="23" height="17" filterUnits="userSpaceOnUse" color-interpolation-filters="sRGB">
<feFlood flood-opacity="0" result="BackgroundImageFix"/>
<feColorMatrix in="SourceAlpha" type="matrix" values="0 0 0 0 0 0 0 0 0 0 0 0 0 0 0 0 0 0 127 0" result="hardAlpha"/>
<feOffset dy="5"/>
<feGaussianBlur stdDeviation="4"/>
<feComposite in2="hardAlpha" operator="out"/>
<feColorMatrix type="matrix" values="0 0 0 0 0 0 0 0 0 0 0 0 0 0 0 0 0 0 0.45 0"/>
<feBlend mode="normal" in2="BackgroundImageFix" result="effect1_dropShadow_9642_102939"/>
<feBlend mode="normal" in="SourceGraphic" in2="effect1_dropShadow_9642_102939" result="shape"/>
</filter>
</defs>
</svg>
