<svg width="43" height="43" viewBox="0 0 43 43" fill="none" xmlns="http://www.w3.org/2000/svg">
<path d="M13.2852 10.2899H29.0848C29.4487 10.2899 29.87 10.6624 29.87 11.2899V31.1599C29.87 31.7875 29.4487 32.1599 29.0848 32.1599H13.2852C12.9213 32.1599 12.5 31.7875 12.5 31.1599V11.2899C12.5 10.6624 12.9213 10.2899 13.2852 10.2899Z" stroke="#636363"/>
<path d="M30 24H23V32H30V24Z" fill="#BFBFBF"/>
<path d="M18.9 8.42995C18.9 7.60995 19.56 6.94995 20.38 6.94995H21.67C22.49 6.94995 23.15 7.60995 23.15 8.42995V9.76995H18.9V8.42995Z" fill="#636363" stroke="#636363" stroke-width="0.04"/>
<path d="M27 13.9998H15" stroke="#636363" stroke-linecap="round" stroke-linejoin="round"/>
<path d="M24 15.9998H15" stroke="#636363" stroke-linecap="round" stroke-linejoin="round"/>
<g filter="url(#filter0_d_9642_103325)">
<path d="M21 17.9998H15" stroke="#636363" stroke-linecap="round" stroke-linejoin="round"/>
</g>
<path fill-rule="evenodd" clip-rule="evenodd" d="M33 28C33 31.3137 30.3137 34 27 34C23.6863 34 21 31.3137 21 28C21 24.6863 23.6863 22 27 22C30.3137 22 33 24.6863 33 28ZM27.5676 29.147H27.4529C27.4176 29.2175 27.3735 29.2969 27.3205 29.3675C27.2676 29.4293 27.2058 29.4911 27.1264 29.544C27.047 29.5969 26.9499 29.6411 26.8352 29.6675C26.7205 29.694 26.5882 29.7116 26.4294 29.7116C26.2264 29.7116 26.0411 29.6763 25.8647 29.6058C25.697 29.5352 25.5382 29.4205 25.4059 29.2793C25.2823 29.1381 25.1765 28.9617 25.1059 28.7499C25.0353 28.547 25 28.3087 25 28.0352V27.9205C25 27.6558 25.0353 27.4176 25.1147 27.2146C25.1941 27.0117 25.3 26.8352 25.4323 26.6941C25.5647 26.5529 25.7235 26.4382 25.9 26.3676C26.0764 26.297 26.2706 26.2529 26.4647 26.2529C26.7294 26.2529 26.9411 26.3058 27.0911 26.4029C27.2411 26.5 27.3646 26.6411 27.4529 26.8176H27.5676V26.0676H26.5353V25.3176H27.5676V25H28.397V25.3176H28.794V26.0676H28.397V29.6234H27.5676V29.147ZM26.6941 28.9264C26.9499 28.9264 27.1617 28.847 27.3205 28.6793C27.4793 28.5117 27.5676 28.2911 27.5676 28.0264V27.947C27.5676 27.6823 27.4882 27.4617 27.3205 27.3029C27.1617 27.1352 26.9499 27.0558 26.6941 27.0558C26.4382 27.0558 26.2264 27.1352 26.0588 27.3029C25.8912 27.4705 25.8206 27.6823 25.8206 27.9558V28.0352C25.8206 28.3087 25.9 28.5293 26.0588 28.697C26.2176 28.8558 26.4294 28.9352 26.6941 28.9352V28.9264ZM25.397 30.4531H28.1498V31.0002H25.397V30.4531Z" fill="#636363"/>
<defs>
<filter id="filter0_d_9642_103325" x="6.5" y="14.4998" width="23" height="17" filterUnits="userSpaceOnUse" color-interpolation-filters="sRGB">
<feFlood flood-opacity="0" result="BackgroundImageFix"/>
<feColorMatrix in="SourceAlpha" type="matrix" values="0 0 0 0 0 0 0 0 0 0 0 0 0 0 0 0 0 0 127 0" result="hardAlpha"/>
<feOffset dy="5"/>
<feGaussianBlur stdDeviation="4"/>
<feComposite in2="hardAlpha" operator="out"/>
<feColorMatrix type="matrix" values="0 0 0 0 0 0 0 0 0 0 0 0 0 0 0 0 0 0 0.45 0"/>
<feBlend mode="normal" in2="BackgroundImageFix" result="effect1_dropShadow_9642_103325"/>
<feBlend mode="normal" in="SourceGraphic" in2="effect1_dropShadow_9642_103325" result="shape"/>
</filter>
</defs>
</svg>
