<svg width="42" height="42" viewBox="0 0 42 42" fill="none" xmlns="http://www.w3.org/2000/svg">
<path d="M30.9 11.1C28.26 8.46 24.74 7 21 7C17.26 7 13.74 8.46 11.1 11.1C8.46 13.74 7 17.26 7 21C7 24.74 8.46 28.26 11.1 30.9C13.74 33.54 17.26 35 21 35C24.74 35 28.26 33.54 30.9 30.9C33.54 28.26 35 24.74 35 21C35 17.26 33.54 13.74 30.9 11.1Z" stroke="#636363"/>
<path d="M13.5901 28.91C16.4901 31.49 19.7101 31.73 21.0001 31.73C27.1501 31.73 32.1601 26.73 32.1601 20.57C32.1601 14.41 27.1501 9.41998 21.0001 9.41998C19.7201 9.41998 18.4701 9.62998 17.2801 10.06C17.0201 10.15 16.8401 10.4 16.8401 10.68V13.72C16.8401 13.95 16.9601 14.16 17.1501 14.28C17.3401 14.4 17.5901 14.41 17.7901 14.3C18.7901 13.79 19.8701 13.53 20.9901 13.53C24.8801 13.53 28.0401 16.69 28.0401 20.58C28.0401 24.47 24.8801 27.63 20.9901 27.63C19.3301 27.63 17.7501 27.06 16.4901 26.01L17.6801 24.82C17.8501 24.65 17.9101 24.4 17.8401 24.17C17.7701 23.94 17.5801 23.77 17.3501 23.72L10.6201 22.32C10.4001 22.28 10.1801 22.34 10.0201 22.5C9.96008 22.56 9.92008 22.62 9.89008 22.68C9.83008 22.8 9.83008 22.91 9.83008 22.99C9.83008 23.03 9.83008 23.06 9.84008 23.08L11.2401 29.81C11.2901 30.05 11.4601 30.23 11.6901 30.3C11.9201 30.37 12.1701 30.3 12.3401 30.14L13.5701 28.91H13.5901Z" fill="#636363"/>
<g filter="url(#filter0_d_9642_103111)">
<path d="M15.5599 11.85H14.9899V11.42H14.0799V11.85H13.2999V12.58H14.0799V13.33C14.0199 13.28 13.9799 13.22 13.9199 13.18C13.6199 12.96 13.2499 12.85 12.7999 12.85C12.3499 12.85 11.9799 12.96 11.6599 13.18C11.3399 13.39 11.0899 13.69 10.9199 14.06C10.7499 14.43 10.6599 14.85 10.6599 15.33C10.6599 15.81 10.7499 16.22 10.9199 16.6C11.0899 16.97 11.3399 17.27 11.6499 17.49C11.9699 17.71 12.3499 17.82 12.7799 17.82C13.2099 17.82 13.6099 17.71 13.9099 17.49C14.0099 17.42 14.0899 17.32 14.1799 17.23V17.69H14.9899V12.59H15.5599V11.86V11.85ZM14.0499 16.19C13.9599 16.44 13.8299 16.63 13.6399 16.78C13.4499 16.92 13.2099 16.99 12.9099 16.99C12.6099 16.99 12.3799 16.92 12.1899 16.77C11.9999 16.62 11.8599 16.42 11.7599 16.17C11.6699 15.92 11.6199 15.64 11.6199 15.33C11.6199 15.02 11.6699 14.74 11.7599 14.5C11.8599 14.25 11.9999 14.05 12.1899 13.9C12.3799 13.75 12.6299 13.68 12.9299 13.68C13.2099 13.68 13.4499 13.75 13.6299 13.89C13.8199 14.03 13.9499 14.22 14.0399 14.47C14.1299 14.72 14.1699 15.01 14.1699 15.33C14.1699 15.65 14.1299 15.94 14.0399 16.19H14.0499Z" fill="#636363"/>
<path d="M14.8898 19.07H11.2998V19.76H14.8898V19.07Z" fill="#636363"/>
</g>
<defs>
<filter id="filter0_d_9642_103111" x="6.65991" y="8.41998" width="12.8999" height="16.34" filterUnits="userSpaceOnUse" color-interpolation-filters="sRGB">
<feFlood flood-opacity="0" result="BackgroundImageFix"/>
<feColorMatrix in="SourceAlpha" type="matrix" values="0 0 0 0 0 0 0 0 0 0 0 0 0 0 0 0 0 0 127 0" result="hardAlpha"/>
<feOffset dy="1"/>
<feGaussianBlur stdDeviation="2"/>
<feComposite in2="hardAlpha" operator="out"/>
<feColorMatrix type="matrix" values="0 0 0 0 0 0 0 0 0 0 0 0 0 0 0 0 0 0 0.25 0"/>
<feBlend mode="normal" in2="BackgroundImageFix" result="effect1_dropShadow_9642_103111"/>
<feBlend mode="normal" in="SourceGraphic" in2="effect1_dropShadow_9642_103111" result="shape"/>
</filter>
</defs>
</svg>
