<svg width="42" height="42" viewBox="0 0 42 42" fill="none" xmlns="http://www.w3.org/2000/svg">
<path d="M20.9999 8.5C21.617 8.5 22.055 8.50027 22.3996 8.5236C22.7397 8.54663 22.9522 8.59048 23.1222 8.66036C23.6423 8.87413 24.0542 9.28365 24.2688 9.79761C24.3546 10.0032 24.4 10.2679 24.418 10.7461C24.4513 11.6293 24.9094 12.4647 25.7042 12.9201C26.4983 13.3751 27.4534 13.3505 28.2374 12.9392C28.664 12.7155 28.9189 12.6215 29.143 12.5922C29.7016 12.5192 30.266 12.6696 30.7121 13.0092C30.8577 13.1201 31.0018 13.2803 31.1916 13.5607C31.3841 13.8449 31.6032 14.2209 31.9118 14.7514C32.2204 15.2819 32.439 15.6582 32.5907 15.9657C32.7405 16.2691 32.808 16.4726 32.8318 16.6522C32.9049 17.2032 32.7546 17.7609 32.413 18.2028C32.276 18.3799 32.067 18.5518 31.6583 18.8067C30.907 19.2751 30.4056 20.0857 30.4055 20.9999C30.4055 21.9141 30.9069 22.7248 31.6582 23.1933C32.0669 23.4481 32.2759 23.62 32.4128 23.7971C32.7545 24.239 32.9048 24.7967 32.8317 25.3477C32.8079 25.5273 32.7404 25.7308 32.5906 26.0342C32.4389 26.3417 32.2203 26.718 31.9116 27.2485C31.603 27.779 31.384 28.155 31.1915 28.4392C31.0017 28.7196 30.8575 28.8798 30.712 28.9907C30.2659 29.3304 29.7015 29.4807 29.1429 29.4077C28.9188 29.3784 28.6638 29.2844 28.2373 29.0607C27.4533 28.6494 26.4982 28.6248 25.704 29.0799C24.9093 29.5353 24.4513 30.3706 24.418 31.2537C24.4 31.732 24.3546 31.9967 24.2688 32.2024C24.0542 32.7164 23.6423 33.1259 23.1222 33.3396C22.9522 33.4095 22.7397 33.4534 22.3996 33.4764C22.055 33.4997 21.617 33.5 20.9999 33.5C20.3828 33.5 19.9448 33.4997 19.6002 33.4764C19.2601 33.4534 19.0476 33.4095 18.8776 33.3396C18.3575 33.1259 17.9456 32.7164 17.7311 32.2024C17.6452 31.9968 17.5998 31.7321 17.5818 31.2539C17.5485 30.3707 17.0904 29.5353 16.2956 29.0799C15.5015 28.6249 14.5464 28.6495 13.7624 29.0608C13.3359 29.2845 13.0809 29.3785 12.8568 29.4078C12.2982 29.4808 11.7338 29.3304 11.2877 28.9908C11.1421 28.8799 10.998 28.7197 10.8082 28.4393C10.6157 28.1551 10.3967 27.7791 10.088 27.2486C9.77941 26.7181 9.56083 26.3418 9.40908 26.0343C9.25932 25.7309 9.1918 25.5274 9.16798 25.3478C9.09489 24.7968 9.24522 24.2391 9.58684 23.7972C9.72381 23.6201 9.93279 23.4482 10.3415 23.1934C11.0928 22.7249 11.5942 21.9142 11.5943 21.0001C11.5943 20.0858 11.0928 19.275 10.3415 18.8065L10.0769 19.2307L10.3415 18.8065C9.93287 18.5517 9.72393 18.3798 9.58697 18.2027C9.24535 17.7608 9.09502 17.2031 9.16811 16.6521C9.19193 16.4726 9.25945 16.269 9.40921 15.9656C9.56095 15.6581 9.77954 15.2818 10.0882 14.7513C10.3968 14.2208 10.6158 13.8448 10.8083 13.5606C10.9982 13.2802 11.1423 13.12 11.2878 13.0091C11.7339 12.6695 12.2983 12.5191 12.8569 12.5921C13.0811 12.6214 13.336 12.7154 13.7626 12.9392C14.5466 13.3504 15.5016 13.3751 16.2957 12.92C17.0904 12.4647 17.5485 11.6294 17.5818 10.7462C17.5998 10.268 17.6452 10.0032 17.7311 9.79761C17.9456 9.28365 18.3575 8.87413 18.8776 8.66036C19.0476 8.59048 19.2601 8.54663 19.6002 8.5236C19.9448 8.50027 20.3828 8.5 20.9999 8.5Z" stroke="#636363"/>
<ellipse cx="21.0029" cy="20.9972" rx="3.93451" ry="3.91124" fill="#636363"/>
</svg>
