<svg width="42" height="42" viewBox="0 0 42 42" fill="none" xmlns="http://www.w3.org/2000/svg">
<path d="M33.5 18.05C33.5 18.0805 33.489 18.1014 33.4752 18.1152C33.4614 18.129 33.4405 18.14 33.41 18.14C32.1563 18.14 31.14 19.1563 31.14 20.41V27.28C31.14 27.9938 31.4757 28.5946 31.8527 29.0874C32.0941 29.403 32.396 29.7246 32.6662 30.0123C32.8002 30.1551 32.9264 30.2895 33.0336 30.4108C33.3244 30.7398 33.5 31.1699 33.5 31.64V33.41C33.5 33.4405 33.489 33.4614 33.4752 33.4752C33.4614 33.489 33.4405 33.5 33.41 33.5H8.59C8.55945 33.5 8.5386 33.489 8.5248 33.4752C8.51101 33.4614 8.5 33.4405 8.5 33.41V31.64C8.5 31.1699 8.67564 30.7398 8.96641 30.4108C9.07357 30.2895 9.19978 30.1551 9.3338 30.0123C9.60398 29.7246 9.90586 29.403 10.1473 29.0874C10.5243 28.5946 10.86 27.9938 10.86 27.28V20.41C10.86 19.1563 9.84369 18.14 8.59 18.14C8.55945 18.14 8.5386 18.129 8.5248 18.1152C8.51101 18.1014 8.5 18.0805 8.5 18.05V15.69C8.5 15.6607 8.51365 15.63 8.54905 15.6077L20.0961 8.74537C20.7031 8.42119 21.3265 8.4324 21.8912 8.74377L33.451 15.6077C33.4864 15.63 33.5 15.6607 33.5 15.69V18.05Z" stroke="#636363"/>
<path d="M18.64 18.64H15.09V29.28H18.64V18.64Z" fill="#636363"/>
<path d="M26.91 18.64H23.36V29.28H26.91V18.64Z" fill="#636363"/>
<path d="M21 17.15C22.806 17.15 24.27 15.686 24.27 13.88C24.27 12.074 22.806 10.61 21 10.61C19.194 10.61 17.73 12.074 17.73 13.88C17.73 15.686 19.194 17.15 21 17.15Z" fill="#636363"/>
<path d="M21.3 14.65H21.22C21.2 14.7 21.17 14.75 21.13 14.8C21.1 14.84 21.05 14.88 21 14.92C20.95 14.96 20.88 14.98 20.81 15C20.74 15.02 20.65 15.03 20.54 15.03C20.4 15.03 20.28 15.01 20.16 14.96C20.04 14.91 19.94 14.84 19.85 14.74C19.76 14.64 19.7 14.52 19.65 14.39C19.6 14.25 19.58 14.09 19.58 13.91V13.83C19.58 13.65 19.61 13.5 19.66 13.36C19.71 13.22 19.78 13.1 19.87 13.01C19.96 12.91 20.07 12.84 20.18 12.79C20.3 12.74 20.43 12.71 20.56 12.71C20.74 12.71 20.88 12.74 20.98 12.81C21.08 12.87 21.16 12.97 21.22 13.09H21.3V12.59H20.61V12.09H21.3V11.88H21.86V12.09H22.13V12.59H21.86V14.97H21.3V14.65ZM20.72 14.5C20.89 14.5 21.03 14.45 21.14 14.34C21.25 14.23 21.3 14.08 21.3 13.9V13.85C21.3 13.67 21.25 13.53 21.14 13.42C21.03 13.31 20.89 13.25 20.72 13.25C20.55 13.25 20.4 13.3 20.3 13.41C20.2 13.52 20.14 13.66 20.14 13.85V13.9C20.14 14.09 20.19 14.23 20.3 14.34C20.41 14.45 20.55 14.5 20.72 14.5Z" fill="#BFBFBF"/>
<path d="M21.76 15.53H19.92V15.9H21.76V15.53Z" fill="#BFBFBF"/>
</svg>
