<svg width="80" height="80" viewBox="0 0 80 80" fill="none" xmlns="http://www.w3.org/2000/svg">
<rect width="80" height="80" rx="18" fill="#959595" fill-opacity="0.2"/>
<path d="M37.8286 34.4334H37.3286V34.4918C35.7759 34.7389 34.6047 36.1183 34.6047 37.7524C34.6047 38.2066 34.6969 38.6314 34.8594 39.0182C31.2322 38.7616 28.1292 36.5333 26.5381 33.3686V29.2572C26.5381 28.2676 26.2094 27.3473 25.6197 26.6019C26.5447 21.8367 30.6568 18.2524 35.5619 18.2524C40.4659 18.2524 44.5772 21.8351 45.5034 26.5987C44.9109 27.3358 44.5857 28.2734 44.5857 29.2572V33.3669C44.4195 33.6939 44.244 34.0137 44.0592 34.3093C43.3178 34.6315 42.46 34.8729 41.5472 35.0169C41.0133 34.6325 40.3787 34.4334 39.7143 34.4334H37.8286Z" stroke="#636363"/>
<path d="M22.453 27.1164L22.4351 27.4538L22.7415 27.5963C23.3912 27.8985 23.8238 28.5451 23.8238 29.2762V34.0381C23.8238 35.0826 22.9557 35.9381 21.8666 35.9381H21.8334L21.7763 35.9191H21.6952C20.6034 35.9191 19.738 35.061 19.738 34.0381V29.2762C19.738 28.5324 20.1832 27.8841 20.8545 27.579L21.1326 27.4526L21.147 27.1475C21.4958 19.7682 27.7983 13.8334 35.5238 13.8334C43.2492 13.8334 49.5517 19.7682 49.9005 27.1475L49.9149 27.4526L50.193 27.579C50.8643 27.8841 51.3095 28.5324 51.3095 29.2762V34.0381C51.3095 35.0826 50.4414 35.9381 49.3523 35.9381H49.238C48.8546 35.9381 48.4928 35.8307 48.1962 35.638L47.9085 35.4509L47.6305 35.6522C46.0659 36.7852 43.78 37.5638 41.1235 37.7682L40.8519 37.7891L40.7222 38.0286C40.5543 38.3386 40.239 38.5477 39.8666 38.5477H37.9047C37.368 38.5477 36.938 38.1112 36.938 37.6191C36.938 37.1228 37.3532 36.6905 37.9047 36.6905H39.8666C40.2179 36.6905 40.517 36.858 40.6887 37.1155L40.8534 37.3626L41.1492 37.3362C43.5559 37.1209 45.7399 36.3956 47.2563 35.3443L47.5835 35.1174L47.4356 34.7477C47.3447 34.5204 47.2999 34.2977 47.2999 34.0381V29.2762C47.2999 28.5511 47.7275 27.9161 48.3908 27.5922L48.6892 27.4465L48.6706 27.1149C48.2933 20.3826 42.5595 15.0429 35.5618 15.0429C28.5655 15.0429 22.8106 20.3816 22.453 27.1164Z" stroke="#636363"/>
<path d="M61.2381 46.4572H54.1523C53.4285 46.4572 52.7809 46.8762 52.5142 47.5048C52.2476 48.1334 52.4 48.8572 52.8952 49.3334L55.1809 51.5048L47.9428 58.381L42.1142 52.8381C41.5428 52.2857 40.6285 52.1905 39.9238 52.5905L21.3142 63.5238C20.4762 64.0191 20.2285 65.0476 20.7428 65.8476C21.0857 66.3619 21.6571 66.6476 22.2476 66.6476C22.5714 66.6476 22.8952 66.5714 23.1809 66.4L40.5904 56.1524L46.6857 61.9429C47.3714 62.6095 48.4952 62.6095 49.2 61.9429L57.6952 53.8667L59.9809 56.0381C60.3238 56.3619 60.7809 56.5334 61.2381 56.5334C61.4666 56.5334 61.6952 56.4953 61.9238 56.4C62.5904 56.1334 63.0095 55.5238 63.0095 54.8381V48.0953C63.0095 47.1619 62.2095 46.4191 61.2381 46.4191V46.4572Z" fill="#636363"/>
<path d="M27.3493 42.0872C20.7888 42.7328 15.6809 48.2525 15.6809 54.9715C15.6809 57.0557 16.1758 58.4229 16.9827 59.3415C17.7608 60.2273 18.8866 60.762 20.3314 61.0716L38.6031 50.3313C38.6033 50.3312 38.6035 50.3311 38.6037 50.331C40.2768 49.3446 42.4836 49.5563 43.9257 50.9332L27.3493 42.0872ZM27.3493 42.0872L27.3523 42.1001H43.6528C46.4275 42.3619 48.944 43.487 50.9193 45.2057C50.5871 45.554 50.2968 45.9659 50.0931 46.45C49.3588 48.1178 49.7966 50.0156 51.0842 51.2388L51.0855 51.2401L51.3677 51.5061L47.9433 54.7578L43.9263 50.9338L27.3493 42.0872Z" stroke="#636363"/>
<path d="M61.238 38.6095H60.8952C60.7999 38.8381 60.6666 39.0476 60.5142 39.2572C60.3809 39.4476 60.1714 39.6191 59.9238 39.7714C59.6952 39.9238 59.4095 40.0572 59.0666 40.1333C58.7428 40.2286 58.3428 40.2667 57.8857 40.2667C57.2952 40.2667 56.7428 40.1714 56.2285 39.9619C55.7333 39.7524 55.2761 39.4286 54.8952 39.0095C54.5142 38.5905 54.2285 38.0762 54 37.4667C53.7904 36.8572 53.6952 36.1714 53.6952 35.3714V35.0286C53.6952 34.2476 53.8095 33.5619 54.019 32.9524C54.2476 32.3429 54.5523 31.8286 54.9523 31.4286C55.3523 31.0095 55.8095 30.6857 56.3238 30.4572C56.8571 30.2286 57.4095 30.1333 57.9809 30.1333C58.7619 30.1333 59.3714 30.2857 59.8285 30.5714C60.2857 30.8572 60.6285 31.2572 60.8952 31.7905H61.238V29.581H58.2285V27.3714H61.238V26.4381H63.6761V27.3714H64.838V29.581H63.6761V39.981H61.238V38.5905V38.6095ZM58.6857 37.9429C59.4476 37.9429 60.0571 37.6953 60.5142 37.2191C60.9904 36.7238 61.238 36.0953 61.238 35.2953V35.0667C61.238 34.2857 60.9904 33.6381 60.5142 33.1619C60.0571 32.6667 59.4285 32.4191 58.6857 32.4191C57.9428 32.4191 57.2952 32.6667 56.819 33.1429C56.3619 33.6 56.1142 34.2476 56.1142 35.0667V35.2953C56.1142 36.1143 56.3428 36.7619 56.819 37.2381C57.2952 37.6953 57.9238 37.9429 58.6857 37.9429Z" fill="#636363"/>
<path d="M54.8951 41.619H62.9523V43.2381H54.8951V41.619Z" fill="#636363"/>
</svg>
