<svg width="42" height="42" viewBox="0 0 42 42" fill="none" xmlns="http://www.w3.org/2000/svg">
<path d="M31.971 28.0155C31.971 29.5279 31.7643 30.6123 31.3632 31.4022C30.9714 32.1739 30.3743 32.7034 29.5021 33.0749C28.6121 33.4541 27.4385 33.667 25.9136 33.7806C24.3925 33.894 22.5643 33.9063 20.3794 33.9063H20.3794H20.3794H20.3793H20.3793H20.3793H20.3793H20.3793H20.3792H20.3792H20.3792H20.3792H20.3792H20.3791H20.3791H20.3791H20.3791H20.3791H20.379H20.379H20.379H20.379H20.379H20.3789H20.3789H20.3789H20.3789H20.3789H20.3788H20.3788H20.3788H20.3788H20.3788H20.3787H20.3787H20.3787H20.3787H20.3787H20.3786H20.3786H20.3786H20.3786H20.3786H20.3785H20.3785H20.3785H20.3785H20.3785H20.3784H20.3784H20.3784H20.3784H20.3784H20.3783H20.3783H20.3783H20.3783H20.3783H20.3782H20.3782H20.3782H20.3782H20.3782H20.3782H20.3781H20.3781H20.3781H20.3781H20.3781H20.378H20.378H20.378H20.378H20.378H20.3779H20.3779H20.3779H20.3779H20.3779H20.3779H20.3778H20.3778H20.3778H20.3778H20.3778H20.3777H20.3777H20.3777H20.3777H20.3777H20.3777H20.3776H20.3776H20.3776H20.3776H20.3776H20.3776H20.3775H20.3775H20.3775H20.3775H20.3775H20.3774H20.3774H20.3774H20.3774H20.3774H20.3774H20.3773H20.3773H20.3773H20.3773H20.3773H20.3772H20.3772H20.3772H20.3772H20.3772H20.3772H20.3771H20.3771H20.3771H20.3771H20.3771H20.3771H20.377H20.377H20.377H20.377H20.377H20.377H20.3769H20.3769H20.3769H20.3769H20.3769H20.3769H20.3768H20.3768H20.3768H20.3768H20.3768H20.3768H20.3767H20.3767H20.3767H20.3767H20.3767H20.3767H20.3766H20.3766H20.3766H20.3766H20.3766H20.3766H20.3765H20.3765H20.3765H20.3765H20.3765H20.3765H20.3764H20.3764H20.3764H20.3764H20.3764H20.3764H20.3763H20.3763H20.3763H20.3763H20.3763H20.3763H20.3762H20.3762H20.3762H20.3762H20.3762H20.3762H20.3761H20.3761H20.3761H20.3761H20.3761H20.3761H20.376H20.376H20.376H20.376H20.376H20.376H20.3759H20.3759H20.3759H20.3759H20.3759H20.3759H20.3758H20.3758H20.3758H20.3758H20.3758H20.3758H20.3758H20.3757H20.3757H20.3757H20.3757H20.3757H20.3757H20.3756H20.3756H20.3756H20.3756H20.3756H20.3756H20.3755H20.3755H20.3755H20.3755H20.3755H20.3755H20.3754H20.3754H20.3754H20.3754H20.3754H20.3754H20.3754H20.3753H20.3753H20.3753H20.3753H20.3753H20.3753H20.3752H20.3752H20.3752H20.3752H20.3752H20.3752H20.3751H20.3751H20.3751H20.3751H20.3751H20.3751H20.3751H20.375H20.375H20.375H20.375H20.375H20.375H20.3749H20.3749H20.3749H20.3749H20.3749H20.3749H20.3748H20.3748H20.3748H20.3748H20.3748H20.3748H20.3748H20.3747H20.3747H20.3747H20.3747H20.3747H20.3747H20.3746H20.3746H20.3746H20.3746H20.3746H20.3746H20.3745H20.3745H20.3745H20.3745H20.3745H20.3745H20.3744H20.3744H20.3744H20.3744H20.3744H20.3744H20.3744H20.3743H20.3743H20.3743H20.3743H20.3743H20.3743H20.3742H20.3742H20.3742H20.3742H20.3742H20.3742H20.3741H20.3741H20.3741H20.3741H20.3741H20.3741H20.3741H20.374H20.374H20.374H20.374H20.374H20.374H20.3739H20.3739H20.3739H20.3739H20.3739H20.3739H20.3738H20.3738H20.3738H20.3738H20.3738H20.3738H20.3737H20.3737H20.3737H20.3737H20.3737H20.3737H20.3736H20.3736H20.3736H20.3736H20.3736H20.3736H20.3735H20.3735H20.3735H20.3735H20.3735H20.3735H20.3734H20.3734H20.3734H20.3734H20.3734H20.3734H20.3733H20.3733H20.3733H20.3733H20.3733H20.3733H20.3732H20.3732H20.3732H20.3732H20.3732H20.3732H20.3731H20.3731H20.3731H20.3731H20.3731H20.3731H20.373H20.373H20.373H20.373H20.373H20.373H20.3729H20.3729H20.3729H20.3729H20.3729H20.3729H20.3728H20.3728H20.3728H20.3728H20.3728H20.3728H20.3727H20.3727H20.3727H20.3727H20.3727H20.3727H20.3726H20.3726H20.3726H20.3726H20.3726H20.3726H20.3725H20.3725H20.3725H20.3725H20.3725H20.3724H20.3724H20.3724H20.3724H20.3724H20.3724H20.3723H20.3723H20.3723H20.3723H20.3723H20.3722H20.3722H20.3722H20.3722H20.3722H20.3722H20.3721H20.3721H20.3721H20.3721H20.3721H20.3721H20.372H20.372H20.372H20.372H20.372H20.3719H20.3719H20.3719H20.3719H20.3719H20.3718H20.3718H20.3718H20.3718H20.3718H20.3718H20.3717H20.3717H20.3717H20.3717H20.3717H20.3716H20.3716H20.3716H20.3716H20.3716H20.3715H20.3715H20.3715H20.3715H20.3715H20.3715H20.3714H20.3714H20.3714H20.3714H20.3714H20.3713H20.3713H20.3713H20.3713H20.3713H20.3712H20.3712H20.3712H20.3712H20.3712H20.3711H20.3711H20.3711H20.3711H20.3711H20.371H20.371H20.371H20.371H20.371H20.3709H20.3709H20.3709H20.3709H20.3709H20.3708H20.3708H20.3708H20.3708H20.3708H20.3707H20.3707H20.3707H20.3707H20.3707H20.3706H20.3706H20.3706H20.3706H20.3706H20.3705H20.3705H20.3705H20.3705H20.3705H20.3704H20.3704C18.1855 33.9063 16.3574 33.894 14.8363 33.7806C13.3113 33.667 12.1377 33.4541 11.2477 33.0749C10.3755 32.7034 9.77843 32.1739 9.38661 31.4022C8.98552 30.6123 8.77881 29.5279 8.77881 28.0155C8.77881 25.5783 9.85995 23.6415 11.5528 21.3968C12.0436 20.746 12.5876 20.0677 13.1667 19.3457C14.521 17.6571 16.0669 15.7297 17.5706 13.3577H20.3704H20.3794H23.1792C24.6829 15.7297 26.2288 17.6571 27.5831 19.3457C28.1622 20.0677 28.7063 20.746 29.197 21.3968C30.8899 23.6415 31.971 25.5783 31.971 28.0155Z" stroke="#636363"/>
<path d="M20.1487 7.51795L20.1474 7.51764C20.0282 7.48945 19.9548 7.50144 19.8948 7.52269C19.8195 7.54938 19.7388 7.59986 19.6085 7.6968C19.5875 7.71241 19.5654 7.72927 19.542 7.74706C19.2999 7.93118 18.9256 8.21583 18.3672 8.25434M20.1487 7.51795L15.9334 7.73046C16.2205 7.7164 16.5118 7.81923 16.8943 7.96655C17.2724 8.11221 17.8435 8.29095 18.3672 8.25434M20.1487 7.51795C20.2886 7.55064 20.4067 7.63038 20.616 7.78459C20.6225 7.78939 20.6292 7.79428 20.6359 7.79926C20.8222 7.93679 21.0927 8.13644 21.4518 8.21905C21.9172 8.32684 22.3368 8.21055 22.6718 8.07935C22.8124 8.02423 22.9531 7.96013 23.0791 7.90265C23.1021 7.89218 23.1246 7.88192 23.1466 7.87198C23.2958 7.80431 23.4265 7.74747 23.5528 7.70499L23.5536 7.70471M20.1487 7.51795L23.5536 7.70471M18.3672 8.25434C18.3673 8.25433 18.3674 8.25432 18.3676 8.25431L18.3326 7.75553L18.3669 8.25435C18.367 8.25435 18.3671 8.25434 18.3672 8.25434ZM23.5536 7.70471C24.0517 7.53626 24.6156 7.611 25.0471 7.84622M23.5536 7.70471L25.0471 7.84622M25.0471 7.84622L23.3728 11.5811L17.3997 11.581L15.6607 7.80821C15.7295 7.7683 15.8299 7.73558 15.9333 7.73046L25.0471 7.84622Z" stroke="#636363"/>
<path fill-rule="evenodd" clip-rule="evenodd" d="M16.9984 11.8544H16.9999L23.7936 11.8542L23.4723 12.9957C23.4723 12.9957 22.7584 12.9394 22.0565 12.9085L23.8493 17.8552C23.9771 18.2077 23.716 18.58 23.341 18.58C23.0885 18.58 22.8697 18.4053 22.8138 18.159L21.6777 13.1511L21.273 16.7336C21.241 17.0169 21.0013 17.231 20.7162 17.231C20.3427 17.231 20.0737 16.8725 20.1783 16.5139L21.2349 12.8889H20.2419H20.2325H19.066C18.2478 12.8971 17.3199 12.9955 17.3199 12.9955L16.9989 11.8563L16.9984 11.8544Z" fill="#636363"/>
<path d="M33.7307 33.4618L33.7834 32.7477L33.6003 32.7351C33.1208 31.64 31.4079 30.7323 29.3068 30.5669C27.1483 30.3969 25.272 31.0637 24.6769 32.1187L24.5339 32.1085L24.4843 32.7336C24.3751 34.1318 26.3552 35.4277 28.9083 35.6292C31.463 35.83 33.6215 34.8593 33.7307 33.4618Z" fill="#636363"/>
<path d="M28.9588 35.0052C26.4056 34.8037 24.4256 33.5078 24.5356 32.1096C24.6449 30.7121 26.8042 29.7414 29.3565 29.9429C31.9096 30.1445 33.8897 31.4404 33.7804 32.8386C33.6704 34.2352 31.5119 35.206 28.9588 35.0052Z" fill="#636363"/>
<path d="M29.2865 30.3725C31.5134 30.548 33.2601 31.6125 33.2876 32.7832C33.2946 32.7438 33.3001 32.7036 33.3033 32.6635C33.3992 31.4463 31.6093 30.3134 29.3062 30.1316C27.003 29.9497 25.0575 30.789 24.9624 32.0061C24.9593 32.0463 24.9585 32.0864 24.9593 32.1266C25.1676 30.9748 27.0596 30.1961 29.2865 30.3725Z" fill="#636363"/>
<path d="M28.9596 34.5375C31.1865 34.7131 33.0785 33.9345 33.2876 32.7835C33.2609 31.6128 31.5135 30.5483 29.2866 30.3728C27.0597 30.1972 25.1676 30.9758 24.9585 32.1269C24.9853 33.2968 26.7327 34.362 28.9596 34.5375Z" fill="#CACACA"/>
<path opacity="0.6" d="M33.2031 33.9321C33.2031 33.9321 33.1844 33.962 33.1396 34.0124C33.1175 34.0376 33.09 34.0683 33.0539 34.1014C33.0358 34.1179 33.0177 34.1376 32.9965 34.1557C32.9753 34.173 32.9517 34.1919 32.9281 34.2124C32.8314 34.2919 32.7041 34.3769 32.5524 34.4651C32.4761 34.5084 32.392 34.5478 32.304 34.5926C32.2152 34.6336 32.1177 34.6698 32.0186 34.7115C31.9172 34.7477 31.8095 34.7808 31.6995 34.8178C31.5879 34.8509 31.4708 34.8761 31.3505 34.9068C31.2907 34.9233 31.2286 34.9327 31.1666 34.9438C31.1037 34.9548 31.0408 34.9666 30.9771 34.9776C30.8498 35.0044 30.7177 35.0138 30.5841 35.0296C30.5173 35.0367 30.4497 35.0445 30.3821 35.0516C30.3137 35.0571 30.2453 35.0595 30.1761 35.0634C30.0378 35.0689 29.8979 35.0815 29.7564 35.0808C29.6149 35.0792 29.4726 35.0776 29.3303 35.0768L29.2234 35.076C29.188 35.0745 29.1519 35.0721 29.1165 35.0697L28.9019 35.0571C28.7596 35.0477 28.6174 35.0382 28.4751 35.0288C28.3312 35.0178 28.189 34.9997 28.049 34.9776C27.7684 34.9335 27.4964 34.8674 27.2386 34.7895C26.98 34.7123 26.7363 34.617 26.5115 34.5131C26.2867 34.4092 26.0823 34.2935 25.9023 34.1754C25.7215 34.0573 25.5651 33.936 25.4354 33.8187C25.3686 33.762 25.312 33.7022 25.2562 33.651C25.2035 33.5967 25.1564 33.5455 25.1131 33.4999C25.0314 33.4054 24.9693 33.329 24.93 33.2747C24.8899 33.2212 24.8687 33.1928 24.8687 33.1928C24.8687 33.1928 24.8922 33.2196 24.9363 33.27C24.9591 33.2944 24.985 33.3267 25.0188 33.3613C25.0526 33.396 25.0911 33.4361 25.1336 33.4818C25.1792 33.5243 25.2279 33.5723 25.2837 33.6227C25.3411 33.6707 25.4 33.7258 25.4692 33.7778C25.6036 33.8864 25.7648 33.9959 25.9463 34.1053C26.3095 34.3234 26.7646 34.5249 27.274 34.6682C27.5279 34.7414 27.7959 34.7973 28.0703 34.8406C28.2078 34.8611 28.3462 34.8784 28.4853 34.8879C28.6268 34.8957 28.7691 34.9044 28.9106 34.9131L29.122 34.9272C29.1574 34.9296 29.1928 34.9327 29.2281 34.9335L29.3343 34.9351C29.475 34.9367 29.6157 34.939 29.7548 34.9414C29.8248 34.9446 29.8939 34.9383 29.9631 34.9367C30.0323 34.9343 30.1007 34.932 30.169 34.9296C30.2374 34.9264 30.305 34.9264 30.3726 34.9217C30.4394 34.9154 30.5063 34.9091 30.5723 34.9036C30.7036 34.8902 30.8348 34.8824 30.9598 34.8603C31.0227 34.8509 31.0856 34.8414 31.1469 34.832C31.2082 34.8225 31.2695 34.8154 31.3285 34.8005C31.4464 34.7737 31.5627 34.7509 31.6736 34.7233C31.7828 34.6918 31.8897 34.6635 31.9911 34.632C32.091 34.5958 32.1869 34.5627 32.2772 34.5281C32.3653 34.4887 32.451 34.4549 32.528 34.4163C32.6813 34.3391 32.8118 34.262 32.9116 34.1888C32.9619 34.1525 33.0067 34.1195 33.0429 34.088C33.0814 34.0581 33.1105 34.0297 33.1341 34.0061C33.182 33.9604 33.2031 33.9321 33.2031 33.9321Z" fill="#636363"/>
<path d="M29.1028 30.7356L28.944 29.9397L28.7404 29.9822C27.8852 28.9335 25.7408 28.4651 23.3992 28.924C20.993 29.3956 19.149 30.6939 18.8204 32.026L18.6616 32.059L18.7976 32.7558C19.1026 34.3138 21.6565 35.1255 24.502 34.5673C27.3467 34.0091 29.407 32.2936 29.1028 30.7356Z" fill="#636363"/>
<path d="M24.365 33.8706C21.5187 34.428 18.9656 33.6171 18.6606 32.059C18.3564 30.501 20.4167 28.7855 23.2622 28.2281C26.1077 27.6707 28.6616 28.4816 28.9666 30.0396C29.2708 31.5977 27.2105 33.3132 24.365 33.8706Z" fill="#636363"/>
<path d="M23.3168 28.7179C25.7991 28.2313 28.0276 28.862 28.412 30.1303C28.4081 30.0846 28.4018 30.0398 28.3931 29.9949C28.1282 28.6392 25.8322 27.9471 23.2641 28.4502C20.6961 28.9533 18.83 30.461 19.0949 31.8167C19.1035 31.8615 19.1145 31.9056 19.1279 31.9489C19.0076 30.6294 20.8344 29.2044 23.3168 28.7179Z" fill="#636363"/>
<path d="M24.2238 33.3615C26.7061 32.875 28.5337 31.45 28.4119 30.1305C28.0275 28.8622 25.799 28.2323 23.3167 28.7181C20.8343 29.2046 19.0067 30.6296 19.1278 31.9491C19.5129 33.2175 21.7414 33.8481 24.2238 33.3615Z" fill="#CACACA"/>
<path opacity="0.6" d="M28.6699 31.4091C28.6699 31.4091 28.6581 31.4477 28.6243 31.5162C28.6078 31.55 28.5873 31.5925 28.5583 31.6398C28.5441 31.6634 28.53 31.6902 28.5127 31.7161C28.4946 31.7421 28.4749 31.7697 28.4545 31.7988C28.3727 31.9153 28.2603 32.0468 28.1212 32.1885C28.0512 32.2594 27.9711 32.3279 27.8893 32.4034C27.8044 32.4751 27.7093 32.5444 27.6134 32.6199C27.5136 32.6908 27.4067 32.7593 27.2974 32.8325C27.1858 32.9026 27.0655 32.9656 26.9437 33.0356C26.884 33.0718 26.8187 33.101 26.7543 33.1325C26.6898 33.164 26.6246 33.1955 26.5577 33.2269C26.4273 33.2947 26.2858 33.345 26.1451 33.4033C26.0743 33.4316 26.0028 33.46 25.9312 33.4891C25.8581 33.5159 25.7843 33.5395 25.7104 33.5647C25.561 33.6127 25.4125 33.6686 25.2584 33.7111C25.1043 33.7529 24.9487 33.7946 24.7923 33.8371L24.6751 33.8686C24.6358 33.878 24.5957 33.8859 24.5564 33.8946L24.3183 33.9457C24.1603 33.9788 24.0023 34.0119 23.8443 34.0449C23.6839 34.0764 23.5228 34.1 23.364 34.1189C23.0448 34.1567 22.7281 34.167 22.4231 34.1607C22.1173 34.1552 21.8225 34.1252 21.5458 34.0804C21.2691 34.0355 21.0113 33.9717 20.7786 33.8969C20.546 33.8229 20.3377 33.7387 20.1608 33.6497C20.0704 33.6088 19.991 33.5608 19.9156 33.5214C19.8417 33.4789 19.7749 33.4372 19.7135 33.4009C19.5948 33.3222 19.5044 33.2576 19.4455 33.2104C19.3858 33.164 19.3535 33.1396 19.3535 33.1396C19.3535 33.1396 19.3873 33.1616 19.451 33.2033C19.4832 33.223 19.521 33.2506 19.5681 33.2781C19.6153 33.3057 19.6695 33.338 19.73 33.3734C19.7921 33.4064 19.8605 33.4434 19.936 33.482C20.0138 33.5167 20.0948 33.5592 20.1852 33.5946C20.3652 33.6718 20.5743 33.7426 20.8054 33.8072C21.2676 33.9339 21.8257 34.0158 22.4246 34.0166C22.7241 34.019 23.0338 33.9985 23.3451 33.9623C23.5008 33.9434 23.6572 33.919 23.812 33.8875C23.9693 33.8544 24.1265 33.8198 24.2837 33.7859L24.5195 33.7371C24.5588 33.7284 24.5981 33.7206 24.6374 33.7119L24.753 33.6812C24.9078 33.6403 25.0611 33.6001 25.2144 33.5608C25.2914 33.5426 25.3653 33.5151 25.4392 33.4915C25.5139 33.4679 25.5877 33.4442 25.6616 33.4214C25.7355 33.3978 25.8094 33.3757 25.8809 33.3505C25.9517 33.3238 26.0224 33.297 26.0924 33.2695C26.2323 33.2151 26.3722 33.1671 26.5027 33.1049C26.5687 33.075 26.634 33.0459 26.6984 33.0175C26.7629 32.9884 26.8274 32.9616 26.8871 32.9278C27.0081 32.8632 27.1276 32.8034 27.24 32.7388C27.3501 32.6711 27.4586 32.6073 27.5592 32.5428C27.6566 32.4727 27.751 32.4074 27.839 32.342C27.9231 32.272 28.0064 32.2098 28.0788 32.1436C28.2226 32.0122 28.3413 31.8886 28.4286 31.7791C28.4726 31.724 28.5111 31.6744 28.541 31.6287C28.5732 31.5847 28.5976 31.5445 28.6156 31.5114C28.6549 31.4469 28.6699 31.4091 28.6699 31.4091Z" fill="#636363"/>
<path d="M21.4897 25.4513H21.3334C21.2871 25.5497 21.2292 25.6452 21.1598 25.7377C21.0961 25.8246 21.0093 25.9027 20.8994 25.9721C20.7952 26.0416 20.6679 26.0965 20.5174 26.1371C20.3728 26.1776 20.1963 26.1978 19.9879 26.1978C19.7217 26.1978 19.4729 26.1515 19.2414 26.0589C19.0157 25.9605 18.8161 25.8188 18.6424 25.6336C18.4746 25.4426 18.3415 25.2111 18.2431 24.9391C18.1505 24.6671 18.1042 24.3546 18.1042 24.0016V23.8454C18.1042 23.4982 18.1534 23.1886 18.2518 22.9166C18.356 22.6446 18.4949 22.416 18.6685 22.2308C18.8479 22.0398 19.0533 21.8952 19.2848 21.7968C19.5221 21.6984 19.7709 21.6492 20.0313 21.6492C20.3786 21.6492 20.6534 21.7158 20.856 21.8489C21.0585 21.9762 21.2177 22.1585 21.3334 22.3957H21.4897V21.4061H20.1355V20.4166H21.4897V19.9999H22.5834V20.4166H23.1042V21.4061H22.5834V26.0763H21.4897V25.4513ZM20.3438 25.1561C20.6853 25.1561 20.9602 25.0491 21.1685 24.835C21.3826 24.6151 21.4897 24.3286 21.4897 23.9756V23.8714C21.4897 23.5184 21.3826 23.2349 21.1685 23.0207C20.9602 22.8008 20.6853 22.6909 20.3438 22.6909C20.0024 22.6909 19.7246 22.7979 19.5105 23.0121C19.3022 23.2204 19.198 23.5068 19.198 23.8714V23.9756C19.198 24.3402 19.3022 24.6295 19.5105 24.8436C19.7246 25.052 20.0024 25.1561 20.3438 25.1561Z" fill="#636363"/>
<path d="M18.641 26.7997H22.2579V27.5231H18.641V26.7997Z" fill="#636363"/>
</svg>
