<svg width="42" height="42" viewBox="0 0 42 42" fill="none" xmlns="http://www.w3.org/2000/svg">
<path fill-rule="evenodd" clip-rule="evenodd" d="M31.0192 16.0445L31.0213 16.0423C31.261 15.8034 31.3954 15.479 31.3954 15.1395V15.1302V15.1208V15.1114V15.102V15.0926V15.0831V15.0737V15.0641V15.0546V15.0451V15.0355V15.0259V15.0162V15.0066V14.9969V14.9872V14.9775V14.9678V14.958V14.9482V14.9384V14.9285V14.9187V14.9088V14.8989V14.889V14.879V14.869V14.8591V14.849V14.839V14.8289V14.8189V14.8088V14.7986V14.7885V14.7783V14.7681V14.7579V14.7477V14.7374V14.7272V14.7169V14.7066V14.6962V14.6859V14.6755V14.6651V14.6547V14.6442V14.6338V14.6233V14.6128V14.6023V14.5918V14.5812V14.5706V14.56V14.5494V14.5388V14.5281V14.5175V14.5068V14.4961V14.4853V14.4746V14.4638V14.4531V14.4423V14.4314V14.4206V14.4097V14.3989V14.388V14.3771V14.3662V14.3552V14.3443V14.3333V14.3223V14.3113V14.3002V14.2892V14.2781V14.2671V14.256V14.2448V14.2337V14.2226V14.2114V14.2002V14.189V14.1778V14.1666V14.1554V14.1441V14.1328V14.1216V14.1103V14.0989V14.0876V14.0763V14.0649V14.0535V14.0421V14.0307V14.0193V14.0079V13.9964V13.9849V13.9735V13.962V13.9505V13.9389V13.9274V13.9159V13.9043V13.8927V13.8811V13.8695V13.8579V13.8463V13.8346V13.823V13.8113V13.7996V13.7879V13.7762V13.7645V13.7528V13.7411V13.7293V13.7175V13.7058V13.694V13.6822V13.6703V13.6585V13.6467V13.6348V13.623V13.6111V13.5992V13.5873V13.5754V13.5635V13.5516V13.5397V13.5277V13.5158V13.5038V13.4918V13.4798V13.4678V13.4558V13.4438V13.4318V13.4197V13.4077V13.3956V13.3836V13.3715V13.3594V13.3473V13.3352V13.3231V13.311V13.2989V13.2867V13.2746V13.2624V13.2503V13.2381V13.2259V13.2138V13.2016V13.1894V13.1772V13.1649V13.1527V13.1405V13.1283V13.116V13.1038V13.0915V13.0792V13.067V13.0547V13.0424V13.0301V13.0178V13.0055V12.9932V12.9809V12.9685V12.9562V12.9439V12.9315V12.9192V12.9068V12.8945V12.8821V12.8698V12.8574V12.845V12.8326V12.8202V12.8078V12.7954V12.783V12.7706V12.7582V12.7458V12.7334V12.721V12.7085V12.6961V12.6837V12.6712V12.6588V12.6463V12.6339V12.6214V12.609V12.5965V12.5841V12.5716V12.5591V12.5467V12.5342V12.5217V12.5092V12.4968V12.4843V12.4718V12.4593V12.4468V12.4343V12.4218V12.4093V12.3969V12.3844V12.3719V12.3594V12.3469V12.3344V12.3219V12.3093V12.2968V12.2843V12.2718V12.2593V12.2468V12.2343V12.2218V12.2093V12.1968V12.1843V12.1718V12.1593V12.1468V12.1343V12.1218V12.1093V12.0968V12.0842V12.0717V12.0592V12.0467V12.0342V12.0218V12.0093V11.9968V11.9843V11.9718V11.9593V11.9468V11.9343V11.9218V11.9094V11.8969V11.8844V11.8719V11.8595V11.847V11.8345V11.8221V11.8096V11.7972V11.7847V11.7723V11.7598V11.7474V11.7349V11.7225V11.7101V11.6976V11.6852V11.6728V11.6604V11.648V11.6356V11.6232V11.6108V11.5984V11.586V11.5736V11.5612V11.5488V11.5365V11.5241V11.5118V11.4994V11.4871V11.4747V11.4624V11.4501V11.4377V11.4254V11.4131V11.4008V11.3885V11.3762V11.3639V11.3516V11.3394V11.3271V11.3148V11.3026V11.2903V11.2781V11.2659V11.2537V11.2414V11.2292V11.217V11.2048V11.1927V11.1805V11.1683V11.1562V11.144V11.1319V11.1197V11.1076V11.0955V11.0834V11.0713V11.0592V11.0471V11.035V11.023V11.0109V10.9989V10.9868V10.9748V10.9628V10.9508V10.9388V10.9268V10.9148V10.9028V10.8909V10.8789V10.867V10.8551V10.8432V10.8313V10.8194V10.8075V10.7956V10.7838V10.7719V10.7601V10.7483V10.7364V10.7246V10.7128V10.7011V10.6893V10.6775V10.6658V10.6541V10.6424V10.6307V10.619V10.6073V10.5956V10.584V10.5723V10.5607V10.5491V10.5375V10.5259V10.5143V10.5027V10.4912V10.4797V10.4681V10.4566V10.4451V10.4337V10.4222V10.4107V10.3993V10.3879V10.3765V10.3651V10.3537V10.3423V10.331V10.3197V10.3084V10.297V10.2858V10.2745V10.2632V10.252V10.2408V10.2296V10.2184V10.2072V10.196V10.1849V10.1738V10.1626V10.1515V10.1405V10.1294V10.1184V10.1073V10.0963V10.0853V10.0744V10.0634V10.0524V10.0415V10.0306V10.0197V10.0089V9.998V9.98716V9.97635V9.96555V9.95476V9.944V9.93326V9.92253V9.91182V9.90113V9.89046V9.87981V9.86918V9.85857V9.84797V9.8374V9.82684V9.81631V9.80579V9.7953V9.78482V9.77436V9.76393V9.75351V9.74311V9.73274V9.72238V9.71205V9.70173V9.69144V9.68117V9.67092V9.66068V9.65047V9.64029V9.63012V9.61997V9.60985V9.59974V9.58966V9.5796V9.56957V9.55955V9.54956V9.53958V9.52963V9.51971V9.5098V9.49992V9.49006V9.48022V9.47041V9.46062V9.45085V9.4411V9.43138V9.42168V9.41201V9.40236V9.39273V9.38313V9.37354V9.36399V9.35446V9.34495V9.33546V9.326V9.31657V9.30716V9.29777V9.28841V9.27907C31.3954 8.57294 30.8231 8 30.1164 8H11.8838C11.1771 8 10.6047 8.57294 10.6047 9.27907V15.1395C10.6047 15.479 10.7392 15.8034 10.9789 16.0423L10.981 16.0445C11.2199 16.2841 11.5444 16.4186 11.8838 16.4186H12.3489C13.2932 16.4186 14.1824 16.8632 14.7489 17.6186L15.7908 19.0078L16.8326 17.6186C17.3992 16.8632 18.2884 16.4186 19.2326 16.4186H22.7675C23.7118 16.4186 24.601 16.8632 25.1675 17.6186L26.2094 19.0078L27.2512 17.6186C27.8178 16.8632 28.707 16.4186 29.6512 16.4186H30.1164C30.4558 16.4186 30.7802 16.2841 31.0192 16.0445ZM15.0094 19.6326L13.9489 18.2186C13.5712 17.715 12.9784 17.4186 12.3489 17.4186H11.8838C11.2795 17.4186 10.7 17.179 10.2728 16.7505C9.84436 16.3233 9.60474 15.7438 9.60474 15.1395V9.27907C9.60474 8.02102 10.6245 7 11.8838 7H30.1164C31.3757 7 32.3954 8.02102 32.3954 9.27907V15.1395C32.3954 15.7438 32.1558 16.3233 31.7273 16.7505C31.3002 17.179 30.7206 17.4186 30.1164 17.4186H29.6512C29.0217 17.4186 28.429 17.715 28.0512 18.2186L26.9908 19.6326C26.8059 19.8787 26.5167 20.0233 26.2094 20.0233C25.902 20.0233 25.6129 19.8787 25.428 19.6326L24.3675 18.2186C23.9898 17.715 23.397 17.4186 22.7675 17.4186H19.2326C18.6031 17.4186 18.0104 17.715 17.6326 18.2186L16.5722 19.6326C16.3872 19.8787 16.0981 20.0233 15.7908 20.0233C15.4834 20.0233 15.1943 19.8787 15.0094 19.6326Z" fill="#636363"/>
<rect x="15" y="8.99988" width="11.7716" height="1.07015" rx="0.535074" fill="#636363"/>
<rect x="16" y="11.3983" width="9.09623" height="1.07015" rx="0.535074" fill="#636363"/>
<rect x="18" y="13.7972" width="5.97805" height="1.20285" rx="0.601423" fill="#636363"/>
<path d="M24.0814 25.0697C24.0814 26.7715 22.7018 28.1511 21 28.1511C19.2982 28.1511 17.9186 26.7715 17.9186 25.0697C17.9186 23.3679 19.2982 21.9883 21 21.9883C22.7018 21.9883 24.0814 23.3679 24.0814 25.0697Z" stroke="#636363"/>
<path d="M31.2443 24.2558C31.2443 25.598 30.1562 26.686 28.814 26.686C27.4718 26.686 26.3838 25.598 26.3838 24.2558C26.3838 22.9136 27.4718 21.8256 28.814 21.8256C30.1562 21.8256 31.2443 22.9136 31.2443 24.2558Z" stroke="#636363"/>
<path d="M14.9651 24.2558C14.9651 25.598 13.877 26.686 12.5348 26.686C11.1927 26.686 10.1046 25.598 10.1046 24.2558C10.1046 22.9136 11.1927 21.8256 12.5348 21.8256C13.877 21.8256 14.9651 22.9136 14.9651 24.2558Z" stroke="#636363"/>
<path d="M26.1308 34.5H15.8195C15.8049 34.4978 15.7812 34.4938 15.7517 34.4868C15.6897 34.4721 15.6132 34.4472 15.542 34.408C15.4715 34.3692 15.4176 34.3228 15.3812 34.2687C15.3479 34.2191 15.314 34.1406 15.314 34.0063V32.7209C15.314 31.9043 15.6388 31.1198 16.2159 30.5415C16.7943 29.9644 17.5788 29.6395 18.3954 29.6395H23.6047C24.4213 29.6395 25.2058 29.9644 25.7842 30.5415C26.3612 31.1199 26.6861 31.9044 26.6861 32.7209V32.7247V32.7285V32.7323V32.736V32.7398V32.7436V32.7474V32.7511V32.7549V32.7586V32.7624V32.7662V32.7699V32.7737V32.7774V32.7812V32.7849V32.7886V32.7924V32.7961V32.7998V32.8036V32.8073V32.811V32.8147V32.8184V32.8222V32.8259V32.8296V32.8333V32.837V32.8407V32.8444V32.8481V32.8518V32.8555V32.8591V32.8628V32.8665V32.8702V32.8739V32.8775V32.8812V32.8849V32.8885V32.8922V32.8958V32.8995V32.9031V32.9068V32.9104V32.914V32.9177V32.9213V32.9249V32.9286V32.9322V32.9358V32.9394V32.943V32.9466V32.9502V32.9538V32.9574V32.961V32.9646V32.9682V32.9718V32.9754V32.979V32.9825V32.9861V32.9897V32.9932V32.9968V33.0004V33.0039V33.0075V33.011V33.0145V33.0181V33.0216V33.0251V33.0287V33.0322V33.0357V33.0392V33.0427V33.0463V33.0498V33.0533V33.0568V33.0603V33.0637V33.0672V33.0707V33.0742V33.0777V33.0811V33.0846V33.0881V33.0915V33.095V33.0984V33.1019V33.1053V33.1087V33.1122V33.1156V33.119V33.1225V33.1259V33.1293V33.1327V33.1361V33.1395V33.1429V33.1463V33.1497V33.1531V33.1564V33.1598V33.1632V33.1666V33.1699V33.1733V33.1766V33.18V33.1833V33.1867V33.19V33.1933V33.1967V33.2V33.2033V33.2066V33.2099V33.2133V33.2166V33.2199V33.2231V33.2264V33.2297V33.233V33.2363V33.2395V33.2428V33.2461V33.2493V33.2526V33.2558V33.2591V33.2623V33.2655V33.2688V33.272V33.2752V33.2784V33.2816V33.2848V33.288V33.2912V33.2944V33.2976V33.3008V33.3039V33.3071V33.3103V33.3134V33.3166V33.3197V33.3229V33.326V33.3292V33.3323V33.3354V33.3385V33.3416V33.3448V33.3479V33.351V33.3541V33.3571V33.3602V33.3633V33.3664V33.3694V33.3725V33.3756V33.3786V33.3817V33.3847V33.3877V33.3908V33.3938V33.3968V33.3998V33.4029V33.4059V33.4089V33.4118V33.4148V33.4178V33.4208V33.4238V33.4267V33.4297V33.4327V33.4356V33.4385V33.4415V33.4444V33.4474V33.4503V33.4532V33.4561V33.459V33.4619V33.4648V33.4677V33.4706V33.4734V33.4763V33.4792V33.482V33.4849V33.4877V33.4906V33.4934V33.4963V33.4991V33.5019V33.5047V33.5075V33.5103V33.5131V33.5159V33.5187V33.5215V33.5242V33.527V33.5298V33.5325V33.5353V33.538V33.5407V33.5435V33.5462V33.5489V33.5516V33.5543V33.557V33.5597V33.5624V33.5651V33.5678V33.5704V33.5731V33.5757V33.5784V33.581V33.5837V33.5863V33.5889V33.5915V33.5942V33.5968V33.5994V33.6019V33.6045V33.6071V33.6097V33.6122V33.6148V33.6174V33.6199V33.6224V33.625V33.6275V33.63V33.6325V33.6351V33.6376V33.64V33.6425V33.645V33.6475V33.65V33.6524V33.6549V33.6573V33.6598V33.6622V33.6646V33.667V33.6694V33.6719V33.6743V33.6766V33.679V33.6814V33.6838V33.6862V33.6885V33.6909V33.6932V33.6955V33.6979V33.7002V33.7025V33.7048V33.7071V33.7094V33.7117V33.714V33.7163V33.7185V33.7208V33.723V33.7253V33.7275V33.7298V33.732V33.7342V33.7364V33.7386V33.7408V33.743V33.7452V33.7473V33.7495V33.7517V33.7538V33.756V33.7581V33.7602V33.7624V33.7645V33.7666V33.7687V33.7708V33.7729V33.7749V33.777V33.7791V33.7811V33.7832V33.7852V33.7872V33.7893V33.7913V33.7933V33.7953V33.7973V33.7993V33.8012V33.8032V33.8052V33.8071V33.8091V33.811V33.813V33.8149V33.8168V33.8187V33.8206V33.8225V33.8244V33.8263V33.8281V33.83V33.8318V33.8337V33.8355V33.8374V33.8392V33.841V33.8428V33.8446V33.8464V33.8482V33.8499V33.8517V33.8535V33.8552V33.8569V33.8587V33.8604V33.8621V33.8638V33.8655V33.8672V33.8689V33.8706V33.8722V33.8739V33.8756V33.8772V33.8788V33.8805V33.8821V33.8837V33.8853V33.8869V33.8885V33.89V33.8916V33.8932V33.8947V33.8963V33.8978V33.8993V33.9008V33.9023V33.9038V33.9053V33.9068V33.9083V33.9097V33.9112V33.9127V33.9141V33.9155V33.9169V33.9184V33.9198V33.9212V33.9225V33.9239V33.9253V33.9266V33.928V33.9293V33.9307V33.932V33.9333V33.9346V33.9359V33.9372V33.9385V33.9398V33.941V33.9423V33.9435V33.9448V33.946V33.9472V33.9484V33.9496V33.9508V33.952V33.9532V33.9543V33.9555V33.9566V33.9578V33.9589V33.96V33.9611V33.9622V33.9633V33.9644V33.9655V33.9665V33.9676V33.9686V33.9696V33.9707V33.9717V33.9727V33.9737V33.9747V33.9757V33.9766V33.9776V33.9785V33.9795V33.9804V33.9813V33.9822V33.9831V33.984V33.9849V33.9858V33.9867V33.9875V33.9884V33.9892V33.99V33.9908V33.9916V33.9924V33.9932V33.994V33.9948V33.9955V33.9963V33.997V33.9977V33.9985V33.9992V33.9999V34.0006V34.0012V34.0019V34.0026V34.0032V34.0039V34.0045V34.0051V34.0057V34.0063C26.6861 34.2103 26.6081 34.3035 26.5245 34.3657C26.4183 34.4447 26.2812 34.4824 26.1996 34.4968C26.192 34.4982 26.1751 34.5 26.1308 34.5Z" stroke="#636363"/>
<path d="M14.9414 29.267L14.5878 28.9139C13.5788 29.9243 13.0116 31.2924 13.0116 32.7209C13.0116 32.9842 12.7982 33.1977 12.5349 33.1977H8.05529C8.01094 33.1977 7.99404 33.1959 7.98641 33.1945C7.90488 33.1801 7.76778 33.1424 7.66158 33.0634C7.57795 33.0012 7.5 32.908 7.5 32.704V31.4186C7.5 30.602 7.82485 29.8175 8.40193 29.2391C8.9803 28.6621 9.76481 28.3372 10.5814 28.3372H14.4884C14.5539 28.3372 14.6192 28.3393 14.6842 28.3435C14.7189 28.3457 14.7372 28.3522 14.7446 28.3554C14.7513 28.3584 14.7534 28.3606 14.7543 28.3615L14.7543 28.3615C14.7557 28.3631 14.7731 28.3824 14.7793 28.4402C14.7929 28.5672 14.7366 28.765 14.588 28.9136L14.9414 29.267Z" stroke="#636363"/>
<path d="M27.4123 28.9139L27.4115 28.9131C27.2831 28.7851 27.149 28.6641 27.0096 28.5504C26.9641 28.5133 26.931 28.4667 26.9109 28.4187C26.8977 28.3872 26.8917 28.3592 26.8898 28.3372H30.7675C31.5841 28.3372 32.3686 28.6621 32.947 29.2392C33.524 29.8175 33.8489 30.602 33.8489 31.4186V31.4224V31.4262V31.43V31.4337V31.4375V31.4413V31.445V31.4488V31.4526V31.4563V31.4601V31.4639V31.4676V31.4714V31.4751V31.4788V31.4826V31.4863V31.4901V31.4938V31.4975V31.5013V31.505V31.5087V31.5124V31.5161V31.5199V31.5236V31.5273V31.531V31.5347V31.5384V31.5421V31.5458V31.5495V31.5532V31.5568V31.5605V31.5642V31.5679V31.5715V31.5752V31.5789V31.5825V31.5862V31.5899V31.5935V31.5972V31.6008V31.6045V31.6081V31.6117V31.6154V31.619V31.6226V31.6263V31.6299V31.6335V31.6371V31.6407V31.6443V31.6479V31.6515V31.6551V31.6587V31.6623V31.6659V31.6695V31.6731V31.6767V31.6802V31.6838V31.6874V31.6909V31.6945V31.698V31.7016V31.7051V31.7087V31.7122V31.7158V31.7193V31.7228V31.7264V31.7299V31.7334V31.7369V31.7404V31.7439V31.7475V31.751V31.7544V31.7579V31.7614V31.7649V31.7684V31.7719V31.7754V31.7788V31.7823V31.7857V31.7892V31.7927V31.7961V31.7996V31.803V31.8064V31.8099V31.8133V31.8167V31.8202V31.8236V31.827V31.8304V31.8338V31.8372V31.8406V31.844V31.8474V31.8508V31.8541V31.8575V31.8609V31.8643V31.8676V31.871V31.8743V31.8777V31.881V31.8844V31.8877V31.891V31.8944V31.8977V31.901V31.9043V31.9076V31.9109V31.9142V31.9175V31.9208V31.9241V31.9274V31.9307V31.934V31.9372V31.9405V31.9438V31.947V31.9503V31.9535V31.9567V31.96V31.9632V31.9664V31.9697V31.9729V31.9761V31.9793V31.9825V31.9857V31.9889V31.9921V31.9953V31.9985V32.0016V32.0048V32.008V32.0111V32.0143V32.0174V32.0206V32.0237V32.0269V32.03V32.0331V32.0362V32.0393V32.0424V32.0456V32.0487V32.0517V32.0548V32.0579V32.061V32.0641V32.0671V32.0702V32.0733V32.0763V32.0794V32.0824V32.0854V32.0885V32.0915V32.0945V32.0975V32.1005V32.1035V32.1065V32.1095V32.1125V32.1155V32.1185V32.1215V32.1244V32.1274V32.1303V32.1333V32.1362V32.1392V32.1421V32.145V32.148V32.1509V32.1538V32.1567V32.1596V32.1625V32.1654V32.1683V32.1711V32.174V32.1769V32.1797V32.1826V32.1854V32.1883V32.1911V32.1939V32.1968V32.1996V32.2024V32.2052V32.208V32.2108V32.2136V32.2164V32.2192V32.2219V32.2247V32.2275V32.2302V32.233V32.2357V32.2384V32.2412V32.2439V32.2466V32.2493V32.252V32.2547V32.2574V32.2601V32.2628V32.2655V32.2681V32.2708V32.2734V32.2761V32.2787V32.2814V32.284V32.2866V32.2892V32.2918V32.2944V32.297V32.2996V32.3022V32.3048V32.3074V32.3099V32.3125V32.3151V32.3176V32.3201V32.3227V32.3252V32.3277V32.3302V32.3327V32.3352V32.3377V32.3402V32.3427V32.3452V32.3476V32.3501V32.3526V32.355V32.3574V32.3599V32.3623V32.3647V32.3671V32.3695V32.3719V32.3743V32.3767V32.3791V32.3815V32.3838V32.3862V32.3886V32.3909V32.3932V32.3956V32.3979V32.4002V32.4025V32.4048V32.4071V32.4094V32.4117V32.414V32.4162V32.4185V32.4207V32.423V32.4252V32.4275V32.4297V32.4319V32.4341V32.4363V32.4385V32.4407V32.4429V32.445V32.4472V32.4494V32.4515V32.4537V32.4558V32.4579V32.46V32.4622V32.4643V32.4664V32.4685V32.4705V32.4726V32.4747V32.4768V32.4788V32.4809V32.4829V32.4849V32.487V32.489V32.491V32.493V32.495V32.497V32.4989V32.5009V32.5029V32.5048V32.5068V32.5087V32.5106V32.5126V32.5145V32.5164V32.5183V32.5202V32.5221V32.5239V32.5258V32.5277V32.5295V32.5314V32.5332V32.535V32.5369V32.5387V32.5405V32.5423V32.5441V32.5459V32.5476V32.5494V32.5511V32.5529V32.5546V32.5564V32.5581V32.5598V32.5615V32.5632V32.5649V32.5666V32.5683V32.5699V32.5716V32.5732V32.5749V32.5765V32.5782V32.5798V32.5814V32.583V32.5846V32.5862V32.5877V32.5893V32.5909V32.5924V32.5939V32.5955V32.597V32.5985V32.6V32.6015V32.603V32.6045V32.606V32.6074V32.6089V32.6103V32.6118V32.6132V32.6146V32.616V32.6175V32.6188V32.6202V32.6216V32.623V32.6243V32.6257V32.627V32.6284V32.6297V32.631V32.6323V32.6336V32.6349V32.6362V32.6375V32.6387V32.64V32.6412V32.6425V32.6437V32.6449V32.6461V32.6473V32.6485V32.6497V32.6509V32.652V32.6532V32.6543V32.6554V32.6566V32.6577V32.6588V32.6599V32.661V32.6621V32.6631V32.6642V32.6653V32.6663V32.6673V32.6684V32.6694V32.6704V32.6714V32.6724V32.6733V32.6743V32.6753V32.6762V32.6772V32.6781V32.679V32.6799V32.6808V32.6817V32.6826V32.6835V32.6843V32.6852V32.686V32.6869V32.6877V32.6885V32.6893V32.6901V32.6909V32.6917V32.6925V32.6932V32.694V32.6947V32.6954V32.6962V32.6969V32.6976V32.6982V32.6989V32.6996V32.7003V32.7009V32.7015V32.7022V32.7028V32.7034V32.704C33.8489 32.908 33.7709 33.0012 33.6873 33.0634C33.5811 33.1424 33.444 33.1801 33.3625 33.1945C33.3548 33.1959 33.3379 33.1977 33.2936 33.1977H29.4652C29.2019 33.1977 28.9884 32.9842 28.9884 32.7209C28.9884 31.2924 28.4213 29.9243 27.4123 28.9139Z" stroke="#636363"/>
</svg>
