<svg width="42" height="42" viewBox="0 0 42 42" fill="none" xmlns="http://www.w3.org/2000/svg">
<g clip-path="url(#clip0_9642_103359)">
<mask id="mask0_9642_103359" style="mask-type:luminance" maskUnits="userSpaceOnUse" x="0" y="0" width="42" height="42">
<path d="M42 0H0V42H42V0Z" fill="white"/>
</mask>
<g mask="url(#mask0_9642_103359)">
<path d="M9.5 14.34C9.5 13.1304 10.3589 12.1216 11.5 11.89V30.1C10.3589 29.8683 9.5 28.8595 9.5 27.65V14.34ZM32.8 27.65C32.8 28.8595 31.9411 29.8683 30.8 30.1V11.89C31.9411 12.1216 32.8 13.1304 32.8 14.34V27.65Z" fill="#636363" stroke="#636363"/>
<path d="M15.03 7.5H27.27C29.203 7.5 30.77 9.06701 30.77 11V31C30.77 32.933 29.203 34.5 27.27 34.5H15.03C13.0971 34.5 11.53 32.933 11.53 31V11C11.53 9.06701 13.0971 7.5 15.03 7.5Z" stroke="#636363"/>
<path d="M27 12H15" stroke="#636363" stroke-linecap="round" stroke-linejoin="round"/>
<path d="M24 14H15" stroke="#636363" stroke-linecap="round" stroke-linejoin="round"/>
<g filter="url(#filter0_d_9642_103359)">
<path d="M21 16H15" stroke="#636363" stroke-linecap="round" stroke-linejoin="round"/>
</g>
<path d="M22.0734 27.0293H21.9205C21.8734 27.1234 21.8146 27.2293 21.744 27.3234C21.6735 27.4057 21.5911 27.4881 21.4852 27.5587C21.3793 27.6293 21.2499 27.6881 21.097 27.7234C20.9441 27.7587 20.7676 27.7822 20.5558 27.7822C20.2853 27.7822 20.0382 27.7351 19.8029 27.641C19.5794 27.5469 19.3676 27.394 19.1912 27.2057C19.0265 27.0175 18.8853 26.7822 18.7912 26.4999C18.6971 26.2293 18.65 25.9117 18.65 25.547V25.394C18.65 25.0411 18.6971 24.7234 18.8029 24.4529C18.9088 24.1823 19.05 23.947 19.2265 23.7588C19.4029 23.5705 19.6147 23.4176 19.85 23.3235C20.0853 23.2294 20.3441 23.1705 20.6029 23.1705C20.9558 23.1705 21.2382 23.2411 21.4382 23.3705C21.6382 23.4999 21.8029 23.6882 21.9205 23.9235H22.0734V22.9235H20.697V21.9235H22.0734V21.5H23.1793V21.9235H23.7087V22.9235H23.1793V27.6645H22.0734V27.0293ZM20.9088 26.7352C21.2499 26.7352 21.5323 26.6293 21.744 26.4058C21.9558 26.1822 22.0734 25.8881 22.0734 25.5352V25.4293C22.0734 25.0764 21.9676 24.7823 21.744 24.5705C21.5323 24.347 21.2499 24.2411 20.9088 24.2411C20.5676 24.2411 20.2853 24.347 20.0617 24.5705C19.8382 24.794 19.7441 25.0764 19.7441 25.4411V25.547C19.7441 25.9117 19.85 26.2058 20.0617 26.4293C20.2735 26.641 20.5558 26.7469 20.9088 26.7469V26.7352Z" fill="#636363"/>
<path d="M22.8498 28.7708H19.1793V29.5002H22.8498V28.7708Z" fill="#636363"/>
</g>
</g>
<defs>
<filter id="filter0_d_9642_103359" x="6.5" y="12.5" width="23" height="17" filterUnits="userSpaceOnUse" color-interpolation-filters="sRGB">
<feFlood flood-opacity="0" result="BackgroundImageFix"/>
<feColorMatrix in="SourceAlpha" type="matrix" values="0 0 0 0 0 0 0 0 0 0 0 0 0 0 0 0 0 0 127 0" result="hardAlpha"/>
<feOffset dy="5"/>
<feGaussianBlur stdDeviation="4"/>
<feComposite in2="hardAlpha" operator="out"/>
<feColorMatrix type="matrix" values="0 0 0 0 0 0 0 0 0 0 0 0 0 0 0 0 0 0 0.45 0"/>
<feBlend mode="normal" in2="BackgroundImageFix" result="effect1_dropShadow_9642_103359"/>
<feBlend mode="normal" in="SourceGraphic" in2="effect1_dropShadow_9642_103359" result="shape"/>
</filter>
<clipPath id="clip0_9642_103359">
<path d="M0 21C0 14.4768 0 11.2152 1.06569 8.64243C2.4866 5.21204 5.21204 2.4866 8.64243 1.06569C11.2152 0 14.4768 0 21 0V0C27.5232 0 30.7848 0 33.3576 1.06569C36.788 2.4866 39.5134 5.21204 40.9343 8.64243C42 11.2152 42 14.4768 42 21V21C42 27.5232 42 30.7848 40.9343 33.3576C39.5134 36.788 36.788 39.5134 33.3576 40.9343C30.7848 42 27.5232 42 21 42V42C14.4768 42 11.2152 42 8.64243 40.9343C5.21204 39.5134 2.4866 36.788 1.06569 33.3576C0 30.7848 0 27.5232 0 21V21Z" fill="white"/>
</clipPath>
</defs>
</svg>
