<svg width="43" height="42" viewBox="0 0 43 42" fill="none" xmlns="http://www.w3.org/2000/svg">
<path d="M24.4941 12.5H32.4133L32.4133 19.6461V22.0747C32.4133 23.313 32.4129 24.3677 32.3308 25.2673C32.2487 26.1677 32.088 26.8626 31.7977 27.3949C31.2564 28.3874 30.1518 29 27.5 29H16.9095H16.7185L16.5762 29.1273L15.0796 30.466C15.0796 30.466 15.0796 30.466 15.0796 30.466C14.575 30.9171 13.9249 31.1653 13.248 31.1653C11.7332 31.1653 10.5 29.9321 10.5 28.4173L10.5 17.4133C10.5 14.7046 12.7045 12.5 15.4133 12.5H24.4941Z" stroke="#838383"/>
<path d="M14.6875 22.8062H17.5C18.0178 22.8062 18.4375 22.3864 18.4375 21.8687C18.4375 21.3509 18.0178 20.9312 17.5 20.9312H14.6875C14.1697 20.9312 13.75 21.3509 13.75 21.8687C13.75 22.3864 14.1697 22.8062 14.6875 22.8062Z" fill="#838383"/>
<path d="M14.6875 19.0562H17.5C18.0178 19.0562 18.4375 18.6364 18.4375 18.1187C18.4375 17.6009 18.0178 17.1812 17.5 17.1812H14.6875C14.1697 17.1812 13.75 17.6009 13.75 18.1187C13.75 18.6364 14.1697 19.0562 14.6875 19.0562Z" fill="#838383"/>
<path d="M20.1924 21.8686C20.1924 22.3864 20.6121 22.8061 21.1299 22.8061C23.0902 22.8061 24.9333 22.0427 26.3195 20.6565L33.1754 13.7999C34.2745 12.7009 34.2747 10.9217 33.1754 9.82245C32.0789 8.72585 30.2946 8.72585 29.1979 9.82245L22.342 16.679C20.9558 18.0653 20.1924 19.9083 20.1924 21.8686Z" fill="#838383"/>
</svg>
