<svg width="42" height="42" viewBox="0 0 42 42" fill="none" xmlns="http://www.w3.org/2000/svg">
<path d="M25.58 24.7999L21.75 28.6299C21.58 28.8099 21.49 29.0399 21.49 29.2799C21.49 29.5199 21.59 29.7599 21.77 29.9299C21.94 30.0999 22.18 30.1999 22.42 30.1899C22.66 30.1799 22.9 30.0899 23.07 29.9199L26.67 26.3099C26.72 26.2599 26.78 26.2199 26.85 26.1899C26.92 26.1599 26.99 26.1499 27.06 26.1499C27.13 26.1499 27.2 26.1599 27.27 26.1899C27.34 26.2199 27.4 26.2599 27.45 26.3099C27.5 26.3599 27.54 26.4199 27.57 26.4899C27.6 26.5599 27.61 26.6299 27.61 26.6999C27.61 26.7699 27.6 26.8399 27.57 26.9099C27.54 26.9799 27.5 27.0399 27.45 27.0899L23.83 30.7099C23.49 31.0399 23.04 31.2499 22.57 31.2799C22.1 31.3099 21.62 31.1799 21.24 30.8999H16.92C16.8 30.8999 16.67 30.8999 16.55 30.9399C16.43 30.9799 16.32 31.0399 16.23 31.1199C16.14 31.1999 16.06 31.2999 16.01 31.4099C15.96 31.5199 15.93 31.6399 15.92 31.7699C15.92 31.8899 15.93 32.0199 15.98 32.1299C16.02 32.2499 16.09 32.3499 16.17 32.4399C16.26 32.5299 16.36 32.5999 16.47 32.6499C16.58 32.6999 16.71 32.7299 16.83 32.7299H24.82C25.26 32.7299 25.68 32.5499 25.99 32.2499L28.57 29.6699C28.76 29.4799 28.98 29.3299 29.22 29.2299C29.46 29.1299 29.73 29.0799 29.99 29.0799H31.81V24.3099H26.75C26.53 24.3099 26.32 24.3499 26.12 24.4399C25.92 24.5199 25.74 24.6499 25.58 24.7999Z" fill="#636363"/>
<path d="M34.18 23.59H33.41C33.27 23.59 33.14 23.64 33.04 23.73C32.94 23.82 32.88 23.95 32.87 24.08V29.33C32.88 29.46 32.94 29.59 33.04 29.67C33.14 29.76 33.27 29.81 33.4 29.81H34.17C34.31 29.81 34.45 29.75 34.55 29.65C34.65 29.55 34.71 29.41 34.71 29.27V24.12C34.71 24.05 34.7 23.98 34.67 23.91C34.64 23.84 34.6 23.79 34.55 23.74C34.5 23.69 34.44 23.65 34.38 23.62C34.31 23.59 34.24 23.58 34.17 23.58L34.18 23.59Z" fill="#636363"/>
<path d="M25.58 24.82L21.75 28.65C21.58 28.83 21.49 29.06 21.49 29.3C21.49 29.54 21.59 29.78 21.77 29.95C21.94 30.12 22.18 30.22 22.42 30.21C22.66 30.2 22.9 30.11 23.07 29.94L26.67 26.33C26.72 26.28 26.78 26.24 26.85 26.21C26.92 26.18 26.99 26.17 27.06 26.17C27.13 26.17 27.2 26.18 27.27 26.21C27.34 26.24 27.4 26.28 27.45 26.33C27.5 26.38 27.54 26.44 27.57 26.51C27.6 26.58 27.61 26.65 27.61 26.72C27.61 26.79 27.6 26.86 27.57 26.93C27.54 27 27.5 27.06 27.45 27.11L23.83 30.73C23.49 31.06 23.04 31.27 22.57 31.3C22.1 31.33 21.62 31.2 21.24 30.92H16.92C16.8 30.92 16.67 30.92 16.55 30.96C16.43 31 16.32 31.06 16.23 31.14C16.14 31.22 16.06 31.32 16.01 31.43C15.96 31.54 15.93 31.66 15.92 31.79C15.92 31.91 15.93 32.04 15.98 32.15C16.02 32.27 16.09 32.37 16.17 32.46C16.26 32.55 16.36 32.62 16.47 32.67C16.58 32.72 16.71 32.75 16.83 32.75H24.82C25.26 32.75 25.68 32.57 25.99 32.27L28.57 29.69C28.76 29.5 28.98 29.35 29.22 29.25C29.46 29.15 29.73 29.1 29.99 29.1H31.81V24.33H26.75C26.53 24.33 26.32 24.37 26.12 24.46C25.92 24.54 25.74 24.67 25.58 24.82Z" fill="#636363"/>
<path d="M34.18 23.6H33.41C33.27 23.6 33.14 23.65 33.04 23.74C32.94 23.83 32.88 23.96 32.87 24.09V29.34C32.88 29.47 32.94 29.6 33.04 29.68C33.14 29.77 33.27 29.82 33.4 29.82H34.17C34.31 29.82 34.45 29.76 34.55 29.66C34.65 29.56 34.71 29.42 34.71 29.28V24.13C34.71 24.06 34.7 23.99 34.67 23.92C34.64 23.85 34.6 23.8 34.55 23.75C34.5 23.7 34.44 23.66 34.38 23.63C34.31 23.6 34.24 23.59 34.17 23.59L34.18 23.6Z" fill="#636363"/>
<path d="M12.6039 11.2045C12.8857 11.1628 13.1333 11.0251 13.3377 10.8832C13.5447 10.7394 13.7533 10.5578 13.9493 10.3863L13.9493 10.3863L13.9545 10.3816C14.3716 10.0063 14.7071 9.73999 15.14 9.73999C15.5722 9.73999 15.9033 10.0122 16.3308 10.3863C16.5268 10.5578 16.7354 10.7394 16.9424 10.8832C17.1468 11.0252 17.3945 11.1629 17.6764 11.2045C17.855 11.2313 18.0326 11.2018 18.1762 11.165C18.3273 11.1263 18.4848 11.0678 18.638 11.0027C18.9404 10.8743 19.2765 10.6982 19.5845 10.5369L19.5894 10.5343C19.5898 10.5341 19.5903 10.5338 19.5907 10.5336C19.9142 10.3667 20.1497 10.2504 20.3928 10.2147C20.5734 10.1881 20.7784 10.273 20.8646 10.4127L20.8651 10.4135C21.0304 10.6801 20.9915 11.0522 20.7459 11.4819C20.5061 11.9017 20.1137 12.3189 19.6674 12.7167L19.6674 12.7167L19.6651 12.7187C18.9491 13.3647 18.1641 13.889 17.8916 14.0647C17.8712 14.0778 17.8508 14.0918 17.8369 14.1013C17.8345 14.1029 17.8324 14.1043 17.8305 14.1056C17.8282 14.1072 17.826 14.1086 17.824 14.11H12.4795L12.4779 14.109C12.3137 14.0053 11.4371 13.441 10.6421 12.7252C10.6124 12.6984 10.5798 12.6753 10.5453 12.6561M12.6039 11.2045C12.6035 11.2046 12.6032 11.2046 12.6028 11.2047L12.53 10.71L12.605 11.2043C12.6046 11.2044 12.6042 11.2045 12.6039 11.2045ZM12.6039 11.2045C12.4252 11.2314 12.2475 11.2018 12.1039 11.165C11.9528 11.1263 11.7953 11.0678 11.6421 11.0027C11.3397 10.8743 11.0036 10.6982 10.6956 10.5369L10.688 10.5329L10.6796 10.5285L10.6796 10.5284C10.3763 10.3621 10.1329 10.2508 9.8873 10.2147C9.70669 10.1881 9.50174 10.273 9.41545 10.4127L9.415 10.4135C9.24971 10.6801 9.28861 11.0522 9.53417 11.4819C9.7618 11.8803 10.1269 12.2765 10.5453 12.6561M10.5453 12.6561C10.4679 12.6132 10.3802 12.59 10.29 12.59C10.4061 12.59 10.5185 12.6326 10.6056 12.7104C10.5854 12.6923 10.5653 12.6742 10.5453 12.6561ZM17.7948 14.1289C17.7948 14.1288 17.7951 14.1286 17.7958 14.1283L17.7948 14.1289Z" stroke="#636363"/>
<path d="M22.8101 25.1928L20.5265 27.4764C20.1795 27.8234 19.9606 28.2491 19.8572 28.7006C18.5927 29.0927 17.0467 29.19 15.31 29.19C13.1648 29.19 11.3203 29.0645 9.94312 28.4177C9.282 28.1048 8.74894 27.6503 8.37797 27.0364C8.00594 26.4207 7.78003 25.6164 7.78003 24.58C7.78003 22.9628 8.28447 21.0617 9.15305 19.4018C10.0185 17.7479 11.2106 16.4066 12.6057 15.85H18.0144C19.4095 16.4066 20.6016 17.7479 21.467 19.4018C22.3356 21.0617 22.84 22.9628 22.84 24.58C22.84 24.7899 22.8287 24.9956 22.8101 25.1928Z" stroke="#636363"/>
<g filter="url(#filter0_d_9642_103215)">
<path d="M13.48 25.1501V20.7601H11.8V19.8201H16.16V20.7601H14.48V25.1501H13.47H13.48Z" fill="#636363"/>
<path d="M17.9601 24.1501V22.8701H16.6801V22.0901H17.9601V20.8201H18.7401V22.0901H20.0101V22.8701H18.7401V24.1501H17.9601Z" fill="#636363"/>
</g>
<defs>
<filter id="filter0_d_9642_103215" x="7.80005" y="16.8201" width="16.21" height="13.33" filterUnits="userSpaceOnUse" color-interpolation-filters="sRGB">
<feFlood flood-opacity="0" result="BackgroundImageFix"/>
<feColorMatrix in="SourceAlpha" type="matrix" values="0 0 0 0 0 0 0 0 0 0 0 0 0 0 0 0 0 0 127 0" result="hardAlpha"/>
<feOffset dy="1"/>
<feGaussianBlur stdDeviation="2"/>
<feComposite in2="hardAlpha" operator="out"/>
<feColorMatrix type="matrix" values="0 0 0 0 0 0 0 0 0 0 0 0 0 0 0 0 0 0 0.25 0"/>
<feBlend mode="normal" in2="BackgroundImageFix" result="effect1_dropShadow_9642_103215"/>
<feBlend mode="normal" in="SourceGraphic" in2="effect1_dropShadow_9642_103215" result="shape"/>
</filter>
</defs>
</svg>
