<svg width="42" height="42" viewBox="0 0 42 42" fill="none" xmlns="http://www.w3.org/2000/svg">
<g filter="url(#filter0_b_10930_23090)">
<g clip-path="url(#clip0_10930_23090)">
<g filter="url(#filter1_d_10930_23090)">
<path d="M13.2852 10.3398H29.0848C29.4487 10.3398 29.87 10.7123 29.87 11.3399V31.2099C29.87 31.8374 29.4487 32.2099 29.0848 32.2099H13.2852C12.9213 32.2099 12.5 31.8374 12.5 31.2099V11.3399C12.5 10.7123 12.9213 10.3398 13.2852 10.3398Z" stroke="#838383"/>
<path d="M24.6658 16.9901H24.5793H24.57L24.4542 16.3442L23.9368 16.5679C23.4397 15.4185 22.5266 14.9114 22.1452 14.7345L22.145 14.7343C20.3435 13.8978 18.1917 14.6878 17.354 16.4919C16.5174 18.2934 17.3074 20.4452 19.1115 21.2829L19.1138 21.284C19.3895 21.4132 19.6791 21.5046 19.9769 21.5591L20.056 21.3882C19.7574 21.338 19.4661 21.2467 19.1854 21.1148C17.4744 20.3195 16.7257 18.2862 17.5213 16.5721C18.316 14.8599 20.3501 14.1105 22.0647 14.9063L24.6658 16.9901ZM24.6658 16.9901L24.405 18.114L23.4918 17.4341L24.0413 17.2328L23.7148 16.5404C23.3742 15.818 22.7929 15.2442 22.0648 14.9063L24.6658 16.9901Z" stroke="#838383" stroke-width="1.4" stroke-linecap="round"/>
<mask id="path-4-inside-1_10930_23090" fill="white">
<path d="M20.9145 18.8016H20.8494C20.8308 18.8435 20.8029 18.8853 20.775 18.9225C20.7471 18.9597 20.7099 18.9923 20.6633 19.0249C20.6168 19.0528 20.5657 19.076 20.5006 19.0946C20.4401 19.1132 20.361 19.1225 20.2727 19.1225C20.1564 19.1225 20.0541 19.1039 19.9517 19.0621C19.8541 19.0202 19.7703 18.9597 19.6959 18.8807C19.6262 18.797 19.5657 18.6993 19.5238 18.583C19.482 18.4667 19.4634 18.3319 19.4634 18.183V18.1179C19.4634 17.9691 19.4866 17.8342 19.5285 17.7179C19.575 17.6016 19.6308 17.504 19.7052 17.4249C19.7843 17.3412 19.868 17.2807 19.9703 17.2389C20.0727 17.197 20.1796 17.1738 20.2913 17.1738C20.4401 17.1738 20.5564 17.2017 20.6447 17.2575C20.7331 17.3133 20.7982 17.3923 20.8494 17.49H20.9145V17.0668H20.3331V16.6435H20.9145V16.4668H21.3842V16.6435H21.6075V17.0668H21.3842V19.0667H20.9145V18.797V18.8016ZM20.4215 18.6714C20.5657 18.6714 20.6866 18.6249 20.775 18.5318C20.868 18.4388 20.9145 18.3132 20.9145 18.1644V18.1179C20.9145 17.9644 20.868 17.8435 20.775 17.7551C20.6866 17.6621 20.5657 17.6156 20.4215 17.6156C20.2773 17.6156 20.1564 17.6621 20.0634 17.7551C19.9703 17.8481 19.9285 17.9691 19.9285 18.1226V18.1691C19.9285 18.3272 19.975 18.4481 20.0634 18.5411C20.1564 18.6295 20.2727 18.676 20.4215 18.676V18.6714Z"/>
</mask>
<path d="M20.9145 18.8016V20.2016H22.3145V18.8016H20.9145ZM20.8494 18.8016V17.4016H19.9396L19.57 18.233L20.8494 18.8016ZM20.6633 19.0249L21.3836 20.2253L21.4259 20.2L21.4662 20.1718L20.6633 19.0249ZM20.5006 19.0946L20.1159 17.7485L20.1023 17.7524L20.0888 17.7565L20.5006 19.0946ZM19.9517 19.0621L19.4002 20.3489L19.4109 20.3534L19.4217 20.3578L19.9517 19.0621ZM19.6959 18.8807L18.6204 19.7769L18.6475 19.8094L18.6764 19.8402L19.6959 18.8807ZM19.5285 17.7179L18.2286 17.198L18.2195 17.2207L18.2113 17.2437L19.5285 17.7179ZM19.7052 17.4249L18.6874 16.4636L18.6858 16.4654L19.7052 17.4249ZM20.8494 17.49L19.6092 18.1396L20.0023 18.89H20.8494V17.49ZM20.9145 17.49V18.89H22.3145V17.49H20.9145ZM20.9145 17.0668H22.3145V15.6668H20.9145V17.0668ZM20.3331 17.0668H18.9331V18.4668H20.3331V17.0668ZM20.3331 16.6435V15.2435H18.9331V16.6435H20.3331ZM20.9145 16.6435V18.0435H22.3145V16.6435H20.9145ZM20.9145 16.4668V15.0668H19.5145V16.4668H20.9145ZM21.3842 16.4668H22.7842V15.0668H21.3842V16.4668ZM21.3842 16.6435H19.9842V18.0435H21.3842V16.6435ZM21.6075 16.6435H23.0075V15.2435H21.6075V16.6435ZM21.6075 17.0668V18.4668H23.0075V17.0668H21.6075ZM21.3842 17.0668V15.6668H19.9842V17.0668H21.3842ZM21.3842 19.0667V20.4667H22.7842V19.0667H21.3842ZM20.9145 19.0667H19.5145V20.4667H20.9145V19.0667ZM20.4215 18.6714V17.2714H19.0215V18.6714H20.4215ZM20.775 18.5318L19.785 17.5419L19.7723 17.5546L19.76 17.5676L20.775 18.5318ZM20.775 17.7551L19.76 18.7194L19.7847 18.7454L19.8107 18.7701L20.775 17.7551ZM20.0634 18.5411L19.0484 19.5054L19.0731 19.5314L19.0991 19.5561L20.0634 18.5411ZM20.4215 18.676V20.076H21.8215V18.676H20.4215ZM20.9145 17.4016H20.8494V20.2016H20.9145V17.4016ZM19.57 18.233C19.5947 18.1776 19.6179 18.1387 19.6303 18.1188C19.6434 18.098 19.6529 18.0853 19.655 18.0825L21.895 19.7625C21.9474 19.6927 22.0474 19.5532 22.1287 19.3702L19.57 18.233ZM19.655 18.0825C19.7492 17.9568 19.8417 17.8911 19.8605 17.8779L21.4662 20.1718C21.578 20.0935 21.7449 19.9626 21.895 19.7625L19.655 18.0825ZM19.943 17.8244C19.9681 17.8094 19.9977 17.7937 20.0307 17.7793C20.0635 17.7651 20.0926 17.7551 20.1159 17.7485L20.8852 20.4408C21.0694 20.3881 21.2333 20.3155 21.3836 20.2253L19.943 17.8244ZM20.0888 17.7565C20.1558 17.7359 20.2053 17.7285 20.2286 17.7257C20.2541 17.7226 20.2691 17.7225 20.2727 17.7225V20.5225C20.4414 20.5225 20.6717 20.5067 20.9123 20.4327L20.0888 17.7565ZM20.2727 17.7225C20.2902 17.7225 20.3224 17.724 20.3641 17.7318C20.4066 17.7397 20.4468 17.752 20.4818 17.7663L19.4217 20.3578C19.7085 20.4752 19.9931 20.5225 20.2727 20.5225V17.7225ZM20.5032 17.7753C20.5972 17.8155 20.6695 17.8724 20.7154 17.9212L18.6764 19.8402C18.8712 20.0471 19.1109 20.2249 19.4002 20.3489L20.5032 17.7753ZM20.7714 17.9844C20.7918 18.0088 20.8204 18.0514 20.8411 18.1088L18.2066 19.0572C18.311 19.3472 18.4606 19.5851 18.6204 19.7769L20.7714 17.9844ZM20.8411 18.1088C20.856 18.1503 20.8612 18.1793 20.8629 18.1905C20.8645 18.2016 20.8634 18.2 20.8634 18.183H18.0634C18.0634 18.4406 18.0945 18.7459 18.2066 19.0572L20.8411 18.1088ZM20.8634 18.183V18.1179H18.0634V18.183H20.8634ZM20.8634 18.1179C20.8634 18.1132 20.8643 18.1406 20.8457 18.1921L18.2113 17.2437C18.109 17.5278 18.0634 17.825 18.0634 18.1179H20.8634ZM20.8284 18.2379C20.8333 18.2255 20.8074 18.2966 20.7247 18.3844L18.6858 16.4654C18.4542 16.7114 18.3167 16.9778 18.2286 17.198L20.8284 18.2379ZM20.7231 18.3862C20.7082 18.4019 20.6796 18.4294 20.637 18.4595C20.5934 18.4904 20.5466 18.5158 20.5004 18.5346L19.4403 15.9431C19.1294 16.0703 18.8844 16.2551 18.6874 16.4636L20.7231 18.3862ZM20.5004 18.5346C20.4516 18.5546 20.3791 18.5738 20.2913 18.5738V15.7738C19.9802 15.7738 19.6937 15.8394 19.4403 15.9431L20.5004 18.5346ZM20.2913 18.5738C20.2773 18.5738 20.1053 18.5726 19.8971 18.4412L21.3923 16.0738C21.0074 15.8307 20.6029 15.7738 20.2913 15.7738V18.5738ZM19.8971 18.4412C19.7287 18.3348 19.6425 18.2031 19.6092 18.1396L22.0895 16.8404C21.9539 16.5815 21.7375 16.2918 21.3923 16.0738L19.8971 18.4412ZM20.8494 18.89H20.9145V16.09H20.8494V18.89ZM22.3145 17.49V17.0668H19.5145V17.49H22.3145ZM20.9145 15.6668H20.3331V18.4668H20.9145V15.6668ZM21.7331 17.0668V16.6435H18.9331V17.0668H21.7331ZM20.3331 18.0435H20.9145V15.2435H20.3331V18.0435ZM22.3145 16.6435V16.4668H19.5145V16.6435H22.3145ZM20.9145 17.8668H21.3842V15.0668H20.9145V17.8668ZM19.9842 16.4668V16.6435H22.7842V16.4668H19.9842ZM21.3842 18.0435H21.6075V15.2435H21.3842V18.0435ZM20.2075 16.6435V17.0668H23.0075V16.6435H20.2075ZM21.6075 15.6668H21.3842V18.4668H21.6075V15.6668ZM19.9842 17.0668V19.0667H22.7842V17.0668H19.9842ZM21.3842 17.6667H20.9145V20.4667H21.3842V17.6667ZM22.3145 19.0667V18.797H19.5145V19.0667H22.3145ZM19.5145 18.797V18.8016H22.3145V18.797H19.5145ZM20.4215 20.0714C20.8824 20.0714 21.3945 19.9124 21.79 19.4961L19.76 17.5676C19.8593 17.4631 19.9798 17.3834 20.108 17.3331C20.2329 17.2842 20.3431 17.2714 20.4215 17.2714V20.0714ZM21.7649 19.5218C22.1643 19.1224 22.3145 18.6177 22.3145 18.1644H19.5145C19.5145 18.0088 19.5717 17.7552 19.785 17.5419L21.7649 19.5218ZM22.3145 18.1644V18.1179H19.5145V18.1644H22.3145ZM22.3145 18.1179C22.3145 17.6621 22.1644 17.1441 21.7392 16.7401L19.8107 18.7701C19.7049 18.6696 19.6236 18.5463 19.5729 18.4146C19.5243 18.2881 19.5145 18.1819 19.5145 18.1179H22.3145ZM21.79 16.7909C21.3945 16.3746 20.8825 16.2156 20.4215 16.2156V19.0156C20.3431 19.0156 20.2329 19.0028 20.108 18.9538C19.9798 18.9036 19.8593 18.8239 19.76 18.7194L21.79 16.7909ZM20.4215 16.2156C19.9522 16.2156 19.4599 16.3787 19.0734 16.7652L21.0533 18.7451C20.9641 18.8343 20.8536 18.9076 20.7301 18.9555C20.6092 19.0025 20.5009 19.0156 20.4215 19.0156V16.2156ZM19.0734 16.7652C18.6565 17.1821 18.5285 17.6946 18.5285 18.1226H21.3285C21.3285 18.1715 21.3219 18.2698 21.2775 18.3926C21.2305 18.5225 21.1535 18.6449 21.0533 18.7451L19.0734 16.7652ZM18.5285 18.1226V18.1691H21.3285V18.1226H18.5285ZM18.5285 18.1691C18.5285 18.6293 18.6763 19.1138 19.0484 19.5054L21.0784 17.5769C21.1629 17.6659 21.2322 17.7753 21.2767 17.8961C21.3197 18.0129 21.3285 18.1104 21.3285 18.1691H18.5285ZM19.0991 19.5561C19.4733 19.9116 19.9438 20.076 20.4215 20.076V17.276C20.4949 17.276 20.6009 17.288 20.7215 17.3341C20.8444 17.381 20.9479 17.4504 21.0276 17.5261L19.0991 19.5561ZM21.8215 18.676V18.6714H19.0215V18.676H21.8215Z" fill="#838383" mask="url(#path-4-inside-1_10930_23090)"/>
<mask id="path-6-inside-2_10930_23090" fill="white">
<path d="M21.2402 19.5317H19.6914V19.8434H21.2402V19.5317Z"/>
</mask>
<path d="M19.6914 19.5317V18.1317H18.2914V19.5317H19.6914ZM21.2402 19.5317H22.6402V18.1317H21.2402V19.5317ZM21.2402 19.8434V21.2434H22.6402V19.8434H21.2402ZM19.6914 19.8434H18.2914V21.2434H19.6914V19.8434ZM19.6914 20.9317H21.2402V18.1317H19.6914V20.9317ZM19.8402 19.5317V19.8434H22.6402V19.5317H19.8402ZM21.2402 18.4434H19.6914V21.2434H21.2402V18.4434ZM21.0914 19.8434V19.5317H18.2914V19.8434H21.0914Z" fill="#838383" mask="url(#path-6-inside-2_10930_23090)"/>
<path d="M18.75 8.48C18.75 7.66 19.41 7 20.23 7H21.52C22.34 7 23 7.66 23 8.48V9.82H18.75V8.48Z" fill="#838383"/>
</g>
<mask id="path-9-inside-3_10930_23090" fill="white">
<path fill-rule="evenodd" clip-rule="evenodd" d="M16 26.5C16 26.2239 16.2239 26 16.5 26H25.9C26.1761 26 26.4 26.2239 26.4 26.5C26.4 26.7761 26.1761 27 25.9 27H16.5C16.2239 27 16 26.7761 16 26.5Z"/>
</mask>
<path d="M16.5 24.6C15.4507 24.6 14.6 25.4507 14.6 26.5H17.4C17.4 26.9971 16.9971 27.4 16.5 27.4V24.6ZM25.9 24.6H16.5V27.4H25.9V24.6ZM27.8 26.5C27.8 25.4507 26.9493 24.6 25.9 24.6V27.4C25.4029 27.4 25 26.9971 25 26.5H27.8ZM25.9 28.4C26.9493 28.4 27.8 27.5493 27.8 26.5H25C25 26.0029 25.4029 25.6 25.9 25.6V28.4ZM16.5 28.4H25.9V25.6H16.5V28.4ZM14.6 26.5C14.6 27.5493 15.4507 28.4 16.5 28.4V25.6C16.9971 25.6 17.4 26.0029 17.4 26.5H14.6Z" fill="#838383" mask="url(#path-9-inside-3_10930_23090)"/>
<mask id="path-11-inside-4_10930_23090" fill="white">
<path fill-rule="evenodd" clip-rule="evenodd" d="M16 28.5C16 28.2239 16.2239 28 16.5 28H23.2143C23.4904 28 23.7143 28.2239 23.7143 28.5C23.7143 28.7761 23.4904 29 23.2143 29H16.5C16.2239 29 16 28.7761 16 28.5Z"/>
</mask>
<path d="M16.5 26.6C15.4507 26.6 14.6 27.4507 14.6 28.5H17.4C17.4 28.9971 16.9971 29.4 16.5 29.4V26.6ZM23.2143 26.6H16.5V29.4H23.2143V26.6ZM25.1143 28.5C25.1143 27.4507 24.2636 26.6 23.2143 26.6V29.4C22.7172 29.4 22.3143 28.9971 22.3143 28.5H25.1143ZM23.2143 30.4C24.2636 30.4 25.1143 29.5493 25.1143 28.5H22.3143C22.3143 28.0029 22.7172 27.6 23.2143 27.6V30.4ZM16.5 30.4H23.2143V27.6H16.5V30.4ZM14.6 28.5C14.6 29.5493 15.4507 30.4 16.5 30.4V27.6C16.9971 27.6 17.4 28.0029 17.4 28.5H14.6Z" fill="#838383" mask="url(#path-11-inside-4_10930_23090)"/>
</g>
</g>
<defs>
<filter id="filter0_b_10930_23090" x="-14" y="-14" width="70" height="70" filterUnits="userSpaceOnUse" color-interpolation-filters="sRGB">
<feFlood flood-opacity="0" result="BackgroundImageFix"/>
<feGaussianBlur in="BackgroundImageFix" stdDeviation="7"/>
<feComposite in2="SourceAlpha" operator="in" result="effect1_backgroundBlur_10930_23090"/>
<feBlend mode="normal" in="SourceGraphic" in2="effect1_backgroundBlur_10930_23090" result="shape"/>
</filter>
<filter id="filter1_d_10930_23090" x="4" y="3" width="34.3701" height="41.71" filterUnits="userSpaceOnUse" color-interpolation-filters="sRGB">
<feFlood flood-opacity="0" result="BackgroundImageFix"/>
<feColorMatrix in="SourceAlpha" type="matrix" values="0 0 0 0 0 0 0 0 0 0 0 0 0 0 0 0 0 0 127 0" result="hardAlpha"/>
<feOffset dy="4"/>
<feGaussianBlur stdDeviation="4"/>
<feComposite in2="hardAlpha" operator="out"/>
<feColorMatrix type="matrix" values="0 0 0 0 0 0 0 0 0 0 0 0 0 0 0 0 0 0 0.1 0"/>
<feBlend mode="normal" in2="BackgroundImageFix" result="effect1_dropShadow_10930_23090"/>
<feBlend mode="normal" in="SourceGraphic" in2="effect1_dropShadow_10930_23090" result="shape"/>
</filter>
<clipPath id="clip0_10930_23090">
<path d="M0 21C0 14.4768 0 11.2152 1.06569 8.64243C2.4866 5.21204 5.21204 2.4866 8.64243 1.06569C11.2152 0 14.4768 0 21 0V0C27.5232 0 30.7848 0 33.3576 1.06569C36.788 2.4866 39.5134 5.21204 40.9343 8.64243C42 11.2152 42 14.4768 42 21V21C42 27.5232 42 30.7848 40.9343 33.3576C39.5134 36.788 36.788 39.5134 33.3576 40.9343C30.7848 42 27.5232 42 21 42V42C14.4768 42 11.2152 42 8.64243 40.9343C5.21204 39.5134 2.4866 36.788 1.06569 33.3576C0 30.7848 0 27.5232 0 21V21Z" fill="white"/>
</clipPath>
</defs>
</svg>
