<svg width="42" height="42" viewBox="0 0 42 42" fill="none" xmlns="http://www.w3.org/2000/svg">
<path d="M16.6639 30.8568H30.6641C31.4683 30.8568 32.1201 30.0382 32.1201 29.0281V13.0701C32.1201 11.8305 31.32 10.8257 30.3331 10.8257L21.7067 10.8328C21.7067 10.8328 20.9974 10.8643 19.8194 10.8328C19.429 10.8224 18.389 10.8331 17.8194 10.8331C17.2498 10.8331 16.2067 10.8328 16.2067 10.8328C16.2067 10.8328 15.3434 10.8324 14.9727 10.8325H12.8654C11.8352 10.8325 11 11.8815 11 13.1755V28.5428C11 29.8206 11.8248 30.8566 12.8422 30.8566H30.335M29.8027 30.8565H13.4877" stroke="#636363"/>
<path d="M30.8134 13.5176C30.8134 12.4886 30.3932 11.9581 29.5717 11.9581H21.7067C21.4602 10.9863 20.1262 10.5044 19.314 10.5044H17.2067C16.7992 10.549 16.5037 10.9805 16.2067 11.3044C16.7067 11.3219 17.7067 11.9217 17.7067 14.1807H27.7067C29.3067 14.1807 29.2067 15.6807 29.2067 16.6807V29.0044C29.2067 29.9273 30.7723 29.9757 30.8116 29.0536C30.8127 29.0255 30.8134 28.9973 30.8134 28.9689V13.5176Z" fill="#7C7C7C"/>
<path d="M33.2374 23.3579C32.5741 23.2862 31.9109 23.1428 31.2835 22.9097C30.7098 22.7125 30.1541 22.4437 29.6343 22.121C29.3654 21.9597 29.0069 21.9597 28.738 22.121C28.2182 22.4437 27.6625 22.7125 27.0888 22.9097C26.4614 23.1248 25.7982 23.2862 25.1349 23.3579C24.6868 23.4117 24.3641 23.7702 24.3641 24.2183V26.7996C24.3641 28.7356 25.4218 30.5282 27.1068 31.4603L28.7739 32.3924C29.0428 32.5359 29.3475 32.5359 29.6164 32.3924L31.2835 31.4603C32.9685 30.5282 34.0261 28.7356 34.0261 26.7996V24.2183C34.0261 23.7702 33.6855 23.3937 33.2553 23.3579H33.2374Z" fill="#636363"/>
<path d="M28.8273 28.8432C28.6839 28.8432 28.5405 28.7894 28.4329 28.6998L27.0168 27.445C26.7658 27.2299 26.7479 26.8535 26.963 26.6025C27.1781 26.3515 27.5546 26.3336 27.8055 26.5487L28.7914 27.4271L30.7453 25.3298C30.9784 25.0967 31.3548 25.0788 31.5878 25.2939C31.8209 25.527 31.8388 25.9034 31.6237 26.1364L29.2754 28.646C29.1679 28.7715 29.0065 28.8432 28.8452 28.8253L28.8273 28.8432Z" fill="#E2E2E2"/>
</svg>
