<svg width="42" height="42" viewBox="0 0 42 42" fill="none" xmlns="http://www.w3.org/2000/svg">
<path d="M28.0764 15.6011H23.6175H17.6325H13.2361C12.9912 15.6011 12.7562 15.6933 12.583 15.8574C12.4098 16.0215 12.3125 16.244 12.3125 16.4761C12.3125 16.7081 12.4098 16.9307 12.583 17.0948C12.7562 17.2589 12.9912 17.3511 13.2361 17.3511H29V16.4761C29 16.244 28.9027 16.0215 28.7295 15.8574C28.5563 15.6933 28.3213 15.6011 28.0764 15.6011Z" fill="#636363" fill-opacity="0.8"/>
<path d="M29.7927 14.749C30.2322 15.1885 30.4792 15.7846 30.4792 16.4063C30.4792 17.3101 31.089 18.0107 31.6056 18.4791C31.7299 18.5918 31.8424 18.7181 31.9408 18.8563C32.2201 19.2488 32.3717 19.7178 32.375 20.1995V22.0938V23.625V25.375V26.25V27.125V27.5625V27.7813V29.6771C32.375 30.2987 32.1281 30.8948 31.6885 31.3344C31.249 31.7739 30.6529 32.0208 30.0312 32.0208H12.9688C12.3471 32.0208 11.751 31.7739 11.3115 31.3344C10.8719 30.8948 10.625 30.2987 10.625 29.6771V16.4063C10.625 15.7846 10.8719 15.1885 11.3115 14.749C11.751 14.3094 12.3471 14.0625 12.9688 14.0625H15.585H25.5192H28.1354C28.757 14.0625 29.3532 14.3094 29.7927 14.749Z" stroke="#636363"/>
<path d="M19.8791 16.2043C19.9673 16.2931 20.0721 16.3636 20.1876 16.4118C20.3031 16.4599 20.427 16.4847 20.5522 16.4847C20.6773 16.4847 20.8012 16.4599 20.9167 16.4118C21.0322 16.3636 21.1371 16.2931 21.2252 16.2043L24.0689 13.3605C24.2005 13.2272 24.2896 13.0579 24.325 12.8741C24.3604 12.6902 24.3406 12.4999 24.268 12.3273C24.1969 12.1542 24.0761 12.006 23.9209 11.9014C23.7657 11.7968 23.583 11.7405 23.3959 11.7396H21.5001V7.94792C21.5001 7.69651 21.4002 7.45541 21.2224 7.27764C21.0447 7.09987 20.8036 7 20.5522 7C20.3008 7 20.0596 7.09987 19.8819 7.27764C19.7041 7.45541 19.6042 7.69651 19.6042 7.94792V11.7396H17.7084C17.5213 11.7405 17.3386 11.7968 17.1834 11.9014C17.0282 12.006 16.9074 12.1542 16.8363 12.3273C16.7637 12.4999 16.7439 12.6902 16.7793 12.8741C16.8148 13.0579 16.9039 13.2272 17.0354 13.3605L19.8791 16.2043Z" fill="#636363"/>
<path d="M32.875 21L33.75 21.875H32.875V21Z" fill="#636363"/>
<path fill-rule="evenodd" clip-rule="evenodd" d="M33.75 21.875C33.75 21.875 33.2984 21.875 32.875 21.875C32.5157 21.875 32.1767 21.875 32.151 21.875L32.137 21.875L29.6698 21.875C27.8606 21.875 26.3125 23.2991 26.3125 25.1563C26.3125 27.0134 27.8606 28.4375 29.6698 28.4375L32.137 28.4375L32.151 28.4375C32.207 28.4375 32.261 28.4376 32.3106 28.4344C33.0454 28.388 33.6954 27.813 33.75 27.0097C33.7536 26.957 33.7536 26.9003 33.7535 26.8476L33.7535 26.8334V23.4792L33.7535 23.4649C33.7536 23.4123 33.75 23.3028 33.75 23.3028V21.875ZM29.4751 26.0313C29.9409 26.0313 30.3185 25.6395 30.3185 25.1563C30.3185 24.673 29.9409 24.2813 29.4751 24.2813C29.0094 24.2813 28.6318 24.673 28.6318 25.1563C28.6318 25.6395 29.0094 26.0313 29.4751 26.0313Z" fill="#636363"/>
</svg>
