<svg width="42" height="42" viewBox="0 0 42 42" fill="none" xmlns="http://www.w3.org/2000/svg">
<path d="M10.1105 8C8.94301 8 8 8.94301 8 10.1105H12.2301C12.2301 8.94301 11.287 8 10.1195 8H10.1105Z" fill="#636363"/>
<path d="M31.165 10.1195V33.5H14.3316C13.4403 33.5 12.7211 32.7809 12.7211 31.8894V10.1105C12.7211 9.5024 12.514 8.94337 12.1665 8.5H28.3554L28.3464 8.50899H29.5544C30.4459 8.50899 31.165 9.22814 31.165 10.1195Z" stroke="#636363"/>
<path d="M29.5635 31.8895H16.4602C16.4602 33.057 15.5172 34 14.3496 34H31.683C32.8505 34 33.7935 33.057 33.7935 31.8895H29.5635Z" fill="#636363"/>
<path d="M16.5 26H27.5M16.5 28H25.1" stroke="#636363" stroke-width="1.2" stroke-linecap="round"/>
<path d="M21.6062 15.5889C21.6062 16.6756 20.8698 17.2593 20.0704 17.2593C19.2172 17.2593 18.5706 16.6307 18.5706 15.6877C18.5706 14.8075 19.1364 14.0531 20.1064 14.0531C21.0763 14.0531 21.5972 14.7536 21.5972 15.5889H21.6062ZM19.6304 15.6517C19.6304 16.1457 19.792 16.487 20.1064 16.487C20.3938 16.487 20.5464 16.1996 20.5464 15.6517C20.5464 15.1668 20.4297 14.8165 20.0974 14.8165C19.7651 14.8165 19.6304 15.1847 19.6304 15.6517ZM20.1872 19.4327L23.1509 14.0441H23.8964L20.9326 19.4327H20.1872ZM25.5219 17.7533C25.5219 18.84 24.7855 19.4237 23.9862 19.4237C23.133 19.4237 22.4863 18.7951 22.4863 17.8431C22.4863 16.963 23.0521 16.2085 24.0221 16.2085C24.992 16.2085 25.5129 16.9091 25.5129 17.7533H25.5219ZM23.5461 17.8161C23.5461 18.3101 23.6988 18.6514 24.0221 18.6514C24.3095 18.6514 24.4622 18.364 24.4622 17.8161C24.4622 17.3312 24.3364 16.9719 24.0131 16.9719C23.6718 16.9719 23.5461 17.3402 23.5461 17.8161Z" fill="#636363"/>
</svg>
