<svg width="42" height="42" viewBox="0 0 42 42" fill="none" xmlns="http://www.w3.org/2000/svg">
<path d="M17.2142 9.366L17.2143 9.36597C18.9242 8.78033 19.882 8.45831 20.875 8.45831C21.868 8.45831 22.8258 8.78033 24.5357 9.36598L24.5358 9.366L25.3844 9.65652L25.3845 9.65652C27.1187 10.2502 28.4364 10.7014 29.3749 11.0827C29.8473 11.2746 30.236 11.4536 30.5394 11.6298C30.8371 11.8027 31.0849 11.9909 31.2415 12.214C31.3971 12.4357 31.492 12.7318 31.5574 13.071C31.6241 13.4169 31.6665 13.8449 31.6944 14.3571C31.7498 15.375 31.75 16.7764 31.75 18.6214V20.4899C31.75 27.2986 26.6209 30.5853 23.4768 31.9588L23.4767 31.9588L23.4451 31.9726C23.4451 31.9726 23.4451 31.9726 23.4451 31.9726C23.0441 32.1478 22.7072 32.294 22.3241 32.3921C21.9252 32.4942 21.4894 32.5416 20.875 32.5416C20.2606 32.5416 19.8248 32.4942 19.4259 32.3921C19.0428 32.294 18.7058 32.1478 18.3049 31.9726L18.3048 31.9726L18.2732 31.9588L18.2732 31.9588C15.1291 30.5853 10 27.2986 10 20.4899V18.6212C10 16.7762 10.0002 15.375 10.0556 14.3571C10.0835 13.8449 10.1259 13.4169 10.1926 13.071C10.258 12.7318 10.3529 12.4357 10.5085 12.214C10.6651 11.9909 10.9129 11.8027 11.2106 11.6298C11.514 11.4536 11.9027 11.2746 12.3751 11.0827C13.3136 10.7014 14.6313 10.2502 16.3655 9.65653L16.3655 9.65652L17.2142 9.366Z" stroke="#636363"/>
<path fill-rule="evenodd" clip-rule="evenodd" d="M20.875 14.9583C18.4588 14.9583 16.5 16.9171 16.5 19.3333C16.5 20.7656 17.1886 22.0363 18.25 22.8335V24C18.25 25.1276 19.1641 26.0416 20.2917 26.0416H21.4583C22.5859 26.0416 23.5 25.1276 23.5 24V22.8335C24.5614 22.0363 25.25 20.7656 25.25 19.3333C25.25 16.9171 23.2912 14.9583 20.875 14.9583ZM18.25 19.3333C18.25 17.8836 19.4253 16.7083 20.875 16.7083C22.3247 16.7083 23.5 17.8836 23.5 19.3333C23.5 20.3038 22.9738 21.1525 22.1869 21.6077C21.9165 21.7641 21.75 22.0527 21.75 22.3651V24C21.75 24.1611 21.6194 24.2916 21.4583 24.2916H20.2917C20.1306 24.2916 20 24.1611 20 24V22.3651C20 22.0527 19.8335 21.7641 19.5631 21.6077C18.7762 21.1525 18.25 20.3038 18.25 19.3333Z" fill="#636363"/>
<path fill-rule="evenodd" clip-rule="evenodd" d="M20.875 14.9583C18.4588 14.9583 16.5 16.9171 16.5 19.3333C16.5 20.7656 17.1886 22.0363 18.25 22.8335V24C18.25 25.1276 19.1641 26.0416 20.2917 26.0416H21.4583C22.5859 26.0416 23.5 25.1276 23.5 24V22.8335C24.5614 22.0363 25.25 20.7656 25.25 19.3333C25.25 16.9171 23.2912 14.9583 20.875 14.9583ZM18.25 19.3333C18.25 17.8836 19.4253 16.7083 20.875 16.7083C22.3247 16.7083 23.5 17.8836 23.5 19.3333C23.5 20.3038 22.9738 21.1525 22.1869 21.6077C21.9165 21.7641 21.75 22.0527 21.75 22.3651V24C21.75 24.1611 21.6194 24.2916 21.4583 24.2916H20.2917C20.1306 24.2916 20 24.1611 20 24V22.3651C20 22.0527 19.8335 21.7641 19.5631 21.6077C18.7762 21.1525 18.25 20.3038 18.25 19.3333Z" fill="#636363"/>
</svg>
