<svg width="42" height="42" viewBox="0 0 42 42" fill="none" xmlns="http://www.w3.org/2000/svg">
<path d="M25.5301 23.5499L21.7001 27.3799C21.5301 27.5599 21.4401 27.7899 21.4401 28.0299C21.4401 28.2699 21.5401 28.5099 21.7201 28.6799C21.8901 28.8499 22.1301 28.9499 22.3701 28.9399C22.6101 28.9299 22.8501 28.8399 23.0201 28.6699L26.6201 25.0599C26.6701 25.0099 26.7301 24.9699 26.8001 24.9399C26.8701 24.9099 26.9401 24.8999 27.0101 24.8999C27.0801 24.8999 27.1501 24.9099 27.2201 24.9399C27.2901 24.9699 27.3501 25.0099 27.4001 25.0599C27.4501 25.1099 27.4901 25.1699 27.5201 25.2399C27.5501 25.3099 27.5601 25.3799 27.5601 25.4499C27.5601 25.5199 27.5501 25.5899 27.5201 25.6599C27.4901 25.7299 27.4501 25.7899 27.4001 25.8399L23.7801 29.4599C23.4401 29.7899 22.9901 29.9999 22.5201 30.0299C22.0501 30.0599 21.5701 29.9299 21.1901 29.6499H16.8701C16.7501 29.6499 16.6201 29.6499 16.5001 29.6899C16.3801 29.7299 16.2701 29.7899 16.1801 29.8699C16.0901 29.9499 16.0101 30.0499 15.9601 30.1599C15.9101 30.2699 15.8801 30.3899 15.8701 30.5199C15.8701 30.6399 15.8801 30.7699 15.9301 30.8799C15.9701 30.9999 16.0401 31.0999 16.1201 31.1899C16.2101 31.2799 16.3101 31.3499 16.4201 31.3999C16.5301 31.4499 16.6601 31.4799 16.7801 31.4799H24.7701C25.2101 31.4799 25.6301 31.2999 25.9401 30.9999L28.5201 28.4199C28.7101 28.2299 28.9301 28.0799 29.1701 27.9799C29.4101 27.8799 29.6801 27.8299 29.9401 27.8299H31.7601V23.0599H26.7001C26.4801 23.0599 26.2701 23.0999 26.0701 23.1899C25.8701 23.2699 25.6901 23.3999 25.5301 23.5499Z" fill="#636363"/>
<path d="M34.1301 22.34H33.3601C33.2201 22.34 33.0901 22.39 32.9901 22.48C32.8901 22.57 32.8301 22.7 32.8201 22.83V28.08C32.8301 28.21 32.8901 28.34 32.9901 28.42C33.0901 28.51 33.2201 28.56 33.3501 28.56H34.1201C34.2601 28.56 34.4001 28.5 34.5001 28.4C34.6001 28.3 34.6601 28.16 34.6601 28.02V22.87C34.6601 22.8 34.6501 22.73 34.6201 22.66C34.5901 22.59 34.5501 22.54 34.5001 22.49C34.4501 22.44 34.3901 22.4 34.3301 22.37C34.2601 22.34 34.1901 22.33 34.1201 22.33L34.1301 22.34Z" fill="#636363"/>
<path d="M20.3301 27.45C20.4301 27.11 20.5901 26.8 20.8401 26.55L24.6301 22.76C25.0401 21.74 25.2601 20.63 25.2601 19.46C25.2601 14.51 21.2501 10.5 16.3001 10.5C11.3501 10.5 7.34009 14.51 7.34009 19.46C7.34009 24.41 11.3501 28.42 16.3001 28.42C17.7501 28.42 19.1201 28.07 20.3301 27.46V27.45Z" stroke="#636363"/>
<path d="M17.11 20.85H16.97C16.93 20.94 16.87 21.03 16.81 21.11C16.75 21.19 16.67 21.26 16.57 21.33C16.47 21.39 16.36 21.44 16.22 21.48C16.09 21.52 15.92 21.54 15.73 21.54C15.48 21.54 15.26 21.5 15.04 21.41C14.83 21.32 14.65 21.19 14.49 21.02C14.34 20.84 14.21 20.63 14.12 20.38C14.03 20.13 13.99 19.84 13.99 19.52V19.38C13.99 19.06 14.04 18.77 14.13 18.52C14.23 18.27 14.35 18.06 14.51 17.89C14.68 17.71 14.86 17.58 15.08 17.49C15.3 17.4 15.53 17.35 15.77 17.35C16.09 17.35 16.34 17.41 16.53 17.53C16.72 17.65 16.86 17.82 16.97 18.03H17.11V17.12H15.86V16.21H17.11V15.83H18.12V16.21H18.6V17.12H18.12V21.42H17.11V20.84V20.85ZM16.06 20.58C16.37 20.58 16.63 20.48 16.82 20.28C17.02 20.08 17.12 19.81 17.12 19.49V19.39C17.12 19.06 17.02 18.8 16.82 18.61C16.63 18.41 16.37 18.31 16.06 18.31C15.75 18.31 15.49 18.41 15.29 18.61C15.09 18.81 15 19.07 15 19.4V19.5C15 19.84 15.1 20.1 15.29 20.3C15.49 20.49 15.74 20.59 16.06 20.59V20.58Z" fill="#636363"/>
<path d="M17.82 22.4299H14.49V23.0999H17.82V22.4299Z" fill="#636363"/>
</svg>
