<svg width="42" height="42" viewBox="0 0 42 42" fill="none" xmlns="http://www.w3.org/2000/svg">
<g filter="url(#filter0_b_10898_18979)">
<path d="M13.2852 10.3398H29.0848C29.4487 10.3398 29.87 10.7123 29.87 11.3399V31.2099C29.87 31.8374 29.4487 32.2099 29.0848 32.2099H13.2852C12.9213 32.2099 12.5 31.8374 12.5 31.2099V11.3399C12.5 10.7123 12.9213 10.3398 13.2852 10.3398Z" stroke="#838383"/>
<path d="M26.2302 27.52C26.0802 27.52 25.9802 27.53 25.9302 27.54V28.48C25.9802 28.48 26.0502 28.49 26.1502 28.49C26.5402 28.49 26.7802 28.29 26.7802 27.98C26.7802 27.71 26.5902 27.52 26.2202 27.52H26.2302Z" fill="url(#paint0_linear_10898_18979)"/>
<path fill-rule="evenodd" clip-rule="evenodd" d="M26.5 22.4102C23.1863 22.4102 20.5 25.0964 20.5 28.4102C20.5 31.7239 23.1863 34.4102 26.5 34.4102C29.8137 34.4102 32.5 31.7239 32.5 28.4102C32.5 25.0964 29.8137 22.4102 26.5 22.4102Z" fill="#B1B1B1"/>
<path d="M30.2097 26.7002C29.6143 25.3235 28.5213 24.7189 28.0702 24.5096C25.9168 23.5096 23.3494 24.4538 22.3495 26.6072C21.3495 28.7606 22.2936 31.328 24.4471 32.328C24.8936 32.5373 25.368 32.6628 25.8517 32.7093C25.9586 32.7186 26.061 32.6628 26.1028 32.5652L26.5958 31.5001C26.633 31.421 26.6237 31.328 26.5772 31.2536C26.5307 31.1792 26.447 31.1373 26.3586 31.142C25.9261 31.1606 25.5075 31.0768 25.1122 30.8908C23.7494 30.2583 23.1541 28.6397 23.7866 27.277C24.4192 25.9142 26.0377 25.3189 27.4005 25.9514C27.9818 26.2212 28.4423 26.677 28.712 27.2491L28.1028 27.4723C28.0144 27.5049 27.9539 27.5793 27.94 27.6723C27.926 27.7653 27.9632 27.8537 28.0376 27.9095L30.1678 29.4955C30.2376 29.5467 30.3259 29.5606 30.405 29.5281C30.4329 29.5188 30.4608 29.5002 30.4794 29.4862C30.5166 29.4536 30.5399 29.4164 30.5538 29.3839C30.5585 29.3699 30.5631 29.356 30.5631 29.3467L31.1631 26.7607C31.1864 26.6723 31.1538 26.5747 31.0841 26.5142C31.0143 26.4537 30.9166 26.4351 30.8282 26.4677L30.2004 26.7002H30.2097Z" fill="#838383"/>
<path d="M26.5449 29.2118H26.4797C26.4611 29.2536 26.4332 29.2955 26.4053 29.3327C26.3774 29.3699 26.3402 29.4025 26.2937 29.435C26.2472 29.4629 26.196 29.4862 26.1309 29.5048C26.0705 29.5234 25.9914 29.5327 25.903 29.5327C25.7868 29.5327 25.6844 29.5141 25.5821 29.4722C25.4844 29.4304 25.4007 29.3699 25.3263 29.2908C25.2565 29.2071 25.1961 29.1094 25.1542 28.9932C25.1124 28.8769 25.0938 28.742 25.0938 28.5932V28.5281C25.0938 28.3792 25.117 28.2444 25.1589 28.1281C25.2054 28.0118 25.2612 27.9141 25.3356 27.8351C25.4147 27.7513 25.4984 27.6909 25.6007 27.649C25.703 27.6072 25.81 27.5839 25.9216 27.5839C26.0705 27.5839 26.1867 27.6118 26.2751 27.6676C26.3635 27.7234 26.4286 27.8025 26.4797 27.9002H26.5449V27.4769H25.9635V27.0537H26.5449V26.877H27.0146V27.0537H27.2379V27.4769H27.0146V29.4769H26.5449V29.2071V29.2118ZM26.0519 29.0815C26.196 29.0815 26.317 29.035 26.4053 28.942C26.4984 28.849 26.5449 28.7234 26.5449 28.5746V28.5281C26.5449 28.3746 26.4984 28.2537 26.4053 28.1653C26.317 28.0723 26.196 28.0258 26.0519 28.0258C25.9077 28.0258 25.7868 28.0723 25.6937 28.1653C25.6007 28.2583 25.5589 28.3792 25.5589 28.5327V28.5792C25.5589 28.7374 25.6054 28.8583 25.6937 28.9513C25.7868 29.0397 25.903 29.0862 26.0519 29.0862V29.0815Z" fill="#838383"/>
<path d="M26.8706 29.9419H25.3218V30.2535H26.8706V29.9419Z" fill="#838383"/>
<path d="M18.75 8.48C18.75 7.66 19.41 7 20.23 7H21.52C22.34 7 23 7.66 23 8.48V9.82H18.75V8.48Z" fill="#838383"/>
<mask id="path-9-inside-1_10898_18979" fill="white">
<path fill-rule="evenodd" clip-rule="evenodd" d="M14 14.7103C14 14.3237 14.3134 14.0103 14.7 14.0103H27.3C27.6866 14.0103 28 14.3237 28 14.7103C28 15.0969 27.6866 15.4103 27.3 15.4103H14.7C14.3134 15.4103 14 15.0969 14 14.7103ZM14 17.7103C14 17.3237 14.3134 17.0103 14.7 17.0103H23.3C23.6866 17.0103 24 17.3237 24 17.7103C24 18.0969 23.6866 18.4103 23.3 18.4103H14.7C14.3134 18.4103 14 18.0969 14 17.7103ZM14 20.7103C14 20.3237 14.3134 20.0103 14.7 20.0103H20.3C20.6866 20.0103 21 20.3237 21 20.7103C21 21.0969 20.6866 21.4103 20.3 21.4103H14.7C14.3134 21.4103 14 21.0969 14 20.7103Z"/>
</mask>
<path d="M14.7 12.6103C13.5402 12.6103 12.6 13.5505 12.6 14.7103H15.4C15.4 15.0969 15.0866 15.4103 14.7 15.4103V12.6103ZM27.3 12.6103H14.7V15.4103H27.3V12.6103ZM29.4 14.7103C29.4 13.5505 28.4598 12.6103 27.3 12.6103V15.4103C26.9134 15.4103 26.6 15.0969 26.6 14.7103H29.4ZM27.3 16.8103C28.4598 16.8103 29.4 15.8701 29.4 14.7103H26.6C26.6 14.3237 26.9134 14.0103 27.3 14.0103V16.8103ZM14.7 16.8103H27.3V14.0103H14.7V16.8103ZM12.6 14.7103C12.6 15.8701 13.5402 16.8103 14.7 16.8103V14.0103C15.0866 14.0103 15.4 14.3237 15.4 14.7103H12.6ZM14.7 15.6103C13.5402 15.6103 12.6 16.5505 12.6 17.7103H15.4C15.4 18.0969 15.0866 18.4103 14.7 18.4103V15.6103ZM23.3 15.6103H14.7V18.4103H23.3V15.6103ZM25.4 17.7103C25.4 16.5505 24.4598 15.6103 23.3 15.6103V18.4103C22.9134 18.4103 22.6 18.0969 22.6 17.7103H25.4ZM23.3 19.8103C24.4598 19.8103 25.4 18.8701 25.4 17.7103H22.6C22.6 17.3237 22.9134 17.0103 23.3 17.0103V19.8103ZM14.7 19.8103H23.3V17.0103H14.7V19.8103ZM12.6 17.7103C12.6 18.8701 13.5402 19.8103 14.7 19.8103V17.0103C15.0866 17.0103 15.4 17.3237 15.4 17.7103H12.6ZM14.7 18.6103C13.5402 18.6103 12.6 19.5505 12.6 20.7103H15.4C15.4 21.0969 15.0866 21.4103 14.7 21.4103V18.6103ZM20.3 18.6103H14.7V21.4103H20.3V18.6103ZM22.4 20.7103C22.4 19.5505 21.4598 18.6103 20.3 18.6103V21.4103C19.9134 21.4103 19.6 21.0969 19.6 20.7103H22.4ZM20.3 22.8103C21.4598 22.8103 22.4 21.8701 22.4 20.7103H19.6C19.6 20.3237 19.9134 20.0103 20.3 20.0103V22.8103ZM14.7 22.8103H20.3V20.0103H14.7V22.8103ZM12.6 20.7103C12.6 21.8701 13.5402 22.8103 14.7 22.8103V20.0103C15.0866 20.0103 15.4 20.3237 15.4 20.7103H12.6Z" fill="#838383" mask="url(#path-9-inside-1_10898_18979)"/>
</g>
<defs>
<filter id="filter0_b_10898_18979" x="-14" y="-14" width="70" height="70" filterUnits="userSpaceOnUse" color-interpolation-filters="sRGB">
<feFlood flood-opacity="0" result="BackgroundImageFix"/>
<feGaussianBlur in="BackgroundImageFix" stdDeviation="7"/>
<feComposite in2="SourceAlpha" operator="in" result="effect1_backgroundBlur_10898_18979"/>
<feBlend mode="normal" in="SourceGraphic" in2="effect1_backgroundBlur_10898_18979" result="shape"/>
</filter>
<linearGradient id="paint0_linear_10898_18979" x1="26.3552" y1="28.49" x2="26.3552" y2="27.52" gradientUnits="userSpaceOnUse">
<stop stop-color="#FCDBFF"/>
<stop offset="1" stop-color="white"/>
</linearGradient>
</defs>
</svg>
