<svg width="42" height="42" viewBox="0 0 42 42" fill="none" xmlns="http://www.w3.org/2000/svg">
<path d="M10.1105 8C8.94301 8 8 8.94301 8 10.1105H12.2301C12.2301 8.94301 11.287 8 10.1195 8H10.1105Z" fill="#636363"/>
<path fill-rule="evenodd" clip-rule="evenodd" d="M29.5633 8.009C29.5663 8.00901 29.5693 8.00903 29.5723 8.00905C29.9707 8.01237 30.3424 8.12547 30.6587 8.31964C31.2628 8.69051 31.6649 9.35715 31.6649 10.1195V34H14.3315C13.164 34 12.221 33.057 12.221 31.8895V10.1105C12.221 9.70277 12.106 9.32238 11.9065 9C11.5349 8.39933 10.8702 8 10.1105 8H29.5633L29.5543 8.00898C29.5573 8.00898 29.5603 8.00899 29.5633 8.009ZM27.1455 9H13.0174C13.149 9.34479 13.221 9.71914 13.221 10.1105V31.8895C13.221 32.5047 13.7163 33 14.3315 33H30.6649V10.1195C30.6649 9.50429 30.1696 9.00898 29.5543 9.00898H27.1365L27.1455 9Z" fill="#636363"/>
<path d="M16.4601 31.8895C16.4601 33.0571 15.5171 34.0001 14.3495 34.0001H31.6829C32.8504 34.0001 33.7934 33.0571 33.7934 31.8895H16.4601Z" fill="#636363"/>
<path d="M19.0384 18V16.1681H20.2851V16.5426H19.5043V16.9603H20.214V17.317H19.5043V18H19.0384ZM20.4907 18V16.1681H21.2715C21.6803 16.1681 21.9444 16.4245 21.9444 16.8168V16.8193C21.9444 17.2116 21.6803 17.463 21.2715 17.463H20.9567V18H20.4907ZM21.1598 16.5248H20.9567V17.1126H21.1598C21.3566 17.1126 21.4734 17.0098 21.4734 16.8193V16.8168C21.4734 16.6264 21.3566 16.5248 21.1598 16.5248ZM22.5766 18V16.5426H22.0713V16.1681H23.5465V16.5426H23.0412V18H22.5766ZM24.4491 18.033C23.9934 18.033 23.7052 17.8312 23.6849 17.4808L23.6836 17.4579H24.1165L24.1191 17.4719C24.1419 17.5899 24.279 17.6674 24.458 17.6674C24.6434 17.6674 24.7576 17.5887 24.7576 17.4744V17.4731C24.7576 17.369 24.6764 17.3208 24.4618 17.2789L24.2739 17.2434C23.9109 17.1761 23.7192 16.9971 23.7192 16.7165V16.7152C23.7192 16.3623 24.0251 16.1351 24.4453 16.1351C24.9049 16.1351 25.1652 16.3509 25.1817 16.6835L25.1829 16.7102H24.75L24.7488 16.6962C24.7348 16.5756 24.6167 16.5007 24.4491 16.5007C24.2778 16.5007 24.1813 16.5781 24.1813 16.6835V16.6848C24.1813 16.7838 24.2676 16.8358 24.4644 16.8727L24.6523 16.9082C25.0407 16.9831 25.221 17.1405 25.221 17.4338V17.4351C25.221 17.8007 24.9341 18.033 24.4491 18.033Z" fill="#636363"/>
<path fill-rule="evenodd" clip-rule="evenodd" d="M21.954 12.15C20.325 12.15 18.8989 13.0079 18.109 14.2928C17.9933 14.481 17.7469 14.5398 17.5587 14.4241C17.3706 14.3084 17.3118 14.062 17.4275 13.8738C18.3579 12.3603 20.0376 11.35 21.954 11.35C24.8778 11.35 27.2535 13.7025 27.2535 16.6111V16.623L27.5516 16.3271C27.7084 16.1715 27.9617 16.1725 28.1173 16.3294C28.2729 16.4862 28.2719 16.7394 28.1151 16.895L27.1352 17.8673C26.9792 18.022 26.7277 18.022 26.5717 17.8673L25.5918 16.895C25.435 16.7394 25.434 16.4862 25.5896 16.3294C25.7452 16.1725 25.9985 16.1715 26.1553 16.3271L26.4535 16.623V16.6111C26.4535 14.1502 24.442 12.15 21.954 12.15ZM16.8691 16.1322C17.0249 15.9781 17.2756 15.9781 17.4314 16.1322L18.4151 17.1044C18.5722 17.2597 18.5737 17.5129 18.4184 17.6701C18.2631 17.8272 18.0098 17.8286 17.8527 17.6734L17.5502 17.3744V17.3889C17.5502 19.8483 19.5687 21.85 22.0684 21.85C23.7049 21.85 25.1369 20.9914 25.9298 19.7066C26.0458 19.5186 26.2923 19.4602 26.4803 19.5762C26.6683 19.6923 26.7266 19.9387 26.6106 20.1267C25.6765 21.6403 23.9909 22.65 22.0684 22.65C19.1357 22.65 16.7502 20.2989 16.7502 17.3889V17.3744L16.4478 17.6734C16.2907 17.8286 16.0374 17.8272 15.8821 17.6701C15.7268 17.5129 15.7283 17.2597 15.8854 17.1044L16.8691 16.1322Z" fill="#636363"/>
<path d="M16.5 26H27.5M16.5 28H25.1" stroke="#636363" stroke-width="1.2" stroke-linecap="round"/>
</svg>
