<svg width="43" height="43" viewBox="0 0 43 43" fill="none" xmlns="http://www.w3.org/2000/svg">
<path d="M15.5923 31.2339L15.5912 31.2348C15.4378 31.3537 15.3051 31.4116 15.1919 31.4307C15.0851 31.4487 14.9667 31.4374 14.8236 31.3691C14.6722 31.2965 14.5895 31.2085 14.5384 31.1128C14.4833 31.0099 14.4475 30.865 14.4475 30.66V30.6202V30.5804V30.5406V30.5008V30.461V30.4213V30.3815V30.3417V30.3019V30.2621V30.2223V30.1825V30.1427V30.103V30.0632V30.0234V29.9836V29.9438V29.904V29.8642V29.8244V29.7846V29.7449V29.7051V29.6653V29.6255V29.5857V29.5459V29.5061V29.4663V29.4265V29.3867V29.3469V29.3071V29.2674V29.2276V29.1878V29.148V29.1082V29.0684V29.0286V28.9888V28.949V28.9092V28.8694V28.8296V28.7898V28.75V28.7102V28.6704V28.6306V28.5908V28.551V28.5112V28.4715V28.4317V28.3919V28.3521V28.3123V28.2725V28.2327V28.1929V28.1531V28.1133V28.0735V28.0337V27.9939V27.9541V27.9143V27.8745V27.8347V27.7949V27.7551V27.7153V27.6755V27.6357V27.5959V27.5561V27.5163V27.4765V27.4367V27.3969V27.3571V27.3173V27.2775V27.2376V27.1978V27.158V27.1182V27.0784V27.0386V26.9988V26.959V26.9192V26.8794V26.8396V26.7998V26.76V26.7202V26.6804V26.6406V26.6008V26.561V26.5212V26.4814V26.4415V26.4017V26.3619V26.3221V26.2823V26.2425V26.2027V26.1629V26.1231V26.0833V26.0435V26.0037V25.9639V25.924V25.8842V25.8444V25.8046V25.7648V25.725V25.6852V25.6454V25.6056V25.5658V25.5259V25.4861V25.4463V25.4065V25.3667V25.3269V25.2871V25.2473V25.2074V25.1676V25.1278V25.088V25.0482V25.0084V24.9686V24.9288V24.8889V24.8491V24.8093V24.7695V24.7297V24.6899V24.6501V24.6102V24.5704V24.5306V24.4908V24.451V24.4112V24.3714V24.3315V24.2917V24.2519V24.2121V24.1723V24.1325V24.0926V24.0528V24.013V23.9732V23.9334V23.8936V23.8537V23.8139V23.7741V23.7343V23.6945V23.6546V23.6148V23.575V23.5352V23.4954V23.4555V23.4157V23.3759V23.3361V23.2963V23.2565V23.2166V23.1768V23.137V23.0972V23.0573V23.0175V22.9777V22.9379V22.8981V22.8582V22.8184V22.7786V22.7388V22.699V22.6591V22.6193V22.5795V22.5397V22.4998V22.46V22.4202V22.3804V22.3406V22.3007V22.2609V22.2211V22.1813V22.1414V22.1016V22.0618V22.022V21.9821V21.9423V21.9025V21.8627V21.8228V21.783V21.7432V21.7034V21.6635V21.6237V21.5839V21.5441V21.5042V21.4644V21.4246V21.3848V21.3449V21.3051V21.2653V21.2255V21.1856V21.1458V21.106V21.0661V21.0263V20.9865V20.9467V20.9068V20.867V20.8272V20.7873V20.7475V20.7077V20.6679V20.628V20.5882V20.5484V20.5085V20.4687V20.4289V20.3891V20.3492V20.3094V20.2696V20.2297V20.1899V20.1501V20.1103V20.0704V20.0306V19.9908V19.9509V19.9111V19.8713V19.8314V19.7916V19.7518V19.7119V19.6721V19.6323V19.5925V19.5526V19.5128V19.473V19.4331V19.3933V19.3535V19.3136V19.2738V19.234V19.1941V19.1543V19.1145V19.0746V19.0348V18.995V18.9551V18.9153V18.8755V18.8356V18.7958V18.756V18.7161V18.6763V18.6365V18.5966V18.5568V18.517V18.4771V18.4373V18.3975V18.3576V18.3178V18.278V18.2381V18.1983V18.1585V18.1186V18.0788V18.0389V17.9991V17.9593V17.9194V17.8796V17.8398V17.7999V17.7601V17.7203V17.6804V17.6406V17.6008V17.5609V17.5211V17.4812V17.4414V17.4016V17.3617V17.3219V17.2821V17.2422V17.2024V17.1626V17.1227V17.0829V17.043V17.0032V16.9634V16.9235V16.8837V16.8439V16.804V16.7642V16.7243V16.6845V16.6447V16.6048V16.565V16.5252V16.4853V16.4455V16.4056V16.3658V16.326V16.2861V16.2463V16.2064V16.1666V16.1268V16.0869V16.0471V16.0072V15.9674V15.9276V15.8877V15.8479V15.8081V15.7682V15.7284V15.6885V15.6487V15.6089V15.569V15.5292V15.4893V15.4495V15.4097V15.3698V15.33V15.2901V15.2503V15.2105V15.1706V15.1308V15.0909V15.0511V15.0113V14.9714V14.9316V14.8917V14.8519V14.812V14.7722V14.7324V14.6925V14.6527V14.6128V14.573V14.5332V14.4933V14.4535V14.4136V14.3738V14.334V14.2941V14.2543V14.2144V14.1746V14.1347V14.0949V14.0551V14.0152V13.9754V13.9355V13.8957V13.8559V13.816V13.7762V13.7363V13.6965V13.6566V13.6168V13.577V13.5371V13.4973V13.4574V13.4176V13.3777V13.3379V13.2981V13.2582V13.2184V13.1785V13.1387V13.0988V13.059V13.0192V12.9793V12.9395V12.8996V12.8598V12.82V12.7801V12.7403V12.7004V12.6606V12.6207V12.5809V12.541V12.5012V12.4614V12.4215V12.3817V12.3418V12.302V12.2621V12.2223V12.1825V12.1426V12.1028V12.0629V12.0231V11.9832V11.9434V11.9036V11.8637V11.8239V11.784V11.7442V11.7043V11.6645V11.6247V11.5848V11.545V11.5051V11.4653V11.4254V11.3856V11.3457V11.3059V11.2661V11.2262V11.1864V11.1465V11.1067V11.0668V11.027V10.9872V10.9473V10.9075V10.8676V10.8278V10.7879V10.7481V10.7083V10.6684V10.6286V10.5887V10.5489V10.509V10.4692V10.4293V10.3895V10.3497V10.3098V10.27C14.4475 9.94538 14.5358 9.77407 14.6307 9.68137C14.7275 9.5868 14.9069 9.5 15.2375 9.5H15.2684H15.2993H15.3301H15.361H15.3919H15.4228H15.4537H15.4845H15.5154H15.5463H15.5772H15.608H15.6389H15.6698H15.7007H15.7315H15.7624H15.7933H15.8242H15.855H15.8859H15.9168H15.9477H15.9785H16.0094H16.0403H16.0712H16.102H16.1329H16.1638H16.1946H16.2255H16.2564H16.2873H16.3181H16.349H16.3799H16.4107H16.4416H16.4725H16.5034H16.5342H16.5651H16.596H16.6268H16.6577H16.6886H16.7194H16.7503H16.7812H16.812H16.8429H16.8738H16.9046H16.9355H16.9664H16.9972H17.0281H17.059H17.0898H17.1207H17.1516H17.1824H17.2133H17.2442H17.275H17.3059H17.3368H17.3676H17.3985H17.4294H17.4602H17.4911H17.522H17.5528H17.5837H17.6145H17.6454H17.6763H17.7071H17.738H17.7689H17.7997H17.8306H17.8614H17.8923H17.9232H17.954H17.9849H18.0157H18.0466H18.0775H18.1083H18.1392H18.17H18.2009H18.2318H18.2626H18.2935H18.3243H18.3552H18.386H18.4169H18.4478H18.4786H18.5095H18.5403H18.5712H18.602H18.6329H18.6638H18.6946H18.7255H18.7563H18.7872H18.818H18.8489H18.8797H18.9106H18.9415H18.9723H19.0032H19.034H19.0649H19.0957H19.1266H19.1574H19.1883H19.2191H19.25H19.2808H19.3117H19.3426H19.3734H19.4043H19.4351H19.466H19.4968H19.5277H19.5585H19.5894H19.6202H19.6511H19.6819H19.7128H19.7436H19.7745H19.8053H19.8362H19.867H19.8979H19.9287H19.9596H19.9904H20.0213H20.0521H20.083H20.1138H20.1447H20.1755H20.2064H20.2372H20.2681H20.2989H20.3297H20.3606H20.3914H20.4223H20.4531H20.484H20.5148H20.5457H20.5765H20.6074H20.6382H20.6691H20.6999H20.7307H20.7616H20.7924H20.8233H20.8541H20.885H20.9158H20.9467H20.9775H21.0084H21.0392H21.07H21.1009H21.1317H21.1626H21.1934H21.2243H21.2551H21.2859H21.3168H21.3476H21.3785H21.4093H21.4402H21.471H21.5018H21.5327H21.5635H21.5944H21.6252H21.656H21.6869H21.7177H21.7486H21.7794H21.8102H21.8411H21.8719H21.9028H21.9336H21.9644H21.9953H22.0261H22.057H22.0878H22.1186H22.1495H22.1803H22.2112H22.242H22.2728H22.3037H22.3345H22.3653H22.3962H22.427H22.4579H22.4887H22.5195H22.5504H22.5812H22.612H22.6429H22.6737H22.7046H22.7354H22.7662H22.7971H22.8279H22.8587H22.8896H22.9204H22.9512H22.9821H23.0129H23.0438H23.0746H23.1054H23.1363H23.1671H23.1979H23.2288H23.2596H23.2904H23.3213H23.3521H23.3829H23.4138H23.4446H23.4754H23.5063H23.5371H23.5679H23.5988H23.6296H23.6604H23.6913H23.7221H23.7529H23.7838H23.8146H23.8454H23.8763H23.9071H23.9379H23.9688H23.9996H24.0304H24.0613H24.0921H24.1229H24.1538H24.1846H24.2154H24.2462H24.2771H24.3079H24.3387H24.3696H24.4004H24.4312H24.4621H24.4929H24.5237H24.5546H24.5854H24.6162H24.647H24.6779H24.7087H24.7395H24.7704H24.8012H24.832H24.8629H24.8937H24.9245H24.9553H24.9862H25.017H25.0478H25.0787H25.1095H25.1403H25.1711H25.202H25.2328H25.2636H25.2945H25.3253H25.3561H25.3869H25.4178H25.4486H25.4794H25.5102H25.5411H25.5719H25.6027H25.6336H25.6644H25.6952H25.726H25.7569H25.7877H25.8185H25.8493H25.8802H25.911H25.9418H25.9726H26.0035H26.0343H26.0651H26.096H26.1268H26.1576H26.1884H26.2193H26.2501H26.2809H26.3117H26.3426H26.3734H26.4042H26.435H26.4659H26.4967H26.5275H26.5583H26.5892H26.62H26.6508H26.6816H26.7125H26.7433H26.7741H26.8049H26.8358H26.8666H26.8974H26.9282H26.9591H26.9899H27.0207H27.0515H27.0824H27.1132H27.144H27.1748H27.2056H27.2365H27.2673H27.2981H27.3289H27.3598H27.3906H27.4214H27.4522H27.4831H27.5139H27.5447H27.5755H27.6064H27.6372H27.668H27.6988H27.7296H27.7605H27.7913H27.8221H27.8529H27.8838H27.9146H27.9454H27.9762H28.007H28.0379H28.0687H28.0995H28.1303H28.1612H28.192H28.2228H28.2536H28.2844H28.3153H28.3461H28.3769H28.4077H28.4386H28.4694H28.5002H28.531H28.5618H28.5927H28.6235H28.6543H28.6851H28.716H28.7468H28.7776H28.8084H28.8392H28.8701H28.9009H28.9317H28.9625H28.9933H29.0242H29.055H29.0858H29.1166H29.1475H29.1783H29.2091H29.2399H29.2707H29.3016H29.3324H29.3632H29.394H29.4248H29.4557H29.4865H29.5173H29.5481H29.5789H29.6098H29.6406H29.6714H29.7022H29.7331H29.7639H29.7947H29.8255H29.8563H29.8872H29.918H29.9488H29.9796H30.0104H30.0413H30.0721H30.1029H30.1337H30.1645H30.1954H30.2262H30.257H30.2878H30.3186H30.3495H30.3803H30.4111H30.4419H30.4727H30.5036H30.5344H30.5652H30.596H30.6268H30.6577H30.6885H30.7193H30.7501H30.7809H30.8118H30.8426H30.8734H30.9042H30.935H30.9659H30.9967H31.0275C31.3553 9.5 31.5353 9.58775 31.6333 9.6841C31.73 9.77911 31.8175 9.95185 31.8175 10.27V10.3098V10.3497V10.3895V10.4293V10.4692V10.509V10.5489V10.5887V10.6286V10.6684V10.7082V10.7481V10.7879V10.8278V10.8676V10.9074V10.9473V10.9871V11.027V11.0668V11.1066V11.1465V11.1863V11.2262V11.266V11.3058V11.3457V11.3855V11.4253V11.4652V11.505V11.5449V11.5847V11.6245V11.6644V11.7042V11.744V11.7839V11.8237V11.8635V11.9034V11.9432V11.9831V12.0229V12.0627V12.1026V12.1424V12.1822V12.2221V12.2619V12.3017V12.3416V12.3814V12.4212V12.4611V12.5009V12.5407V12.5806V12.6204V12.6602V12.7V12.7399V12.7797V12.8195V12.8594V12.8992V12.939V12.9789V13.0187V13.0585V13.0984V13.1382V13.178V13.2178V13.2577V13.2975V13.3373V13.3772V13.417V13.4568V13.4966V13.5365V13.5763V13.6161V13.656V13.6958V13.7356V13.7754V13.8153V13.8551V13.8949V13.9347V13.9746V14.0144V14.0542V14.094V14.1339V14.1737V14.2135V14.2533V14.2932V14.333V14.3728V14.4126V14.4525V14.4923V14.5321V14.5719V14.6118V14.6516V14.6914V14.7312V14.7711V14.8109V14.8507V14.8905V14.9304V14.9702V15.01V15.0498V15.0897V15.1295V15.1693V15.2091V15.2489V15.2888V15.3286V15.3684V15.4082V15.4481V15.4879V15.5277V15.5675V15.6073V15.6472V15.687V15.7268V15.7666V15.8064V15.8463V15.8861V15.9259V15.9657V16.0055V16.0454V16.0852V16.125V16.1648V16.2046V16.2445V16.2843V16.3241V16.3639V16.4037V16.4436V16.4834V16.5232V16.563V16.6028V16.6427V16.6825V16.7223V16.7621V16.8019V16.8417V16.8816V16.9214V16.9612V17.001V17.0408V17.0806V17.1205V17.1603V17.2001V17.2399V17.2797V17.3196V17.3594V17.3992V17.439V17.4788V17.5186V17.5585V17.5983V17.6381V17.6779V17.7177V17.7575V17.7974V17.8372V17.877V17.9168V17.9566V17.9964V18.0363V18.0761V18.1159V18.1557V18.1955V18.2353V18.2752V18.315V18.3548V18.3946V18.4344V18.4742V18.514V18.5539V18.5937V18.6335V18.6733V18.7131V18.7529V18.7928V18.8326V18.8724V18.9122V18.952V18.9918V19.0316V19.0715V19.1113V19.1511V19.1909V19.2307V19.2705V19.3103V19.3502V19.39V19.4298V19.4696V19.5094V19.5492V19.5891V19.6289V19.6687V19.7085V19.7483V19.7881V19.8279V19.8678V19.9076V19.9474V19.9872V20.027V20.0668V20.1066V20.1465V20.1863V20.2261V20.2659V20.3057V20.3455V20.3853V20.4252V20.465V20.5048V20.5446V20.5844V20.6242V20.664V20.7039V20.7437V20.7835V20.8233V20.8631V20.9029V20.9427V20.9826V21.0224V21.0622V21.102V21.1418V21.1816V21.2214V21.2613V21.3011V21.3409V21.3807V21.4205V21.4603V21.5001V21.54V21.5798V21.6196V21.6594V21.6992V21.739V21.7789V21.8187V21.8585V21.8983V21.9381V21.9779V22.0177V22.0576V22.0974V22.1372V22.177V22.2168V22.2566V22.2964V22.3363V22.3761V22.4159V22.4557V22.4955V22.5353V22.5752V22.615V22.6548V22.6946V22.7344V22.7742V22.8141V22.8539V22.8937V22.9335V22.9733V23.0131V23.0529V23.0928V23.1326V23.1724V23.2122V23.252V23.2918V23.3317V23.3715V23.4113V23.4511V23.4909V23.5308V23.5706V23.6104V23.6502V23.69V23.7298V23.7697V23.8095V23.8493V23.8891V23.9289V23.9687V24.0086V24.0484V24.0882V24.128V24.1678V24.2077V24.2475V24.2873V24.3271V24.3669V24.4067V24.4466V24.4864V24.5262V24.566V24.6058V24.6457V24.6855V24.7253V24.7651V24.8049V24.8448V24.8846V24.9244V24.9642V25.004V25.0439V25.0837V25.1235V25.1633V25.2031V25.243V25.2828V25.3226V25.3624V25.4022V25.4421V25.4819V25.5217V25.5615V25.6014V25.6412V25.681V25.7208V25.7606V25.8005V25.8403V25.8801V25.9199V25.9598V25.9996V26.0394V26.0792V26.119V26.1589V26.1987V26.2385V26.2783V26.3182V26.358V26.3978V26.4376V26.4775V26.5173V26.5571V26.5969V26.6368V26.6766V26.7164V26.7562V26.7961V26.8359V26.8757V26.9155V26.9554V26.9952V27.035V27.0749V27.1147V27.1545V27.1943V27.2342V27.274V27.3138V27.3536V27.3935V27.4333V27.4731V27.513V27.5528V27.5926V27.6324V27.6723V27.7121V27.7519V27.7918V27.8316V27.8714V27.9112V27.9511V27.9909V28.0307V28.0706V28.1104V28.1502V28.1901V28.2299V28.2697V28.3096V28.3494V28.3892V28.4291V28.4689V28.5087V28.5485V28.5884V28.6282V28.668V28.7079V28.7477V28.7875V28.8274V28.8672V28.9071V28.9469V28.9867V29.0266V29.0664V29.1062V29.1461V29.1859V29.2257V29.2656V29.3054V29.3452V29.3851V29.4249V29.4648V29.5046V29.5444V29.5843V29.6241V29.6639V29.7038V29.7436V29.7835V29.8233V29.8631V29.903V29.9428V29.9827V30.0225V30.0623V30.1022V30.142V30.1819V30.2217V30.2615V30.3014V30.3412V30.3811V30.4209V30.4608V30.5006V30.5404V30.5803V30.6201V30.66C31.8175 31.0446 31.6954 31.2517 31.4513 31.3645C31.3 31.4316 31.178 31.4416 31.0699 31.4233C30.9554 31.4039 30.8234 31.3468 30.6683 31.2306C29.4481 30.3104 28.2374 29.3999 26.9765 28.4592L26.6278 28.1991L26.322 28.5084C25.4431 29.3973 24.5941 30.2463 23.744 31.0964C23.4522 31.3882 23.2574 31.4525 23.1325 31.4525C23.0077 31.4525 22.8128 31.3882 22.5211 31.0964L21.2423 29.8177L19.9411 28.5164L19.636 28.2114L19.2896 28.4684C18.9931 28.6884 18.7112 28.9008 18.4322 29.1109C18.1106 29.3532 17.7929 29.5925 17.4615 29.837C16.83 30.2981 16.2066 30.7606 15.5923 31.2339Z" stroke="#636363"/>
<path fill-rule="evenodd" clip-rule="evenodd" d="M16.8575 16.6699C16.8575 16.3386 17.1709 16.0699 17.5575 16.0699H28.1575C28.5441 16.0699 28.8575 16.3386 28.8575 16.6699C28.8575 17.0013 28.5441 17.2699 28.1575 17.2699H17.5575C17.1709 17.2699 16.8575 17.0013 16.8575 16.6699Z" fill="#636363"/>
<path fill-rule="evenodd" clip-rule="evenodd" d="M16.8575 19.6699C16.8575 19.3386 17.1709 19.0699 17.5575 19.0699H26.1575C26.5441 19.0699 26.8575 19.3386 26.8575 19.6699C26.8575 20.0013 26.5441 20.2699 26.1575 20.2699H17.5575C17.1709 20.2699 16.8575 20.0013 16.8575 19.6699Z" fill="#636363"/>
<path fill-rule="evenodd" clip-rule="evenodd" d="M16.8575 13.6699C16.8575 13.3386 17.1709 13.0699 17.5575 13.0699H30.1575C30.5441 13.0699 30.8575 13.3386 30.8575 13.6699C30.8575 14.0013 30.5441 14.2699 30.1575 14.2699H17.5575C17.1709 14.2699 16.8575 14.0013 16.8575 13.6699Z" fill="#636363"/>
<path d="M12.7875 24.15L7.9675 28.97C7.5175 29.42 6.7875 29.42 6.3375 28.97C5.8875 28.52 5.8875 27.79 6.3375 27.34L11.1575 22.52" fill="#636363"/>
<path d="M16.2476 25.3301C19.8476 25.3301 22.7576 22.4201 22.7576 18.8201C22.7576 15.2201 19.8476 12.3101 16.2476 12.3101C12.6476 12.3101 9.73755 15.2201 9.73755 18.8201C9.73755 22.4201 12.6476 25.3301 16.2476 25.3301Z" fill="#D1D1D1" fill-opacity="0.8"/>
<path fill-rule="evenodd" clip-rule="evenodd" d="M16.2476 24.3301C19.2876 24.3301 21.7576 21.8601 21.7576 18.8201C21.7576 15.7801 19.2876 13.3101 16.2476 13.3101C13.2076 13.3101 10.7376 15.7801 10.7376 18.8201C10.7376 21.8601 13.2076 24.3301 16.2476 24.3301ZM22.7576 18.8201C22.7576 22.4201 19.8476 25.3301 16.2476 25.3301C12.6476 25.3301 9.73755 22.4201 9.73755 18.8201C9.73755 15.2201 12.6476 12.3101 16.2476 12.3101C19.8476 12.3101 22.7576 15.2201 22.7576 18.8201Z" fill="#636363"/>
<path d="M18.5076 16.65C18.1376 16.61 17.7676 16.53 17.4176 16.4C17.0976 16.29 16.7876 16.14 16.4976 15.96C16.3476 15.87 16.1476 15.87 15.9976 15.96C15.7076 16.14 15.3976 16.29 15.0776 16.4C14.7276 16.52 14.3576 16.61 13.9876 16.65C13.7376 16.68 13.5576 16.88 13.5576 17.13V18.57C13.5576 19.65 14.1476 20.65 15.0876 21.17L16.0176 21.69C16.1676 21.77 16.3376 21.77 16.4876 21.69L17.4176 21.17C18.3576 20.65 18.9476 19.65 18.9476 18.57V17.13C18.9476 16.88 18.7576 16.67 18.5176 16.65H18.5076Z" fill="#636363"/>
<path d="M16.0475 19.71C15.9675 19.71 15.8875 19.68 15.8275 19.63L15.0375 18.93C14.8975 18.81 14.8875 18.6 15.0075 18.46C15.1275 18.32 15.3375 18.31 15.4775 18.43L16.0275 18.92L17.1175 17.75C17.2475 17.62 17.4575 17.61 17.5875 17.73C17.7175 17.86 17.7275 18.07 17.6075 18.2L16.2975 19.6C16.2375 19.67 16.1475 19.71 16.0575 19.7L16.0475 19.71Z" fill="#636363"/>
</svg>
