<svg width="42" height="42" viewBox="0 0 42 42" fill="none" xmlns="http://www.w3.org/2000/svg">
<path d="M24.9901 11.24V27.05C24.9901 27.4439 24.664 27.77 24.2701 27.77H12.3201C11.9262 27.77 11.6001 27.4439 11.6001 27.05V14.8584C11.6001 14.4606 11.7581 14.0791 12.0394 13.7978L14.8779 10.9594C15.1592 10.6781 15.5407 10.52 15.9385 10.52H24.2701C24.664 10.52 24.9901 10.8462 24.9901 11.24Z" stroke="#636363"/>
<path d="M15.1101 10.01L11.1001 14.02H15.1101V10.01Z" fill="#636363"/>
<path d="M29.4901 15.2398V31.0498C29.4901 31.7198 28.9401 32.2698 28.2701 32.2698H18.3202C17.2156 32.2698 16.3201 31.3743 16.3201 30.2697C16.3201 29.0343 16.3201 27.6639 16.3201 27.2674H24.5V14.0198H28.2701C28.9401 14.0198 29.4901 14.5698 29.4901 15.2398Z" fill="#636363"/>
</svg>
