<svg width="43" height="42" viewBox="0 0 43 42" fill="none" xmlns="http://www.w3.org/2000/svg">
<g clip-path="url(#clip0_10603_19473)">
<path d="M19.2029 18.4902L19.0565 18.3438H18.8494H12.1094C11.2224 18.3438 10.5 17.6213 10.5 16.7344V11.1094C10.5 10.2224 11.2224 9.5 12.1094 9.5H24.2969C25.1839 9.5 25.9063 10.2224 25.9063 11.1094V16.7344C25.9063 17.6213 25.1839 18.3438 24.2969 18.3438H22.6563H22.1563V18.8438V20.9531C22.1563 21.0352 22.1068 21.1093 22.0309 21.1408L22.0308 21.1408C22.0056 21.1512 21.9794 21.1562 21.9533 21.1562H21.9532C21.9002 21.1563 21.8484 21.1356 21.8095 21.0967L21.456 21.4503L21.8095 21.0967L19.2029 18.4902Z" stroke="#838383"/>
<path d="M18.5088 25.3375L18.4436 25.0174C18.3628 24.621 18.2059 24.2516 17.9889 23.9243L17.8082 23.6517L18.0395 23.4204L18.5881 22.8718L18.5881 22.8718C18.7065 22.7535 18.7065 22.5616 18.5881 22.4432C18.4697 22.3248 18.2778 22.3248 18.1594 22.4432L17.6108 22.9918L17.3795 23.2231L17.1069 23.0423C16.7796 22.8253 16.4102 22.6685 16.0139 22.5877L15.6938 22.5225V22.1958V21.4219C15.6938 21.2545 15.5581 21.1188 15.3907 21.1188C15.2233 21.1188 15.0875 21.2545 15.0875 21.4219V22.1957V22.5225L14.7674 22.5877C14.3711 22.6684 14.0017 22.8253 13.6744 23.0423L13.4018 23.223L13.1705 22.9918L12.6219 22.4431C12.5036 22.3248 12.3116 22.3248 12.1932 22.4431C12.1932 22.4431 12.1932 22.4432 12.1932 22.4432M18.5088 25.3375L11.9104 23.1547C11.6358 22.8801 11.6358 22.4348 11.9104 22.1603L12.1932 22.4432M18.5088 25.3375H18.8355H19.6094C19.7767 25.3375 19.9125 25.4732 19.9125 25.6407C19.9125 25.8081 19.7768 25.9438 19.6094 25.9438H18.8354H18.5087L18.4435 26.2639C18.3627 26.6603 18.2059 27.0297 17.9889 27.357L17.8081 27.6296L18.0394 27.8609L18.588 28.4094C18.7064 28.5278 18.7063 28.7198 18.588 28.8381C18.5287 28.8974 18.4518 28.9269 18.3737 28.9269C18.2955 28.9269 18.2186 28.8974 18.1593 28.8381L17.6107 28.2895L17.3794 28.0582L17.1068 28.2389C16.7795 28.4559 16.4101 28.6128 16.0138 28.6936L15.6937 28.7588V29.0855V29.8594C15.6937 30.0268 15.558 30.1625 15.3906 30.1625C15.2232 30.1625 15.0875 30.0268 15.0875 29.8594V29.0854V28.7587L14.7673 28.6935C14.371 28.6127 14.0016 28.4559 13.6743 28.2389L13.4017 28.0581L13.1704 28.2894L12.6218 28.838L12.6218 28.8381C12.5626 28.8973 12.4857 28.9268 12.4075 28.9268C12.3293 28.9268 12.2525 28.8973 12.1931 28.838C12.0747 28.7196 12.0748 28.5277 12.1931 28.4094L12.1931 28.4094L12.7418 27.8608L12.973 27.6295L12.7923 27.3569C12.5753 27.0296 12.4185 26.6602 12.3377 26.2638L12.2724 25.9437H11.9457H11.1719C11.0045 25.9437 10.8688 25.808 10.8688 25.6406C10.8688 25.4732 11.0045 25.3375 11.1719 25.3375H11.9458H12.2726L12.3378 25.0173C12.4185 24.6209 12.5754 24.2516 12.7924 23.9243L12.9732 23.6517L12.7418 23.4204L12.1933 22.8718M18.5088 25.3375L12.1933 22.8718M12.1932 22.4432C12.0749 22.5615 12.0749 22.7534 12.1932 22.8718C12.1932 22.8718 12.1932 22.8718 12.1933 22.8718M12.1932 22.4432L12.1933 22.8718M14.2875 25.6406C14.2875 26.2499 14.7814 26.7438 15.3906 26.7438C15.9999 26.7438 16.4938 26.2499 16.4938 25.6406C16.4938 25.0314 15.9999 24.5375 15.3906 24.5375C14.7814 24.5375 14.2875 25.0314 14.2875 25.6406Z" stroke="#838383" stroke-width="0.8"/>
<path d="M33.3981 28.0906L33.3981 28.0906C33.4952 28.1467 33.5285 28.2709 33.4724 28.3681L33.4724 28.3681L32.0662 30.8038C32.0101 30.9009 31.8859 30.9342 31.7887 30.8781L31.2097 30.5438L30.9222 30.3778L30.6576 30.5784C30.3387 30.8202 29.9971 31.0188 29.6353 31.1732L29.3314 31.3028V31.6331V32.2969C29.3314 32.409 29.2405 32.5 29.1283 32.5H26.3158C26.2037 32.5 26.1127 32.409 26.1127 32.2969V31.633V31.3027L25.8089 31.1731C25.447 31.0188 25.1054 30.8202 24.7865 30.5784L24.5219 30.3778L24.2344 30.5438L23.6554 30.8781L23.6554 30.8781C23.5582 30.9342 23.434 30.9009 23.3779 30.8038L23.3779 30.8038L21.9717 28.368L21.5387 28.618L21.9717 28.368C21.9156 28.2709 21.9489 28.1467 22.046 28.0906L22.046 28.0906L22.6226 27.7577L22.9098 27.5918L22.8687 27.2627C22.8439 27.0638 22.8314 26.8662 22.8314 26.6718C22.8314 26.4775 22.8439 26.2799 22.8687 26.0809L22.9098 25.7518L22.6226 25.586L22.046 25.2531L22.046 25.2531C21.9489 25.197 21.9156 25.0728 21.9717 24.9756L21.9717 24.9756L23.3779 22.5399C23.3779 22.5399 23.3779 22.5399 23.3779 22.5399C23.434 22.4428 23.5582 22.4095 23.6554 22.4656C23.6554 22.4656 23.6554 22.4656 23.6554 22.4656L24.2344 22.7999L24.5219 22.9659L24.7865 22.7653C25.1053 22.5236 25.447 22.3249 25.8088 22.1705L26.1127 22.0409V21.7106V21.0469C26.1127 20.9347 26.2036 20.8438 26.3158 20.8438H29.1283C29.2404 20.8438 29.3314 20.9347 29.3314 21.0469V21.7107V22.041L29.6352 22.1706C29.9971 22.325 30.3388 22.5236 30.6576 22.7653L30.9221 22.9659L31.2097 22.7999L31.7887 22.4656L31.7888 22.4656C31.8858 22.4095 32.0101 22.4428 32.0662 22.54L33.4724 24.9757L33.9054 24.7257L33.4724 24.9757C33.5285 25.0728 33.4952 25.197 33.3981 25.2531L33.3981 25.2531L32.8215 25.586L32.5343 25.7519L32.5754 26.081C32.6002 26.2799 32.6127 26.4775 32.6127 26.6719C32.6127 26.8662 32.6002 27.0638 32.5754 27.2628L32.5343 27.5919L32.8215 27.7577L33.3981 28.0906ZM25.1127 26.6719C25.1127 28.1111 26.2828 29.2812 27.722 29.2812C29.1613 29.2812 30.3314 28.1111 30.3314 26.6719C30.3314 25.2326 29.1613 24.0625 27.722 24.0625C26.2828 24.0625 25.1127 25.2326 25.1127 26.6719Z" stroke="#838383"/>
<path d="M23.5 12.6C23.5 12.5448 23.4552 12.5 23.4 12.5H12.6C12.5448 12.5 12.5 12.5448 12.5 12.6C12.5 12.6552 12.5448 12.7 12.6 12.7H23.4C23.4552 12.7 23.5 12.6552 23.5 12.6Z" stroke="#838383"/>
<path d="M20.5 14.6C20.5 14.5448 20.4552 14.5 20.4 14.5H12.6C12.5447 14.5 12.5 14.5448 12.5 14.6C12.5 14.6552 12.5447 14.7 12.6 14.7H20.4C20.4552 14.7 20.5 14.6552 20.5 14.6Z" stroke="#838383"/>
</g>
<defs>
<clipPath id="clip0_10603_19473">
<path d="M0 21C0 14.4768 0 11.2152 1.06569 8.64243C2.4866 5.21204 5.21204 2.4866 8.64243 1.06569C11.2152 0 14.4768 0 21 0H22C28.5232 0 31.7848 0 34.3576 1.06569C37.788 2.4866 40.5134 5.21204 41.9343 8.64243C43 11.2152 43 14.4768 43 21V21C43 27.5232 43 30.7848 41.9343 33.3576C40.5134 36.788 37.788 39.5134 34.3576 40.9343C31.7848 42 28.5232 42 22 42H21C14.4768 42 11.2152 42 8.64243 40.9343C5.21204 39.5134 2.4866 36.788 1.06569 33.3576C0 30.7848 0 27.5232 0 21V21Z" fill="white"/>
</clipPath>
</defs>
</svg>
