<svg width="42" height="42" viewBox="0 0 42 42" fill="none" xmlns="http://www.w3.org/2000/svg">
<g filter="url(#filter0_b_10898_18994)">
<path d="M28.5 12.375H27.75V11.625C27.75 10.3838 26.7412 9.375 25.5 9.375H16.875C16.6875 9.375 16.5037 9.44625 16.365 9.57375L11.49 14.0737C11.3362 14.2162 11.25 14.415 11.25 14.625V27.375C11.25 28.6162 12.2588 29.625 13.5 29.625H14.25V30.375C14.25 31.6162 15.2588 32.625 16.5 32.625H28.5C29.7412 32.625 30.75 31.6162 30.75 30.375V14.625C30.75 13.3838 29.7412 12.375 28.5 12.375ZM12.75 27.375V15.375H16.875C17.2875 15.375 17.625 15.0375 17.625 14.625V10.875H25.5C25.9125 10.875 26.25 11.2125 26.25 11.625V27.375C26.25 27.7875 25.9125 28.125 25.5 28.125H13.5C13.0875 28.125 12.75 27.7875 12.75 27.375Z" stroke="#838383"/>
<path d="M22.3125 15H24C24.414 15 24.75 14.664 24.75 14.25C24.75 13.836 24.414 13.5 24 13.5H23.25C23.25 13.086 22.914 12.75 22.5 12.75C22.086 12.75 21.75 13.086 21.75 13.5V13.5799C20.8856 13.8255 20.25 14.6205 20.25 15.5625C20.25 16.6999 21.1751 17.625 22.3125 17.625H22.6875C22.9976 17.625 23.25 17.8774 23.25 18.1875C23.25 18.4976 22.9976 18.75 22.6875 18.75H21C20.586 18.75 20.25 19.086 20.25 19.5C20.25 19.914 20.586 20.25 21 20.25H21.75C21.75 20.664 22.086 21 22.5 21C22.914 21 23.25 20.664 23.25 20.25V20.1701C24.1144 19.9245 24.75 19.1295 24.75 18.1875C24.75 17.0501 23.8249 16.125 22.6875 16.125H22.3125C22.0024 16.125 21.75 15.8726 21.75 15.5625C21.75 15.2524 22.0024 15 22.3125 15Z" fill="#838383"/>
<path d="M15 22.875C14.586 22.875 14.25 23.211 14.25 23.625V25.875C14.25 26.289 14.586 26.625 15 26.625C15.414 26.625 15.75 26.289 15.75 25.875V23.625C15.75 23.211 15.414 22.875 15 22.875Z" fill="#838383"/>
<path d="M17.625 20.625C17.211 20.625 16.875 20.961 16.875 21.375V25.875C16.875 26.289 17.211 26.625 17.625 26.625C18.039 26.625 18.375 26.289 18.375 25.875V21.375C18.375 20.961 18.039 20.625 17.625 20.625Z" fill="#838383"/>
<path d="M20.25 22.875C19.836 22.875 19.5 23.211 19.5 23.625V25.875C19.5 26.289 19.836 26.625 20.25 26.625C20.664 26.625 21 26.289 21 25.875V23.625C21 23.211 20.664 22.875 20.25 22.875Z" fill="#838383"/>
</g>
<defs>
<filter id="filter0_b_10898_18994" x="-14" y="-14" width="70" height="70" filterUnits="userSpaceOnUse" color-interpolation-filters="sRGB">
<feFlood flood-opacity="0" result="BackgroundImageFix"/>
<feGaussianBlur in="BackgroundImageFix" stdDeviation="7"/>
<feComposite in2="SourceAlpha" operator="in" result="effect1_backgroundBlur_10898_18994"/>
<feBlend mode="normal" in="SourceGraphic" in2="effect1_backgroundBlur_10898_18994" result="shape"/>
</filter>
</defs>
</svg>
