<svg width="42" height="42" viewBox="0 0 42 42" fill="none" xmlns="http://www.w3.org/2000/svg">
<path d="M14.1448 32.2339L14.1437 32.2348C13.9903 32.3537 13.8576 32.4116 13.7444 32.4307C13.6376 32.4487 13.5192 32.4375 13.3761 32.3691C13.2247 32.2966 13.142 32.2085 13.0909 32.1129C13.0358 32.01 13 31.865 13 31.66V31.6202V31.5804V31.5406V31.5009V31.4611V31.4213V31.3815V31.3417V31.3019V31.2621V31.2223V31.1826V31.1428V31.103V31.0632V31.0234V30.9836V30.9438V30.904V30.8643V30.8245V30.7847V30.7449V30.7051V30.6653V30.6255V30.5857V30.5459V30.5061V30.4663V30.4266V30.3868V30.347V30.3072V30.2674V30.2276V30.1878V30.148V30.1082V30.0684V30.0286V29.9888V29.949V29.9092V29.8694V29.8296V29.7899V29.7501V29.7103V29.6705V29.6307V29.5909V29.5511V29.5113V29.4715V29.4317V29.3919V29.3521V29.3123V29.2725V29.2327V29.1929V29.1531V29.1133V29.0735V29.0337V28.9939V28.9541V28.9143V28.8745V28.8347V28.7949V28.7551V28.7153V28.6755V28.6357V28.5959V28.5561V28.5163V28.4765V28.4367V28.3969V28.3571V28.3173V28.2775V28.2377V28.1979V28.1581V28.1183V28.0785V28.0387V27.9989V27.9591V27.9192V27.8794V27.8396V27.7998V27.76V27.7202V27.6804V27.6406V27.6008V27.561V27.5212V27.4814V27.4416V27.4018V27.362V27.3222V27.2823V27.2425V27.2027V27.1629V27.1231V27.0833V27.0435V27.0037V26.9639V26.9241V26.8843V26.8445V26.8046V26.7648V26.725V26.6852V26.6454V26.6056V26.5658V26.526V26.4862V26.4463V26.4065V26.3667V26.3269V26.2871V26.2473V26.2075V26.1677V26.1279V26.088V26.0482V26.0084V25.9686V25.9288V25.889V25.8492V25.8093V25.7695V25.7297V25.6899V25.6501V25.6103V25.5705V25.5306V25.4908V25.451V25.4112V25.3714V25.3316V25.2918V25.2519V25.2121V25.1723V25.1325V25.0927V25.0529V25.013V24.9732V24.9334V24.8936V24.8538V24.8139V24.7741V24.7343V24.6945V24.6547V24.6149V24.575V24.5352V24.4954V24.4556V24.4158V24.3759V24.3361V24.2963V24.2565V24.2167V24.1768V24.137V24.0972V24.0574V24.0176V23.9777V23.9379V23.8981V23.8583V23.8185V23.7786V23.7388V23.699V23.6592V23.6193V23.5795V23.5397V23.4999V23.4601V23.4202V23.3804V23.3406V23.3008V23.2609V23.2211V23.1813V23.1415V23.1016V23.0618V23.022V22.9822V22.9423V22.9025V22.8627V22.8229V22.783V22.7432V22.7034V22.6636V22.6237V22.5839V22.5441V22.5043V22.4644V22.4246V22.3848V22.345V22.3051V22.2653V22.2255V22.1857V22.1458V22.106V22.0662V22.0263V21.9865V21.9467V21.9069V21.867V21.8272V21.7874V21.7476V21.7077V21.6679V21.6281V21.5882V21.5484V21.5086V21.4688V21.4289V21.3891V21.3493V21.3094V21.2696V21.2298V21.1899V21.1501V21.1103V21.0705V21.0306V20.9908V20.951V20.9111V20.8713V20.8315V20.7916V20.7518V20.712V20.6721V20.6323V20.5925V20.5527V20.5128V20.473V20.4332V20.3933V20.3535V20.3137V20.2738V20.234V20.1942V20.1543V20.1145V20.0747V20.0348V19.995V19.9552V19.9153V19.8755V19.8357V19.7958V19.756V19.7162V19.6763V19.6365V19.5967V19.5568V19.517V19.4772V19.4373V19.3975V19.3577V19.3178V19.278V19.2382V19.1983V19.1585V19.1186V19.0788V19.039V18.9991V18.9593V18.9195V18.8796V18.8398V18.8V18.7601V18.7203V18.6805V18.6406V18.6008V18.561V18.5211V18.4813V18.4414V18.4016V18.3618V18.3219V18.2821V18.2423V18.2024V18.1626V18.1227V18.0829V18.0431V18.0032V17.9634V17.9236V17.8837V17.8439V17.804V17.7642V17.7244V17.6845V17.6447V17.6049V17.565V17.5252V17.4853V17.4455V17.4057V17.3658V17.326V17.2861V17.2463V17.2065V17.1666V17.1268V17.087V17.0471V17.0073V16.9674V16.9276V16.8878V16.8479V16.8081V16.7682V16.7284V16.6886V16.6487V16.6089V16.569V16.5292V16.4894V16.4495V16.4097V16.3698V16.33V16.2902V16.2503V16.2105V16.1706V16.1308V16.091V16.0511V16.0113V15.9714V15.9316V15.8918V15.8519V15.8121V15.7722V15.7324V15.6926V15.6527V15.6129V15.573V15.5332V15.4933V15.4535V15.4137V15.3738V15.334V15.2941V15.2543V15.2145V15.1746V15.1348V15.0949V15.0551V15.0153V14.9754V14.9356V14.8957V14.8559V14.816V14.7762V14.7364V14.6965V14.6567V14.6168V14.577V14.5371V14.4973V14.4575V14.4176V14.3778V14.3379V14.2981V14.2583V14.2184V14.1786V14.1387V14.0989V14.059V14.0192V13.9794V13.9395V13.8997V13.8598V13.82V13.7801V13.7403V13.7005V13.6606V13.6208V13.5809V13.5411V13.5012V13.4614V13.4216V13.3817V13.3419V13.302V13.2622V13.2223V13.1825V13.1426V13.1028V13.063V13.0231V12.9833V12.9434V12.9036V12.8637V12.8239V12.7841V12.7442V12.7044V12.6645V12.6247V12.5848V12.545V12.5052V12.4653V12.4255V12.3856V12.3458V12.3059V12.2661V12.2262V12.1864V12.1466V12.1067V12.0669V12.027V11.9872V11.9473V11.9075V11.8677V11.8278V11.788V11.7481V11.7083V11.6684V11.6286V11.5888V11.5489V11.5091V11.4692V11.4294V11.3895V11.3497V11.3098V11.27C13 10.9454 13.0883 10.7741 13.1832 10.6814C13.28 10.5868 13.4593 10.5 13.79 10.5H13.8209H13.8518H13.8826H13.9135H13.9444H13.9753H14.0061H14.037H14.0679H14.0988H14.1297H14.1605H14.1914H14.2223H14.2532H14.284H14.3149H14.3458H14.3767H14.4075H14.4384H14.4693H14.5002H14.531H14.5619H14.5928H14.6236H14.6545H14.6854H14.7163H14.7471H14.778H14.8089H14.8398H14.8706H14.9015H14.9324H14.9632H14.9941H15.025H15.0558H15.0867H15.1176H15.1485H15.1793H15.2102H15.2411H15.2719H15.3028H15.3337H15.3645H15.3954H15.4263H15.4571H15.488H15.5189H15.5497H15.5806H15.6115H15.6423H15.6732H15.7041H15.7349H15.7658H15.7967H15.8275H15.8584H15.8893H15.9201H15.951H15.9819H16.0127H16.0436H16.0744H16.1053H16.1362H16.167H16.1979H16.2288H16.2596H16.2905H16.3213H16.3522H16.3831H16.4139H16.4448H16.4756H16.5065H16.5374H16.5682H16.5991H16.6299H16.6608H16.6917H16.7225H16.7534H16.7842H16.8151H16.846H16.8768H16.9077H16.9385H16.9694H17.0003H17.0311H17.062H17.0928H17.1237H17.1545H17.1854H17.2163H17.2471H17.278H17.3088H17.3397H17.3705H17.4014H17.4322H17.4631H17.494H17.5248H17.5557H17.5865H17.6174H17.6482H17.6791H17.7099H17.7408H17.7716H17.8025H17.8333H17.8642H17.895H17.9259H17.9568H17.9876H18.0185H18.0493H18.0802H18.111H18.1419H18.1727H18.2036H18.2344H18.2653H18.2961H18.327H18.3578H18.3887H18.4195H18.4504H18.4812H18.5121H18.5429H18.5738H18.6046H18.6355H18.6663H18.6972H18.728H18.7588H18.7897H18.8205H18.8514H18.8822H18.9131H18.9439H18.9748H19.0056H19.0365H19.0673H19.0982H19.129H19.1599H19.1907H19.2215H19.2524H19.2832H19.3141H19.3449H19.3758H19.4066H19.4375H19.4683H19.4992H19.53H19.5608H19.5917H19.6225H19.6534H19.6842H19.7151H19.7459H19.7767H19.8076H19.8384H19.8693H19.9001H19.931H19.9618H19.9926H20.0235H20.0543H20.0852H20.116H20.1469H20.1777H20.2085H20.2394H20.2702H20.3011H20.3319H20.3627H20.3936H20.4244H20.4553H20.4861H20.5169H20.5478H20.5786H20.6095H20.6403H20.6711H20.702H20.7328H20.7636H20.7945H20.8253H20.8562H20.887H20.9178H20.9487H20.9795H21.0104H21.0412H21.072H21.1029H21.1337H21.1645H21.1954H21.2262H21.2571H21.2879H21.3187H21.3496H21.3804H21.4112H21.4421H21.4729H21.5037H21.5346H21.5654H21.5962H21.6271H21.6579H21.6888H21.7196H21.7504H21.7813H21.8121H21.8429H21.8738H21.9046H21.9354H21.9663H21.9971H22.0279H22.0588H22.0896H22.1204H22.1513H22.1821H22.2129H22.2438H22.2746H22.3054H22.3363H22.3671H22.3979H22.4288H22.4596H22.4904H22.5213H22.5521H22.5829H22.6138H22.6446H22.6754H22.7062H22.7371H22.7679H22.7987H22.8296H22.8604H22.8912H22.9221H22.9529H22.9837H23.0146H23.0454H23.0762H23.107H23.1379H23.1687H23.1995H23.2304H23.2612H23.292H23.3229H23.3537H23.3845H23.4153H23.4462H23.477H23.5078H23.5387H23.5695H23.6003H23.6311H23.662H23.6928H23.7236H23.7545H23.7853H23.8161H23.8469H23.8778H23.9086H23.9394H23.9703H24.0011H24.0319H24.0627H24.0936H24.1244H24.1552H24.186H24.2169H24.2477H24.2785H24.3094H24.3402H24.371H24.4018H24.4327H24.4635H24.4943H24.5251H24.556H24.5868H24.6176H24.6484H24.6793H24.7101H24.7409H24.7717H24.8026H24.8334H24.8642H24.8951H24.9259H24.9567H24.9875H25.0184H25.0492H25.08H25.1108H25.1417H25.1725H25.2033H25.2341H25.265H25.2958H25.3266H25.3574H25.3883H25.4191H25.4499H25.4807H25.5115H25.5424H25.5732H25.604H25.6348H25.6657H25.6965H25.7273H25.7581H25.789H25.8198H25.8506H25.8814H25.9123H25.9431H25.9739H26.0047H26.0356H26.0664H26.0972H26.128H26.1588H26.1897H26.2205H26.2513H26.2821H26.313H26.3438H26.3746H26.4054H26.4363H26.4671H26.4979H26.5287H26.5595H26.5904H26.6212H26.652H26.6828H26.7137H26.7445H26.7753H26.8061H26.8369H26.8678H26.8986H26.9294H26.9602H26.9911H27.0219H27.0527H27.0835H27.1143H27.1452H27.176H27.2068H27.2376H27.2684H27.2993H27.3301H27.3609H27.3917H27.4226H27.4534H27.4842H27.515H27.5458H27.5767H27.6075H27.6383H27.6691H27.6999H27.7308H27.7616H27.7924H27.8232H27.8541H27.8849H27.9157H27.9465H27.9773H28.0082H28.039H28.0698H28.1006H28.1314H28.1623H28.1931H28.2239H28.2547H28.2855H28.3164H28.3472H28.378H28.4088H28.4396H28.4705H28.5013H28.5321H28.5629H28.5938H28.6246H28.6554H28.6862H28.717H28.7479H28.7787H28.8095H28.8403H28.8711H28.902H28.9328H28.9636H28.9944H29.0252H29.0561H29.0869H29.1177H29.1485H29.1793H29.2102H29.241H29.2718H29.3026H29.3334H29.3643H29.3951H29.4259H29.4567H29.4875H29.5184H29.5492H29.58C29.9078 10.5 30.0877 10.5878 30.1858 10.6841C30.2824 10.7791 30.37 10.9519 30.37 11.27V11.3098V11.3497V11.3895V11.4294V11.4692V11.5091V11.5489V11.5887V11.6286V11.6684V11.7083V11.7481V11.788V11.8278V11.8676V11.9075V11.9473V11.9872V12.027V12.0668V12.1067V12.1465V12.1863V12.2262V12.266V12.3059V12.3457V12.3855V12.4254V12.4652V12.5051V12.5449V12.5847V12.6246V12.6644V12.7042V12.7441V12.7839V12.8237V12.8636V12.9034V12.9432V12.9831V13.0229V13.0628V13.1026V13.1424V13.1823V13.2221V13.2619V13.3018V13.3416V13.3814V13.4213V13.4611V13.5009V13.5408V13.5806V13.6204V13.6602V13.7001V13.7399V13.7797V13.8196V13.8594V13.8992V13.9391V13.9789V14.0187V14.0586V14.0984V14.1382V14.178V14.2179V14.2577V14.2975V14.3374V14.3772V14.417V14.4568V14.4967V14.5365V14.5763V14.6162V14.656V14.6958V14.7356V14.7755V14.8153V14.8551V14.8949V14.9348V14.9746V15.0144V15.0543V15.0941V15.1339V15.1737V15.2136V15.2534V15.2932V15.333V15.3729V15.4127V15.4525V15.4923V15.5322V15.572V15.6118V15.6516V15.6915V15.7313V15.7711V15.8109V15.8507V15.8906V15.9304V15.9702V16.01V16.0499V16.0897V16.1295V16.1693V16.2091V16.249V16.2888V16.3286V16.3684V16.4083V16.4481V16.4879V16.5277V16.5675V16.6074V16.6472V16.687V16.7268V16.7667V16.8065V16.8463V16.8861V16.9259V16.9658V17.0056V17.0454V17.0852V17.125V17.1649V17.2047V17.2445V17.2843V17.3241V17.3639V17.4038V17.4436V17.4834V17.5232V17.563V17.6029V17.6427V17.6825V17.7223V17.7621V17.802V17.8418V17.8816V17.9214V17.9612V18.001V18.0409V18.0807V18.1205V18.1603V18.2001V18.24V18.2798V18.3196V18.3594V18.3992V18.439V18.4789V18.5187V18.5585V18.5983V18.6381V18.6779V18.7178V18.7576V18.7974V18.8372V18.877V18.9168V18.9567V18.9965V19.0363V19.0761V19.1159V19.1557V19.1955V19.2354V19.2752V19.315V19.3548V19.3946V19.4344V19.4743V19.5141V19.5539V19.5937V19.6335V19.6733V19.7132V19.753V19.7928V19.8326V19.8724V19.9122V19.952V19.9919V20.0317V20.0715V20.1113V20.1511V20.1909V20.2307V20.2706V20.3104V20.3502V20.39V20.4298V20.4696V20.5095V20.5493V20.5891V20.6289V20.6687V20.7085V20.7483V20.7882V20.828V20.8678V20.9076V20.9474V20.9872V21.027V21.0669V21.1067V21.1465V21.1863V21.2261V21.2659V21.3057V21.3456V21.3854V21.4252V21.465V21.5048V21.5446V21.5844V21.6243V21.6641V21.7039V21.7437V21.7835V21.8233V21.8631V21.903V21.9428V21.9826V22.0224V22.0622V22.102V22.1418V22.1817V22.2215V22.2613V22.3011V22.3409V22.3807V22.4205V22.4604V22.5002V22.54V22.5798V22.6196V22.6594V22.6993V22.7391V22.7789V22.8187V22.8585V22.8983V22.9381V22.978V23.0178V23.0576V23.0974V23.1372V23.177V23.2168V23.2567V23.2965V23.3363V23.3761V23.4159V23.4557V23.4956V23.5354V23.5752V23.615V23.6548V23.6946V23.7345V23.7743V23.8141V23.8539V23.8937V23.9335V23.9733V24.0132V24.053V24.0928V24.1326V24.1724V24.2122V24.2521V24.2919V24.3317V24.3715V24.4113V24.4511V24.491V24.5308V24.5706V24.6104V24.6502V24.6901V24.7299V24.7697V24.8095V24.8493V24.8891V24.929V24.9688V25.0086V25.0484V25.0882V25.128V25.1679V25.2077V25.2475V25.2873V25.3271V25.367V25.4068V25.4466V25.4864V25.5262V25.5661V25.6059V25.6457V25.6855V25.7253V25.7651V25.805V25.8448V25.8846V25.9244V25.9642V26.0041V26.0439V26.0837V26.1235V26.1634V26.2032V26.243V26.2828V26.3226V26.3625V26.4023V26.4421V26.4819V26.5217V26.5616V26.6014V26.6412V26.681V26.7208V26.7607V26.8005V26.8403V26.8801V26.92V26.9598V26.9996V27.0394V27.0793V27.1191V27.1589V27.1987V27.2386V27.2784V27.3182V27.358V27.3978V27.4377V27.4775V27.5173V27.5571V27.597V27.6368V27.6766V27.7164V27.7563V27.7961V27.8359V27.8757V27.9156V27.9554V27.9952V28.0351V28.0749V28.1147V28.1545V28.1944V28.2342V28.274V28.3138V28.3537V28.3935V28.4333V28.4732V28.513V28.5528V28.5926V28.6325V28.6723V28.7121V28.752V28.7918V28.8316V28.8714V28.9113V28.9511V28.9909V29.0308V29.0706V29.1104V29.1503V29.1901V29.2299V29.2698V29.3096V29.3494V29.3892V29.4291V29.4689V29.5087V29.5486V29.5884V29.6282V29.6681V29.7079V29.7477V29.7876V29.8274V29.8672V29.9071V29.9469V29.9868V30.0266V30.0664V30.1063V30.1461V30.1859V30.2258V30.2656V30.3054V30.3453V30.3851V30.4249V30.4648V30.5046V30.5445V30.5843V30.6241V30.664V30.7038V30.7437V30.7835V30.8233V30.8632V30.903V30.9428V30.9827V31.0225V31.0624V31.1022V31.142V31.1819V31.2217V31.2616V31.3014V31.3413V31.3811V31.4209V31.4608V31.5006V31.5405V31.5803V31.6202V31.66C30.37 32.0446 30.2479 32.2517 30.0038 32.3645C29.8526 32.4316 29.7305 32.4416 29.6224 32.4233C29.5079 32.4039 29.3759 32.3468 29.2208 32.2306C28.0006 31.3104 26.7899 30.3999 25.529 29.4592L25.1803 29.1991L24.8745 29.5084C23.9956 30.3973 23.1466 31.2463 22.2964 32.0964C22.0047 32.3882 21.8099 32.4525 21.685 32.4525C21.5601 32.4525 21.3653 32.3882 21.0736 32.0964L18.4936 29.5164L18.1885 29.2114L17.8421 29.4685C17.5456 29.6884 17.2636 29.9008 16.9846 30.111C16.6631 30.3532 16.3455 30.5925 16.0142 30.8369C15.3826 31.2981 14.7592 31.7606 14.1448 32.2339Z" stroke="#838383"/>
<path d="M16.1099 17.77H26.7099" stroke="#838383" stroke-width="1.4" stroke-linecap="round"/>
<path d="M16.1099 20.77H24.7099" stroke="#838383" stroke-width="1.4" stroke-linecap="round"/>
<path d="M16.1099 14.77H28.7099" stroke="#838383" stroke-width="1.4" stroke-linecap="round"/>
<mask id="path-6-inside-1_10603_19451" fill="white">
<path d="M12.7875 24.84L7.96745 29.66C7.51745 30.11 6.7875 30.11 6.3375 29.66C5.8875 29.21 5.8875 28.48 6.3375 28.03L11.1575 23.21"/>
</mask>
<path d="M7.96745 29.66L7.26034 28.9529L7.26034 28.9529L7.96745 29.66ZM6.3375 28.03L7.04461 28.7371L7.04461 28.7371L6.3375 28.03ZM12.0803 24.1329L7.26034 28.9529L8.67456 30.3671L13.4946 25.5471L12.0803 24.1329ZM7.26034 28.9529C7.20087 29.0123 7.10408 29.0123 7.04461 28.9529L5.63039 30.3671C6.47092 31.2076 7.83403 31.2076 8.67456 30.3671L7.26034 28.9529ZM7.04461 28.9529C6.98513 28.8934 6.98513 28.7965 7.04461 28.7371L5.63039 27.3229C4.78987 28.1634 4.78987 29.5265 5.63039 30.3671L7.04461 28.9529ZM7.04461 28.7371L11.8646 23.9171L10.4503 22.5029L5.63039 27.3229L7.04461 28.7371Z" fill="#838383" mask="url(#path-6-inside-1_10603_19451)"/>
<path d="M16.2473 26.02C19.8473 26.02 22.7573 23.11 22.7573 19.51C22.7573 15.91 19.8473 13 16.2473 13C12.6473 13 9.7373 15.91 9.7373 19.51C9.7373 23.11 12.6473 26.02 16.2473 26.02Z" fill="#D1D1D1" fill-opacity="0.8"/>
<path d="M16.2473 25.52C19.5634 25.52 22.2573 22.8261 22.2573 19.51M16.2473 25.52C12.9312 25.52 10.2373 22.8261 10.2373 19.51M16.2473 25.52C12.9234 25.52 10.2373 22.8339 10.2373 19.51M16.2473 25.52C19.5712 25.52 22.2573 22.8339 22.2573 19.51M22.2573 19.51C22.2573 16.1939 19.5634 13.5 16.2473 13.5M22.2573 19.51C22.2573 16.1861 19.5712 13.5 16.2473 13.5M10.2373 19.51C10.2373 16.1939 12.9312 13.5 16.2473 13.5M10.2373 19.51C10.2373 16.1861 12.9234 13.5 16.2473 13.5" stroke="#838383"/>
<path d="M19.4423 20.8895C19.4267 21.0404 19.3917 21.1705 19.3436 21.2816C19.3786 21.1191 19.3916 20.9457 19.3916 20.772C19.3916 20.5594 19.3714 20.3303 19.3054 20.1211C19.3914 20.2791 19.4423 20.4782 19.4423 20.7092V20.8895ZM17.4157 20.799C17.4157 20.589 17.4579 20.3983 17.5316 20.2372C17.4891 20.4147 17.4755 20.6002 17.4755 20.772C17.4755 20.9882 17.4996 21.214 17.5692 21.4195C17.4753 21.2589 17.4157 21.0523 17.4157 20.799ZM15.5266 18.5448V18.7251C15.511 18.8762 15.476 19.0063 15.4277 19.1176C15.4628 18.955 15.4758 18.7814 15.4758 18.6076C15.4758 18.4044 15.4586 18.1828 15.3979 17.9785C15.479 18.1328 15.5266 18.3246 15.5266 18.5448ZM13.5598 18.6076C13.5598 18.8319 13.5871 19.0637 13.662 19.2724C13.5591 19.1052 13.5 18.8938 13.5 18.6436C13.5 18.4311 13.5432 18.2385 13.6184 18.0763C13.5748 18.2519 13.5598 18.4358 13.5598 18.6076Z" stroke="#838383"/>
</svg>
