<svg width="42" height="42" viewBox="0 0 42 42" fill="none" xmlns="http://www.w3.org/2000/svg">
<g filter="url(#filter0_b_10898_19004)">
<path d="M14.4002 33.1H27.6002C27.796 33.1 27.983 33.067 28.1634 33.0186L24.0285 28.8837C23.1316 29.4812 22.0779 29.8 21.0002 29.8C17.9675 29.8 15.5002 27.3327 15.5002 24.3C15.5002 21.2673 17.9675 18.8 21.0002 18.8C24.0329 18.8 26.5002 21.2673 26.5002 24.3C26.5003 25.3778 26.1815 26.4314 25.5839 27.3283L29.7188 31.4632C29.7672 31.2828 29.8002 31.0958 29.8002 30.9V15.6001L23.2002 9.0001H14.4002C13.8167 9.0001 13.2571 9.23188 12.8446 9.64447C12.432 10.057 12.2002 10.6166 12.2002 11.2001L12.2002 30.9C12.2002 31.4834 12.432 32.043 12.8446 32.4556C13.2571 32.8682 13.8167 33.1 14.4002 33.1Z" stroke="#838383"/>
<path d="M16.2 12.77C16.2 12.7313 16.2313 12.7 16.27 12.7H21C21.0387 12.7 21.07 12.7313 21.07 12.77C21.07 12.8087 21.0387 12.84 21 12.84H16.27C16.2313 12.84 16.2 12.8087 16.2 12.77Z" stroke="#838383" stroke-width="1.4" stroke-linecap="round"/>
<path d="M16.2 15.77C16.2 15.7313 16.2313 15.7 16.27 15.7H23.2C23.2387 15.7 23.27 15.7313 23.27 15.77C23.27 15.8087 23.2387 15.84 23.2 15.84H16.27C16.2313 15.84 16.2 15.8087 16.2 15.77Z" stroke="#838383" stroke-width="1.4" stroke-linecap="round"/>
<path d="M23.8002 24.3C23.8002 25.8464 22.5466 27.1 21.0002 27.1C19.4537 27.1 18.2002 25.8464 18.2002 24.3C18.2002 22.7536 19.4537 21.5 21.0002 21.5C22.5466 21.5 23.8002 22.7536 23.8002 24.3Z" stroke="#838383"/>
</g>
<defs>
<filter id="filter0_b_10898_19004" x="-14" y="-14" width="70" height="70" filterUnits="userSpaceOnUse" color-interpolation-filters="sRGB">
<feFlood flood-opacity="0" result="BackgroundImageFix"/>
<feGaussianBlur in="BackgroundImageFix" stdDeviation="7"/>
<feComposite in2="SourceAlpha" operator="in" result="effect1_backgroundBlur_10898_19004"/>
<feBlend mode="normal" in="SourceGraphic" in2="effect1_backgroundBlur_10898_19004" result="shape"/>
</filter>
</defs>
</svg>
