<svg width="42" height="42" viewBox="0 0 42 42" fill="none" xmlns="http://www.w3.org/2000/svg">
<path d="M22.1465 30.367C22.1465 30.242 22.0452 30.1406 21.9201 30.1406H11.7515C11.6265 30.1406 11.5252 30.242 11.5252 30.367C11.5252 30.492 11.6265 30.5933 11.7515 30.5933H21.9201C22.0452 30.5933 22.1465 30.492 22.1465 30.367Z" stroke="#838383"/>
<path d="M26.5044 33.2722C26.5044 33.1472 26.4031 33.0459 26.2781 33.0459H19.0147C18.8897 33.0459 18.7884 33.1472 18.7884 33.2722C18.7884 33.3972 18.8897 33.4985 19.0147 33.4985H26.2781C26.4031 33.4985 26.5044 33.3972 26.5044 33.2722Z" stroke="#838383"/>
<path d="M28.7152 26.6796L28.3599 27.0349L28.0064 26.6779L25.8803 24.5311L25.5595 24.2071L25.8525 23.8579C27.5827 21.7955 28.0888 19.1357 27.521 16.7531L25.4322 18.8418C25.3443 21.8662 22.8522 24.4627 19.6213 24.4627C17.6794 24.4626 15.9581 23.5055 14.903 22.0416C14.8184 21.9242 14.6603 21.666 14.5121 21.3952C14.3695 21.1345 14.2059 20.8083 14.1285 20.5533C13.4314 18.5474 13.8596 16.1897 15.5105 14.5387L15.5105 14.5387C17.5194 12.5299 20.6153 12.3041 22.8687 13.8262L24.5226 12.1723C21.3433 9.75765 16.7878 9.99754 13.8786 12.9067C12.3441 14.4412 11.5 16.479 11.5 18.6493C11.5 23.127 15.1436 26.7707 19.6213 26.7707C21.575 26.7707 23.4205 26.0863 24.8883 24.8314L25.2415 24.5294L25.5685 24.8596L27.6898 27.0014L28.0399 27.355L27.6881 27.7068L26.7916 28.6033L31.4778 33.2896L34.2929 30.4745L29.6066 25.7882L28.7152 26.6796Z" stroke="#838383"/>
<path d="M18.183 18.1822L18.5366 17.8286L18.8901 18.1822L20.7639 20.0561L28.6938 12.1263L29.5473 11.2727V12.4798V13.858H30L30 10.5H26.642V10.9526L28.0202 10.9527L29.2272 10.9527L28.3737 11.8062L21.1175 19.0625L20.7639 19.416L20.4103 19.0624L18.5366 17.1885L15.2333 20.4917L15.4528 20.9124L18.183 18.1822Z" stroke="#838383"/>
</svg>
