<svg width="42" height="42" viewBox="0 0 42 42" fill="none" xmlns="http://www.w3.org/2000/svg">
<g filter="url(#filter0_b_11266_19661)">
<path d="M31.2276 27.9168C32.2673 26.3609 32.9248 24.5894 33.1564 22.7461C33.2597 21.9242 32.5784 21.25 31.75 21.25H31.15C30.3216 21.25 29.6636 21.9268 29.5164 22.7421C29.3125 23.8719 28.8781 24.9534 28.2343 25.9168C27.3113 27.2982 25.9994 28.3748 24.4645 29.0106C22.9296 29.6464 21.2407 29.8127 19.6112 29.4886C17.9818 29.1645 16.4851 28.3645 15.3103 27.1897C14.1355 26.0149 13.3355 24.5182 13.0114 22.8888C12.6873 21.2593 12.8536 19.5704 13.4894 18.0355C14.1252 16.5006 15.2018 15.1887 16.5832 14.2657C17.5466 13.6219 18.6281 13.1875 19.7579 12.9836C20.5732 12.8364 21.25 12.1784 21.25 11.35L21.25 10.75C21.25 9.92157 20.5758 9.24034 19.7539 9.34362C17.9106 9.57524 16.1391 10.2327 14.5832 11.2724C12.6098 12.5909 11.0717 14.4651 10.1634 16.6578C9.25519 18.8505 9.01755 21.2633 9.48058 23.5911C9.9436 25.9189 11.0865 28.0571 12.7647 29.7353C14.4429 31.4135 16.5811 32.5564 18.9089 33.0194C21.2367 33.4824 23.6495 33.2448 25.8422 32.3366C28.0349 31.4283 29.9091 29.8902 31.2276 27.9168Z" stroke="#838383"/>
<path d="M29.8766 12.9084C31.2775 14.3572 32.2869 16.131 32.8191 18.063C32.9755 18.631 32.5864 19.1881 32.0069 19.2935L30.5639 19.556C29.9843 19.6614 29.4355 19.2739 29.2575 18.7123C28.8667 17.479 28.1946 16.3478 27.2886 15.4109C26.3826 14.474 25.2746 13.7643 24.0552 13.3322C23.4999 13.1355 23.131 12.574 23.2559 11.9983L23.5666 10.5649C23.6915 9.98919 24.2613 9.61905 24.8237 9.79449C26.7367 10.3913 28.4757 11.4597 29.8766 12.9084Z" stroke="#838383"/>
<path d="M21.104 26.1075H19.6216V20.0093H21.104V26.1075Z" stroke="#838383"/>
<path d="M24.1291 26.1069H22.6079V20.9009H24.1291V26.1069Z" stroke="#838383"/>
<path d="M23.247 17.8357L23.3404 18.1159C23.3482 18.1392 23.3501 18.1514 23.3512 18.1627C23.3531 18.1819 23.3536 18.2047 23.3536 18.2681C23.3536 18.6235 23.0624 18.9318 22.6899 18.9318C22.3174 18.9318 22.0263 18.6235 22.0263 18.2681C22.0263 18.2596 22.0279 18.2411 22.0376 18.1879C22.0383 18.1844 22.039 18.1804 22.0398 18.176C22.0436 18.1551 22.0491 18.1256 22.0532 18.0987C22.0582 18.0659 22.0651 18.0149 22.0651 17.9578V17.9229L22.3266 17.766C22.4584 17.6868 22.6033 17.6433 22.7287 17.6433C22.8542 17.6433 22.999 17.6868 23.1309 17.766L23.247 17.8357ZM20.7524 16.5258L20.6045 16.8215L20.3994 16.9856C20.3341 17.0378 20.2363 17.0699 20.0523 17.0699C19.9728 17.0699 19.8752 17.0485 19.7838 17.018L19.6544 16.9749L19.5299 16.7257C19.4608 16.5876 19.4275 16.4799 19.4275 16.4063C19.4275 16.0618 19.7467 15.7427 20.0911 15.7427C20.4636 15.7427 20.7548 16.051 20.7548 16.4063C20.7548 16.4364 20.7547 16.4601 20.7543 16.4823C20.7539 16.5012 20.7532 16.5152 20.7524 16.5258ZM17.6426 18.9084L17.7298 18.9302L17.8597 19.1899C17.9288 19.3281 17.962 19.4358 17.962 19.5093C17.962 19.8818 17.6538 20.173 17.2984 20.173C16.943 20.173 16.6348 19.8818 16.6348 19.5093C16.6348 19.1649 16.9539 18.8457 17.2984 18.8457C17.3813 18.8457 17.4757 18.8666 17.6426 18.9084Z" stroke="#838383"/>
<path d="M18.156 26.107H16.6348V21.8706H18.156V26.107Z" stroke="#838383"/>
</g>
<defs>
<filter id="filter0_b_11266_19661" x="-14" y="-14" width="70" height="70" filterUnits="userSpaceOnUse" color-interpolation-filters="sRGB">
<feFlood flood-opacity="0" result="BackgroundImageFix"/>
<feGaussianBlur in="BackgroundImageFix" stdDeviation="7"/>
<feComposite in2="SourceAlpha" operator="in" result="effect1_backgroundBlur_11266_19661"/>
<feBlend mode="normal" in="SourceGraphic" in2="effect1_backgroundBlur_11266_19661" result="shape"/>
</filter>
</defs>
</svg>
