<svg width="42" height="42" viewBox="0 0 42 42" fill="none" xmlns="http://www.w3.org/2000/svg">
<path d="M18.225 28.73C24.055 30.31 30.035 26.87 31.615 21.04C33.195 15.21 29.755 9.23002 23.925 7.65002C18.095 6.07002 12.115 9.51002 10.535 15.34C8.95503 21.17 12.395 27.15 18.225 28.73Z" fill="#959595" fill-opacity="0.2"/>
<path d="M21.9551 20.35H22.6951C22.9351 20.35 23.1651 20.43 23.3551 20.58C23.7751 20.52 24.1751 20.41 24.5251 20.26C24.6251 20.11 24.7151 19.95 24.7951 19.78V18.13C24.7951 17.76 24.9351 17.41 25.1651 17.15C24.8251 15.16 23.1251 13.64 21.0751 13.64C19.0251 13.64 17.3351 15.16 16.9851 17.15C17.2151 17.41 17.3551 17.76 17.3551 18.13V19.78C18.0351 21.18 19.4451 22.14 21.0751 22.14C21.1051 22.14 21.1251 22.14 21.1551 22.14C20.9951 21.95 20.8951 21.71 20.8951 21.44C20.8951 20.84 21.3751 20.35 21.9651 20.35H21.9551Z" fill="#636363"/>
<path d="M15.6255 17.1242L15.6149 17.3231L15.7942 17.41C16.0305 17.5246 16.1851 17.7554 16.1851 18.0101V19.9601C16.1851 20.3266 15.8773 20.6401 15.4751 20.6401H15.4551C15.0528 20.6401 14.7451 20.3266 14.7451 19.9601V18.0101C14.7451 17.745 14.8998 17.5158 15.1428 17.4015L15.3067 17.3244L15.3148 17.1435C15.4473 14.1813 17.9879 11.7901 21.0951 11.7901C24.2014 11.7901 26.7334 14.1807 26.8754 17.1444L26.884 17.3247L27.0473 17.4015C27.2903 17.5158 27.4451 17.745 27.4451 18.0101V19.9601C27.4451 20.3266 27.1373 20.6401 26.7351 20.6401H26.6851C26.5483 20.6401 26.4227 20.5998 26.3041 20.5257L26.135 20.42L26.1156 20.4336L26.037 20.2175C26.0043 20.1275 25.9851 20.0436 25.9851 19.9601V18.0101C25.9851 17.7554 26.1396 17.5246 26.3759 17.41L26.5559 17.3227L26.5446 17.123C26.3852 14.3179 23.9977 12.1001 21.0851 12.1001C18.1734 12.1001 15.7743 14.3171 15.6255 17.1242ZM25.9263 20.5664L26.0066 20.5106L25.9721 20.535C25.9497 20.5507 25.927 20.5663 25.9039 20.5818C25.9114 20.5767 25.9189 20.5716 25.9263 20.5664ZM23.1079 21.27L23.1929 21.3937L23.1865 21.3942L23.1096 21.5403C23.0594 21.6356 22.9594 21.7001 22.8451 21.7001H22.0451C21.8775 21.7001 21.7451 21.5611 21.7451 21.4101C21.7451 21.2656 21.8707 21.1301 22.0451 21.1301H22.8451C22.9578 21.1301 23.0488 21.1842 23.1079 21.27Z" stroke="#636363" stroke-width="0.6"/>
<path d="M18.523 23.4999H23.9566C23.9792 23.504 24.0114 23.51 24.0522 23.5179C24.1418 23.5352 24.2725 23.562 24.4335 23.5991C24.7562 23.6734 25.197 23.7881 25.6705 23.9498C26.6498 24.2841 27.6454 24.7789 28.1203 25.4336C28.7678 26.3262 29.015 27.103 29.015 28.05V29.8C29.015 30.2071 28.8208 30.3982 28.6094 30.5142C28.4943 30.5774 28.3741 30.6157 28.2793 30.6377C28.233 30.6485 28.1955 30.6548 28.1715 30.6583C28.1666 30.659 28.1623 30.6595 28.1587 30.66H14.0035C14.0001 30.6595 13.9963 30.659 13.992 30.6584C13.9678 30.6547 13.9301 30.6482 13.8836 30.637C13.7885 30.6143 13.6677 30.5751 13.5519 30.5111C13.3379 30.3929 13.145 30.2008 13.145 29.8V28.05C13.145 27.1043 13.3963 26.3241 14.0418 25.4207C14.5934 24.6488 15.6661 24.1548 16.6974 23.8576C17.1991 23.7131 17.6636 23.6227 18.0029 23.5686C18.1721 23.5416 18.3092 23.5238 18.4028 23.5128C18.4496 23.5074 18.4855 23.5036 18.5091 23.5013L18.523 23.4999Z" stroke="#636363"/>
<path d="M15.345 26.38L8.705 33.02C8.085 33.64 7.085 33.64 6.465 33.02C5.845 32.4 5.845 31.4 6.465 30.78L13.105 24.14" fill="#636363"/>
<path fill-rule="evenodd" clip-rule="evenodd" d="M18.665 27.11C23.585 28.44 28.665 25.52 29.995 20.6C31.325 15.68 28.405 10.6 23.485 9.27002C18.565 7.94002 13.485 10.86 12.155 15.78C10.825 20.7 13.745 25.78 18.665 27.11ZM31.615 21.04C30.035 26.87 24.055 30.31 18.225 28.73C12.395 27.15 8.95503 21.17 10.535 15.34C12.115 9.51002 18.095 6.07002 23.925 7.65002C29.755 9.23002 33.195 15.21 31.615 21.04Z" fill="#636363"/>
</svg>
