<svg width="42" height="42" viewBox="0 0 42 42" fill="none" xmlns="http://www.w3.org/2000/svg">
<path d="M25.2899 24.7999L21.4599 28.6299C21.2899 28.8099 21.1999 29.0399 21.1999 29.2799C21.1999 29.5199 21.2999 29.7599 21.4799 29.9299C21.6499 30.0999 21.8899 30.1999 22.1299 30.1899C22.3699 30.1799 22.6099 30.0899 22.7799 29.9199L26.3799 26.3099C26.4299 26.2599 26.4899 26.2199 26.5599 26.1899C26.6299 26.1599 26.6999 26.1499 26.7699 26.1499C26.8399 26.1499 26.9099 26.1599 26.9799 26.1899C27.0499 26.2199 27.1099 26.2599 27.1599 26.3099C27.2099 26.3599 27.2499 26.4199 27.2799 26.4899C27.3099 26.5599 27.3199 26.6299 27.3199 26.6999C27.3199 26.7699 27.3099 26.8399 27.2799 26.9099C27.2499 26.9799 27.2099 27.0399 27.1599 27.0899L23.5399 30.7099C23.1999 31.0399 22.7499 31.2499 22.2799 31.2799C21.8099 31.3099 21.3299 31.1799 20.9499 30.8999H16.6299C16.5099 30.8999 16.3799 30.8999 16.2599 30.9399C16.1399 30.9799 16.0299 31.0399 15.9399 31.1199C15.8499 31.1999 15.7699 31.2999 15.7199 31.4099C15.6699 31.5199 15.6399 31.6399 15.6299 31.7699C15.6299 31.8899 15.6399 32.0199 15.6899 32.1299C15.7299 32.2499 15.7999 32.3499 15.8799 32.4399C15.9699 32.5299 16.0699 32.5999 16.1799 32.6499C16.2899 32.6999 16.4199 32.7299 16.5399 32.7299H24.5299C24.9699 32.7299 25.3899 32.5499 25.6999 32.2499L28.2799 29.6699C28.4699 29.4799 28.6899 29.3299 28.9299 29.2299C29.1699 29.1299 29.4399 29.0799 29.6999 29.0799H31.5199V24.3099H26.4599C26.2399 24.3099 26.0299 24.3499 25.8299 24.4399C25.6299 24.5199 25.4499 24.6499 25.2899 24.7999Z" fill="#636363"/>
<path d="M33.8998 23.59H33.1298C32.9898 23.59 32.8598 23.64 32.7598 23.73C32.6598 23.82 32.5998 23.95 32.5898 24.08V29.33C32.5998 29.46 32.6598 29.59 32.7598 29.67C32.8598 29.76 32.9898 29.81 33.1198 29.81H33.8898C34.0298 29.81 34.1698 29.75 34.2698 29.65C34.3698 29.55 34.4298 29.41 34.4298 29.27V24.12C34.4298 24.05 34.4198 23.98 34.3898 23.91C34.3598 23.84 34.3198 23.79 34.2698 23.74C34.2198 23.69 34.1598 23.65 34.0998 23.62C34.0298 23.59 33.9598 23.58 33.8898 23.58L33.8998 23.59Z" fill="#636363"/>
<path d="M25.2899 24.82L21.4599 28.65C21.2899 28.83 21.1999 29.06 21.1999 29.3C21.1999 29.54 21.2999 29.78 21.4799 29.95C21.6499 30.12 21.8899 30.22 22.1299 30.21C22.3699 30.2 22.6099 30.11 22.7799 29.94L26.3799 26.33C26.4299 26.28 26.4899 26.24 26.5599 26.21C26.6299 26.18 26.6999 26.17 26.7699 26.17C26.8399 26.17 26.9099 26.18 26.9799 26.21C27.0499 26.24 27.1099 26.28 27.1599 26.33C27.2099 26.38 27.2499 26.44 27.2799 26.51C27.3099 26.58 27.3199 26.65 27.3199 26.72C27.3199 26.79 27.3099 26.86 27.2799 26.93C27.2499 27 27.2099 27.06 27.1599 27.11L23.5399 30.73C23.1999 31.06 22.7499 31.27 22.2799 31.3C21.8099 31.33 21.3299 31.2 20.9499 30.92H16.6299C16.5099 30.92 16.3799 30.92 16.2599 30.96C16.1399 31 16.0299 31.06 15.9399 31.14C15.8499 31.22 15.7699 31.32 15.7199 31.43C15.6699 31.54 15.6399 31.66 15.6299 31.79C15.6299 31.91 15.6399 32.04 15.6899 32.15C15.7299 32.27 15.7999 32.37 15.8799 32.46C15.9699 32.55 16.0699 32.62 16.1799 32.67C16.2899 32.72 16.4199 32.75 16.5399 32.75H24.5299C24.9699 32.75 25.3899 32.57 25.6999 32.27L28.2799 29.69C28.4699 29.5 28.6899 29.35 28.9299 29.25C29.1699 29.15 29.4399 29.1 29.6999 29.1H31.5199V24.33H26.4599C26.2399 24.33 26.0299 24.37 25.8299 24.46C25.6299 24.54 25.4499 24.67 25.2899 24.82Z" fill="#636363"/>
<path d="M33.8998 23.6H33.1298C32.9898 23.6 32.8598 23.65 32.7598 23.74C32.6598 23.83 32.5998 23.96 32.5898 24.09V29.34C32.5998 29.47 32.6598 29.6 32.7598 29.68C32.8598 29.77 32.9898 29.82 33.1198 29.82H33.8898C34.0298 29.82 34.1698 29.76 34.2698 29.66C34.3698 29.56 34.4298 29.42 34.4298 29.28V24.13C34.4298 24.06 34.4198 23.99 34.3898 23.92C34.3598 23.85 34.3198 23.8 34.2698 23.75C34.2198 23.7 34.1598 23.66 34.0998 23.63C34.0298 23.6 33.9598 23.59 33.8898 23.59L33.8998 23.6Z" fill="#636363"/>
<path d="M12.3238 11.2045C12.6056 11.1628 12.8533 11.0251 13.0577 10.8832C13.2647 10.7394 13.4733 10.5578 13.6693 10.3863L13.6693 10.3863L13.6745 10.3816C14.0915 10.0063 14.4271 9.73999 14.86 9.73999C15.2922 9.73999 15.6233 10.0122 16.0508 10.3863C16.2468 10.5578 16.4553 10.7394 16.6623 10.8832C16.8668 11.0252 17.1145 11.1629 17.3963 11.2045C17.5749 11.2313 17.7526 11.2018 17.8962 11.165C18.0473 11.1263 18.2048 11.0678 18.358 11.0027C18.6604 10.8743 18.9964 10.6982 19.3044 10.5369L19.3093 10.5343C19.3098 10.5341 19.3102 10.5338 19.3107 10.5336C19.6341 10.3667 19.8697 10.2504 20.1128 10.2147C20.2934 10.1881 20.4983 10.273 20.5846 10.4127L20.5851 10.4135C20.7504 10.6801 20.7115 11.0522 20.4659 11.4819C20.226 11.9017 19.8337 12.3189 19.3873 12.7167L19.3873 12.7167L19.3851 12.7187C18.6691 13.3647 17.884 13.889 17.6115 14.0647C17.5912 14.0778 17.5707 14.0918 17.5568 14.1013C17.5545 14.1029 17.5523 14.1043 17.5504 14.1056C17.5481 14.1072 17.546 14.1086 17.544 14.11H12.1994L12.1978 14.109C12.0336 14.0053 11.157 13.441 10.3621 12.7252C10.3323 12.6984 10.2998 12.6752 10.2652 12.6561M12.3238 11.2045C12.3235 11.2046 12.3231 11.2046 12.3228 11.2047L12.25 10.71L12.3249 11.2043C12.3246 11.2044 12.3242 11.2045 12.3238 11.2045ZM12.3238 11.2045C12.1452 11.2314 11.9675 11.2018 11.8238 11.165C11.6727 11.1263 11.5152 11.0678 11.362 11.0027C11.0597 10.8743 10.7236 10.6982 10.4156 10.5369L10.408 10.5329L10.3996 10.5285L10.3996 10.5284C10.0963 10.3621 9.85291 10.2508 9.60727 10.2147C9.42666 10.1881 9.22171 10.273 9.13542 10.4127L9.13497 10.4135C8.96968 10.6801 9.00858 11.0522 9.25414 11.4819C9.48178 11.8803 9.84686 12.2765 10.2652 12.6561M10.2652 12.6561C10.1879 12.6132 10.1002 12.59 10.01 12.59C10.126 12.59 10.2385 12.6326 10.3256 12.7104C10.3054 12.6923 10.2852 12.6742 10.2652 12.6561ZM17.5147 14.1289C17.5147 14.1289 17.5151 14.1286 17.5158 14.1283L17.5147 14.1289Z" stroke="#636363"/>
<path d="M12.3257 15.85H17.7343C19.1294 16.4066 20.3216 17.7479 21.187 19.4018C22.0556 21.0617 22.56 22.9627 22.56 24.58C22.56 24.7899 22.5486 24.9956 22.5301 25.1928L20.2464 27.4764C20.2021 27.5208 20.1597 27.5665 20.1194 27.6135C20.0171 27.7327 19.9159 27.8597 19.8211 27.9787C19.7934 28.0135 19.7662 28.0476 19.7397 28.0806C19.6182 28.232 19.505 28.3684 19.3888 28.4889C19.1558 28.7303 18.9452 28.8707 18.7115 28.9168C17.6238 29.1316 16.3815 29.19 15.03 29.19C12.8848 29.19 11.0402 29.0645 9.66309 28.4177C9.00197 28.1048 8.46891 27.6503 8.09794 27.0364C7.72592 26.4207 7.5 25.6164 7.5 24.58C7.5 22.9627 8.00444 21.0617 8.87302 19.4018C9.73842 17.7479 10.9306 16.4066 12.3257 15.85ZM22.51 25.41C22.51 25.3907 22.5112 25.3716 22.5135 25.3527L22.9827 25.4068L23.01 25.41H22.9859H22.51Z" stroke="#636363"/>
<path d="M15.9701 23.9H15.8301C15.7901 23.99 15.7301 24.08 15.6701 24.16C15.6101 24.24 15.5301 24.31 15.4301 24.38C15.3301 24.44 15.2201 24.49 15.0801 24.53C14.9501 24.57 14.7801 24.59 14.5901 24.59C14.3401 24.59 14.1201 24.55 13.9001 24.46C13.6901 24.37 13.5101 24.24 13.3501 24.07C13.2001 23.89 13.0701 23.68 12.9801 23.43C12.8901 23.18 12.8501 22.89 12.8501 22.57V22.43C12.8501 22.11 12.9001 21.82 12.9901 21.57C13.0901 21.32 13.2101 21.11 13.3701 20.94C13.5401 20.76 13.7201 20.63 13.9401 20.54C14.1601 20.45 14.3901 20.4 14.6301 20.4C14.9501 20.4 15.2001 20.46 15.3901 20.58C15.5801 20.7 15.7201 20.87 15.8301 21.08H15.9701V20.17H14.7201V19.26H15.9701V18.88H16.9801V19.26H17.4601V20.17H16.9801V24.47H15.9701V23.89V23.9ZM14.9101 23.63C15.2201 23.63 15.4801 23.53 15.6701 23.33C15.8701 23.13 15.9701 22.86 15.9701 22.54V22.44C15.9701 22.11 15.8701 21.85 15.6701 21.66C15.4801 21.46 15.2201 21.36 14.9101 21.36C14.6001 21.36 14.3401 21.46 14.1401 21.66C13.9401 21.86 13.8501 22.12 13.8501 22.45V22.55C13.8501 22.89 13.9501 23.15 14.1401 23.35C14.3401 23.54 14.5901 23.64 14.9101 23.64V23.63Z" fill="#636363"/>
<path d="M16.6701 25.47H13.3401V26.14H16.6701V25.47Z" fill="#636363"/>
</svg>
