<svg width="42" height="42" viewBox="0 0 42 42" fill="none" xmlns="http://www.w3.org/2000/svg">
<path d="M0 21C0 14.4768 0 11.2152 1.06569 8.64243C2.4866 5.21204 5.21204 2.4866 8.64243 1.06569C11.2152 0 14.4768 0 21 0C27.5232 0 30.7848 0 33.3576 1.06569C36.788 2.4866 39.5134 5.21204 40.9343 8.64243C42 11.2152 42 14.4768 42 21C42 27.5232 42 30.7848 40.9343 33.3576C39.5134 36.788 36.788 39.5134 33.3576 40.9343C30.7848 42 27.5232 42 21 42C14.4768 42 11.2152 42 8.64243 40.9343C5.21204 39.5134 2.4866 36.788 1.06569 33.3576C0 30.7848 0 27.5232 0 21Z" fill="#959595" fill-opacity="0.12"/>
<path d="M18.2253 28.73C24.0553 30.31 30.0353 26.87 31.6153 21.04C33.1953 15.21 29.7553 9.23002 23.9253 7.65002C18.0953 6.07002 12.1153 9.51002 10.5353 15.34C8.95528 21.17 12.3953 27.15 18.2253 28.73Z" fill="#959595" fill-opacity="0.12"/>
<path d="M21.9554 20.3501H22.6954C22.9354 20.3501 23.1654 20.4301 23.3554 20.5801C23.7754 20.5201 24.1754 20.4101 24.5254 20.2601C24.6254 20.1101 24.7154 19.9501 24.7954 19.7801V18.1301C24.7954 17.7601 24.9354 17.4101 25.1654 17.1501C24.8254 15.1601 23.1254 13.6401 21.0754 13.6401C19.0254 13.6401 17.3354 15.1601 16.9854 17.1501C17.2154 17.4101 17.3554 17.7601 17.3554 18.1301V19.7801C18.0354 21.1801 19.4454 22.1401 21.0754 22.1401C21.1054 22.1401 21.1254 22.1401 21.1554 22.1401C20.9954 21.9501 20.8954 21.7101 20.8954 21.4401C20.8954 20.8401 21.3754 20.3501 21.9654 20.3501H21.9554Z" fill="#838383"/>
<path d="M15.6257 17.1243L15.6152 17.3233L15.7944 17.4102C16.0307 17.5248 16.1853 17.7556 16.1853 18.0102V19.9602C16.1853 20.3267 15.8775 20.6402 15.4753 20.6402H15.4553C15.0531 20.6402 14.7453 20.3267 14.7453 19.9602V18.0102C14.7453 17.7452 14.9001 17.516 15.1431 17.4017L15.3069 17.3246L15.315 17.1436C15.4475 14.1815 17.9881 11.7902 21.0953 11.7902C24.2016 11.7902 26.7336 14.1808 26.8757 17.1446L26.8843 17.3248L27.0476 17.4017C27.2906 17.516 27.4453 17.7452 27.4453 18.0102V19.9602C27.4453 20.3267 27.1375 20.6402 26.7353 20.6402H26.6853C26.5485 20.6402 26.4229 20.6 26.3043 20.5258L26.1352 20.4202L26.1158 20.4338L26.0372 20.2177C26.0045 20.1277 25.9853 20.0438 25.9853 19.9602V18.0102C25.9853 17.7556 26.1399 17.5248 26.3762 17.4102L26.5562 17.3229L26.5448 17.1232C26.3854 14.3181 23.998 12.1002 21.0853 12.1002C18.1737 12.1002 15.7746 14.3173 15.6257 17.1243ZM25.9265 20.5666L26.0069 20.5107L25.9723 20.5351C25.95 20.5509 25.9273 20.5665 25.9042 20.582C25.9117 20.5769 25.9191 20.5717 25.9265 20.5666ZM23.1081 21.2702L23.1932 21.3939L23.1867 21.3944L23.1098 21.5405C23.0597 21.6358 22.9596 21.7002 22.8453 21.7002H22.0453C21.8777 21.7002 21.7453 21.5613 21.7453 21.4102C21.7453 21.2658 21.871 21.1302 22.0453 21.1302H22.8453C22.958 21.1302 23.0491 21.1843 23.1081 21.2702Z" stroke="#838383" stroke-width="0.6"/>
<path d="M28.1582 30.6601H14.003C13.9996 30.6596 13.9958 30.6591 13.9915 30.6584C13.9673 30.6548 13.9296 30.6482 13.8831 30.6371C13.788 30.6143 13.6672 30.5752 13.5514 30.5112C13.3374 30.393 13.1445 30.2009 13.1445 29.8001V28.0501C13.1445 27.1043 13.3958 26.3242 14.0414 25.4208C14.5929 24.6489 15.6656 24.1549 16.6969 23.8577C17.1986 23.7131 17.6631 23.6228 18.0024 23.5687C18.1716 23.5417 18.3087 23.5239 18.4023 23.5129C18.4492 23.5074 18.4851 23.5037 18.5087 23.5013L18.5225 23.5H23.9562C23.9788 23.5041 24.0109 23.51 24.0517 23.5179C24.1413 23.5353 24.272 23.5621 24.433 23.5991C24.7557 23.6734 25.1965 23.7882 25.67 23.9498C26.6493 24.2842 27.6449 24.779 28.1198 25.4337C28.7673 26.3262 29.0145 27.103 29.0145 28.0501V29.8001C29.0145 30.2071 28.8203 30.3982 28.609 30.5143C28.4938 30.5774 28.3736 30.6157 28.2788 30.6378C28.2325 30.6486 28.195 30.6549 28.171 30.6583C28.1661 30.659 28.1618 30.6596 28.1582 30.6601Z" stroke="#838383"/>
<path d="M15.345 26.3801L8.705 33.0201C8.085 33.6401 7.085 33.6401 6.465 33.0201C5.845 32.4001 5.845 31.4001 6.465 30.7801L13.105 24.1401" fill="#838383"/>
<path fill-rule="evenodd" clip-rule="evenodd" d="M18.6653 27.11C23.5853 28.44 28.6653 25.52 29.9953 20.6C31.3253 15.68 28.4053 10.6 23.4853 9.27002C18.5653 7.94002 13.4853 10.86 12.1553 15.78C10.8253 20.7 13.7453 25.78 18.6653 27.11ZM31.6153 21.04C30.0353 26.87 24.0553 30.31 18.2253 28.73C12.3953 27.15 8.95528 21.17 10.5353 15.34C12.1153 9.51002 18.0953 6.07002 23.9253 7.65002C29.7553 9.23002 33.1953 15.21 31.6153 21.04Z" fill="#838383"/>
</svg>
