<svg width="16" height="17" viewBox="0 0 16 17" fill="none" xmlns="http://www.w3.org/2000/svg">
<path fill-rule="evenodd" clip-rule="evenodd" d="M8.00016 2.33398C4.59441 2.33398 1.8335 5.0949 1.8335 8.50065C1.8335 11.9064 4.59441 14.6673 8.00016 14.6673C11.4059 14.6673 14.1668 11.9064 14.1668 8.50065C14.1668 5.0949 11.4059 2.33398 8.00016 2.33398ZM0.833496 8.50065C0.833496 4.54261 4.04212 1.33398 8.00016 1.33398C11.9582 1.33398 15.1668 4.54261 15.1668 8.50065C15.1668 12.4587 11.9582 15.6673 8.00016 15.6673C4.04212 15.6673 0.833496 12.4587 0.833496 8.50065ZM8.00016 5.66732C7.58595 5.66732 7.25016 6.0031 7.25016 6.41732C7.25016 6.69346 7.02631 6.91732 6.75016 6.91732C6.47402 6.91732 6.25016 6.69346 6.25016 6.41732C6.25016 5.45082 7.03366 4.66732 8.00016 4.66732C8.96666 4.66732 9.75016 5.45082 9.75016 6.41732C9.75016 7.05954 9.40393 7.62037 8.89034 7.92423C8.75917 8.00183 8.65089 8.08657 8.58035 8.1697C8.51186 8.2504 8.50016 8.30305 8.50016 8.33398V9.16732C8.50016 9.44346 8.27631 9.66732 8.00016 9.66732C7.72402 9.66732 7.50016 9.44346 7.50016 9.16732V8.33398C7.50016 7.99673 7.64781 7.72307 7.81789 7.52266C7.98591 7.32467 8.19542 7.17345 8.38114 7.06358C8.60312 6.93225 8.75016 6.69169 8.75016 6.41732C8.75016 6.0031 8.41438 5.66732 8.00016 5.66732ZM8.00016 11.834C8.36835 11.834 8.66683 11.5355 8.66683 11.1673C8.66683 10.7991 8.36835 10.5007 8.00016 10.5007C7.63197 10.5007 7.3335 10.7991 7.3335 11.1673C7.3335 11.5355 7.63197 11.834 8.00016 11.834Z" fill="#1AAF74"/>
</svg>
