<svg width="100" height="100" viewBox="0 0 100 100" fill="none" xmlns="http://www.w3.org/2000/svg">
<path fill-rule="evenodd" clip-rule="evenodd" d="M51.8705 28.2404C48.6283 27.8474 45.2313 28.4651 42.1885 30.2218C34.7162 34.536 32.156 44.0908 36.4702 51.5631C38.797 55.5933 42.6482 58.1945 46.875 59.059V68.7517C46.875 70.4776 48.2741 71.8767 50 71.8767C51.7259 71.8767 53.125 70.4776 53.125 68.7517V59.0632C54.7315 58.7351 56.3133 58.1464 57.8115 57.2815C60.8542 55.5248 63.0876 52.8918 64.3684 49.8874C66.2261 45.5298 66.0865 40.3684 63.5298 35.9402C60.9732 31.512 56.5732 28.8104 51.8705 28.2404ZM45.3135 35.6345C47.144 34.5777 49.1738 34.2093 51.1184 34.445C53.9538 34.7887 56.5849 36.4113 58.1172 39.0652C59.6494 41.7191 59.7391 44.8091 58.619 47.4364C57.8509 49.2383 56.5169 50.812 54.6865 51.8689C50.2035 54.4571 44.4711 52.9211 41.8828 48.4381C39.2946 43.9551 40.8305 38.2227 45.3135 35.6345Z" fill="#1AAF74"/>
<path fill-rule="evenodd" clip-rule="evenodd" d="M50 5.20898C46.0937 5.20898 42.3638 6.48641 36.3475 8.54697L33.3164 9.58455C27.1442 11.6973 22.3808 13.3278 18.971 14.7131C17.2533 15.4109 15.7765 16.0868 14.5874 16.7773C13.4431 17.4419 12.2951 18.2708 11.5151 19.3821C10.7442 20.4805 10.3456 21.8308 10.0951 23.1307C9.83463 24.4821 9.6776 26.1033 9.57625 27.9647C9.375 31.6605 9.375 36.7236 9.375 43.2908V49.9646C9.375 75.3857 28.5751 87.5736 39.9931 92.5613L40.106 92.6106C41.5218 93.2293 42.8526 93.8108 44.3817 94.2023C45.9961 94.6155 47.7114 94.7923 50 94.7923C52.2886 94.7923 54.0039 94.6156 55.6183 94.2023C57.1474 93.8108 58.4781 93.2294 59.8939 92.6107L60.0069 92.5613C71.4249 87.5737 90.625 75.3857 90.625 49.9646V43.2915C90.625 36.724 90.625 31.6606 90.4237 27.9647C90.3224 26.1033 90.1654 24.4821 89.9049 23.1307C89.6544 21.8308 89.2558 20.4805 88.4849 19.3821C87.7049 18.2708 86.5569 17.4419 85.4126 16.7773C84.2235 16.0868 82.7467 15.4109 81.029 14.7131C77.6191 13.3278 72.8557 11.6973 66.6835 9.58454L63.6526 8.54697C57.6362 6.48642 53.9063 5.20898 50 5.20898ZM37.8359 14.6436C44.5631 12.3408 47.2594 11.459 50 11.459C52.7406 11.459 55.4369 12.3408 62.1641 14.6436L64.5508 15.4605C70.8533 17.6179 75.4496 19.1925 78.6767 20.5035C80.2875 21.1579 81.4546 21.7063 82.2738 22.182C82.6782 22.4169 82.9569 22.6107 83.143 22.762C83.3007 22.8902 83.3609 22.9628 83.3696 22.9735C83.3776 22.9865 83.4294 23.073 83.5024 23.2779C83.5856 23.5117 83.6779 23.8468 83.7678 24.3134C83.9498 25.2577 84.0877 26.5549 84.183 28.3045C84.3738 31.8094 84.375 36.702 84.375 43.4034V49.9646C84.375 71.5276 68.2504 82.1401 57.5051 86.8339C55.9572 87.5101 55.0634 87.8928 54.0683 88.1475C53.118 88.3908 51.9583 88.5423 50 88.5423C48.0417 88.5423 46.882 88.3908 45.9317 88.1475C44.9366 87.8928 44.0428 87.5101 42.4949 86.8339C31.7496 82.14 15.625 71.5276 15.625 49.9646V43.4034C15.625 36.702 15.6261 31.8094 15.817 28.3045C15.9123 26.5549 16.0502 25.2577 16.2321 24.3134C16.322 23.8468 16.4143 23.5117 16.4976 23.2779C16.5705 23.0732 16.6223 22.9866 16.6304 22.9735C16.639 22.9629 16.6992 22.8903 16.857 22.762C17.0431 22.6107 17.3218 22.4169 17.7262 22.182C18.5454 21.7063 19.7125 21.1579 21.3233 20.5035C24.5504 19.1925 29.1467 17.6179 35.4492 15.4605L37.8359 14.6436Z" fill="#1AAF74"/>
</svg>
