<svg width="64" height="63" viewBox="0 0 64 63" fill="none" xmlns="http://www.w3.org/2000/svg">
<path d="M36.9051 3.18246L36.2822 0.294077C35.2833 0.166127 34.2731 0.0835663 33.2538 0.050282C32.2345 0.0169977 31.2209 0.0325609 30.2158 0.0952391L29.4049 2.93651C28.4825 6.16854 24.3673 7.12729 22.1109 4.63659L20.1186 2.43681C18.2564 3.21315 16.4673 4.17104 14.7737 5.30357L15.4925 8.17294C16.3095 11.4331 13.2253 14.321 10.0257 13.2922L7.20949 12.3866C5.96846 14.0024 4.89471 15.7246 3.9982 17.5323L6.06225 19.6647C8.39993 22.0797 7.17275 26.1227 3.88755 26.8316L0.999158 27.4545C0.871208 28.4534 0.788648 29.4636 0.755364 30.4829C0.722079 31.5022 0.737629 32.5159 0.800308 33.5209L3.64159 34.3318C6.87319 35.2543 7.83237 39.3694 5.34167 41.6258L3.14189 43.6181C3.91823 45.4803 4.87613 47.2694 6.00909 48.9631L8.87845 48.2442C12.1386 47.4272 15.0265 50.5114 13.9977 53.711L13.0922 56.5272C14.708 57.7683 16.4301 58.842 18.2378 59.7385L20.3702 57.6744C22.7852 55.3368 26.8282 56.564 27.5367 59.8492L28.1596 62.7376C29.1585 62.8655 30.1687 62.9481 31.188 62.9813C32.2073 63.0146 33.2205 62.9991 34.226 62.9364L35.0369 60.0951C35.9593 56.8631 40.0745 55.9043 42.3309 58.395L44.3232 60.5948C46.1854 59.8185 47.9745 58.8606 49.6681 57.7281L48.9488 54.8583C48.1319 51.5981 51.2161 48.7102 54.4157 49.739L57.2319 50.6445C58.4729 49.0287 59.5466 47.3066 60.4432 45.4989L58.3791 43.3665C56.0414 40.9515 57.2686 36.9085 60.5538 36.1996L63.4422 35.5767C63.5702 34.5778 63.6527 33.5676 63.686 32.5483C63.7193 31.529 63.7037 30.5153 63.641 29.5103L60.7998 28.6994C57.5677 27.777 56.609 23.6618 59.0997 21.4054L61.2995 19.4131C60.5231 17.5509 59.5652 15.7618 58.4327 14.0681L55.5633 14.787C52.3032 15.604 49.4153 12.5198 50.444 9.32017L51.3496 6.50397C49.7338 5.26294 48.0117 4.1892 46.204 3.29269L44.0716 5.35675C41.657 7.69486 37.6136 6.46767 36.9051 3.18246ZM45.103 31.9388C44.8696 39.0534 38.9126 44.6318 31.7979 44.3984C24.6833 44.1649 19.1049 38.2079 19.3384 31.0928C19.5718 23.9782 25.5288 18.3999 32.6434 18.6333C39.7585 18.8667 45.3369 24.8237 45.103 31.9388Z" fill="#F36F21"/>
</svg>
