<svg width="84" height="83" viewBox="0 0 84 83" fill="none" xmlns="http://www.w3.org/2000/svg">
<path d="M28.094 6.80222L28.0941 6.80234C31.647 10.7241 38.1267 9.21465 39.5793 4.12531L40.4299 1.14486C41.4625 1.10015 42.5017 1.09427 43.5455 1.12836C44.5888 1.16243 45.625 1.2368 46.6529 1.34902L47.3063 4.37864C48.4218 9.55143 54.7885 11.484 58.5907 7.80243C58.5908 7.80239 58.5908 7.80234 58.5909 7.8023L60.8304 5.63445C62.6655 6.58972 64.4288 7.6897 66.107 8.92801L65.1559 11.8858C63.536 16.9237 68.0832 21.7802 73.2167 20.4938C73.2167 20.4938 73.2167 20.4938 73.2168 20.4938L76.2303 19.7388C77.3557 21.4943 78.3372 23.3262 79.1703 25.2197L76.8599 27.3122L76.8598 27.3123C72.9381 30.8651 74.4475 37.3449 79.5369 38.7975L82.5173 39.6481C82.562 40.6807 82.5679 41.7199 82.5338 42.7637C82.4997 43.8069 82.4254 44.8432 82.3131 45.8711L79.2835 46.5244L79.2834 46.5245C74.1107 47.6407 72.1782 54.0066 75.8592 57.8095L76.6542 57.0399L75.8592 57.8095L78.0272 60.0492C77.0719 61.8842 75.9719 63.6476 74.7336 65.3257L71.7758 64.3746C66.7379 62.7547 61.8814 67.302 63.1678 72.4355L64.2411 72.1665L63.1678 72.4355L63.9233 75.4496C62.1678 76.5751 60.336 77.5566 58.4424 78.3897L56.35 76.0793L56.3498 76.0791C52.797 72.1574 46.3172 73.6668 44.8647 78.7562L44.0141 81.7366C42.9813 81.7813 41.9424 81.7872 40.8985 81.7531C39.8552 81.7191 38.819 81.6447 37.7911 81.5325L37.1377 78.5028C36.0222 73.3299 29.656 71.3976 25.8533 75.0785L26.6228 75.8735L25.8533 75.0785L23.6136 77.2465C21.7785 76.2912 20.0151 75.1912 18.337 73.9529L19.2881 70.9952L18.2348 70.6564L19.2881 70.9951C20.908 65.9572 16.3608 61.1007 11.2273 62.3871C11.2273 62.3871 11.2273 62.3871 11.2272 62.3871L8.21358 63.1421C7.08777 61.3867 6.10621 59.5548 5.27308 57.6612L7.58348 55.5687L7.58359 55.5686C11.5054 52.0157 9.99519 45.536 4.9066 44.0835L4.90656 44.0835L1.9261 43.2328C1.8814 42.2002 1.87553 41.1611 1.90961 40.1172C1.94368 39.074 2.01806 38.0377 2.13027 37.0098L5.1599 36.3565L5.16004 36.3564C10.3327 35.2402 12.2652 28.8743 8.58425 25.0715L6.41627 22.8317C7.37154 20.9967 8.47152 19.2333 9.70984 17.5552L12.6676 18.5063L12.6676 18.5063C17.7055 20.1262 22.5621 15.5789 21.2756 10.4454L20.5206 7.43189C22.2761 6.30643 24.108 5.32493 26.0016 4.49182L28.094 6.80222ZM41.629 59.504C51.6047 59.8313 59.9573 52.0096 60.2846 42.0338C60.6125 32.0575 52.7908 23.7048 42.8145 23.3775C32.8387 23.0502 24.4861 30.8719 24.1588 40.8477C23.8315 50.824 31.6531 59.1767 41.629 59.504Z" stroke="#9B9B9B" stroke-width="2.21293"/>
</svg>
