<svg width="168" height="167" viewBox="0 0 168 167" fill="none" xmlns="http://www.w3.org/2000/svg">
<path d="M80.2073 7.17591L76.9709 0.0253906C74.3057 0.252418 71.6365 0.604634 68.9708 1.08885C66.3051 1.57306 63.6832 2.18244 61.1085 2.90733L60.5947 10.7389C60.0104 19.647 49.863 24.4436 42.6084 19.2402L36.2021 14.645C31.8015 17.7039 27.6934 21.1947 23.9301 25.0843L27.4049 32.1324C31.3531 40.1398 24.9634 49.3671 16.0792 48.488L8.2595 47.7148C5.942 52.6058 4.12011 57.679 2.8046 62.8744L9.35937 67.2545C16.7819 72.215 15.8618 83.4008 7.72864 87.0816L0.578125 90.318C0.805152 92.9831 1.15737 95.6523 1.64215 98.318C2.12636 100.984 2.73574 103.606 3.46064 106.18L11.2928 106.694C20.2009 107.278 24.9975 117.426 19.7941 124.68L15.1995 131.087C18.2584 135.487 21.7491 139.595 25.6388 143.359L32.6868 139.884C40.6937 135.936 49.921 142.325 49.0425 151.21L48.2687 159.029C53.1597 161.347 58.2328 163.169 63.4283 164.484L67.8084 157.929C72.7689 150.507 83.9546 151.427 87.6354 159.56L90.8719 166.711C93.537 166.484 96.2062 166.131 98.8713 165.647C101.537 165.162 104.159 164.553 106.734 163.828L107.248 155.996C107.832 147.087 117.98 142.291 125.234 147.495L131.641 152.089C136.041 149.03 140.149 145.54 143.913 141.65L140.438 134.602C136.49 126.595 142.879 117.367 151.764 118.246L159.584 119.02C161.901 114.129 163.723 109.055 165.039 103.86L158.484 99.4799C151.061 94.5194 151.981 83.3336 160.115 79.6528L167.265 76.4164C167.038 73.7512 166.686 71.0821 166.201 68.4164C165.717 65.7507 165.108 63.1288 164.383 60.5535L156.55 60.0397C147.642 59.4553 142.846 49.308 148.049 42.0533L152.644 35.6471C149.585 31.2465 146.094 27.1384 142.205 23.3751L135.156 26.8505C127.15 30.7987 117.922 24.4089 118.801 15.5247L119.575 7.70507C114.684 5.38757 109.61 3.56508 104.415 2.25015L100.034 8.80663C95.0739 16.2297 83.8881 15.3096 80.2073 7.17591ZM117.608 77.2477C120.989 95.852 108.647 113.674 90.0429 117.055C71.4386 120.435 53.616 108.094 50.2357 89.4895C46.8553 70.8852 59.1967 53.0627 77.801 49.6824C96.4053 46.302 114.227 58.6434 117.608 77.2477Z" fill="#22B24C"/>
</svg>
