<svg width="118" height="118" viewBox="0 0 118 118" fill="none" xmlns="http://www.w3.org/2000/svg">
<rect x="0.427734" y="0.428711" width="117.143" height="117.143" rx="25.7143" fill="#EFEFEF"/>
<path d="M90.9924 78.5674C90.9924 95.8529 81.6101 96.3921 57.2675 96.3921C57.2575 96.3921 57.2525 96.3921 57.2424 96.3921C32.8999 96.3921 23.5176 95.8529 23.5176 78.5674C23.5176 64.0327 36.5174 55.7276 48.6634 36.2905H57.2424H57.2675H65.8466C77.9926 55.7276 90.9924 64.0327 90.9924 78.5674Z" fill="#2C9A71"/>
<path d="M72.3 21.7316L66.7909 34.021H46.9514L41.4792 22.1486C41.3748 21.2675 42.5432 20.5504 43.6859 20.4941C44.8283 20.438 45.9133 20.8502 46.9358 21.244C47.9583 21.6379 49.0538 22.0362 50.1912 21.9564C52.6429 21.7876 54.5835 19.4817 56.9417 20.0394C58.3659 20.3722 59.1432 21.6658 60.5726 21.994C62.3515 22.4065 63.9739 21.169 65.6745 20.5972C67.8918 19.8473 70.7035 20.3301 72.3 21.7316Z" fill="#2C9A71"/>
<path fill-rule="evenodd" clip-rule="evenodd" d="M46.9517 33.4922C46.9517 33.4922 46.9528 33.491 46.9559 33.4922H66.7902L65.894 36.6759C65.894 36.6759 63.9029 36.5189 61.9452 36.4327L66.9455 50.2296C67.302 51.2128 66.5737 52.2512 65.5278 52.2512C64.8235 52.2512 64.2133 51.7639 64.0574 51.077L60.8887 37.1094L59.7599 47.1014C59.6707 47.8915 59.0021 48.4887 58.2069 48.4887C57.1652 48.4887 56.4149 47.4888 56.7067 46.4886L59.6536 36.3781H56.884H56.8578H53.6043C51.3223 36.4009 47.8484 36.6748 47.8484 36.6748L46.9531 33.4975L46.9517 33.4922Z" fill="#F8F8F8"/>
<path d="M94.5064 93.7577L94.6534 91.766L94.1427 91.7308C92.8053 88.6765 88.0278 86.1448 82.1676 85.6835C76.1473 85.2093 70.9141 87.0691 69.2543 90.0116L68.8554 89.9832L68.7171 91.7267C68.4125 95.6264 73.9352 99.2408 81.0561 99.8028C88.1815 100.363 94.2018 97.6555 94.5064 93.7577Z" fill="#48BE92"/>
<path d="M81.1965 98.0621C74.0754 97.5001 68.5529 93.8857 68.8597 89.9859C69.1646 86.0881 75.1871 83.3807 82.3058 83.9427C89.4267 84.505 94.9494 88.1194 94.6445 92.0192C94.3377 95.9145 88.3174 98.6221 81.1965 98.0621Z" fill="#48BE92"/>
<path d="M82.1109 85.1414C88.322 85.6309 93.1937 88.5999 93.2704 91.8651C93.2899 91.7552 93.3053 91.6431 93.3142 91.5312C93.5817 88.1363 88.5894 84.9766 82.1658 84.4695C75.7419 83.9622 70.3157 86.3031 70.0505 89.6977C70.0418 89.8098 70.0396 89.9217 70.0418 90.0338C70.6228 86.8213 75.8998 84.6494 82.1109 85.1414Z" fill="#48BE92"/>
<path d="M81.1986 96.7575C87.4097 97.2473 92.6867 95.0757 93.2699 91.8654C93.1954 88.6002 88.3217 85.6312 82.1106 85.1417C75.8996 84.6519 70.6223 86.8235 70.0391 90.0341C70.1138 93.297 74.9875 96.268 81.1986 96.7575Z" fill="#48BE92"/>
<path opacity="0.6" d="M93.0349 95.0703C93.0349 95.0703 92.9825 95.1537 92.8576 95.2943C92.7959 95.3645 92.7192 95.4502 92.6185 95.5425C92.568 95.5885 92.5176 95.6435 92.4584 95.6939C92.3993 95.7422 92.3335 95.7949 92.2677 95.8521C91.998 96.0738 91.6429 96.3109 91.2198 96.5569C91.007 96.6777 90.7724 96.7876 90.527 96.9125C90.2793 97.0269 90.0074 97.1278 89.731 97.2441C89.4481 97.3451 89.1478 97.4374 88.841 97.5406C88.5297 97.6329 88.2031 97.7032 87.8675 97.7888C87.7008 97.8349 87.5276 97.8611 87.3546 97.892C87.1792 97.9227 87.0038 97.9556 86.8261 97.9863C86.471 98.0611 86.1026 98.0873 85.73 98.1313C85.5437 98.1511 85.3551 98.1729 85.1666 98.1927C84.9758 98.208 84.785 98.2147 84.592 98.2256C84.2063 98.241 83.8161 98.2761 83.4214 98.2742C83.0268 98.2697 82.6299 98.2652 82.233 98.263L81.9348 98.2608C81.8361 98.2566 81.7354 98.2499 81.6367 98.2432L81.0381 98.208C80.6412 98.1818 80.2446 98.1553 79.8477 98.1291C79.4464 98.0984 79.0498 98.0479 78.6593 97.9863C77.8767 97.8633 77.118 97.6789 76.399 97.4617C75.6777 97.2464 74.998 96.9806 74.371 96.6908C73.744 96.401 73.1739 96.0783 72.6719 95.7489C72.1676 95.4195 71.7314 95.0812 71.3697 94.754C71.1833 94.5959 71.0255 94.4291 70.8698 94.2863C70.7229 94.1348 70.5915 93.992 70.4707 93.8648C70.2429 93.6013 70.0696 93.3882 69.96 93.2367C69.8482 93.0875 69.7891 93.0083 69.7891 93.0083C69.7891 93.0083 69.8546 93.083 69.9776 93.2236C70.0412 93.2917 70.1134 93.3818 70.2077 93.4783C70.302 93.575 70.4094 93.6869 70.5279 93.8143C70.6551 93.9329 70.7909 94.0668 70.9465 94.2073C71.1066 94.3412 71.2709 94.4949 71.4639 94.6399C71.8388 94.9428 72.2884 95.2482 72.7946 95.5534C73.8076 96.1617 75.0769 96.7237 76.4977 97.1234C77.2059 97.3275 77.9534 97.4834 78.7187 97.6042C79.1022 97.6614 79.4882 97.7096 79.8762 97.7361C80.2708 97.7579 80.6677 97.7821 81.0624 97.8064L81.652 97.8457C81.7507 97.8524 81.8495 97.8611 81.9479 97.8633L82.2441 97.8678C82.6366 97.8722 83.029 97.8787 83.417 97.8853C83.6122 97.8943 83.8049 97.8767 83.9979 97.8722C84.1909 97.8655 84.3817 97.8591 84.5722 97.8524C84.763 97.8435 84.9515 97.8435 85.1401 97.8304C85.3264 97.8128 85.513 97.7953 85.6971 97.7799C86.0633 97.7425 86.4292 97.7208 86.7778 97.6591C86.9533 97.6329 87.1287 97.6064 87.2997 97.5802C87.4707 97.5537 87.6416 97.5339 87.8062 97.4924C88.135 97.4176 88.4594 97.354 88.7687 97.277C89.0733 97.1892 89.3714 97.1102 89.6543 97.0224C89.9329 96.9214 90.2004 96.8291 90.4522 96.7326C90.6979 96.6227 90.937 96.5284 91.1517 96.4208C91.5793 96.2055 91.9433 95.9904 92.2216 95.7863C92.3619 95.685 92.4869 95.593 92.5878 95.5051C92.6952 95.4217 92.7764 95.3425 92.8422 95.2767C92.9758 95.1492 93.0349 95.0703 93.0349 95.0703Z" fill="#F8F8F8"/>
<path d="M81.5983 86.1535L81.1554 83.9336L80.5875 84.0521C78.2022 81.1272 72.2213 79.8208 65.6903 81.1007C58.9791 82.4161 53.836 86.0372 52.9195 89.7525L52.4766 89.8446L52.8559 91.788C53.7066 96.1335 60.8297 98.3974 68.7661 96.8405C76.7003 95.2836 82.4467 90.4989 81.5983 86.1535Z" fill="#5ACBA1"/>
<path d="M68.3839 94.8978C60.4453 96.4524 53.3244 94.1907 52.4737 89.845C51.6253 85.4996 57.3717 80.7148 65.3081 79.1602C73.2445 77.6055 80.3676 79.8672 81.2183 84.2127C82.0668 88.5584 76.3204 93.3431 68.3839 94.8978Z" fill="#5ACBA1"/>
<path d="M65.4605 80.5253C72.3839 79.1682 78.5994 80.9272 79.6716 84.4647C79.6607 84.3372 79.6431 84.2123 79.6189 84.087C78.88 80.3058 72.4762 78.3755 65.3135 79.7787C58.151 81.1819 52.9463 85.387 53.6851 89.1682C53.7091 89.2932 53.7398 89.4162 53.7771 89.537C53.4416 85.8567 58.5368 81.8822 65.4605 80.5253Z" fill="#5ACBA1"/>
<path d="M67.9889 93.4786C74.9124 92.1217 80.0098 88.1472 79.67 84.4669C78.5979 80.9295 72.3824 79.1726 65.4589 80.5276C58.5352 81.8845 53.4379 85.859 53.7756 89.5392C54.8497 93.0769 61.0652 94.8357 67.9889 93.4786Z" fill="#5ACBA1"/>
<path opacity="0.6" d="M80.3908 88.0332C80.3908 88.0332 80.3579 88.1409 80.2636 88.3319C80.2176 88.4262 80.1604 88.5447 80.0795 88.6766C80.0399 88.7425 80.0006 88.8172 79.9523 88.8895C79.9018 88.962 79.8469 89.039 79.79 89.1201C79.5618 89.445 79.2483 89.8118 78.8604 90.207C78.6651 90.4048 78.4417 90.5958 78.2136 90.8064C77.9768 91.0064 77.7115 91.1997 77.4441 91.4103C77.1657 91.608 76.8676 91.7991 76.5627 92.0032C76.2514 92.1987 75.9159 92.3745 75.5762 92.5697C75.4097 92.6707 75.2276 92.7521 75.0479 92.84C74.868 92.9278 74.6862 93.0157 74.4996 93.1033C74.1359 93.2924 73.7412 93.4326 73.3488 93.5953C73.1513 93.6742 72.9519 93.7534 72.7522 93.8346C72.5483 93.9093 72.3425 93.9751 72.1364 94.0454C71.7197 94.1793 71.3055 94.3352 70.8757 94.4537C70.4459 94.5703 70.0119 94.6866 69.5757 94.8052L69.2488 94.893C69.1392 94.9192 69.0274 94.9413 68.9177 94.9656L68.2536 95.1081C67.813 95.2004 67.3723 95.2927 66.9316 95.3848C66.4842 95.4726 66.0349 95.5384 65.592 95.5912C64.7017 95.6966 63.8184 95.7253 62.9677 95.7077C62.1148 95.6924 61.2926 95.6087 60.5208 95.4838C59.7491 95.3585 59.03 95.1806 58.381 94.972C57.7323 94.7656 57.1513 94.5307 56.6579 94.2825C56.4058 94.1684 56.1843 94.0345 55.974 93.9247C55.7679 93.8061 55.5816 93.6898 55.4103 93.5886C55.0793 93.3691 54.8271 93.1889 54.6629 93.0572C54.4963 92.9278 54.4062 92.8598 54.4062 92.8598C54.4062 92.8598 54.5005 92.9211 54.6782 93.0374C54.768 93.0924 54.8734 93.1694 55.0048 93.2461C55.1364 93.323 55.2876 93.4131 55.4564 93.5119C55.6296 93.6039 55.8203 93.7071 56.0309 93.8148C56.2479 93.9115 56.4738 94.0301 56.726 94.1288C57.228 94.3441 57.8112 94.5416 58.4558 94.7218C59.7449 95.0752 61.3015 95.3036 62.9719 95.3058C63.8072 95.3125 64.671 95.2553 65.5393 95.1544C65.9735 95.1017 66.4098 95.0336 66.8415 94.9457C67.2802 94.8534 67.7187 94.7569 68.1571 94.6624L68.8148 94.5263C68.9244 94.502 69.034 94.4802 69.1437 94.456L69.4661 94.3703C69.8978 94.2563 70.3254 94.1442 70.753 94.0345C70.9677 93.9838 71.1739 93.9071 71.38 93.8412C71.5883 93.7754 71.7942 93.7093 72.0003 93.6457C72.2064 93.5799 72.4125 93.5183 72.6119 93.448C72.8094 93.3735 73.0066 93.2988 73.2018 93.2221C73.592 93.0703 73.9822 92.9365 74.3462 92.763C74.5303 92.6796 74.7124 92.5984 74.892 92.5192C75.0719 92.438 75.2518 92.3633 75.4183 92.269C75.7558 92.0889 76.0891 91.9221 76.4026 91.7419C76.7097 91.5531 77.0123 91.3751 77.2929 91.1952C77.5646 90.9997 77.8278 90.8176 78.0733 90.6352C78.3079 90.4399 78.5402 90.2665 78.7421 90.0818C79.1432 89.7153 79.4743 89.3706 79.7178 89.0652C79.8405 88.9115 79.9479 88.7732 80.0312 88.6457C80.1211 88.523 80.1891 88.4108 80.2393 88.3185C80.3489 88.1386 80.3908 88.0332 80.3908 88.0332Z" fill="#F8F8F8"/>
<g filter="url(#filter0_d_51_176634)">
<path d="M60.3643 71.4158H59.9284C59.7992 71.6902 59.6377 71.9566 59.4442 72.2146C59.2665 72.4569 59.0244 72.6748 58.7179 72.8683C58.4273 73.0622 58.0722 73.2153 57.6524 73.3285C57.2491 73.4415 56.7569 73.4978 56.1756 73.4978C55.4331 73.4978 54.7392 73.3687 54.0935 73.1104C53.464 72.836 52.9073 72.4408 52.4229 71.9242C51.9548 71.3915 51.5836 70.7458 51.3092 69.9872C51.0509 69.2285 50.9218 68.3569 50.9218 67.3724V66.9367C50.9218 65.9683 51.059 65.1048 51.3334 64.3462C51.6241 63.5876 52.0115 62.95 52.4957 62.4334C52.996 61.9007 53.5689 61.4974 54.2146 61.2229C54.8764 60.9485 55.5704 60.8113 56.2967 60.8113C57.2653 60.8113 58.0318 60.997 58.5968 61.3683C59.1616 61.7233 59.6057 62.2318 59.9284 62.8933H60.3643V60.1332H56.5873V57.3734H60.3643V56.2112H63.4148V57.3734H64.8673V60.1332H63.4148V73.159H60.3643V71.4158ZM57.1683 70.5924C58.1207 70.5924 58.8875 70.294 59.4684 69.6968C60.0656 69.0835 60.3643 68.2844 60.3643 67.2999V67.0092C60.3643 66.0247 60.0656 65.234 59.4684 64.6365C58.8875 64.0232 58.1207 63.7167 57.1683 63.7167C56.216 63.7167 55.4412 64.0151 54.8441 64.6126C54.2631 65.1935 53.9725 65.9923 53.9725 67.0092V67.2999C53.9725 68.3168 54.2631 69.1237 54.8441 69.7208C55.4412 70.3021 56.216 70.5924 57.1683 70.5924Z" fill="#F8F8F8"/>
<path d="M52.4178 75.176H62.5058V77.1937H52.4178V75.176Z" fill="#F8F8F8"/>
</g>
<defs>
<filter id="filter0_d_51_176634" x="45.2075" y="51.9255" width="25.3741" height="32.411" filterUnits="userSpaceOnUse" color-interpolation-filters="sRGB">
<feFlood flood-opacity="0" result="BackgroundImageFix"/>
<feColorMatrix in="SourceAlpha" type="matrix" values="0 0 0 0 0 0 0 0 0 0 0 0 0 0 0 0 0 0 127 0" result="hardAlpha"/>
<feOffset dy="1.42857"/>
<feGaussianBlur stdDeviation="2.85714"/>
<feComposite in2="hardAlpha" operator="out"/>
<feColorMatrix type="matrix" values="0 0 0 0 0 0 0 0 0 0 0 0 0 0 0 0 0 0 0.25 0"/>
<feBlend mode="normal" in2="BackgroundImageFix" result="effect1_dropShadow_51_176634"/>
<feBlend mode="normal" in="SourceGraphic" in2="effect1_dropShadow_51_176634" result="shape"/>
</filter>
</defs>
</svg>
