<svg width="118" height="118" viewBox="0 0 118 118" fill="none" xmlns="http://www.w3.org/2000/svg">
<rect x="0.428711" y="0.427734" width="117.143" height="117.143" rx="25.7143" fill="#272B30"/>
<path d="M90.9944 78.5659C90.9944 95.8515 81.6121 96.3906 57.2695 96.3906C57.2595 96.3906 57.2544 96.3906 57.2444 96.3906C32.9018 96.3906 23.5195 95.8515 23.5195 78.5659C23.5195 64.0313 36.5193 55.7261 48.6654 36.2891H57.2444H57.2695H65.8485C77.9946 55.7261 90.9944 64.0313 90.9944 78.5659Z" fill="#2C9A71"/>
<path d="M72.301 21.7301L66.7919 34.0195H46.9524L41.4801 22.1471C41.3758 21.266 42.5442 20.5489 43.6869 20.4926C44.8293 20.4365 45.9143 20.8488 46.9368 21.2426C47.9593 21.6364 49.0548 22.0347 50.1922 21.9549C52.6439 21.7862 54.5845 19.4803 56.9427 20.038C58.3668 20.3707 59.1442 21.6643 60.5736 21.9926C62.3525 22.4051 63.9749 21.1676 65.6754 20.5958C67.8928 19.8458 70.7045 20.3286 72.301 21.7301Z" fill="#2C9A71"/>
<path fill-rule="evenodd" clip-rule="evenodd" d="M46.9537 33.49C46.9537 33.49 46.9548 33.4888 46.9579 33.49H66.7921L65.896 36.6737C65.896 36.6737 63.9048 36.5167 61.9471 36.4305L66.9475 50.2274C67.3039 51.2106 66.5757 52.249 65.5298 52.249C64.8255 52.249 64.2152 51.7617 64.0593 51.0748L60.8906 37.1072L59.7619 47.0992C59.6726 47.8893 59.0041 48.4865 58.2089 48.4865C57.1671 48.4865 56.4169 47.4866 56.7086 46.4864L59.6556 36.3759H56.886H56.8598H53.6063C51.3242 36.3987 47.8504 36.6726 47.8504 36.6726L46.9551 33.4953L46.9537 33.49Z" fill="#F8F8F8"/>
<path d="M94.5073 93.7572L94.6543 91.7655L94.1436 91.7304C92.8063 88.676 88.0288 86.1443 82.1686 85.683C76.1483 85.2088 70.9151 87.0686 69.2553 90.0111L68.8564 89.9827L68.7181 91.7262C68.4135 95.6259 73.9362 99.2403 81.0571 99.8023C88.1825 100.362 94.2028 97.655 94.5073 93.7572Z" fill="#48BE92"/>
<path d="M81.1986 98.0604C74.0774 97.4984 68.555 93.8839 68.8618 89.9842C69.1666 86.0864 75.1892 83.379 82.3078 83.941C89.4287 84.5033 94.9515 88.1177 94.6466 92.0175C94.3398 95.9127 88.3195 98.6204 81.1986 98.0604Z" fill="#48BE92"/>
<path d="M82.1119 85.1394C88.3229 85.6289 93.1947 88.5979 93.2714 91.8632C93.2909 91.7533 93.3062 91.6411 93.3152 91.5293C93.5827 88.1344 88.5904 84.9746 82.1668 84.4675C75.7429 83.9602 70.3167 86.3011 70.0514 89.6957C70.0428 89.8079 70.0406 89.9197 70.0428 90.0318C70.6238 86.8193 75.9008 84.6474 82.1119 85.1394Z" fill="#48BE92"/>
<path d="M81.1996 96.757C87.4106 97.2468 92.6876 95.0752 93.2709 91.8649C93.1964 88.5997 88.3227 85.6307 82.1116 85.1412C75.9005 84.6514 70.6232 86.823 70.04 90.0336C70.1148 93.2966 74.9885 96.2675 81.1996 96.757Z" fill="#48BE92"/>
<path opacity="0.6" d="M93.0359 95.0679C93.0359 95.0679 92.9835 95.1512 92.8585 95.2918C92.7969 95.3621 92.7202 95.4477 92.6195 95.54C92.569 95.5861 92.5185 95.641 92.4594 95.6915C92.4003 95.7397 92.3345 95.7925 92.2686 95.8496C91.9989 96.0714 91.6439 96.3085 91.2208 96.5545C91.0079 96.6752 90.7734 96.7851 90.528 96.9101C90.2803 97.0244 90.0083 97.1254 89.7319 97.2417C89.4491 97.3427 89.1487 97.435 88.8419 97.5382C88.5307 97.6305 88.2041 97.7008 87.8685 97.7864C87.7017 97.8324 87.5285 97.8586 87.3556 97.8896C87.1802 97.9203 87.0047 97.9532 86.8271 97.9839C86.472 98.0586 86.1036 98.0848 85.7309 98.1289C85.5446 98.1487 85.3561 98.1705 85.1675 98.1903C84.9768 98.2056 84.786 98.2123 84.593 98.2232C84.2072 98.2385 83.8171 98.2737 83.4224 98.2717C83.0277 98.2672 82.6308 98.2628 82.234 98.2605L81.9358 98.2583C81.8371 98.2541 81.7364 98.2474 81.6376 98.2407L81.0391 98.2056C80.6422 98.1794 80.2456 98.1529 79.8487 98.1267C79.4473 98.096 79.0507 98.0455 78.6603 97.9839C77.8776 97.8609 77.119 97.6765 76.4 97.4592C75.6787 97.2439 74.999 96.9781 74.372 96.6883C73.745 96.3985 73.1749 96.0758 72.6729 95.7464C72.1686 95.417 71.7324 95.0787 71.3706 94.7516C71.1843 94.5934 71.0265 94.4266 70.8708 94.2838C70.7238 94.1324 70.5925 93.9896 70.4717 93.8624C70.2438 93.5988 70.0706 93.3857 69.961 93.2343C69.8492 93.0851 69.79 93.0059 69.79 93.0059C69.79 93.0059 69.8556 93.0806 69.9786 93.2212C70.0422 93.2892 70.1144 93.3793 70.2087 93.4758C70.303 93.5726 70.4103 93.6844 70.5289 93.8119C70.6561 93.9304 70.7919 94.0643 70.9475 94.2049C71.1076 94.3388 71.2719 94.4925 71.4649 94.6375C71.8398 94.9404 72.2894 95.2458 72.7956 95.5509C73.8086 96.1592 75.0779 96.7212 76.4987 97.1209C77.2068 97.3251 77.9543 97.481 78.7197 97.6018C79.1032 97.6589 79.4892 97.7072 79.8772 97.7337C80.2718 97.7554 80.6687 97.7797 81.0634 97.804L81.653 97.8433C81.7517 97.85 81.8505 97.8586 81.9489 97.8609L82.2451 97.8653C82.6375 97.8698 83.03 97.8762 83.4179 97.8829C83.6132 97.8918 83.8059 97.8743 83.9989 97.8698C84.1919 97.8631 84.3827 97.8567 84.5732 97.85C84.764 97.8411 84.9525 97.8411 85.1411 97.828C85.3274 97.8104 85.514 97.7928 85.698 97.7775C86.0642 97.7401 86.4302 97.7183 86.7788 97.6567C86.9543 97.6305 87.1297 97.604 87.3007 97.5778C87.4716 97.5513 87.6426 97.5315 87.8072 97.4899C88.136 97.4152 88.4604 97.3516 88.7697 97.2746C89.0743 97.1867 89.3724 97.1078 89.6552 97.0199C89.9339 96.919 90.2013 96.8267 90.4532 96.7302C90.6989 96.6203 90.9379 96.526 91.1527 96.4183C91.5803 96.203 91.9443 95.988 92.2226 95.7838C92.3629 95.6826 92.4879 95.5905 92.5888 95.5027C92.6962 95.4193 92.7774 95.3401 92.8432 95.2743C92.9768 95.1468 93.0359 95.0679 93.0359 95.0679Z" fill="#F8F8F8"/>
<path d="M81.5992 86.153L81.1563 83.9331L80.5885 84.0517C78.2032 81.1267 72.2222 79.8203 65.6912 81.1002C58.9801 82.4156 53.8369 86.0367 52.9204 89.7521L52.4775 89.8441L52.8569 91.7875C53.7075 96.133 60.8307 98.3969 68.7671 96.84C76.7013 95.2831 82.4477 90.4984 81.5992 86.153Z" fill="#5ACBA1"/>
<path d="M68.3859 94.8963C60.4472 96.451 53.3263 94.1893 52.4757 89.8435C51.6272 85.4981 57.3736 80.7134 65.31 79.1587C73.2465 77.6041 80.3696 79.8658 81.2203 84.2112C82.0687 88.5569 76.3223 93.3416 68.3859 94.8963Z" fill="#5ACBA1"/>
<path d="M65.4615 80.5248C72.3849 79.1677 78.6004 80.9268 79.6726 84.4642C79.6617 84.3367 79.6441 84.2118 79.6198 84.0865C78.881 80.3053 72.4772 78.375 65.3145 79.7782C58.152 81.1814 52.9472 85.3866 53.6861 89.1678C53.7101 89.2927 53.7408 89.4157 53.7781 89.5365C53.4426 85.8562 58.5378 81.8818 65.4615 80.5248Z" fill="#5ACBA1"/>
<path d="M67.9919 93.4766C74.9153 92.1197 80.0127 88.1452 79.673 84.465C78.6008 80.9275 72.3853 79.1707 65.4619 80.5256C58.5382 81.8825 53.4408 85.857 53.7785 89.5373C54.8526 93.075 61.0682 94.8338 67.9919 93.4766Z" fill="#5ACBA1"/>
<path opacity="0.6" d="M80.3917 88.0312C80.3917 88.0312 80.3588 88.1389 80.2646 88.33C80.2185 88.4242 80.1614 88.5428 80.0805 88.6747C80.0409 88.7405 80.0015 88.8153 79.9533 88.8875C79.9028 88.96 79.8479 89.037 79.791 89.1182C79.5628 89.4431 79.2493 89.8099 78.8614 90.2051C78.6661 90.4028 78.4427 90.5939 78.2146 90.8045C77.9778 91.0044 77.7125 91.1977 77.445 91.4083C77.1667 91.6061 76.8685 91.7971 76.5637 92.0013C76.2524 92.1968 75.9169 92.3725 75.5772 92.5677C75.4107 92.6687 75.2285 92.7502 75.0489 92.838C74.869 92.9259 74.6872 93.0137 74.5006 93.1013C74.1369 93.2904 73.7422 93.4307 73.3498 93.5933C73.1523 93.6722 72.9529 93.7514 72.7532 93.8326C72.5493 93.9074 72.3435 93.9732 72.1374 94.0435C71.7207 94.1773 71.3065 94.3333 70.8767 94.4518C70.4469 94.5684 70.0129 94.6847 69.5767 94.8032L69.2498 94.8911C69.1402 94.9173 69.0283 94.9393 68.9187 94.9636L68.2546 95.1061C67.8139 95.1984 67.3733 95.2908 66.9326 95.3828C66.4852 95.4707 66.0359 95.5365 65.593 95.5892C64.7027 95.6946 63.8194 95.7233 62.9687 95.7058C62.1158 95.6904 61.2936 95.6068 60.5218 95.4818C59.7501 95.3566 59.031 95.1786 58.382 94.97C57.7332 94.7636 57.1523 94.5288 56.6589 94.2805C56.4067 94.1665 56.1853 94.0326 55.975 93.9227C55.7689 93.8042 55.5826 93.6879 55.4113 93.5866C55.0802 93.3671 54.8281 93.1869 54.6638 93.0553C54.4973 92.9259 54.4072 92.8578 54.4072 92.8578C54.4072 92.8578 54.5015 92.9192 54.6792 93.0355C54.769 93.0904 54.8744 93.1674 55.0058 93.2441C55.1374 93.3211 55.2886 93.4112 55.4573 93.5099C55.6305 93.6019 55.8213 93.7051 56.0319 93.8128C56.2489 93.9096 56.4748 94.0281 56.7269 94.1269C57.229 94.3422 57.8122 94.5396 58.4567 94.7198C59.7459 95.0732 61.3025 95.3016 62.9729 95.3039C63.8082 95.3106 64.672 95.2534 65.5403 95.1524C65.9745 95.0997 66.4107 95.0316 66.8425 94.9438C67.2812 94.8515 67.7197 94.755 68.1581 94.6604L68.8158 94.5243C68.9254 94.5 69.035 94.4783 69.1446 94.454L69.4671 94.3684C69.8988 94.2543 70.3264 94.1422 70.754 94.0326C70.9687 93.9818 71.1748 93.9051 71.3809 93.8393C71.5893 93.7735 71.7951 93.7074 72.0012 93.6438C72.2074 93.578 72.4135 93.5163 72.6129 93.446C72.8104 93.3716 73.0076 93.2968 73.2028 93.2201C73.593 93.0684 73.9832 92.9345 74.3472 92.761C74.5313 92.6776 74.7134 92.5965 74.893 92.5173C75.0729 92.4361 75.2528 92.3614 75.4193 92.2671C75.7568 92.0869 76.0901 91.9201 76.4036 91.7399C76.7107 91.5511 77.0133 91.3732 77.2939 91.1933C77.5655 90.9977 77.8288 90.8156 78.0743 90.6332C78.3088 90.438 78.5412 90.2645 78.7431 90.0799C79.1442 89.7134 79.4752 89.3686 79.7187 89.0632C79.8414 88.9095 79.9488 88.7712 80.0322 88.6437C80.122 88.521 80.1901 88.4089 80.2403 88.3166C80.3499 88.1367 80.3917 88.0312 80.3917 88.0312Z" fill="#F8F8F8"/>
<g filter="url(#filter0_d_0_21408)">
<path d="M60.3664 71.4136H59.9304C59.8013 71.688 59.6398 71.9544 59.4462 72.2124C59.2686 72.4547 59.0265 72.6726 58.72 72.8661C58.4293 73.06 58.0743 73.2131 57.6545 73.3263C57.2512 73.4393 56.7589 73.4956 56.1777 73.4956C55.4352 73.4956 54.7413 73.3665 54.0956 73.1082C53.4661 72.8338 52.9094 72.4386 52.4249 71.922C51.9569 71.3893 51.5857 70.7436 51.3112 69.985C51.053 69.2263 50.9238 68.3547 50.9238 67.3702V66.9345C50.9238 65.9661 51.0611 65.1026 51.3355 64.344C51.6261 63.5854 52.0135 62.9478 52.4977 62.4312C52.9981 61.8985 53.571 61.4952 54.2167 61.2207C54.8785 60.9463 55.5724 60.8091 56.2987 60.8091C57.2674 60.8091 58.0338 60.9948 58.5989 61.3661C59.1637 61.7211 59.6077 62.2296 59.9304 62.8911H60.3664V60.131H56.5894V57.3712H60.3664V56.209H63.4168V57.3712H64.8694V60.131H63.4168V73.1568H60.3664V71.4136ZM57.1703 70.5902C58.1228 70.5902 58.8895 70.2918 59.4705 69.6946C60.0677 69.0813 60.3664 68.2822 60.3664 67.2977V67.007C60.3664 66.0225 60.0677 65.2318 59.4705 64.6343C58.8895 64.021 58.1228 63.7145 57.1703 63.7145C56.2181 63.7145 55.4433 64.0129 54.8462 64.6104C54.2652 65.1913 53.9746 65.9901 53.9746 67.007V67.2977C53.9746 68.3146 54.2652 69.1215 54.8462 69.7186C55.4433 70.2999 56.2181 70.5902 57.1703 70.5902Z" fill="#F8F8F8"/>
<path d="M52.4209 75.1738H62.5088V77.1915H52.4209V75.1738Z" fill="#F8F8F8"/>
</g>
<defs>
<filter id="filter0_d_0_21408" x="45.2095" y="51.9233" width="25.3739" height="32.411" filterUnits="userSpaceOnUse" color-interpolation-filters="sRGB">
<feFlood flood-opacity="0" result="BackgroundImageFix"/>
<feColorMatrix in="SourceAlpha" type="matrix" values="0 0 0 0 0 0 0 0 0 0 0 0 0 0 0 0 0 0 127 0" result="hardAlpha"/>
<feOffset dy="1.42857"/>
<feGaussianBlur stdDeviation="2.85714"/>
<feComposite in2="hardAlpha" operator="out"/>
<feColorMatrix type="matrix" values="0 0 0 0 0 0 0 0 0 0 0 0 0 0 0 0 0 0 0.25 0"/>
<feBlend mode="normal" in2="BackgroundImageFix" result="effect1_dropShadow_0_21408"/>
<feBlend mode="normal" in="SourceGraphic" in2="effect1_dropShadow_0_21408" result="shape"/>
</filter>
</defs>
</svg>
