<svg width="116" height="115" viewBox="0 0 116 115" fill="none" xmlns="http://www.w3.org/2000/svg">
<rect x="0.857422" y="0.570312" width="114.286" height="114.286" rx="25.7143" fill="#959595" fill-opacity="0.2"/>
<path d="M54.8984 49.7616H54.1841V49.845C51.966 50.198 50.293 52.1686 50.293 54.5031C50.293 55.1519 50.4247 55.7587 50.6567 56.3112C45.4751 55.9447 41.0423 52.7614 38.7692 48.2404V42.367C38.7692 40.9533 38.2996 39.6385 37.4573 38.5737C38.7787 31.7663 44.6531 26.6459 51.6603 26.6459C58.666 26.6459 64.5394 31.7641 65.8625 38.5692C65.0161 39.6221 64.5515 40.9615 64.5515 42.367V48.238C64.3141 48.7051 64.0634 49.162 63.7993 49.5843C62.7403 50.0446 61.5147 50.3894 60.2107 50.5951C59.448 50.046 58.5414 49.7616 57.5923 49.7616H54.8984Z" stroke="#858B93" stroke-width="1.42857"/>
<path d="M32.9332 39.3092L32.9076 39.7911L33.3452 39.9947C34.2735 40.4264 34.8914 41.3501 34.8914 42.3946V49.1974C34.8914 50.6895 33.6513 51.9117 32.0954 51.9117H32.0481L31.9664 51.8844H31.8505C30.2909 51.8844 29.0546 50.6587 29.0546 49.1974V42.3946C29.0546 41.332 29.6906 40.4059 30.6495 39.9701L31.0468 39.7895L31.0674 39.3535C31.5657 28.8118 40.5693 20.3334 51.6056 20.3334C62.6419 20.3334 71.6456 28.8118 72.1438 39.3535L72.1644 39.7895L72.5618 39.9701C73.5207 40.4059 74.1567 41.332 74.1567 42.3946V49.1974C74.1567 50.6895 72.9166 51.9117 71.3607 51.9117H71.1975C70.6497 51.9117 70.1329 51.7582 69.7092 51.4828L69.2981 51.2156L68.901 51.5032C66.6658 53.1218 63.4003 54.2341 59.6053 54.526L59.2173 54.5558L59.032 54.898C58.7921 55.3408 58.3416 55.6395 57.8097 55.6395H55.007C54.2402 55.6395 53.626 55.016 53.626 54.313C53.626 53.604 54.2191 52.9865 55.007 52.9865H57.8097C58.3116 52.9865 58.7389 53.2258 58.9841 53.5936L59.2195 53.9466L59.642 53.9088C63.0801 53.6013 66.2002 52.5652 68.3664 51.0633L68.8338 50.7392L68.6226 50.211C68.4927 49.8864 68.4288 49.5682 68.4288 49.1974V42.3946C68.4288 41.3588 69.0395 40.4517 69.9871 39.9889L70.4134 39.7807L70.3868 39.3071C69.8478 29.6895 61.6567 22.0613 51.6601 22.0613C41.6652 22.0613 33.444 29.6881 32.9332 39.3092Z" stroke="#858B93" stroke-width="1.42857"/>
<path d="M88.3402 66.9392H78.2177C77.1837 66.9392 76.2585 67.5378 75.8776 68.4358C75.4966 69.3337 75.7143 70.3678 76.4218 71.048L79.6871 74.1501L69.347 83.9732L61.0205 76.0548C60.2041 75.2657 58.898 75.1297 57.8912 75.7011L31.3062 91.3201C30.1089 92.0276 29.7552 93.497 30.4898 94.6399C30.9796 95.3746 31.796 95.7827 32.6395 95.7827C33.1021 95.7827 33.5647 95.6739 33.9728 95.429L58.8436 80.7895L67.5511 89.0616C68.5307 90.014 70.1361 90.014 71.1429 89.0616L83.279 77.5242L86.5443 80.6263C87.0341 81.0888 87.6871 81.3337 88.3402 81.3337C88.6667 81.3337 88.9932 81.2793 89.3198 81.1433C90.2721 80.7623 90.8708 79.8916 90.8708 78.912V69.2793C90.8708 67.946 89.7279 66.8848 88.3402 66.8848V66.9392Z" fill="#858B93"/>
<path d="M23.2587 79.1019C23.2587 69.5032 30.5557 61.618 39.9278 60.6957L39.9322 60.7142H63.2186C67.1825 61.0881 70.7774 62.6954 73.5993 65.1507C73.1248 65.6484 72.71 66.2367 72.4189 66.9284C71.37 69.3109 71.9954 72.022 73.8348 73.7694L73.8367 73.7713L74.2399 74.1514L69.3478 78.7966L63.6092 73.3337C61.549 71.3657 58.3955 71.0632 56.005 72.4729C56.0049 72.4729 56.0048 72.473 56.0047 72.473L29.9023 87.8163C27.8382 87.374 26.2301 86.6102 25.1185 85.3448C23.9657 84.0324 23.2587 82.0793 23.2587 79.1019Z" stroke="#858B93" stroke-width="1.42857"/>
<path d="M88.3405 55.7276H87.8507C87.7146 56.0541 87.5241 56.3534 87.3064 56.6528C87.116 56.9249 86.8166 57.1698 86.4629 57.3875C86.1364 57.6051 85.7282 57.7956 85.2384 57.9045C84.7758 58.0405 84.2044 58.0949 83.5513 58.0949C82.7078 58.0949 81.9187 57.9589 81.184 57.6596C80.4765 57.3602 79.8234 56.8977 79.2792 56.299C78.735 55.7004 78.3268 54.9657 78.0003 54.0949C77.701 53.2242 77.5649 52.2446 77.5649 51.1017V50.6119C77.5649 49.4963 77.7282 48.5167 78.0275 47.646C78.3541 46.7752 78.7894 46.0405 79.3609 45.4691C79.9323 44.8705 80.5853 44.4079 81.32 44.0813C82.0819 43.7548 82.8711 43.6188 83.6874 43.6188C84.803 43.6188 85.6738 43.8364 86.3268 44.2446C86.9799 44.6528 87.4697 45.2242 87.8507 45.9861H88.3405V42.8296H84.0411V39.6732H88.3405V38.3398H91.8234V39.6732H93.4833V42.8296H91.8234V57.6868H88.3405V55.7004V55.7276ZM84.6942 54.7752C85.7826 54.7752 86.6534 54.4215 87.3064 53.7412C87.9867 53.0337 88.3405 52.1358 88.3405 50.9929V50.6664C88.3405 49.5507 87.9867 48.6256 87.3064 47.9453C86.6534 47.2378 85.7554 46.8841 84.6942 46.8841C83.633 46.8841 82.7078 47.2378 82.0275 47.9181C81.3745 48.5711 81.0207 49.4963 81.0207 50.6664V50.9929C81.0207 52.163 81.3473 53.0881 82.0275 53.7684C82.7078 54.4215 83.6058 54.7752 84.6942 54.7752Z" fill="#858B93"/>
<path d="M79.2793 60.0273H90.7895V62.3403H79.2793V60.0273Z" fill="#858B93"/>
</svg>
