<svg width="116" height="115" viewBox="0 0 116 115" fill="none" xmlns="http://www.w3.org/2000/svg">
<rect x="0.857422" y="0.571289" width="114.286" height="114.286" rx="25.7143" fill="#959595" fill-opacity="0.2"/>
<path d="M54.8974 49.7625H54.1832V49.846C51.965 50.1989 50.292 52.1696 50.292 54.504C50.292 55.1528 50.4237 55.7597 50.6557 56.3122C45.4741 55.9456 41.0413 52.7624 38.7682 48.2414V42.368C38.7682 40.9543 38.2987 39.6395 37.4563 38.5747C38.7777 31.7673 44.6521 26.6469 51.6593 26.6469C58.6651 26.6469 64.5384 31.7651 65.8615 38.5701C65.0151 39.6231 64.5505 40.9625 64.5505 42.368V48.239C64.3131 48.7061 64.0624 49.163 63.7983 49.5853C62.7393 50.0455 61.5137 50.3904 60.2098 50.5961C59.447 50.047 58.5404 49.7625 57.5913 49.7625H54.8974Z" stroke="#858B93" stroke-width="1.42857"/>
<path d="M32.9327 39.3096L32.9071 39.7916L33.3447 39.9952C34.273 40.4269 34.8909 41.3506 34.8909 42.3951V49.1979C34.8909 50.69 33.6508 51.9121 32.0949 51.9121H32.0476L31.9659 51.8849H31.85C30.2904 51.8849 29.0541 50.6591 29.0541 49.1979V42.3951C29.0541 41.3325 29.6901 40.4064 30.649 39.9706L31.0463 39.79L31.0669 39.354C31.5652 28.8123 40.5689 20.3339 51.6051 20.3339C62.6414 20.3339 71.6451 28.8123 72.1434 39.354L72.164 39.79L72.5613 39.9706C73.5202 40.4064 74.1562 41.3325 74.1562 42.3951V49.1979C74.1562 50.69 72.9161 51.9121 71.3602 51.9121H71.197C70.6493 51.9121 70.1324 51.7587 69.7087 51.4833L69.2976 51.2161L68.9005 51.5037C66.6653 53.1223 63.3998 54.2346 59.6048 54.5265L59.2168 54.5563L59.0315 54.8985C58.7916 55.3413 58.3411 55.64 57.8092 55.64H55.0065C54.2397 55.64 53.6256 55.0165 53.6256 54.3135C53.6256 53.6045 54.2186 52.987 55.0065 52.987H57.8092C58.3111 52.987 58.7384 53.2263 58.9836 53.5941L59.219 53.9471L59.6416 53.9093C63.0796 53.6018 66.1997 52.5656 68.3659 51.0638L68.8333 50.7396L68.6221 50.2115C68.4922 49.8869 68.4283 49.5687 68.4283 49.1979V42.3951C68.4283 41.3593 69.039 40.4521 69.9866 39.9894L70.4129 39.7812L70.3863 39.3075C69.8473 29.69 61.6562 22.0618 51.6596 22.0618C41.6648 22.0618 33.4435 29.6886 32.9327 39.3096Z" stroke="#858B93" stroke-width="1.42857"/>
<path d="M88.3399 66.9397H78.2174C77.1834 66.9397 76.2582 67.5383 75.8773 68.4363C75.4963 69.3342 75.714 70.3682 76.4215 71.0485L79.6868 74.1506L69.3467 83.9737L61.0201 76.0553C60.2038 75.2662 58.8977 75.1302 57.8909 75.7016L31.3059 91.3206C30.1086 92.0281 29.7548 93.4975 30.4895 94.6404C30.9793 95.375 31.7957 95.7832 32.6392 95.7832C33.1018 95.7832 33.5644 95.6744 33.9725 95.4295L58.8433 80.79L67.5508 89.0621C68.5303 90.0145 70.1358 90.0145 71.1426 89.0621L83.2787 77.5247L86.544 80.6267C87.0337 81.0893 87.6868 81.3342 88.3399 81.3342C88.6664 81.3342 88.9929 81.2798 89.3195 81.1438C90.2718 80.7628 90.8705 79.8921 90.8705 78.9125V69.2798C90.8705 67.9465 89.7276 66.8853 88.3399 66.8853V66.9397Z" fill="#858B93"/>
<path d="M23.2582 79.1031C23.2582 69.5045 30.5552 61.6192 39.9274 60.697L39.9317 60.7154H63.2181C67.182 61.0893 70.7769 62.6967 73.5988 65.1519C73.1243 65.6496 72.7095 66.2379 72.4184 66.9296C71.3695 69.3121 71.9949 72.0232 73.8343 73.7706L73.8362 73.7725L74.2394 74.1526L69.3473 78.7978L63.6087 73.3349C61.5485 71.367 58.395 71.0645 56.0045 72.4741C56.0044 72.4742 56.0043 72.4742 56.0042 72.4743L29.9018 87.8175C27.8377 87.3753 26.2296 86.6114 25.118 85.346C23.9652 84.0337 23.2582 82.0805 23.2582 79.1031Z" stroke="#858B93" stroke-width="1.42857"/>
<path d="M88.3398 55.7281H87.85C87.714 56.0546 87.5235 56.3539 87.3058 56.6533C87.1154 56.9254 86.816 57.1703 86.4623 57.3879C86.1358 57.6056 85.7276 57.7961 85.2378 57.905C84.7752 58.041 84.2038 58.0954 83.5507 58.0954C82.7072 58.0954 81.9181 57.9594 81.1834 57.6601C80.4759 57.3607 79.8228 56.8981 79.2786 56.2995C78.7344 55.7009 78.3262 54.9662 77.9997 54.0954C77.7004 53.2247 77.5643 52.2451 77.5643 51.1022V50.6124C77.5643 49.4968 77.7276 48.5172 78.0269 47.6465C78.3534 46.7757 78.7888 46.041 79.3602 45.4696C79.9317 44.8709 80.5847 44.4084 81.3194 44.0818C82.0813 43.7553 82.8705 43.6192 83.6868 43.6192C84.8024 43.6192 85.6732 43.8369 86.3262 44.2451C86.9793 44.6533 87.4691 45.2247 87.85 45.9866H88.3398V42.8301H84.0405V39.6737H88.3398V38.3403H91.8228V39.6737H93.4827V42.8301H91.8228V57.6873H88.3398V55.7009V55.7281ZM84.6936 54.7757C85.782 54.7757 86.6528 54.422 87.3058 53.7417C87.9861 53.0342 88.3398 52.1362 88.3398 50.9934V50.6669C88.3398 49.5512 87.9861 48.626 87.3058 47.9458C86.6528 47.2383 85.7548 46.8845 84.6936 46.8845C83.6324 46.8845 82.7072 47.2383 82.0269 47.9186C81.3739 48.5716 81.0201 49.4968 81.0201 50.6669V50.9934C81.0201 52.1635 81.3466 53.0886 82.0269 53.7689C82.7072 54.422 83.6051 54.7757 84.6936 54.7757Z" fill="#858B93"/>
<path d="M79.2782 60.0269H90.7884V62.3398H79.2782V60.0269Z" fill="#858B93"/>
</svg>
