<svg width="20" height="21" viewBox="0 0 20 21" fill="none" xmlns="http://www.w3.org/2000/svg">
<path d="M11.6667 2.16602H8.33342C5.19072 2.16602 3.61937 2.16602 2.64306 3.14233C1.66675 4.11864 1.66675 5.68999 1.66675 8.83268V9.66602C1.66675 10.1257 1.66675 10.5406 1.67218 10.916H10.5015C10.5879 10.35 10.7814 9.7599 11.271 9.27029C11.7861 8.75525 12.4123 8.56784 13.0047 8.48818C13.5428 8.41585 14.2041 8.41593 14.9255 8.41601H15.0747C15.796 8.41593 16.4574 8.41585 16.9954 8.48818C17.443 8.54836 17.9098 8.67002 18.3334 8.94797V8.83268C18.3334 5.68999 18.3334 4.11864 17.3571 3.14233C16.3808 2.16602 14.8094 2.16602 11.6667 2.16602Z" fill="#858B93"/>
<path d="M2.39898 13.9338C3.13121 14.666 4.30973 14.666 6.66675 14.666H9.37508V17.9993H6.66675C6.32157 17.9993 6.04175 18.2792 6.04175 18.6243C6.04175 18.9695 6.32157 19.2493 6.66675 19.2493H11.2922L11.271 19.2284C10.756 18.7134 10.5686 18.0872 10.4889 17.4947C10.4166 16.9567 10.4167 16.2953 10.4167 15.5739V12.9248C10.4167 12.509 10.4166 12.1131 10.4305 11.7493H1.69871C1.75752 12.7976 1.92456 13.4594 2.39898 13.9338Z" fill="#858B93"/>
<path fill-rule="evenodd" clip-rule="evenodd" d="M18.3334 12.9993V15.4993C18.3334 17.0707 18.3334 17.8564 17.8453 18.3445C17.3571 18.8327 16.5714 18.8327 15.0001 18.8327C13.4287 18.8327 12.6431 18.8327 12.1549 18.3445C11.6667 17.8564 11.6667 17.0707 11.6667 15.4993V12.9993C11.6667 11.428 11.6667 10.6423 12.1549 10.1542C12.6431 9.66602 13.4287 9.66602 15.0001 9.66602C16.5714 9.66602 17.3571 9.66602 17.8453 10.1542C18.3334 10.6423 18.3334 11.428 18.3334 12.9993ZM13.5417 17.166C13.5417 16.8208 13.8216 16.541 14.1667 16.541H15.8334C16.1786 16.541 16.4584 16.8208 16.4584 17.166C16.4584 17.5112 16.1786 17.791 15.8334 17.791H14.1667C13.8216 17.791 13.5417 17.5112 13.5417 17.166Z" fill="#858B93"/>
</svg>
