<svg width="20" height="21" viewBox="0 0 20 21" fill="none" xmlns="http://www.w3.org/2000/svg">
<path fill-rule="evenodd" clip-rule="evenodd" d="M7.49085 4.9225C8.47415 2.92056 10.5337 1.54102 12.9167 1.54102C16.2534 1.54102 18.9584 4.24596 18.9584 7.58268C18.9584 8.47609 18.764 9.32581 18.4148 10.0905C18.3236 10.29 18.3059 10.4785 18.3464 10.63L18.4525 11.0267C18.7923 12.2965 17.6305 13.4583 16.3607 13.1185L15.964 13.0124C15.8513 12.9822 15.718 12.9843 15.575 13.025C15.1499 16.6472 12.0698 19.4577 8.33335 19.4577C7.20838 19.4577 6.14126 19.2025 5.18827 18.7462C4.99961 18.6559 4.81386 18.6376 4.66105 18.6785L3.63936 18.9519C2.36949 19.2916 1.20775 18.1299 1.54752 16.86L1.82089 15.8383C1.86177 15.6855 1.84345 15.4998 1.75313 15.3111C1.29688 14.3581 1.04169 13.291 1.04169 12.166C1.04169 8.42389 3.86063 5.34016 7.49085 4.9225ZM8.94584 4.89971C12.5498 5.19944 15.4095 8.12027 15.6134 11.7507C15.8322 11.7298 16.0595 11.744 16.2871 11.8049L16.6838 11.911C17.0245 12.0022 17.3362 11.6905 17.245 11.3498L17.1389 10.9531C17.0079 10.4636 17.0933 9.97503 17.2778 9.5711C17.5541 8.9662 17.7084 8.29331 17.7084 7.58268C17.7084 4.93632 15.5631 2.79102 12.9167 2.79102C11.2651 2.79102 9.80769 3.62671 8.94584 4.89971ZM8.33335 6.12435C4.99663 6.12435 2.29169 8.8293 2.29169 12.166C2.29169 13.1002 2.50328 13.9832 2.88058 14.7713C3.07675 15.1811 3.15901 15.6733 3.02841 16.1614L2.75504 17.1831C2.66388 17.5238 2.97557 17.8355 3.31627 17.7443L4.33796 17.471C4.82607 17.3404 5.31828 17.4226 5.72803 17.6188C6.51612 17.9961 7.39915 18.2077 8.33335 18.2077C11.6701 18.2077 14.375 15.5027 14.375 12.166C14.375 8.8293 11.6701 6.12435 8.33335 6.12435Z" fill="#858B93"/>
<path d="M6.25002 12.166C6.25002 12.6263 5.87692 12.9993 5.41669 12.9993C4.95645 12.9993 4.58335 12.6263 4.58335 12.166C4.58335 11.7058 4.95645 11.3327 5.41669 11.3327C5.87692 11.3327 6.25002 11.7058 6.25002 12.166Z" fill="#858B93"/>
<path d="M9.16669 12.166C9.16669 12.6263 8.79359 12.9993 8.33335 12.9993C7.87312 12.9993 7.50002 12.6263 7.50002 12.166C7.50002 11.7058 7.87312 11.3327 8.33335 11.3327C8.79359 11.3327 9.16669 11.7058 9.16669 12.166Z" fill="#858B93"/>
<path d="M12.0834 12.166C12.0834 12.6263 11.7103 12.9993 11.25 12.9993C10.7898 12.9993 10.4167 12.6263 10.4167 12.166C10.4167 11.7058 10.7898 11.3327 11.25 11.3327C11.7103 11.3327 12.0834 11.7058 12.0834 12.166Z" fill="#858B93"/>
</svg>
