<svg width="20" height="20" viewBox="0 0 20 20" fill="none" xmlns="http://www.w3.org/2000/svg">
<path fill-rule="evenodd" clip-rule="evenodd" d="M10 2.29102C5.74283 2.29102 2.29169 5.74215 2.29169 9.99935C2.29169 14.2565 5.74283 17.7077 10 17.7077C14.2572 17.7077 17.7084 14.2565 17.7084 9.99935C17.7084 5.74215 14.2572 2.29102 10 2.29102ZM1.04169 9.99935C1.04169 5.0518 5.05247 1.04102 10 1.04102C14.9476 1.04102 18.9584 5.0518 18.9584 9.99935C18.9584 14.9469 14.9476 18.9577 10 18.9577C5.05247 18.9577 1.04169 14.9469 1.04169 9.99935ZM9.95669 6.04102H10.0433C10.7921 6.04099 11.4164 6.04097 11.9121 6.10761C12.4352 6.17795 12.9076 6.33267 13.2871 6.71223C13.6667 7.09179 13.8214 7.56412 13.8918 8.08728C13.9584 8.58294 13.9584 9.20729 13.9584 9.95602V10.0427C13.9584 10.7914 13.9584 11.4158 13.8918 11.9114C13.8214 12.4346 13.6667 12.9069 13.2871 13.2865C12.9076 13.666 12.4352 13.8208 11.9121 13.8911C11.4164 13.9577 10.7921 13.9577 10.0433 13.9577H9.95669C9.20796 13.9577 8.58361 13.9577 8.08795 13.8911C7.56479 13.8208 7.09246 13.666 6.7129 13.2865C6.33334 12.9069 6.17862 12.4346 6.10828 11.9114C6.04164 11.4158 6.04166 10.7914 6.04169 10.0427V9.95602C6.04166 9.20729 6.04164 8.58294 6.10828 8.08728C6.17862 7.56412 6.33334 7.09179 6.7129 6.71223C7.09246 6.33267 7.56479 6.17795 8.08795 6.10761C8.58361 6.04097 9.20796 6.04099 9.95669 6.04102ZM8.25451 7.34646C7.86996 7.39816 7.70538 7.48752 7.59678 7.59611C7.48819 7.70471 7.39884 7.86929 7.34713 8.25384C7.29301 8.65637 7.29169 9.19601 7.29169 9.99935C7.29169 10.8027 7.29301 11.3423 7.34713 11.7449C7.39884 12.1294 7.48819 12.294 7.59678 12.4026C7.70538 12.5112 7.86996 12.6005 8.25451 12.6522C8.65704 12.7064 9.19668 12.7077 10 12.7077C10.8034 12.7077 11.343 12.7064 11.7455 12.6522C12.1301 12.6005 12.2947 12.5112 12.4033 12.4026C12.5119 12.294 12.6012 12.1294 12.6529 11.7449C12.707 11.3423 12.7084 10.8027 12.7084 9.99935C12.7084 9.19601 12.707 8.65637 12.6529 8.25384C12.6012 7.86929 12.5119 7.70471 12.4033 7.59611C12.2947 7.48752 12.1301 7.39816 11.7455 7.34646C11.343 7.29234 10.8034 7.29102 10 7.29102C9.19668 7.29102 8.65704 7.29234 8.25451 7.34646Z" fill="#858B93"/>
</svg>
