<svg width="20" height="20" viewBox="0 0 20 20" fill="none" xmlns="http://www.w3.org/2000/svg">
<path d="M6.66675 14.168C4.30973 14.168 3.13121 14.168 2.39898 13.4357C1.92456 12.9613 1.75752 12.2996 1.69871 11.2513H18.3015C18.2426 12.2996 18.0756 12.9613 17.6012 13.4357C16.8689 14.168 15.6904 14.168 13.3334 14.168H10.6251V17.5013H13.3334C13.6786 17.5013 13.9584 17.7811 13.9584 18.1263C13.9584 18.4715 13.6786 18.7513 13.3334 18.7513H6.66675C6.32157 18.7513 6.04175 18.4715 6.04175 18.1263C6.04175 17.7811 6.32157 17.5013 6.66675 17.5013H9.37508V14.168H6.66675Z" fill="#1AAF74"/>
<path d="M8.33342 1.66797H11.6667C14.8094 1.66797 16.3808 1.66797 17.3571 2.64428C18.3334 3.62059 18.3334 5.19194 18.3334 8.33464V9.16797C18.3334 9.62765 18.3334 10.0425 18.328 10.418H1.67218C1.66675 10.0425 1.66675 9.62765 1.66675 9.16797V8.33464C1.66675 5.19194 1.66675 3.62059 2.64306 2.64428C3.61937 1.66797 5.19072 1.66797 8.33342 1.66797Z" fill="#1AAF74"/>
</svg>
