<svg width="20" height="20" viewBox="0 0 20 20" fill="none" xmlns="http://www.w3.org/2000/svg">
<path d="M6.95983 16.8676C7.66073 17.7585 8.76182 18.3327 10 18.3327C11.2382 18.3327 12.3393 17.7585 13.0402 16.8676C11.022 17.141 8.97798 17.141 6.95983 16.8676Z" fill="#858B93"/>
<path fill-rule="evenodd" clip-rule="evenodd" d="M15.6243 8.0861V7.49935C15.6243 4.27769 13.1062 1.66602 10 1.66602C6.8938 1.66602 4.37573 4.27769 4.37573 7.49935V8.0861C4.37573 8.79026 4.17476 9.47866 3.79816 10.0646L2.8753 11.5003C2.03235 12.8117 2.67587 14.5943 4.14197 15.009C7.97728 16.0939 12.0227 16.0939 15.858 15.009C17.3241 14.5943 17.9676 12.8117 17.1247 11.5003L16.2018 10.0646C15.8252 9.47866 15.6243 8.79026 15.6243 8.0861ZM10 4.37435C10.3452 4.37435 10.625 4.65417 10.625 4.99935V8.33268C10.625 8.67786 10.3452 8.95768 10 8.95768C9.65482 8.95768 9.375 8.67786 9.375 8.33268V4.99935C9.375 4.65417 9.65482 4.37435 10 4.37435Z" fill="#858B93"/>
</svg>
