<svg width="20" height="20" viewBox="0 0 20 20" fill="none" xmlns="http://www.w3.org/2000/svg">
<path fill-rule="evenodd" clip-rule="evenodd" d="M8.28634 2.70898H11.7137C13.2452 2.70897 14.4582 2.70896 15.4075 2.8366C16.3846 2.96795 17.1753 3.24472 17.799 3.86835C18.4226 4.49199 18.6994 5.28278 18.8307 6.2598C18.9584 7.20915 18.9584 8.42217 18.9584 9.95364V10.0477C18.9584 11.5791 18.9584 12.7922 18.8307 13.7415C18.6994 14.7185 18.4226 15.5093 17.799 16.1329C17.1753 16.7566 16.3846 17.0333 15.4075 17.1647C14.4582 17.2923 13.2452 17.2923 11.7137 17.2923H8.28635C6.75488 17.2923 5.54185 17.2923 4.5925 17.1647C3.61548 17.0333 2.82469 16.7566 2.20106 16.1329C1.57742 15.5093 1.30066 14.7185 1.1693 13.7415C1.04166 12.7922 1.04167 11.5791 1.04169 10.0477V9.95364C1.04167 8.42217 1.04166 7.20914 1.1693 6.2598C1.30066 5.28278 1.57742 4.49199 2.20106 3.86835C2.82469 3.24472 3.61548 2.96795 4.5925 2.8366C5.54185 2.70896 6.75487 2.70897 8.28634 2.70898ZM4.75906 4.07545C3.92065 4.18817 3.43761 4.39956 3.08494 4.75224C2.73227 5.10491 2.52087 5.58795 2.40815 6.42636C2.29301 7.28275 2.29169 8.41163 2.29169 10.0007C2.29169 11.5897 2.29301 12.7186 2.40815 13.5749C2.52087 14.4134 2.73227 14.8964 3.08494 15.2491C3.43761 15.6017 3.92065 15.8131 4.75906 15.9259C5.61545 16.041 6.74434 16.0423 8.33335 16.0423H11.6667C13.2557 16.0423 14.3846 16.041 15.241 15.9259C16.0794 15.8131 16.5624 15.6017 16.9151 15.2491C17.2678 14.8964 17.4792 14.4134 17.5919 13.5749C17.707 12.7186 17.7084 11.5897 17.7084 10.0007C17.7084 8.41163 17.707 7.28275 17.5919 6.42636C17.4792 5.58795 17.2678 5.10491 16.9151 4.75224C16.5624 4.39956 16.0794 4.18817 15.241 4.07545C14.3846 3.96031 13.2557 3.95898 11.6667 3.95898H8.33335C6.74434 3.95898 5.61545 3.96031 4.75906 4.07545ZM4.51988 6.2672C4.74086 6.00203 5.13496 5.9662 5.40014 6.18718L7.19922 7.68641C7.97668 8.3343 8.51646 8.78266 8.97217 9.07576C9.41331 9.35948 9.71246 9.45471 10 9.45471C10.2876 9.45471 10.5867 9.35948 11.0279 9.07576C11.4836 8.78266 12.0234 8.3343 12.8008 7.68641L14.5999 6.18718C14.8651 5.9662 15.2592 6.00203 15.4802 6.2672C15.7011 6.53238 15.6653 6.92648 15.4001 7.14746L13.5697 8.6728C12.8311 9.28834 12.2324 9.78725 11.704 10.1271C11.1536 10.4811 10.6176 10.7047 10 10.7047C9.38246 10.7047 8.84642 10.4811 8.296 10.1271C7.76762 9.78725 7.16895 9.28835 6.43032 8.6728L4.59991 7.14746C4.33473 6.92648 4.2989 6.53238 4.51988 6.2672Z" fill="#858B93"/>
</svg>
