<svg width="20" height="20" viewBox="0 0 20 20" fill="none" xmlns="http://www.w3.org/2000/svg">
<path d="M13.4525 1.04297C13.1073 1.04297 12.8275 1.32279 12.8275 1.66797C12.8275 2.01315 13.1073 2.29297 13.4525 2.29297H16.8245L12.0581 7.05936C11.8141 7.30344 11.8141 7.69917 12.0581 7.94324C12.3022 8.18732 12.6979 8.18732 12.942 7.94324L17.7084 3.17685V6.54892C17.7084 6.8941 17.9882 7.17392 18.3334 7.17392C18.6786 7.17392 18.9584 6.8941 18.9584 6.54892V1.66797C18.9584 1.32279 18.6786 1.04297 18.3334 1.04297H13.4525Z" fill="#858B93"/>
<path d="M6.5477 18.9596C6.89288 18.9596 7.1727 18.6798 7.1727 18.3346C7.1727 17.9895 6.89288 17.7096 6.5477 17.7096H3.17563L7.94202 12.9432C8.1861 12.6992 8.1861 12.3034 7.94202 12.0594C7.69795 11.8153 7.30222 11.8153 7.05814 12.0594L2.29175 16.8258V13.4537C2.29175 13.1085 2.01193 12.8287 1.66675 12.8287C1.32157 12.8287 1.04175 13.1085 1.04175 13.4537V18.3346C1.04175 18.6798 1.32157 18.9596 1.66675 18.9596H6.5477Z" fill="#858B93"/>
</svg>
