<svg width="18" height="19" viewBox="0 0 18 19" fill="none" xmlns="http://www.w3.org/2000/svg">
<path fill-rule="evenodd" clip-rule="evenodd" d="M9 5.54102C7.27411 5.54102 5.875 6.94013 5.875 8.66602C5.875 9.68909 6.36689 10.5967 7.125 11.1662V11.9993C7.125 12.8048 7.77792 13.4577 8.58333 13.4577H9.41667C10.2221 13.4577 10.875 12.8048 10.875 11.9993V11.1662C11.6331 10.5967 12.125 9.68909 12.125 8.66602C12.125 6.94013 10.7259 5.54102 9 5.54102ZM7.125 8.66602C7.125 7.63048 7.96447 6.79102 9 6.79102C10.0355 6.79102 10.875 7.63048 10.875 8.66602C10.875 9.35924 10.4991 9.96542 9.93705 10.2906C9.74393 10.4023 9.625 10.6085 9.625 10.8316V11.9993C9.625 12.1144 9.53173 12.2077 9.41667 12.2077H8.58333C8.46827 12.2077 8.375 12.1144 8.375 11.9993V10.8316C8.375 10.6085 8.25607 10.4023 8.06295 10.2906C7.50088 9.96542 7.125 9.35924 7.125 8.66602Z" fill="#EFEFEF"/>
<path fill-rule="evenodd" clip-rule="evenodd" d="M9 0.541016C8.21873 0.541016 7.47277 0.796501 6.26949 1.20861L5.66329 1.41613C4.42885 1.83868 3.47617 2.16479 2.79419 2.44184C2.45065 2.5814 2.15531 2.71657 1.91748 2.85469C1.68862 2.9876 1.45902 3.15338 1.30303 3.37563C1.14884 3.59532 1.06911 3.86539 1.01901 4.12537C0.966927 4.39565 0.93552 4.71988 0.915249 5.09215C0.875 5.83132 0.875 6.84394 0.875 8.15738V9.49215C0.875 14.5764 4.71502 17.0139 6.99861 18.0115L7.02119 18.0214C7.30436 18.1451 7.57051 18.2614 7.87634 18.3397C8.19922 18.4223 8.54228 18.4577 9 18.4577C9.45772 18.4577 9.80078 18.4223 10.1237 18.3397C10.4295 18.2614 10.6956 18.1451 10.9788 18.0214L11.0014 18.0115C13.285 17.014 17.125 14.5764 17.125 9.49215V8.15753C17.125 6.84402 17.125 5.83135 17.0847 5.09215C17.0645 4.71988 17.0331 4.39565 16.981 4.12537C16.9309 3.86539 16.8512 3.59532 16.697 3.37563C16.541 3.15338 16.3114 2.9876 16.0825 2.85469C15.8447 2.71657 15.5493 2.5814 15.2058 2.44184C14.5238 2.16478 13.5711 1.83868 12.3367 1.41613L11.7305 1.20861C10.5272 0.796502 9.78127 0.541016 9 0.541016ZM6.56718 2.42793C7.91262 1.96738 8.45188 1.79102 9 1.79102C9.54812 1.79102 10.0874 1.96738 11.4328 2.42793L11.9102 2.59133C13.1707 3.0228 14.0899 3.33772 14.7353 3.59992C15.0575 3.7308 15.2909 3.84047 15.4548 3.93563C15.5356 3.9826 15.5914 4.02136 15.6286 4.05162C15.6601 4.07726 15.6722 4.09178 15.6739 4.09392C15.6755 4.09651 15.6859 4.11382 15.7005 4.1548C15.7171 4.20155 15.7356 4.26859 15.7536 4.3619C15.79 4.55076 15.8175 4.81019 15.8366 5.16011C15.8748 5.86111 15.875 6.83963 15.875 8.1799V9.49215C15.875 13.8047 12.6501 15.9272 10.501 16.866C10.1914 17.0012 10.0127 17.0778 9.81367 17.1287C9.6236 17.1774 9.39167 17.2077 9 17.2077C8.60833 17.2077 8.3764 17.1774 8.18633 17.1287C7.98732 17.0778 7.80856 17.0012 7.49899 16.866C5.34991 15.9272 2.125 13.8047 2.125 9.49215V8.1799C2.125 6.83963 2.12523 5.86111 2.1634 5.16011C2.18245 4.81019 2.21003 4.55076 2.24643 4.3619C2.26441 4.26859 2.28287 4.20155 2.29952 4.1548C2.31411 4.11385 2.32446 4.09654 2.32608 4.09392C2.3278 4.0918 2.33983 4.07728 2.37139 4.05162C2.40861 4.02136 2.46435 3.9826 2.54524 3.93563C2.70908 3.84047 2.9425 3.7308 3.26466 3.59992C3.91008 3.33772 4.82934 3.0228 6.08984 2.59133L6.56718 2.42793Z" fill="#EFEFEF"/>
</svg>
