<svg width="20" height="20" viewBox="0 0 20 20" fill="none" xmlns="http://www.w3.org/2000/svg">
<path fill-rule="evenodd" clip-rule="evenodd" d="M13.7246 7.05871C13.4806 7.30279 13.4806 7.69851 13.7246 7.94259L15.1577 9.37565H8.33325C7.98807 9.37565 7.70825 9.65547 7.70825 10.0007C7.70825 10.3458 7.98807 10.6257 8.33325 10.6257H15.1577L13.7246 12.0587C13.4806 12.3028 13.4806 12.6985 13.7246 12.9426C13.9687 13.1867 14.3644 13.1867 14.6085 12.9426L17.1085 10.4426C17.3526 10.1985 17.3526 9.80279 17.1085 9.55871L14.6085 7.05871C14.3644 6.81463 13.9687 6.81463 13.7246 7.05871Z" fill="#858B93"/>
<path d="M3.33325 10.0007C3.33325 13.6825 6.31802 16.6673 9.99992 16.6673V13.5423C9.99992 12.7566 9.99992 12.3638 9.75584 12.1197C9.51176 11.8757 9.11893 11.8757 8.33325 11.8757C7.29772 11.8757 6.45825 11.0362 6.45825 10.0007C6.45825 8.96512 7.29772 8.12565 8.33325 8.12565C9.11893 8.12565 9.51176 8.12565 9.75584 7.88157C9.99992 7.6375 9.99992 7.24466 9.99992 6.45898V3.33398C6.31802 3.33398 3.33325 6.31875 3.33325 10.0007Z" fill="#858B93"/>
</svg>
