<svg width="20" height="20" viewBox="0 0 20 20" fill="none" xmlns="http://www.w3.org/2000/svg">
<path d="M6.66663 14.166C4.3096 14.166 3.13109 14.166 2.39886 13.4338C1.92444 12.9594 1.7574 12.2976 1.69859 11.2493H18.3013C18.2425 12.2976 18.0755 12.9594 17.6011 13.4338C16.8688 14.166 15.6903 14.166 13.3333 14.166H10.625V17.4993H13.3333C13.6785 17.4993 13.9583 17.7792 13.9583 18.1243C13.9583 18.4695 13.6785 18.7493 13.3333 18.7493H6.66663C6.32145 18.7493 6.04163 18.4695 6.04163 18.1243C6.04163 17.7792 6.32145 17.4993 6.66663 17.4993H9.37496V14.166H6.66663Z" fill="#858B93"/>
<path d="M8.33329 1.66602H11.6666C14.8093 1.66602 16.3807 1.66602 17.357 2.64233C18.3333 3.61864 18.3333 5.18999 18.3333 8.33268V9.16602C18.3333 9.6257 18.3333 10.0406 18.3279 10.416H1.67206C1.66663 10.0406 1.66663 9.6257 1.66663 9.16602V8.33268C1.66663 5.18999 1.66663 3.61864 2.64294 2.64233C3.61925 1.66602 5.1906 1.66602 8.33329 1.66602Z" fill="#858B93"/>
</svg>
