<svg width="20" height="21" viewBox="0 0 20 21" fill="none" xmlns="http://www.w3.org/2000/svg">
<path fill-rule="evenodd" clip-rule="evenodd" d="M2.8146 4.73469C2.5 5.18291 2.5 6.51524 2.5 9.1799V10.4921C2.5 15.1905 6.03247 17.4706 8.2488 18.4387C8.85001 18.7014 9.15062 18.8327 10 18.8327C10.8494 18.8327 11.15 18.7014 11.7512 18.4387C13.9675 17.4706 17.5 15.1905 17.5 10.4921V9.1799C17.5 6.51524 17.5 5.18291 17.1854 4.73469C16.8708 4.28647 15.6181 3.85765 13.1126 3.00001L12.6352 2.83661C11.3292 2.38955 10.6762 2.16602 10 2.16602C9.32384 2.16602 8.67082 2.38955 7.36477 2.83661L6.88743 3.00001C4.38194 3.85765 3.12919 4.28647 2.8146 4.73469ZM11.25 12.9993C11.25 13.4596 10.8769 13.8327 10.4167 13.8327H9.58333C9.1231 13.8327 8.75 13.4596 8.75 12.9993V11.8316C8.00275 11.3993 7.5 10.5914 7.5 9.66602C7.5 8.2853 8.61929 7.16602 10 7.16602C11.3807 7.16602 12.5 8.2853 12.5 9.66602C12.5 10.5914 11.9973 11.3993 11.25 11.8316V12.9993Z" fill="#858B93"/>
</svg>
