<svg width="20" height="21" viewBox="0 0 20 21" fill="none" xmlns="http://www.w3.org/2000/svg">
<mask id="mask0_1588_376198" style="mask-type:luminance" maskUnits="userSpaceOnUse" x="0" y="0" width="21" height="21">
<path d="M9.99176 0.5C5.50341 0.5 1.42221 3.54396 0.295443 8.0975C-1.03187 13.4577 2.23805 18.8782 7.59794 20.204C12.9588 21.5307 18.3785 18.2614 19.7053 12.9012C21.0316 7.54097 17.7632 2.12149 12.4023 0.79523C11.5956 0.595709 10.7878 0.5 9.99226 0.5H9.99176Z" fill="white"/>
</mask>
<g mask="url(#mask0_1588_376198)">
<path d="M21.0317 0.5H-1.03174V21.5307H21.0317V0.5Z" fill="url(#paint0_radial_1588_376198)"/>
</g>
<path d="M0.295443 8.0981C1.62174 2.73686 7.0424 -0.531439 12.4023 0.795326C17.7632 2.12108 21.0316 7.54106 19.7053 12.9013C18.3785 18.2615 12.9588 21.5308 7.59794 20.2041C2.23805 18.8778 -1.03187 13.4578 0.295443 8.0981Z" fill="#223C72"/>
<path d="M17.0928 3.45059L13.0724 6.13045V0.985949C12.8531 0.915559 12.6298 0.851246 12.4024 0.795036C10.516 0.328137 8.62253 0.430936 6.90224 0.993545V6.13096L2.89752 3.46173C1.98041 4.3854 1.23547 5.49745 0.729056 6.75687L1.78949 7.4638H0.475342C0.409509 7.67142 0.348739 7.88259 0.295565 8.09731C-0.174893 9.99681 -0.0675336 11.9039 0.505727 13.6338H1.81582L0.76653 14.3331C1.27548 15.5555 2.02345 16.6701 2.96741 17.606L6.90224 14.9833V20.0037C7.13013 20.0777 7.36207 20.1445 7.59856 20.2028C9.47533 20.6676 11.3592 20.5679 13.0724 20.0129V14.9828L17.0229 17.6156C17.9507 16.702 18.7088 15.5986 19.2294 14.3463L18.1583 13.6322H19.4942C19.5732 13.3927 19.6436 13.1481 19.7054 12.899C20.1662 11.0359 20.0715 9.1653 19.5277 7.46228H18.1852L19.2663 6.74168C18.7675 5.51568 18.0292 4.39401 17.0928 3.45059Z" fill="#EFEBE7"/>
<path d="M5.36428 7.46617L1.65176 4.99697C1.40463 5.3717 1.1813 5.76517 0.984307 6.17688L2.92235 7.46617H5.36428ZM18.3335 4.97772C18.0844 4.60096 17.8089 4.24142 17.5101 3.90061L13.0724 6.8519V7.46667H14.5922L18.3335 4.97772ZM1.67911 16.043C1.92928 16.4188 2.20527 16.7778 2.50456 17.1176L6.90176 14.1932V13.6356H5.29896L1.67911 16.043ZM19.8462 8.7509H11.7871V0.665232C10.5657 0.442417 9.34926 0.452039 8.18703 0.667258V8.7509H0.157839C-0.0609316 9.97233 -0.0462455 11.1882 0.173032 12.3494H8.18754V20.3322C9.40901 20.5586 10.6254 20.552 11.7876 20.3398V12.3494H19.826C20.0564 11.1295 20.0533 9.91359 19.8462 8.7509ZM14.6777 13.6361L18.3158 16.0557C18.565 15.6825 18.7903 15.29 18.9899 14.8798L17.1197 13.6361H14.6777Z" fill="#EF3827"/>
<path d="M13.0723 2.02734V2.02785V2.6755C13.1118 2.55245 13.132 2.43599 13.1325 2.32661C13.1325 2.21977 13.1128 2.1195 13.0723 2.02734Z" fill="#303F66"/>
<defs>
<radialGradient id="paint0_radial_1588_376198" cx="0" cy="0" r="1" gradientUnits="userSpaceOnUse" gradientTransform="translate(9.99995 10.5003) scale(10 9.99974)">
<stop stop-color="white"/>
<stop offset="0.7809" stop-color="white"/>
<stop offset="0.8218" stop-color="#F6F4F1"/>
<stop offset="0.8832" stop-color="#E5DED9"/>
<stop offset="0.9571" stop-color="#C9C0B7"/>
<stop offset="1" stop-color="#B6ABA1"/>
</radialGradient>
</defs>
</svg>
