<svg width="20" height="21" viewBox="0 0 20 21" fill="none" xmlns="http://www.w3.org/2000/svg">
<path d="M11.6665 2.16406H8.33317C5.19047 2.16406 3.61913 2.16406 2.64281 3.14037C1.6665 4.11668 1.6665 5.68803 1.6665 8.83073V9.66406C1.6665 10.1237 1.6665 10.5386 1.67194 10.9141H10.5013C10.5876 10.348 10.7812 9.75794 11.2708 9.26833C11.7858 8.75329 12.412 8.56588 13.0045 8.48623C13.5425 8.41389 14.2039 8.41397 14.9253 8.41406H15.0744C15.7958 8.41397 16.4572 8.41389 16.9952 8.48623C17.4427 8.5464 17.9096 8.66807 18.3332 8.94601V8.83073C18.3332 5.68803 18.3332 4.11668 17.3569 3.14037C16.3805 2.16406 14.8092 2.16406 11.6665 2.16406Z" fill="#1AAF74"/>
<path d="M2.39874 13.9318C3.13097 14.6641 4.30948 14.6641 6.6665 14.6641H9.37484V17.9974H6.6665C6.32133 17.9974 6.0415 18.2772 6.0415 18.6224C6.0415 18.9676 6.32133 19.2474 6.6665 19.2474H11.292L11.2708 19.2265C10.7557 18.7114 10.5683 18.0852 10.4887 17.4927C10.4163 16.9547 10.4164 16.2933 10.4165 15.572V12.9228C10.4164 12.507 10.4164 12.1112 10.4302 11.7474H1.69846C1.75728 12.7957 1.92432 13.4574 2.39874 13.9318Z" fill="#1AAF74"/>
<path fill-rule="evenodd" clip-rule="evenodd" d="M18.3332 12.9974V15.4974C18.3332 17.0687 18.3332 17.8544 17.845 18.3426C17.3569 18.8307 16.5712 18.8307 14.9998 18.8307C13.4285 18.8307 12.6428 18.8307 12.1547 18.3426C11.6665 17.8544 11.6665 17.0687 11.6665 15.4974V12.9974C11.6665 11.426 11.6665 10.6404 12.1547 10.1522C12.6428 9.66406 13.4285 9.66406 14.9998 9.66406C16.5712 9.66406 17.3569 9.66406 17.845 10.1522C18.3332 10.6404 18.3332 11.426 18.3332 12.9974ZM13.5415 17.1641C13.5415 16.8189 13.8213 16.5391 14.1665 16.5391H15.8332C16.1783 16.5391 16.4582 16.8189 16.4582 17.1641C16.4582 17.5092 16.1783 17.7891 15.8332 17.7891H14.1665C13.8213 17.7891 13.5415 17.5092 13.5415 17.1641Z" fill="#1AAF74"/>
</svg>
