<svg width="20" height="21" viewBox="0 0 20 21" fill="none" xmlns="http://www.w3.org/2000/svg">
<path fill-rule="evenodd" clip-rule="evenodd" d="M10 6.54102C8.27411 6.54102 6.875 7.94013 6.875 9.66602C6.875 10.6891 7.36689 11.5967 8.125 12.1662V12.9993C8.125 13.8048 8.77792 14.4577 9.58333 14.4577H10.4167C11.2221 14.4577 11.875 13.8048 11.875 12.9993V12.1662C12.6331 11.5967 13.125 10.6891 13.125 9.66602C13.125 7.94013 11.7259 6.54102 10 6.54102ZM8.125 9.66602C8.125 8.63048 8.96447 7.79102 10 7.79102C11.0355 7.79102 11.875 8.63048 11.875 9.66602C11.875 10.3592 11.4991 10.9654 10.937 11.2906C10.7439 11.4023 10.625 11.6085 10.625 11.8316V12.9993C10.625 13.1144 10.5317 13.2077 10.4167 13.2077H9.58333C9.46827 13.2077 9.375 13.1144 9.375 12.9993V11.8316C9.375 11.6085 9.25607 11.4023 9.06295 11.2906C8.50088 10.9654 8.125 10.3592 8.125 9.66602Z" fill="#858B93"/>
<path fill-rule="evenodd" clip-rule="evenodd" d="M10 1.54102C9.21873 1.54102 8.47277 1.7965 7.26949 2.20861L6.66329 2.41613C5.42885 2.83868 4.47617 3.16479 3.79419 3.44184C3.45065 3.5814 3.15531 3.71657 2.91748 3.85469C2.68862 3.9876 2.45902 4.15338 2.30303 4.37563C2.14884 4.59532 2.06911 4.86539 2.01901 5.12537C1.96693 5.39565 1.93552 5.71988 1.91525 6.09215C1.875 6.83132 1.875 7.84394 1.875 9.15738V10.4921C1.875 15.5764 5.71502 18.0139 7.99861 19.0115L8.02119 19.0214C8.30436 19.1451 8.57051 19.2614 8.87634 19.3397C9.19922 19.4223 9.54228 19.4577 10 19.4577C10.4577 19.4577 10.8008 19.4223 11.1237 19.3397C11.4295 19.2614 11.6956 19.1451 11.9788 19.0214L12.0014 19.0115C14.285 18.014 18.125 15.5764 18.125 10.4921V9.15753C18.125 7.84402 18.125 6.83135 18.0847 6.09215C18.0645 5.71988 18.0331 5.39565 17.981 5.12537C17.9309 4.86539 17.8512 4.59532 17.697 4.37563C17.541 4.15338 17.3114 3.9876 17.0825 3.85469C16.8447 3.71657 16.5493 3.5814 16.2058 3.44184C15.5238 3.16478 14.5711 2.83868 13.3367 2.41613L12.7305 2.20861C11.5272 1.7965 10.7813 1.54102 10 1.54102ZM7.56718 3.42793C8.91262 2.96738 9.45188 2.79102 10 2.79102C10.5481 2.79102 11.0874 2.96738 12.4328 3.42793L12.9102 3.59133C14.1707 4.0228 15.0899 4.33772 15.7353 4.59992C16.0575 4.7308 16.2909 4.84047 16.4548 4.93563C16.5356 4.9826 16.5914 5.02136 16.6286 5.05162C16.6601 5.07726 16.6722 5.09178 16.6739 5.09392C16.6755 5.09651 16.6859 5.11382 16.7005 5.1548C16.7171 5.20155 16.7356 5.26859 16.7536 5.3619C16.79 5.55076 16.8175 5.81019 16.8366 6.16011C16.8748 6.86111 16.875 7.83963 16.875 9.1799V10.4921C16.875 14.8047 13.6501 16.9272 11.501 17.866C11.1914 18.0012 11.0127 18.0778 10.8137 18.1287C10.6236 18.1774 10.3917 18.2077 10 18.2077C9.60833 18.2077 9.3764 18.1774 9.18633 18.1287C8.98732 18.0778 8.80856 18.0012 8.49899 17.866C6.34991 16.9272 3.125 14.8047 3.125 10.4921V9.1799C3.125 7.83963 3.12523 6.86111 3.1634 6.16011C3.18245 5.81019 3.21003 5.55076 3.24643 5.3619C3.26441 5.26859 3.28287 5.20155 3.29952 5.1548C3.31411 5.11385 3.32446 5.09654 3.32608 5.09392C3.3278 5.0918 3.33983 5.07728 3.37139 5.05162C3.40861 5.02136 3.46435 4.9826 3.54524 4.93563C3.70908 4.84047 3.9425 4.7308 4.26466 4.59992C4.91008 4.33772 5.82934 4.0228 7.08984 3.59133L7.56718 3.42793Z" fill="#858B93"/>
</svg>
