<svg width="65" height="65" viewBox="0 0 65 65" fill="none" xmlns="http://www.w3.org/2000/svg">
<path d="M32.4997 35.8335C33.6042 35.8335 34.4997 36.7289 34.4997 37.8335V48.5002C34.4997 49.6047 33.6042 50.5002 32.4997 50.5002C31.3951 50.5002 30.4997 49.6047 30.4997 48.5002V37.8335C30.4997 36.7289 31.3951 35.8335 32.4997 35.8335Z" fill="#F34859"/>
<path fill-rule="evenodd" clip-rule="evenodd" d="M14.4997 25.3075V21.8335C14.4997 11.8924 22.5586 3.8335 32.4997 3.8335C42.4408 3.8335 50.4997 11.8924 50.4997 21.8335V25.3075C51.1046 25.3501 51.6747 25.4054 52.211 25.4776C54.6113 25.8003 56.6323 26.4907 58.2374 28.0958C59.8425 29.7009 60.5329 31.7219 60.8556 34.1222C61.1665 36.4341 61.1664 39.3736 61.1663 43.0205V43.3131C61.1664 46.9601 61.1665 49.8996 60.8556 52.2115C60.5329 54.6118 59.8425 56.6328 58.2374 58.2379C56.6323 59.843 54.6113 60.5334 52.211 60.8561C49.8991 61.1669 46.9596 61.1669 43.3127 61.1668H21.6867C18.0398 61.1669 15.1003 61.1669 12.7883 60.8561C10.3881 60.5334 8.36705 59.843 6.76194 58.2379C5.15683 56.6328 4.46645 54.6118 4.14374 52.2115C3.83291 49.8996 3.83296 46.9601 3.83301 43.3132V43.0205C3.83296 39.3736 3.83291 36.4341 4.14374 34.1222C4.46645 31.7219 5.15683 29.7009 6.76194 28.0958C8.36705 26.4907 10.3881 25.8003 12.7883 25.4776C13.3247 25.4054 13.8948 25.3501 14.4997 25.3075ZM18.4997 21.8335C18.4997 14.1015 24.7677 7.8335 32.4997 7.8335C40.2317 7.8335 46.4997 14.1015 46.4997 21.8335V25.176C45.5036 25.1668 44.4421 25.1668 43.3127 25.1668H21.6867C20.5573 25.1668 19.4958 25.1668 18.4997 25.176V21.8335ZM13.3213 29.4419C11.3646 29.705 10.3284 30.1862 9.59037 30.9242C8.85234 31.6622 8.37115 32.6984 8.10807 34.6552C7.83726 36.6694 7.83301 39.3391 7.83301 43.1668C7.83301 46.9946 7.83726 49.6642 8.10807 51.6785C8.37115 53.6352 8.85234 54.6714 9.59037 55.4095C10.3284 56.1475 11.3646 56.6287 13.3213 56.8918C15.3356 57.1626 18.0052 57.1668 21.833 57.1668H43.1663C46.9941 57.1668 49.6638 57.1626 51.678 56.8918C53.6348 56.6287 54.671 56.1475 55.409 55.4095C56.147 54.6714 56.6282 53.6352 56.8913 51.6785C57.1621 49.6642 57.1663 46.9946 57.1663 43.1668C57.1663 39.3391 57.1621 36.6694 56.8913 34.6552C56.6282 32.6984 56.147 31.6622 55.409 30.9242C54.671 30.1862 53.6348 29.705 51.678 29.4419C49.6638 29.1711 46.9941 29.1668 43.1663 29.1668H21.833C18.0052 29.1668 15.3356 29.1711 13.3213 29.4419Z" fill="#F34859"/>
</svg>
