<svg width="63" height="41" viewBox="0 0 63 41" fill="none" xmlns="http://www.w3.org/2000/svg">
<path d="M27.6147 0.5C29.8239 0.5 31.6147 2.29086 31.6147 4.5V7.5C31.6147 9.70914 29.8239 11.5 27.6147 11.5H4.61475C2.40561 11.5 0.614746 9.70914 0.614746 7.5V4.5C0.614746 2.29086 2.40561 0.5 4.61475 0.5H27.6147ZM5.03271 6.75391C4.24963 6.75391 3.61475 7.38877 3.61475 8.17188C3.61487 8.95487 4.2497 9.58984 5.03271 9.58984C5.81565 9.58975 6.45056 8.95482 6.45068 8.17188C6.45068 7.38883 5.81572 6.754 5.03271 6.75391ZM9.99561 7.1084C9.40828 7.1084 8.93213 7.58455 8.93213 8.17188C8.93225 8.75909 9.40836 9.23535 9.99561 9.23535H25.2378C25.825 9.23526 26.3011 8.75904 26.3013 8.17188C26.3013 7.58461 25.825 7.10849 25.2378 7.1084H9.99561ZM5.03271 2.5C4.24963 2.5 3.61475 3.13487 3.61475 3.91797C3.6148 4.70103 4.24966 5.33594 5.03271 5.33594C5.81569 5.33585 6.45063 4.70097 6.45068 3.91797C6.45068 3.13492 5.81572 2.50009 5.03271 2.5ZM9.99561 2.85449C9.40828 2.85449 8.93213 3.33064 8.93213 3.91797C8.93218 4.50525 9.40831 4.98145 9.99561 4.98145H29.1372C29.7243 4.98125 30.2006 4.50513 30.2007 3.91797C30.2007 3.33076 29.7244 2.85469 29.1372 2.85449H9.99561Z" fill="#C7C7C7" fill-opacity="0.3"/>
<mask id="mask0_4307_94275" style="mask-type:alpha" maskUnits="userSpaceOnUse" x="5" y="13" width="26" height="14">
<path d="M27.1919 16L28.6919 13.5H9.19189C8.02523 17.1667 5.69189 24.6 5.69189 25C5.69189 25.4 13.3586 26.1667 17.1919 26.5H30.1919L27.6919 23.5L27.1919 16Z" fill="black"/>
</mask>
<g mask="url(#mask0_4307_94275)">
<path d="M35.6147 14.5C37.8239 14.5 39.6147 16.2909 39.6147 18.5V21.5C39.6147 23.7091 37.8239 25.5 35.6147 25.5H12.6147C10.4056 25.5 8.61475 23.7091 8.61475 21.5V18.5C8.61475 16.2909 10.4056 14.5 12.6147 14.5H35.6147ZM13.0327 20.7539C12.2496 20.7539 11.6147 21.3888 11.6147 22.1719C11.6149 22.9549 12.2497 23.5898 13.0327 23.5898C13.8156 23.5898 14.4506 22.9548 14.4507 22.1719C14.4507 21.3888 13.8157 20.754 13.0327 20.7539ZM17.9956 21.1084C17.4083 21.1084 16.9321 21.5845 16.9321 22.1719C16.9323 22.7591 17.4084 23.2354 17.9956 23.2354H33.2378C33.825 23.2353 34.3011 22.759 34.3013 22.1719C34.3013 21.5846 33.825 21.1085 33.2378 21.1084H17.9956ZM13.0327 16.5C12.2496 16.5 11.6147 17.1349 11.6147 17.918C11.6148 18.701 12.2497 19.3359 13.0327 19.3359C13.8157 19.3358 14.4506 18.701 14.4507 17.918C14.4507 17.1349 13.8157 16.5001 13.0327 16.5ZM17.9956 16.8545C17.4083 16.8545 16.9321 17.3306 16.9321 17.918C16.9322 18.5053 17.4083 18.9814 17.9956 18.9814H37.1372C37.7243 18.9812 38.2006 18.5051 38.2007 17.918C38.2007 17.3308 37.7244 16.8547 37.1372 16.8545H17.9956Z" fill="#858B93" fill-opacity="0.3"/>
</g>
<path d="M27.6147 28.5C29.8239 28.5 31.6147 30.2909 31.6147 32.5V35.5C31.6147 37.7091 29.8239 39.5 27.6147 39.5H4.61475C2.40561 39.5 0.614746 37.7091 0.614746 35.5V32.5C0.614746 30.2909 2.40561 28.5 4.61475 28.5H27.6147ZM5.03271 34.7539C4.24963 34.7539 3.61475 35.3888 3.61475 36.1719C3.61487 36.9549 4.2497 37.5898 5.03271 37.5898C5.81565 37.5898 6.45056 36.9548 6.45068 36.1719C6.45068 35.3888 5.81572 34.754 5.03271 34.7539ZM9.99561 35.1084C9.40828 35.1084 8.93213 35.5845 8.93213 36.1719C8.93225 36.7591 9.40836 37.2354 9.99561 37.2354H25.2378C25.825 37.2353 26.3011 36.759 26.3013 36.1719C26.3013 35.5846 25.825 35.1085 25.2378 35.1084H9.99561ZM5.03271 30.5C4.24963 30.5 3.61475 31.1349 3.61475 31.918C3.6148 32.701 4.24966 33.3359 5.03271 33.3359C5.81569 33.3358 6.45063 32.701 6.45068 31.918C6.45068 31.1349 5.81572 30.5001 5.03271 30.5ZM9.99561 30.8545C9.40828 30.8545 8.93213 31.3306 8.93213 31.918C8.93218 32.5053 9.40831 32.9814 9.99561 32.9814H29.1372C29.7243 32.9812 30.2006 32.5051 30.2007 31.918C30.2007 31.3308 29.7244 30.8547 29.1372 30.8545H9.99561Z" fill="#C7C7C7" fill-opacity="0.3"/>
<mask id="mask1_4307_94275" style="mask-type:alpha" maskUnits="userSpaceOnUse" x="28" y="5" width="26" height="26">
<ellipse cx="40.7675" cy="18.4013" rx="12.5839" ry="12.5841" fill="#D9D9D9"/>
</mask>
<g mask="url(#mask1_4307_94275)">
<path d="M37.2168 12.5C40.4391 12.5001 43.0508 15.1126 43.0508 18.335V22.7109C43.0506 25.9331 40.439 28.5448 37.2168 28.5449H3.66797C0.445721 28.5449 -2.1668 25.9331 -2.16699 22.7109V18.335C-2.16699 15.1126 0.445601 12.5 3.66797 12.5H37.2168ZM4.27734 21.6221C3.13515 21.6221 2.20908 22.5482 2.20898 23.6904C2.20916 24.8326 3.1352 25.7588 4.27734 25.7588C5.41935 25.7586 6.34553 24.8325 6.3457 23.6904C6.34561 22.5483 5.4194 21.6222 4.27734 21.6221ZM11.5166 22.1396C10.66 22.1396 9.96494 22.8338 9.96484 23.6904C9.96503 24.547 10.66 25.2422 11.5166 25.2422H33.749C34.6055 25.242 35.3006 24.5469 35.3008 23.6904C35.3007 22.8339 34.6056 22.1398 33.749 22.1396H11.5166ZM4.27734 15.417C3.13519 15.417 2.20914 16.3432 2.20898 17.4854C2.20906 18.6276 3.13514 19.5537 4.27734 19.5537C5.41941 19.5536 6.34563 18.6275 6.3457 17.4854C6.34555 16.3433 5.41936 15.4172 4.27734 15.417ZM11.5166 15.9346C10.66 15.9346 9.96499 16.6288 9.96484 17.4854C9.96492 18.342 10.6599 19.0371 11.5166 19.0371H39.4375C40.2939 19.0368 40.9882 18.3418 40.9883 17.4854C40.9881 16.629 40.2938 15.9349 39.4375 15.9346H11.5166Z" fill="#858B93" fill-opacity="0.3"/>
</g>
<path d="M49.8715 32.8001C48.7214 31.737 48.6509 29.9428 49.714 28.7927C50.7771 27.6426 52.5712 27.572 53.7213 28.6352L59.9685 34.4101C61.1186 35.4732 61.1891 37.2674 60.126 38.4175C59.0629 39.5676 57.2688 39.6381 56.1187 38.575L49.8715 32.8001Z" fill="#858B93"/>
<path d="M46.2612 27.3959L48.1862 25.3134L51.5701 28.4415C52.1451 28.973 52.1804 29.8701 51.6488 30.4452L-nan -nanL51.6488 30.4452C51.1173 31.0203 50.2202 31.0555 49.6451 30.5239L46.2612 27.3959Z" fill="#EFEFEF"/>
<path fill-rule="evenodd" clip-rule="evenodd" d="M38.6405 28.504C44.22 28.504 48.743 23.9809 48.743 18.4013C48.743 12.8217 44.22 8.29852 38.6405 8.29852C33.061 8.29852 28.538 12.8217 28.538 18.4013C28.538 23.9809 33.061 28.504 38.6405 28.504ZM38.6405 30.9854C45.5904 30.9854 51.2244 25.3513 51.2244 18.4013C51.2244 11.4512 45.5904 5.81714 38.6405 5.81714C31.6906 5.81714 26.0566 11.4512 26.0566 18.4013C26.0566 25.3513 31.6906 30.9854 38.6405 30.9854Z" fill="#858B93"/>
</svg>
