<svg width="44" height="46" viewBox="0 0 44 46" fill="none" xmlns="http://www.w3.org/2000/svg">
<rect x="1" width="42" height="42" rx="21" fill="#1AC795" fill-opacity="0.3" style="fill:#1AC795;fill:color(display-p3 0.1020 0.7804 0.5843);fill-opacity:0.3;"/>
<g filter="url(#filter0_d_3381_24184)">
<path d="M26.8569 24.814L23.0284 28.6479C22.8586 28.8231 22.7651 29.0584 22.7682 29.3025C22.7714 29.5465 22.8711 29.7793 23.0454 29.9501C23.2197 30.1208 23.4546 30.2157 23.6986 30.2138C23.9426 30.2119 24.176 30.1136 24.3477 29.9402L27.95 26.3325C28.0002 26.2823 28.0598 26.2424 28.1254 26.2153C28.191 26.1881 28.2613 26.1741 28.3323 26.1741C28.4033 26.1741 28.4736 26.1881 28.5392 26.2153C28.6048 26.2424 28.6644 26.2823 28.7146 26.3325C28.7648 26.3827 28.8046 26.4423 28.8318 26.5079C28.859 26.5735 28.873 26.6438 28.873 26.7148C28.873 26.7858 28.859 26.8561 28.8318 26.9217C28.8046 26.9873 28.7648 27.0469 28.7146 27.0971L25.0961 30.7155C24.7566 31.05 24.3093 31.2531 23.834 31.2886C23.3587 31.3241 22.8862 31.1898 22.5008 30.9094H18.1823C18.0587 30.8996 17.9343 30.9147 17.8167 30.9539C17.699 30.9931 17.5904 31.0555 17.4974 31.1375C17.4043 31.2195 17.3287 31.3194 17.275 31.4312C17.2214 31.543 17.1907 31.6645 17.185 31.7884C17.1792 31.9123 17.1984 32.036 17.2414 32.1524C17.2844 32.2687 17.3504 32.3752 17.4354 32.4655C17.5204 32.5558 17.6227 32.6281 17.7362 32.678C17.8498 32.728 17.9722 32.7546 18.0962 32.7563H26.0869C26.525 32.7549 26.9449 32.5808 27.2554 32.2717L29.84 29.6871C30.0262 29.4999 30.2478 29.3516 30.4918 29.2508C30.7359 29.15 30.9975 29.0988 31.2616 29.1002H33.0816V24.3294H28.0254C27.8083 24.3289 27.5932 24.3714 27.3926 24.4546C27.192 24.5378 27.01 24.66 26.8569 24.814Z" fill="white" style="fill:white;fill-opacity:1;"/>
<path d="M35.4615 23.6025H34.6915C34.5561 23.6008 34.4251 23.6513 34.3259 23.7435C34.2266 23.8358 34.1667 23.9626 34.1584 24.0979V29.3479C34.1715 29.4803 34.2333 29.6032 34.3318 29.6927C34.4303 29.7822 34.5584 29.832 34.6915 29.8325H35.4615C35.6042 29.8321 35.7409 29.7752 35.8418 29.6743C35.9427 29.5734 35.9996 29.4367 36 29.294V24.1409C36.0002 24.0702 35.9865 24 35.9595 23.9346C35.9325 23.8691 35.8929 23.8097 35.8428 23.7596C35.7928 23.7096 35.7333 23.6699 35.6679 23.643C35.6024 23.616 35.5323 23.6022 35.4615 23.6025Z" fill="#B5FACD" style="fill:#B5FACD;fill:color(display-p3 0.7098 0.9804 0.8039);fill-opacity:1;"/>
<path d="M22.2748 27.8801L25.8784 24.2657V23.8384C25.8789 22.7447 25.4793 21.6885 24.755 20.869C24.0307 20.0494 23.0317 19.523 21.9462 19.389C21.8625 19.378 21.7774 19.3869 21.6979 19.415C21.6183 19.4431 21.5465 19.4895 21.4883 19.5506C20.902 20.1684 20.1961 20.6603 19.4135 20.9965C18.631 21.3326 17.7882 21.506 16.9365 21.506C16.0848 21.506 15.2421 21.3326 14.4595 20.9965C13.677 20.6603 12.9711 20.1684 12.3848 19.5506C12.3279 19.4893 12.2571 19.4425 12.1783 19.4144C12.0995 19.3863 12.0151 19.3776 11.9323 19.389C10.8468 19.5231 9.84776 20.0494 9.12346 20.869C8.39916 21.6886 7.99958 22.7447 8 23.8384V28.3272C7.99994 28.509 8.03571 28.6891 8.10527 28.857C8.17482 29.025 8.27679 29.1777 8.40535 29.3062C8.53392 29.4348 8.68655 29.5368 8.85454 29.6063C9.02252 29.6759 9.20257 29.7116 9.38439 29.7116H21.7307C21.6589 29.3852 21.6712 29.046 21.7664 28.7256C21.8615 28.4053 22.0364 28.1144 22.2748 27.8801Z" fill="url(#paint0_linear_3381_24184)" style=""/>
<path d="M16.9419 20.4287C17.973 20.4276 18.9806 20.1209 19.8374 19.5473C20.6942 18.9737 21.3617 18.159 21.7555 17.2061C22.1493 16.2532 22.2518 15.2049 22.05 14.1938C21.8482 13.1827 21.3512 12.254 20.6217 11.5253C19.8923 10.7966 18.9632 10.3006 17.9518 10.0998C16.9405 9.89903 15.8923 10.0026 14.9399 10.3974C13.9874 10.7922 13.1733 11.4606 12.6006 12.318C12.0279 13.1753 11.7222 14.1833 11.7222 15.2143C11.7233 16.5978 12.2738 17.9243 13.2526 18.9021C14.2314 19.8799 15.5584 20.429 16.9419 20.4287Z" fill="url(#paint1_linear_3381_24184)" style=""/>
<path d="M17.4102 12.688C17.4102 12.4264 17.1982 12.2143 16.9366 12.2143C16.6749 12.2143 16.4629 12.4264 16.4629 12.688L16.4629 14.7407H14.4102C14.1486 14.7407 13.9366 14.9527 13.9366 15.2143C13.9366 15.476 14.1486 15.688 14.4102 15.688H16.4629V17.7406C16.4629 18.0023 16.6749 18.2143 16.9366 18.2143C17.1982 18.2143 17.4102 18.0023 17.4102 17.7406L17.4102 15.688H19.4629C19.7245 15.688 19.9366 15.476 19.9366 15.2143C19.9366 14.9527 19.7245 14.7407 19.4629 14.7407H17.4102V12.688Z" fill="white" style="fill:white;fill-opacity:1;"/>
</g>
<defs>
<filter id="filter0_d_3381_24184" x="4.76837e-07" y="6.57142" width="44" height="38.7564" filterUnits="userSpaceOnUse" color-interpolation-filters="sRGB">
<feFlood flood-opacity="0" result="BackgroundImageFix"/>
<feColorMatrix in="SourceAlpha" type="matrix" values="0 0 0 0 0 0 0 0 0 0 0 0 0 0 0 0 0 0 127 0" result="hardAlpha"/>
<feOffset dy="4.57143"/>
<feGaussianBlur stdDeviation="4"/>
<feComposite in2="hardAlpha" operator="out"/>
<feColorMatrix type="matrix" values="0 0 0 0 0.0176667 0 0 0 0 0.265 0 0 0 0 0.23532 0 0 0 0.45 0"/>
<feBlend mode="normal" in2="BackgroundImageFix" result="effect1_dropShadow_3381_24184"/>
<feBlend mode="normal" in="SourceGraphic" in2="effect1_dropShadow_3381_24184" result="shape"/>
</filter>
<linearGradient id="paint0_linear_3381_24184" x1="16.9392" y1="19.3841" x2="16.9392" y2="34.0193" gradientUnits="userSpaceOnUse">
<stop stop-color="#28FFB0" style="stop-color:#28FFB0;stop-color:color(display-p3 0.1583 1.0000 0.6904);stop-opacity:1;"/>
<stop offset="1" stop-color="#0F9980" style="stop-color:#0F9980;stop-color:color(display-p3 0.0575 0.6000 0.5023);stop-opacity:1;"/>
</linearGradient>
<linearGradient id="paint1_linear_3381_24184" x1="16.9365" y1="9.99999" x2="16.9365" y2="24.7786" gradientUnits="userSpaceOnUse">
<stop stop-color="#28FFB0" style="stop-color:#28FFB0;stop-color:color(display-p3 0.1583 1.0000 0.6904);stop-opacity:1;"/>
<stop offset="1" stop-color="#0F9980" style="stop-color:#0F9980;stop-color:color(display-p3 0.0575 0.6000 0.5023);stop-opacity:1;"/>
</linearGradient>
</defs>
</svg>
