<svg width="20" height="21" viewBox="0 0 20 21" fill="none" xmlns="http://www.w3.org/2000/svg">
<path fill-rule="evenodd" clip-rule="evenodd" d="M18.3332 10.5001C18.3332 15.1025 14.6022 18.8334 9.99984 18.8334C5.39746 18.8334 1.6665 15.1025 1.6665 10.5001C1.6665 5.89771 5.39746 2.16675 9.99984 2.16675C14.6022 2.16675 18.3332 5.89771 18.3332 10.5001ZM13.3584 7.97481C13.6025 8.21888 13.6025 8.61461 13.3584 8.85869L9.19178 13.0254C8.9477 13.2694 8.55197 13.2694 8.3079 13.0254L6.64123 11.3587C6.39715 11.1146 6.39715 10.7189 6.64123 10.4748C6.88531 10.2307 7.28103 10.2307 7.52511 10.4748L8.74984 11.6995L12.4746 7.97481C12.7186 7.73073 13.1144 7.73073 13.3584 7.97481Z" fill="#1AAF74"/>
</svg>
