<svg width="18" height="19" viewBox="0 0 18 19" fill="none" xmlns="http://www.w3.org/2000/svg">
<path d="M9.0013 14.291C9.34648 14.291 9.6263 14.0112 9.6263 13.666V8.66602C9.6263 8.32084 9.34648 8.04102 9.0013 8.04102C8.65613 8.04102 8.3763 8.32084 8.3763 8.66602V13.666C8.3763 14.0112 8.65613 14.291 9.0013 14.291Z" fill="#858B93"/>
<path d="M9.0013 5.33268C9.46154 5.33268 9.83464 5.70578 9.83464 6.16602C9.83464 6.62625 9.46154 6.99935 9.0013 6.99935C8.54107 6.99935 8.16797 6.62625 8.16797 6.16602C8.16797 5.70578 8.54107 5.33268 9.0013 5.33268Z" fill="#858B93"/>
<path fill-rule="evenodd" clip-rule="evenodd" d="M0.0429688 9.49935C0.0429688 4.5518 4.05375 0.541016 9.0013 0.541016C13.9489 0.541016 17.9596 4.5518 17.9596 9.49935C17.9596 14.4469 13.9489 18.4577 9.0013 18.4577C4.05375 18.4577 0.0429688 14.4469 0.0429688 9.49935ZM9.0013 1.79102C4.74411 1.79102 1.29297 5.24215 1.29297 9.49935C1.29297 13.7565 4.74411 17.2077 9.0013 17.2077C13.2585 17.2077 16.7096 13.7565 16.7096 9.49935C16.7096 5.24215 13.2585 1.79102 9.0013 1.79102Z" fill="#858B93"/>
</svg>
