<svg width="58" height="59" viewBox="0 0 58 59" fill="none" xmlns="http://www.w3.org/2000/svg">
<path d="M29.0007 44.834C30.1052 44.834 31.0007 43.9386 31.0007 42.834V26.834C31.0007 25.7294 30.1052 24.834 29.0007 24.834C27.8961 24.834 27.0007 25.7294 27.0007 26.834V42.834C27.0007 43.9386 27.8961 44.834 29.0007 44.834Z" fill="#F34859"/>
<path d="M29.0007 16.1673C30.4734 16.1673 31.6673 17.3612 31.6673 18.834C31.6673 20.3067 30.4734 21.5007 29.0007 21.5007C27.5279 21.5007 26.334 20.3067 26.334 18.834C26.334 17.3612 27.5279 16.1673 29.0007 16.1673Z" fill="#F34859"/>
<path fill-rule="evenodd" clip-rule="evenodd" d="M0.333984 29.5007C0.333984 13.6685 13.1685 0.833984 29.0007 0.833984C44.8328 0.833984 57.6673 13.6685 57.6673 29.5007C57.6673 45.3328 44.8328 58.1673 29.0007 58.1673C13.1685 58.1673 0.333984 45.3328 0.333984 29.5007ZM29.0007 4.83398C15.3776 4.83398 4.33398 15.8776 4.33398 29.5007C4.33398 43.1237 15.3776 54.1673 29.0007 54.1673C42.6237 54.1673 53.6673 43.1237 53.6673 29.5007C53.6673 15.8776 42.6237 4.83398 29.0007 4.83398Z" fill="#F34859"/>
</svg>
