<svg width="56" height="48" viewBox="0 0 56 48" fill="none" xmlns="http://www.w3.org/2000/svg">
<path d="M39.6028 12.7009C39.7978 12.5057 40.114 12.5053 40.3094 12.7L51.1444 23.493C51.3406 23.6884 51.3406 24.0061 51.1444 24.2015L40.3072 34.9975C40.1127 35.1913 39.7981 35.1919 39.6028 34.9988L37.103 32.5274C36.9056 32.3322 36.9049 32.0135 37.1016 31.8176L41.964 26.9737C42.2799 26.659 42.057 26.1195 41.6111 26.1195L26.0562 26.1195C25.78 26.1195 25.5562 25.8956 25.5562 25.6195V22.0912C25.5562 21.815 25.78 21.5912 26.0562 21.5912L41.6145 21.5912C42.06 21.5912 42.2831 21.0527 41.9681 20.7377L37.1224 15.8909C36.9272 15.6957 36.9271 15.3793 37.1222 15.184L39.6028 12.7009ZM16.9605 21.4358C17.626 21.4358 18.1965 21.6727 18.672 22.1463C19.148 22.6205 19.386 23.1875 19.386 23.8472C19.386 24.507 19.148 25.0767 18.672 25.5563C18.1965 26.0353 17.6274 26.2749 16.9646 26.2749C16.3023 26.2749 15.7307 26.037 15.2498 25.5611C14.7689 25.0848 14.5285 24.5151 14.5285 23.8521C14.5285 23.1891 14.7673 22.6205 15.2449 22.1463C15.7231 21.6727 16.295 21.4358 16.9605 21.4358ZM5.932 21.4358C6.59754 21.4358 7.16831 21.6727 7.64431 22.1463C8.11978 22.6205 8.3575 23.1875 8.3575 23.8472C8.3575 24.507 8.11978 25.0767 7.64431 25.5563C7.16831 26.0353 6.59916 26.2749 5.93687 26.2749C5.27458 26.2749 4.70273 26.037 4.22131 25.5611C3.74043 25.0848 3.49999 24.5151 3.49999 23.8521C3.49999 23.1891 3.73881 22.6205 4.21644 22.1463C4.69461 21.6727 5.26646 21.4358 5.932 21.4358Z" fill="#1AAF74"/>
</svg>
