<svg width="32" height="33" viewBox="0 0 32 33" fill="none" xmlns="http://www.w3.org/2000/svg">
<path d="M6.4 32.8477C4.64 32.8477 3.13333 32.0643 1.88 30.4977C0.626667 28.931 0 27.0477 0 24.8477V8.84766C0 6.64766 0.626667 4.76432 1.88 3.19766C3.13333 1.63099 4.64 0.847656 6.4 0.847656H25.6C27.36 0.847656 28.8667 1.63099 30.12 3.19766C31.3733 4.76432 32 6.64766 32 8.84766V24.8477C32 27.0477 31.3733 28.931 30.12 30.4977C28.8667 32.0643 27.36 32.8477 25.6 32.8477H6.4ZM6.4 8.84766H25.6C26.1867 8.84766 26.7467 8.93099 27.28 9.09766C27.8133 9.26432 28.32 9.53099 28.8 9.89766V8.84766C28.8 7.74766 28.4867 6.80599 27.86 6.02266C27.2333 5.23932 26.48 4.84766 25.6 4.84766H6.4C5.52 4.84766 4.76667 5.23932 4.14 6.02266C3.51333 6.80599 3.2 7.74766 3.2 8.84766V9.89766C3.68 9.53099 4.18667 9.26432 4.72 9.09766C5.25333 8.93099 5.81333 8.84766 6.4 8.84766ZM3.44 15.3477L21.24 20.7477C21.48 20.8143 21.72 20.8143 21.96 20.7477C22.2 20.681 22.4267 20.5477 22.64 20.3477L28.2 14.5477C27.9067 14.0477 27.5333 13.6393 27.08 13.3227C26.6267 13.006 26.1333 12.8477 25.6 12.8477H6.4C5.70667 12.8477 5.1 13.0727 4.58 13.5227C4.06 13.9727 3.68 14.581 3.44 15.3477Z" fill="#1AAF74"/>
</svg>
