<svg width="16" height="16" viewBox="0 0 16 16" fill="none" xmlns="http://www.w3.org/2000/svg">
<g clip-path="url(#clip0_79_2732)">
<path d="M12.3127 9.92368C12.1311 9.74204 11.8366 9.7421 11.655 9.92368C11.4733 10.1053 11.4733 10.3998 11.655 10.5815L12.3127 9.92368ZM10.581 11.6555C10.3993 11.4738 10.1048 11.4738 9.92319 11.6555C9.74155 11.8371 9.74161 12.1316 9.92319 12.3132L10.581 11.6555ZM1.59625 6.40294C1.59625 3.74854 3.74806 1.59674 6.40245 1.59674V0.666504C3.23431 0.666504 0.666016 3.2348 0.666016 6.40294H1.59625ZM6.40245 1.59674C9.05684 1.59674 11.2087 3.74854 11.2087 6.40294H12.1389C12.1389 3.2348 9.57057 0.666504 6.40245 0.666504V1.59674ZM11.2087 6.40294C11.2087 9.05733 9.05684 11.2091 6.40245 11.2091V12.1394C9.57057 12.1394 12.1389 9.57106 12.1389 6.40294H11.2087ZM6.40245 11.2091C3.74806 11.2091 1.59625 9.05733 1.59625 6.40294H0.666016C0.666016 9.57106 3.23431 12.1394 6.40245 12.1394V11.2091ZM12.8467 12.8472C12.5501 13.1438 12.0693 13.1438 11.7727 12.8472L11.1149 13.505C11.7748 14.1648 12.8446 14.1648 13.5045 13.505L12.8467 12.8472ZM12.8467 11.7732C13.1433 12.0698 13.1433 12.5506 12.8467 12.8472L13.5045 13.505C14.1643 12.8451 14.1643 11.7753 13.5045 11.1154L12.8467 11.7732ZM11.655 10.5815L12.8467 11.7732L13.5045 11.1154L12.3127 9.92368L11.655 10.5815ZM11.7727 12.8472L10.581 11.6555L9.92319 12.3132L11.1149 13.505L11.7727 12.8472Z" fill="#3FC2EB"/>
</g>
<defs>
<clipPath id="clip0_79_2732">
<rect width="16" height="16" fill="white"/>
</clipPath>
</defs>
</svg>
