<svg width="42" height="42" viewBox="0 0 42 42" fill="none" xmlns="http://www.w3.org/2000/svg">
<path d="M21.3206 10.7572V11.2572H21.8206H32.4227C32.5996 11.2572 32.743 11.4006 32.743 11.5775V26.5558H9.25757V11.5775C9.25757 11.4006 9.40098 11.2572 9.57788 11.2572H20.18H20.68V10.7572V9.82029C20.68 9.64343 20.8234 9.5 21.0003 9.5C21.1772 9.5 21.3206 9.64343 21.3206 9.82029V10.7572Z" stroke="#B4B4B4"/>
<path d="M15.2441 31.3118C15.0526 31.7223 15.23 32.2105 15.6406 32.402C16.0509 32.5935 16.5393 32.4161 16.7309 32.0056L19.0559 27.2779H17.2455L15.2441 31.3118Z" fill="#B4B4B4" fill-opacity="0.8"/>
<path d="M25.533 27.2779H23.7225L26.0584 32.0056C26.25 32.4161 26.7384 32.5935 27.1487 32.402C27.5593 32.2105 27.7367 31.7223 27.5452 31.3118L25.533 27.2779Z" fill="#B4B4B4" fill-opacity="0.8"/>
<path d="M34.1797 27.0373H7.82031C7.36728 27.0373 7 27.4046 7 27.8576C7 28.3106 7.36728 28.6779 7.82031 28.6779H34.1797C34.6327 28.6779 35 28.3106 35 27.8576C35 27.4046 34.6327 27.0373 34.1797 27.0373Z" fill="#B4B4B4"/>
<path d="M26.5054 19.6028L29.735 15.924C30.0621 15.5515 30.0621 14.9474 29.7349 14.5748C29.4078 14.2023 28.8775 14.2023 28.5504 14.5748L25.7477 17.7674L23.0581 16.2355C22.7355 16.0517 22.3461 16.1239 22.0913 16.4142L19.2886 19.6068L16.5989 18.0749C16.2766 17.8912 15.8871 17.9633 15.6321 18.2536L12.4025 21.9324C12.0755 22.305 12.0755 22.9091 12.4025 23.2816C12.7296 23.6542 13.2599 23.6543 13.587 23.2816L16.3898 20.0891L19.0795 21.621C19.4018 21.8046 19.7913 21.7326 20.0462 21.4422L22.8489 18.2497L25.5386 19.7815C25.8612 19.9653 26.2505 19.8931 26.5054 19.6028Z" fill="#B4B4B4"/>
</svg>
