<svg width="42" height="42" viewBox="0 0 42 42" fill="none" xmlns="http://www.w3.org/2000/svg">
<path d="M15.7449 31.764L15.7438 31.7648C15.5904 31.8838 15.4577 31.9416 15.3445 31.9607C15.2377 31.9787 15.1193 31.9675 14.9762 31.8991C14.8248 31.8266 14.7421 31.7385 14.691 31.6429C14.6359 31.54 14.6001 31.3951 14.6001 31.19V10.8C14.6001 10.4754 14.6884 10.3041 14.7833 10.2114C14.8801 10.1168 15.0594 10.03 15.3901 10.03H31.1801C31.5079 10.03 31.6878 10.1178 31.7859 10.2141C31.8825 10.3091 31.9701 10.4819 31.9701 10.8V31.19C31.9701 31.5747 31.848 31.7818 31.6039 31.8945C31.4526 31.9617 31.3306 31.9717 31.2224 31.9533C31.108 31.9339 30.976 31.8768 30.8209 31.7607C29.6007 30.8405 28.39 29.9299 27.1291 28.9893L26.7804 28.7291L26.4746 29.0385C25.5957 29.9273 24.7467 30.7763 23.8965 31.6265C23.6048 31.9183 23.41 31.9825 23.2851 31.9825C23.1602 31.9825 22.9654 31.9183 22.6737 31.6265L20.0937 29.0465L19.7886 28.7414L19.4422 28.9985C19.1457 29.2184 18.8638 29.4308 18.5848 29.641C18.2632 29.8833 17.9455 30.1226 17.6141 30.3671C16.9826 30.8282 16.3592 31.2907 15.7449 31.764Z" stroke="#B4B4B4"/>
<path d="M25.3601 20.84H20.4401" stroke="#B4B4B4" stroke-width="1.4" stroke-linecap="round" stroke-linejoin="round"/>
<path d="M27.7301 17.34H18.0701" stroke="#B4B4B4" stroke-width="1.4" stroke-linecap="round" stroke-linejoin="round"/>
<path d="M29.6901 13.84H16.1101" stroke="#B4B4B4" stroke-width="1.4" stroke-linecap="round" stroke-linejoin="round"/>
<path d="M12.9301 24.68L8.11008 29.5C7.66008 29.95 6.93008 29.95 6.48008 29.5C6.03008 29.05 6.03008 28.3201 6.48008 27.8701L11.3001 23.05" fill="#B4B4B4"/>
<path d="M16.3901 25.86C19.9901 25.86 22.9001 22.95 22.9001 19.35C22.9001 15.75 19.9901 12.84 16.3901 12.84C12.7901 12.84 9.88013 15.75 9.88013 19.35C9.88013 22.95 12.7901 25.86 16.3901 25.86Z" fill="#272727" fill-opacity="0.8"/>
<path d="M16.9799 21.37H17.4699C17.6299 21.37 17.7799 21.43 17.9099 21.53C18.1899 21.49 18.4599 21.42 18.6899 21.31C18.7599 21.21 18.8099 21.1 18.8699 20.99V19.89C18.8699 19.64 18.9599 19.41 19.1199 19.24C18.8899 17.91 17.7599 16.91 16.3999 16.91C15.0399 16.91 13.9099 17.92 13.6799 19.24C13.8399 19.42 13.9299 19.65 13.9299 19.89V20.99C14.3799 21.92 15.3199 22.56 16.3999 22.56C16.4199 22.56 16.4299 22.56 16.4499 22.56C16.3499 22.43 16.2799 22.27 16.2799 22.09C16.2799 21.69 16.5999 21.37 16.9899 21.37H16.9799Z" fill="#B4B4B4"/>
<path d="M12.64 21.82H12.67C13.04 21.82 13.34 21.53 13.34 21.17V19.88C13.34 19.63 13.19 19.41 12.97 19.3C13.07 17.55 14.56 16.16 16.39 16.16C18.22 16.16 19.71 17.55 19.81 19.3C19.59 19.41 19.44 19.62 19.44 19.88V21.17C19.44 21.26 19.46 21.34 19.49 21.41C19.1 21.68 18.54 21.87 17.9 21.92C17.83 21.81 17.71 21.74 17.56 21.74H17.03C16.81 21.74 16.63 21.91 16.63 22.13C16.63 22.35 16.81 22.52 17.03 22.52H17.56C17.71 22.52 17.85 22.43 17.91 22.31C18.65 22.25 19.29 22.03 19.74 21.71C19.84 21.78 19.97 21.81 20.1 21.81H20.13C20.5 21.81 20.8 21.52 20.8 21.16V19.87C20.8 19.61 20.64 19.39 20.42 19.29C20.32 17.21 18.55 15.55 16.39 15.55C14.23 15.55 12.46 17.21 12.36 19.29C12.14 19.39 11.98 19.62 11.98 19.87V21.16C11.98 21.52 12.28 21.81 12.65 21.81L12.64 21.82Z" fill="#B4B4B4"/>
<path fill-rule="evenodd" clip-rule="evenodd" d="M16.3901 24.86C19.4301 24.86 21.9001 22.39 21.9001 19.35C21.9001 16.31 19.4301 13.84 16.3901 13.84C13.3501 13.84 10.8801 16.31 10.8801 19.35C10.8801 22.39 13.3501 24.86 16.3901 24.86ZM22.9001 19.35C22.9001 22.95 19.9901 25.86 16.3901 25.86C12.7901 25.86 9.88013 22.95 9.88013 19.35C9.88013 15.75 12.7901 12.84 16.3901 12.84C19.9901 12.84 22.9001 15.75 22.9001 19.35Z" fill="#B4B4B4"/>
</svg>
