<svg width="42" height="42" viewBox="0 0 42 42" fill="none" xmlns="http://www.w3.org/2000/svg">
<path d="M25.54 23.5599L21.71 27.3899C21.54 27.5699 21.45 27.7999 21.45 28.0399C21.45 28.2799 21.55 28.5199 21.73 28.6899C21.9 28.8599 22.14 28.9599 22.38 28.9499C22.62 28.9399 22.86 28.8499 23.03 28.6799L26.63 25.0699C26.68 25.0199 26.74 24.9799 26.81 24.9499C26.88 24.9199 26.95 24.9099 27.02 24.9099C27.09 24.9099 27.16 24.9199 27.23 24.9499C27.3 24.9799 27.36 25.0199 27.41 25.0699C27.46 25.1199 27.5 25.1799 27.53 25.2499C27.56 25.3199 27.57 25.3899 27.57 25.4599C27.57 25.5299 27.56 25.5999 27.53 25.6699C27.5 25.7399 27.46 25.7999 27.41 25.8499L23.79 29.4699C23.45 29.7999 23 30.0099 22.53 30.0399C22.06 30.0699 21.58 29.9399 21.2 29.6599H16.88C16.76 29.6599 16.63 29.6599 16.51 29.6999C16.39 29.7399 16.28 29.7999 16.19 29.8799C16.1 29.9599 16.02 30.0599 15.97 30.1699C15.92 30.2799 15.89 30.3999 15.88 30.5299C15.88 30.6499 15.89 30.7799 15.94 30.8899C15.98 31.0099 16.05 31.1099 16.13 31.1999C16.22 31.2899 16.32 31.3599 16.43 31.4099C16.54 31.4599 16.67 31.4899 16.79 31.4899H24.78C25.22 31.4899 25.64 31.3099 25.95 31.0099L28.53 28.4299C28.72 28.2399 28.94 28.0899 29.18 27.9899C29.42 27.8899 29.69 27.8399 29.95 27.8399H31.77V23.0699H26.71C26.49 23.0699 26.28 23.1099 26.08 23.1999C25.88 23.2799 25.7 23.4099 25.54 23.5599Z" fill="#B4B4B4"/>
<path d="M34.14 22.35H33.37C33.23 22.35 33.1 22.4 33 22.49C32.9 22.58 32.84 22.71 32.83 22.84V28.09C32.84 28.22 32.9 28.35 33 28.43C33.1 28.52 33.23 28.57 33.36 28.57H34.13C34.27 28.57 34.41 28.51 34.51 28.41C34.61 28.31 34.67 28.17 34.67 28.03V22.88C34.67 22.81 34.66 22.74 34.63 22.67C34.6 22.6 34.56 22.55 34.51 22.5C34.46 22.45 34.4 22.41 34.34 22.38C34.27 22.35 34.2 22.34 34.13 22.34L34.14 22.35Z" fill="#B4B4B4"/>
<path d="M20.34 27.46C20.44 27.12 20.6 26.81 20.85 26.56L24.64 22.77C25.05 21.75 25.27 20.64 25.27 19.47C25.27 14.52 21.26 10.51 16.31 10.51C11.36 10.51 7.34998 14.52 7.34998 19.47C7.34998 24.42 11.36 28.43 16.31 28.43C17.76 28.43 19.13 28.08 20.34 27.47V27.46Z" stroke="#B4B4B4"/>
<path d="M15.36 23.22C15.06 23.22 14.78 23.11 14.56 22.91L11.69 20.36C11.19 19.92 11.14 19.16 11.58 18.66C12.02 18.16 12.78 18.11 13.28 18.55L15.27 20.32L19.24 16.08C19.7 15.59 20.46 15.57 20.95 16.02C21.44 16.48 21.46 17.24 21.01 17.73L16.23 22.83C16 23.07 15.68 23.21 15.35 23.21L15.36 23.22Z" fill="#B4B4B4"/>
</svg>
