<svg width="42" height="42" viewBox="0 0 42 42" fill="none" xmlns="http://www.w3.org/2000/svg">
<path d="M21 8.5C21.6172 8.5 22.0551 8.50027 22.3997 8.5236C22.7398 8.54663 22.9524 8.59048 23.1224 8.66036C23.6424 8.87413 24.0544 9.28365 24.2689 9.79761C24.3547 10.0032 24.4001 10.2679 24.4181 10.7461C24.4514 11.6293 24.9095 12.4647 25.7043 12.9201C26.4985 13.3751 27.4535 13.3505 28.2376 12.9392C28.6641 12.7155 28.919 12.6215 29.1431 12.5922C29.7017 12.5192 30.2662 12.6696 30.7122 13.0092C30.8578 13.1201 31.0019 13.2803 31.1918 13.5607C31.3842 13.8449 31.6033 14.2209 31.9119 14.7514C32.2205 15.2819 32.4391 15.6582 32.5908 15.9657C32.7406 16.2691 32.8081 16.4726 32.8319 16.6522C32.905 17.2032 32.7547 17.7609 32.4131 18.2028C32.2761 18.3799 32.0671 18.5518 31.6584 18.8067C30.9071 19.2751 30.4057 20.0857 30.4056 20.9999C30.4056 21.9141 30.9071 22.7248 31.6584 23.1933C32.067 23.4481 32.276 23.62 32.413 23.7971C32.7546 24.239 32.9049 24.7967 32.8318 25.3477C32.808 25.5273 32.7405 25.7308 32.5907 26.0342C32.439 26.3417 32.2204 26.718 31.9118 27.2485C31.6031 27.779 31.3841 28.155 31.1916 28.4392C31.0018 28.7196 30.8576 28.8798 30.7121 28.9907C30.266 29.3304 29.7016 29.4807 29.143 29.4077C28.9189 29.3784 28.664 29.2844 28.2375 29.0607C27.4534 28.6494 26.4983 28.6248 25.7041 29.0799C24.9095 29.5353 24.4514 30.3706 24.4181 31.2537C24.4001 31.732 24.3547 31.9967 24.2689 32.2024C24.0544 32.7164 23.6424 33.1259 23.1224 33.3396C22.9524 33.4095 22.7398 33.4534 22.3997 33.4764C22.0551 33.4997 21.6172 33.5 21 33.5C20.3829 33.5 19.9449 33.4997 19.6004 33.4764C19.2602 33.4534 19.0477 33.4095 18.8777 33.3396C18.3577 33.1259 17.9457 32.7164 17.7312 32.2024C17.6453 31.9968 17.6 31.7321 17.5819 31.2539C17.5486 30.3707 17.0905 29.5353 16.2958 29.0799C15.5016 28.6249 14.5465 28.6495 13.7625 29.0608C13.336 29.2845 13.081 29.3785 12.8569 29.4078C12.2983 29.4808 11.7339 29.3304 11.2878 28.9908C11.1423 28.8799 10.9981 28.7197 10.8083 28.4393C10.6158 28.1551 10.3968 27.7791 10.0882 27.2486C9.77953 26.7181 9.56095 26.3418 9.4092 26.0343C9.25944 25.7309 9.19193 25.5274 9.16811 25.3478C9.09501 24.7968 9.24535 24.2391 9.58696 23.7972C9.72393 23.6201 9.93291 23.4482 10.3416 23.1934C11.0929 22.7249 11.5944 21.9142 11.5944 21.0001C11.5945 20.0858 11.093 19.275 10.3416 18.8065L10.077 19.2307L10.3416 18.8065C9.933 18.5517 9.72405 18.3798 9.58709 18.2027C9.24547 17.7608 9.09514 17.2031 9.16823 16.6521C9.19205 16.4726 9.25957 16.269 9.40933 15.9656C9.56108 15.6581 9.77966 15.2818 10.0883 14.7513C10.3969 14.2208 10.616 13.8448 10.8084 13.5606C10.9983 13.2802 11.1424 13.12 11.288 13.0091C11.734 12.6695 12.2985 12.5191 12.857 12.5921C13.0812 12.6214 13.3361 12.7154 13.7627 12.9392C14.5467 13.3504 15.5017 13.3751 16.2958 12.92C17.0905 12.4647 17.5486 11.6294 17.5819 10.7462C17.5999 10.268 17.6453 10.0032 17.7312 9.79761C17.9457 9.28365 18.3577 8.87413 18.8777 8.66036C19.0477 8.59048 19.2602 8.54663 19.6004 8.5236C19.9449 8.50027 20.3829 8.5 21 8.5Z" stroke="#B4B4B4"/>
<ellipse cx="21.003" cy="20.9972" rx="3.93451" ry="3.91124" fill="#B4B4B4"/>
</svg>
