<svg width="42" height="42" viewBox="0 0 42 42" fill="none" xmlns="http://www.w3.org/2000/svg">
<path d="M33.5 18.05C33.5 18.0805 33.489 18.1014 33.4752 18.1152C33.4614 18.129 33.4405 18.14 33.41 18.14C32.1563 18.14 31.14 19.1563 31.14 20.41V27.28C31.14 27.9938 31.4757 28.5946 31.8527 29.0874C32.0941 29.403 32.396 29.7246 32.6662 30.0123C32.8002 30.1551 32.9264 30.2895 33.0336 30.4108C33.3244 30.7398 33.5 31.1699 33.5 31.64V33.41C33.5 33.4405 33.489 33.4614 33.4752 33.4752C33.4614 33.489 33.4405 33.5 33.41 33.5H8.59C8.55945 33.5 8.5386 33.489 8.5248 33.4752C8.51101 33.4614 8.5 33.4405 8.5 33.41V31.64C8.5 31.1699 8.67564 30.7398 8.96641 30.4108C9.07357 30.2895 9.19978 30.1551 9.3338 30.0123C9.60398 29.7246 9.90586 29.403 10.1473 29.0874C10.5243 28.5946 10.86 27.9938 10.86 27.28V20.41C10.86 19.1563 9.84369 18.14 8.59 18.14C8.55945 18.14 8.5386 18.129 8.5248 18.1152C8.51101 18.1014 8.5 18.0805 8.5 18.05V15.69C8.5 15.6607 8.51365 15.63 8.54905 15.6077L20.0961 8.74537C20.7031 8.42119 21.3265 8.4324 21.8912 8.74377L33.451 15.6077C33.4864 15.63 33.5 15.6607 33.5 15.69V18.05Z" stroke="#B4B4B4"/>
<path d="M18.64 18.64H15.09V29.28H18.64V18.64Z" fill="#B4B4B4"/>
<path d="M26.91 18.64H23.36V29.28H26.91V18.64Z" fill="#B4B4B4"/>
<path d="M21 17.15C22.806 17.15 24.27 15.686 24.27 13.88C24.27 12.074 22.806 10.61 21 10.61C19.194 10.61 17.73 12.074 17.73 13.88C17.73 15.686 19.194 17.15 21 17.15Z" fill="#B4B4B4"/>
<mask id="path-6-inside-1_9642_102506" fill="white">
<path d="M21.3 14.65H21.22C21.2 14.7 21.17 14.75 21.13 14.8C21.1 14.84 21.05 14.88 21 14.92C20.95 14.96 20.88 14.98 20.81 15C20.74 15.02 20.65 15.03 20.54 15.03C20.4 15.03 20.28 15.01 20.16 14.96C20.04 14.91 19.94 14.84 19.85 14.74C19.76 14.64 19.7 14.52 19.65 14.39C19.6 14.25 19.58 14.09 19.58 13.91V13.83C19.58 13.65 19.61 13.5 19.66 13.36C19.71 13.22 19.78 13.1 19.87 13.01C19.96 12.91 20.07 12.84 20.18 12.79C20.3 12.74 20.43 12.71 20.56 12.71C20.74 12.71 20.88 12.74 20.98 12.81C21.08 12.87 21.16 12.97 21.22 13.09H21.3V12.59H20.61V12.09H21.3V11.88H21.86V12.09H22.13V12.59H21.86V14.97H21.3V14.65ZM20.72 14.5C20.89 14.5 21.03 14.45 21.14 14.34C21.25 14.23 21.3 14.08 21.3 13.9V13.85C21.3 13.67 21.25 13.53 21.14 13.42C21.03 13.31 20.89 13.25 20.72 13.25C20.55 13.25 20.4 13.3 20.3 13.41C20.2 13.52 20.14 13.66 20.14 13.85V13.9C20.14 14.09 20.19 14.23 20.3 14.34C20.41 14.45 20.55 14.5 20.72 14.5Z"/>
</mask>
<path d="M21.3 14.65H21.22C21.2 14.7 21.17 14.75 21.13 14.8C21.1 14.84 21.05 14.88 21 14.92C20.95 14.96 20.88 14.98 20.81 15C20.74 15.02 20.65 15.03 20.54 15.03C20.4 15.03 20.28 15.01 20.16 14.96C20.04 14.91 19.94 14.84 19.85 14.74C19.76 14.64 19.7 14.52 19.65 14.39C19.6 14.25 19.58 14.09 19.58 13.91V13.83C19.58 13.65 19.61 13.5 19.66 13.36C19.71 13.22 19.78 13.1 19.87 13.01C19.96 12.91 20.07 12.84 20.18 12.79C20.3 12.74 20.43 12.71 20.56 12.71C20.74 12.71 20.88 12.74 20.98 12.81C21.08 12.87 21.16 12.97 21.22 13.09H21.3V12.59H20.61V12.09H21.3V11.88H21.86V12.09H22.13V12.59H21.86V14.97H21.3V14.65ZM20.72 14.5C20.89 14.5 21.03 14.45 21.14 14.34C21.25 14.23 21.3 14.08 21.3 13.9V13.85C21.3 13.67 21.25 13.53 21.14 13.42C21.03 13.31 20.89 13.25 20.72 13.25C20.55 13.25 20.4 13.3 20.3 13.41C20.2 13.52 20.14 13.66 20.14 13.85V13.9C20.14 14.09 20.19 14.23 20.3 14.34C20.41 14.45 20.55 14.5 20.72 14.5Z" fill="#6B6B6B"/>
<path d="M21.3 14.65H22.3V13.65H21.3V14.65ZM21.22 14.65V13.65H20.5429L20.2915 14.2786L21.22 14.65ZM21.13 14.8L20.3491 14.1753L20.3393 14.1875L20.33 14.2L21.13 14.8ZM19.65 14.39L18.7082 14.7263L18.7123 14.7377L18.7166 14.749L19.65 14.39ZM19.87 13.01L20.5771 13.7171L20.5957 13.6985L20.6133 13.679L19.87 13.01ZM20.18 12.79L19.7953 11.8669L19.7806 11.8731L19.7662 11.8796L20.18 12.79ZM20.98 12.81L20.4065 13.6292L20.4353 13.6494L20.4655 13.6675L20.98 12.81ZM21.22 13.09L20.3255 13.5372L20.6019 14.09H21.22V13.09ZM21.3 13.09V14.09H22.3V13.09H21.3ZM21.3 12.59H22.3V11.59H21.3V12.59ZM20.61 12.59H19.61V13.59H20.61V12.59ZM20.61 12.09V11.09H19.61V12.09H20.61ZM21.3 12.09V13.09H22.3V12.09H21.3ZM21.3 11.88V10.88H20.3V11.88H21.3ZM21.86 11.88H22.86V10.88H21.86V11.88ZM21.86 12.09H20.86V13.09H21.86V12.09ZM22.13 12.09H23.13V11.09H22.13V12.09ZM22.13 12.59V13.59H23.13V12.59H22.13ZM21.86 12.59V11.59H20.86V12.59H21.86ZM21.86 14.97V15.97H22.86V14.97H21.86ZM21.3 14.97H20.3V15.97H21.3V14.97ZM21.3 13.65H21.22V15.65H21.3V13.65ZM20.2915 14.2786C20.3141 14.2221 20.3389 14.188 20.3491 14.1753L21.9108 15.4247C22.001 15.312 22.0858 15.1779 22.1484 15.0214L20.2915 14.2786ZM20.33 14.2C20.3536 14.1685 20.374 14.1464 20.3858 14.1342C20.3979 14.1217 20.4063 14.1142 20.4081 14.1126C20.4101 14.1108 20.409 14.1118 20.4028 14.1169C20.3962 14.1223 20.3886 14.1284 20.3753 14.1391L21.6247 15.7009C21.6396 15.6889 21.807 15.5639 21.93 15.4L20.33 14.2ZM20.3753 14.1391C20.4608 14.0707 20.5347 14.0414 20.5535 14.0342C20.5652 14.0297 20.5711 14.028 20.5668 14.0293C20.5616 14.0309 20.5545 14.033 20.5352 14.0385L21.0847 15.9615C21.1006 15.957 21.3868 15.8911 21.6247 15.7009L20.3753 14.1391ZM20.5352 14.0385C20.5508 14.034 20.5625 14.0316 20.5694 14.0303C20.5764 14.0289 20.58 14.0286 20.5795 14.0286C20.5791 14.0287 20.5756 14.029 20.5688 14.0294C20.5619 14.0297 20.5524 14.03 20.54 14.03V16.03C20.7006 16.03 20.8922 16.0165 21.0847 15.9615L20.5352 14.0385ZM20.54 14.03C20.5178 14.03 20.5133 14.0284 20.5196 14.0296C20.5227 14.0301 20.5271 14.0311 20.5322 14.0326C20.5373 14.0341 20.5416 14.0357 20.5446 14.0369L19.7753 15.8831C20.0403 15.9935 20.2954 16.03 20.54 16.03V14.03ZM20.5446 14.0369C20.5477 14.0382 20.5581 14.0431 20.5712 14.0523C20.5843 14.0616 20.5918 14.0694 20.5933 14.071L19.1067 15.409C19.2966 15.62 19.5194 15.7764 19.7753 15.8831L20.5446 14.0369ZM20.5933 14.071C20.6078 14.0872 20.6127 14.0971 20.61 14.0922C20.6066 14.0861 20.5977 14.0686 20.5833 14.031L18.7166 14.749C18.7861 14.9297 18.8993 15.1785 19.1067 15.409L20.5933 14.071ZM20.5917 14.0537C20.5934 14.0584 20.58 14.0224 20.58 13.91H18.58C18.58 14.1576 18.6065 14.4416 18.7082 14.7263L20.5917 14.0537ZM20.58 13.91V13.83H18.58V13.91H20.58ZM20.58 13.83C20.58 13.7965 20.5827 13.7725 20.5858 13.7547C20.589 13.7369 20.5938 13.7185 20.6017 13.6963L18.7182 13.0237C18.6315 13.2664 18.58 13.5299 18.58 13.83H20.58ZM20.6017 13.6963C20.6076 13.6797 20.6112 13.6745 20.6091 13.6781C20.6069 13.6817 20.5974 13.6967 20.5771 13.7171L19.1629 12.3029C18.9437 12.522 18.8049 12.781 18.7182 13.0237L20.6017 13.6963ZM20.6133 13.679C20.6001 13.6935 20.5896 13.7014 20.5856 13.7042C20.5821 13.7066 20.584 13.7048 20.5938 13.7004L19.7662 11.8796C19.5679 11.9697 19.3325 12.1123 19.1267 12.341L20.6133 13.679ZM20.5646 13.7131C20.5722 13.7099 20.5766 13.7089 20.577 13.7088C20.5775 13.7087 20.5717 13.71 20.56 13.71V11.71C20.2783 11.71 20.0176 11.7743 19.7953 11.8669L20.5646 13.7131ZM20.56 13.71C20.5979 13.71 20.5982 13.7135 20.5738 13.7079C20.5473 13.7017 20.4826 13.6825 20.4065 13.6292L21.5534 11.9908C21.2078 11.7488 20.824 11.71 20.56 11.71V13.71ZM20.4655 13.6675C20.4061 13.6319 20.3692 13.5944 20.35 13.5716C20.3311 13.5491 20.3246 13.5354 20.3255 13.5372L22.1144 12.6428C22.0009 12.4159 21.8091 12.1413 21.4945 11.9525L20.4655 13.6675ZM21.22 14.09H21.3V12.09H21.22V14.09ZM22.3 13.09V12.59H20.3V13.09H22.3ZM21.3 11.59H20.61V13.59H21.3V11.59ZM21.61 12.59V12.09H19.61V12.59H21.61ZM20.61 13.09H21.3V11.09H20.61V13.09ZM22.3 12.09V11.88H20.3V12.09H22.3ZM21.3 12.88H21.86V10.88H21.3V12.88ZM20.86 11.88V12.09H22.86V11.88H20.86ZM21.86 13.09H22.13V11.09H21.86V13.09ZM21.13 12.09V12.59H23.13V12.09H21.13ZM22.13 11.59H21.86V13.59H22.13V11.59ZM20.86 12.59V14.97H22.86V12.59H20.86ZM21.86 13.97H21.3V15.97H21.86V13.97ZM22.3 14.97V14.65H20.3V14.97H22.3ZM20.72 15.5C21.1042 15.5 21.5163 15.3778 21.8471 15.0471L20.4328 13.6329C20.478 13.5877 20.5367 13.5492 20.6013 13.5249C20.6625 13.502 20.707 13.5 20.72 13.5V15.5ZM21.8471 15.0471C22.1932 14.701 22.3 14.2675 22.3 13.9H20.3C20.3 13.8989 20.3 13.8647 20.3191 13.8109C20.3397 13.7532 20.3768 13.6889 20.4328 13.6329L21.8471 15.0471ZM22.3 13.9V13.85H20.3V13.9H22.3ZM22.3 13.85C22.3 13.4648 22.1832 13.049 21.8471 12.7129L20.4328 14.1271C20.3869 14.0811 20.3473 14.0208 20.3229 13.9545C20.3002 13.893 20.3 13.8519 20.3 13.85H22.3ZM21.8471 12.7129C21.5465 12.4123 21.1508 12.25 20.72 12.25V14.25C20.6851 14.25 20.6324 14.2434 20.5725 14.2188C20.5125 14.1941 20.4654 14.1596 20.4328 14.1271L21.8471 12.7129ZM20.72 12.25C20.3674 12.25 19.9073 12.3553 19.56 12.7373L21.0399 14.0827C20.8926 14.2447 20.7325 14.25 20.72 14.25V12.25ZM19.56 12.7373C19.2866 13.0381 19.14 13.4204 19.14 13.85H21.14C21.14 13.8622 21.1376 13.9015 21.1175 13.9547C21.0969 14.0088 21.0673 14.0526 21.0399 14.0827L19.56 12.7373ZM19.14 13.85V13.9H21.14V13.85H19.14ZM19.14 13.9C19.14 14.2863 19.2516 14.7059 19.5928 15.0471L21.0071 13.6329C21.0538 13.6797 21.0944 13.7418 21.119 13.8096C21.1412 13.8711 21.14 13.9087 21.14 13.9H19.14ZM19.5928 15.0471C19.9236 15.3778 20.3357 15.5 20.72 15.5V13.5C20.7329 13.5 20.7774 13.502 20.8386 13.5249C20.9032 13.5492 20.9619 13.5877 21.0071 13.6329L19.5928 15.0471Z" fill="#6B6B6B" mask="url(#path-6-inside-1_9642_102506)"/>
<mask id="path-8-inside-2_9642_102506" fill="white">
<path d="M21.76 15.53H19.92V15.9H21.76V15.53Z"/>
</mask>
<path d="M21.76 15.53H19.92V15.9H21.76V15.53Z" fill="#6B6B6B"/>
<path d="M19.92 15.53V14.53H18.92V15.53H19.92ZM21.76 15.53H22.76V14.53H21.76V15.53ZM21.76 15.9V16.9H22.76V15.9H21.76ZM19.92 15.9H18.92V16.9H19.92V15.9ZM19.92 16.53H21.76V14.53H19.92V16.53ZM20.76 15.53V15.9H22.76V15.53H20.76ZM21.76 14.9H19.92V16.9H21.76V14.9ZM20.92 15.9V15.53H18.92V15.9H20.92Z" fill="#6B6B6B" mask="url(#path-8-inside-2_9642_102506)"/>
</svg>
