<svg width="42" height="42" viewBox="0 0 42 42" fill="none" xmlns="http://www.w3.org/2000/svg">
<path d="M18.1487 19.9738V19.9739C18.1487 20.1186 18.1643 20.259 18.1936 20.3938C16.4966 20.1581 15.0566 19.0814 14.2854 17.5781V15.4293C14.2854 14.8839 14.1145 14.3676 13.8103 13.9446C14.3254 11.5375 16.4131 9.74878 18.8976 9.74878C21.3829 9.74878 23.4702 11.5372 23.9852 13.9443C23.6808 14.3676 23.5101 14.8839 23.5101 15.4293V17.5792C23.4443 17.7098 23.3762 17.8348 23.3039 17.9537C22.9577 18.0939 22.5695 18.2041 22.1572 18.2742C21.8525 18.0824 21.4974 17.976 21.1264 17.976H20.1141C19.0198 17.976 18.1491 18.8824 18.1487 19.9738Z" stroke="#B4B4B4"/>
<path d="M11.5567 14.2188L11.5386 14.5515L11.8387 14.6963C12.1049 14.8247 12.2741 15.0815 12.2741 15.3669V17.8707C12.2741 18.2752 11.9333 18.6258 11.4833 18.6258H11.4184C10.9688 18.6258 10.6277 18.2749 10.6277 17.871V15.3672C10.6277 15.0774 10.8032 14.8164 11.0734 14.6925L11.3502 14.5656L11.3644 14.2614C11.5393 10.5189 14.7387 7.5 18.6732 7.5C22.6077 7.5 25.8067 10.5188 25.9829 14.261L25.9972 14.5647L26.2735 14.6918C26.543 14.8157 26.7182 15.0764 26.7182 15.3667V17.8704C26.7182 18.2752 26.3782 18.6256 25.9277 18.6256H25.8631C25.7042 18.6256 25.5583 18.5801 25.4347 18.5024L25.2144 18.3639L25.1283 18.1501C25.0918 18.0596 25.0726 17.968 25.0726 17.8707V15.3669C25.0726 15.0811 25.2419 14.8244 25.5075 14.6964L25.8078 14.5517L25.7898 14.2189C25.5913 10.5538 22.4626 7.65698 18.6729 7.65698C14.8832 7.65698 11.7557 10.5542 11.5567 14.2188ZM21.1699 19.6148L21.2443 19.7244L21.1765 19.8507C21.1322 19.9335 21.0434 19.9925 20.9342 19.9925H19.9069C19.741 19.9925 19.6326 19.8659 19.6326 19.741C19.6326 19.6175 19.7404 19.4906 19.9069 19.4906H20.9342C21.0333 19.4906 21.1193 19.5402 21.1699 19.6148Z" stroke="#B4B4B4"/>
<path d="M32.1889 24.3941H28.4675C28.0916 24.3941 27.7511 24.6098 27.6078 24.9394C27.4636 25.27 27.5436 25.65 27.8097 25.9028L29.0126 27.0456L25.2112 30.6569L22.1475 27.7465C21.8433 27.4557 21.3651 27.4053 21.0004 27.6201L11.2317 33.3649C10.7944 33.6221 10.6604 34.1666 10.9302 34.5811C11.1061 34.8515 11.4103 35 11.722 35C11.8894 35 12.0578 34.9576 12.2104 34.8674L21.3521 29.4911L24.5525 32.5315C24.9163 32.8771 25.5043 32.8771 25.868 32.5315L30.3282 28.2953L31.5311 29.4381C31.7088 29.6069 31.947 29.6971 32.1889 29.6971C32.3089 29.6971 32.4298 29.675 32.5452 29.6299C32.8932 29.4929 33.1192 29.1703 33.1192 28.8132V25.2779C33.1192 24.7901 32.7034 24.3941 32.1889 24.3941Z" stroke="#B4B4B4" stroke-width="0.8"/>
<mask id="path-5-inside-1_9642_102496" fill="white">
<path fill-rule="evenodd" clip-rule="evenodd" d="M9 28.8689C9 25.7277 11.3917 23.1451 14.4528 22.8432L26.3815 28.0052C26.3815 28.0052 26.3816 28.0052 26.3816 28.0052V28.0052C26.3817 28.0051 26.3816 28.005 26.3816 28.005L14.4528 22.8432H22.9239C24.3149 22.9802 25.5679 23.5883 26.5211 24.506C26.5408 24.525 26.5736 24.5181 26.5845 24.493V24.493V24.493C26.7876 24.0267 26.8343 23.4213 26.4206 23.1255C25.4307 22.4179 24.2503 21.9598 22.9711 21.8432H14.4055C10.8135 22.1713 8 25.191 8 28.8689C8 31.0684 9.00615 31.9585 10.5836 32.3166C10.6912 32.341 10.8039 32.3213 10.8991 32.2654V32.2654C11.2823 32.04 11.1414 31.4273 10.71 31.3198C10.4925 31.2657 10.2951 31.1995 10.1171 31.1187C9.74579 30.95 9.49375 30.7299 9.32065 30.4287C9.13963 30.1137 9 29.6306 9 28.8689Z"/>
</mask>
<path d="M14.4528 22.8432L14.6514 22.3843L14.2542 23.3021L14.4528 22.8432ZM26.5801 27.5464L14.6514 22.3843L14.2542 23.3021L26.183 28.4641L26.5801 27.5464ZM26.5803 27.5462L14.6514 22.3843L14.2542 23.3021L26.1832 28.4639L26.5803 27.5462ZM14.4528 22.8432V21.8432H14.4036L14.3547 21.848L14.4528 22.8432ZM22.9239 22.8432L23.0219 21.848L22.973 21.8432H22.9239V22.8432ZM22.9711 21.8432L23.062 20.8473L23.0166 20.8432H22.9711V21.8432ZM14.4055 21.8432V20.8432H14.3599L14.3145 20.8473L14.4055 21.8432ZM10.1171 31.1187L10.5306 30.2082L10.5306 30.2082L10.1171 31.1187ZM9.32065 30.4287L10.1877 29.9305L10.1877 29.9305L9.32065 30.4287ZM10.5836 32.3166L10.3622 33.2918L10.5836 32.3166ZM26.5211 24.506L27.2146 23.7856L26.5211 24.506ZM26.3816 28.005L26.7787 27.0872L26.3816 28.005ZM26.4206 23.1255L27.0021 22.312L26.4206 23.1255ZM26.3815 28.0052L26.7786 27.0875L26.3815 28.0052ZM14.3547 21.848C10.7868 22.1999 8 25.2085 8 28.8689H10C10 26.247 11.9967 24.0903 14.551 23.8384L14.3547 21.848ZM26.7786 27.0875L14.85 21.9254L14.0557 23.761L25.9843 28.923L26.7786 27.0875ZM26.7787 27.0872L14.8499 21.9254L14.0557 23.761L25.9844 28.9227L26.7787 27.0872ZM14.4528 23.8432H22.9239V21.8432H14.4528V23.8432ZM22.8259 23.8384C23.9853 23.9525 25.0306 24.4591 25.8275 25.2264L27.2146 23.7856C26.1052 22.7175 24.6445 22.0078 23.0219 21.848L22.8259 23.8384ZM27.0021 22.312C25.872 21.5041 24.5231 20.9806 23.062 20.8473L22.8803 22.8391C23.9774 22.9391 24.9894 23.3316 25.839 23.939L27.0021 22.312ZM22.9711 20.8432H14.4055V22.8432H22.9711V20.8432ZM14.3145 20.8473C10.2124 21.2221 7 24.6691 7 28.8689H9C9 25.7128 11.4145 23.1206 14.4965 22.8391L14.3145 20.8473ZM7 28.8689C7 30.1169 7.28654 31.1435 7.92985 31.9208C8.57023 32.6947 9.4519 33.0851 10.3622 33.2918L10.805 31.3414C10.1378 31.1899 9.72771 30.9563 9.47066 30.6457C9.21654 30.3387 9 29.8205 9 28.8689H7ZM9.70364 32.0292C9.94727 32.1398 10.204 32.2244 10.4684 32.2902L10.9516 30.3495C10.781 30.307 10.6429 30.2592 10.5306 30.2082L9.70364 32.0292ZM8.4536 30.9269C8.74645 31.4366 9.17201 31.7877 9.70364 32.0292L10.5306 30.2082C10.3196 30.1123 10.241 30.0233 10.1877 29.9305L8.4536 30.9269ZM8 28.8689C8 29.7475 8.16054 30.4169 8.4536 30.9269L10.1877 29.9305C10.1187 29.8104 10 29.5138 10 28.8689H8ZM11.406 33.1274C12.0466 32.7507 12.1983 32.0604 12.0883 31.5412C11.9809 31.0341 11.5965 30.51 10.9516 30.3495L10.4684 32.2902C10.2549 32.2371 10.1566 32.0731 10.1317 31.9556C10.1176 31.8889 10.1151 31.7947 10.1552 31.6876C10.1987 31.5711 10.2833 31.4674 10.3922 31.4034L11.406 33.1274ZM10.3622 33.2918C10.7318 33.3757 11.1037 33.3052 11.406 33.1274L10.3922 31.4034C10.5042 31.3375 10.6507 31.3064 10.805 31.3414L10.3622 33.2918ZM25.8275 25.2264C26.3598 25.7388 27.2175 25.5428 27.5011 24.8929L25.668 24.0931C25.9296 23.4934 26.7218 23.3111 27.2146 23.7856L25.8275 25.2264ZM27.0685 28.7319C27.5904 28.2386 27.4378 27.3724 26.7787 27.0872L25.9844 28.9227C25.3255 28.6376 25.1729 27.7716 25.6947 27.2785L27.0685 28.7319ZM27.5014 24.8923C27.6484 24.5547 27.7584 24.1281 27.7321 23.686C27.7049 23.2284 27.5199 22.6821 27.0021 22.312L25.839 23.939C25.7979 23.9096 25.7658 23.8686 25.7475 23.8306C25.7318 23.7978 25.7344 23.7845 25.7356 23.8047C25.7368 23.8249 25.7355 23.8639 25.7238 23.9201C25.7123 23.9754 25.6931 24.0354 25.6677 24.0937L27.5014 24.8923ZM25.9843 28.923C26.3514 29.0818 26.7778 29.0067 27.0685 28.7319L25.6947 27.2785C25.9853 27.0038 26.4116 26.9286 26.7786 27.0875L25.9843 28.923Z" fill="#B4B4B4" mask="url(#path-5-inside-1_9642_102496)"/>
<path d="M34.3118 17.2558C34.0433 17.0372 33.7243 16.8512 33.3538 16.6914C32.9846 16.5332 32.5804 16.381 32.1425 16.235C31.915 16.1627 31.7145 16.091 31.5438 16.0286C31.3721 15.9636 31.2284 15.8952 31.1125 15.8245C30.9972 15.7509 30.9107 15.6723 30.8519 15.5868C30.7945 15.5039 30.7661 15.4025 30.7661 15.2876C30.7661 15.1723 30.7922 15.0726 30.8457 14.992C30.8998 14.9128 30.9728 14.848 31.0626 14.7972C31.1534 14.7476 31.2591 14.7123 31.3793 14.6872C31.4989 14.6651 31.6267 14.6552 31.7637 14.6552C31.8961 14.6552 32.0256 14.6737 32.1544 14.714C32.2822 14.7526 32.4047 14.8031 32.5196 14.8619C32.6352 14.922 32.7439 14.989 32.8446 15.064C32.9466 15.137 33.0391 15.21 33.1216 15.281L33.1778 15.3292C33.2346 15.3797 33.2878 15.4207 33.3353 15.4547C33.3832 15.4874 33.4357 15.5029 33.4932 15.5029C33.5628 15.5029 33.6338 15.4689 33.7042 15.3979L34.6536 14.387C34.7064 14.3302 34.7467 14.2774 34.7732 14.2328C34.8012 14.1862 34.8141 14.1387 34.8141 14.0832C34.8141 14.0307 34.786 13.9663 34.7306 13.8907C34.6741 13.8164 34.5991 13.7394 34.5034 13.6562C34.4089 13.5727 34.2983 13.4878 34.1731 13.3993C34.0463 13.3098 33.9132 13.2246 33.7722 13.142C33.5529 13.0218 33.3327 12.9234 33.1127 12.8475C32.8911 12.7708 32.6649 12.7124 32.4328 12.6691V11.8389C32.4328 11.756 32.3991 11.6913 32.3301 11.6408C32.2627 11.5916 32.1973 11.5671 32.1369 11.5671H30.9698C30.879 11.5671 30.8113 11.5939 30.7657 11.6467C30.7195 11.7012 30.6971 11.764 30.6971 11.8389V12.7022C30.3374 12.7708 30.0138 12.8805 29.7268 13.0261C29.4402 13.1737 29.1965 13.3517 28.9983 13.5628C28.7999 13.7734 28.6473 14.0148 28.5393 14.282C28.432 14.5518 28.3785 14.8451 28.3785 15.1631C28.3785 15.5257 28.4399 15.8556 28.5644 16.1518C28.6886 16.4474 28.8738 16.7168 29.1222 16.9635C29.3689 17.2092 29.6793 17.4321 30.0524 17.6322C30.4243 17.835 30.8576 18.0213 31.3536 18.1933C31.4652 18.232 31.5973 18.2782 31.7505 18.3327C31.9034 18.3888 32.0497 18.4562 32.191 18.5354C32.3304 18.6144 32.4499 18.7035 32.548 18.8052C32.6438 18.906 32.6927 19.0215 32.6927 19.1487C32.6927 19.2649 32.6755 19.3742 32.6402 19.4776C32.6058 19.581 32.547 19.6718 32.4635 19.751C32.3806 19.8277 32.2693 19.893 32.1263 19.9399C31.984 19.9858 31.8066 20.0106 31.596 20.0106C31.3681 20.0106 31.1515 19.9716 30.9447 19.893C30.7377 19.8134 30.5293 19.7051 30.3193 19.5648C30.1776 19.4697 30.0538 19.3742 29.9445 19.2765C29.8335 19.1801 29.7443 19.1011 29.6737 19.044C29.6162 18.9938 29.5667 18.9565 29.5244 18.933C29.4851 18.9063 29.4458 18.8934 29.4072 18.8934C29.3533 18.8934 29.2837 18.9241 29.1961 18.9875L28.1239 20.0109C28.0288 20.0981 27.9812 20.1764 27.9812 20.2457C27.9812 20.3085 28.0288 20.391 28.1239 20.4947C28.1285 20.4987 28.1328 20.5007 28.1358 20.5046C28.14 20.5046 28.1437 20.5112 28.1486 20.5185C28.1529 20.5231 28.1579 20.5268 28.1612 20.5287C28.1651 20.5307 28.1694 20.5373 28.1734 20.5429L28.1919 20.5634C28.2573 20.6321 28.3484 20.7262 28.4607 20.8408C28.576 20.958 28.7153 21.0756 28.8804 21.1958C29.1532 21.3943 29.4428 21.5663 29.7483 21.7097C30.0541 21.8543 30.3698 21.9616 30.6971 22.0326V22.9378C30.6971 23.1198 30.7872 23.2109 30.9698 23.2109H32.1369C32.3334 23.2109 32.4328 23.1201 32.4328 22.9378V22.0498C32.8297 21.9814 33.1946 21.8619 33.5268 21.6938C33.8597 21.5287 34.148 21.317 34.3927 21.0641C34.6361 20.8134 34.826 20.5251 34.9627 20.2015C35.0991 19.8745 35.1671 19.5205 35.1671 19.1315C35.1671 18.7019 35.0915 18.3356 34.9412 18.0341C34.7903 17.7323 34.58 17.4727 34.3118 17.2558Z" fill="#B4B4B4"/>
</svg>
