<svg width="42" height="42" viewBox="0 0 42 42" fill="none" xmlns="http://www.w3.org/2000/svg">
<path d="M29.7027 10.4434C30.5609 10.4434 31.2537 11.1411 31.2537 11.9997L31.2537 28.9563C31.2537 31.4416 29.239 33.4563 26.7537 33.4563H13.9329C13.0756 33.4563 12.3818 32.7604 12.3818 31.9018V31.5H13.3818V31.9018C13.3818 32.2102 13.63 32.4563 13.9329 32.4563H26.7537C28.6867 32.4563 30.2537 30.8893 30.2537 28.9563L30.2537 11.9997C30.2537 11.6895 30.0047 11.4434 29.7027 11.4434H29.3754V10.4434H29.7027Z" fill="#B4B4B4"/>
<path d="M28.8719 10.0564V14.5745L28.8719 16.6853V27C28.8719 29.2091 27.081 31 24.8719 31H20.8557H12.0511C11.471 31 11 30.529 11 29.9455V10.0564C11 9.47196 11.471 9 12.0511 9H27.8208C28.4009 9 28.8719 9.47196 28.8719 10.0564Z" stroke="#B4B4B4"/>
<path d="M13.7002 16V12.2402H15.3026C16.1416 12.2402 16.6835 12.7665 16.6835 13.5716V13.5769C16.6835 14.382 16.1416 14.8979 15.3026 14.8979H14.6564V16H13.7002ZM15.0733 12.9724H14.6564V14.1787H15.0733C15.4772 14.1787 15.7169 13.9677 15.7169 13.5769V13.5716C15.7169 13.1808 15.4772 12.9724 15.0733 12.9724Z" fill="#B4B4B4"/>
<path d="M17.981 16V13.0089H16.9441V12.2402H19.9717V13.0089H18.9347V16H17.981Z" fill="#B4B4B4"/>
<path d="M20.3755 16V12.2402H21.3317V13.8947H21.35L22.6162 12.2402H23.6402L22.3531 13.9025L23.7158 16H22.5928L21.6548 14.5174L21.3317 14.9369V16H20.3755Z" fill="#B4B4B4"/>
<path d="M24.8804 16V13.0089H23.8434V12.2402H26.871V13.0089H25.834V16H24.8804Z" fill="#B4B4B4"/>
<path opacity="0.6" fill-rule="evenodd" clip-rule="evenodd" d="M18.6758 18.4287L20.573 24.9933L22.8731 20.9723L24.4587 23.0421H26.0578V24.654H23.663L23.0682 23.8777L20.0816 29.0989L18.3319 23.0447L17.5738 24.6974H14.5967V23.0855H16.5398L18.6758 18.4287Z" fill="#B4B4B4"/>
</svg>
