<svg width="43" height="42" viewBox="0 0 43 42" fill="none" xmlns="http://www.w3.org/2000/svg">
<path d="M10.5 18.0495V13.3599H33.5V18.0495C31.9185 18.1022 30.648 19.4008 30.648 20.9999C30.648 22.5969 31.9165 23.9051 33.5 23.9582V28.6399H10.5V23.9582C12.084 23.905 13.352 22.5925 13.352 20.9999C13.352 19.4052 12.082 18.1024 10.5 18.0495Z" stroke="#B4B4B4"/>
<path d="M19.6939 22.1143L19.7271 21.8725L19.5569 21.6975L17.9293 20.0251C17.8765 19.9675 17.8591 19.8889 17.8818 19.815C17.9068 19.7415 17.9673 19.6883 18.0455 19.6727L20.3746 19.2533L20.6144 19.2101L20.7282 18.9947L21.8179 16.9313C21.8545 16.8651 21.925 16.8237 21.9998 16.8237C22.0801 16.8237 22.1501 16.8668 22.1859 16.9322C22.186 16.9324 22.1861 16.9327 22.1863 16.9329L23.3027 19.0196L23.4179 19.2349L23.6585 19.2764L25.9562 19.6731C26.0396 19.6898 26.0954 19.7438 26.1164 19.8108L26.1163 19.8108L26.1192 19.8193C26.1411 19.8851 26.1273 19.9637 26.0693 20.0261L24.4325 21.734L24.2642 21.9097L24.2985 22.1506L24.6285 24.4643L24.6287 24.4654C24.6393 24.5383 24.61 24.6097 24.5466 24.6553L24.5465 24.6552L24.5385 24.6612C24.5107 24.6821 24.4713 24.6962 24.426 24.6962C24.3943 24.6962 24.3637 24.6899 24.332 24.6746C24.3319 24.6746 24.3318 24.6745 24.3317 24.6745L22.1986 23.6436L21.9791 23.5375L21.7603 23.6451L19.6641 24.6763L19.664 24.6764C19.5964 24.7096 19.5176 24.7026 19.4564 24.6578L19.161 25.0612L19.4564 24.6578C19.3946 24.6126 19.3619 24.5379 19.3717 24.4596C19.3717 24.4592 19.3718 24.4588 19.3718 24.4584L19.6939 22.1143Z" stroke="#B4B4B4"/>
</svg>
