<svg width="42" height="42" viewBox="0 0 42 42" fill="none" xmlns="http://www.w3.org/2000/svg">
<path d="M30.9 11.1C28.26 8.46 24.74 7 21 7C17.26 7 13.74 8.46 11.1 11.1C8.46 13.74 7 17.26 7 21C7 24.74 8.46 28.26 11.1 30.9C13.74 33.54 17.26 35 21 35C24.74 35 28.26 33.54 30.9 30.9C33.54 28.26 35 24.74 35 21C35 17.26 33.54 13.74 30.9 11.1Z" stroke="#B4B4B4"/>
<path d="M13.59 28.91C16.49 31.49 19.71 31.73 21 31.73C27.15 31.73 32.16 26.73 32.16 20.57C32.16 14.41 27.15 9.41998 21 9.41998C19.72 9.41998 18.47 9.62998 17.28 10.06C17.02 10.15 16.84 10.4 16.84 10.68V13.72C16.84 13.95 16.96 14.16 17.15 14.28C17.34 14.4 17.59 14.41 17.79 14.3C18.79 13.79 19.87 13.53 20.99 13.53C24.88 13.53 28.04 16.69 28.04 20.58C28.04 24.47 24.88 27.63 20.99 27.63C19.33 27.63 17.75 27.06 16.49 26.01L17.68 24.82C17.85 24.65 17.91 24.4 17.84 24.17C17.77 23.94 17.58 23.77 17.35 23.72L10.62 22.32C10.4 22.28 10.18 22.34 10.02 22.5C9.95996 22.56 9.91996 22.62 9.88996 22.68C9.82996 22.8 9.82996 22.91 9.82996 22.99C9.82996 23.03 9.82996 23.06 9.83996 23.08L11.24 29.81C11.29 30.05 11.46 30.23 11.69 30.3C11.92 30.37 12.17 30.3 12.34 30.14L13.57 28.91H13.59Z" fill="#B4B4B4"/>
<g filter="url(#filter0_d_9642_102523)">
<path d="M15.56 11.85H14.99V11.42H14.08V11.85H13.3V12.58H14.08V13.33C14.02 13.28 13.98 13.22 13.92 13.18C13.62 12.96 13.25 12.85 12.8 12.85C12.35 12.85 11.98 12.96 11.66 13.18C11.34 13.39 11.09 13.69 10.92 14.06C10.75 14.43 10.66 14.85 10.66 15.33C10.66 15.81 10.75 16.22 10.92 16.6C11.09 16.97 11.34 17.27 11.65 17.49C11.97 17.71 12.35 17.82 12.78 17.82C13.21 17.82 13.61 17.71 13.91 17.49C14.01 17.42 14.09 17.32 14.18 17.23V17.69H14.99V12.59H15.56V11.86V11.85ZM14.05 16.19C13.96 16.44 13.83 16.63 13.64 16.78C13.45 16.92 13.21 16.99 12.91 16.99C12.61 16.99 12.38 16.92 12.19 16.77C12 16.62 11.86 16.42 11.76 16.17C11.67 15.92 11.62 15.64 11.62 15.33C11.62 15.02 11.67 14.74 11.76 14.5C11.86 14.25 12 14.05 12.19 13.9C12.38 13.75 12.63 13.68 12.93 13.68C13.21 13.68 13.45 13.75 13.63 13.89C13.82 14.03 13.95 14.22 14.04 14.47C14.13 14.72 14.17 15.01 14.17 15.33C14.17 15.65 14.13 15.94 14.04 16.19H14.05Z" fill="#B4B4B4"/>
<path d="M14.89 19.07H11.3V19.76H14.89V19.07Z" fill="#B4B4B4"/>
</g>
<defs>
<filter id="filter0_d_9642_102523" x="6.66003" y="8.41998" width="12.9" height="16.34" filterUnits="userSpaceOnUse" color-interpolation-filters="sRGB">
<feFlood flood-opacity="0" result="BackgroundImageFix"/>
<feColorMatrix in="SourceAlpha" type="matrix" values="0 0 0 0 0 0 0 0 0 0 0 0 0 0 0 0 0 0 127 0" result="hardAlpha"/>
<feOffset dy="1"/>
<feGaussianBlur stdDeviation="2"/>
<feComposite in2="hardAlpha" operator="out"/>
<feColorMatrix type="matrix" values="0 0 0 0 0 0 0 0 0 0 0 0 0 0 0 0 0 0 0.25 0"/>
<feBlend mode="normal" in2="BackgroundImageFix" result="effect1_dropShadow_9642_102523"/>
<feBlend mode="normal" in="SourceGraphic" in2="effect1_dropShadow_9642_102523" result="shape"/>
</filter>
</defs>
</svg>
