<svg width="42" height="42" viewBox="0 0 42 42" fill="none" xmlns="http://www.w3.org/2000/svg">
<path d="M33.3633 14.8517H32.85C32.0454 14.8517 31.3329 14.361 30.9373 13.6603C29.1895 10.5644 26.0706 8.37489 22.539 7.91576C18.6053 7.39135 14.7404 8.90541 12.2118 11.9532C11.7623 12.4951 11.369 13.0655 11.0329 13.6592C10.636 14.36 9.92316 14.8517 9.11773 14.8517H8.63672C7.18277 14.8517 6 16.0345 6 17.4885V21.0041C6 22.458 7.18277 23.6408 8.63672 23.6408H11.0332C11.6312 23.6408 12.0547 23.0564 11.8685 22.4881V22.4881C10.769 19.1304 11.3879 15.6997 13.5654 13.0759C15.7052 10.4966 18.9727 9.22035 22.3107 9.6581C25.8408 10.1179 28.9049 12.6145 30.119 16.0199L30.1264 16.0396C30.3221 16.5597 30.4594 17.0945 30.5384 17.6447C30.8019 19.2883 30.6517 20.9543 30.1049 22.4624L30.1011 22.4728C28.744 26.3259 25.0939 28.9142 21.0172 28.9142C19.5537 28.9142 18.3633 30.097 18.3633 31.551C18.3633 33.0049 19.5461 34.1877 21 34.1877C22.4539 34.1877 23.6367 33.0049 23.6367 31.551V31.551C23.6367 30.8561 24.1181 30.2621 24.7735 30.0312C27.3662 29.1174 29.5643 27.2753 30.928 24.8397C31.3225 24.135 32.0368 23.6407 32.8444 23.6407H33.3633C34.8172 23.6407 36 22.458 36 21.004V17.4884C36 16.0345 34.8172 14.8517 33.3633 14.8517Z" stroke="#B4B4B4"/>
<path d="M13.0898 25.3986V27.1564H21C25.3619 27.1564 28.9102 23.6082 28.9102 19.2463C28.9102 14.8844 25.3619 11.3361 21 11.3361C16.6381 11.3361 13.0898 14.8844 13.0898 19.2463C13.0898 21.0247 13.6872 22.743 14.779 24.1326C14.567 24.8733 13.8906 25.3986 13.0898 25.3986ZM23.6367 18.3674H25.3945V20.1252H23.6367V18.3674ZM20.1211 18.3674H21.8789V20.1252H20.1211V18.3674ZM16.6055 18.3674H18.3633V20.1252H16.6055V18.3674Z" fill="#B4B4B4"/>
</svg>
