<svg width="42" height="42" viewBox="0 0 42 42" fill="none" xmlns="http://www.w3.org/2000/svg">
<path d="M13.1266 33.0914H12.6891V33.5289V35.0164L7.25384 31.068L12.6891 27.1195V28.607V29.0445H13.1266H14.4574C16.0308 30.5558 18.1542 31.5055 20.5094 31.5055C23.1128 31.5055 25.4522 30.3439 27.0351 28.516C26.0714 31.1789 23.5097 33.0914 20.5094 33.0914H13.1266Z" stroke="#B4B4B4" stroke-width="0.875"/>
<path d="M28.6246 8.90859H29.0621V8.47109V6.98358L34.4974 10.932L29.0621 14.8805V13.393V12.9555H28.6246H27.2939C25.7205 11.4442 23.597 10.4945 21.2418 10.4945C18.6384 10.4945 16.299 11.6561 14.7161 13.484C15.6799 10.8211 18.2415 8.90859 21.2418 8.90859H28.6246Z" stroke="#B4B4B4" stroke-width="0.875"/>
<mask id="path-4-inside-1_9642_102329" fill="white">
<path fill-rule="evenodd" clip-rule="evenodd" d="M9.5 21C9.5 14.7279 14.6029 9.625 20.875 9.625C27.1471 9.625 32.25 14.7279 32.25 21C32.25 27.2721 27.1471 32.375 20.875 32.375C14.6029 32.375 9.5 27.2721 9.5 21ZM22.9503 22.237V22.2611H22.9389L22.9503 22.237ZM22.3133 21.0961C22.3133 21.5719 22.1726 21.9602 21.8912 22.2611L21.8792 22.2738L21.8693 22.2841C21.7272 22.4301 21.5628 22.5401 21.3759 22.6141C21.184 22.6901 20.9684 22.7281 20.7293 22.7281C20.2573 22.7281 19.8733 22.5841 19.5773 22.2961C19.2893 22.0001 19.1453 21.6001 19.1453 21.0961V20.9521C19.1453 20.4481 19.2893 20.0521 19.5773 19.7641C19.8733 19.4681 20.2573 19.3201 20.7293 19.3201C20.9705 19.3201 21.1877 19.3598 21.3809 19.4392C21.5657 19.5152 21.7285 19.6275 21.8693 19.7761L21.8802 19.7871C22.1689 20.0818 22.3133 20.4701 22.3133 20.9521V21.0961ZM22.3133 18.9121H22.0973C22.0772 18.871 22.0562 18.831 22.0343 18.7923C21.9549 18.6523 21.8633 18.5279 21.7593 18.4191C21.6629 18.3182 21.5559 18.2308 21.4383 18.1567L21.4373 18.1561C21.1859 17.9909 20.8539 17.8999 20.4413 17.883C20.3943 17.8811 20.3463 17.8801 20.2973 17.8801C20.0458 17.8801 19.8022 17.9133 19.5663 17.9796C19.4645 18.0083 19.3642 18.0431 19.2653 18.0841C18.9453 18.2201 18.6613 18.4201 18.4133 18.6841C18.1733 18.9401 17.9813 19.2561 17.8373 19.6321C17.7013 20.0081 17.6333 20.4361 17.6333 20.9161V21.1321C17.6333 21.6201 17.6973 22.0521 17.8253 22.4281C17.9613 22.8041 18.1453 23.1241 18.3773 23.3881C18.6173 23.6441 18.8933 23.8401 19.2053 23.9761C19.5253 24.1041 19.8693 24.1681 20.2373 24.1681C20.5253 24.1681 20.7693 24.1401 20.9693 24.0841C21.1497 24.0355 21.306 23.9719 21.4383 23.8932C21.4585 23.8812 21.4782 23.8688 21.4973 23.8561C21.6493 23.7601 21.7693 23.6521 21.8573 23.5321C21.9232 23.4442 21.9815 23.3545 22.0324 23.2629C22.0556 23.221 22.0772 23.1788 22.0973 23.1361H22.3133V24.0001H23.8253V17.5441H24.5453V16.1761H23.8253V15.6001H22.3133V16.1761H20.4413V17.5441H22.3133V18.9121ZM22.9368 19.7871H22.9503V19.8154L22.9368 19.7871ZM18.3753 26.0001V25.0001H23.3753V26.0001H18.3753Z"/>
</mask>
<path fill-rule="evenodd" clip-rule="evenodd" d="M9.5 21C9.5 14.7279 14.6029 9.625 20.875 9.625C27.1471 9.625 32.25 14.7279 32.25 21C32.25 27.2721 27.1471 32.375 20.875 32.375C14.6029 32.375 9.5 27.2721 9.5 21ZM22.9503 22.237V22.2611H22.9389L22.9503 22.237ZM22.3133 21.0961C22.3133 21.5719 22.1726 21.9602 21.8912 22.2611L21.8792 22.2738L21.8693 22.2841C21.7272 22.4301 21.5628 22.5401 21.3759 22.6141C21.184 22.6901 20.9684 22.7281 20.7293 22.7281C20.2573 22.7281 19.8733 22.5841 19.5773 22.2961C19.2893 22.0001 19.1453 21.6001 19.1453 21.0961V20.9521C19.1453 20.4481 19.2893 20.0521 19.5773 19.7641C19.8733 19.4681 20.2573 19.3201 20.7293 19.3201C20.9705 19.3201 21.1877 19.3598 21.3809 19.4392C21.5657 19.5152 21.7285 19.6275 21.8693 19.7761L21.8802 19.7871C22.1689 20.0818 22.3133 20.4701 22.3133 20.9521V21.0961ZM22.3133 18.9121H22.0973C22.0772 18.871 22.0562 18.831 22.0343 18.7923C21.9549 18.6523 21.8633 18.5279 21.7593 18.4191C21.6629 18.3182 21.5559 18.2308 21.4383 18.1567L21.4373 18.1561C21.1859 17.9909 20.8539 17.8999 20.4413 17.883C20.3943 17.8811 20.3463 17.8801 20.2973 17.8801C20.0458 17.8801 19.8022 17.9133 19.5663 17.9796C19.4645 18.0083 19.3642 18.0431 19.2653 18.0841C18.9453 18.2201 18.6613 18.4201 18.4133 18.6841C18.1733 18.9401 17.9813 19.2561 17.8373 19.6321C17.7013 20.0081 17.6333 20.4361 17.6333 20.9161V21.1321C17.6333 21.6201 17.6973 22.0521 17.8253 22.4281C17.9613 22.8041 18.1453 23.1241 18.3773 23.3881C18.6173 23.6441 18.8933 23.8401 19.2053 23.9761C19.5253 24.1041 19.8693 24.1681 20.2373 24.1681C20.5253 24.1681 20.7693 24.1401 20.9693 24.0841C21.1497 24.0355 21.306 23.9719 21.4383 23.8932C21.4585 23.8812 21.4782 23.8688 21.4973 23.8561C21.6493 23.7601 21.7693 23.6521 21.8573 23.5321C21.9232 23.4442 21.9815 23.3545 22.0324 23.2629C22.0556 23.221 22.0772 23.1788 22.0973 23.1361H22.3133V24.0001H23.8253V17.5441H24.5453V16.1761H23.8253V15.6001H22.3133V16.1761H20.4413V17.5441H22.3133V18.9121ZM22.9368 19.7871H22.9503V19.8154L22.9368 19.7871ZM18.3753 26.0001V25.0001H23.3753V26.0001H18.3753Z" fill="#B4B4B4"/>
<path d="M22.9503 22.2611V23.1361H23.8253V22.2611H22.9503ZM22.9503 22.237H23.8253L22.1586 21.8643L22.9503 22.237ZM22.9389 22.2611L22.1473 21.8885L21.56 23.1361H22.9389V22.2611ZM21.8912 22.2611L22.527 22.8623L22.5303 22.8587L21.8912 22.2611ZM21.8792 22.2738L22.5089 22.8814L22.515 22.875L21.8792 22.2738ZM21.8693 22.2841L22.4964 22.8943L22.499 22.8917L21.8693 22.2841ZM21.3759 22.6141L21.0538 21.8006L21.0538 21.8006L21.3759 22.6141ZM19.5773 22.2961L18.9502 22.9063L18.9585 22.9149L18.9671 22.9232L19.5773 22.2961ZM21.3809 19.4392L21.0482 20.2485L21.0482 20.2485L21.3809 19.4392ZM21.8693 19.7761L21.2341 20.3779L21.2407 20.3848L21.2474 20.3916L21.8693 19.7761ZM21.8802 19.7871L22.5052 19.1747L22.5021 19.1716L21.8802 19.7871ZM22.0973 18.9121L21.3109 19.2957L21.5506 19.7871H22.0973V18.9121ZM22.3133 18.9121V19.7871H23.1883V18.9121H22.3133ZM22.0343 18.7923L21.273 19.2236L21.273 19.2236L22.0343 18.7923ZM21.7593 18.4191L22.3919 17.8145L22.3919 17.8145L21.7593 18.4191ZM21.4383 18.1567L21.9045 17.4162L21.904 17.4159L21.4383 18.1567ZM21.4373 18.1561L20.9568 18.8873L20.9642 18.8922L20.9716 18.8969L21.4373 18.1561ZM20.4413 17.883L20.4771 17.0087L20.4771 17.0087L20.4413 17.883ZM19.5663 17.9796L19.8033 18.8219L19.8033 18.8219L19.5663 17.9796ZM19.2653 18.0841L18.9301 17.2758L18.9231 17.2788L19.2653 18.0841ZM18.4133 18.6841L17.7756 18.085L17.775 18.0856L18.4133 18.6841ZM17.8373 19.6321L17.0202 19.3192L17.0173 19.3268L17.0145 19.3345L17.8373 19.6321ZM17.8253 22.4281L16.997 22.7101L16.9997 22.7179L17.0025 22.7257L17.8253 22.4281ZM18.3773 23.3881L17.72 23.9657L17.7293 23.9763L17.739 23.9865L18.3773 23.3881ZM19.2053 23.9761L18.8557 24.7782L18.8679 24.7835L18.8803 24.7885L19.2053 23.9761ZM20.9693 24.0841L20.7418 23.2391L20.7334 23.2415L20.9693 24.0841ZM21.4383 23.8932L21.8856 24.6453L21.8856 24.6453L21.4383 23.8932ZM21.4973 23.8561L21.0301 23.1163L21.0209 23.1221L21.0119 23.1281L21.4973 23.8561ZM21.8573 23.5321L21.1573 23.0071L21.1517 23.0147L21.8573 23.5321ZM22.0324 23.2629L21.2672 22.8385L21.2672 22.8385L22.0324 23.2629ZM22.0973 23.1361V22.2611H21.542L21.3056 22.7635L22.0973 23.1361ZM22.3133 23.1361H23.1883V22.2611H22.3133V23.1361ZM22.3133 24.0001H21.4383V24.8751H22.3133V24.0001ZM23.8253 24.0001V24.8751H24.7003V24.0001H23.8253ZM23.8253 17.5441V16.6691H22.9503V17.5441H23.8253ZM24.5453 17.5441V18.4191H25.4203V17.5441H24.5453ZM24.5453 16.1761H25.4203V15.3011H24.5453V16.1761ZM23.8253 16.1761H22.9503V17.0511H23.8253V16.1761ZM23.8253 15.6001H24.7003V14.7251H23.8253V15.6001ZM22.3133 15.6001V14.7251H21.4383V15.6001H22.3133ZM22.3133 16.1761V17.0511H23.1883V16.1761H22.3133ZM20.4413 16.1761V15.3011H19.5663V16.1761H20.4413ZM20.4413 17.5441H19.5663V18.4191H20.4413V17.5441ZM22.3133 17.5441H23.1883V16.6691H22.3133V17.5441ZM22.9503 19.7871H23.8253V18.9121H22.9503V19.7871ZM22.9368 19.7871V18.9121H21.5517L22.1467 20.163L22.9368 19.7871ZM22.9503 19.8154L22.1601 20.1913L23.8253 19.8154H22.9503ZM18.3753 25.0001V24.1251H17.5003V25.0001H18.3753ZM18.3753 26.0001H17.5003V26.8751H18.3753V26.0001ZM23.3753 25.0001H24.2503V24.1251H23.3753V25.0001ZM23.3753 26.0001V26.8751H24.2503V26.0001H23.3753ZM20.875 8.75C14.1197 8.75 8.625 14.2447 8.625 21H10.375C10.375 15.2112 15.0862 10.5 20.875 10.5V8.75ZM33.125 21C33.125 14.2447 27.6303 8.75 20.875 8.75V10.5C26.6638 10.5 31.375 15.2112 31.375 21H33.125ZM20.875 33.25C27.6303 33.25 33.125 27.7553 33.125 21H31.375C31.375 26.7888 26.6638 31.5 20.875 31.5V33.25ZM8.625 21C8.625 27.7553 14.1197 33.25 20.875 33.25V31.5C15.0862 31.5 10.375 26.7888 10.375 21H8.625ZM23.8253 22.2611V22.237H22.0753V22.2611H23.8253ZM22.9389 23.1361H22.9503V21.3861H22.9389V23.1361ZM22.1586 21.8643L22.1473 21.8885L23.7306 22.6337L23.742 22.6096L22.1586 21.8643ZM22.5303 22.8587C22.9867 22.3707 23.1883 21.7569 23.1883 21.0961H21.4383C21.4383 21.3868 21.3585 21.5497 21.2522 21.6634L22.5303 22.8587ZM22.515 22.875L22.527 22.8623L21.2555 21.6599L21.2435 21.6726L22.515 22.875ZM22.499 22.8917L22.5089 22.8814L21.2495 21.6663L21.2396 21.6765L22.499 22.8917ZM21.698 23.4277C22.0014 23.3075 22.2694 23.1276 22.4964 22.8943L21.2422 21.6739C21.185 21.7326 21.1241 21.7727 21.0538 21.8006L21.698 23.4277ZM20.7293 23.6031C21.0615 23.6031 21.3887 23.5502 21.698 23.4277L21.0538 21.8006C20.9793 21.83 20.8754 21.8531 20.7293 21.8531V23.6031ZM18.9671 22.9232C19.4501 23.3932 20.0646 23.6031 20.7293 23.6031V21.8531C20.45 21.8531 20.2965 21.775 20.1875 21.669L18.9671 22.9232ZM18.2703 21.0961C18.2703 21.7748 18.4696 22.4124 18.9502 22.9063L20.2044 21.6859C20.109 21.5878 20.0203 21.4254 20.0203 21.0961H18.2703ZM18.2703 20.9521V21.0961H20.0203V20.9521H18.2703ZM18.9586 19.1454C18.4694 19.6346 18.2703 20.2744 18.2703 20.9521H20.0203C20.0203 20.6218 20.1092 20.4696 20.196 20.3828L18.9586 19.1454ZM20.7293 18.4451C20.0575 18.4451 19.4402 18.6638 18.9586 19.1454L20.196 20.3828C20.3064 20.2724 20.4571 20.1951 20.7293 20.1951V18.4451ZM21.7135 18.6299C21.3998 18.5009 21.0671 18.4451 20.7293 18.4451V20.1951C20.8739 20.1951 20.9757 20.2187 21.0482 20.2485L21.7135 18.6299ZM22.5045 19.1743C22.2808 18.9382 22.0156 18.7541 21.7135 18.6299L21.0482 20.2485C21.1158 20.2763 21.1762 20.3167 21.2341 20.3779L22.5045 19.1743ZM22.5021 19.1716L22.4912 19.1606L21.2474 20.3916L21.2583 20.4026L22.5021 19.1716ZM23.1883 20.9521C23.1883 20.2826 22.981 19.6603 22.5052 19.1747L21.2552 20.3995C21.3568 20.5032 21.4383 20.6576 21.4383 20.9521H23.1883ZM23.1883 21.0961V20.9521H21.4383V21.0961H23.1883ZM22.0973 19.7871H22.3133V18.0371H22.0973V19.7871ZM21.273 19.2236C21.2858 19.2463 21.2985 19.2703 21.3109 19.2957L22.8837 18.5285C22.856 18.4716 22.8266 18.4157 22.7955 18.3609L21.273 19.2236ZM21.1268 19.0237C21.1775 19.0768 21.2268 19.1421 21.273 19.2236L22.7955 18.3609C22.6831 18.1624 22.5491 17.979 22.3919 17.8145L21.1268 19.0237ZM20.9721 18.8972C21.0286 18.9328 21.0798 18.9745 21.1268 19.0237L22.3919 17.8145C22.246 17.6619 22.0832 17.5287 21.9045 17.4162L20.9721 18.8972ZM20.9716 18.8969L20.9727 18.8975L21.904 17.4159L21.9029 17.4153L20.9716 18.8969ZM20.4055 18.7572C20.7164 18.77 20.8785 18.8359 20.9568 18.8873L21.9178 17.4249C21.4934 17.1459 20.9914 17.0298 20.4771 17.0087L20.4055 18.7572ZM20.2973 18.7551C20.3349 18.7551 20.371 18.7558 20.4055 18.7572L20.4771 17.0087C20.4177 17.0063 20.3578 17.0051 20.2973 17.0051V18.7551ZM19.8033 18.8219C19.96 18.7778 20.1238 18.7551 20.2973 18.7551V17.0051C19.9678 17.0051 19.6443 17.0487 19.3293 17.1373L19.8033 18.8219ZM19.6004 18.8924C19.6677 18.8645 19.7353 18.8411 19.8033 18.8219L19.3293 17.1373C19.1938 17.1755 19.0607 17.2217 18.9302 17.2758L19.6004 18.8924ZM19.051 19.2832C19.2195 19.1039 19.404 18.9759 19.6075 18.8894L18.9231 17.2788C18.4866 17.4643 18.1031 17.7363 17.7756 18.085L19.051 19.2832ZM18.6544 19.945C18.7638 19.6594 18.8997 19.4446 19.0516 19.2825L17.775 18.0856C17.4469 18.4356 17.1988 18.8528 17.0202 19.3192L18.6544 19.945ZM18.5083 20.9161C18.5083 20.5178 18.5648 20.1933 18.6601 19.9297L17.0145 19.3345C16.8378 19.8229 16.7583 20.3544 16.7583 20.9161H18.5083ZM18.5083 21.1321V20.9161H16.7583V21.1321H18.5083ZM18.6536 22.1461C18.5627 21.8789 18.5083 21.5453 18.5083 21.1321H16.7583C16.7583 21.6949 16.8319 22.2252 16.997 22.7101L18.6536 22.1461ZM19.0346 22.8105C18.884 22.6392 18.752 22.4177 18.6481 22.1305L17.0025 22.7257C17.1706 23.1905 17.4066 23.609 17.72 23.9657L19.0346 22.8105ZM19.5549 23.174C19.3554 23.087 19.1768 22.9616 19.0156 22.7896L17.739 23.9865C18.0578 24.3266 18.4312 24.5932 18.8557 24.7782L19.5549 23.174ZM20.2373 23.2931C19.973 23.2931 19.7401 23.2476 19.5303 23.1637L18.8803 24.7885C19.3105 24.9606 19.7656 25.0431 20.2373 25.0431V23.2931ZM20.7334 23.2415C20.6334 23.2695 20.4739 23.2931 20.2373 23.2931V25.0431C20.5767 25.0431 20.9052 25.0107 21.2052 24.9267L20.7334 23.2415ZM20.991 23.1412C20.9403 23.1714 20.8609 23.2071 20.7418 23.2392L21.1968 24.929C21.4385 24.8639 21.6718 24.7724 21.8856 24.6453L20.991 23.1412ZM21.0119 23.1281C21.0056 23.1323 20.9987 23.1367 20.991 23.1412L21.8856 24.6453C21.9184 24.6258 21.9508 24.6054 21.9827 24.5841L21.0119 23.1281ZM21.1517 23.0147C21.1405 23.03 21.1082 23.067 21.0301 23.1163L21.9645 24.5959C22.1904 24.4532 22.3981 24.2742 22.5629 24.0495L21.1517 23.0147ZM21.2672 22.8385C21.2367 22.8935 21.2003 22.9497 21.1573 23.0071L22.5573 24.0571C22.646 23.9388 22.7264 23.8155 22.7975 23.6873L21.2672 22.8385ZM21.3056 22.7635C21.2939 22.7884 21.2811 22.8133 21.2672 22.8385L22.7975 23.6873C22.83 23.6287 22.8606 23.5692 22.889 23.5087L21.3056 22.7635ZM22.3133 22.2611H22.0973V24.0111H22.3133V22.2611ZM23.1883 24.0001V23.1361H21.4383V24.0001H23.1883ZM23.8253 23.1251H22.3133V24.8751H23.8253V23.1251ZM22.9503 17.5441V24.0001H24.7003V17.5441H22.9503ZM24.5453 16.6691H23.8253V18.4191H24.5453V16.6691ZM23.6703 16.1761V17.5441H25.4203V16.1761H23.6703ZM23.8253 17.0511H24.5453V15.3011H23.8253V17.0511ZM22.9503 15.6001V16.1761H24.7003V15.6001H22.9503ZM22.3133 16.4751H23.8253V14.7251H22.3133V16.4751ZM23.1883 16.1761V15.6001H21.4383V16.1761H23.1883ZM20.4413 17.0511H22.3133V15.3011H20.4413V17.0511ZM21.3163 17.5441V16.1761H19.5663V17.5441H21.3163ZM22.3133 16.6691H20.4413V18.4191H22.3133V16.6691ZM23.1883 18.9121V17.5441H21.4383V18.9121H23.1883ZM22.9503 18.9121H22.9368V20.6621H22.9503V18.9121ZM23.8253 19.8154V19.7871H22.0753V19.8154H23.8253ZM22.1467 20.163L22.1601 20.1913L23.7405 19.4396L23.727 19.4112L22.1467 20.163ZM17.5003 25.0001V26.0001H19.2503V25.0001H17.5003ZM23.3753 24.1251H18.3753V25.8751H23.3753V24.1251ZM24.2503 26.0001V25.0001H22.5003V26.0001H24.2503ZM18.3753 26.8751H23.3753V25.1251H18.3753V26.8751Z" fill="#B4B4B4" mask="url(#path-4-inside-1_9642_102329)"/>
</svg>
