<svg width="42" height="42" viewBox="0 0 42 42" fill="none" xmlns="http://www.w3.org/2000/svg">
<g filter="url(#filter0_b_11276_19785)">
<path d="M29.7032 10.4434C30.5613 10.4434 31.2542 11.1411 31.2542 11.9997L31.2542 28.9563C31.2542 31.4416 29.2395 33.4563 26.7542 33.4563H13.9334C13.0761 33.4563 12.3823 32.7604 12.3823 31.9018V31.5H13.3823V31.9018C13.3823 32.2102 13.6305 32.4563 13.9334 32.4563H26.7542C28.6872 32.4563 30.2542 30.8893 30.2542 28.9563L30.2542 11.9997C30.2542 11.6895 30.0052 11.4434 29.7032 11.4434H29.3759V10.4434H29.7032Z" fill="#B4B4B4"/>
<path d="M28.8719 10.0564V14.5745L28.8719 16.6853V27C28.8719 29.2091 27.081 31 24.8719 31H20.8557H12.0511C11.471 31 11 30.529 11 29.9455V10.0564C11 9.47196 11.471 9 12.0511 9H27.8208C28.4009 9 28.8719 9.47196 28.8719 10.0564Z" stroke="#B4B4B4"/>
<path d="M12.6001 16V12.2402H14.1269C15.2603 12.2402 15.9299 12.8968 15.9299 14.0928V14.098C15.9299 15.2991 15.2603 16 14.1269 16H12.6001ZM13.5563 15.2288H14.0019C14.6246 15.2288 14.9581 14.851 14.9581 14.1006V14.0954C14.9581 13.3919 14.6037 13.0115 14.0019 13.0115H13.5563V15.2288Z" fill="#B4B4B4"/>
<path d="M16.3937 16V12.2402H17.4985L18.4416 14.6972H18.4573L19.4005 12.2402H20.5052V16H19.6636V13.6498H19.6428L18.723 16H18.1759L17.2561 13.6498H17.2353V16H16.3937Z" fill="#B4B4B4"/>
<path d="M21.1696 16V14.4054H20.883V13.8348H21.1696V12.2402H22.6938C23.8272 12.2402 24.4968 12.8968 24.4968 14.0928V14.098C24.4968 15.2991 23.8272 16 22.6938 16H21.1696ZM22.1232 15.2288H22.5688C23.1915 15.2288 23.525 14.851 23.525 14.1006V14.0954C23.525 13.3919 23.1706 13.0115 22.5688 13.0115H22.1232V13.8348H22.6339V14.4054H22.1232V15.2288Z" fill="#B4B4B4"/>
<path d="M25.6407 16V13.0089H24.6037V12.2402H27.6313V13.0089H26.5943V16H25.6407Z" fill="#B4B4B4"/>
<g opacity="0.6">
<path d="M26.067 24.4331H21.9634C21.7841 24.4331 21.6379 24.5799 21.6379 24.7599C21.6379 24.8516 21.6767 24.9342 21.7373 24.9938L24.6268 27.8951C24.6861 27.9593 24.7719 27.9995 24.8656 27.9995C24.9786 27.9995 25.0779 27.9421 25.1362 27.855C25.8466 27.027 26.3034 25.9754 26.3857 24.8184C26.3903 24.7989 26.3925 24.7794 26.3925 24.7599C26.3926 24.5799 26.2475 24.4331 26.067 24.4331Z" fill="#B4B4B4"/>
<path d="M20.7243 18.5103C20.5449 18.5114 20.3999 18.657 20.3999 18.8371V23.416C20.3999 23.5972 20.5449 23.744 20.7243 23.744H25.2859C25.4652 23.744 25.6114 23.5972 25.6114 23.416C25.4503 20.7808 23.35 18.672 20.7243 18.5103Z" fill="#B4B4B4"/>
<path d="M23.2312 27.6273L19.8665 24.249C19.8094 24.1905 19.7752 24.1091 19.7752 24.0208L19.774 19.2492C19.774 19.0692 19.629 18.9235 19.4496 18.9235C16.7166 19.091 14.5522 21.3706 14.5522 24.1561C14.5522 27.0516 16.8902 29.4002 19.774 29.4002C21.0897 29.4002 22.2912 28.9117 23.2095 28.1055C23.2803 28.0458 23.3249 27.9564 23.3249 27.8566C23.3249 27.7683 23.2894 27.6869 23.2312 27.6273Z" fill="#B4B4B4"/>
</g>
</g>
<defs>
<filter id="filter0_b_11276_19785" x="-14" y="-14" width="70" height="70" filterUnits="userSpaceOnUse" color-interpolation-filters="sRGB">
<feFlood flood-opacity="0" result="BackgroundImageFix"/>
<feGaussianBlur in="BackgroundImageFix" stdDeviation="7"/>
<feComposite in2="SourceAlpha" operator="in" result="effect1_backgroundBlur_11276_19785"/>
<feBlend mode="normal" in="SourceGraphic" in2="effect1_backgroundBlur_11276_19785" result="shape"/>
</filter>
</defs>
</svg>
