<svg width="42" height="42" viewBox="0 0 42 42" fill="none" xmlns="http://www.w3.org/2000/svg">
<path d="M20.9945 20.5018V21.0018H21.4945H32.4137C32.6017 21.0018 32.7536 21.1536 32.7536 21.3419C32.7536 28.0174 27.323 33.4991 20.6546 33.4991C13.9833 33.4991 8.49951 28.0145 8.49951 21.3419C8.49951 14.6722 13.9804 9.24078 20.6546 9.24078C20.8426 9.24078 20.9945 9.39259 20.9945 9.58086V20.5018Z" stroke="#B4B4B4"/>
<path d="M21.4827 5.5C20.9392 5.5 20.4995 5.9398 20.4995 6.48331V20.3152C20.4995 20.8587 20.9392 21.2985 21.4827 21.2985H35.3122C35.8557 21.2985 36.2954 20.8587 36.2954 20.3152C36.2954 12.1818 29.6147 5.5 21.4827 5.5Z" fill="#B4B4B4"/>
</svg>
