<svg width="42" height="42" viewBox="0 0 42 42" fill="none" xmlns="http://www.w3.org/2000/svg">
<path d="M11.4948 30.2091C11.6658 30.2099 11.8143 30.091 11.8518 29.9241C11.8758 29.8169 11.901 29.7145 11.9373 29.6163C12.1653 28.9994 12.7665 28.5745 13.4396 28.573C15.9056 28.5674 18.3716 28.5659 20.8372 28.5741C21.6322 28.5768 22.2705 29.1333 22.4193 29.9118C22.4193 29.9125 22.4197 29.9136 22.4197 29.9144C22.4527 30.0861 22.6027 30.2103 22.7778 30.2099C22.9743 30.2095 23.1708 30.2091 23.3673 30.2106C23.7671 30.2133 24.0915 30.5354 24.0945 30.9348C24.0967 31.2509 24.0956 31.567 24.0948 31.8831C24.0937 32.4123 23.8586 32.65 23.3328 32.6504C19.6466 32.6511 15.9607 32.6508 12.2745 32.6508C11.8136 32.6508 11.3531 32.653 10.8922 32.6496C10.4321 32.6463 10.1853 32.3969 10.1816 31.9338C10.1786 31.5839 10.1767 31.234 10.1823 30.8841C10.1887 30.4731 10.446 30.2178 10.8577 30.211C11.0688 30.2076 11.28 30.2084 11.4948 30.2091Z" stroke="#B4B4B4"/>
<path d="M23.3673 30.2106C23.1708 30.2091 22.9743 30.2095 22.7778 30.2099L11.4948 30.2091L11.4929 30.2091C11.2787 30.2084 11.0682 30.2076 10.8577 30.211C10.446 30.2178 10.1887 30.4731 10.1823 30.8841C10.1767 31.234 10.1786 31.5839 10.1816 31.9338C10.1853 32.3969 10.4321 32.6463 10.8922 32.6496C11.3531 32.653 11.8136 32.6508 12.2745 32.6508C15.9607 32.6508 19.6466 32.6511 23.3328 32.6504C23.8586 32.65 24.0937 32.4123 24.0948 31.8831C24.0956 31.567 24.0967 31.2509 24.0945 30.9348C24.0915 30.5354 23.7671 30.2133 23.3673 30.2106Z" stroke="#B4B4B4"/>
<path d="M20.3201 9.79515C20.2813 9.40732 20.4205 9.00514 20.7375 8.72197C21.2435 8.26958 22.0246 8.32149 22.5049 8.80173L27.6302 13.9271C28.1104 14.4069 28.1623 15.1885 27.7099 15.6944C27.4268 16.0114 27.0246 16.1502 26.6368 16.1118M20.3201 9.79515C20.3361 9.94918 20.2644 10.1205 20.1159 10.1661M20.3201 9.79515L26.6368 16.1118M20.1159 10.1661C18.6624 10.6117 13.749 15.4526 13.3396 16.9423M20.1159 10.1661C20.262 10.1213 20.5356 10.0106 20.6437 10.1187L26.6368 16.1118M13.3396 16.9423C13.2979 17.0917 13.1225 17.1626 12.9687 17.1466C12.5808 17.1082 12.1787 17.247 11.8955 17.564C11.4431 18.07 11.495 18.8515 11.9753 19.3313L17.1002 24.4571C17.5804 24.9373 18.3616 24.9892 18.8675 24.5369C19.1845 24.2537 19.3237 23.8515 19.2849 23.4637M13.3396 16.9423L19.1703 22.7739C19.3264 22.93 19.262 23.2441 19.2849 23.4637M13.3396 16.9423C13.2988 17.0901 13.1848 17.3627 13.2931 17.4711L19.2849 23.4637" stroke="#B4B4B4"/>
<path d="M20.3195 9.79481C20.2806 9.40698 20.4199 9.0048 20.7368 8.72163C21.2428 8.26924 22.024 8.32114 22.5042 8.80139L27.6296 13.9267C28.1098 14.4066 28.1617 15.1881 27.7093 15.6941C27.4261 16.011 27.024 16.1499 26.6361 16.1115M20.3195 9.79481C20.3355 9.94884 20.2638 10.1202 20.1152 10.1658M20.3195 9.79481L26.6361 16.1115M20.1152 10.1658C18.6618 10.6114 13.7483 15.4523 13.339 16.942M20.1152 10.1658L26.2652 16.3157M20.1152 10.1658C20.2613 10.1209 20.535 10.0103 20.643 10.1184L26.6361 16.1115M13.339 16.942L19.1697 22.7735M13.339 16.942C13.2982 17.0897 13.1841 17.3623 13.2925 17.4707M26.6361 16.1115C26.4821 16.0954 26.3331 16.176 26.2652 16.3157M26.2652 16.3157C25.9464 16.9776 25.3039 17.8167 24.6194 18.6101C24.4362 18.8224 24.463 19.1453 24.6823 19.32C26.5174 20.782 28.3783 22.2549 30.1832 23.6828L31.7011 24.8843C31.8569 25.0075 32.0126 25.1311 32.1679 25.2548L32.188 25.2708C32.5599 25.5663 32.9441 25.8716 33.3267 26.1676C33.9289 26.6331 34.2653 27.2716 34.3265 28.0645C34.3459 28.8073 34.0619 29.5281 33.5466 30.0434C33.2909 30.2991 32.9929 30.4928 32.6604 30.619C31.6311 31.0102 30.5014 30.7287 29.7831 29.9024C28.6162 28.5608 27.4485 27.2201 26.2804 25.8798L25.8948 25.4372C24.6787 24.0414 23.4626 22.6455 22.2485 21.2482C22.2073 21.2014 22.1356 21.1985 22.0899 21.2409C21.3054 21.9679 20.4643 22.6229 19.4885 23.0924" stroke="#B4B4B4"/>
<path d="M19.032 20.7082L16.2503 17.9266L17.4358 16.7411C18.0566 16.1203 18.8469 16.1088 19.4426 16.7044L19.4464 16.7083C20.0421 17.3039 20.0228 18.0866 19.4021 18.7073L18.924 19.1854L19.7394 20.0008L19.032 20.7082ZM17.8079 17.4524L17.4995 17.7608L18.392 18.6533L18.7004 18.3449C18.9992 18.0461 19.0204 17.7126 18.7313 17.4235L18.7274 17.4196C18.4382 17.1304 18.1067 17.1536 17.8079 17.4524Z" fill="#B4B4B4"/>
<path d="M22.6753 17.1651C21.9833 17.8572 21.2392 17.9883 20.6763 17.4871L20.6397 17.4543L21.297 16.797L21.3221 16.8143C21.5361 16.9589 21.8618 16.8683 22.1336 16.5965C22.4151 16.315 22.4691 16.022 22.2956 15.8485L22.2936 15.8466C22.1356 15.6885 21.9389 15.7387 21.5495 16.0008L21.2103 16.2321C20.5568 16.6813 19.9939 16.7006 19.5679 16.2746L19.566 16.2726C19.0301 15.7367 19.1496 14.9271 19.7876 14.289C20.4855 13.5912 21.2083 13.5237 21.7385 14.0037L21.7809 14.0423L21.1235 14.6996L21.1004 14.6803C20.8961 14.5184 20.6031 14.584 20.3486 14.8384C20.0884 15.0987 20.0594 15.3628 20.2194 15.5227L20.2214 15.5247C20.3717 15.675 20.5818 15.623 20.9365 15.3801L21.2758 15.1488C21.9794 14.6726 22.4922 14.6379 22.9375 15.0832L22.9394 15.0852C23.4946 15.6403 23.4117 16.4288 22.6753 17.1651Z" fill="#B4B4B4"/>
</svg>
