<svg width="42" height="42" viewBox="0 0 42 42" fill="none" xmlns="http://www.w3.org/2000/svg">
<path d="M11.61 17.4401H30.39V28.0101C30.39 28.7939 29.7538 29.4301 28.97 29.4301H13.03C12.2461 29.4301 11.61 28.7939 11.61 28.0101V17.4401Z" stroke="#B4B4B4"/>
<path fill-rule="evenodd" clip-rule="evenodd" d="M29.86 12.0701H12.14C11.57 12.0701 11.11 12.5701 11.11 13.1901V16.1301H30.89V13.1901C30.89 12.5701 30.43 12.0701 29.86 12.0701ZM13.22 14.9101C12.78 14.9101 12.41 14.5501 12.41 14.1001C12.41 13.6501 12.77 13.2901 13.22 13.2901C13.67 13.2901 14.03 13.6501 14.03 14.1001C14.03 14.5501 13.67 14.9101 13.22 14.9101ZM28.78 14.9101C28.34 14.9101 27.97 14.5501 27.97 14.1001C27.97 13.6501 28.33 13.2901 28.78 13.2901C29.23 13.2901 29.59 13.6501 29.59 14.1001C29.59 14.5501 29.23 14.9101 28.78 14.9101Z" fill="#B4B4B4"/>
<path d="M21 20.6801V25.6001" stroke="#B4B4B4" stroke-width="1.4" stroke-linecap="round" stroke-linejoin="round"/>
<path d="M23.46 23.1401H18.54" stroke="#B4B4B4" stroke-width="1.4" stroke-linecap="round" stroke-linejoin="round"/>
</svg>
