<svg width="42" height="42" viewBox="0 0 42 42" fill="none" xmlns="http://www.w3.org/2000/svg">
<path d="M19.082 8.02952C21.7505 7.47522 24.4586 8.11174 26.5412 9.76714C26.5583 9.78589 26.5772 9.8038 26.5979 9.8207C28.6899 11.5263 29.89 14.043 29.89 16.73C29.89 19.6881 28.4143 22.4116 26.0276 24.052C25.3032 24.5498 24.76 25.3643 24.76 26.3138V30.4C24.76 32.4739 23.0639 34.17 20.99 34.17C18.9154 34.17 17.22 32.4831 17.22 30.4V26.3126C17.22 25.3638 16.6775 24.55 15.9546 24.0518C13.1311 22.1064 11.6275 18.6587 12.2327 15.1551L12.2328 15.1546C12.8383 11.6255 15.5946 8.75733 19.082 8.02952Z" stroke="#B4B4B4"/>
<path d="M9.80004 21.0101L8.25004 21.7301C7.82004 21.9301 7.64004 22.4401 7.84004 22.8701C8.04004 23.2901 8.54004 23.4801 8.98004 23.2801L10.53 22.5601C10.96 22.3601 11.14 21.8501 10.94 21.4201C10.74 20.9901 10.23 20.8101 9.80004 21.0101ZM32.2 12.4401L33.75 11.7201C34.18 11.5201 34.36 11.0101 34.16 10.5801C33.96 10.1501 33.45 9.97005 33.02 10.1701L31.47 10.8901C31.04 11.0901 30.86 11.6001 31.06 12.0301C31.26 12.4501 31.76 12.6401 32.2 12.4401ZM10.52 10.9001L8.97004 10.1801C8.54004 9.98005 8.03004 10.1701 7.83004 10.5901C7.63004 11.0201 7.82004 11.5301 8.24004 11.7301L9.79004 12.4501C10.22 12.6501 10.73 12.4601 10.93 12.0401C11.13 11.6101 10.94 11.1001 10.52 10.9001ZM33.75 21.7301L32.2 21.0101C31.77 20.8101 31.26 21.0001 31.06 21.4201C30.86 21.8501 31.05 22.3601 31.47 22.5601L33.02 23.2801C33.45 23.4801 33.96 23.2901 34.16 22.8701C34.36 22.4401 34.17 21.9301 33.75 21.7301ZM24.42 14.1601C23.01 14.1601 21.86 15.3101 21.86 16.7201V17.5701H20.15V16.7201C20.15 15.3101 19 14.1601 17.59 14.1601C16.18 14.1601 15.03 15.3101 15.03 16.7201C15.03 18.1301 16.18 19.2801 17.59 19.2801H18.44V21.8401C18.44 22.3101 18.82 22.6901 19.29 22.6901C19.76 22.6901 20.14 22.3101 20.14 21.8401V19.2801H21.85V21.8401C21.85 22.3101 22.23 22.6901 22.7 22.6901C23.17 22.6901 23.55 22.3101 23.55 21.8401V19.2801H24.4C25.81 19.2801 26.96 18.1301 26.96 16.7201C26.96 15.3101 25.81 14.1601 24.4 14.1601H24.42ZM18.44 17.5801H17.59C17.12 17.5801 16.74 17.2001 16.74 16.7301C16.74 16.2601 17.12 15.8801 17.59 15.8801C18.06 15.8801 18.44 16.2601 18.44 16.7301V17.5801ZM24.42 17.5801H23.57V16.7301C23.57 16.2601 23.95 15.8801 24.42 15.8801C24.89 15.8801 25.27 16.2601 25.27 16.7301C25.27 17.2001 24.89 17.5801 24.42 17.5801ZM26.13 27.8301H15.88C15.41 27.8301 15.03 28.2101 15.03 28.6801C15.03 29.1501 15.41 29.5301 15.88 29.5301H26.13C26.6 29.5301 26.98 29.1501 26.98 28.6801C26.98 28.2101 26.6 27.8301 26.13 27.8301ZM9.83004 16.7301C9.83004 16.2601 9.45004 15.8801 8.98004 15.8801H7.27004C6.80004 15.8801 6.42004 16.2601 6.42004 16.7301C6.42004 17.2001 6.80004 17.5801 7.27004 17.5801H8.98004C9.45004 17.5801 9.83004 17.2001 9.83004 16.7301ZM34.73 15.8701H33.02C32.55 15.8701 32.17 16.2501 32.17 16.7201C32.17 17.1901 32.55 17.5701 33.02 17.5701H34.73C35.2 17.5701 35.58 17.1901 35.58 16.7201C35.58 16.2501 35.2 15.8701 34.73 15.8701Z" fill="#B4B4B4"/>
</svg>
