<svg width="42" height="42" viewBox="0 0 42 42" fill="none" xmlns="http://www.w3.org/2000/svg">
<path d="M12.89 10.3401H29.11C29.5059 10.3401 29.9301 10.7244 29.9301 11.3401V31.2101C29.9301 31.8258 29.5059 32.2101 29.11 32.2101H12.89C12.4942 32.2101 12.0701 31.8258 12.0701 31.2101V11.3401C12.0701 10.7244 12.4942 10.3401 12.89 10.3401Z" stroke="#B4B4B4"/>
<path d="M19.3 8.49978C19.3 7.67978 19.9601 7.01978 20.7801 7.01978H22.0701C22.8901 7.01978 23.55 7.67978 23.55 8.49978V9.83978H19.3V8.49978Z" fill="#B4B4B4"/>
<path d="M31.0601 24.77C29.9301 23.64 28.4201 23.01 26.8201 23.01C25.2201 23.01 23.71 23.63 22.58 24.77C21.45 25.9 20.8201 27.41 20.8201 29.01C20.8201 30.61 21.44 32.12 22.58 33.25C23.71 34.38 25.2201 35.01 26.8201 35.01C28.4201 35.01 29.9301 34.39 31.0601 33.25C32.1901 32.12 32.8201 30.61 32.8201 29.01C32.8201 27.41 32.2001 25.9 31.0601 24.77Z" fill="#272727"/>
<path d="M27.1601 26.27H26.4601V28.82H27.1601V26.27Z" fill="#B4B4B4"/>
<path d="M30.4 32.6001L30.15 32.8501L29.09 31.7901L29.59 31.2901L30.14 31.8401C30.74 31.1401 31.09 30.2801 31.17 29.3601H30.39V28.6601H31.17C31.09 27.7201 30.72 26.8601 30.14 26.1801L29.59 26.7301L29.09 26.2301L29.64 25.6801C28.96 25.1001 28.1 24.7301 27.16 24.6501V25.4301H26.46V24.6501C25.52 24.7301 24.66 25.1001 23.98 25.6801L24.53 26.2301L24.03 26.7301L23.48 26.1801C22.9 26.8601 22.53 27.7201 22.45 28.6601H23.23V29.3601H22.45C22.52 30.2801 22.88 31.1401 23.48 31.8401L24.03 31.2901L24.53 31.7901L23.47 32.8501L23.22 32.6001C22.26 31.6401 21.73 30.3701 21.73 29.0101C21.73 27.6501 22.26 26.3801 23.22 25.4201C24.18 24.4601 25.45 23.9301 26.81 23.9301C28.17 23.9301 29.44 24.4601 30.4 25.4201C31.36 26.3801 31.89 27.6501 31.89 29.0101C31.89 30.3701 31.36 31.6401 30.4 32.6001Z" fill="#B4B4B4"/>
<path d="M27.1901 32.9901H27.1001C27.0701 33.0401 27.0401 33.1001 27.0001 33.1501C26.9601 33.2001 26.92 33.2401 26.86 33.2801C26.8 33.3201 26.7301 33.3501 26.6501 33.3701C26.5701 33.3901 26.47 33.4001 26.36 33.4001C26.21 33.4001 26.07 33.3701 25.95 33.3201C25.82 33.2701 25.7101 33.1901 25.6201 33.0801C25.5301 32.9701 25.4501 32.8501 25.4001 32.6901C25.3501 32.5401 25.3201 32.3701 25.3201 32.1701V32.0801C25.3201 31.8901 25.3501 31.7201 25.4001 31.5601C25.4601 31.4101 25.5401 31.2801 25.6301 31.1801C25.7301 31.0701 25.8401 30.9901 25.9701 30.9401C26.1001 30.8901 26.2401 30.8601 26.3801 30.8601C26.5701 30.8601 26.7301 30.9001 26.8401 30.9701C26.9501 31.0401 27.04 31.1401 27.11 31.2701H27.2V30.7201H26.45V30.1701H27.2V29.9401H27.8101V30.1701H28.1001V30.7201H27.8101V33.3101H27.2V32.9601L27.1901 32.9901ZM26.5601 32.8301C26.7501 32.8301 26.9001 32.7701 27.0201 32.6501C27.1401 32.5301 27.2 32.3701 27.2 32.1701V32.1101C27.2 31.9101 27.1401 31.7601 27.0201 31.6401C26.9001 31.5201 26.7501 31.4601 26.5601 31.4601C26.3701 31.4601 26.2201 31.5201 26.1001 31.6401C25.9801 31.7601 25.9301 31.9101 25.9301 32.1201V32.1801C25.9301 32.3801 25.9901 32.5401 26.1001 32.6601C26.2201 32.7801 26.3701 32.8301 26.5601 32.8301Z" fill="#B4B4B4"/>
<path d="M27.6201 33.9401H25.6101V34.3401H27.6201V33.9401Z" fill="#B4B4B4"/>
<path d="M27.0002 14.0002H15.0002" stroke="#B4B4B4" stroke-linecap="round" stroke-linejoin="round"/>
<path d="M24.0002 16.0002H15.0002" stroke="#B4B4B4" stroke-linecap="round" stroke-linejoin="round"/>
<g filter="url(#filter0_d_9642_102659)">
<path d="M21.0002 18.0002H15.0002" stroke="#B4B4B4" stroke-linecap="round" stroke-linejoin="round"/>
</g>
<defs>
<filter id="filter0_d_9642_102659" x="6.50024" y="14.5002" width="23" height="17" filterUnits="userSpaceOnUse" color-interpolation-filters="sRGB">
<feFlood flood-opacity="0" result="BackgroundImageFix"/>
<feColorMatrix in="SourceAlpha" type="matrix" values="0 0 0 0 0 0 0 0 0 0 0 0 0 0 0 0 0 0 127 0" result="hardAlpha"/>
<feOffset dy="5"/>
<feGaussianBlur stdDeviation="4"/>
<feComposite in2="hardAlpha" operator="out"/>
<feColorMatrix type="matrix" values="0 0 0 0 0 0 0 0 0 0 0 0 0 0 0 0 0 0 0.45 0"/>
<feBlend mode="normal" in2="BackgroundImageFix" result="effect1_dropShadow_9642_102659"/>
<feBlend mode="normal" in="SourceGraphic" in2="effect1_dropShadow_9642_102659" result="shape"/>
</filter>
</defs>
</svg>
