<svg width="43" height="42" viewBox="0 0 43 42" fill="none" xmlns="http://www.w3.org/2000/svg">
<path d="M14.0198 32.2339L14.0187 32.2348C13.8653 32.3537 13.7326 32.4116 13.6194 32.4307C13.5126 32.4487 13.3942 32.4375 13.2511 32.3691C13.0997 32.2966 13.017 32.2085 12.9659 32.1129C12.9108 32.01 12.875 31.865 12.875 31.66V11.27C12.875 10.9454 12.9633 10.7741 13.0582 10.6814C13.155 10.5868 13.3343 10.5 13.665 10.5H29.455C29.7828 10.5 29.9627 10.5878 30.0608 10.6841C30.1574 10.7791 30.245 10.9519 30.245 11.27V31.66C30.245 32.0446 30.1229 32.2517 29.8788 32.3645C29.7276 32.4316 29.6055 32.4416 29.4974 32.4233C29.3829 32.4039 29.2509 32.3468 29.0958 32.2306C27.8756 31.3104 26.6649 30.3999 25.404 29.4592L25.0553 29.1991L24.7495 29.5084C23.8706 30.3973 23.0216 31.2463 22.1714 32.0964C21.8797 32.3882 21.6849 32.4525 21.56 32.4525C21.4351 32.4525 21.2403 32.3882 20.9486 32.0964L18.3686 29.5164L18.0635 29.2114L17.7171 29.4685C17.4206 29.6884 17.1386 29.9008 16.8596 30.111C16.5381 30.3532 16.2205 30.5925 15.8892 30.8369C15.2576 31.2981 14.6342 31.7606 14.0198 32.2339Z" stroke="#B4B4B4"/>
<path d="M31.7729 19H28.0514C27.6756 19 27.3351 19.2157 27.1918 19.5453C27.0476 19.8759 27.1276 20.2559 27.3937 20.5087L28.5966 21.6515L24.7952 25.2628L21.7315 22.3523C21.4273 22.0616 20.9491 22.0112 20.5844 22.226L10.8157 27.9708C10.3784 28.228 10.2444 28.7725 10.5142 29.187C10.6901 29.4574 10.9943 29.6059 11.3059 29.6059C11.4734 29.6059 11.6418 29.5635 11.7944 29.4733L20.9361 24.097L24.1365 27.1374C24.5003 27.483 25.0882 27.483 25.452 27.1374L29.9121 22.9012L31.1151 24.044C31.2928 24.2128 31.531 24.303 31.7729 24.303C31.8929 24.303 32.0138 24.2809 32.1292 24.2358C32.4771 24.0988 32.7032 23.7762 32.7032 23.4191V19.8838C32.7032 19.396 32.2873 19 31.7729 19Z" fill="#B4B4B4"/>
<path d="M25.035 18H15.375" stroke="#B4B4B4" stroke-width="1.4" stroke-linecap="round" stroke-linejoin="round"/>
<path d="M27.375 14H15.375" stroke="#B4B4B4" stroke-width="1.4" stroke-linecap="round" stroke-linejoin="round"/>
</svg>
