<svg width="43" height="42" viewBox="0 0 43 42" fill="none" xmlns="http://www.w3.org/2000/svg">
<path d="M14.8799 9.5H28.1299C29.3737 9.5 30.3799 10.5061 30.3799 11.75V29.5H23.0099H14.8799C13.636 29.5 12.6299 28.4939 12.6299 27.25V11.75C12.6299 10.5061 13.636 9.5 14.8799 9.5Z" stroke="#B4B4B4"/>
<path d="M19.6234 18H19.2567V17.7H23.0234V23.7V24.2H23.5234H23.8467V24.5H19.2134V24.2H19.6234H20.1234V23.7V18.5V18H19.6234ZM21.5734 12.5C22.3725 12.5 23.0234 13.1509 23.0234 13.95C23.0234 14.7491 22.3725 15.4 21.5734 15.4C20.7743 15.4 20.1234 14.7491 20.1234 13.95C20.1234 13.1509 20.7743 12.5 21.5734 12.5Z" stroke="#B4B4B4"/>
<rect x="27.6655" y="22.6641" width="5" height="9" fill="#636363"/>
<path d="M29 21C25.6915 21 23 23.6915 23 27C23 30.3085 25.6915 33 29 33C32.3085 33 35 30.3085 35 27C35 23.6915 32.3085 21 29 21ZM31.8535 30.1035C31.756 30.201 31.628 30.25 31.5 30.25C31.372 30.25 31.2439 30.201 31.1465 30.1035L28.6465 27.6035C28.5525 27.51 28.5 27.383 28.5 27.25V24C28.5 23.7235 28.724 23.5 29 23.5C29.276 23.5 29.5 23.7235 29.5 24V27.043L31.8535 29.3965C32.049 29.592 32.049 29.908 31.8535 30.1035Z" fill="#B1B1B1"/>
</svg>
