<svg width="42" height="42" viewBox="0 0 42 42" fill="none" xmlns="http://www.w3.org/2000/svg">
<path d="M13.2516 33.0914H12.8141V33.5289V35.0164L7.37884 31.068L12.8141 27.1195V28.607V29.0445H13.2516H14.5824C16.1558 30.5558 18.2792 31.5055 20.6344 31.5055C23.2378 31.5055 25.5772 30.3439 27.1601 28.516C26.1964 31.1789 23.6347 33.0914 20.6344 33.0914H13.2516Z" stroke="#B4B4B4" stroke-width="0.875"/>
<path d="M28.7496 8.90859H29.1871V8.47109V6.98358L34.6224 10.932L29.1871 14.8805V13.393V12.9555H28.7496H27.4189C25.8455 11.4442 23.722 10.4945 21.3668 10.4945C18.7634 10.4945 16.424 11.6561 14.8411 13.484C15.8049 10.8211 18.3665 8.90859 21.3668 8.90859H28.7496Z" stroke="#B4B4B4" stroke-width="0.875"/>
<path d="M24.1632 23.0874L24.1628 23.0871L21.9374 20.8615V18C21.9374 17.4816 21.5174 17.0625 21 17.0625C20.4826 17.0625 20.0625 17.4816 20.0625 18V21.25C20.0625 21.4982 20.1605 21.7371 20.3377 21.9134C20.3378 21.9135 20.3379 21.9136 20.338 21.9137L22.837 24.4127C22.8371 24.4127 22.8371 24.4128 22.8372 24.4128C23.0197 24.5954 23.2604 24.6875 23.5 24.6875C23.7397 24.6875 23.9803 24.5953 24.1628 24.4128C24.5294 24.0462 24.5283 23.4535 24.1632 23.0874ZM10.0625 21C10.0625 14.9695 14.9695 10.0625 21 10.0625C27.0305 10.0625 31.9375 14.9695 31.9375 21C31.9375 27.0305 27.0305 31.9375 21 31.9375C14.9695 31.9375 10.0625 27.0305 10.0625 21ZM21 13.5625C16.8975 13.5625 13.5625 16.8976 13.5625 21C13.5625 25.1024 16.8975 28.4375 21 28.4375C25.1024 28.4375 28.4375 25.1024 28.4375 21C28.4375 16.8976 25.1024 13.5625 21 13.5625ZM15.4375 21C15.4375 17.9331 17.9331 15.4375 21 15.4375C24.0669 15.4375 26.5625 17.9331 26.5625 21C26.5625 24.0669 24.0669 26.5625 21 26.5625C17.9331 26.5625 15.4375 24.0669 15.4375 21Z" fill="#B4B4B4" stroke="#B4B4B4" stroke-width="0.875"/>
</svg>
