<svg width="42" height="42" viewBox="0 0 42 42" fill="none" xmlns="http://www.w3.org/2000/svg">
<path d="M14.0788 10.05H28.2912C29.1768 10.05 29.87 10.744 29.87 11.57V29.99C29.87 30.816 29.1768 31.51 28.2912 31.51H14.0788C13.1932 31.51 12.5 30.816 12.5 29.99V11.57C12.5 10.744 13.1932 10.05 14.0788 10.05Z" stroke="#B4B4B4"/>
<path d="M33.38 19.81L32.02 18.43C31.36 17.77 30.29 17.77 29.62 18.43L23.75 24.3C23.43 24.62 23.25 25.05 23.26 25.5V26.86C23.26 27.79 24.02 28.55 24.95 28.55H26.34C26.77 28.55 27.19 28.39 27.51 28.1L33.38 22.23C34.05 21.57 34.05 20.49 33.39 19.82C33.39 19.82 33.39 19.82 33.38 19.81Z" fill="#B4B4B4"/>
<g filter="url(#filter0_d_9642_102537)">
<path d="M19.3854 26.4514H19.2292C19.1829 26.5498 19.125 26.6453 19.0556 26.7378C18.9919 26.8247 18.9051 26.9028 18.7951 26.9722C18.691 27.0417 18.5637 27.0966 18.4132 27.1372C18.2685 27.1777 18.092 27.1979 17.8837 27.1979C17.6175 27.1979 17.3686 27.1516 17.1372 27.059C16.9115 26.9606 16.7118 26.8189 16.5382 26.6337C16.3704 26.4427 16.2373 26.2112 16.1389 25.9392C16.0463 25.6672 16 25.3547 16 25.0017V24.8455C16 24.4983 16.0492 24.1887 16.1476 23.9167C16.2517 23.6447 16.3906 23.4161 16.5642 23.2309C16.7436 23.0399 16.9491 22.8953 17.1806 22.7969C17.4178 22.6985 17.6667 22.6493 17.9271 22.6493C18.2743 22.6493 18.5492 22.7159 18.7517 22.849C18.9543 22.9763 19.1134 23.1586 19.2292 23.3958H19.3854V22.4063H18.0312V21.4167H19.3854V21H20.4792V21.4167H21V22.4063H20.4792V27.0764H19.3854V26.4514ZM18.2396 26.1562C18.581 26.1562 18.8559 26.0492 19.0642 25.8351C19.2784 25.6152 19.3854 25.3287 19.3854 24.9757V24.8715C19.3854 24.5185 19.2784 24.235 19.0642 24.0208C18.8559 23.8009 18.581 23.691 18.2396 23.691C17.8981 23.691 17.6204 23.798 17.4062 24.0122C17.1979 24.2205 17.0937 24.5069 17.0937 24.8715V24.9757C17.0937 25.3403 17.1979 25.6296 17.4062 25.8437C17.6204 26.0521 17.8981 26.1562 18.2396 26.1562Z" fill="#B4B4B4"/>
<path d="M16.5366 27.7997H20.1535V28.5231H16.5366V27.7997Z" fill="#B4B4B4"/>
</g>
<line x1="14.7" y1="16.3" x2="23.3" y2="16.3" stroke="#B4B4B4" stroke-width="1.4" stroke-linecap="round"/>
<line x1="14.7" y1="13.3" x2="27.3" y2="13.3" stroke="#B4B4B4" stroke-width="1.4" stroke-linecap="round"/>
<defs>
<filter id="filter0_d_9642_102537" x="12" y="18" width="13" height="15.5231" filterUnits="userSpaceOnUse" color-interpolation-filters="sRGB">
<feFlood flood-opacity="0" result="BackgroundImageFix"/>
<feColorMatrix in="SourceAlpha" type="matrix" values="0 0 0 0 0 0 0 0 0 0 0 0 0 0 0 0 0 0 127 0" result="hardAlpha"/>
<feOffset dy="1"/>
<feGaussianBlur stdDeviation="2"/>
<feComposite in2="hardAlpha" operator="out"/>
<feColorMatrix type="matrix" values="0 0 0 0 0 0 0 0 0 0 0 0 0 0 0 0 0 0 0.25 0"/>
<feBlend mode="normal" in2="BackgroundImageFix" result="effect1_dropShadow_9642_102537"/>
<feBlend mode="normal" in="SourceGraphic" in2="effect1_dropShadow_9642_102537" result="shape"/>
</filter>
</defs>
</svg>
