<svg width="42" height="42" viewBox="0 0 42 42" fill="none" xmlns="http://www.w3.org/2000/svg">
<path d="M19.2199 16.7099H18.7199V16.8074C18.0438 17.0235 17.5599 17.6655 17.5599 18.4099C17.5599 18.4777 17.5641 18.5442 17.5721 18.6091C16.3392 18.3888 15.2951 17.5865 14.7199 16.4812V14.8099C14.7199 14.3716 14.5945 13.9597 14.3546 13.612C14.7658 11.776 16.3686 10.4199 18.2599 10.4199C20.1527 10.4199 21.7564 11.778 22.1662 13.616C21.9354 13.9568 21.7999 14.3656 21.7999 14.8099V16.4813C21.7558 16.5684 21.7148 16.6465 21.673 16.7178C21.4259 16.814 21.1494 16.8943 20.8611 16.9455C20.6075 16.7925 20.3195 16.7099 20.0199 16.7099H19.2199Z" stroke="#B4B4B4"/>
<path d="M12.1707 13.802L12.1523 14.1302L12.4463 14.2772C12.6591 14.3836 12.7799 14.5729 12.7799 14.78V16.89C12.7799 17.1545 12.5834 17.3895 12.303 17.44H12.1299C11.7908 17.44 11.5399 17.1788 11.5399 16.88V14.77C11.5399 14.558 11.6644 14.3682 11.8687 14.2743L12.1451 14.1473L12.1594 13.8435C12.225 12.4478 12.7928 11.1741 13.6941 10.1922C12.8111 11.1631 12.2481 12.4186 12.1707 13.802ZM24.3292 13.8038C24.2834 12.9308 24.0429 12.109 23.6498 11.3776C24.0541 12.1223 24.2987 12.959 24.3405 13.8435L24.3548 14.1473L24.6312 14.2743C24.8355 14.3682 24.9599 14.558 24.9599 14.77V16.88C24.9599 17.1788 24.7091 17.44 24.3699 17.44H24.3199C24.1936 17.44 24.0884 17.4064 24.0015 17.3502L23.8226 17.2344L23.7615 17.0877C23.7339 17.0215 23.7199 16.9566 23.7199 16.89V14.78C23.7199 14.566 23.8467 14.375 24.0434 14.2821L24.3468 14.1388L24.3292 13.8038ZM20.2914 18.4083L20.3228 18.4527L20.2918 18.509C20.2673 18.5536 20.2126 18.59 20.1499 18.59H19.2799C19.1806 18.59 19.1299 18.5187 19.1299 18.46C19.1299 18.4013 19.1806 18.33 19.2799 18.33H20.1499C20.2011 18.33 20.2553 18.3571 20.2914 18.4083Z" stroke="#B4B4B4"/>
<path d="M20.266 27.9379L20.273 27.9467L20.2803 27.9553C20.2921 27.9691 20.3041 27.983 20.3164 27.9971L20.2607 28.066C20.0437 28.3352 19.8919 28.6348 19.7887 28.9399H10.1156C10.1181 28.9399 10.1194 28.9398 10.1194 28.9397C10.1194 28.9387 10.0649 28.934 9.97033 28.9119C9.8563 28.8853 9.7111 28.8391 9.57133 28.7626C9.31 28.6195 9.06995 28.3805 9.06995 27.8899V25.8799C9.06995 24.5322 9.60748 23.2295 10.5635 22.2735C11.5199 21.3171 12.8127 20.7799 14.1699 20.7799H22.3199C22.9921 20.7799 23.6481 20.926 24.2598 21.1862C24.1283 21.3683 24.0142 21.5664 23.922 21.7791C23.9065 21.8142 23.8922 21.8488 23.879 21.8831C23.8454 21.877 23.8124 21.8715 23.7799 21.8663C23.6195 21.8398 23.4751 21.8399 23.3702 21.8399L23.3599 21.8399C22.6833 21.8399 22.0082 22.064 21.4708 22.4693C20.9736 22.8371 20.6968 23.3122 20.3763 23.8624C20.3636 23.8841 20.3509 23.906 20.3381 23.928L20.338 23.928L20.3349 23.9334C20.3166 23.9657 20.2985 23.9976 20.2805 24.0294C19.9764 24.5644 19.7151 25.0242 19.6344 25.6232L19.6343 25.6243C19.5267 26.4369 19.753 27.2817 20.266 27.9379Z" stroke="#B4B4B4"/>
<path fill-rule="evenodd" clip-rule="evenodd" d="M28.56 21.81C28.33 21.71 28.03 21.71 27.44 21.71C26.85 21.71 26.55 21.71 26.32 21.81C26.01 21.94 25.76 22.18 25.63 22.49C25.57 22.63 25.55 22.79 25.54 23.03C25.53 23.38 25.35 23.7 25.04 23.88C24.73 24.06 24.36 24.05 24.05 23.88C23.84 23.77 23.68 23.71 23.53 23.69C23.2 23.65 22.86 23.74 22.59 23.94C22.39 24.09 22.24 24.35 21.95 24.85C21.65 25.36 21.51 25.61 21.47 25.86C21.43 26.19 21.52 26.52 21.72 26.79C21.81 26.91 21.94 27.01 22.15 27.14C22.45 27.33 22.64 27.64 22.64 28C22.64 28.36 22.45 28.67 22.15 28.86C21.95 28.99 21.82 29.09 21.72 29.21C21.52 29.47 21.43 29.81 21.47 30.14C21.5 30.39 21.65 30.64 21.95 31.15C22.25 31.66 22.39 31.91 22.59 32.06C22.86 32.26 23.19 32.35 23.53 32.31C23.68 32.29 23.84 32.23 24.05 32.12C24.36 31.96 24.74 31.95 25.04 32.12C25.35 32.3 25.53 32.62 25.54 32.97C25.54 33.21 25.57 33.37 25.63 33.51C25.76 33.82 26.01 34.06 26.32 34.19C26.55 34.29 26.85 34.29 27.44 34.29C28.03 34.29 28.33 34.29 28.56 34.19C28.87 34.06 29.12 33.82 29.25 33.51C29.31 33.37 29.33 33.21 29.34 32.97C29.35 32.62 29.53 32.3 29.84 32.12C30.15 31.94 30.52 31.95 30.83 32.12C31.04 32.23 31.2 32.29 31.35 32.31C31.68 32.35 32.02 32.26 32.29 32.06C32.49 31.91 32.64 31.65 32.93 31.15C33.23 30.64 33.37 30.39 33.41 30.14C33.45 29.81 33.36 29.48 33.16 29.21C33.07 29.09 32.94 28.99 32.73 28.86C32.43 28.67 32.24 28.36 32.24 28C32.24 27.65 32.43 27.33 32.73 27.14C32.93 27.01 33.06 26.91 33.16 26.79C33.36 26.53 33.45 26.19 33.41 25.86C33.38 25.61 33.23 25.36 32.93 24.85C32.63 24.34 32.49 24.09 32.29 23.94C32.02 23.74 31.69 23.65 31.35 23.69C31.2 23.71 31.04 23.77 30.83 23.88C30.52 24.04 30.14 24.05 29.84 23.88C29.53 23.7 29.35 23.38 29.34 23.03C29.34 22.79 29.31 22.63 29.25 22.49C29.12 22.18 28.87 21.94 28.56 21.81ZM27.44 29.88C28.49 29.88 29.34 29.04 29.34 27.99C29.34 26.94 28.49 26.1 27.44 26.1C26.39 26.1 25.54 26.94 25.54 27.99C25.54 29.04 26.39 29.88 27.44 29.88Z" fill="#B4B4B4"/>
</svg>
