<svg width="42" height="42" viewBox="0 0 42 42" fill="none" xmlns="http://www.w3.org/2000/svg">
<path d="M25.53 23.5499L21.7 27.3799C21.53 27.5599 21.44 27.7899 21.44 28.0299C21.44 28.2699 21.54 28.5099 21.72 28.6799C21.89 28.8499 22.13 28.9499 22.37 28.9399C22.61 28.9299 22.85 28.8399 23.02 28.6699L26.62 25.0599C26.67 25.0099 26.73 24.9699 26.8 24.9399C26.87 24.9099 26.94 24.8999 27.01 24.8999C27.08 24.8999 27.15 24.9099 27.22 24.9399C27.29 24.9699 27.35 25.0099 27.4 25.0599C27.45 25.1099 27.49 25.1699 27.52 25.2399C27.55 25.3099 27.56 25.3799 27.56 25.4499C27.56 25.5199 27.55 25.5899 27.52 25.6599C27.49 25.7299 27.45 25.7899 27.4 25.8399L23.78 29.4599C23.44 29.7899 22.99 29.9999 22.52 30.0299C22.05 30.0599 21.57 29.9299 21.19 29.6499H16.87C16.75 29.6499 16.62 29.6499 16.5 29.6899C16.38 29.7299 16.27 29.7899 16.18 29.8699C16.09 29.9499 16.01 30.0499 15.96 30.1599C15.91 30.2699 15.88 30.3899 15.87 30.5199C15.87 30.6399 15.88 30.7699 15.93 30.8799C15.97 30.9999 16.04 31.0999 16.12 31.1899C16.21 31.2799 16.31 31.3499 16.42 31.3999C16.53 31.4499 16.66 31.4799 16.78 31.4799H24.77C25.21 31.4799 25.63 31.2999 25.94 30.9999L28.52 28.4199C28.71 28.2299 28.93 28.0799 29.17 27.9799C29.41 27.8799 29.68 27.8299 29.94 27.8299H31.76V23.0599H26.7C26.48 23.0599 26.27 23.0999 26.07 23.1899C25.87 23.2699 25.69 23.3999 25.53 23.5499Z" fill="#B4B4B4"/>
<path d="M34.1299 22.34H33.3599C33.2199 22.34 33.0899 22.39 32.9899 22.48C32.8899 22.57 32.8299 22.7 32.8199 22.83V28.08C32.8299 28.21 32.8899 28.34 32.9899 28.42C33.0899 28.51 33.2199 28.56 33.3499 28.56H34.1199C34.2599 28.56 34.3999 28.5 34.4999 28.4C34.5999 28.3 34.6599 28.16 34.6599 28.02V22.87C34.6599 22.8 34.6499 22.73 34.6199 22.66C34.5899 22.59 34.5499 22.54 34.4999 22.49C34.4499 22.44 34.3899 22.4 34.3299 22.37C34.2599 22.34 34.1899 22.33 34.1199 22.33L34.1299 22.34Z" fill="#B4B4B4"/>
<path d="M20.33 27.45C20.43 27.11 20.59 26.8 20.84 26.55L24.63 22.76C25.04 21.74 25.26 20.63 25.26 19.46C25.26 14.51 21.25 10.5 16.3 10.5C11.35 10.5 7.33997 14.51 7.33997 19.46C7.33997 24.41 11.35 28.42 16.3 28.42C17.75 28.42 19.12 28.07 20.33 27.46V27.45Z" stroke="#B4B4B4"/>
<path d="M17.11 20.85H16.97C16.93 20.94 16.87 21.03 16.81 21.11C16.75 21.19 16.67 21.26 16.57 21.33C16.47 21.39 16.36 21.44 16.22 21.48C16.09 21.52 15.92 21.54 15.73 21.54C15.48 21.54 15.26 21.5 15.04 21.41C14.83 21.32 14.65 21.19 14.49 21.02C14.34 20.84 14.21 20.63 14.12 20.38C14.03 20.13 13.99 19.84 13.99 19.52V19.38C13.99 19.06 14.04 18.77 14.13 18.52C14.23 18.27 14.35 18.06 14.51 17.89C14.68 17.71 14.86 17.58 15.08 17.49C15.3 17.4 15.53 17.35 15.77 17.35C16.09 17.35 16.34 17.41 16.53 17.53C16.72 17.65 16.86 17.82 16.97 18.03H17.11V17.12H15.86V16.21H17.11V15.83H18.12V16.21H18.6V17.12H18.12V21.42H17.11V20.84V20.85ZM16.06 20.58C16.37 20.58 16.63 20.48 16.82 20.28C17.02 20.08 17.12 19.81 17.12 19.49V19.39C17.12 19.06 17.02 18.8 16.82 18.61C16.63 18.41 16.37 18.31 16.06 18.31C15.75 18.31 15.49 18.41 15.29 18.61C15.09 18.81 15 19.07 15 19.4V19.5C15 19.84 15.1 20.1 15.29 20.3C15.49 20.49 15.74 20.59 16.06 20.59V20.58Z" fill="#B4B4B4"/>
<path d="M17.82 22.4299H14.49V23.0999H17.82V22.4299Z" fill="#B4B4B4"/>
</svg>
