<svg width="42" height="42" viewBox="0 0 42 42" fill="none" xmlns="http://www.w3.org/2000/svg">
<path d="M10.1105 8C8.94301 8 8 8.943 8 10.1105H12.2301C12.2301 8.943 11.287 8 10.1195 8H10.1105Z" fill="#B4B4B4"/>
<path d="M31.1649 10.1195V33.5H14.3315C13.4401 33.5 12.721 32.7809 12.721 31.8894V10.1105C12.721 9.50239 12.5139 8.94337 12.1663 8.5H28.3544L28.3454 8.50898H29.5543C30.4457 8.50898 31.1649 9.22813 31.1649 10.1195Z" stroke="#B4B4B4"/>
<path d="M29.5634 31.8895H16.4601C16.4601 33.057 15.5171 34 14.3495 34H31.6829C32.8504 34 33.7934 33.057 33.7934 31.8895H29.5634Z" fill="#B4B4B4"/>
<path d="M17.2325 18.5347C17.3582 18.5347 17.484 18.4808 17.5648 18.3731L17.7444 18.1396C18.0139 19.7382 19.1365 21.1123 20.7261 21.6601C21.2201 21.8308 21.723 21.9116 22.217 21.9116C23.6988 21.9116 25.1358 21.1751 25.989 19.8909C26.1147 19.7023 26.0608 19.4418 25.8722 19.3161C25.6836 19.1903 25.4232 19.2442 25.2975 19.4328C24.3634 20.8428 22.5942 21.4356 21.0045 20.8788C19.6753 20.4207 18.7593 19.2622 18.5617 17.924L18.9209 18.1935C19.1006 18.3282 19.361 18.3012 19.5047 18.1216C19.6484 17.942 19.6125 17.6815 19.4329 17.5378L18.4539 16.7834C18.2474 16.6218 17.951 16.532 17.7714 16.7834L16.9361 17.8701C16.7924 18.0498 16.8284 18.3102 17.008 18.4539C17.0798 18.5078 17.1696 18.5437 17.2595 18.5437L17.2325 18.5347Z" fill="#B4B4B4"/>
<path d="M18.5438 15.4453C18.7324 15.571 18.9929 15.5171 19.1186 15.3285C20.0526 13.9185 21.8219 13.3258 23.4115 13.8826C24.7407 14.3406 25.6568 15.4992 25.8543 16.8373L25.4951 16.5679C25.3155 16.4242 25.055 16.4601 24.9113 16.6397C24.7676 16.8194 24.8036 17.0798 24.9832 17.2235L25.9621 17.9779C26.1687 18.1396 26.4561 18.2294 26.6447 17.9779L27.4799 16.8912C27.6236 16.7116 27.5877 16.4511 27.4081 16.3074C27.2284 16.1638 26.968 16.1997 26.8243 16.3793L26.6447 16.6128C26.3752 15.0142 25.2526 13.6401 23.663 13.0922C21.7051 12.4097 19.5407 13.1372 18.4001 14.8615C18.2744 15.0501 18.3283 15.3106 18.5169 15.4363L18.5438 15.4453Z" fill="#B4B4B4"/>
<path d="M22.9257 18.1102H22.8397C22.8132 18.1632 22.7801 18.2227 22.7404 18.2757C22.7007 18.322 22.6544 18.3683 22.5948 18.408C22.5353 18.4477 22.4625 18.4808 22.3764 18.5006C22.2904 18.5205 22.1911 18.5337 22.072 18.5337C21.9198 18.5337 21.7809 18.5073 21.6485 18.4543C21.5228 18.4014 21.4037 18.3154 21.3044 18.2095C21.2118 18.1036 21.1323 17.9712 21.0794 17.8124C21.0265 17.6602 21 17.4816 21 17.2764V17.1904C21 16.9919 21.0265 16.8132 21.086 16.661C21.1456 16.5088 21.225 16.3764 21.3243 16.2706C21.4235 16.1647 21.5426 16.0786 21.675 16.0257C21.8073 15.9728 21.9529 15.9397 22.0985 15.9397C22.297 15.9397 22.4558 15.9794 22.5683 16.0522C22.6808 16.125 22.7735 16.2309 22.8397 16.3632H22.9257V15.8007H22.1514V15.2382H22.9257V15H23.5477V15.2382H23.8455V15.8007H23.5477V18.4676H22.9257V18.1102ZM22.2706 17.9448C22.4625 17.9448 22.6213 17.8852 22.7404 17.7595C22.8595 17.6338 22.9257 17.4683 22.9257 17.2698V17.2102C22.9257 17.0117 22.8661 16.8463 22.7404 16.7272C22.6213 16.6014 22.4625 16.5419 22.2706 16.5419C22.0786 16.5419 21.9198 16.6014 21.7941 16.7272C21.6684 16.8529 21.6154 17.0117 21.6154 17.2169V17.2764C21.6154 17.4816 21.675 17.647 21.7941 17.7727C21.9132 17.8918 22.072 17.9514 22.2706 17.9514V17.9448Z" fill="#B4B4B4"/>
<path d="M23.3624 19.0898H21.2977V19.5001H23.3624V19.0898Z" fill="#B4B4B4"/>
<path d="M16.5 26H27.5M16.5 28H25.1" stroke="#B4B4B4" stroke-width="1.2" stroke-linecap="round"/>
</svg>
