<svg width="43" height="42" viewBox="0 0 43 42" fill="none" xmlns="http://www.w3.org/2000/svg">
<path d="M14.8799 10.5H28.1299C29.3737 10.5 30.3799 11.5061 30.3799 12.75V30.5H23.0099H14.8799C13.636 30.5 12.6299 29.4939 12.6299 28.25V12.75C12.6299 11.5061 13.636 10.5 14.8799 10.5Z" stroke="#B4B4B4"/>
<path d="M19.6234 19H19.2567V18.7H23.0234V24.7V25.2H23.5234H23.8467V25.5H19.2134V25.2H19.6234H20.1234V24.7V19.5V19H19.6234ZM21.5734 13.5C22.3725 13.5 23.0234 14.1509 23.0234 14.95C23.0234 15.7491 22.3725 16.4 21.5734 16.4C20.7743 16.4 20.1234 15.7491 20.1234 14.95C20.1234 14.1509 20.7743 13.5 21.5734 13.5Z" stroke="#B4B4B4"/>
</svg>
