<svg width="42" height="42" viewBox="0 0 42 42" fill="none" xmlns="http://www.w3.org/2000/svg">
<path d="M18.225 28.73C24.055 30.31 30.035 26.87 31.615 21.04C33.195 15.21 29.755 9.23002 23.925 7.65002C18.095 6.07002 12.115 9.51002 10.535 15.34C8.95503 21.17 12.395 27.15 18.225 28.73Z" fill="#959595" fill-opacity="0.2"/>
<path d="M21.955 20.35H22.695C22.935 20.35 23.165 20.43 23.355 20.58C23.775 20.52 24.175 20.41 24.525 20.26C24.625 20.11 24.715 19.95 24.795 19.78V18.13C24.795 17.76 24.935 17.41 25.165 17.15C24.825 15.16 23.125 13.64 21.075 13.64C19.025 13.64 17.335 15.16 16.985 17.15C17.215 17.41 17.355 17.76 17.355 18.13V19.78C18.035 21.18 19.445 22.14 21.075 22.14C21.105 22.14 21.125 22.14 21.155 22.14C20.995 21.95 20.895 21.71 20.895 21.44C20.895 20.84 21.375 20.35 21.965 20.35H21.955Z" fill="#B4B4B4"/>
<path d="M15.6254 17.1242L15.6148 17.3231L15.7941 17.41C16.0304 17.5246 16.1849 17.7554 16.1849 18.0101V19.9601C16.1849 20.3266 15.8772 20.6401 15.4749 20.6401H15.4549C15.0527 20.6401 14.7449 20.3266 14.7449 19.9601V18.0101C14.7449 17.745 14.8997 17.5158 15.1427 17.4015L15.3066 17.3244L15.3146 17.1435C15.4471 14.1813 17.9878 11.7901 21.0949 11.7901C24.2013 11.7901 26.7333 14.1807 26.8753 17.1444L26.8839 17.3247L27.0472 17.4015C27.2902 17.5158 27.4449 17.745 27.4449 18.0101V19.9601C27.4449 20.3266 27.1372 20.6401 26.7349 20.6401H26.6849C26.5481 20.6401 26.4225 20.5998 26.3039 20.5257L26.1348 20.42L26.1155 20.4336L26.0369 20.2175C26.0042 20.1275 25.9849 20.0436 25.9849 19.9601V18.0101C25.9849 17.7554 26.1395 17.5246 26.3758 17.41L26.5558 17.3227L26.5445 17.123C26.3851 14.3179 23.9976 12.1001 21.0849 12.1001C18.1733 12.1001 15.7742 14.3171 15.6254 17.1242ZM25.9261 20.5664L26.0065 20.5106L25.9719 20.535C25.9496 20.5507 25.9269 20.5663 25.9038 20.5818C25.9113 20.5767 25.9187 20.5716 25.9261 20.5664ZM23.1077 21.27L23.1928 21.3937L23.1864 21.3942L23.1095 21.5403C23.0593 21.6356 22.9593 21.7001 22.8449 21.7001H22.0449C21.8774 21.7001 21.7449 21.5611 21.7449 21.4101C21.7449 21.2656 21.8706 21.1301 22.0449 21.1301H22.8449C22.9577 21.1301 23.0487 21.1842 23.1077 21.27Z" stroke="#B4B4B4" stroke-width="0.6"/>
<path d="M18.523 23.4999H23.9566C23.9792 23.504 24.0114 23.51 24.0522 23.5179C24.1418 23.5352 24.2725 23.562 24.4335 23.5991C24.7562 23.6734 25.197 23.7881 25.6705 23.9498C26.6498 24.2841 27.6454 24.7789 28.1203 25.4336C28.7678 26.3262 29.015 27.103 29.015 28.05V29.8C29.015 30.2071 28.8208 30.3982 28.6094 30.5142C28.4943 30.5774 28.3741 30.6157 28.2793 30.6377C28.233 30.6485 28.1955 30.6548 28.1715 30.6583C28.1666 30.659 28.1623 30.6595 28.1587 30.66H14.0035C14.0001 30.6595 13.9963 30.659 13.992 30.6584C13.9678 30.6547 13.9301 30.6482 13.8836 30.637C13.7885 30.6143 13.6677 30.5751 13.5519 30.5111C13.3379 30.3929 13.145 30.2008 13.145 29.8V28.05C13.145 27.1043 13.3963 26.3241 14.0418 25.4207C14.5934 24.6488 15.6661 24.1548 16.6974 23.8576C17.1991 23.7131 17.6636 23.6227 18.0029 23.5686C18.1721 23.5416 18.3092 23.5238 18.4028 23.5128C18.4496 23.5074 18.4855 23.5036 18.5091 23.5013L18.523 23.4999Z" stroke="#B4B4B4"/>
<path d="M15.345 26.38L8.705 33.02C8.085 33.64 7.085 33.64 6.465 33.02C5.845 32.4 5.845 31.4 6.465 30.78L13.105 24.14" fill="#B4B4B4"/>
<path fill-rule="evenodd" clip-rule="evenodd" d="M18.665 27.11C23.585 28.44 28.665 25.52 29.995 20.6C31.325 15.68 28.405 10.6 23.485 9.27002C18.565 7.94002 13.485 10.86 12.155 15.78C10.825 20.7 13.745 25.78 18.665 27.11ZM31.615 21.04C30.035 26.87 24.055 30.31 18.225 28.73C12.395 27.15 8.95503 21.17 10.535 15.34C12.115 9.51002 18.095 6.07002 23.925 7.65002C29.755 9.23002 33.195 15.21 31.615 21.04Z" fill="#B4B4B4"/>
</svg>
