<svg width="42" height="42" viewBox="0 0 42 42" fill="none" xmlns="http://www.w3.org/2000/svg">
<path d="M21 8.5C24.3402 8.5 27.4816 9.803 29.8393 12.1607C32.197 14.5184 33.5 17.6598 33.5 21C33.5 24.3402 32.197 27.4816 29.8393 29.8393C27.4816 32.197 24.3402 33.5 21 33.5C17.6598 33.5 14.5184 32.197 12.1607 29.8393C9.803 27.4816 8.5 24.3402 8.5 21C8.5 17.6598 9.803 14.5184 12.1607 12.1607C14.5184 9.803 17.6598 8.5 21 8.5Z" stroke="#B4B4B4"/>
<path d="M21.7614 15.0571H20.2385V20.5821H21.7614V15.0571Z" fill="#B4B4B4"/>
<path d="M28.7629 28.7722C28.7663 28.7722 28.768 28.7763 28.7656 28.7787L28.3914 29.153C28.3042 29.2401 28.163 29.2401 28.0759 29.153L26.1075 27.1847C26.0099 27.087 26.0099 26.9287 26.1075 26.8311L26.8311 26.1075C26.9287 26.0099 27.087 26.0099 27.1847 26.1075L28.0144 26.9372C28.1175 27.0404 28.287 27.0338 28.3785 26.9202C29.5099 25.515 30.2143 23.8266 30.4011 22.0298C30.4161 21.8852 30.3011 21.7615 30.1556 21.7615H28.9758C28.8377 21.7615 28.7258 21.6495 28.7258 21.5115V20.4886C28.7258 20.3505 28.8377 20.2386 28.9758 20.2386H30.1536C30.2998 20.2386 30.4151 20.1136 30.399 19.9684C30.1956 18.1348 29.4702 16.4544 28.3691 15.0807C28.2777 14.9667 28.108 14.9599 28.0047 15.0632L27.1754 15.8925C27.0778 15.9902 26.9195 15.9902 26.8218 15.8925L26.0982 15.1689C26.0006 15.0713 26.0006 14.913 26.0982 14.8154L26.9281 13.9855C27.0312 13.8824 27.0248 13.7131 26.9113 13.6216C25.5449 12.5203 23.8641 11.7948 22.0223 11.5917C21.8771 11.5757 21.7522 11.6909 21.7522 11.837V13.015C21.7522 13.1531 21.6403 13.265 21.5022 13.265H20.4793C20.3413 13.265 20.2293 13.1531 20.2293 13.015V11.8371C20.2293 11.691 20.1044 11.5757 19.9591 11.5918C18.1255 11.7952 16.4452 12.5206 15.0714 13.6217C14.9574 13.7131 14.9507 13.8828 15.054 13.9861L15.8833 14.8154C15.9809 14.913 15.9809 15.0713 15.8833 15.1689L15.1597 15.8925C15.062 15.9902 14.9038 15.9902 14.8061 15.8925L13.9762 15.0626C13.8732 14.9596 13.7038 14.966 13.6124 15.0795C12.511 16.4459 11.7856 18.1267 11.5824 19.9685C11.5664 20.1137 11.6816 20.2386 11.8278 20.2386H13.0058C13.1438 20.2386 13.2558 20.3505 13.2558 20.4886V21.5115C13.2558 21.6495 13.1438 21.7615 13.0058 21.7615H11.8271C11.6812 21.7615 11.5661 21.8859 11.5817 22.031C11.7756 23.8273 12.4726 25.5152 13.6031 26.9201C13.6945 27.0338 13.864 27.0404 13.9671 26.9372L14.7968 26.1075C14.8945 26.0099 15.0528 26.0099 15.1504 26.1075L15.874 26.8311C15.9716 26.9287 15.9716 27.087 15.874 27.1847L13.9247 29.134C13.827 29.2316 13.6688 29.2316 13.5711 29.134L13.2093 28.7722C11.1386 26.7015 9.98718 23.9343 9.98718 21C9.98718 18.0657 11.1293 15.3079 13.2093 13.2279C15.28 11.1572 18.0472 10.0057 20.9815 10.0057C23.9158 10.0057 26.6736 11.1479 28.7536 13.2279C30.8243 15.2986 31.9758 18.0657 31.9758 21C31.9758 23.9312 30.836 26.6864 28.7602 28.7656C28.7578 28.768 28.7595 28.7722 28.7629 28.7722V28.7722Z" fill="#B4B4B4"/>
<path d="M21.8854 28.4514H21.7292C21.6829 28.5498 21.625 28.6453 21.5556 28.7378C21.4919 28.8247 21.4051 28.9028 21.2951 28.9722C21.191 29.0417 21.0637 29.0966 20.9132 29.1372C20.7685 29.1777 20.592 29.1979 20.3837 29.1979C20.1175 29.1979 19.8686 29.1516 19.6372 29.059C19.4115 28.9606 19.2118 28.8189 19.0382 28.6337C18.8704 28.4427 18.7373 28.2112 18.6389 27.9392C18.5463 27.6672 18.5 27.3547 18.5 27.0017V26.8455C18.5 26.4983 18.5492 26.1887 18.6476 25.9167C18.7517 25.6447 18.8906 25.4161 19.0642 25.2309C19.2436 25.0399 19.4491 24.8953 19.6806 24.7969C19.9178 24.6985 20.1667 24.6493 20.4271 24.6493C20.7743 24.6493 21.0492 24.7159 21.2517 24.849C21.4543 24.9763 21.6134 25.1586 21.7292 25.3958H21.8854V24.4063H20.5312V23.4167H21.8854V23H22.9792V23.4167H23.5V24.4063H22.9792V29.0764H21.8854V28.4514ZM20.7396 28.1563C21.081 28.1563 21.3559 28.0492 21.5642 27.8351C21.7784 27.6152 21.8854 27.3287 21.8854 26.9757V26.8715C21.8854 26.5185 21.7784 26.235 21.5642 26.0208C21.3559 25.8009 21.081 25.691 20.7396 25.691C20.3981 25.691 20.1204 25.798 19.9062 26.0122C19.6979 26.2205 19.5937 26.5069 19.5937 26.8715V26.9757C19.5937 27.3403 19.6979 27.6296 19.9062 27.8437C20.1204 28.0521 20.3981 28.1563 20.7396 28.1563Z" fill="#B4B4B4"/>
<path d="M19.0366 29.7997H22.6535V30.5231H19.0366V29.7997Z" fill="#B4B4B4"/>
</svg>
