<svg width="42" height="42" viewBox="0 0 42 42" fill="none" xmlns="http://www.w3.org/2000/svg">
<path d="M25.52 23.5501L21.69 27.3801C21.52 27.5601 21.43 27.7901 21.43 28.0301C21.43 28.2701 21.53 28.5101 21.71 28.6801C21.88 28.8501 22.12 28.9501 22.36 28.9401C22.6 28.9301 22.84 28.8401 23.01 28.6701L26.61 25.0601C26.66 25.0101 26.72 24.9701 26.79 24.9401C26.86 24.9101 26.93 24.9001 27 24.9001C27.07 24.9001 27.14 24.9101 27.21 24.9401C27.28 24.9701 27.34 25.0101 27.39 25.0601C27.44 25.1101 27.48 25.1701 27.51 25.2401C27.54 25.3101 27.55 25.3801 27.55 25.4501C27.55 25.5201 27.54 25.5901 27.51 25.6601C27.48 25.7301 27.44 25.7901 27.39 25.8401L23.77 29.4601C23.43 29.7901 22.98 30.0001 22.51 30.0301C22.04 30.0601 21.56 29.9301 21.18 29.6501H16.86C16.74 29.6501 16.61 29.6501 16.49 29.6901C16.37 29.7301 16.26 29.7901 16.17 29.8701C16.08 29.9501 16 30.0501 15.95 30.1601C15.9 30.2701 15.87 30.3901 15.86 30.5201C15.86 30.6401 15.87 30.7701 15.92 30.8801C15.96 31.0001 16.03 31.1001 16.11 31.1901C16.2 31.2801 16.3 31.3501 16.41 31.4001C16.52 31.4501 16.65 31.4801 16.77 31.4801H24.76C25.2 31.4801 25.62 31.3001 25.93 31.0001L28.51 28.4201C28.7 28.2301 28.92 28.0801 29.16 27.9801C29.4 27.8801 29.67 27.8301 29.93 27.8301H31.75V23.0601H26.69C26.47 23.0601 26.26 23.1001 26.06 23.1901C25.86 23.2701 25.68 23.4001 25.52 23.5501Z" fill="#B4B4B4"/>
<path d="M34.1299 22.3301H33.3599C33.2199 22.3301 33.0899 22.3801 32.9899 22.4701C32.8899 22.5601 32.8299 22.6901 32.8199 22.8201V28.0701C32.8299 28.2001 32.8899 28.3301 32.9899 28.4101C33.0899 28.5001 33.2199 28.5501 33.3499 28.5501H34.1199C34.2599 28.5501 34.3999 28.4901 34.4999 28.3901C34.5999 28.2901 34.6599 28.1501 34.6599 28.0101V22.8601C34.6599 22.7901 34.6499 22.7201 34.6199 22.6501C34.5899 22.5801 34.5499 22.5301 34.4999 22.4801C34.4499 22.4301 34.3899 22.3901 34.3299 22.3601C34.2599 22.3301 34.1899 22.3201 34.1199 22.3201L34.1299 22.3301Z" fill="#B4B4B4"/>
<path d="M8.2 15.26C10.35 10.63 15.87 8.60005 20.5 10.75C21.2201 10.9734 23.9998 13 25.08 15.46L26.43 14.96C26.62 14.89 26.83 14.93 26.98 15.06C27.13 15.19 27.2 15.4 27.15 15.59L25.86 21.15C25.86 21.17 25.85 21.2 25.84 21.23C25.81 21.3 25.76 21.38 25.68 21.45C25.64 21.48 25.58 21.52 25.52 21.54C25.35 21.61 25.16 21.58 25.01 21.47L20.43 18.06C20.27 17.94 20.19 17.75 20.22 17.55C20.25 17.35 20.38 17.19 20.57 17.12L21.88 16.64C21.3 15.41 20.31 14.43 19.06 13.85C16.13 12.49 12.65 13.77 11.29 16.7C9.93 19.63 11.21 23.11 14.14 24.47C14.99 24.87 15.89 25.05 16.82 25.01C17.01 25 17.19 25.09 17.29 25.25C17.39 25.41 17.41 25.61 17.33 25.78L16.27 28.07C16.18 28.28 15.96 28.4 15.73 28.38C14.69 28.28 13.67 28.01 12.71 27.56C8.07999 25.41 6.05 19.89 8.2 15.26Z" stroke="#B4B4B4"/>
<path d="M17.22 20.8601H17.08C17.04 20.9501 16.98 21.0401 16.92 21.1201C16.86 21.2001 16.78 21.2701 16.68 21.3401C16.58 21.4001 16.47 21.4501 16.33 21.4901C16.2 21.5301 16.03 21.5501 15.84 21.5501C15.59 21.5501 15.37 21.5101 15.15 21.4201C14.94 21.3301 14.76 21.2001 14.6 21.0301C14.45 20.8501 14.32 20.6401 14.23 20.3901C14.14 20.1401 14.1 19.8501 14.1 19.5301V19.3901C14.1 19.0701 14.15 18.7801 14.24 18.5301C14.34 18.2801 14.46 18.0701 14.62 17.9001C14.79 17.7201 14.97 17.5901 15.19 17.5001C15.41 17.4101 15.64 17.3601 15.88 17.3601C16.2 17.3601 16.45 17.4201 16.64 17.5401C16.83 17.6601 16.97 17.8301 17.08 18.0401H17.22V17.1301H15.97V16.2201H17.22V15.8401H18.23V16.2201H18.71V17.1301H18.23V21.4301H17.22V20.8501V20.8601ZM16.16 20.5801C16.47 20.5801 16.73 20.4801 16.92 20.2801C17.12 20.0801 17.22 19.8101 17.22 19.4901V19.3901C17.22 19.0601 17.12 18.8001 16.92 18.6101C16.73 18.4101 16.47 18.3101 16.16 18.3101C15.85 18.3101 15.59 18.4101 15.39 18.6101C15.19 18.8101 15.1 19.0701 15.1 19.4001V19.5001C15.1 19.8401 15.2 20.1001 15.39 20.3001C15.59 20.4901 15.84 20.5901 16.16 20.5901V20.5801Z" fill="#B4B4B4"/>
<path d="M17.92 22.4301H14.59V23.1001H17.92V22.4301Z" fill="#B4B4B4"/>
</svg>
