<svg width="42" height="42" viewBox="0 0 42 42" fill="none" xmlns="http://www.w3.org/2000/svg">
<path d="M20.9945 20.5018V21.0018H21.4945H32.4137C32.6017 21.0018 32.7536 21.1536 32.7536 21.3419C32.7536 28.0174 27.323 33.4991 20.6546 33.4991C13.9833 33.4991 8.49951 28.0145 8.49951 21.3419C8.49951 14.6722 13.9804 9.24078 20.6546 9.24078C20.8426 9.24078 20.9945 9.39259 20.9945 9.58086V20.5018Z" stroke="#B4B4B4"/>
<path d="M21.4827 5.5C20.9392 5.5 20.4995 5.9398 20.4995 6.48331V20.3152C20.4995 20.8587 20.9392 21.2985 21.4827 21.2985H35.3122C35.8557 21.2985 36.2954 20.8587 36.2954 20.3152C36.2954 12.1818 29.6147 5.5 21.4827 5.5Z" fill="#B4B4B4"/>
<path d="M27.1523 12.6042C27.1523 13.7327 26.3876 14.3389 25.5575 14.3389C24.6715 14.3389 24 13.686 24 12.7067C24 11.7928 24.5876 11.0093 25.5948 11.0093C26.6021 11.0093 27.143 11.7368 27.143 12.6042H27.1523ZM25.1005 12.6694C25.1005 13.1824 25.2684 13.5368 25.5948 13.5368C25.8933 13.5368 26.0518 13.2384 26.0518 12.6694C26.0518 12.1658 25.9306 11.8021 25.5855 11.8021C25.2404 11.8021 25.1005 12.1845 25.1005 12.6694ZM25.6788 16.5959L28.7565 11H29.5306L26.4529 16.5959H25.6788ZM31.2187 14.8518C31.2187 15.9803 30.4539 16.5865 29.6238 16.5865C28.7378 16.5865 28.0663 15.9337 28.0663 14.9451C28.0663 14.0311 28.6539 13.2477 29.6611 13.2477C30.6684 13.2477 31.2093 13.9751 31.2093 14.8518H31.2187ZM29.1668 14.9171C29.1668 15.4301 29.3254 15.7845 29.6611 15.7845C29.9596 15.7845 30.1181 15.486 30.1181 14.9171C30.1181 14.4135 29.9876 14.0404 29.6518 14.0404C29.2974 14.0404 29.1668 14.4228 29.1668 14.9171Z" fill="#6B6B6B"/>
</svg>
