<svg width="42" height="42" viewBox="0 0 42 42" fill="none" xmlns="http://www.w3.org/2000/svg">
<mask id="mask0_9642_102257" style="mask-type:luminance" maskUnits="userSpaceOnUse" x="8" y="8" width="29" height="29">
<path d="M8.50195 8.00391H36.502V36.0039H8.50195V8.00391Z" fill="white"/>
</mask>
<g mask="url(#mask0_9642_102257)">
<path d="M12.6035 33.7546H29.3463C28.5966 33.0636 28.127 32.0734 28.127 30.9733V10.2546H9.82227V30.9733C9.82227 32.5095 11.0673 33.7546 12.6035 33.7546Z" stroke="#B4B4B4"/>
<path d="M34.1812 30.9733V23.7077H28.1265V30.9733C28.1265 32.5095 29.3715 33.7546 30.9077 33.7546H31.3999C32.9362 33.7546 34.1812 32.5095 34.1812 30.9733Z" stroke="#B4B4B4"/>
<path d="M12.8771 13.692H25.1271" stroke="#B4B4B4" stroke-width="1.55555" stroke-miterlimit="10" stroke-linecap="round" stroke-linejoin="round"/>
<path d="M12.8771 17.1921H25.1271" stroke="#B4B4B4" stroke-width="1.64062" stroke-miterlimit="10" stroke-linecap="round" stroke-linejoin="round"/>
<path d="M19.0004 27.4449H12.7782V20.4449H19.0004V27.4449Z" fill="#B4B4B4" stroke="#B4B4B4" stroke-width="1.55555" stroke-miterlimit="10" stroke-linecap="round" stroke-linejoin="round"/>
<path d="M22.1118 20.445H25.2229" stroke="#B4B4B4" stroke-width="1.55555" stroke-miterlimit="10" stroke-linecap="round" stroke-linejoin="round"/>
<path d="M22.1115 23.9449H25.2226" stroke="#B4B4B4" stroke-width="1.55555" stroke-miterlimit="10" stroke-linecap="round" stroke-linejoin="round"/>
<path d="M22.1115 27.4449H25.2226" stroke="#B4B4B4" stroke-width="1.55555" stroke-miterlimit="10" stroke-linecap="round" stroke-linejoin="round"/>
</g>
</svg>
