<svg width="42" height="42" viewBox="0 0 42 42" fill="none" xmlns="http://www.w3.org/2000/svg">
<path d="M32.4701 10.8C32.4701 9.98003 32.0101 9.53003 31.1801 9.53003C25.9201 9.53003 20.6601 9.53003 15.3901 9.53003C14.5601 9.53003 14.1001 9.97003 14.1001 10.8C14.1001 17.6 14.1001 24.4 14.1001 31.19C14.1001 31.71 14.2801 32.12 14.7601 32.35C15.2201 32.57 15.6501 32.47 16.0501 32.16C16.6601 31.69 17.2801 31.23 17.9101 30.77C18.5201 30.32 19.1201 29.86 19.7401 29.4C20.6201 30.28 21.4701 31.13 22.3201 31.98C22.9901 32.65 23.5801 32.65 24.2501 31.98C25.1001 31.13 25.9501 30.28 26.8301 29.39C28.0901 30.33 29.3001 31.24 30.5201 32.16C30.9201 32.46 31.3401 32.56 31.8101 32.35C32.2901 32.13 32.4701 31.7 32.4701 31.19C32.4701 24.39 32.4701 17.6 32.4701 10.8Z" stroke="#B4B4B4"/>
<path d="M30 14.0002H18" stroke="#B4B4B4" stroke-linecap="round" stroke-linejoin="round"/>
<path d="M27 16.0002H18" stroke="#B4B4B4" stroke-linecap="round" stroke-linejoin="round"/>
<g filter="url(#filter0_d_9642_102700)">
<path d="M24 18.0002H18" stroke="#B4B4B4" stroke-linecap="round" stroke-linejoin="round"/>
</g>
<path d="M12.9301 24.68L8.11008 29.5C7.66008 29.95 6.93008 29.95 6.48008 29.5C6.03008 29.05 6.03008 28.32 6.48008 27.87L11.3001 23.05" fill="#B4B4B4"/>
<path d="M16.3901 25.8601C19.9901 25.8601 22.9001 22.9501 22.9001 19.3501C22.9001 15.7501 19.9901 12.8401 16.3901 12.8401C12.7901 12.8401 9.88013 15.7501 9.88013 19.3501C9.88013 22.9501 12.7901 25.8601 16.3901 25.8601Z" fill="#272727" fill-opacity="0.8"/>
<path fill-rule="evenodd" clip-rule="evenodd" d="M16.3901 24.8601C19.4301 24.8601 21.9001 22.3901 21.9001 19.3501C21.9001 16.3101 19.4301 13.8401 16.3901 13.8401C13.3501 13.8401 10.8801 16.3101 10.8801 19.3501C10.8801 22.3901 13.3501 24.8601 16.3901 24.8601ZM22.9001 19.3501C22.9001 22.9501 19.9901 25.8601 16.3901 25.8601C12.7901 25.8601 9.88013 22.9501 9.88013 19.3501C9.88013 15.7501 12.7901 12.8401 16.3901 12.8401C19.9901 12.8401 22.9001 15.7501 22.9001 19.3501Z" fill="#B4B4B4"/>
<path d="M16.39 16.42C16.2 16.42 16.07 16.54 15.96 16.64C15.85 16.74 15.75 16.82 15.65 16.84C15.56 16.85 15.37 16.76 15.19 16.66C15.1 16.61 15.01 16.57 14.92 16.55C14.82 16.54 14.71 16.57 14.64 16.67C14.55 16.81 14.59 16.98 14.67 17.12C14.75 17.26 14.88 17.39 15.01 17.51C15.27 17.74 15.56 17.92 15.56 17.92C15.58 17.93 15.6 17.94 15.61 17.94H17.15C17.15 17.94 17.19 17.94 17.2 17.92C17.2 17.92 17.49 17.74 17.75 17.51C17.88 17.39 18.01 17.26 18.09 17.12C18.17 16.98 18.21 16.81 18.12 16.67C18.06 16.57 17.94 16.53 17.84 16.55C17.74 16.56 17.66 16.61 17.57 16.66C17.39 16.75 17.21 16.85 17.11 16.84C17.01 16.83 16.92 16.74 16.8 16.64C16.69 16.54 16.55 16.42 16.37 16.42H16.39Z" fill="#B4B4B4"/>
<path d="M15.62 18.36C15.62 18.36 15.59 18.36 15.58 18.36C15.13 18.53 14.77 18.93 14.52 19.4C14.27 19.87 14.11 20.41 14.11 20.88C14.11 21.49 14.38 21.86 14.81 22.05C15.23 22.24 15.79 22.27 16.39 22.27C16.99 22.27 17.55 22.24 17.97 22.05C18.39 21.86 18.67 21.48 18.67 20.88C18.67 20.41 18.52 19.87 18.26 19.4C18 18.93 17.64 18.53 17.2 18.36C17.19 18.36 17.18 18.36 17.16 18.36H15.62Z" fill="#B4B4B4"/>
<defs>
<filter id="filter0_d_9642_102700" x="9.5" y="14.5002" width="23" height="17" filterUnits="userSpaceOnUse" color-interpolation-filters="sRGB">
<feFlood flood-opacity="0" result="BackgroundImageFix"/>
<feColorMatrix in="SourceAlpha" type="matrix" values="0 0 0 0 0 0 0 0 0 0 0 0 0 0 0 0 0 0 127 0" result="hardAlpha"/>
<feOffset dy="5"/>
<feGaussianBlur stdDeviation="4"/>
<feComposite in2="hardAlpha" operator="out"/>
<feColorMatrix type="matrix" values="0 0 0 0 0 0 0 0 0 0 0 0 0 0 0 0 0 0 0.45 0"/>
<feBlend mode="normal" in2="BackgroundImageFix" result="effect1_dropShadow_9642_102700"/>
<feBlend mode="normal" in="SourceGraphic" in2="effect1_dropShadow_9642_102700" result="shape"/>
</filter>
</defs>
</svg>
