<svg width="42" height="42" viewBox="0 0 42 42" fill="none" xmlns="http://www.w3.org/2000/svg">
<path d="M24.99 11.24V27.05C24.99 27.4439 24.6638 27.77 24.27 27.77H12.32C11.9261 27.77 11.6 27.4439 11.6 27.05V14.8584C11.6 14.4606 11.758 14.0791 12.0393 13.7978L14.8777 10.9594C15.159 10.6781 15.5406 10.52 15.9384 10.52H24.27C24.6638 10.52 24.99 10.8462 24.99 11.24Z" stroke="#B4B4B4"/>
<path d="M15.11 10.01L11.1 14.02H15.11V10.01Z" fill="#B4B4B4"/>
<path d="M29.4899 15.2398V31.0498C29.4899 31.7198 28.9399 32.2698 28.2699 32.2698H18.3201C17.2154 32.2698 16.32 31.3743 16.32 30.2697C16.32 29.0343 16.32 27.6639 16.32 27.2674H24.4998V14.0198H28.2699C28.9399 14.0198 29.4899 14.5698 29.4899 15.2398Z" fill="#B4B4B4"/>
</svg>
