<svg width="42" height="42" viewBox="0 0 42 42" fill="none" xmlns="http://www.w3.org/2000/svg">
<path d="M25.29 24.7999L21.46 28.6299C21.29 28.8099 21.2 29.0399 21.2 29.2799C21.2 29.5199 21.3 29.7599 21.48 29.9299C21.65 30.0999 21.89 30.1999 22.13 30.1899C22.37 30.1799 22.61 30.0899 22.78 29.9199L26.38 26.3099C26.43 26.2599 26.49 26.2199 26.56 26.1899C26.63 26.1599 26.7 26.1499 26.77 26.1499C26.84 26.1499 26.91 26.1599 26.98 26.1899C27.05 26.2199 27.11 26.2599 27.16 26.3099C27.21 26.3599 27.25 26.4199 27.28 26.4899C27.31 26.5599 27.32 26.6299 27.32 26.6999C27.32 26.7699 27.31 26.8399 27.28 26.9099C27.25 26.9799 27.21 27.0399 27.16 27.0899L23.54 30.7099C23.2 31.0399 22.75 31.2499 22.28 31.2799C21.81 31.3099 21.33 31.1799 20.95 30.8999H16.63C16.51 30.8999 16.38 30.8999 16.26 30.9399C16.14 30.9799 16.03 31.0399 15.94 31.1199C15.85 31.1999 15.77 31.2999 15.72 31.4099C15.67 31.5199 15.64 31.6399 15.63 31.7699C15.63 31.8899 15.64 32.0199 15.69 32.1299C15.73 32.2499 15.8 32.3499 15.88 32.4399C15.97 32.5299 16.07 32.5999 16.18 32.6499C16.29 32.6999 16.42 32.7299 16.54 32.7299H24.53C24.97 32.7299 25.39 32.5499 25.7 32.2499L28.28 29.6699C28.47 29.4799 28.69 29.3299 28.93 29.2299C29.17 29.1299 29.44 29.0799 29.7 29.0799H31.52V24.3099H26.46C26.24 24.3099 26.03 24.3499 25.83 24.4399C25.63 24.5199 25.45 24.6499 25.29 24.7999Z" fill="#B4B4B4"/>
<path d="M33.9 23.59H33.13C32.99 23.59 32.86 23.64 32.76 23.73C32.66 23.82 32.6 23.95 32.59 24.08V29.33C32.6 29.46 32.66 29.59 32.76 29.67C32.86 29.76 32.99 29.81 33.12 29.81H33.89C34.03 29.81 34.17 29.75 34.27 29.65C34.37 29.55 34.43 29.41 34.43 29.27V24.12C34.43 24.05 34.42 23.98 34.39 23.91C34.36 23.84 34.32 23.79 34.27 23.74C34.22 23.69 34.16 23.65 34.1 23.62C34.03 23.59 33.96 23.58 33.89 23.58L33.9 23.59Z" fill="#B4B4B4"/>
<path d="M25.29 24.82L21.46 28.65C21.29 28.83 21.2 29.06 21.2 29.3C21.2 29.54 21.3 29.78 21.48 29.95C21.65 30.12 21.89 30.22 22.13 30.21C22.37 30.2 22.61 30.11 22.78 29.94L26.38 26.33C26.43 26.28 26.49 26.24 26.56 26.21C26.63 26.18 26.7 26.17 26.77 26.17C26.84 26.17 26.91 26.18 26.98 26.21C27.05 26.24 27.11 26.28 27.16 26.33C27.21 26.38 27.25 26.44 27.28 26.51C27.31 26.58 27.32 26.65 27.32 26.72C27.32 26.79 27.31 26.86 27.28 26.93C27.25 27 27.21 27.06 27.16 27.11L23.54 30.73C23.2 31.06 22.75 31.27 22.28 31.3C21.81 31.33 21.33 31.2 20.95 30.92H16.63C16.51 30.92 16.38 30.92 16.26 30.96C16.14 31 16.03 31.06 15.94 31.14C15.85 31.22 15.77 31.32 15.72 31.43C15.67 31.54 15.64 31.66 15.63 31.79C15.63 31.91 15.64 32.04 15.69 32.15C15.73 32.27 15.8 32.37 15.88 32.46C15.97 32.55 16.07 32.62 16.18 32.67C16.29 32.72 16.42 32.75 16.54 32.75H24.53C24.97 32.75 25.39 32.57 25.7 32.27L28.28 29.69C28.47 29.5 28.69 29.35 28.93 29.25C29.17 29.15 29.44 29.1 29.7 29.1H31.52V24.33H26.46C26.24 24.33 26.03 24.37 25.83 24.46C25.63 24.54 25.45 24.67 25.29 24.82Z" fill="#B4B4B4"/>
<path d="M33.9 23.6H33.13C32.99 23.6 32.86 23.65 32.76 23.74C32.66 23.83 32.6 23.96 32.59 24.09V29.34C32.6 29.47 32.66 29.6 32.76 29.68C32.86 29.77 32.99 29.82 33.12 29.82H33.89C34.03 29.82 34.17 29.76 34.27 29.66C34.37 29.56 34.43 29.42 34.43 29.28V24.13C34.43 24.06 34.42 23.99 34.39 23.92C34.36 23.85 34.32 23.8 34.27 23.75C34.22 23.7 34.16 23.66 34.1 23.63C34.03 23.6 33.96 23.59 33.89 23.59L33.9 23.6Z" fill="#B4B4B4"/>
<path d="M12.3238 11.2045C12.6056 11.1628 12.8533 11.0251 13.0577 10.8832C13.2647 10.7394 13.4733 10.5578 13.6693 10.3863L13.6693 10.3863L13.6745 10.3816C14.0915 10.0063 14.4271 9.73999 14.86 9.73999C15.2922 9.73999 15.6233 10.0122 16.0508 10.3863C16.2468 10.5578 16.4553 10.7394 16.6623 10.8832C16.8668 11.0252 17.1145 11.1629 17.3963 11.2045C17.5749 11.2313 17.7526 11.2018 17.8962 11.165C18.0473 11.1263 18.2048 11.0678 18.358 11.0027C18.6604 10.8743 18.9964 10.6982 19.3044 10.5369L19.3093 10.5343C19.3098 10.5341 19.3102 10.5338 19.3107 10.5336C19.6341 10.3667 19.8697 10.2504 20.1128 10.2147C20.2934 10.1881 20.4983 10.273 20.5846 10.4127L20.5851 10.4135C20.7504 10.6801 20.7115 11.0522 20.4659 11.4819C20.226 11.9017 19.8337 12.3189 19.3873 12.7167L19.3873 12.7167L19.3851 12.7187C18.6691 13.3647 17.884 13.889 17.6115 14.0647C17.5912 14.0778 17.5707 14.0918 17.5568 14.1013C17.5545 14.1029 17.5523 14.1043 17.5504 14.1056C17.5481 14.1072 17.546 14.1086 17.544 14.11H12.1994L12.1978 14.109C12.0336 14.0053 11.157 13.441 10.3621 12.7252C10.3323 12.6984 10.2998 12.6752 10.2652 12.6561M12.3238 11.2045C12.3235 11.2046 12.3231 11.2046 12.3228 11.2047L12.25 10.71L12.3249 11.2043C12.3246 11.2044 12.3242 11.2045 12.3238 11.2045ZM12.3238 11.2045C12.1452 11.2314 11.9675 11.2018 11.8238 11.165C11.6727 11.1263 11.5152 11.0678 11.362 11.0027C11.0597 10.8743 10.7236 10.6982 10.4156 10.5369L10.408 10.5329L10.3996 10.5285L10.3996 10.5284C10.0963 10.3621 9.85291 10.2508 9.60727 10.2147C9.42666 10.1881 9.22171 10.273 9.13542 10.4127L9.13497 10.4135C8.96968 10.6801 9.00858 11.0522 9.25414 11.4819C9.48178 11.8803 9.84686 12.2765 10.2652 12.6561M10.2652 12.6561C10.1879 12.6132 10.1002 12.59 10.01 12.59C10.126 12.59 10.2385 12.6326 10.3256 12.7104C10.3054 12.6923 10.2852 12.6742 10.2652 12.6561ZM17.5147 14.1289C17.5147 14.1289 17.5151 14.1286 17.5158 14.1283L17.5147 14.1289Z" stroke="#B4B4B4"/>
<path d="M12.3257 15.85H17.7343C19.1294 16.4066 20.3216 17.7479 21.187 19.4018C22.0556 21.0617 22.56 22.9627 22.56 24.58C22.56 24.7899 22.5486 24.9956 22.5301 25.1928L20.2464 27.4764C20.2021 27.5208 20.1597 27.5665 20.1194 27.6135C20.0171 27.7327 19.9159 27.8597 19.8211 27.9787C19.7934 28.0135 19.7662 28.0476 19.7397 28.0806C19.6182 28.232 19.505 28.3684 19.3888 28.4889C19.1558 28.7303 18.9452 28.8707 18.7115 28.9168C17.6238 29.1316 16.3815 29.19 15.03 29.19C12.8848 29.19 11.0402 29.0645 9.66309 28.4177C9.00197 28.1048 8.46891 27.6503 8.09794 27.0364C7.72592 26.4207 7.5 25.6164 7.5 24.58C7.5 22.9627 8.00444 21.0617 8.87302 19.4018C9.73842 17.7479 10.9306 16.4066 12.3257 15.85ZM22.51 25.41C22.51 25.3907 22.5112 25.3716 22.5135 25.3527L22.9827 25.4068L23.01 25.41H22.9859H22.51Z" stroke="#B4B4B4"/>
<path d="M15.97 23.9H15.83C15.79 23.99 15.73 24.08 15.67 24.16C15.61 24.24 15.53 24.31 15.43 24.38C15.33 24.44 15.22 24.49 15.08 24.53C14.95 24.57 14.78 24.59 14.59 24.59C14.34 24.59 14.12 24.55 13.9 24.46C13.69 24.37 13.51 24.24 13.35 24.07C13.2 23.89 13.07 23.68 12.98 23.43C12.89 23.18 12.85 22.89 12.85 22.57V22.43C12.85 22.11 12.9 21.82 12.99 21.57C13.09 21.32 13.21 21.11 13.37 20.94C13.54 20.76 13.72 20.63 13.94 20.54C14.16 20.45 14.39 20.4 14.63 20.4C14.95 20.4 15.2 20.46 15.39 20.58C15.58 20.7 15.72 20.87 15.83 21.08H15.97V20.17H14.72V19.26H15.97V18.88H16.98V19.26H17.46V20.17H16.98V24.47H15.97V23.89V23.9ZM14.91 23.63C15.22 23.63 15.48 23.53 15.67 23.33C15.87 23.13 15.97 22.86 15.97 22.54V22.44C15.97 22.11 15.87 21.85 15.67 21.66C15.48 21.46 15.22 21.36 14.91 21.36C14.6 21.36 14.34 21.46 14.14 21.66C13.94 21.86 13.85 22.12 13.85 22.45V22.55C13.85 22.89 13.95 23.15 14.14 23.35C14.34 23.54 14.59 23.64 14.91 23.64V23.63Z" fill="#B4B4B4"/>
<path d="M16.67 25.47H13.34V26.14H16.67V25.47Z" fill="#B4B4B4"/>
</svg>
