<svg width="42" height="42" viewBox="0 0 42 42" fill="none" xmlns="http://www.w3.org/2000/svg">
<path d="M0 21C0 14.4768 0 11.2152 1.06569 8.64243C2.4866 5.21204 5.21204 2.4866 8.64243 1.06569C11.2152 0 14.4768 0 21 0C27.5232 0 30.7848 0 33.3576 1.06569C36.788 2.4866 39.5134 5.21204 40.9343 8.64243C42 11.2152 42 14.4768 42 21C42 27.5232 42 30.7848 40.9343 33.3576C39.5134 36.788 36.788 39.5134 33.3576 40.9343C30.7848 42 27.5232 42 21 42C14.4768 42 11.2152 42 8.64243 40.9343C5.21204 39.5134 2.4866 36.788 1.06569 33.3576C0 30.7848 0 27.5232 0 21Z" fill="#959595" fill-opacity="0.25"/>
<path d="M30.21 25.48H23.8V32.37H30.21V25.48Z" fill="#959595"/>
<path d="M29.5848 9.93994H13.7852C13.0754 9.93994 12.5 10.6115 12.5 11.4399V31.3099C12.5 32.1383 13.0754 32.8099 13.7852 32.8099H29.5848C30.2946 32.8099 30.87 32.1383 30.87 31.3099V11.4399C30.87 10.6115 30.2946 9.93994 29.5848 9.93994Z" fill="#959595"/>
<path d="M29.1101 28.6602C28.7501 28.6602 28.6101 29.0502 28.6101 29.5602C28.6101 30.0902 28.7701 30.4502 29.1101 30.4502C29.4201 30.4502 29.5801 30.1402 29.5801 29.5602C29.5801 29.0402 29.4401 28.6602 29.1001 28.6602H29.1101Z" fill="#FAFAFA"/>
<path d="M24.9399 26.3501C24.5799 26.3501 24.4399 26.7401 24.4399 27.2401C24.4399 27.7701 24.6099 28.1301 24.9399 28.1301C25.2499 28.1301 25.4099 27.8201 25.4099 27.2401C25.4099 26.7301 25.2799 26.3501 24.9299 26.3501H24.9399Z" fill="#FAFAFA"/>
<path d="M27.02 22.3999C23.71 22.3999 21.02 25.0899 21.02 28.3999C21.02 31.7099 23.71 34.3999 27.02 34.3999C30.33 34.3999 33.02 31.7099 33.02 28.3999C33.02 25.0899 30.33 22.3999 27.02 22.3999ZM23.32 27.2699C23.32 26.3299 23.93 25.5299 24.96 25.5299C25.99 25.5299 26.55 26.2699 26.55 27.1699C26.55 28.3199 25.76 28.9499 24.92 28.9499C24.01 28.9499 23.32 28.2799 23.32 27.2799V27.2699ZM25.83 31.2699H25.04L28.2 25.5299H28.99L25.83 31.2699ZM29.09 31.2699C28.18 31.2699 27.49 30.5999 27.49 29.5899C27.49 28.6499 28.1 27.8499 29.13 27.8499C30.16 27.8499 30.72 28.5899 30.72 29.4999C30.72 30.6499 29.93 31.2799 29.09 31.2799V31.2699Z" fill="#FAFAFA"/>
<path d="M19.52 8.5801C19.52 7.7601 20.18 7.1001 21 7.1001H22.29C23.11 7.1001 23.77 7.7601 23.77 8.5801V9.9201H19.52V8.5801Z" fill="#FAFAFA"/>
<path d="M15.2 17.3003H23.8" stroke="#FAFAFA" stroke-width="1.4" stroke-linecap="round"/>
<path d="M15.2 20.3003H20.8" stroke="#FAFAFA" stroke-width="1.4" stroke-linecap="round"/>
<path d="M15.2 14.3003H27.8" stroke="#FAFAFA" stroke-width="1.4" stroke-linecap="round"/>
</svg>
