<svg width="42" height="42" viewBox="0 0 42 42" fill="none" xmlns="http://www.w3.org/2000/svg">
<g clip-path="url(#clip0_8352_15441)">
<path d="M0 21C0 14.4768 0 11.2152 1.06569 8.64243C2.4866 5.21204 5.21204 2.4866 8.64243 1.06569C11.2152 0 14.4768 0 21 0C27.5232 0 30.7848 0 33.3576 1.06569C36.788 2.4866 39.5134 5.21204 40.9343 8.64243C42 11.2152 42 14.4768 42 21C42 27.5232 42 30.7848 40.9343 33.3576C39.5134 36.788 36.788 39.5134 33.3576 40.9343C30.7848 42 27.5232 42 21 42C14.4768 42 11.2152 42 8.64243 40.9343C5.21204 39.5134 2.4866 36.788 1.06569 33.3576C0 30.7848 0 27.5232 0 21Z" fill="#959595" fill-opacity="0.25"/>
<mask id="mask0_8352_15441" style="mask-type:luminance" maskUnits="userSpaceOnUse" x="0" y="0" width="42" height="42">
<path d="M42 0H0V42H42V0Z" fill="white"/>
</mask>
<g mask="url(#mask0_8352_15441)">
<path d="M29.0848 9.42969H13.2852C12.5754 9.42969 12 10.1013 12 10.9297V30.7997C12 31.6281 12.5754 32.2997 13.2852 32.2997H29.0848C29.7946 32.2997 30.37 31.6281 30.37 30.7997V10.9297C30.37 10.1013 29.7946 9.42969 29.0848 9.42969Z" fill="#959595"/>
<path d="M31.32 25.5H21.23V30.82H31.32V25.5Z" fill="#959595"/>
<path d="M26.2299 27.1099C26.0799 27.1099 25.9799 27.1199 25.9299 27.1299V28.0699C25.9799 28.0699 26.0499 28.0799 26.1499 28.0799C26.5399 28.0799 26.7799 27.8799 26.7799 27.5699C26.7799 27.2999 26.5899 27.1099 26.2199 27.1099H26.2299Z" fill="#FAFAFA"/>
<path d="M26.27 21.9097C22.96 21.9097 20.27 24.5997 20.27 27.9097C20.27 31.2197 22.96 33.9097 26.27 33.9097C29.58 33.9097 32.27 31.2197 32.27 27.9097C32.27 24.5997 29.58 21.9097 26.27 21.9097ZM24.35 27.1497H22.96V27.8397H24.27V28.6497H22.96V30.0697H21.96V26.3397H24.36V27.1497H24.35ZM27.45 28.4197C27.15 28.6897 26.71 28.8097 26.2 28.8097C26.11 28.8097 26.02 28.8097 25.96 28.7997V30.0697H24.97V26.3897C25.24 26.3497 25.63 26.3097 26.2 26.3097C26.74 26.3097 27.12 26.3997 27.38 26.5997C27.63 26.7897 27.81 27.1197 27.81 27.4997C27.81 27.8797 27.68 28.2097 27.45 28.4197ZM30.03 27.1697V30.0697H29.03V27.1697H28.08V26.3297H31V27.1697H30.03Z" fill="#FAFAFA"/>
<path d="M18.75 8.06984C18.75 7.24984 19.41 6.58984 20.23 6.58984H21.52C22.34 6.58984 23 7.24984 23 8.06984V9.40984H18.75V8.06984Z" fill="#FAFAFA"/>
<path d="M14.7 17.2998H23.3" stroke="#FAFAFA" stroke-width="1.4" stroke-linecap="round"/>
<path d="M14.7 20.2998H20.3" stroke="#FAFAFA" stroke-width="1.4" stroke-linecap="round"/>
<path d="M14.7 14.2998H27.3" stroke="#FAFAFA" stroke-width="1.4" stroke-linecap="round"/>
</g>
</g>
<defs>
<clipPath id="clip0_8352_15441">
<path d="M0 21C0 14.4768 0 11.2152 1.06569 8.64243C2.4866 5.21204 5.21204 2.4866 8.64243 1.06569C11.2152 0 14.4768 0 21 0C27.5232 0 30.7848 0 33.3576 1.06569C36.788 2.4866 39.5134 5.21204 40.9343 8.64243C42 11.2152 42 14.4768 42 21C42 27.5232 42 30.7848 40.9343 33.3576C39.5134 36.788 36.788 39.5134 33.3576 40.9343C30.7848 42 27.5232 42 21 42C14.4768 42 11.2152 42 8.64243 40.9343C5.21204 39.5134 2.4866 36.788 1.06569 33.3576C0 30.7848 0 27.5232 0 21Z" fill="white"/>
</clipPath>
</defs>
</svg>
