<svg width="42" height="42" viewBox="0 0 42 42" fill="none" xmlns="http://www.w3.org/2000/svg">
<rect width="42" height="42" rx="14" fill="#959595" fill-opacity="0.25"/>
<rect x="11.2778" y="15.0117" width="19.4444" height="10.8885" fill="#FAFAFA"/>
<path d="M33.243 11.5775C33.243 11.1245 32.8757 10.7572 32.4227 10.7572H21.8206V9.82029C21.8206 9.36727 21.4533 9 21.0003 9C20.5473 9 20.18 9.36727 20.18 9.82029V10.7572H9.57788C9.12485 10.7572 8.75757 11.1245 8.75757 11.5775L8.75757 27.0558H33.243V11.5775ZM29.5555 16.6735L26.3924 19.8365C26.1428 20.0861 25.7615 20.1482 25.4455 19.9902L22.8112 18.6731L20.0662 21.418C19.8166 21.6677 19.4351 21.7296 19.1193 21.5717L16.4851 20.2546L13.74 22.9995C13.4195 23.32 12.9002 23.3198 12.5799 22.9995C12.2595 22.6793 12.2595 22.1598 12.5799 21.8395L15.743 18.6765C15.9927 18.4268 16.3741 18.3649 16.6899 18.5228L19.3242 19.8399L22.0692 17.0949C22.3188 16.8454 22.7001 16.7832 23.0161 16.9413L25.6504 18.2584L28.3954 15.5134C28.7157 15.1931 29.2351 15.1931 29.5555 15.5134C29.8759 15.8338 29.8759 16.3532 29.5555 16.6735Z" fill="#959595"/>
<path d="M15.2441 31.3117C15.0526 31.7223 15.23 32.2104 15.6406 32.402C16.0509 32.5934 16.5393 32.4161 16.7309 32.0055L19.0559 27.2778H17.2455L15.2441 31.3117Z" fill="#FAFAFA"/>
<path d="M25.5328 27.2778H23.7224L26.0583 32.0055C26.2499 32.4161 26.7382 32.5934 27.1486 32.402C27.5591 32.2104 27.7366 31.7223 27.545 31.3117L25.5328 27.2778Z" fill="#FAFAFA"/>
<path d="M34.1797 27.0371H7.82031C7.36728 27.0371 7 27.4044 7 27.8574C7 28.3104 7.36728 28.6777 7.82031 28.6777H34.1797C34.6327 28.6777 35 28.3104 35 27.8574C35 27.4044 34.6327 27.0371 34.1797 27.0371Z" fill="#FAFAFA"/>
</svg>
