<svg width="42" height="42" viewBox="0 0 42 42" fill="none" xmlns="http://www.w3.org/2000/svg">
<rect width="42" height="42" rx="14" fill="#959595" fill-opacity="0.25"/>
<path d="M33.3633 14.8517H31.5222C29.9563 11.1337 26.5084 8.43179 22.539 7.91576C18.6053 7.39135 14.7404 8.90541 12.2118 11.9532C11.4685 12.8493 10.8789 13.8235 10.4471 14.8517H8.63672C7.18277 14.8517 6 16.0345 6 17.4885V21.0041C6 22.458 7.18277 23.6408 8.63672 23.6408H12.2462L11.8685 22.4881C10.769 19.1304 11.3879 15.6997 13.5654 13.0759C15.7052 10.4966 18.9727 9.22035 22.3107 9.6581C25.8408 10.1179 28.9049 12.6145 30.119 16.0199L30.1264 16.0396C30.3221 16.5597 30.4594 17.0945 30.5384 17.6447C30.8019 19.2883 30.6517 20.9543 30.1049 22.4624L30.1011 22.4728C28.744 26.3259 25.0939 28.9142 21.0172 28.9142C19.5537 28.9142 18.3633 30.097 18.3633 31.551C18.3633 33.0049 19.5461 34.1877 21 34.1877C22.4539 34.1877 23.6367 33.0049 23.6367 31.551V30.3656C27.1461 29.5315 30.0939 27.0437 31.5107 23.6407H33.3633C34.8172 23.6407 36 22.458 36 21.004V17.4884C36 16.0345 34.8172 14.8517 33.3633 14.8517Z" fill="#959595"/>
<path d="M13.0898 25.3984V27.1562H21C25.3619 27.1562 28.9102 23.608 28.9102 19.2461C28.9102 14.8842 25.3619 11.3359 21 11.3359C16.6381 11.3359 13.0898 14.8842 13.0898 19.2461C13.0898 21.0245 13.6872 22.7429 14.779 24.1325C14.567 24.8731 13.8906 25.3984 13.0898 25.3984ZM23.6367 18.3672H25.3945V20.125H23.6367V18.3672ZM20.1211 18.3672H21.8789V20.125H20.1211V18.3672ZM16.6055 18.3672H18.3633V20.125H16.6055V18.3672Z" fill="#ABABAB"/>
</svg>
