<svg width="42" height="42" viewBox="0 0 42 42" fill="none" xmlns="http://www.w3.org/2000/svg">
<g clip-path="url(#clip0_8801_46870)">
<path d="M0 21C0 14.4768 0 11.2152 1.06569 8.64243C2.4866 5.21204 5.21204 2.4866 8.64243 1.06569C11.2152 0 14.4768 0 21 0V0C27.5232 0 30.7848 0 33.3576 1.06569C36.788 2.4866 39.5134 5.21204 40.9343 8.64243C42 11.2152 42 14.4768 42 21V21C42 27.5232 42 30.7848 40.9343 33.3576C39.5134 36.788 36.788 39.5134 33.3576 40.9343C30.7848 42 27.5232 42 21 42V42C14.4768 42 11.2152 42 8.64243 40.9343C5.21204 39.5134 2.4866 36.788 1.06569 33.3576C0 30.7848 0 27.5232 0 21V21Z" fill="#CACACA" fill-opacity="0.3"/>
<g filter="url(#filter0_d_8801_46870)">
<path d="M19.86 18.3398H20.85C21.18 18.3398 21.49 18.4498 21.74 18.6598C22.31 18.5798 22.85 18.4298 23.31 18.2198C23.44 18.0198 23.56 17.7998 23.67 17.5798V15.3598C23.67 14.8598 23.85 14.3898 24.17 14.0398C23.71 11.3598 21.42 9.31982 18.67 9.31982C15.92 9.31982 13.63 11.3598 13.17 14.0398C13.49 14.3998 13.67 14.8598 13.67 15.3598V17.5798C14.59 19.4598 16.48 20.7598 18.67 20.7598C18.7 20.7598 18.74 20.7598 18.77 20.7598C18.56 20.4998 18.43 20.1798 18.43 19.8198C18.43 19.0098 19.07 18.3498 19.86 18.3498V18.3398Z" fill="url(#paint0_linear_8801_46870)"/>
<path d="M11.42 19.13H11.48C12.19 19.13 12.77 18.57 12.77 17.87V15.37C12.77 14.88 12.48 14.45 12.05 14.25C12.23 10.86 15.13 8.16 18.67 8.16C22.21 8.16 25.1 10.86 25.29 14.25C24.86 14.46 24.57 14.88 24.57 15.37V17.87C24.57 18.04 24.6 18.19 24.66 18.34C23.91 18.86 22.81 19.23 21.58 19.34C21.44 19.13 21.2 19 20.93 19H19.9C19.47 19 19.13 19.34 19.13 19.75C19.13 20.16 19.48 20.5 19.9 20.5H20.93C21.23 20.5 21.48 20.33 21.61 20.09C23.04 19.98 24.29 19.56 25.16 18.93C25.36 19.06 25.6 19.13 25.85 19.13H25.91C26.62 19.13 27.2 18.57 27.2 17.87V15.37C27.2 14.87 26.9 14.44 26.46 14.24C26.27 10.22 22.84 7 18.65 7C14.46 7 11.03 10.22 10.84 14.24C10.4 14.44 10.1 14.87 10.1 15.37V17.87C10.1 18.56 10.68 19.12 11.39 19.12L11.42 19.13Z" fill="url(#paint1_linear_8801_46870)"/>
<path d="M32.15 24.3901H28.43C28.05 24.3901 27.71 24.6101 27.57 24.9401C27.43 25.2701 27.51 25.6501 27.77 25.9001L28.97 27.0401L25.17 30.6501L22.11 27.7401C21.81 27.4501 21.33 27.4001 20.96 27.6101L11.19 33.3501C10.75 33.6101 10.62 34.1501 10.89 34.5701C11.07 34.8401 11.37 34.9901 11.68 34.9901C11.85 34.9901 12.02 34.9501 12.17 34.8601L21.31 29.4801L24.51 32.5201C24.87 32.8701 25.46 32.8701 25.83 32.5201L30.29 28.2801L31.49 29.4201C31.67 29.5901 31.91 29.6801 32.15 29.6801C32.27 29.6801 32.39 29.6601 32.51 29.6101C32.86 29.4701 33.08 29.1501 33.08 28.7901V25.2501C33.08 24.7601 32.66 24.3701 32.15 24.3701V24.3901Z" fill="url(#paint2_linear_8801_46870)"/>
<path fill-rule="evenodd" clip-rule="evenodd" d="M14.36 21.8401H22.93C24.55 21.9901 26.01 22.6801 27.12 23.7301C26.88 23.9301 26.67 24.1801 26.54 24.4901C26.2 25.2601 26.4 26.1401 27 26.7101L27.35 27.0401L25.17 29.1101L22.88 26.9301C22.21 26.2901 21.18 26.1901 20.4 26.6501L10.72 32.3401C9.04997 32.0101 7.96997 31.1301 7.96997 28.8601C7.96997 25.1801 10.78 22.1601 14.38 21.8301L14.36 21.8401Z" fill="url(#paint3_linear_8801_46870)"/>
<path d="M32.1499 20.2699H31.9699C31.9199 20.3899 31.8499 20.4999 31.7699 20.6099C31.6999 20.7099 31.5899 20.7999 31.4599 20.8799C31.3399 20.9599 31.1899 21.0299 31.0099 21.0699C30.8399 21.1199 30.6299 21.1399 30.3899 21.1399C30.0799 21.1399 29.7899 21.0899 29.5199 20.9799C29.2599 20.8699 29.0199 20.6999 28.8199 20.4799C28.6199 20.2599 28.4699 19.9899 28.3499 19.6699C28.2399 19.3499 28.1899 18.9899 28.1899 18.5699V18.3899C28.1899 17.9799 28.2499 17.6199 28.3599 17.2999C28.4799 16.9799 28.6399 16.7099 28.8499 16.4999C29.0599 16.2799 29.2999 16.1099 29.5699 15.9899C29.8499 15.8699 30.1399 15.8199 30.4399 15.8199C30.8499 15.8199 31.1699 15.8999 31.4099 16.0499C31.6499 16.1999 31.8299 16.4099 31.9699 16.6899H32.1499V15.5299H30.5699V14.3699H32.1499V13.8799H33.4299V14.3699H34.0399V15.5299H33.4299V20.9899H32.1499V20.2599V20.2699ZM30.8099 19.9199C31.2099 19.9199 31.5299 19.7899 31.7699 19.5399C32.0199 19.2799 32.1499 18.9499 32.1499 18.5299V18.4099C32.1499 17.9999 32.0199 17.6599 31.7699 17.4099C31.5299 17.1499 31.1999 17.0199 30.8099 17.0199C30.4199 17.0199 30.0799 17.1499 29.8299 17.3999C29.5899 17.6399 29.4599 17.9799 29.4599 18.4099V18.5299C29.4599 18.9599 29.5799 19.2999 29.8299 19.5499C30.0799 19.7899 30.4099 19.9199 30.8099 19.9199Z" fill="url(#paint4_linear_8801_46870)"/>
<path d="M28.8199 21.8501H33.0499V22.7001H28.8199V21.8501Z" fill="url(#paint5_linear_8801_46870)"/>
</g>
</g>
<defs>
<filter id="filter0_d_8801_46870" x="-0.0300293" y="3" width="42.0699" height="43.9902" filterUnits="userSpaceOnUse" color-interpolation-filters="sRGB">
<feFlood flood-opacity="0" result="BackgroundImageFix"/>
<feColorMatrix in="SourceAlpha" type="matrix" values="0 0 0 0 0 0 0 0 0 0 0 0 0 0 0 0 0 0 127 0" result="hardAlpha"/>
<feOffset dy="4"/>
<feGaussianBlur stdDeviation="4"/>
<feComposite in2="hardAlpha" operator="out"/>
<feColorMatrix type="matrix" values="0 0 0 0 0 0 0 0 0 0 0 0 0 0 0 0 0 0 0.1 0"/>
<feBlend mode="normal" in2="BackgroundImageFix" result="effect1_dropShadow_8801_46870"/>
<feBlend mode="normal" in="SourceGraphic" in2="effect1_dropShadow_8801_46870" result="shape"/>
</filter>
<linearGradient id="paint0_linear_8801_46870" x1="18.67" y1="20.7598" x2="18.67" y2="9.31982" gradientUnits="userSpaceOnUse">
<stop stop-color="#D9D9D9"/>
<stop offset="0.5028" stop-color="#F2F2F2"/>
<stop offset="1" stop-color="white"/>
</linearGradient>
<linearGradient id="paint1_linear_8801_46870" x1="18.65" y1="20.5" x2="18.65" y2="7" gradientUnits="userSpaceOnUse">
<stop stop-color="#858585"/>
<stop offset="1" stop-color="#D1D1D1"/>
</linearGradient>
<linearGradient id="paint2_linear_8801_46870" x1="21.9148" y1="34.9901" x2="21.9148" y2="24.3701" gradientUnits="userSpaceOnUse">
<stop stop-color="#D9D9D9"/>
<stop offset="0.5028" stop-color="#F2F2F2"/>
<stop offset="1" stop-color="white"/>
</linearGradient>
<linearGradient id="paint3_linear_8801_46870" x1="17.66" y1="32.3401" x2="17.66" y2="21.8301" gradientUnits="userSpaceOnUse">
<stop stop-color="#858585"/>
<stop offset="1" stop-color="#D1D1D1"/>
</linearGradient>
<linearGradient id="paint4_linear_8801_46870" x1="31.1149" y1="21.1399" x2="31.1149" y2="13.8799" gradientUnits="userSpaceOnUse">
<stop stop-color="#D9D9D9"/>
<stop offset="0.5028" stop-color="#F2F2F2"/>
<stop offset="1" stop-color="white"/>
</linearGradient>
<linearGradient id="paint5_linear_8801_46870" x1="30.9349" y1="22.7001" x2="30.9349" y2="21.8501" gradientUnits="userSpaceOnUse">
<stop stop-color="#D9D9D9"/>
<stop offset="0.5028" stop-color="#F2F2F2"/>
<stop offset="1" stop-color="white"/>
</linearGradient>
<clipPath id="clip0_8801_46870">
<path d="M0 21C0 14.4768 0 11.2152 1.06569 8.64243C2.4866 5.21204 5.21204 2.4866 8.64243 1.06569C11.2152 0 14.4768 0 21 0V0C27.5232 0 30.7848 0 33.3576 1.06569C36.788 2.4866 39.5134 5.21204 40.9343 8.64243C42 11.2152 42 14.4768 42 21V21C42 27.5232 42 30.7848 40.9343 33.3576C39.5134 36.788 36.788 39.5134 33.3576 40.9343C30.7848 42 27.5232 42 21 42V42C14.4768 42 11.2152 42 8.64243 40.9343C5.21204 39.5134 2.4866 36.788 1.06569 33.3576C0 30.7848 0 27.5232 0 21V21Z" fill="white"/>
</clipPath>
</defs>
</svg>
