<svg width="42" height="42" viewBox="0 0 42 42" fill="none" xmlns="http://www.w3.org/2000/svg">
<path d="M0 21C0 14.4768 0 11.2152 1.06569 8.64243C2.4866 5.21204 5.21204 2.4866 8.64243 1.06569C11.2152 0 14.4768 0 21 0C27.5232 0 30.7848 0 33.3576 1.06569C36.788 2.4866 39.5134 5.21204 40.9343 8.64243C42 11.2152 42 14.4768 42 21C42 27.5232 42 30.7848 40.9343 33.3576C39.5134 36.788 36.788 39.5134 33.3576 40.9343C30.7848 42 27.5232 42 21 42C14.4768 42 11.2152 42 8.64243 40.9343C5.21204 39.5134 2.4866 36.788 1.06569 33.3576C0 30.7848 0 27.5232 0 21Z" fill="#959595" fill-opacity="0.25"/>
<path d="M25.5401 23.5598L21.7101 27.3898C21.5401 27.5698 21.4501 27.7998 21.4501 28.0398C21.4501 28.2798 21.5501 28.5198 21.7301 28.6898C21.9001 28.8598 22.1401 28.9598 22.3801 28.9498C22.6201 28.9398 22.8601 28.8498 23.0301 28.6798L26.6301 25.0698C26.6801 25.0198 26.7401 24.9798 26.8101 24.9498C26.8801 24.9198 26.9501 24.9098 27.0201 24.9098C27.0901 24.9098 27.1601 24.9198 27.2301 24.9498C27.3001 24.9798 27.3601 25.0198 27.4101 25.0698C27.4601 25.1198 27.5001 25.1798 27.5301 25.2498C27.5601 25.3198 27.5701 25.3898 27.5701 25.4598C27.5701 25.5298 27.5601 25.5998 27.5301 25.6698C27.5001 25.7398 27.4601 25.7998 27.4101 25.8498L23.7901 29.4698C23.4501 29.7998 23.0001 30.0098 22.5301 30.0398C22.0601 30.0698 21.5801 29.9398 21.2001 29.6598H16.8801C16.7601 29.6598 16.6301 29.6598 16.5101 29.6998C16.3901 29.7398 16.2801 29.7998 16.1901 29.8798C16.1001 29.9598 16.0201 30.0598 15.9701 30.1698C15.9201 30.2798 15.8901 30.3998 15.8801 30.5298C15.8801 30.6498 15.8901 30.7798 15.9401 30.8898C15.9801 31.0098 16.0501 31.1098 16.1301 31.1998C16.2201 31.2898 16.3201 31.3598 16.4301 31.4098C16.5401 31.4598 16.6701 31.4898 16.7901 31.4898H24.7801C25.2201 31.4898 25.6401 31.3098 25.9501 31.0098L28.5301 28.4298C28.7201 28.2398 28.9401 28.0898 29.1801 27.9898C29.4201 27.8898 29.6901 27.8398 29.9501 27.8398H31.7701V23.0698H26.7101C26.4901 23.0698 26.2801 23.1098 26.0801 23.1998C25.8801 23.2798 25.7001 23.4098 25.5401 23.5598Z" fill="#FAFAFA"/>
<path d="M34.1401 22.3498H33.3701C33.2301 22.3498 33.1001 22.3998 33.0001 22.4898C32.9001 22.5798 32.8401 22.7098 32.8301 22.8398V28.0898C32.8401 28.2198 32.9001 28.3498 33.0001 28.4298C33.1001 28.5198 33.2301 28.5698 33.3601 28.5698H34.1301C34.2701 28.5698 34.4101 28.5098 34.5101 28.4098C34.6101 28.3098 34.6701 28.1698 34.6701 28.0298V22.8798C34.6701 22.8098 34.6601 22.7398 34.6301 22.6698C34.6001 22.5998 34.5601 22.5498 34.5101 22.4998C34.4601 22.4498 34.4001 22.4098 34.3401 22.3798C34.2701 22.3498 34.2001 22.3398 34.1301 22.3398L34.1401 22.3498Z" fill="#959595" fill-opacity="0.25"/>
<path d="M20.3401 27.4598C20.4401 27.1198 20.6001 26.8098 20.8501 26.5598L24.6401 22.7698C25.0501 21.7498 25.2701 20.6398 25.2701 19.4698C25.2701 14.5198 21.2601 10.5098 16.3101 10.5098C11.3601 10.5098 7.3501 14.5198 7.3501 19.4698C7.3501 24.4198 11.3601 28.4298 16.3101 28.4298C17.7601 28.4298 19.1301 28.0798 20.3401 27.4698V27.4598Z" fill="#959595"/>
<path d="M15.3601 23.2199C15.0601 23.2199 14.7801 23.1099 14.5601 22.9099L11.6901 20.3599C11.1901 19.9199 11.1401 19.1599 11.5801 18.6599C12.0201 18.1599 12.7801 18.1099 13.2801 18.5499L15.2701 20.3199L19.2401 16.0799C19.7001 15.5899 20.4601 15.5699 20.9501 16.0199C21.4401 16.4799 21.4601 17.2399 21.0101 17.7299L16.2301 22.8299C16.0001 23.0699 15.6801 23.2099 15.3501 23.2099L15.3601 23.2199Z" fill="#FAFAFA"/>
</svg>
