<svg width="42" height="42" viewBox="0 0 42 42" fill="none" xmlns="http://www.w3.org/2000/svg">
<path d="M0 21C0 14.4768 0 11.2152 1.06569 8.64243C2.4866 5.21204 5.21204 2.4866 8.64243 1.06569C11.2152 0 14.4768 0 21 0V0C27.5232 0 30.7848 0 33.3576 1.06569C36.788 2.4866 39.5134 5.21204 40.9343 8.64243C42 11.2152 42 14.4768 42 21V21C42 27.5232 42 30.7848 40.9343 33.3576C39.5134 36.788 36.788 39.5134 33.3576 40.9343C30.7848 42 27.5232 42 21 42V42C14.4768 42 11.2152 42 8.64243 40.9343C5.21204 39.5134 2.4866 36.788 1.06569 33.3576C0 30.7848 0 27.5232 0 21V21Z" fill="#959595" fill-opacity="0.25"/>
<path d="M11.4948 30.2091C11.6658 30.2099 11.8143 30.091 11.8518 29.9241C11.8758 29.8169 11.901 29.7145 11.9373 29.6163C12.1653 28.9994 12.7665 28.5745 13.4396 28.573C15.9056 28.5674 18.3716 28.5659 20.8372 28.5741C21.6322 28.5768 22.2705 29.1333 22.4193 29.9118C22.4193 29.9125 22.4197 29.9136 22.4197 29.9144C22.4527 30.0861 22.6027 30.2103 22.7778 30.2099C22.9743 30.2095 23.1708 30.2091 23.3673 30.2106C23.7671 30.2133 24.0915 30.5354 24.0945 30.9348C24.0967 31.2509 24.0956 31.567 24.0948 31.8831C24.0937 32.4123 23.8586 32.65 23.3328 32.6504C19.6466 32.6511 15.9607 32.6508 12.2745 32.6508C11.8136 32.6508 11.3531 32.653 10.8922 32.6496C10.4321 32.6463 10.1853 32.3969 10.1816 31.9338C10.1786 31.5839 10.1767 31.234 10.1823 30.8841C10.1887 30.4731 10.446 30.2178 10.8577 30.211C11.0688 30.2076 11.28 30.2084 11.4948 30.2091Z" fill="url(#paint0_linear_10632_22068)"/>
<path d="M23.3673 30.2106C23.1708 30.2091 22.9743 30.2095 22.7778 30.2099L11.4948 30.2091L11.4929 30.2091C11.2787 30.2084 11.0682 30.2076 10.8577 30.211C10.446 30.2178 10.1887 30.4731 10.1823 30.8841C10.1767 31.234 10.1786 31.5839 10.1816 31.9338C10.1853 32.3969 10.4321 32.6463 10.8922 32.6496C11.3531 32.653 11.8136 32.6508 12.2745 32.6508C15.9607 32.6508 19.6466 32.6511 23.3328 32.6504C23.8586 32.65 24.0937 32.4123 24.0948 31.8831C24.0956 31.567 24.0967 31.2509 24.0945 30.9348C24.0915 30.5354 23.7671 30.2133 23.3673 30.2106Z" fill="#959595"/>
<path d="M20.3199 9.79515C20.281 9.40732 20.4203 9.00514 20.7372 8.72197C21.2432 8.26958 22.0244 8.32149 22.5046 8.80173L27.6299 13.9271C28.1102 14.4069 28.1621 15.1885 27.7097 15.6944C27.4265 16.0114 27.0244 16.1502 26.6365 16.1118L20.6434 10.1187C20.5354 10.0106 20.2617 10.1213 20.1156 10.1661C18.6622 10.6117 13.7487 15.4526 13.3394 16.9423L19.17 22.7739C19.3262 22.93 19.2618 23.2441 19.2847 23.4637C19.3235 23.8515 19.1842 24.2537 18.8673 24.5369C18.3613 24.9892 17.5802 24.9373 17.0999 24.4571L11.975 19.3313C11.4948 18.8515 11.4429 18.07 11.8952 17.564C12.1784 17.247 12.5806 17.1082 12.9684 17.1466C13.1222 17.1626 13.2977 17.0917 13.3394 16.9423C13.7487 15.4526 18.6622 10.6117 20.1156 10.1661C20.2642 10.1205 20.3359 9.94918 20.3199 9.79515Z" fill="#F8F8F8"/>
<path d="M13.3392 16.9421C13.7485 15.4524 18.662 10.6115 20.1154 10.1658C20.2615 10.121 20.5351 10.0104 20.6432 10.1185L26.6363 16.1115C26.4823 16.0955 26.3333 16.1761 26.2654 16.3158C25.9466 16.9776 25.3041 17.8167 24.6195 18.6102C24.4364 18.8225 24.4631 19.1453 24.6825 19.3201C26.5175 20.7821 28.3785 22.255 30.1833 23.6829L31.7013 24.8843C31.857 25.0076 32.0128 25.1312 32.1681 25.2549L32.1882 25.2709C32.5601 25.5664 32.9443 25.8717 33.3269 26.1677C33.9291 26.6332 34.2655 27.2717 34.3266 28.0646C34.3461 28.8074 34.062 29.5282 33.5468 30.0434C33.291 30.2992 32.9931 30.4929 32.6605 30.6191C31.6313 31.0103 30.5015 30.7288 29.7833 29.9025C28.6164 28.5609 27.4487 27.2202 26.2806 25.8799L25.895 25.4373C24.6789 24.0415 23.4628 22.6456 22.2487 21.2483C22.2075 21.2014 22.1358 21.1985 22.0901 21.2409C21.3056 21.968 20.4645 22.6229 19.4887 23.0925C19.3493 23.1603 19.2688 23.3097 19.2845 23.4634L13.2927 17.4708C13.1843 17.3624 13.2984 17.0898 13.3392 16.9421Z" fill="#959595"/>
<path d="M19.0317 21.032L16.2501 18.2503L17.4356 17.0648C18.0563 16.4441 18.8467 16.4325 19.4423 17.0282L19.4462 17.032C20.0418 17.6277 20.0226 18.4103 19.4019 19.031L18.9238 19.5091L19.7392 20.3245L19.0317 21.032ZM17.8076 17.7761L17.4992 18.0845L18.3917 18.9771L18.7002 18.6686C18.999 18.3698 19.0202 18.0363 18.731 17.7472L18.7272 17.7433C18.438 17.4542 18.1064 17.4773 17.8076 17.7761Z" fill="white"/>
<path d="M22.6751 17.4889C21.983 18.1809 21.2389 18.312 20.6761 17.8108L20.6394 17.778L21.2968 17.1207L21.3218 17.138C21.5358 17.2826 21.8616 17.192 22.1334 16.9202C22.4148 16.6388 22.4688 16.3458 22.2953 16.1723L22.2934 16.1703C22.1353 16.0123 21.9387 16.0624 21.5493 16.3245L21.21 16.5559C20.5565 17.005 19.9937 17.0243 19.5676 16.5983L19.5657 16.5964C19.0298 16.0605 19.1493 15.2508 19.7874 14.6128C20.4852 13.9149 21.2081 13.8475 21.7382 14.3275L21.7806 14.366L21.1233 15.0234L21.1002 15.0041C20.8958 14.8422 20.6028 14.9077 20.3484 15.1621C20.0881 15.4224 20.0592 15.6865 20.2192 15.8465L20.2211 15.8484C20.3715 15.9988 20.5816 15.9467 20.9363 15.7038L21.2756 15.4725C21.9792 14.9964 22.4919 14.9617 22.9372 15.407L22.9392 15.4089C23.4943 15.9641 23.4115 16.7525 22.6751 17.4889Z" fill="white"/>
<defs>
<linearGradient id="paint0_linear_10632_22068" x1="17.1372" y1="32.6515" x2="17.1372" y2="28.5684" gradientUnits="userSpaceOnUse">
<stop stop-color="#D9D9D9"/>
<stop offset="0.5028" stop-color="#F2F2F2"/>
<stop offset="1" stop-color="white"/>
</linearGradient>
</defs>
</svg>
