<svg width="42" height="42" viewBox="0 0 42 42" fill="none" xmlns="http://www.w3.org/2000/svg">
<rect width="42" height="42" rx="14" fill="#959595" fill-opacity="0.25"/>
<path d="M32.4137 20.5018H21.4945V9.5808C21.4945 9.11646 21.1188 8.74072 20.6546 8.74072C13.7071 8.74072 7.99951 14.3932 7.99951 21.3419C7.99951 28.2905 13.7071 33.999 20.6546 33.999C27.6021 33.999 33.2536 28.2905 33.2536 21.3419C33.2536 20.8775 32.8779 20.5018 32.4137 20.5018Z" fill="#959595"/>
<path d="M21.1882 6C20.6448 6 20.2051 6.4398 20.2051 6.98331V20.8152C20.2051 21.3587 20.6448 21.7985 21.1882 21.7985H35.0178C35.5612 21.7985 36.001 21.3587 36.001 20.8152C36.001 12.6818 29.3203 6 21.1882 6Z" fill="#FAFAFA"/>
</svg>
