<svg width="42" height="42" viewBox="0 0 42 42" fill="none" xmlns="http://www.w3.org/2000/svg">
<rect width="42" height="42" rx="14" fill="#959595" fill-opacity="0.25"/>
<path d="M32.471 28.0157C32.471 34.2132 29.1071 34.4065 20.3794 34.4065C20.3758 34.4065 20.374 34.4065 20.3704 34.4065C11.6427 34.4065 8.27881 34.2132 8.27881 28.0157C8.27881 22.8045 12.9397 19.8268 17.2945 12.8579H20.3704H20.3794H23.4553C27.8101 19.8268 32.471 22.8045 32.471 28.0157Z" fill="#959595"/>
<path d="M25.7688 7.63782L23.7936 12.044H16.6804L14.7184 7.78732C14.681 7.47142 15.0999 7.21432 15.5096 7.19412C15.9192 7.17402 16.3082 7.32182 16.6748 7.46302C17.0414 7.60422 17.4342 7.74702 17.842 7.71842C18.721 7.65792 19.4168 6.83117 20.2623 7.03112C20.7729 7.15042 21.0516 7.61422 21.5641 7.73192C22.2019 7.87982 22.7836 7.43612 23.3933 7.23112C24.1883 6.96224 25.1964 7.13532 25.7688 7.63782Z" fill="#959595"/>
<path fill-rule="evenodd" clip-rule="evenodd" d="M16.6809 11.8541C16.6809 11.8541 16.6813 11.8537 16.6824 11.8541H23.7937L23.4724 12.9956C23.4724 12.9956 22.7585 12.9393 22.0566 12.9084L23.8494 17.8551C23.9772 18.2076 23.7161 18.5799 23.3411 18.5799C23.0886 18.5799 22.8698 18.4052 22.8139 18.1589L21.6778 13.151L21.2731 16.7335C21.2411 17.0168 21.0014 17.2309 20.7163 17.2309C20.3428 17.2309 20.0738 16.8724 20.1784 16.5138L21.235 12.8888H20.242H20.2326H19.0661C18.2479 12.897 17.0024 12.9952 17.0024 12.9952L16.6814 11.856L16.6809 11.8541Z" fill="#FAFAFA"/>
<path d="M33.7307 33.4618L33.7834 32.7477L33.6003 32.7351C33.1208 31.64 31.4079 30.7323 29.3068 30.5669C27.1483 30.3969 25.272 31.0637 24.6769 32.1187L24.5339 32.1085L24.4843 32.7336C24.3751 34.1318 26.3552 35.4277 28.9083 35.6292C31.463 35.83 33.6215 34.8593 33.7307 33.4618Z" fill="#959595"/>
<path d="M28.9588 35.0053C26.4056 34.8038 24.4256 33.5079 24.5356 32.1097C24.6449 30.7122 26.8042 29.7415 29.3565 29.943C31.9096 30.1446 33.8897 31.4405 33.7804 32.8387C33.6704 34.2353 31.5119 35.2061 28.9588 35.0053Z" fill="#959595"/>
<path d="M29.2867 30.3726C31.5136 30.5481 33.2603 31.6126 33.2878 32.7833C33.2948 32.7439 33.3003 32.7037 33.3035 32.6636C33.3994 31.4464 31.6095 30.3135 29.3064 30.1317C27.0032 29.9498 25.0577 30.7891 24.9626 32.0062C24.9595 32.0464 24.9587 32.0865 24.9595 32.1267C25.1678 30.9749 27.0598 30.1962 29.2867 30.3726Z" fill="#959595"/>
<path d="M28.9596 34.5376C31.1865 34.7132 33.0785 33.9346 33.2876 32.7836C33.2609 31.6129 31.5135 30.5484 29.2866 30.3729C27.0597 30.1973 25.1676 30.9759 24.9585 32.127C24.9853 33.2969 26.7327 34.3621 28.9596 34.5376Z" fill="#ABABAB"/>
<path opacity="0.6" d="M33.2031 33.9322C33.2031 33.9322 33.1844 33.9621 33.1396 34.0125C33.1175 34.0377 33.09 34.0684 33.0539 34.1015C33.0358 34.118 33.0177 34.1377 32.9965 34.1558C32.9753 34.1731 32.9517 34.192 32.9281 34.2125C32.8314 34.292 32.7041 34.377 32.5524 34.4652C32.4761 34.5085 32.392 34.5479 32.304 34.5927C32.2152 34.6337 32.1177 34.6699 32.0186 34.7116C31.9172 34.7478 31.8095 34.7809 31.6995 34.8179C31.5879 34.851 31.4708 34.8762 31.3505 34.9069C31.2907 34.9234 31.2286 34.9328 31.1666 34.9439C31.1037 34.9549 31.0408 34.9667 30.9771 34.9777C30.8498 35.0045 30.7177 35.0139 30.5841 35.0297C30.5173 35.0368 30.4497 35.0446 30.3821 35.0517C30.3137 35.0572 30.2453 35.0596 30.1761 35.0635C30.0378 35.069 29.8979 35.0816 29.7564 35.0809C29.6149 35.0793 29.4726 35.0777 29.3303 35.0769L29.2234 35.0761C29.188 35.0746 29.1519 35.0722 29.1165 35.0698L28.9019 35.0572C28.7596 35.0478 28.6174 35.0383 28.4751 35.0289C28.3312 35.0179 28.189 34.9998 28.049 34.9777C27.7684 34.9336 27.4964 34.8675 27.2386 34.7896C26.98 34.7124 26.7363 34.6171 26.5115 34.5132C26.2867 34.4093 26.0823 34.2936 25.9023 34.1755C25.7215 34.0574 25.5651 33.9361 25.4354 33.8188C25.3686 33.7621 25.312 33.7023 25.2562 33.6511C25.2035 33.5968 25.1564 33.5456 25.1131 33.5C25.0314 33.4055 24.9693 33.3291 24.93 33.2748C24.8899 33.2213 24.8687 33.1929 24.8687 33.1929C24.8687 33.1929 24.8922 33.2197 24.9363 33.2701C24.9591 33.2945 24.985 33.3268 25.0188 33.3614C25.0526 33.3961 25.0911 33.4362 25.1336 33.4819C25.1792 33.5244 25.2279 33.5724 25.2837 33.6228C25.3411 33.6708 25.4 33.7259 25.4692 33.7779C25.6036 33.8865 25.7648 33.996 25.9463 34.1054C26.3095 34.3235 26.7646 34.525 27.274 34.6683C27.5279 34.7415 27.7959 34.7974 28.0703 34.8407C28.2078 34.8612 28.3462 34.8785 28.4853 34.888C28.6268 34.8958 28.7691 34.9045 28.9106 34.9132L29.122 34.9273C29.1574 34.9297 29.1928 34.9328 29.2281 34.9336L29.3343 34.9352C29.475 34.9368 29.6157 34.9391 29.7548 34.9415C29.8248 34.9447 29.8939 34.9384 29.9631 34.9368C30.0323 34.9344 30.1007 34.9321 30.169 34.9297C30.2374 34.9265 30.305 34.9265 30.3726 34.9218C30.4394 34.9155 30.5063 34.9092 30.5723 34.9037C30.7036 34.8903 30.8348 34.8825 30.9598 34.8604C31.0227 34.851 31.0856 34.8415 31.1469 34.8321C31.2082 34.8226 31.2695 34.8155 31.3285 34.8006C31.4464 34.7738 31.5627 34.751 31.6736 34.7234C31.7828 34.6919 31.8897 34.6636 31.9911 34.6321C32.091 34.5959 32.1869 34.5628 32.2772 34.5282C32.3653 34.4888 32.451 34.455 32.528 34.4164C32.6813 34.3392 32.8118 34.2621 32.9116 34.1889C32.9619 34.1526 33.0067 34.1196 33.0429 34.0881C33.0814 34.0582 33.1105 34.0298 33.1341 34.0062C33.182 33.9605 33.2031 33.9322 33.2031 33.9322Z" fill="#FAFAFA"/>
<path d="M29.1028 30.7356L28.944 29.9397L28.7404 29.9822C27.8852 28.9335 25.7408 28.4651 23.3992 28.924C20.993 29.3956 19.149 30.6939 18.8204 32.026L18.6616 32.059L18.7976 32.7558C19.1026 34.3138 21.6565 35.1255 24.502 34.5673C27.3467 34.0091 29.407 32.2936 29.1028 30.7356Z" fill="#959595"/>
<path d="M24.3653 33.8707C21.519 34.4281 18.9659 33.6172 18.6609 32.0591C18.3567 30.5011 20.417 28.7856 23.2625 28.2282C26.108 27.6708 28.6619 28.4817 28.9669 30.0397C29.2711 31.5978 27.2108 33.3133 24.3653 33.8707Z" fill="#959595"/>
<path d="M23.3165 28.718C25.7988 28.2314 28.0273 28.8621 28.4117 30.1304C28.4078 30.0847 28.4015 30.0399 28.3928 29.995C28.1279 28.6393 25.8319 27.9472 23.2638 28.4503C20.6958 28.9534 18.8297 30.4611 19.0946 31.8168C19.1032 31.8616 19.1142 31.9057 19.1276 31.949C19.0073 30.6295 20.8341 29.2045 23.3165 28.718Z" fill="#959595"/>
<path d="M24.2238 33.3615C26.7061 32.875 28.5337 31.45 28.4119 30.1305C28.0275 28.8622 25.799 28.2324 23.3167 28.7182C20.8343 29.2047 19.0067 30.6296 19.1278 31.9491C19.5129 33.2175 21.7414 33.8481 24.2238 33.3615Z" fill="#ABABAB"/>
<path opacity="0.6" d="M28.6699 31.4092C28.6699 31.4092 28.6581 31.4478 28.6243 31.5163C28.6078 31.5501 28.5873 31.5926 28.5583 31.6399C28.5441 31.6635 28.53 31.6903 28.5127 31.7162C28.4946 31.7422 28.4749 31.7698 28.4545 31.7989C28.3727 31.9154 28.2603 32.0469 28.1212 32.1886C28.0512 32.2595 27.9711 32.328 27.8893 32.4035C27.8044 32.4752 27.7093 32.5445 27.6134 32.62C27.5136 32.6909 27.4067 32.7594 27.2974 32.8326C27.1858 32.9027 27.0655 32.9657 26.9437 33.0357C26.884 33.0719 26.8187 33.1011 26.7543 33.1326C26.6898 33.1641 26.6246 33.1956 26.5577 33.227C26.4273 33.2948 26.2858 33.3451 26.1451 33.4034C26.0743 33.4317 26.0028 33.4601 25.9312 33.4892C25.8581 33.516 25.7843 33.5396 25.7104 33.5648C25.561 33.6128 25.4125 33.6687 25.2584 33.7112C25.1043 33.753 24.9487 33.7947 24.7923 33.8372L24.6751 33.8687C24.6358 33.8781 24.5957 33.886 24.5564 33.8947L24.3183 33.9458C24.1603 33.9789 24.0023 34.012 23.8443 34.045C23.6839 34.0765 23.5228 34.1001 23.364 34.119C23.0448 34.1568 22.7281 34.1671 22.4231 34.1608C22.1173 34.1553 21.8225 34.1253 21.5458 34.0805C21.2691 34.0356 21.0113 33.9718 20.7786 33.897C20.546 33.823 20.3377 33.7388 20.1608 33.6498C20.0704 33.6089 19.991 33.5609 19.9156 33.5215C19.8417 33.479 19.7749 33.4373 19.7135 33.401C19.5948 33.3223 19.5044 33.2577 19.4455 33.2105C19.3858 33.1641 19.3535 33.1397 19.3535 33.1397C19.3535 33.1397 19.3873 33.1617 19.451 33.2034C19.4832 33.2231 19.521 33.2507 19.5681 33.2782C19.6153 33.3058 19.6695 33.3381 19.73 33.3735C19.7921 33.4065 19.8605 33.4435 19.936 33.4821C20.0138 33.5168 20.0948 33.5593 20.1852 33.5947C20.3652 33.6719 20.5743 33.7427 20.8054 33.8073C21.2676 33.934 21.8257 34.0159 22.4246 34.0167C22.7241 34.0191 23.0338 33.9986 23.3451 33.9624C23.5008 33.9435 23.6572 33.9191 23.812 33.8876C23.9693 33.8545 24.1265 33.8199 24.2837 33.786L24.5195 33.7372C24.5588 33.7285 24.5981 33.7207 24.6374 33.712L24.753 33.6813C24.9078 33.6404 25.0611 33.6002 25.2144 33.5609C25.2914 33.5427 25.3653 33.5152 25.4392 33.4916C25.5139 33.468 25.5877 33.4443 25.6616 33.4215C25.7355 33.3979 25.8094 33.3758 25.8809 33.3506C25.9517 33.3239 26.0224 33.2971 26.0924 33.2696C26.2323 33.2152 26.3722 33.1672 26.5027 33.105C26.5687 33.0751 26.634 33.046 26.6984 33.0176C26.7629 32.9885 26.8274 32.9617 26.8871 32.9279C27.0081 32.8633 27.1276 32.8035 27.24 32.7389C27.3501 32.6712 27.4586 32.6074 27.5592 32.5429C27.6566 32.4728 27.751 32.4075 27.839 32.3421C27.9231 32.2721 28.0064 32.2099 28.0788 32.1437C28.2226 32.0123 28.3413 31.8887 28.4286 31.7792C28.4726 31.7241 28.5111 31.6745 28.541 31.6288C28.5732 31.5848 28.5976 31.5446 28.6156 31.5115C28.6549 31.447 28.6699 31.4092 28.6699 31.4092Z" fill="#FAFAFA"/>
<g filter="url(#filter0_d_8352_15143)">
<path d="M21.4897 25.4514H21.3334C21.2871 25.5498 21.2292 25.6453 21.1598 25.7378C21.0961 25.8247 21.0093 25.9028 20.8994 25.9722C20.7952 26.0417 20.6679 26.0966 20.5174 26.1372C20.3728 26.1777 20.1963 26.1979 19.9879 26.1979C19.7217 26.1979 19.4729 26.1516 19.2414 26.059C19.0157 25.9606 18.8161 25.8189 18.6424 25.6337C18.4746 25.4427 18.3415 25.2112 18.2431 24.9392C18.1505 24.6672 18.1042 24.3547 18.1042 24.0017V23.8455C18.1042 23.4983 18.1534 23.1887 18.2518 22.9167C18.356 22.6447 18.4949 22.4161 18.6685 22.2309C18.8479 22.0399 19.0533 21.8953 19.2848 21.7969C19.5221 21.6985 19.7709 21.6493 20.0313 21.6493C20.3786 21.6493 20.6534 21.7159 20.856 21.849C21.0585 21.9763 21.2177 22.1586 21.3334 22.3958H21.4897V21.4062H20.1355V20.4167H21.4897V20H22.5834V20.4167H23.1042V21.4062H22.5834V26.0764H21.4897V25.4514ZM20.3438 25.1562C20.6853 25.1562 20.9602 25.0492 21.1685 24.8351C21.3826 24.6152 21.4897 24.3287 21.4897 23.9757V23.8715C21.4897 23.5185 21.3826 23.235 21.1685 23.0208C20.9602 22.8009 20.6853 22.691 20.3438 22.691C20.0024 22.691 19.7246 22.798 19.5105 23.0122C19.3022 23.2205 19.198 23.5069 19.198 23.8715V23.9757C19.198 24.3403 19.3022 24.6296 19.5105 24.8437C19.7246 25.0521 20.0024 25.1562 20.3438 25.1562Z" fill="#FAFAFA"/>
<path d="M18.6409 26.7998H22.2578V27.5232H18.6409V26.7998Z" fill="#FAFAFA"/>
</g>
<defs>
<filter id="filter0_d_8352_15143" x="14.1042" y="17" width="13" height="15.5234" filterUnits="userSpaceOnUse" color-interpolation-filters="sRGB">
<feFlood flood-opacity="0" result="BackgroundImageFix"/>
<feColorMatrix in="SourceAlpha" type="matrix" values="0 0 0 0 0 0 0 0 0 0 0 0 0 0 0 0 0 0 127 0" result="hardAlpha"/>
<feOffset dy="1"/>
<feGaussianBlur stdDeviation="2"/>
<feComposite in2="hardAlpha" operator="out"/>
<feColorMatrix type="matrix" values="0 0 0 0 0 0 0 0 0 0 0 0 0 0 0 0 0 0 0.25 0"/>
<feBlend mode="normal" in2="BackgroundImageFix" result="effect1_dropShadow_8352_15143"/>
<feBlend mode="normal" in="SourceGraphic" in2="effect1_dropShadow_8352_15143" result="shape"/>
</filter>
</defs>
</svg>
