<svg width="42" height="42" viewBox="0 0 42 42" fill="none" xmlns="http://www.w3.org/2000/svg">
<rect width="42" height="42" rx="14" fill="#959595" fill-opacity="0.25"/>
<path fill-rule="evenodd" clip-rule="evenodd" d="M31.7273 16.7505C31.3002 17.179 30.7206 17.4186 30.1164 17.4186H28.6512L26.9908 19.6326C26.8059 19.8787 26.5167 20.0233 26.2094 20.0233C25.902 20.0233 25.6129 19.8787 25.428 19.6326L23.7675 17.4186H18.2326L16.5722 19.6326C16.3872 19.8787 16.0981 20.0233 15.7908 20.0233C15.4834 20.0233 15.1943 19.8787 15.0094 19.6326L13.3489 17.4186H11.8838C11.2795 17.4186 10.7 17.179 10.2728 16.7505C9.84436 16.3233 9.60474 15.7438 9.60474 15.1395V9.27907C9.60474 8.02102 10.6245 7 11.8838 7H30.1164C31.3757 7 32.3954 8.02102 32.3954 9.27907V15.1395C32.3954 15.7438 32.1558 16.3233 31.7273 16.7505ZM15.5351 9C15.2396 9 15.0001 9.23956 15.0001 9.53507C15.0001 9.83059 15.2396 10.0701 15.5351 10.0701H26.2366C26.5321 10.0701 26.7717 9.83059 26.7717 9.53507C26.7717 9.23956 26.5321 9 26.2366 9H15.5351ZM16.0001 11.9336C16.0001 11.6381 16.2396 11.3986 16.5351 11.3986H24.5612C24.8567 11.3986 25.0963 11.6381 25.0963 11.9336C25.0963 12.2291 24.8567 12.4687 24.5612 12.4687H16.5351C16.2396 12.4687 16.0001 12.2291 16.0001 11.9336ZM18.6015 13.7972C18.2693 13.7972 18.0001 14.0664 18.0001 14.3986C18.0001 14.7307 18.2693 15 18.6015 15H23.3767C23.7088 15 23.9781 14.7307 23.9781 14.3986C23.9781 14.0664 23.7088 13.7972 23.3767 13.7972H18.6015Z" fill="#FAFAFA"/>
<path d="M21.0001 28.6511C22.978 28.6511 24.5815 27.0476 24.5815 25.0697C24.5815 23.0917 22.978 21.4883 21.0001 21.4883C19.0221 21.4883 17.4187 23.0917 17.4187 25.0697C17.4187 27.0476 19.0221 28.6511 21.0001 28.6511Z" fill="#959595"/>
<path d="M28.814 27.1861C30.4323 27.1861 31.7443 25.8742 31.7443 24.2559C31.7443 22.6376 30.4323 21.3257 28.814 21.3257C27.1957 21.3257 25.8838 22.6376 25.8838 24.2559C25.8838 25.8742 27.1957 27.1861 28.814 27.1861Z" fill="#959595"/>
<path d="M12.535 27.1861C14.1533 27.1861 15.4652 25.8742 15.4652 24.2559C15.4652 22.6376 14.1533 21.3257 12.535 21.3257C10.9166 21.3257 9.60474 22.6376 9.60474 24.2559C9.60474 25.8742 10.9166 27.1861 12.535 27.1861Z" fill="#959595"/>
<path fill-rule="evenodd" clip-rule="evenodd" d="M15.7907 35.0001H26.2093C26.2093 35.0001 27.1861 34.9233 27.1861 34.0064C27.1861 33.9049 27.1861 33.367 27.1861 32.721C27.1861 31.7716 26.8084 30.86 26.1377 30.188C25.4657 29.5173 24.5541 29.1396 23.6047 29.1396H18.3954C17.446 29.1396 16.5343 29.5173 15.8623 30.188C15.1916 30.86 14.814 31.7716 14.814 32.721V34.0064C14.814 34.9207 15.7868 35.0001 15.7907 35.0001Z" fill="#959595"/>
<path fill-rule="evenodd" clip-rule="evenodd" d="M13.5116 33.6979V32.7211C13.5116 31.4253 14.026 30.1842 14.9416 29.2674C15.3349 28.8741 15.7894 28.555 16.2817 28.318C15.7412 28.0067 15.1239 27.8374 14.4884 27.8374H10.5814C9.632 27.8374 8.72037 28.2151 8.04837 28.8858C7.37767 29.5578 7 30.4694 7 31.4188V32.7042C7 33.621 7.97674 33.6979 7.97674 33.6979H13.5116Z" fill="#959595"/>
<path fill-rule="evenodd" clip-rule="evenodd" d="M25.364 28.1656C25.993 28.4078 26.5713 28.7816 27.0583 29.2674C27.9739 30.1842 28.4883 31.4253 28.4883 32.7211V33.6979H33.372C33.372 33.6979 34.3488 33.621 34.3488 32.7042C34.3488 32.6026 34.3488 32.0648 34.3488 31.4188C34.3488 30.4694 33.9711 29.5578 33.3004 28.8858C32.6284 28.2151 31.7168 27.8374 30.7674 27.8374H26.8604C26.3382 27.8374 25.8289 27.9507 25.364 28.1656Z" fill="#959595"/>
</svg>
