<svg width="42" height="42" viewBox="0 0 42 42" fill="none" xmlns="http://www.w3.org/2000/svg">
<g clip-path="url(#clip0_8801_46857)">
<path d="M0 21C0 14.4768 0 11.2152 1.06569 8.64243C2.4866 5.21204 5.21204 2.4866 8.64243 1.06569C11.2152 0 14.4768 0 21 0V0C27.5232 0 30.7848 0 33.3576 1.06569C36.788 2.4866 39.5134 5.21204 40.9343 8.64243C42 11.2152 42 14.4768 42 21V21C42 27.5232 42 30.7848 40.9343 33.3576C39.5134 36.788 36.788 39.5134 33.3576 40.9343C30.7848 42 27.5232 42 21 42V42C14.4768 42 11.2152 42 8.64243 40.9343C5.21204 39.5134 2.4866 36.788 1.06569 33.3576C0 30.7848 0 27.5232 0 21V21Z" fill="#CACACA" fill-opacity="0.3"/>
<g filter="url(#filter0_d_8801_46857)">
<path d="M26.92 9.43021C24.71 7.64021 21.82 6.95021 18.98 7.54021C15.29 8.31021 12.38 11.3402 11.74 15.0702C11.03 19.1802 13.07 23.2202 16.72 25.0902V30.4002C16.72 32.7602 18.64 34.6702 20.99 34.6702C23.34 34.6702 25.26 32.7502 25.26 30.4002V25.0902C28.39 23.4902 30.39 20.2702 30.39 16.7302C30.39 13.8902 29.12 11.2302 26.91 9.43021H26.92Z" fill="url(#paint0_linear_8801_46857)"/>
<path d="M9.79998 21.0104L8.24998 21.7304C7.81998 21.9304 7.63998 22.4404 7.83998 22.8704C8.03998 23.2904 8.53998 23.4804 8.97998 23.2804L10.53 22.5604C10.96 22.3604 11.14 21.8504 10.94 21.4204C10.74 20.9904 10.23 20.8104 9.79998 21.0104ZM32.2 12.4404L33.75 11.7204C34.18 11.5204 34.36 11.0104 34.16 10.5804C33.96 10.1504 33.45 9.97036 33.02 10.1704L31.47 10.8904C31.04 11.0904 30.86 11.6004 31.06 12.0304C31.26 12.4504 31.76 12.6404 32.2 12.4404ZM10.52 10.9004L8.96998 10.1804C8.53998 9.98036 8.02998 10.1704 7.82998 10.5904C7.62998 11.0204 7.81998 11.5304 8.23998 11.7304L9.78998 12.4504C10.22 12.6504 10.73 12.4604 10.93 12.0404C11.13 11.6104 10.94 11.1004 10.52 10.9004ZM33.75 21.7304L32.2 21.0104C31.77 20.8104 31.26 21.0004 31.06 21.4204C30.86 21.8504 31.05 22.3604 31.47 22.5604L33.02 23.2804C33.45 23.4804 33.96 23.2904 34.16 22.8704C34.36 22.4404 34.17 21.9304 33.75 21.7304ZM24.42 14.1604C23.01 14.1604 21.86 15.3104 21.86 16.7204V17.5704H20.15V16.7204C20.15 15.3104 19 14.1604 17.59 14.1604C16.18 14.1604 15.03 15.3104 15.03 16.7204C15.03 18.1304 16.18 19.2804 17.59 19.2804H18.44V21.8404C18.44 22.3104 18.82 22.6904 19.29 22.6904C19.76 22.6904 20.14 22.3104 20.14 21.8404V19.2804H21.85V21.8404C21.85 22.3104 22.23 22.6904 22.7 22.6904C23.17 22.6904 23.55 22.3104 23.55 21.8404V19.2804H24.4C25.81 19.2804 26.96 18.1304 26.96 16.7204C26.96 15.3104 25.81 14.1604 24.4 14.1604H24.42ZM18.44 17.5804H17.59C17.12 17.5804 16.74 17.2004 16.74 16.7304C16.74 16.2604 17.12 15.8804 17.59 15.8804C18.06 15.8804 18.44 16.2604 18.44 16.7304V17.5804ZM24.42 17.5804H23.57V16.7304C23.57 16.2604 23.95 15.8804 24.42 15.8804C24.89 15.8804 25.27 16.2604 25.27 16.7304C25.27 17.2004 24.89 17.5804 24.42 17.5804ZM26.13 27.8304H15.88C15.41 27.8304 15.03 28.2104 15.03 28.6804C15.03 29.1504 15.41 29.5304 15.88 29.5304H26.13C26.6 29.5304 26.98 29.1504 26.98 28.6804C26.98 28.2104 26.6 27.8304 26.13 27.8304ZM9.82998 16.7304C9.82998 16.2604 9.44998 15.8804 8.97998 15.8804H7.26998C6.79998 15.8804 6.41998 16.2604 6.41998 16.7304C6.41998 17.2004 6.79998 17.5804 7.26998 17.5804H8.97998C9.44998 17.5804 9.82998 17.2004 9.82998 16.7304ZM34.73 15.8704H33.02C32.55 15.8704 32.17 16.2504 32.17 16.7204C32.17 17.1904 32.55 17.5704 33.02 17.5704H34.73C35.2 17.5704 35.58 17.1904 35.58 16.7204C35.58 16.2504 35.2 15.8704 34.73 15.8704Z" fill="white"/>
</g>
</g>
<defs>
<filter id="filter0_d_8801_46857" x="-1.58002" y="3.33398" width="45.16" height="43.3364" filterUnits="userSpaceOnUse" color-interpolation-filters="sRGB">
<feFlood flood-opacity="0" result="BackgroundImageFix"/>
<feColorMatrix in="SourceAlpha" type="matrix" values="0 0 0 0 0 0 0 0 0 0 0 0 0 0 0 0 0 0 127 0" result="hardAlpha"/>
<feOffset dy="4"/>
<feGaussianBlur stdDeviation="4"/>
<feComposite in2="hardAlpha" operator="out"/>
<feColorMatrix type="matrix" values="0 0 0 0 0 0 0 0 0 0 0 0 0 0 0 0 0 0 0.1 0"/>
<feBlend mode="normal" in2="BackgroundImageFix" result="effect1_dropShadow_8801_46857"/>
<feBlend mode="normal" in="SourceGraphic" in2="effect1_dropShadow_8801_46857" result="shape"/>
</filter>
<linearGradient id="paint0_linear_8801_46857" x1="20.9949" y1="34.6702" x2="20.9949" y2="7.33398" gradientUnits="userSpaceOnUse">
<stop stop-color="#858585"/>
<stop offset="1" stop-color="#D1D1D1"/>
</linearGradient>
<clipPath id="clip0_8801_46857">
<path d="M0 21C0 14.4768 0 11.2152 1.06569 8.64243C2.4866 5.21204 5.21204 2.4866 8.64243 1.06569C11.2152 0 14.4768 0 21 0V0C27.5232 0 30.7848 0 33.3576 1.06569C36.788 2.4866 39.5134 5.21204 40.9343 8.64243C42 11.2152 42 14.4768 42 21V21C42 27.5232 42 30.7848 40.9343 33.3576C39.5134 36.788 36.788 39.5134 33.3576 40.9343C30.7848 42 27.5232 42 21 42V42C14.4768 42 11.2152 42 8.64243 40.9343C5.21204 39.5134 2.4866 36.788 1.06569 33.3576C0 30.7848 0 27.5232 0 21V21Z" fill="white"/>
</clipPath>
</defs>
</svg>
