<svg width="42" height="42" viewBox="0 0 42 42" fill="none" xmlns="http://www.w3.org/2000/svg">
<g clip-path="url(#clip0_8352_15454)">
<path d="M0 21C0 14.4768 0 11.2152 1.06569 8.64243C2.4866 5.21204 5.21204 2.4866 8.64243 1.06569C11.2152 0 14.4768 0 21 0C27.5232 0 30.7848 0 33.3576 1.06569C36.788 2.4866 39.5134 5.21204 40.9343 8.64243C42 11.2152 42 14.4768 42 21C42 27.5232 42 30.7848 40.9343 33.3576C39.5134 36.788 36.788 39.5134 33.3576 40.9343C30.7848 42 27.5232 42 21 42C14.4768 42 11.2152 42 8.64243 40.9343C5.21204 39.5134 2.4866 36.788 1.06569 33.3576C0 30.7848 0 27.5232 0 21Z" fill="#959595" fill-opacity="0.25"/>
<mask id="mask0_8352_15454" style="mask-type:luminance" maskUnits="userSpaceOnUse" x="0" y="0" width="42" height="42">
<path d="M42 0H0V42H42V0Z" fill="white"/>
</mask>
<g mask="url(#mask0_8352_15454)">
<path d="M31.31 11.3398H11C9.34314 11.3398 8 12.6829 8 14.3398V27.6498C8 29.3067 9.34314 30.6498 11 30.6498H31.31C32.9669 30.6498 34.31 29.3067 34.31 27.6498V14.3398C34.31 12.6829 32.9669 11.3398 31.31 11.3398Z" fill="#FAFAFA"/>
<path d="M27.27 7H15.03C12.8209 7 11.03 8.79086 11.03 11V31C11.03 33.2091 12.8209 35 15.03 35H27.27C29.4791 35 31.27 33.2091 31.27 31V11C31.27 8.79086 29.4791 7 27.27 7Z" fill="#959595"/>
<path d="M14.63 11.7998H27.68C28.03 11.7998 28.31 12.1098 28.31 12.4998C28.31 12.8898 28.03 13.1998 27.68 13.1998H14.63C14.28 13.1998 14 12.8898 14 12.4998C14 12.1098 14.28 11.7998 14.63 11.7998Z" fill="#FAFAFA"/>
<path d="M14.52 15.2598H22.6C22.89 15.2598 23.12 15.5698 23.12 15.9598C23.12 16.3498 22.89 16.6598 22.6 16.6598H14.52C14.23 16.6598 14 16.3498 14 15.9598C14 15.5698 14.23 15.2598 14.52 15.2598Z" fill="#FAFAFA"/>
<path d="M22.0733 27.0293H21.9204C21.8733 27.1234 21.8145 27.2293 21.7439 27.3234C21.6734 27.4057 21.591 27.4881 21.4851 27.5587C21.3792 27.6293 21.2498 27.6881 21.0969 27.7234C20.944 27.7587 20.7675 27.7822 20.5557 27.7822C20.2852 27.7822 20.0381 27.7351 19.8028 27.641C19.5793 27.5469 19.3675 27.394 19.1911 27.2057C19.0264 27.0175 18.8852 26.7822 18.7911 26.4999C18.697 26.2293 18.6499 25.9117 18.6499 25.547V25.394C18.6499 25.0411 18.697 24.7234 18.8028 24.4529C18.9087 24.1823 19.0499 23.947 19.2264 23.7588C19.4028 23.5705 19.6146 23.4176 19.8499 23.3235C20.0852 23.2294 20.344 23.1705 20.6028 23.1705C20.9557 23.1705 21.2381 23.2411 21.4381 23.3705C21.6381 23.4999 21.8028 23.6882 21.9204 23.9235H22.0733V22.9235H20.6969V21.9235H22.0733V21.5H23.1792V21.9235H23.7086V22.9235H23.1792V27.6645H22.0733V27.0293ZM20.9087 26.7352C21.2498 26.7352 21.5322 26.6293 21.7439 26.4058C21.9557 26.1822 22.0733 25.8881 22.0733 25.5352V25.4293C22.0733 25.0764 21.9675 24.7823 21.7439 24.5705C21.5322 24.347 21.2498 24.2411 20.9087 24.2411C20.5675 24.2411 20.2852 24.347 20.0616 24.5705C19.8381 24.794 19.744 25.0764 19.744 25.4411V25.547C19.744 25.9117 19.8499 26.2058 20.0616 26.4293C20.2734 26.641 20.5557 26.7469 20.9087 26.7469V26.7352Z" fill="#FAFAFA"/>
<path d="M22.8497 28.771H19.1792V29.5004H22.8497V28.771Z" fill="#FAFAFA"/>
</g>
</g>
<defs>
<clipPath id="clip0_8352_15454">
<path d="M0 21C0 14.4768 0 11.2152 1.06569 8.64243C2.4866 5.21204 5.21204 2.4866 8.64243 1.06569C11.2152 0 14.4768 0 21 0C27.5232 0 30.7848 0 33.3576 1.06569C36.788 2.4866 39.5134 5.21204 40.9343 8.64243C42 11.2152 42 14.4768 42 21C42 27.5232 42 30.7848 40.9343 33.3576C39.5134 36.788 36.788 39.5134 33.3576 40.9343C30.7848 42 27.5232 42 21 42C14.4768 42 11.2152 42 8.64243 40.9343C5.21204 39.5134 2.4866 36.788 1.06569 33.3576C0 30.7848 0 27.5232 0 21Z" fill="white"/>
</clipPath>
</defs>
</svg>
