<svg width="42" height="42" viewBox="0 0 42 42" fill="none" xmlns="http://www.w3.org/2000/svg">
<path d="M0 21C0 14.4768 0 11.2152 1.06569 8.64243C2.4866 5.21204 5.21204 2.4866 8.64243 1.06569C11.2152 0 14.4768 0 21 0C27.5232 0 30.7848 0 33.3576 1.06569C36.788 2.4866 39.5134 5.21204 40.9343 8.64243C42 11.2152 42 14.4768 42 21C42 27.5232 42 30.7848 40.9343 33.3576C39.5134 36.788 36.788 39.5134 33.3576 40.9343C30.7848 42 27.5232 42 21 42C14.4768 42 11.2152 42 8.64243 40.9343C5.21204 39.5134 2.4866 36.788 1.06569 33.3576C0 30.7848 0 27.5232 0 21Z" fill="#959595" fill-opacity="0.25"/>
<path d="M12.89 9.83984H29.11C29.84 9.83984 30.4301 10.5098 30.4301 11.3398V31.2098C30.4301 32.0398 29.84 32.7098 29.11 32.7098H12.89C12.16 32.7098 11.5701 32.0398 11.5701 31.2098V11.3398C11.5701 10.5098 12.16 9.83984 12.89 9.83984Z" fill="#959595"/>
<path d="M19.3 8.48977C19.3 7.66977 19.9601 7.00977 20.7801 7.00977H22.0701C22.8901 7.00977 23.55 7.66977 23.55 8.48977V9.82977H19.3V8.48977Z" fill="#FAFAFA"/>
<path d="M31.0601 24.7698C29.9301 23.6398 28.4201 23.0098 26.8201 23.0098C25.2201 23.0098 23.71 23.6298 22.58 24.7698C21.45 25.8998 20.8201 27.4098 20.8201 29.0098C20.8201 30.6098 21.44 32.1198 22.58 33.2498C23.71 34.3798 25.2201 35.0098 26.8201 35.0098C28.4201 35.0098 29.9301 34.3898 31.0601 33.2498C32.1901 32.1198 32.8201 30.6098 32.8201 29.0098C32.8201 27.4098 32.2001 25.8998 31.0601 24.7698Z" fill="#FAFAFA"/>
<path d="M27.16 26.2695H26.46V28.8195H27.16V26.2695Z" fill="#959595"/>
<path d="M30.4 32.5997L30.15 32.8497L29.09 31.7897L29.59 31.2897L30.14 31.8397C30.74 31.1397 31.09 30.2797 31.17 29.3597H30.39V28.6597H31.17C31.09 27.7197 30.72 26.8597 30.14 26.1797L29.59 26.7297L29.09 26.2297L29.64 25.6797C28.96 25.0997 28.1 24.7297 27.16 24.6497V25.4297H26.46V24.6497C25.52 24.7297 24.66 25.0997 23.98 25.6797L24.53 26.2297L24.03 26.7297L23.48 26.1797C22.9 26.8597 22.53 27.7197 22.45 28.6597H23.23V29.3597H22.45C22.52 30.2797 22.88 31.1397 23.48 31.8397L24.03 31.2897L24.53 31.7897L23.47 32.8497L23.22 32.5997C22.26 31.6397 21.73 30.3697 21.73 29.0097C21.73 27.6497 22.26 26.3797 23.22 25.4197C24.18 24.4597 25.45 23.9297 26.81 23.9297C28.17 23.9297 29.44 24.4597 30.4 25.4197C31.36 26.3797 31.89 27.6497 31.89 29.0097C31.89 30.3697 31.36 31.6397 30.4 32.5997Z" fill="#959595"/>
<path d="M27.1901 32.9899H27.1001C27.0701 33.0399 27.0401 33.0999 27.0001 33.1499C26.9601 33.1999 26.92 33.2399 26.86 33.2799C26.8 33.3199 26.7301 33.3499 26.6501 33.3699C26.5701 33.3899 26.47 33.3999 26.36 33.3999C26.21 33.3999 26.07 33.3699 25.95 33.3199C25.82 33.2699 25.7101 33.1899 25.6201 33.0799C25.5301 32.9699 25.4501 32.8499 25.4001 32.6899C25.3501 32.5399 25.3201 32.3699 25.3201 32.1699V32.0799C25.3201 31.8899 25.3501 31.7199 25.4001 31.5599C25.4601 31.4099 25.5401 31.2799 25.6301 31.1799C25.7301 31.0699 25.8401 30.9899 25.9701 30.9399C26.1001 30.8899 26.2401 30.8599 26.3801 30.8599C26.5701 30.8599 26.7301 30.8999 26.8401 30.9699C26.9501 31.0399 27.04 31.1399 27.11 31.2699H27.2V30.7199H26.45V30.1699H27.2V29.9399H27.8101V30.1699H28.1001V30.7199H27.8101V33.3099H27.2V32.9599L27.1901 32.9899ZM26.5601 32.8299C26.7501 32.8299 26.9001 32.7699 27.0201 32.6499C27.1401 32.5299 27.2 32.3699 27.2 32.1699V32.1099C27.2 31.9099 27.1401 31.7599 27.0201 31.6399C26.9001 31.5199 26.7501 31.4599 26.5601 31.4599C26.3701 31.4599 26.2201 31.5199 26.1001 31.6399C25.9801 31.7599 25.9301 31.9099 25.9301 32.1199V32.1799C25.9301 32.3799 25.9901 32.5399 26.1001 32.6599C26.2201 32.7799 26.3701 32.8299 26.5601 32.8299Z" fill="#959595"/>
<path d="M27.6201 33.9399H25.6101V34.3399H27.6201V33.9399Z" fill="#959595"/>
<g filter="url(#filter0_d_8352_15345)">
<path d="M19.13 21.8398H14.21" stroke="#FAFAFA" stroke-width="1.4" stroke-linecap="round" stroke-linejoin="round"/>
</g>
<path d="M23.86 18.3398H14.21" stroke="#FAFAFA" stroke-width="1.4" stroke-linecap="round" stroke-linejoin="round"/>
<path d="M27.79 14.8398H14.21" stroke="#FAFAFA" stroke-width="1.4" stroke-linecap="round" stroke-linejoin="round"/>
<defs>
<filter id="filter0_d_8352_15345" x="5.51001" y="18.1396" width="22.3201" height="17.4004" filterUnits="userSpaceOnUse" color-interpolation-filters="sRGB">
<feFlood flood-opacity="0" result="BackgroundImageFix"/>
<feColorMatrix in="SourceAlpha" type="matrix" values="0 0 0 0 0 0 0 0 0 0 0 0 0 0 0 0 0 0 127 0" result="hardAlpha"/>
<feOffset dy="5"/>
<feGaussianBlur stdDeviation="4"/>
<feComposite in2="hardAlpha" operator="out"/>
<feColorMatrix type="matrix" values="0 0 0 0 0 0 0 0 0 0 0 0 0 0 0 0 0 0 0.45 0"/>
<feBlend mode="normal" in2="BackgroundImageFix" result="effect1_dropShadow_8352_15345"/>
<feBlend mode="normal" in="SourceGraphic" in2="effect1_dropShadow_8352_15345" result="shape"/>
</filter>
</defs>
</svg>
