<svg width="42" height="42" viewBox="0 0 42 42" fill="none" xmlns="http://www.w3.org/2000/svg">
<path d="M0 21C0 14.4768 0 11.2152 1.06569 8.64243C2.4866 5.21204 5.21204 2.4866 8.64243 1.06569C11.2152 0 14.4768 0 21 0C27.5232 0 30.7848 0 33.3576 1.06569C36.788 2.4866 39.5134 5.21204 40.9343 8.64243C42 11.2152 42 14.4768 42 21C42 27.5232 42 30.7848 40.9343 33.3576C39.5134 36.788 36.788 39.5134 33.3576 40.9343C30.7848 42 27.5232 42 21 42C14.4768 42 11.2152 42 8.64243 40.9343C5.21204 39.5134 2.4866 36.788 1.06569 33.3576C0 30.7848 0 27.5232 0 21Z" fill="#959595" fill-opacity="0.25"/>
<path d="M25.5799 24.8001L21.7499 28.6301C21.5799 28.8101 21.4899 29.0401 21.4899 29.2801C21.4899 29.5201 21.5899 29.7601 21.7699 29.9301C21.9399 30.1001 22.1799 30.2001 22.4199 30.1901C22.6599 30.1801 22.8999 30.0901 23.0699 29.9201L26.6699 26.3101C26.7199 26.2601 26.7799 26.2201 26.8499 26.1901C26.9199 26.1601 26.9899 26.1501 27.0599 26.1501C27.1299 26.1501 27.1999 26.1601 27.2699 26.1901C27.3399 26.2201 27.3999 26.2601 27.4499 26.3101C27.4999 26.3601 27.5399 26.4201 27.5699 26.4901C27.5999 26.5601 27.6099 26.6301 27.6099 26.7001C27.6099 26.7701 27.5999 26.8401 27.5699 26.9101C27.5399 26.9801 27.4999 27.0401 27.4499 27.0901L23.8299 30.7101C23.4899 31.0401 23.0399 31.2501 22.5699 31.2801C22.0999 31.3101 21.6199 31.1801 21.2399 30.9001H16.9199C16.7999 30.9001 16.6699 30.9001 16.5499 30.9401C16.4299 30.9801 16.3199 31.0401 16.2299 31.1201C16.1399 31.2001 16.0599 31.3001 16.0099 31.4101C15.9599 31.5201 15.9299 31.6401 15.9199 31.7701C15.9199 31.8901 15.9299 32.0201 15.9799 32.1301C16.0199 32.2501 16.0899 32.3501 16.1699 32.4401C16.2599 32.5301 16.3599 32.6001 16.4699 32.6501C16.5799 32.7001 16.7099 32.7301 16.8299 32.7301H24.8199C25.2599 32.7301 25.6799 32.5501 25.9899 32.2501L28.5699 29.6701C28.7599 29.4801 28.9799 29.3301 29.2199 29.2301C29.4599 29.1301 29.7299 29.0801 29.9899 29.0801H31.8099V24.3101H26.7499C26.5299 24.3101 26.3199 24.3501 26.1199 24.4401C25.9199 24.5201 25.7399 24.6501 25.5799 24.8001Z" fill="#FAFAFA"/>
<path d="M34.1799 23.5901H33.4099C33.2699 23.5901 33.1399 23.6401 33.0399 23.7301C32.9399 23.8201 32.8799 23.9501 32.8699 24.0801V29.3301C32.8799 29.4601 32.9399 29.5901 33.0399 29.6701C33.1399 29.7601 33.2699 29.8101 33.3999 29.8101H34.1699C34.3099 29.8101 34.4499 29.7501 34.5499 29.6501C34.6499 29.5501 34.7099 29.4101 34.7099 29.2701V24.1201C34.7099 24.0501 34.6999 23.9801 34.6699 23.9101C34.6399 23.8401 34.5999 23.7901 34.5499 23.7401C34.4999 23.6901 34.4399 23.6501 34.3799 23.6201C34.3099 23.5901 34.2399 23.5801 34.1699 23.5801L34.1799 23.5901Z" fill="url(#paint0_linear_8352_15303)"/>
<path d="M25.5799 24.8206L21.7499 28.6506C21.5799 28.8306 21.4899 29.0606 21.4899 29.3006C21.4899 29.5406 21.5899 29.7806 21.7699 29.9506C21.9399 30.1206 22.1799 30.2206 22.4199 30.2106C22.6599 30.2006 22.8999 30.1106 23.0699 29.9406L26.6699 26.3306C26.7199 26.2806 26.7799 26.2406 26.8499 26.2106C26.9199 26.1806 26.9899 26.1706 27.0599 26.1706C27.1299 26.1706 27.1999 26.1806 27.2699 26.2106C27.3399 26.2406 27.3999 26.2806 27.4499 26.3306C27.4999 26.3806 27.5399 26.4406 27.5699 26.5106C27.5999 26.5806 27.6099 26.6506 27.6099 26.7206C27.6099 26.7906 27.5999 26.8606 27.5699 26.9306C27.5399 27.0006 27.4999 27.0606 27.4499 27.1106L23.8299 30.7306C23.4899 31.0606 23.0399 31.2706 22.5699 31.3006C22.0999 31.3306 21.6199 31.2006 21.2399 30.9206H16.9199C16.7999 30.9206 16.6699 30.9206 16.5499 30.9606C16.4299 31.0006 16.3199 31.0606 16.2299 31.1406C16.1399 31.2206 16.0599 31.3206 16.0099 31.4306C15.9599 31.5406 15.9299 31.6606 15.9199 31.7906C15.9199 31.9106 15.9299 32.0406 15.9799 32.1506C16.0199 32.2706 16.0899 32.3706 16.1699 32.4606C16.2599 32.5506 16.3599 32.6206 16.4699 32.6706C16.5799 32.7206 16.7099 32.7506 16.8299 32.7506H24.8199C25.2599 32.7506 25.6799 32.5706 25.9899 32.2706L28.5699 29.6906C28.7599 29.5006 28.9799 29.3506 29.2199 29.2506C29.4599 29.1506 29.7299 29.1006 29.9899 29.1006H31.8099V24.3306H26.7499C26.5299 24.3306 26.3199 24.3706 26.1199 24.4606C25.9199 24.5406 25.7399 24.6706 25.5799 24.8206Z" fill="#FAFAFA"/>
<path d="M34.1799 23.6003H33.4099C33.2699 23.6003 33.1399 23.6503 33.0399 23.7403C32.9399 23.8303 32.8799 23.9603 32.8699 24.0903V29.3403C32.8799 29.4703 32.9399 29.6003 33.0399 29.6803C33.1399 29.7703 33.2699 29.8203 33.3999 29.8203H34.1699C34.3099 29.8203 34.4499 29.7603 34.5499 29.6603C34.6499 29.5603 34.7099 29.4203 34.7099 29.2803V24.1303C34.7099 24.0603 34.6999 23.9903 34.6699 23.9203C34.6399 23.8503 34.5999 23.8003 34.5499 23.7503C34.4999 23.7003 34.4399 23.6603 34.3799 23.6303C34.3099 23.6003 34.2399 23.5903 34.1699 23.5903L34.1799 23.6003Z" fill="#B1B1B1"/>
<path d="M10.3 13.0902C11.22 13.9202 12.24 14.5502 12.24 14.5502C12.3 14.5902 12.36 14.6102 12.43 14.6102H17.87C17.94 14.6102 18.01 14.5902 18.06 14.5502C18.06 14.5502 19.08 13.9202 20 13.0902C20.46 12.6802 20.9001 12.2202 21.18 11.7302C21.46 11.2402 21.6 10.6502 21.29 10.1502C21.08 9.81023 20.66 9.67023 20.32 9.72023C19.98 9.77023 19.67 9.93023 19.36 10.0902C18.73 10.4202 18.08 10.7602 17.75 10.7102C17.41 10.6602 17.06 10.3602 16.66 10.0102C16.26 9.66023 15.79 9.24023 15.14 9.24023C14.49 9.24023 14.02 9.65023 13.62 10.0102C13.22 10.3602 12.87 10.6602 12.53 10.7102C12.2 10.7602 11.55 10.4202 10.92 10.0902C10.61 9.92023 10.3 9.77023 9.96005 9.72023C9.62005 9.67023 9.20005 9.81023 8.99005 10.1502C8.68005 10.6502 8.82005 11.2402 9.10005 11.7302C9.38005 12.2202 9.82005 12.6802 10.28 13.0902H10.3Z" fill="#959595"/>
<path d="M23.29 25.4101C23.32 25.1501 23.34 24.8701 23.34 24.5801C23.34 22.8701 22.81 20.8901 21.91 19.1701C21.01 17.4501 19.73 15.9801 18.16 15.3701C18.12 15.3501 18.07 15.3501 18.03 15.3501H12.59C12.59 15.3501 12.5 15.3501 12.46 15.3701C10.89 15.9801 9.61003 17.4501 8.71003 19.1701C7.81003 20.8901 7.28003 22.8701 7.28003 24.5801C7.28003 26.8001 8.25003 28.1701 9.73003 28.8701C11.22 29.5701 13.17 29.6901 15.31 29.6901C17.18 29.6901 18.9 29.5801 20.3 29.0801C20.35 28.6101 20.54 28.1701 20.88 27.8301L23.29 25.4201V25.4101Z" fill="#959595"/>
<g filter="url(#filter0_d_8352_15303)">
<path d="M13.48 25.1503V20.7603H11.8V19.8203H16.16V20.7603H14.48V25.1503H13.47H13.48Z" fill="#FAFAFA"/>
<path d="M17.9599 24.1503V22.8703H16.6799V22.0903H17.9599V20.8203H18.7399V22.0903H20.0099V22.8703H18.7399V24.1503H17.9599Z" fill="#FAFAFA"/>
</g>
<defs>
<filter id="filter0_d_8352_15303" x="7.80005" y="16.8203" width="16.21" height="13.3301" filterUnits="userSpaceOnUse" color-interpolation-filters="sRGB">
<feFlood flood-opacity="0" result="BackgroundImageFix"/>
<feColorMatrix in="SourceAlpha" type="matrix" values="0 0 0 0 0 0 0 0 0 0 0 0 0 0 0 0 0 0 127 0" result="hardAlpha"/>
<feOffset dy="1"/>
<feGaussianBlur stdDeviation="2"/>
<feComposite in2="hardAlpha" operator="out"/>
<feColorMatrix type="matrix" values="0 0 0 0 0 0 0 0 0 0 0 0 0 0 0 0 0 0 0.25 0"/>
<feBlend mode="normal" in2="BackgroundImageFix" result="effect1_dropShadow_8352_15303"/>
<feBlend mode="normal" in="SourceGraphic" in2="effect1_dropShadow_8352_15303" result="shape"/>
</filter>
<linearGradient id="paint0_linear_8352_15303" x1="33.7899" y1="29.8101" x2="33.7899" y2="23.5801" gradientUnits="userSpaceOnUse">
<stop stop-color="#ABABAB"/>
<stop offset="1" stop-color="#E2E2E2"/>
</linearGradient>
</defs>
</svg>
