<svg width="43" height="42" viewBox="0 0 43 42" fill="none" xmlns="http://www.w3.org/2000/svg">
<path d="M0 21C0 14.4768 0 11.2152 1.06569 8.64243C2.4866 5.21204 5.21204 2.4866 8.64243 1.06569C11.2152 0 14.4768 0 21 0H22C28.5232 0 31.7848 0 34.3576 1.06569C37.788 2.4866 40.5134 5.21204 41.9343 8.64243C43 11.2152 43 14.4768 43 21C43 27.5232 43 30.7848 41.9343 33.3576C40.5134 36.788 37.788 39.5134 34.3576 40.9343C31.7848 42 28.5232 42 22 42H21C14.4768 42 11.2152 42 8.64243 40.9343C5.21204 39.5134 2.4866 36.788 1.06569 33.3576C0 30.7848 0 27.5232 0 21Z" fill="#959595" fill-opacity="0.25"/>
<path d="M14.8799 9H28.1299C29.6499 9 30.8799 10.23 30.8799 11.75V30H23.0099H14.8799C13.3599 30 12.1299 28.77 12.1299 27.25V11.75C12.1299 10.23 13.3599 9 14.8799 9Z" fill="#959595"/>
<path d="M21.5734 12C22.6486 12 23.5234 12.8748 23.5234 13.95C23.5234 15.0252 22.6486 15.9 21.5734 15.9C20.4981 15.9 19.6234 15.0252 19.6234 13.95C19.6234 12.8748 20.4981 12 21.5734 12ZM24.3467 25H18.7134V23.7H19.6234V18.5H18.7567V17.2H23.5234V23.7H24.3467V25Z" fill="white"/>
<rect x="27.6655" y="22.6641" width="5" height="9" fill="#959595"/>
<path d="M29 21C25.6915 21 23 23.6915 23 27C23 30.3085 25.6915 33 29 33C32.3085 33 35 30.3085 35 27C35 23.6915 32.3085 21 29 21ZM31.8535 30.1035C31.756 30.201 31.628 30.25 31.5 30.25C31.372 30.25 31.2439 30.201 31.1465 30.1035L28.6465 27.6035C28.5525 27.51 28.5 27.383 28.5 27.25V24C28.5 23.7235 28.724 23.5 29 23.5C29.276 23.5 29.5 23.7235 29.5 24V27.043L31.8535 29.3965C32.049 29.592 32.049 29.908 31.8535 30.1035Z" fill="#F8F8F8"/>
</svg>
