<svg width="42" height="42" viewBox="0 0 42 42" fill="none" xmlns="http://www.w3.org/2000/svg">
<path d="M0 21C0 14.4768 0 11.2152 1.06569 8.64243C2.4866 5.21204 5.21204 2.4866 8.64243 1.06569C11.2152 0 14.4768 0 21 0V0C27.5232 0 30.7848 0 33.3576 1.06569C36.788 2.4866 39.5134 5.21204 40.9343 8.64243C42 11.2152 42 14.4768 42 21V21C42 27.5232 42 30.7848 40.9343 33.3576C39.5134 36.788 36.788 39.5134 33.3576 40.9343C30.7848 42 27.5232 42 21 42V42C14.4768 42 11.2152 42 8.64243 40.9343C5.21204 39.5134 2.4866 36.788 1.06569 33.3576C0 30.7848 0 27.5232 0 21V21Z" fill="#959595" fill-opacity="0.2"/>
<path d="M30.9573 31.348H16.9571C16.5868 31.348 16.2866 30.971 16.2866 30.5059V13.5613C16.2866 12.3217 17.0866 11.3169 18.0736 11.3169H30.6263C31.6133 11.3169 32.4133 12.3217 32.4133 13.5613V29.5193C32.4133 30.5294 31.7615 31.348 30.9573 31.348Z" fill="#959595"/>
<path d="M17.0434 12.9553C17.2899 13.9271 18.0087 14.5869 18.8208 14.5869H23.7718C23.7064 14.5869 23.6416 14.5822 23.5775 14.5737L21.5675 12.0509C21.2232 11.5971 20.7396 11.3237 20.217 11.3237H18.1097C17.5401 11.3237 17.0303 11.6449 16.6882 12.1505C16.8445 12.3818 16.9668 12.6534 17.0434 12.9553Z" fill="url(#paint0_linear_8612_34428)"/>
<path d="M30.096 31.3477H13.781C13.0952 31.3477 12.5393 30.6495 12.5393 29.7882V14.3369C12.5393 13.4756 13.0952 12.7773 13.781 12.7773H30.096C30.7818 12.7773 31.3377 13.4756 31.3377 14.3369V29.7882C31.3377 30.6495 30.7818 31.3477 30.096 31.3477Z" fill="#F8F8F8"/>
<path d="M23.9286 15.1776V14.5869H23.7719C22.9599 14.5869 22.2411 13.9271 21.9946 12.9553C21.748 11.9835 21.0292 11.3237 20.2171 11.3237H18.1098C17.0797 11.3237 16.2444 12.3727 16.2444 13.6667V15.1776H23.9286Z" fill="#F8F8F8"/>
<path d="M17.0435 12.9553C16.7969 11.9835 16.0781 11.3237 15.2662 11.3237H13.1589C12.1286 11.3237 11.2935 12.3727 11.2935 13.6667V29.034C11.2935 30.3118 12.1183 31.3478 13.1357 31.3478H30.6284C30.3471 31.3478 30.1191 31.0614 30.1191 30.7081V16.9299C30.1191 15.636 29.2839 14.5869 28.2537 14.5869H18.8209C18.0088 14.5869 17.29 13.9271 17.0435 12.9553Z" fill="#959595"/>
<path d="M33.2373 23.3579C32.574 23.2862 31.9107 23.1428 31.2833 22.9097C30.7097 22.7125 30.154 22.4437 29.6342 22.121C29.3653 21.9597 29.0068 21.9597 28.7379 22.121C28.218 22.4437 27.6624 22.7125 27.0887 22.9097C26.4613 23.1248 25.7981 23.2862 25.1348 23.3579C24.6867 23.4117 24.364 23.7702 24.364 24.2183V26.7996C24.364 28.7356 25.4216 30.5282 27.1067 31.4603L28.7737 32.3924C29.0426 32.5359 29.3474 32.5359 29.6163 32.3924L31.2833 31.4603C32.9684 30.5282 34.026 28.7356 34.026 26.7996V24.2183C34.026 23.7702 33.6854 23.3937 33.2552 23.3579H33.2373Z" fill="#F8F8F8"/>
<path d="M28.8272 28.8431C28.6838 28.8431 28.5404 28.7893 28.4328 28.6997L27.0167 27.4449C26.7657 27.2298 26.7478 26.8533 26.9629 26.6024C27.178 26.3514 27.5544 26.3335 27.8054 26.5486L28.7913 27.427L30.7452 25.3297C30.9783 25.0966 31.3547 25.0787 31.5877 25.2938C31.8208 25.5268 31.8387 25.9033 31.6236 26.1363L29.2753 28.6459C29.1678 28.7714 29.0064 28.8431 28.8451 28.8252L28.8272 28.8431Z" fill="#959595"/>
<defs>
<linearGradient id="paint0_linear_8612_34428" x1="22.9394" y1="17.136" x2="16.3681" y2="11.9039" gradientUnits="userSpaceOnUse">
<stop stop-color="#FF9517" stop-opacity="0"/>
<stop offset="0.3074" stop-color="#EE8421" stop-opacity="0.305882"/>
<stop offset="0.6784" stop-color="#E07728" stop-opacity="0.678431"/>
<stop offset="1" stop-color="#DB722B"/>
</linearGradient>
</defs>
</svg>
