<svg width="42" height="42" viewBox="0 0 42 42" fill="none" xmlns="http://www.w3.org/2000/svg">
<rect width="42" height="42" rx="14" fill="#959595" fill-opacity="0.25"/>
<path d="M25.8571 24.8142L22.0286 28.648C21.8587 28.8233 21.7652 29.0586 21.7684 29.3026C21.7715 29.5466 21.8712 29.7795 22.0455 29.9503C22.2198 30.121 22.4547 30.2158 22.6987 30.214C22.9427 30.2121 23.1761 30.1137 23.3478 29.9403L26.9501 26.3326C27.0003 26.2824 27.0599 26.2426 27.1255 26.2154C27.1911 26.1883 27.2614 26.1743 27.3324 26.1743C27.4034 26.1743 27.4737 26.1883 27.5393 26.2154C27.6049 26.2426 27.6645 26.2824 27.7147 26.3326C27.7649 26.3828 27.8048 26.4425 27.8319 26.508C27.8591 26.5736 27.8731 26.644 27.8731 26.715C27.8731 26.786 27.8591 26.8563 27.8319 26.9219C27.8048 26.9875 27.7649 27.0471 27.7147 27.0973L24.0963 30.7157C23.7567 31.0502 23.3094 31.2533 22.8341 31.2888C22.3588 31.3243 21.8864 31.1899 21.5009 30.9096H17.1824C17.0588 30.8998 16.9345 30.9149 16.8168 30.9541C16.6991 30.9933 16.5905 31.0557 16.4975 31.1377C16.4044 31.2197 16.3288 31.3196 16.2752 31.4314C16.2215 31.5432 16.1909 31.6647 16.1851 31.7885C16.1793 31.9124 16.1985 32.0362 16.2415 32.1525C16.2846 32.2689 16.3505 32.3753 16.4355 32.4656C16.5206 32.5559 16.6229 32.6282 16.7364 32.6782C16.8499 32.7282 16.9723 32.7548 17.0963 32.7565H25.0871C25.5252 32.7551 25.945 32.581 26.2555 32.2719L28.8401 29.6873C29.0263 29.5001 29.2479 29.3517 29.4919 29.251C29.736 29.1502 29.9976 29.099 30.2617 29.1004H32.0817V24.3296H27.0255C26.8084 24.3291 26.5933 24.3716 26.3927 24.4548C26.1922 24.538 26.0101 24.6601 25.8571 24.8142Z" fill="#FAFAFA"/>
<path d="M34.4615 23.6026H33.6915C33.5561 23.6009 33.4251 23.6514 33.3259 23.7436C33.2266 23.8359 33.1667 23.9627 33.1584 24.098V29.348C33.1715 29.4804 33.2333 29.6033 33.3318 29.6928C33.4303 29.7823 33.5584 29.8321 33.6915 29.8326H34.4615C34.6042 29.8322 34.7409 29.7753 34.8418 29.6744C34.9427 29.5735 34.9996 29.4368 35 29.2941V24.141C35.0002 24.0703 34.9865 24.0001 34.9595 23.9347C34.9325 23.8692 34.8929 23.8098 34.8428 23.7597C34.7928 23.7097 34.7333 23.67 34.6679 23.6431C34.6024 23.6161 34.5323 23.6023 34.4615 23.6026Z" fill="#FAFAFA"/>
<path d="M21.2748 27.8803L24.8784 24.2658V23.8386C24.8789 22.7449 24.4793 21.6887 23.755 20.8691C23.0307 20.0496 22.0317 19.5232 20.9462 19.3892C20.8625 19.3782 20.7774 19.3871 20.6979 19.4151C20.6183 19.4432 20.5465 19.4897 20.4883 19.5508C19.902 20.1685 19.1961 20.6604 18.4135 20.9966C17.631 21.3328 16.7882 21.5061 15.9365 21.5061C15.0848 21.5061 14.2421 21.3328 13.4595 20.9966C12.677 20.6604 11.9711 20.1685 11.3848 19.5508C11.3279 19.4894 11.2571 19.4427 11.1783 19.4146C11.0995 19.3864 11.0151 19.3777 10.9323 19.3892C9.84677 19.5232 8.84776 20.0496 8.12346 20.8692C7.39916 21.6887 6.99958 22.7449 7 23.8386V28.3273C6.99994 28.5092 7.03571 28.6892 7.10527 28.8572C7.17482 29.0252 7.27679 29.1778 7.40535 29.3064C7.53392 29.4349 7.68655 29.5369 7.85454 29.6065C8.02252 29.676 8.20257 29.7118 8.38439 29.7117H20.7307C20.6589 29.3854 20.6712 29.0461 20.7664 28.7258C20.8615 28.4055 21.0364 28.1145 21.2748 27.8803Z" fill="#959595"/>
<path d="M15.9419 20.4287C16.9729 20.4276 17.9805 20.1209 18.8373 19.5473C19.6941 18.9737 20.3616 18.159 20.7555 17.2061C21.1493 16.2532 21.2518 15.2049 21.05 14.1938C20.8482 13.1827 20.3512 12.2541 19.6217 11.5254C18.8923 10.7967 17.9631 10.3006 16.9518 10.0998C15.9405 9.89904 14.8923 10.0026 13.9398 10.3974C12.9873 10.7923 12.1733 11.4606 11.6006 12.318C11.0278 13.1753 10.7222 14.1833 10.7222 15.2143C10.7233 16.5979 11.2738 17.9243 12.2526 18.9021C13.2313 19.8799 14.5584 20.429 15.9419 20.4287Z" fill="#959595"/>
<path d="M16.4102 12.688C16.4102 12.4264 16.1981 12.2144 15.9365 12.2144C15.6749 12.2144 15.4628 12.4264 15.4628 12.688L15.4628 14.7407H13.4102C13.1486 14.7407 12.9365 14.9528 12.9365 15.2144C12.9365 15.476 13.1486 15.6881 13.4102 15.6881H15.4628V17.7407C15.4628 18.0023 15.6749 18.2144 15.9365 18.2144C16.1981 18.2144 16.4102 18.0023 16.4102 17.7407L16.4102 15.6881H18.4628C18.7244 15.6881 18.9365 15.476 18.9365 15.2144C18.9365 14.9528 18.7244 14.7407 18.4628 14.7407H16.4102V12.688Z" fill="#FAFAFA"/>
</svg>
