<svg width="42" height="42" viewBox="0 0 42 42" fill="none" xmlns="http://www.w3.org/2000/svg">
<rect width="42" height="42" rx="14" fill="#959595" fill-opacity="0.25"/>
<path fill-rule="evenodd" clip-rule="evenodd" d="M20.875 7.9585C19.7812 7.9585 18.7369 8.31618 17.0523 8.89313L16.2036 9.18366C14.4754 9.77523 13.1416 10.2318 12.1869 10.6196C11.7059 10.815 11.2924 11.0043 10.9595 11.1976C10.6391 11.3837 10.3176 11.6158 10.0992 11.927C9.88337 12.2345 9.77176 12.6126 9.70162 12.9766C9.6287 13.355 9.58473 13.8089 9.55635 14.3301C9.5 15.3649 9.5 16.7826 9.5 18.6214V20.4901C9.5 27.608 14.876 31.0206 18.0731 32.4172L18.1047 32.431C18.5011 32.6042 18.8737 32.767 19.3019 32.8766C19.7539 32.9923 20.2342 33.0418 20.875 33.0418C21.5158 33.0418 21.9961 32.9923 22.4481 32.8766C22.8763 32.767 23.2489 32.6042 23.6453 32.431L23.6769 32.4172C26.874 31.0206 32.25 27.608 32.25 20.4901V18.6216C32.25 16.7827 32.25 15.365 32.1936 14.3301C32.1653 13.8089 32.1213 13.355 32.0484 12.9766C31.9782 12.6126 31.8666 12.2345 31.6508 11.927C31.4324 11.6158 31.1109 11.3837 30.7905 11.1976C30.4576 11.0043 30.0441 10.815 29.5631 10.6196C28.6084 10.2318 27.2746 9.77523 25.5464 9.18365L24.6977 8.89313C23.0131 8.31618 21.9688 7.9585 20.875 7.9585Z" fill="#959595"/>
<path fill-rule="evenodd" clip-rule="evenodd" d="M20.875 14.9585C18.4588 14.9585 16.5 16.9173 16.5 19.3335C16.5 20.7658 17.1886 22.0365 18.25 22.8337V24.0002C18.25 25.1277 19.1641 26.0418 20.2917 26.0418H21.4583C22.5859 26.0418 23.5 25.1277 23.5 24.0002V22.8337C24.5614 22.0365 25.25 20.7658 25.25 19.3335C25.25 16.9173 23.2912 14.9585 20.875 14.9585ZM18.25 19.3335C18.25 17.8837 19.4253 16.7085 20.875 16.7085C22.3247 16.7085 23.5 17.8837 23.5 19.3335C23.5 20.304 22.9738 21.1527 22.1869 21.6079C21.9165 21.7643 21.75 22.0529 21.75 22.3653V24.0002C21.75 24.1612 21.6194 24.2918 21.4583 24.2918H20.2917C20.1306 24.2918 20 24.1612 20 24.0002V22.3653C20 22.0529 19.8335 21.7643 19.5631 21.6079C18.7762 21.1527 18.25 20.304 18.25 19.3335Z" fill="#FAFAFA"/>
<path fill-rule="evenodd" clip-rule="evenodd" d="M20.875 14.9585C18.4588 14.9585 16.5 16.9173 16.5 19.3335C16.5 20.7658 17.1886 22.0365 18.25 22.8337V24.0002C18.25 25.1277 19.1641 26.0418 20.2917 26.0418H21.4583C22.5859 26.0418 23.5 25.1277 23.5 24.0002V22.8337C24.5614 22.0365 25.25 20.7658 25.25 19.3335C25.25 16.9173 23.2912 14.9585 20.875 14.9585ZM18.25 19.3335C18.25 17.8837 19.4253 16.7085 20.875 16.7085C22.3247 16.7085 23.5 17.8837 23.5 19.3335C23.5 20.304 22.9738 21.1527 22.1869 21.6079C21.9165 21.7643 21.75 22.0529 21.75 22.3653V24.0002C21.75 24.1612 21.6194 24.2918 21.4583 24.2918H20.2917C20.1306 24.2918 20 24.1612 20 24.0002V22.3653C20 22.0529 19.8335 21.7643 19.5631 21.6079C18.7762 21.1527 18.25 20.304 18.25 19.3335Z" fill="#FAFAFA"/>
</svg>
