<svg width="42" height="42" viewBox="0 0 42 42" fill="none" xmlns="http://www.w3.org/2000/svg">
<path d="M0 21C0 14.4768 0 11.2152 1.06569 8.64243C2.4866 5.21204 5.21204 2.4866 8.64243 1.06569C11.2152 0 14.4768 0 21 0C27.5232 0 30.7848 0 33.3576 1.06569C36.788 2.4866 39.5134 5.21204 40.9343 8.64243C42 11.2152 42 14.4768 42 21C42 27.5232 42 30.7848 40.9343 33.3576C39.5134 36.788 36.788 39.5134 33.3576 40.9343C30.7848 42 27.5232 42 21 42C14.4768 42 11.2152 42 8.64243 40.9343C5.21204 39.5134 2.4866 36.788 1.06569 33.3576C0 30.7848 0 27.5232 0 21Z" fill="#959595" fill-opacity="0.25"/>
<path d="M10.1105 8C8.94301 8 8 8.94301 8 10.1105H12.2301C12.2301 8.94301 11.287 8 10.1195 8H10.1105Z" fill="#959595"/>
<path d="M29.5634 8H10.1106C11.2781 8 12.2211 8.943 12.2211 10.1105V31.8895C12.2211 33.057 13.1641 34 14.3316 34H31.665V10.1195C31.665 8.95199 30.722 8.00898 29.5544 8.00898L29.5634 8Z" fill="#959595"/>
<path d="M29.5635 31.8896H16.4602C16.4602 33.0572 15.5172 34.0002 14.3496 34.0002H31.683C32.8505 34.0002 33.7935 33.0572 33.7935 31.8896H29.5635Z" fill="#959595"/>
<path d="M20.1001 16.2627H21.3125V16.6669H20.612V17.0082H21.2766V17.4033H20.612V18.1038H20.1091V16.2627H20.1001Z" fill="#FAFAFA"/>
<path d="M21.6269 16.2893C21.7616 16.2714 21.9592 16.2534 22.2466 16.2534C22.516 16.2534 22.7136 16.2983 22.8393 16.3971C22.965 16.4869 23.0549 16.6575 23.0549 16.8461C23.0549 17.0347 22.992 17.1964 22.8752 17.3042C22.7226 17.4389 22.498 17.4928 22.2466 17.4928C22.2017 17.4928 22.1568 17.4928 22.1208 17.4928V18.1214H21.6179V16.3073L21.6269 16.2893ZM22.1298 17.1066C22.1298 17.1066 22.1927 17.1066 22.2466 17.1066C22.4442 17.1066 22.5699 17.0078 22.5699 16.8461C22.5699 16.7114 22.4711 16.6126 22.2825 16.6126C22.2106 16.6126 22.1568 16.6126 22.1298 16.6216V17.0886V17.1066Z" fill="#FAFAFA"/>
<path d="M23.6835 16.6759H23.2075V16.2627H24.6804V16.6759H24.1954V18.1038H23.6925V16.6759H23.6835Z" fill="#FAFAFA"/>
<path d="M20.1001 16.2627H21.3125V16.6669H20.612V17.0082H21.2766V17.4033H20.612V18.1038H20.1091V16.2627H20.1001Z" fill="url(#paint0_linear_8352_15318)"/>
<path d="M21.6269 16.2893C21.7616 16.2714 21.9592 16.2534 22.2466 16.2534C22.516 16.2534 22.7136 16.2983 22.8393 16.3971C22.965 16.4869 23.0549 16.6575 23.0549 16.8461C23.0549 17.0347 22.992 17.1964 22.8752 17.3042C22.7226 17.4389 22.498 17.4928 22.2466 17.4928C22.2017 17.4928 22.1568 17.4928 22.1208 17.4928V18.1214H21.6179V16.3073L21.6269 16.2893ZM22.1298 17.1066C22.1298 17.1066 22.1927 17.1066 22.2466 17.1066C22.4442 17.1066 22.5699 17.0078 22.5699 16.8461C22.5699 16.7114 22.4711 16.6126 22.2825 16.6126C22.2106 16.6126 22.1568 16.6126 22.1298 16.6216V17.0886V17.1066Z" fill="url(#paint1_linear_8352_15318)"/>
<path d="M23.6835 16.6759H23.2075V16.2627H24.6804V16.6759H24.1954V18.1038H23.6925V16.6759H23.6835Z" fill="url(#paint2_linear_8352_15318)"/>
<path d="M17.385 18.1394C17.5107 18.1394 17.6365 18.0855 17.7173 17.9778L17.8969 17.7443C18.1663 19.3429 19.289 20.717 20.8786 21.2648C21.3726 21.4354 21.8755 21.5163 22.3695 21.5163C23.8513 21.5163 25.2883 20.7798 26.1415 19.4955C26.2672 19.3069 26.2133 19.0465 26.0247 18.9208C25.8361 18.795 25.5757 18.8489 25.4499 19.0375C24.5159 20.4475 22.7467 21.0403 21.157 20.4835C19.8278 20.0254 18.9118 18.8669 18.7142 17.5287L19.0734 17.7981C19.253 17.9329 19.5135 17.9059 19.6572 17.7263C19.8009 17.5467 19.765 17.2862 19.5853 17.1425L18.6064 16.3881C18.3999 16.2265 18.1035 16.1367 17.9239 16.3881L17.0886 17.4748C16.9449 17.6544 16.9809 17.9149 17.1605 18.0586C17.2323 18.1125 17.3221 18.1484 17.4119 18.1484L17.385 18.1394Z" fill="url(#paint3_linear_8352_15318)"/>
<path d="M18.6964 15.0504C18.885 15.1761 19.1454 15.1222 19.2711 14.9336C20.2052 13.5236 21.9744 12.9308 23.5641 13.4877C24.8932 13.9457 25.8093 15.1042 26.0069 16.4424L25.6477 16.173C25.468 16.0293 25.2076 16.0652 25.0639 16.2448C24.9202 16.4245 24.9561 16.6849 25.1357 16.8286L26.1147 17.583C26.3212 17.7447 26.6086 17.8345 26.7972 17.583L27.6325 16.4963C27.7761 16.3167 27.7402 16.0562 27.5606 15.9125C27.381 15.7688 27.1205 15.8048 26.9768 15.9844L26.7972 16.2179C26.5278 14.6193 25.4052 13.2452 23.8155 12.6973C21.8577 12.0148 19.6933 12.7422 18.5527 14.4666C18.4269 14.6552 18.4808 14.9156 18.6694 15.0414L18.6964 15.0504Z" fill="url(#paint4_linear_8352_15318)"/>
<path d="M15.7 28.2998H24.2999" stroke="#FAFAFA" stroke-width="1.4" stroke-linecap="round"/>
<path d="M15.7 25.2998H28.2999" stroke="#FAFAFA" stroke-width="1.4" stroke-linecap="round"/>
<defs>
<linearGradient id="paint0_linear_8352_15318" x1="20.7063" y1="18.1038" x2="20.7063" y2="16.2627" gradientUnits="userSpaceOnUse">
<stop stop-color="#F4F4F4"/>
<stop offset="0.5028" stop-color="#F2F2F2"/>
<stop offset="1" stop-color="white"/>
</linearGradient>
<linearGradient id="paint1_linear_8352_15318" x1="22.3364" y1="18.1214" x2="22.3364" y2="16.2534" gradientUnits="userSpaceOnUse">
<stop stop-color="#F4F4F4"/>
<stop offset="0.5028" stop-color="#F2F2F2"/>
<stop offset="1" stop-color="white"/>
</linearGradient>
<linearGradient id="paint2_linear_8352_15318" x1="23.944" y1="18.1038" x2="23.944" y2="16.2627" gradientUnits="userSpaceOnUse">
<stop stop-color="#F4F4F4"/>
<stop offset="0.5028" stop-color="#F2F2F2"/>
<stop offset="1" stop-color="white"/>
</linearGradient>
<linearGradient id="paint3_linear_8352_15318" x1="26" y1="21.4999" x2="21.6048" y2="16.2314" gradientUnits="userSpaceOnUse">
<stop stop-color="#D9D9D9"/>
<stop offset="0.5028" stop-color="#F2F2F2"/>
<stop offset="1" stop-color="white"/>
</linearGradient>
<linearGradient id="paint4_linear_8352_15318" x1="20.5" y1="9.50024" x2="24.5" y2="15.5002" gradientUnits="userSpaceOnUse">
<stop stop-color="#D9D9D9"/>
<stop offset="0.5028" stop-color="#F2F2F2"/>
<stop offset="1" stop-color="white"/>
</linearGradient>
</defs>
</svg>
