<svg width="42" height="42" viewBox="0 0 42 42" fill="none" xmlns="http://www.w3.org/2000/svg">
<rect width="42" height="42" rx="14" fill="#959595" fill-opacity="0.25"/>
<path d="M10.1105 8C8.94301 8 8 8.943 8 10.1105H12.2301C12.2301 8.943 11.287 8 10.1195 8H10.1105Z" fill="#B1B1B1"/>
<path d="M29.5634 8H10.1106C11.2781 8 12.2211 8.943 12.2211 10.1105V31.8894C12.2211 33.057 13.1641 34 14.3316 34H31.665V10.1195C31.665 8.95198 30.722 8.00898 29.5544 8.00898L29.5634 8Z" fill="#959595"/>
<path d="M29.5635 31.8896H16.4602C16.4602 33.0571 15.5172 34.0001 14.3496 34.0001H31.683C32.8505 34.0001 33.7935 33.0571 33.7935 31.8896H29.5635Z" fill="#B1B1B1"/>
<path d="M15.7 28.2998H24.3" stroke="#FAFAFA" stroke-width="1.4" stroke-linecap="round"/>
<path d="M15.7 25.2998H28.3" stroke="#FAFAFA" stroke-width="1.4" stroke-linecap="round"/>
<g filter="url(#filter0_d_8352_15477)">
<path d="M17.2325 18.5349C17.3582 18.5349 17.484 18.481 17.5648 18.3733L17.7444 18.1398C18.0139 19.7384 19.1365 21.1125 20.7261 21.6603C21.2201 21.831 21.723 21.9118 22.217 21.9118C23.6988 21.9118 25.1358 21.1753 25.989 19.8911C26.1147 19.7025 26.0608 19.442 25.8722 19.3163C25.6836 19.1905 25.4232 19.2444 25.2975 19.433C24.3634 20.843 22.5942 21.4358 21.0045 20.879C19.6753 20.4209 18.7593 19.2624 18.5617 17.9242L18.9209 18.1937C19.1006 18.3284 19.361 18.3014 19.5047 18.1218C19.6484 17.9422 19.6125 17.6817 19.4329 17.538L18.4539 16.7836C18.2474 16.622 17.951 16.5322 17.7714 16.7836L16.9361 17.8703C16.7924 18.05 16.8284 18.3104 17.008 18.4541C17.0798 18.508 17.1696 18.5439 17.2595 18.5439L17.2325 18.5349Z" fill="#FAFAFA"/>
<path d="M18.5438 15.4454C18.7324 15.5711 18.9929 15.5172 19.1186 15.3286C20.0526 13.9186 21.8219 13.3259 23.4115 13.8827C24.7407 14.3407 25.6568 15.4993 25.8543 16.8374L25.4951 16.568C25.3155 16.4243 25.055 16.4602 24.9113 16.6398C24.7676 16.8195 24.8036 17.0799 24.9832 17.2236L25.9621 17.978C26.1687 18.1397 26.4561 18.2295 26.6447 17.978L27.4799 16.8913C27.6236 16.7117 27.5877 16.4512 27.4081 16.3075C27.2284 16.1639 26.968 16.1998 26.8243 16.3794L26.6447 16.6129C26.3752 15.0143 25.2526 13.6402 23.663 13.0923C21.7051 12.4098 19.5407 13.1373 18.4001 14.8616C18.2744 15.0502 18.3283 15.3107 18.5169 15.4364L18.5438 15.4454Z" fill="#FAFAFA"/>
<path d="M22.9257 18.1102H22.8397C22.8132 18.1632 22.7801 18.2227 22.7404 18.2757C22.7007 18.322 22.6544 18.3683 22.5948 18.408C22.5353 18.4477 22.4625 18.4808 22.3764 18.5006C22.2904 18.5205 22.1911 18.5337 22.072 18.5337C21.9198 18.5337 21.7809 18.5073 21.6485 18.4543C21.5228 18.4014 21.4037 18.3154 21.3044 18.2095C21.2118 18.1036 21.1323 17.9712 21.0794 17.8124C21.0265 17.6602 21 17.4816 21 17.2764V17.1904C21 16.9919 21.0265 16.8132 21.086 16.661C21.1456 16.5088 21.225 16.3764 21.3243 16.2706C21.4235 16.1647 21.5426 16.0786 21.675 16.0257C21.8073 15.9728 21.9529 15.9397 22.0985 15.9397C22.297 15.9397 22.4558 15.9794 22.5683 16.0522C22.6808 16.125 22.7735 16.2309 22.8397 16.3632H22.9257V15.8007H22.1514V15.2382H22.9257V15H23.5477V15.2382H23.8455V15.8007H23.5477V18.4676H22.9257V18.1102ZM22.2706 17.9448C22.4625 17.9448 22.6213 17.8852 22.7404 17.7595C22.8595 17.6338 22.9257 17.4683 22.9257 17.2698V17.2102C22.9257 17.0117 22.8661 16.8463 22.7404 16.7272C22.6213 16.6014 22.4625 16.5419 22.2706 16.5419C22.0786 16.5419 21.9198 16.6014 21.7941 16.7272C21.6684 16.8529 21.6154 17.0117 21.6154 17.2169V17.2764C21.6154 17.4816 21.675 17.647 21.7941 17.7727C21.9132 17.8918 22.072 17.9514 22.2706 17.9514V17.9448Z" fill="#FAFAFA"/>
<path d="M23.3626 19.0898H21.2979V19.5001H23.3626V19.0898Z" fill="#FAFAFA"/>
</g>
<defs>
<filter id="filter0_d_8352_15477" x="12.8474" y="9.83838" width="18.7212" height="17.0732" filterUnits="userSpaceOnUse" color-interpolation-filters="sRGB">
<feFlood flood-opacity="0" result="BackgroundImageFix"/>
<feColorMatrix in="SourceAlpha" type="matrix" values="0 0 0 0 0 0 0 0 0 0 0 0 0 0 0 0 0 0 127 0" result="hardAlpha"/>
<feOffset dy="1"/>
<feGaussianBlur stdDeviation="2"/>
<feComposite in2="hardAlpha" operator="out"/>
<feColorMatrix type="matrix" values="0 0 0 0 0 0 0 0 0 0 0 0 0 0 0 0 0 0 0.25 0"/>
<feBlend mode="normal" in2="BackgroundImageFix" result="effect1_dropShadow_8352_15477"/>
<feBlend mode="normal" in="SourceGraphic" in2="effect1_dropShadow_8352_15477" result="shape"/>
</filter>
</defs>
</svg>
