<svg width="42" height="42" viewBox="0 0 42 42" fill="none" xmlns="http://www.w3.org/2000/svg">
<path d="M0 21C0 14.4768 0 11.2152 1.06569 8.64243C2.4866 5.21204 5.21204 2.4866 8.64243 1.06569C11.2152 0 14.4768 0 21 0C27.5232 0 30.7848 0 33.3576 1.06569C36.788 2.4866 39.5134 5.21204 40.9343 8.64243C42 11.2152 42 14.4768 42 21C42 27.5232 42 30.7848 40.9343 33.3576C39.5134 36.788 36.788 39.5134 33.3576 40.9343C30.7848 42 27.5232 42 21 42C14.4768 42 11.2152 42 8.64243 40.9343C5.21204 39.5134 2.4866 36.788 1.06569 33.3576C0 30.7848 0 27.5232 0 21Z" fill="#959595" fill-opacity="0.25"/>
<path d="M25.5301 23.5501L21.7001 27.3801C21.5301 27.5601 21.4401 27.7901 21.4401 28.0301C21.4401 28.2701 21.5401 28.5101 21.7201 28.6801C21.8901 28.8501 22.1301 28.9501 22.3701 28.9401C22.6101 28.9301 22.8501 28.8401 23.0201 28.6701L26.6201 25.0601C26.6701 25.0101 26.7301 24.9701 26.8001 24.9401C26.8701 24.9101 26.9401 24.9001 27.0101 24.9001C27.0801 24.9001 27.1501 24.9101 27.2201 24.9401C27.2901 24.9701 27.3501 25.0101 27.4001 25.0601C27.4501 25.1101 27.4901 25.1701 27.5201 25.2401C27.5501 25.3101 27.5601 25.3801 27.5601 25.4501C27.5601 25.5201 27.5501 25.5901 27.5201 25.6601C27.4901 25.7301 27.4501 25.7901 27.4001 25.8401L23.7801 29.4601C23.4401 29.7901 22.9901 30.0001 22.5201 30.0301C22.0501 30.0601 21.5701 29.9301 21.1901 29.6501H16.8701C16.7501 29.6501 16.6201 29.6501 16.5001 29.6901C16.3801 29.7301 16.2701 29.7901 16.1801 29.8701C16.0901 29.9501 16.0101 30.0501 15.9601 30.1601C15.9101 30.2701 15.8801 30.3901 15.8701 30.5201C15.8701 30.6401 15.8801 30.7701 15.9301 30.8801C15.9701 31.0001 16.0401 31.1001 16.1201 31.1901C16.2101 31.2801 16.3101 31.3501 16.4201 31.4001C16.5301 31.4501 16.6601 31.4801 16.7801 31.4801H24.7701C25.2101 31.4801 25.6301 31.3001 25.9401 31.0001L28.5201 28.4201C28.7101 28.2301 28.9301 28.0801 29.1701 27.9801C29.4101 27.8801 29.6801 27.8301 29.9401 27.8301H31.7601V23.0601H26.7001C26.4801 23.0601 26.2701 23.1001 26.0701 23.1901C25.8701 23.2701 25.6901 23.4001 25.5301 23.5501Z" fill="#FAFAFA"/>
<path d="M34.1301 22.3401H33.3601C33.2201 22.3401 33.0901 22.3901 32.9901 22.4801C32.8901 22.5701 32.8301 22.7001 32.8201 22.8301V28.0801C32.8301 28.2101 32.8901 28.3401 32.9901 28.4201C33.0901 28.5101 33.2201 28.5601 33.3501 28.5601H34.1201C34.2601 28.5601 34.4001 28.5001 34.5001 28.4001C34.6001 28.3001 34.6601 28.1601 34.6601 28.0201V22.8701C34.6601 22.8001 34.6501 22.7301 34.6201 22.6601C34.5901 22.5901 34.5501 22.5401 34.5001 22.4901C34.4501 22.4401 34.3901 22.4001 34.3301 22.3701C34.2601 22.3401 34.1901 22.3301 34.1201 22.3301L34.1301 22.3401Z" fill="#B1B1B1"/>
<path d="M20.3301 27.45C20.4301 27.11 20.5901 26.8 20.8401 26.55L24.6301 22.76C25.0401 21.74 25.2601 20.63 25.2601 19.46C25.2601 14.51 21.2501 10.5 16.3001 10.5C11.3501 10.5 7.34009 14.51 7.34009 19.46C7.34009 24.41 11.3501 28.42 16.3001 28.42C17.7501 28.42 19.1201 28.07 20.3301 27.46V27.45Z" fill="#959595"/>
<path d="M17.11 20.8501H16.97C16.93 20.9401 16.87 21.0301 16.81 21.1101C16.75 21.1901 16.67 21.2601 16.57 21.3301C16.47 21.3901 16.36 21.4401 16.22 21.4801C16.09 21.5201 15.92 21.5401 15.73 21.5401C15.48 21.5401 15.26 21.5001 15.04 21.4101C14.83 21.3201 14.65 21.1901 14.49 21.0201C14.34 20.8401 14.21 20.6301 14.12 20.3801C14.03 20.1301 13.99 19.8401 13.99 19.5201V19.3801C13.99 19.0601 14.04 18.7701 14.13 18.5201C14.23 18.2701 14.35 18.0601 14.51 17.8901C14.68 17.7101 14.86 17.5801 15.08 17.4901C15.3 17.4001 15.53 17.3501 15.77 17.3501C16.09 17.3501 16.34 17.4101 16.53 17.5301C16.72 17.6501 16.86 17.8201 16.97 18.0301H17.11V17.1201H15.86V16.2101H17.11V15.8301H18.12V16.2101H18.6V17.1201H18.12V21.4201H17.11V20.8401V20.8501ZM16.06 20.5801C16.37 20.5801 16.63 20.4801 16.82 20.2801C17.02 20.0801 17.12 19.8101 17.12 19.4901V19.3901C17.12 19.0601 17.02 18.8001 16.82 18.6101C16.63 18.4101 16.37 18.3101 16.06 18.3101C15.75 18.3101 15.49 18.4101 15.29 18.6101C15.09 18.8101 15 19.0701 15 19.4001V19.5001C15 19.8401 15.1 20.1001 15.29 20.3001C15.49 20.4901 15.74 20.5901 16.06 20.5901V20.5801Z" fill="#FAFAFA"/>
<path d="M17.82 22.4302H14.49V23.1002H17.82V22.4302Z" fill="#FAFAFA"/>
</svg>
