<svg width="43" height="42" viewBox="0 0 43 42" fill="none" xmlns="http://www.w3.org/2000/svg">
<path d="M0 21C0 14.4768 0 11.2152 1.06569 8.64243C2.4866 5.21204 5.21204 2.4866 8.64243 1.06569C11.2152 0 14.4768 0 21 0H22C28.5232 0 31.7848 0 34.3576 1.06569C37.788 2.4866 40.5134 5.21204 41.9343 8.64243C43 11.2152 43 14.4768 43 21C43 27.5232 43 30.7848 41.9343 33.3576C40.5134 36.788 37.788 39.5134 34.3576 40.9343C31.7848 42 28.5232 42 22 42H21C14.4768 42 11.2152 42 8.64243 40.9343C5.21204 39.5134 2.4866 36.788 1.06569 33.3576C0 30.7848 0 27.5232 0 21Z" fill="#959595" fill-opacity="0.25"/>
<path d="M14.8799 10H28.1299C29.6499 10 30.8799 11.23 30.8799 12.75V31H23.0099H14.8799C13.3599 31 12.1299 29.77 12.1299 28.25V12.75C12.1299 11.23 13.3599 10 14.8799 10Z" fill="#959595"/>
<path d="M21.5734 13C22.6486 13 23.5234 13.8748 23.5234 14.95C23.5234 16.0252 22.6486 16.9 21.5734 16.9C20.4981 16.9 19.6234 16.0252 19.6234 14.95C19.6234 13.8748 20.4981 13 21.5734 13ZM24.3467 26H18.7134V24.7H19.6234V19.5H18.7567V18.2H23.5234V24.7H24.3467V26Z" fill="white"/>
</svg>
