<svg width="42" height="42" viewBox="0 0 42 42" fill="none" xmlns="http://www.w3.org/2000/svg">
<g filter="url(#filter0_b_11266_18503)">
<g clip-path="url(#clip0_11266_18503)">
<path d="M0 14C0 6.26801 6.26801 0 14 0H28C35.732 0 42 6.26801 42 14V28C42 35.732 35.732 42 28 42H14C6.26801 42 0 35.732 0 28V14Z" fill="#CACACA" fill-opacity="0.25"/>
<g filter="url(#filter1_d_11266_18503)">
<path d="M33.25 21.25C33.25 23.6234 32.5462 25.9435 31.2276 27.9168C29.9091 29.8902 28.0349 31.4283 25.8422 32.3366C23.6495 33.2448 21.2367 33.4824 18.9089 33.0194C16.5811 32.5564 14.4429 31.4135 12.7647 29.7353C11.0865 28.0571 9.9436 25.9189 9.48058 23.5911C9.01755 21.2633 9.25519 18.8505 10.1634 16.6578C11.0717 14.4651 12.6098 12.5909 14.5832 11.2724C16.5565 9.95379 18.8766 9.25 21.25 9.25V12.85C19.5886 12.85 17.9646 13.3427 16.5832 14.2657C15.2018 15.1887 14.1252 16.5006 13.4894 18.0355C12.8536 19.5704 12.6873 21.2593 13.0114 22.8888C13.3355 24.5182 14.1355 26.0149 15.3103 27.1897C16.4851 28.3645 17.9818 29.1645 19.6112 29.4886C21.2407 29.8127 22.9296 29.6464 24.4645 29.0106C25.9994 28.3748 27.3113 27.2982 28.2343 25.9168C29.1573 24.5354 29.65 22.9114 29.65 21.25H33.25Z" fill="url(#paint0_linear_11266_18503)"/>
<path d="M32.0724 19.2816C32.6158 19.1828 32.9803 18.6606 32.8366 18.1273C32.3092 16.1704 31.293 14.3732 29.8766 12.9084C28.4602 11.4436 26.6982 10.3676 24.76 9.77481C24.2319 9.61327 23.6978 9.96002 23.5808 10.4998L23.2417 12.0634C23.1247 12.6032 23.4702 13.1299 23.9923 13.3102C25.2365 13.74 26.3671 14.4579 27.2886 15.4109C28.2101 16.3639 28.8897 17.5179 29.2774 18.7759C29.4401 19.3037 29.9549 19.6667 30.4983 19.5679L32.0724 19.2816Z" fill="white"/>
<path d="M19.5093 26.6075C19.2766 26.6075 19.1215 26.4135 19.1215 26.2196V19.8972C19.1215 19.7032 19.2766 19.5093 19.5093 19.5093H21.216C21.4099 19.5093 21.6039 19.7032 21.6039 19.8972V26.2196C21.6039 26.4135 21.4099 26.6075 21.216 26.6075H19.5093Z" fill="url(#paint1_linear_11266_18503)"/>
<path d="M22.4961 26.6069C22.3022 26.6069 22.1082 26.413 22.1082 26.2191V20.7888C22.1082 20.5948 22.3022 20.4009 22.4961 20.4009H24.2415C24.4355 20.4009 24.6294 20.5948 24.6294 20.7888V26.2191C24.6294 26.413 24.4355 26.6069 24.2415 26.6069H22.4961Z" fill="url(#paint2_linear_11266_18503)"/>
<path d="M25.7155 16.3287V16.4063V16.4839L25.4052 17.6863C25.3664 17.8415 25.2113 17.9578 25.0173 17.9578C24.9785 17.9578 24.9397 17.9578 24.9009 17.9578C24.707 17.919 24.5906 17.6863 24.6294 17.4924L24.6682 17.3372L23.8149 17.9578C23.8537 18.0742 23.8537 18.1518 23.8537 18.2681C23.8537 18.8887 23.3494 19.4318 22.69 19.4318C22.0306 19.4318 21.5264 18.8887 21.5264 18.2681C21.5264 18.1518 21.5652 18.0354 21.5652 17.9578L20.7119 17.376C20.5179 17.5312 20.2852 17.5699 20.0525 17.5699C19.8973 17.5699 19.7422 17.5312 19.6258 17.4924L18.307 18.9663C18.3846 19.1215 18.4622 19.3154 18.4622 19.5093C18.4622 20.1687 17.9191 20.673 17.2985 20.673C16.6779 20.673 16.1349 20.1687 16.1349 19.5093C16.1349 18.8887 16.6779 18.3457 17.2985 18.3457C17.4537 18.3457 17.6088 18.3845 17.764 18.4233L19.0828 16.9493C19.0052 16.7942 18.9276 16.6003 18.9276 16.4063C18.9276 15.7857 19.4706 15.2427 20.0913 15.2427C20.7506 15.2427 21.2549 15.7857 21.2549 16.4063C21.2549 16.5227 21.2549 16.639 21.2161 16.7166L22.0694 17.3372C22.2634 17.2209 22.4961 17.1433 22.7288 17.1433C22.9616 17.1433 23.1943 17.2209 23.3882 17.3372L24.4743 16.5615L24.0476 16.4451C23.8537 16.4063 23.7373 16.1736 23.7761 15.9796C23.8537 15.7857 24.0476 15.6693 24.2416 15.7081L25.444 16.0572H25.4828C25.5216 16.0572 25.5216 16.096 25.5603 16.096C25.5991 16.096 25.5991 16.1348 25.6379 16.1348C25.6379 16.1348 25.6767 16.1348 25.6767 16.1736C25.6767 16.2124 25.7155 16.2124 25.7155 16.2512V16.3287Z" fill="url(#paint3_linear_11266_18503)"/>
<path d="M16.1349 26.2191V21.7585C16.1349 21.5645 16.3288 21.3706 16.5228 21.3706H18.2682C18.5009 21.3706 18.6561 21.5645 18.6561 21.7585V26.2191C18.6561 26.413 18.5009 26.607 18.2682 26.607H16.5616C16.3288 26.607 16.1349 26.4518 16.1349 26.2191Z" fill="url(#paint4_linear_11266_18503)"/>
</g>
</g>
</g>
<defs>
<filter id="filter0_b_11266_18503" x="-14" y="-14" width="70" height="70" filterUnits="userSpaceOnUse" color-interpolation-filters="sRGB">
<feFlood flood-opacity="0" result="BackgroundImageFix"/>
<feGaussianBlur in="BackgroundImageFix" stdDeviation="7"/>
<feComposite in2="SourceAlpha" operator="in" result="effect1_backgroundBlur_11266_18503"/>
<feBlend mode="normal" in="SourceGraphic" in2="effect1_backgroundBlur_11266_18503" result="shape"/>
</filter>
<filter id="filter1_d_11266_18503" x="1.25" y="5.25" width="40" height="40" filterUnits="userSpaceOnUse" color-interpolation-filters="sRGB">
<feFlood flood-opacity="0" result="BackgroundImageFix"/>
<feColorMatrix in="SourceAlpha" type="matrix" values="0 0 0 0 0 0 0 0 0 0 0 0 0 0 0 0 0 0 127 0" result="hardAlpha"/>
<feOffset dy="4"/>
<feGaussianBlur stdDeviation="4"/>
<feComposite in2="hardAlpha" operator="out"/>
<feColorMatrix type="matrix" values="0 0 0 0 0 0 0 0 0 0 0 0 0 0 0 0 0 0 0.1 0"/>
<feBlend mode="normal" in2="BackgroundImageFix" result="effect1_dropShadow_11266_18503"/>
<feBlend mode="normal" in="SourceGraphic" in2="effect1_dropShadow_11266_18503" result="shape"/>
</filter>
<linearGradient id="paint0_linear_11266_18503" x1="21.25" y1="33.25" x2="21.25" y2="9.25" gradientUnits="userSpaceOnUse">
<stop stop-color="#858585"/>
<stop offset="1" stop-color="#D1D1D1"/>
</linearGradient>
<linearGradient id="paint1_linear_11266_18503" x1="20.3627" y1="26.6075" x2="20.3627" y2="19.5093" gradientUnits="userSpaceOnUse">
<stop stop-color="#858585"/>
<stop offset="1" stop-color="#D1D1D1"/>
</linearGradient>
<linearGradient id="paint2_linear_11266_18503" x1="23.3688" y1="26.6069" x2="23.3688" y2="20.4009" gradientUnits="userSpaceOnUse">
<stop stop-color="#858585"/>
<stop offset="1" stop-color="#D1D1D1"/>
</linearGradient>
<linearGradient id="paint3_linear_11266_18503" x1="20.9252" y1="20.673" x2="20.9252" y2="15.2427" gradientUnits="userSpaceOnUse">
<stop stop-color="white"/>
<stop offset="1" stop-color="white"/>
</linearGradient>
<linearGradient id="paint4_linear_11266_18503" x1="17.3955" y1="26.607" x2="17.3955" y2="21.3706" gradientUnits="userSpaceOnUse">
<stop stop-color="#858585"/>
<stop offset="1" stop-color="#D1D1D1"/>
</linearGradient>
<clipPath id="clip0_11266_18503">
<path d="M0 14C0 6.26801 6.26801 0 14 0H28C35.732 0 42 6.26801 42 14V28C42 35.732 35.732 42 28 42H14C6.26801 42 0 35.732 0 28V14Z" fill="white"/>
</clipPath>
</defs>
</svg>
