<svg width="42" height="42" viewBox="0 0 42 42" fill="none" xmlns="http://www.w3.org/2000/svg">
<path d="M0 21C0 14.4768 0 11.2152 1.06569 8.64243C2.4866 5.21204 5.21204 2.4866 8.64243 1.06569C11.2152 0 14.4768 0 21 0C27.5232 0 30.7848 0 33.3576 1.06569C36.788 2.4866 39.5134 5.21204 40.9343 8.64243C42 11.2152 42 14.4768 42 21C42 27.5232 42 30.7848 40.9343 33.3576C39.5134 36.788 36.788 39.5134 33.3576 40.9343C30.7848 42 27.5232 42 21 42C14.4768 42 11.2152 42 8.64243 40.9343C5.21204 39.5134 2.4866 36.788 1.06569 33.3576C0 30.7848 0 27.5232 0 21Z" fill="#959595" fill-opacity="0.25"/>
<path d="M32.4701 10.7998C32.4701 9.97978 32.0101 9.52979 31.1801 9.52979C25.9201 9.52979 20.6601 9.52979 15.3901 9.52979C14.5601 9.52979 14.1001 9.96978 14.1001 10.7998C14.1001 17.5998 14.1001 24.3998 14.1001 31.1898C14.1001 31.7098 14.2801 32.1198 14.7601 32.3498C15.2201 32.5698 15.6501 32.4698 16.0501 32.1598C16.6601 31.6898 17.2801 31.2298 17.9101 30.7698C18.5201 30.3198 19.1201 29.8598 19.7401 29.3998C20.6201 30.2798 21.4701 31.1298 22.3201 31.9798C22.9901 32.6498 23.5801 32.6498 24.2501 31.9798C25.1001 31.1298 25.9501 30.2798 26.8301 29.3898C28.0901 30.3298 29.3001 31.2398 30.5201 32.1598C30.9201 32.4598 31.3401 32.5598 31.8101 32.3498C32.2901 32.1298 32.4701 31.6998 32.4701 31.1898C32.4701 24.3898 32.4701 17.5998 32.4701 10.7998Z" fill="#959595"/>
<path d="M25.3602 20.8398H20.4402" stroke="#FAFAFA" stroke-width="1.4" stroke-linecap="round" stroke-linejoin="round"/>
<path d="M27.7301 17.3398H18.0701" stroke="#FAFAFA" stroke-width="1.4" stroke-linecap="round" stroke-linejoin="round"/>
<path d="M29.6901 13.8398H16.1101" stroke="#FAFAFA" stroke-width="1.4" stroke-linecap="round" stroke-linejoin="round"/>
<path d="M12.9301 24.6798L8.11008 29.4998C7.66008 29.9498 6.93008 29.9498 6.48008 29.4998C6.03008 29.0498 6.03008 28.3198 6.48008 27.8698L11.3001 23.0498" fill="#959595"/>
<path d="M16.3901 25.8598C19.9901 25.8598 22.9001 22.9498 22.9001 19.3498C22.9001 15.7498 19.9901 12.8398 16.3901 12.8398C12.7901 12.8398 9.88013 15.7498 9.88013 19.3498C9.88013 22.9498 12.7901 25.8598 16.3901 25.8598Z" fill="#B1B1B1"/>
<path fill-rule="evenodd" clip-rule="evenodd" d="M16.3901 24.8598C19.4301 24.8598 21.9001 22.3898 21.9001 19.3498C21.9001 16.3098 19.4301 13.8398 16.3901 13.8398C13.3501 13.8398 10.8801 16.3098 10.8801 19.3498C10.8801 22.3898 13.3501 24.8598 16.3901 24.8598ZM22.9001 19.3498C22.9001 22.9498 19.9901 25.8598 16.3901 25.8598C12.7901 25.8598 9.88013 22.9498 9.88013 19.3498C9.88013 15.7498 12.7901 12.8398 16.3901 12.8398C19.9901 12.8398 22.9001 15.7498 22.9001 19.3498Z" fill="#959595"/>
<path d="M16.3902 16.4199C16.2002 16.4199 16.0702 16.5399 15.9602 16.6399C15.8502 16.7399 15.7502 16.8199 15.6502 16.8399C15.5602 16.8499 15.3702 16.7599 15.1902 16.6599C15.1002 16.6099 15.0102 16.5699 14.9202 16.5499C14.8202 16.5399 14.7102 16.5699 14.6402 16.6699C14.5502 16.8099 14.5902 16.9799 14.6702 17.1199C14.7502 17.2599 14.8802 17.3899 15.0102 17.5099C15.2702 17.7399 15.5602 17.9199 15.5602 17.9199C15.5802 17.9299 15.6002 17.9399 15.6102 17.9399H17.1502C17.1502 17.9399 17.1902 17.9399 17.2002 17.9199C17.2002 17.9199 17.4902 17.7399 17.7502 17.5099C17.8802 17.3899 18.0102 17.2599 18.0902 17.1199C18.1702 16.9799 18.2102 16.8099 18.1202 16.6699C18.0602 16.5699 17.9402 16.5299 17.8402 16.5499C17.7402 16.5599 17.6602 16.6099 17.5702 16.6599C17.3902 16.7499 17.2102 16.8499 17.1102 16.8399C17.0102 16.8299 16.9202 16.7399 16.8002 16.6399C16.6902 16.5399 16.5502 16.4199 16.3702 16.4199H16.3902Z" fill="#FAFAFA"/>
<path d="M15.6201 18.3599C15.6201 18.3599 15.5901 18.3599 15.5801 18.3599C15.1301 18.5299 14.7701 18.9299 14.5201 19.3999C14.2701 19.8699 14.1101 20.4099 14.1101 20.8799C14.1101 21.4899 14.3801 21.8599 14.8101 22.0499C15.2301 22.2399 15.7901 22.2699 16.3901 22.2699C16.9901 22.2699 17.5501 22.2399 17.9701 22.0499C18.3901 21.8599 18.6701 21.4799 18.6701 20.8799C18.6701 20.4099 18.5201 19.8699 18.2601 19.3999C18.0001 18.9299 17.6401 18.5299 17.2001 18.3599C17.1901 18.3599 17.1801 18.3599 17.1601 18.3599H15.6201Z" fill="#FAFAFA"/>
</svg>
