<svg width="42" height="42" viewBox="0 0 42 42" fill="none" xmlns="http://www.w3.org/2000/svg">
<path d="M0 21C0 14.4768 0 11.2152 1.06569 8.64243C2.4866 5.21204 5.21204 2.4866 8.64243 1.06569C11.2152 0 14.4768 0 21 0C27.5232 0 30.7848 0 33.3576 1.06569C36.788 2.4866 39.5134 5.21204 40.9343 8.64243C42 11.2152 42 14.4768 42 21C42 27.5232 42 30.7848 40.9343 33.3576C39.5134 36.788 36.788 39.5134 33.3576 40.9343C30.7848 42 27.5232 42 21 42C14.4768 42 11.2152 42 8.64243 40.9343C5.21204 39.5134 2.4866 36.788 1.06569 33.3576C0 30.7848 0 27.5232 0 21Z" fill="#959595" fill-opacity="0.25"/>
<path d="M25.5199 23.5501L21.6899 27.3801C21.5199 27.5601 21.4299 27.7901 21.4299 28.0301C21.4299 28.2701 21.5299 28.5101 21.7099 28.6801C21.8799 28.8501 22.1199 28.9501 22.3599 28.9401C22.5999 28.9301 22.8399 28.8401 23.0099 28.6701L26.6099 25.0601C26.6599 25.0101 26.7199 24.9701 26.7899 24.9401C26.8599 24.9101 26.9299 24.9001 26.9999 24.9001C27.0699 24.9001 27.1399 24.9101 27.2099 24.9401C27.2799 24.9701 27.3399 25.0101 27.3899 25.0601C27.4399 25.1101 27.4799 25.1701 27.5099 25.2401C27.5399 25.3101 27.5499 25.3801 27.5499 25.4501C27.5499 25.5201 27.5399 25.5901 27.5099 25.6601C27.4799 25.7301 27.4399 25.7901 27.3899 25.8401L23.7699 29.4601C23.4299 29.7901 22.9799 30.0001 22.5099 30.0301C22.0399 30.0601 21.5599 29.9301 21.1799 29.6501H16.8599C16.7399 29.6501 16.6099 29.6501 16.4899 29.6901C16.3699 29.7301 16.2599 29.7901 16.1699 29.8701C16.0799 29.9501 15.9999 30.0501 15.9499 30.1601C15.8999 30.2701 15.8699 30.3901 15.8599 30.5201C15.8599 30.6401 15.8699 30.7701 15.9199 30.8801C15.9599 31.0001 16.0299 31.1001 16.1099 31.1901C16.1999 31.2801 16.2999 31.3501 16.4099 31.4001C16.5199 31.4501 16.6499 31.4801 16.7699 31.4801H24.7599C25.1999 31.4801 25.6199 31.3001 25.9299 31.0001L28.5099 28.4201C28.6999 28.2301 28.9199 28.0801 29.1599 27.9801C29.3999 27.8801 29.6699 27.8301 29.9299 27.8301H31.7499V23.0601H26.6899C26.4699 23.0601 26.2599 23.1001 26.0599 23.1901C25.8599 23.2701 25.6799 23.4001 25.5199 23.5501Z" fill="#FAFAFA"/>
<path d="M34.1298 22.3298H33.3598C33.2198 22.3298 33.0898 22.3798 32.9898 22.4698C32.8898 22.5598 32.8298 22.6898 32.8198 22.8198V28.0698C32.8298 28.1998 32.8898 28.3298 32.9898 28.4098C33.0898 28.4998 33.2198 28.5498 33.3498 28.5498H34.1198C34.2598 28.5498 34.3998 28.4898 34.4998 28.3898C34.5998 28.2898 34.6598 28.1498 34.6598 28.0098V22.8598C34.6598 22.7898 34.6498 22.7198 34.6198 22.6498C34.5898 22.5798 34.5498 22.5298 34.4998 22.4798C34.4498 22.4298 34.3898 22.3898 34.3298 22.3598C34.2598 22.3298 34.1898 22.3198 34.1198 22.3198L34.1298 22.3298Z" fill="#959595" fill-opacity="0.25"/>
<path d="M25.1 15.46C23.82 12.5 21.47 11.2 20.5 10.75C15.87 8.60005 10.35 10.63 8.2 15.26C6.05 19.89 8.07999 25.41 12.71 27.56C13.67 28.01 14.69 28.28 15.73 28.38C15.96 28.4 16.18 28.28 16.27 28.07L17.33 25.78C17.41 25.61 17.39 25.41 17.29 25.25C17.19 25.09 17.01 25 16.82 25.01C15.89 25.05 14.99 24.87 14.14 24.47C11.21 23.11 9.93 19.63 11.29 16.7C12.65 13.77 16.13 12.49 19.06 13.85C20.31 14.43 21.3 15.41 21.88 16.64L20.57 17.12C20.38 17.19 20.25 17.35 20.22 17.55C20.19 17.75 20.27 17.94 20.43 18.06L25.01 21.47C25.16 21.58 25.35 21.61 25.52 21.54C25.58 21.52 25.64 21.48 25.68 21.45C25.76 21.38 25.81 21.3 25.84 21.23C25.85 21.2 25.86 21.17 25.86 21.15L27.15 15.59C27.2 15.4 27.13 15.19 26.98 15.06C26.83 14.93 26.62 14.89 26.43 14.96L25.08 15.46H25.1Z" fill="#959595"/>
<path d="M17.2201 20.8598H17.0801C17.0401 20.9498 16.9801 21.0398 16.9201 21.1198C16.8601 21.1998 16.7801 21.2698 16.6801 21.3398C16.5801 21.3998 16.4701 21.4498 16.3301 21.4898C16.2001 21.5298 16.0301 21.5498 15.8401 21.5498C15.5901 21.5498 15.3701 21.5098 15.1501 21.4198C14.9401 21.3298 14.7601 21.1998 14.6001 21.0298C14.4501 20.8498 14.3201 20.6398 14.2301 20.3898C14.1401 20.1398 14.1001 19.8498 14.1001 19.5298V19.3898C14.1001 19.0698 14.1501 18.7798 14.2401 18.5298C14.3401 18.2798 14.4601 18.0698 14.6201 17.8998C14.7901 17.7198 14.9701 17.5898 15.1901 17.4998C15.4101 17.4098 15.6401 17.3598 15.8801 17.3598C16.2001 17.3598 16.4501 17.4198 16.6401 17.5398C16.8301 17.6598 16.9701 17.8298 17.0801 18.0398H17.2201V17.1298H15.9701V16.2198H17.2201V15.8398H18.2301V16.2198H18.7101V17.1298H18.2301V21.4298H17.2201V20.8498V20.8598ZM16.1601 20.5798C16.4701 20.5798 16.7301 20.4798 16.9201 20.2798C17.1201 20.0798 17.2201 19.8098 17.2201 19.4898V19.3898C17.2201 19.0598 17.1201 18.7998 16.9201 18.6098C16.7301 18.4098 16.4701 18.3098 16.1601 18.3098C15.8501 18.3098 15.5901 18.4098 15.3901 18.6098C15.1901 18.8098 15.1001 19.0698 15.1001 19.3998V19.4998C15.1001 19.8398 15.2001 20.0998 15.3901 20.2998C15.5901 20.4898 15.8401 20.5898 16.1601 20.5898V20.5798Z" fill="#FAFAFA"/>
<path d="M17.9201 22.4297H14.5901V23.0997H17.9201V22.4297Z" fill="#FAFAFA"/>
</svg>
