<svg width="42" height="42" viewBox="0 0 42 42" fill="none" xmlns="http://www.w3.org/2000/svg">
<path d="M0 21C0 14.4768 0 11.2152 1.06569 8.64243C2.4866 5.21204 5.21204 2.4866 8.64243 1.06569C11.2152 0 14.4768 0 21 0C27.5232 0 30.7848 0 33.3576 1.06569C36.788 2.4866 39.5134 5.21204 40.9343 8.64243C42 11.2152 42 14.4768 42 21C42 27.5232 42 30.7848 40.9343 33.3576C39.5134 36.788 36.788 39.5134 33.3576 40.9343C30.7848 42 27.5232 42 21 42C14.4768 42 11.2152 42 8.64243 40.9343C5.21204 39.5134 2.4866 36.788 1.06569 33.3576C0 30.7848 0 27.5232 0 21Z" fill="#959595" fill-opacity="0.25"/>
<path d="M32.3175 10.8003C32.3175 9.98027 31.8575 9.53027 31.0275 9.53027C25.7675 9.53027 20.5075 9.53027 15.2375 9.53027C14.4075 9.53027 13.9475 9.97027 13.9475 10.8003C13.9475 17.6003 13.9475 24.4003 13.9475 31.1903C13.9475 31.7103 14.1275 32.1203 14.6075 32.3503C15.0675 32.5703 15.4975 32.4703 15.8975 32.1603C16.5075 31.6903 17.1275 31.2303 17.7575 30.7703C18.3675 30.3203 18.9675 29.8603 19.5875 29.4003C20.4675 30.2803 21.3175 31.1303 22.1675 31.9803C22.8375 32.6503 23.4275 32.6503 24.0975 31.9803C24.9475 31.1303 25.7975 30.2803 26.6775 29.3903C27.9375 30.3303 29.1475 31.2403 30.3675 32.1603C30.7675 32.4603 31.1875 32.5603 31.6575 32.3503C32.1375 32.1303 32.3175 31.7003 32.3175 31.1903C32.3175 24.3903 32.3175 17.6003 32.3175 10.8003Z" fill="#959595"/>
<path d="M17.2 17.3003H27.7999" stroke="#FAFAFA" stroke-width="1.4" stroke-linecap="round"/>
<path d="M17.2 20.3003H25.7999" stroke="#FAFAFA" stroke-width="1.4" stroke-linecap="round"/>
<path d="M17.2 14.3003H29.7999" stroke="#FAFAFA" stroke-width="1.4" stroke-linecap="round"/>
<path d="M12.7875 24.6803L7.9675 29.5003C7.5175 29.9503 6.7875 29.9503 6.3375 29.5003C5.8875 29.0503 5.8875 28.3203 6.3375 27.8703L11.1575 23.0503" fill="#959595"/>
<path d="M16.2473 25.8603C19.8473 25.8603 22.7573 22.9503 22.7573 19.3503C22.7573 15.7503 19.8473 12.8403 16.2473 12.8403C12.6473 12.8403 9.7373 15.7503 9.7373 19.3503C9.7373 22.9503 12.6473 25.8603 16.2473 25.8603Z" fill="#B1B1B1"/>
<path fill-rule="evenodd" clip-rule="evenodd" d="M16.2473 24.8603C19.2873 24.8603 21.7573 22.3903 21.7573 19.3503C21.7573 16.3103 19.2873 13.8403 16.2473 13.8403C13.2073 13.8403 10.7373 16.3103 10.7373 19.3503C10.7373 22.3903 13.2073 24.8603 16.2473 24.8603ZM22.7573 19.3503C22.7573 22.9503 19.8473 25.8603 16.2473 25.8603C12.6473 25.8603 9.7373 22.9503 9.7373 19.3503C9.7373 15.7503 12.6473 12.8403 16.2473 12.8403C19.8473 12.8403 22.7573 15.7503 22.7573 19.3503Z" fill="#959595"/>
<g filter="url(#filter0_d_8352_15499)">
<path d="M16.8674 20.8802H16.7374C16.6974 20.9602 16.6474 21.0502 16.5874 21.1302C16.5274 21.2002 16.4574 21.2702 16.3674 21.3302C16.2774 21.3902 16.1675 21.4402 16.0374 21.4702C15.9074 21.5002 15.7575 21.5202 15.5774 21.5202C15.3474 21.5202 15.1374 21.4802 14.9374 21.4002C14.7474 21.3202 14.5675 21.1902 14.4175 21.0302C14.2775 20.8702 14.1574 20.6702 14.0774 20.4302C13.9974 20.2002 13.9575 19.9302 13.9575 19.6202V19.4902C13.9575 19.1902 13.9974 18.9202 14.0874 18.6902C14.1774 18.4602 14.2974 18.2602 14.4474 18.1002C14.5974 17.9402 14.7774 17.8102 14.9774 17.7302C15.1774 17.6502 15.3974 17.6002 15.6174 17.6002C15.9174 17.6002 16.1574 17.6602 16.3274 17.7702C16.4974 17.8802 16.6374 18.0402 16.7374 18.2402H16.8674V17.3902H15.6974V16.5402H16.8674V16.1802H17.8075V16.5402H18.2574V17.3902H17.8075V21.4202H16.8674V20.8802ZM15.8775 20.6302C16.1675 20.6302 16.4074 20.5402 16.5874 20.3502C16.7674 20.1602 16.8674 19.9102 16.8674 19.6102V19.5202C16.8674 19.2202 16.7774 18.9702 16.5874 18.7902C16.4074 18.6002 16.1675 18.5102 15.8775 18.5102C15.5875 18.5102 15.3474 18.6002 15.1574 18.7902C14.9674 18.9802 14.8874 19.2202 14.8874 19.5302V19.6202C14.8874 19.9302 14.9774 20.1802 15.1574 20.3702C15.3374 20.5502 15.5775 20.6402 15.8775 20.6402V20.6302Z" fill="white"/>
<path d="M17.5275 22.3604H14.4075V22.9804H17.5275V22.3604Z" fill="#FAFAFA"/>
</g>
<defs>
<filter id="filter0_d_8352_15499" x="9.95752" y="13.1802" width="12.2998" height="14.8003" filterUnits="userSpaceOnUse" color-interpolation-filters="sRGB">
<feFlood flood-opacity="0" result="BackgroundImageFix"/>
<feColorMatrix in="SourceAlpha" type="matrix" values="0 0 0 0 0 0 0 0 0 0 0 0 0 0 0 0 0 0 127 0" result="hardAlpha"/>
<feOffset dy="1"/>
<feGaussianBlur stdDeviation="2"/>
<feComposite in2="hardAlpha" operator="out"/>
<feColorMatrix type="matrix" values="0 0 0 0 0 0 0 0 0 0 0 0 0 0 0 0 0 0 0.25 0"/>
<feBlend mode="normal" in2="BackgroundImageFix" result="effect1_dropShadow_8352_15499"/>
<feBlend mode="normal" in="SourceGraphic" in2="effect1_dropShadow_8352_15499" result="shape"/>
</filter>
</defs>
</svg>
