<svg xmlns="http://www.w3.org/2000/svg" xmlns:xlink="http://www.w3.org/1999/xlink" viewBox="0 0 42 42"><defs><linearGradient id="linear-gradient" x1="33.51" y1="14.19" x2="33.51" y2="20.42" gradientTransform="matrix(1, 0, 0, -1, 0, 44)" gradientUnits="userSpaceOnUse"><stop offset="0" stop-color="#ababab"/><stop offset="1" stop-color="#e2e2e2"/></linearGradient></defs><g id="Layer_2" data-name="Layer 2"><g id="Layer_1-2" data-name="Layer 1"><path d="M0,21c0-6.52,0-9.78,1.07-12.36A14,14,0,0,1,8.64,1.07C11.22,0,14.48,0,21,0s9.78,0,12.36,1.07a14,14,0,0,1,7.57,7.57C42,11.22,42,14.48,42,21s0,9.78-1.07,12.36a14,14,0,0,1-7.57,7.57C30.78,42,27.52,42,21,42s-9.78,0-12.36-1.07a14,14,0,0,1-7.57-7.57C0,30.78,0,27.52,0,21Z" fill="#959595" fill-opacity="0.25"/><path d="M25.29,24.8l-3.83,3.83a.94.94,0,0,0-.26.65.9.9,0,0,0,.28.65.88.88,0,0,0,.65.26,1,1,0,0,0,.65-.27l3.6-3.61a.57.57,0,0,1,.18-.12.57.57,0,0,1,.42,0,.55.55,0,0,1,.3.3.57.57,0,0,1,0,.42.57.57,0,0,1-.12.18l-3.62,3.62a2,2,0,0,1-1.26.57A2,2,0,0,1,21,30.9H16.63a1.17,1.17,0,0,0-.37,0,.92.92,0,0,0-.32.18.89.89,0,0,0-.22.29,1.06,1.06,0,0,0-.09.36.88.88,0,0,0,.06.36.89.89,0,0,0,.19.31,1,1,0,0,0,.3.21.9.9,0,0,0,.36.08h8a1.69,1.69,0,0,0,1.17-.48l2.58-2.58a2,2,0,0,1,1.42-.59h1.82V24.31H26.46a1.51,1.51,0,0,0-.63.13A1.76,1.76,0,0,0,25.29,24.8Z" fill="#fafafa"/><path d="M33.9,23.59h-.77a.55.55,0,0,0-.37.14.53.53,0,0,0-.17.35v5.25a.49.49,0,0,0,.17.34.54.54,0,0,0,.36.14h.77a.55.55,0,0,0,.54-.54V24.12a.5.5,0,0,0-.16-.38.66.66,0,0,0-.17-.12.52.52,0,0,0-.21,0Z" fill="url(#linear-gradient)"/><path d="M25.29,24.82l-3.83,3.83a.94.94,0,0,0-.26.65.9.9,0,0,0,.28.65.88.88,0,0,0,.65.26,1,1,0,0,0,.65-.27l3.6-3.61a.57.57,0,0,1,.18-.12.57.57,0,0,1,.42,0,.55.55,0,0,1,.3.3.57.57,0,0,1,0,.42.57.57,0,0,1-.12.18l-3.62,3.62a2,2,0,0,1-1.26.57A2,2,0,0,1,21,30.92H16.63a1.17,1.17,0,0,0-.37,0,.92.92,0,0,0-.32.18.89.89,0,0,0-.22.29,1.06,1.06,0,0,0-.09.36.88.88,0,0,0,.06.36.89.89,0,0,0,.19.31,1,1,0,0,0,.3.21.9.9,0,0,0,.36.08h8a1.69,1.69,0,0,0,1.17-.48l2.58-2.58a2,2,0,0,1,1.42-.59h1.82V24.33H26.46a1.51,1.51,0,0,0-.63.13A1.76,1.76,0,0,0,25.29,24.82Z" fill="#fafafa"/><path d="M33.9,23.6h-.77a.55.55,0,0,0-.37.14.53.53,0,0,0-.17.35v5.25a.49.49,0,0,0,.17.34.54.54,0,0,0,.36.14h.77a.55.55,0,0,0,.54-.54V24.13a.5.5,0,0,0-.16-.38.66.66,0,0,0-.17-.12.52.52,0,0,0-.21,0Z" fill="#b1b1b1"/><path d="M10,13.09A15.3,15.3,0,0,0,12,14.55a.33.33,0,0,0,.19.06h5.44a.31.31,0,0,0,.19-.06,15.3,15.3,0,0,0,1.94-1.46,5.77,5.77,0,0,0,1.18-1.36A1.53,1.53,0,0,0,21,10.15a1,1,0,0,0-1-.43,3.13,3.13,0,0,0-1,.37,3.94,3.94,0,0,1-1.61.62,2.55,2.55,0,0,1-1.09-.7,2.35,2.35,0,0,0-1.52-.77,2.31,2.31,0,0,0-1.52.77,2.55,2.55,0,0,1-1.09.7,3.94,3.94,0,0,1-1.61-.62,2.9,2.9,0,0,0-1-.37,1,1,0,0,0-1,.43,1.53,1.53,0,0,0,.11,1.58A5.77,5.77,0,0,0,10,13.09Z" fill="#959595"/><path d="M23,25.41a7.26,7.26,0,0,0,0-.83,12.18,12.18,0,0,0-1.43-5.41,7.78,7.78,0,0,0-3.75-3.8.3.3,0,0,0-.13,0H12.31a.4.4,0,0,0-.13,0,7.78,7.78,0,0,0-3.75,3.8A12.18,12.18,0,0,0,7,24.58a4.35,4.35,0,0,0,2.45,4.29,13.55,13.55,0,0,0,5.58.82,15.27,15.27,0,0,0,5-.61,2.05,2.05,0,0,1,.58-1.25L23,25.42Z" fill="#959595"/><path d="M16,23.9h-.14a1.4,1.4,0,0,1-.16.26,1,1,0,0,1-.24.22,1.42,1.42,0,0,1-.35.15,1.73,1.73,0,0,1-.49.06,1.77,1.77,0,0,1-.69-.13,1.63,1.63,0,0,1-.55-.39,2.11,2.11,0,0,1-.37-.64,2.55,2.55,0,0,1-.13-.86v-.14a2.54,2.54,0,0,1,.14-.86,2,2,0,0,1,.38-.63,1.6,1.6,0,0,1,.57-.4,1.81,1.81,0,0,1,.69-.14,1.4,1.4,0,0,1,.76.18,1.26,1.26,0,0,1,.44.5H16v-.91H14.72v-.91H16v-.38h1v.38h.48v.91H17v4.3H16v-.58Zm-1.06-.27a1,1,0,0,0,.76-.3,1.08,1.08,0,0,0,.3-.79v-.1a1,1,0,0,0-.3-.78,1,1,0,0,0-.76-.3,1,1,0,0,0-1.06,1.09v.1a1.11,1.11,0,0,0,.29.8,1.06,1.06,0,0,0,.77.29Z" fill="#fafafa"/><path d="M16.67,25.47H13.34v.67h3.33Z" fill="#fafafa"/></g></g></svg>