<svg width="42" height="42" viewBox="0 0 42 42" fill="none" xmlns="http://www.w3.org/2000/svg">
<g clip-path="url(#clip0_49_281895)">
<path d="M0 21C0 14.4768 0 11.2152 1.06569 8.64243C2.4866 5.21204 5.21204 2.4866 8.64243 1.06569C11.2152 0 14.4768 0 21 0C27.5232 0 30.7848 0 33.3576 1.06569C36.788 2.4866 39.5134 5.21204 40.9343 8.64243C42 11.2152 42 14.4768 42 21C42 27.5232 42 30.7848 40.9343 33.3576C39.5134 36.788 36.788 39.5134 33.3576 40.9343C30.7848 42 27.5232 42 21 42C14.4768 42 11.2152 42 8.64243 40.9343C5.21204 39.5134 2.4866 36.788 1.06569 33.3576C0 30.7848 0 27.5232 0 21Z" fill="#167B5E" fill-opacity="0.3"/>
<g filter="url(#filter0_d_49_281895)">
<path d="M19.2203 17.2099H20.0203C20.2803 17.2099 20.5303 17.2999 20.7403 17.4699C21.2003 17.4099 21.6403 17.2799 22.0103 17.1199C22.1203 16.9599 22.2103 16.7799 22.3003 16.5999V14.8099C22.3003 14.3999 22.4503 14.0299 22.7003 13.7399C22.3303 11.5699 20.4803 9.91992 18.2603 9.91992C16.0403 9.91992 14.1903 11.5699 13.8203 13.7399C14.0803 14.0299 14.2203 14.3999 14.2203 14.8099V16.5999C14.9603 18.1199 16.4903 19.1699 18.2603 19.1699C18.2903 19.1699 18.3103 19.1699 18.3403 19.1699C18.1703 18.9599 18.0603 18.6999 18.0603 18.4099C18.0603 17.7599 18.5803 17.2299 19.2203 17.2299V17.2099Z" fill="url(#paint0_linear_49_281895)"/>
<path d="M12.14 17.95H12.19C12.79 17.95 13.28 17.48 13.28 16.89V14.78C13.28 14.36 13.03 14.01 12.67 13.83C12.83 10.97 15.27 8.68996 18.25 8.68996C21.23 8.68996 23.68 10.97 23.83 13.83C23.47 14 23.22 14.36 23.22 14.78V16.89C23.22 17.03 23.25 17.16 23.3 17.28C22.66 17.72 21.74 18.03 20.7 18.12C20.58 17.95 20.38 17.83 20.15 17.83H19.28C18.92 17.83 18.63 18.11 18.63 18.46C18.63 18.81 18.92 19.09 19.28 19.09H20.15C20.4 19.09 20.62 18.95 20.73 18.75C21.94 18.66 22.99 18.3 23.73 17.77C23.9 17.88 24.1 17.94 24.32 17.94H24.37C24.97 17.94 25.46 17.47 25.46 16.88V14.77C25.46 14.35 25.21 13.99 24.84 13.82C24.68 10.43 21.79 7.70996 18.25 7.70996C14.71 7.70996 11.82 10.42 11.66 13.82C11.29 13.99 11.04 14.35 11.04 14.77V16.88C11.04 17.47 11.53 17.94 12.13 17.94L12.14 17.95Z" fill="url(#paint1_linear_49_281895)"/>
<path fill-rule="evenodd" clip-rule="evenodd" d="M20.6603 28.3798C20.7803 28.2298 20.9003 28.1098 21.0303 27.9998C20.9003 27.8998 20.7803 27.7698 20.6603 27.6298C20.2303 27.0798 20.0403 26.3698 20.1303 25.6898C20.2003 25.1698 20.4303 24.7798 20.7703 24.1798C21.1203 23.5798 21.3503 23.1798 21.7703 22.8698C22.2203 22.5298 22.7903 22.3398 23.3603 22.3398C23.4703 22.3398 23.5803 22.3398 23.7003 22.3598C23.8903 22.3898 24.0703 22.4298 24.2303 22.4998C24.2603 22.3298 24.3003 22.1598 24.3803 21.9798C24.5403 21.6098 24.7803 21.2898 25.0703 21.0298C24.2403 20.5598 23.3003 20.2798 22.3203 20.2798H14.1703C12.6803 20.2798 11.2603 20.8698 10.2103 21.9198C9.16031 22.9698 8.57031 24.3998 8.57031 25.8798V27.8898C8.57031 29.3198 10.0903 29.4398 10.1003 29.4398H20.1703C20.2503 29.0598 20.4003 28.6898 20.6503 28.3798H20.6603Z" fill="url(#paint2_linear_49_281895)"/>
<path fill-rule="evenodd" clip-rule="evenodd" d="M28.5602 21.81C28.3302 21.71 28.0302 21.71 27.4402 21.71C26.8502 21.71 26.5502 21.71 26.3202 21.81C26.0102 21.94 25.7602 22.18 25.6302 22.49C25.5702 22.63 25.5502 22.79 25.5402 23.03C25.5302 23.38 25.3502 23.7 25.0402 23.88C24.7302 24.06 24.3602 24.05 24.0502 23.88C23.8402 23.77 23.6802 23.71 23.5302 23.69C23.2002 23.65 22.8602 23.74 22.5902 23.94C22.3902 24.09 22.2402 24.35 21.9502 24.85C21.6502 25.36 21.5102 25.61 21.4702 25.86C21.4302 26.19 21.5202 26.52 21.7202 26.79C21.8102 26.91 21.9402 27.01 22.1502 27.14C22.4502 27.33 22.6402 27.64 22.6402 28C22.6402 28.36 22.4502 28.67 22.1502 28.86C21.9502 28.99 21.8202 29.09 21.7202 29.21C21.5202 29.47 21.4302 29.81 21.4702 30.14C21.5002 30.39 21.6502 30.64 21.9502 31.15C22.2502 31.66 22.3902 31.91 22.5902 32.06C22.8602 32.26 23.1902 32.35 23.5302 32.31C23.6802 32.29 23.8402 32.23 24.0502 32.12C24.3602 31.96 24.7402 31.95 25.0402 32.12C25.3502 32.3 25.5302 32.62 25.5402 32.97C25.5402 33.21 25.5702 33.37 25.6302 33.51C25.7602 33.82 26.0102 34.06 26.3202 34.19C26.5502 34.29 26.8502 34.29 27.4402 34.29C28.0302 34.29 28.3302 34.29 28.5602 34.19C28.8702 34.06 29.1202 33.82 29.2502 33.51C29.3102 33.37 29.3302 33.21 29.3402 32.97C29.3502 32.62 29.5302 32.3 29.8402 32.12C30.1502 31.94 30.5202 31.95 30.8302 32.12C31.0402 32.23 31.2002 32.29 31.3502 32.31C31.6802 32.35 32.0202 32.26 32.2902 32.06C32.4902 31.91 32.6402 31.65 32.9302 31.15C33.2302 30.64 33.3702 30.39 33.4102 30.14C33.4502 29.81 33.3602 29.48 33.1602 29.21C33.0702 29.09 32.9402 28.99 32.7302 28.86C32.4302 28.67 32.2402 28.36 32.2402 28C32.2402 27.65 32.4302 27.33 32.7302 27.14C32.9302 27.01 33.0602 26.91 33.1602 26.79C33.3602 26.53 33.4502 26.19 33.4102 25.86C33.3802 25.61 33.2302 25.36 32.9302 24.85C32.6302 24.34 32.4902 24.09 32.2902 23.94C32.0202 23.74 31.6902 23.65 31.3502 23.69C31.2002 23.71 31.0402 23.77 30.8302 23.88C30.5202 24.04 30.1402 24.05 29.8402 23.88C29.5302 23.7 29.3502 23.38 29.3402 23.03C29.3402 22.79 29.3102 22.63 29.2502 22.49C29.1202 22.18 28.8702 21.94 28.5602 21.81ZM27.4402 29.88C28.4902 29.88 29.3402 29.04 29.3402 27.99C29.3402 26.94 28.4902 26.1 27.4402 26.1C26.3902 26.1 25.5402 26.94 25.5402 27.99C25.5402 29.04 26.3902 29.88 27.4402 29.88Z" fill="url(#paint3_linear_49_281895)"/>
</g>
</g>
<defs>
<filter id="filter0_d_49_281895" x="0.570313" y="4.28139" width="40.8496" height="42.5801" filterUnits="userSpaceOnUse" color-interpolation-filters="sRGB">
<feFlood flood-opacity="0" result="BackgroundImageFix"/>
<feColorMatrix in="SourceAlpha" type="matrix" values="0 0 0 0 0 0 0 0 0 0 0 0 0 0 0 0 0 0 127 0" result="hardAlpha"/>
<feOffset dy="4.57143"/>
<feGaussianBlur stdDeviation="4"/>
<feComposite in2="hardAlpha" operator="out"/>
<feColorMatrix type="matrix" values="0 0 0 0 0.0706443 0 0 0 0 0.623333 0 0 0 0 0.557011 0 0 0 0.45 0"/>
<feBlend mode="normal" in2="BackgroundImageFix" result="effect1_dropShadow_49_281895"/>
<feBlend mode="normal" in="SourceGraphic" in2="effect1_dropShadow_49_281895" result="shape"/>
</filter>
<linearGradient id="paint0_linear_49_281895" x1="18.2603" y1="19.1699" x2="18.2603" y2="9.91992" gradientUnits="userSpaceOnUse">
<stop stop-color="#D9D9D9"/>
<stop offset="0.5028" stop-color="#F2F2F2"/>
<stop offset="1" stop-color="white"/>
</linearGradient>
<linearGradient id="paint1_linear_49_281895" x1="18.25" y1="7.70996" x2="18.25" y2="19.09" gradientUnits="userSpaceOnUse">
<stop stop-color="#3FE4A8"/>
<stop offset="1" stop-color="#0D8732"/>
</linearGradient>
<linearGradient id="paint2_linear_49_281895" x1="16.8203" y1="20.2798" x2="16.8203" y2="29.4398" gradientUnits="userSpaceOnUse">
<stop stop-color="#3FE4A8"/>
<stop offset="1" stop-color="#0D8732"/>
</linearGradient>
<linearGradient id="paint3_linear_49_281895" x1="27.4402" y1="34.29" x2="27.4402" y2="21.71" gradientUnits="userSpaceOnUse">
<stop stop-color="#D9D9D9"/>
<stop offset="0.5028" stop-color="#F2F2F2"/>
<stop offset="1" stop-color="white"/>
</linearGradient>
<clipPath id="clip0_49_281895">
<path d="M0 21C0 14.4768 0 11.2152 1.06569 8.64243C2.4866 5.21204 5.21204 2.4866 8.64243 1.06569C11.2152 0 14.4768 0 21 0C27.5232 0 30.7848 0 33.3576 1.06569C36.788 2.4866 39.5134 5.21204 40.9343 8.64243C42 11.2152 42 14.4768 42 21C42 27.5232 42 30.7848 40.9343 33.3576C39.5134 36.788 36.788 39.5134 33.3576 40.9343C30.7848 42 27.5232 42 21 42C14.4768 42 11.2152 42 8.64243 40.9343C5.21204 39.5134 2.4866 36.788 1.06569 33.3576C0 30.7848 0 27.5232 0 21Z" fill="white"/>
</clipPath>
</defs>
</svg>
