<svg width="42" height="42" viewBox="0 0 42 42" fill="none" xmlns="http://www.w3.org/2000/svg">
<g clip-path="url(#clip0_49_281755)">
<rect width="42" height="42" rx="14" fill="#167B5E" fill-opacity="0.3"/>
<g filter="url(#filter0_d_49_281755)">
<path d="M28.7492 6.125V8.47109H21.3664C17.3961 8.47109 14.1476 11.621 14 15.5422C15.3289 12.8187 18.1344 10.932 21.3664 10.932C23.6633 10.932 25.7304 11.8835 27.2399 13.393H28.7492V15.7391L35.3664 10.932L28.7492 6.125Z" fill="url(#paint0_linear_49_281755)"/>
<path d="M13.2508 35.875V33.5289H20.6336C24.6039 33.5289 27.8524 30.379 28 26.4578C26.6711 29.1813 23.8656 31.068 20.6336 31.068C18.3367 31.068 16.2696 30.1165 14.7601 28.607H13.2508V26.2609L6.63359 31.068L13.2508 35.875Z" fill="url(#paint1_linear_49_281755)"/>
<path d="M21 9.625C14.7279 9.625 9.625 14.7279 9.625 21C9.625 27.2721 14.7279 32.375 21 32.375C27.2721 32.375 32.375 27.2721 32.375 21C32.375 14.7279 27.2721 9.625 21 9.625Z" fill="url(#paint2_linear_49_281755)"/>
<g filter="url(#filter1_d_49_281755)">
<path d="M22.4378 23.1361H22.2218C22.1578 23.2721 22.0778 23.4041 21.9818 23.5321C21.8938 23.6521 21.7738 23.7601 21.6218 23.8561C21.4778 23.9521 21.3018 24.0281 21.0938 24.0841C20.8938 24.1401 20.6498 24.1681 20.3618 24.1681C19.9938 24.1681 19.6498 24.1041 19.3298 23.9761C19.0178 23.8401 18.7418 23.6441 18.5018 23.3881C18.2698 23.1241 18.0858 22.8041 17.9498 22.4281C17.8218 22.0521 17.7578 21.6201 17.7578 21.1321V20.9161C17.7578 20.4361 17.8258 20.0081 17.9618 19.6321C18.1058 19.2561 18.2978 18.9401 18.5378 18.6841C18.7858 18.4201 19.0698 18.2201 19.3898 18.0841C19.7178 17.9481 20.0618 17.8801 20.4218 17.8801C20.9018 17.8801 21.2818 17.9721 21.5618 18.1561C21.8418 18.3321 22.0618 18.5841 22.2218 18.9121H22.4378V17.5441H20.5658V16.1761H22.4378V15.6001H23.9498V16.1761H24.6698V17.5441H23.9498V24.0001H22.4378V23.1361ZM20.8538 22.7281C21.3258 22.7281 21.7058 22.5801 21.9938 22.2841C22.2898 21.9801 22.4378 21.5841 22.4378 21.0961V20.9521C22.4378 20.4641 22.2898 20.0721 21.9938 19.7761C21.7058 19.4721 21.3258 19.3201 20.8538 19.3201C20.3818 19.3201 19.9978 19.4681 19.7018 19.7641C19.4138 20.0521 19.2698 20.4481 19.2698 20.9521V21.0961C19.2698 21.6001 19.4138 22.0001 19.7018 22.2961C19.9978 22.5841 20.3818 22.7281 20.8538 22.7281Z" fill="url(#paint3_linear_49_281755)"/>
<path d="M18.5 25H23.5V26H18.5V25Z" fill="url(#paint4_linear_49_281755)"/>
</g>
<path d="M28.749 8.47109V6.125L35.3662 10.932L28.749 15.7391V13.393V8.47109Z" fill="url(#paint5_linear_49_281755)"/>
<path d="M13.125 33.5289V35.875L6.50781 31.068L13.125 26.2609V28.607V33.5289Z" fill="url(#paint6_linear_49_281755)"/>
</g>
</g>
<defs>
<filter id="filter0_d_49_281755" x="-1.49219" y="2.69643" width="44.8584" height="45.75" filterUnits="userSpaceOnUse" color-interpolation-filters="sRGB">
<feFlood flood-opacity="0" result="BackgroundImageFix"/>
<feColorMatrix in="SourceAlpha" type="matrix" values="0 0 0 0 0 0 0 0 0 0 0 0 0 0 0 0 0 0 127 0" result="hardAlpha"/>
<feOffset dy="4.57143"/>
<feGaussianBlur stdDeviation="4"/>
<feComposite in2="hardAlpha" operator="out"/>
<feColorMatrix type="matrix" values="0 0 0 0 0.0706443 0 0 0 0 0.623333 0 0 0 0 0.557011 0 0 0 0.45 0"/>
<feBlend mode="normal" in2="BackgroundImageFix" result="effect1_dropShadow_49_281755"/>
<feBlend mode="normal" in="SourceGraphic" in2="effect1_dropShadow_49_281755" result="shape"/>
</filter>
<filter id="filter1_d_49_281755" x="13.7578" y="12.6001" width="14.9121" height="18.3999" filterUnits="userSpaceOnUse" color-interpolation-filters="sRGB">
<feFlood flood-opacity="0" result="BackgroundImageFix"/>
<feColorMatrix in="SourceAlpha" type="matrix" values="0 0 0 0 0 0 0 0 0 0 0 0 0 0 0 0 0 0 127 0" result="hardAlpha"/>
<feOffset dy="1"/>
<feGaussianBlur stdDeviation="2"/>
<feComposite in2="hardAlpha" operator="out"/>
<feColorMatrix type="matrix" values="0 0 0 0 0 0 0 0 0 0 0 0 0 0 0 0 0 0 0.25 0"/>
<feBlend mode="normal" in2="BackgroundImageFix" result="effect1_dropShadow_49_281755"/>
<feBlend mode="normal" in="SourceGraphic" in2="effect1_dropShadow_49_281755" result="shape"/>
</filter>
<linearGradient id="paint0_linear_49_281755" x1="24.6832" y1="15.7391" x2="24.6832" y2="6.125" gradientUnits="userSpaceOnUse">
<stop stop-color="#D9D9D9"/>
<stop offset="0.5028" stop-color="#F2F2F2"/>
<stop offset="1" stop-color="white"/>
</linearGradient>
<linearGradient id="paint1_linear_49_281755" x1="17.3168" y1="26.2609" x2="17.3168" y2="35.875" gradientUnits="userSpaceOnUse">
<stop stop-color="#D9D9D9"/>
<stop offset="0.5028" stop-color="#F2F2F2"/>
<stop offset="1" stop-color="white"/>
</linearGradient>
<linearGradient id="paint2_linear_49_281755" x1="21" y1="9.625" x2="21" y2="32.375" gradientUnits="userSpaceOnUse">
<stop stop-color="#3FE4A8"/>
<stop offset="1" stop-color="#0D8732"/>
</linearGradient>
<linearGradient id="paint3_linear_49_281755" x1="21.2138" y1="24.1681" x2="21.2138" y2="15.6001" gradientUnits="userSpaceOnUse">
<stop stop-color="#D9D9D9"/>
<stop offset="0.5028" stop-color="#F2F2F2"/>
<stop offset="1" stop-color="white"/>
</linearGradient>
<linearGradient id="paint4_linear_49_281755" x1="21" y1="26" x2="21" y2="25" gradientUnits="userSpaceOnUse">
<stop stop-color="#D9D9D9"/>
<stop offset="0.5028" stop-color="#F2F2F2"/>
<stop offset="1" stop-color="white"/>
</linearGradient>
<linearGradient id="paint5_linear_49_281755" x1="32.0576" y1="15.7391" x2="32.0576" y2="6.125" gradientUnits="userSpaceOnUse">
<stop stop-color="#D9D9D9"/>
<stop offset="0.5028" stop-color="#F2F2F2"/>
<stop offset="1" stop-color="white"/>
</linearGradient>
<linearGradient id="paint6_linear_49_281755" x1="9.81641" y1="26.2609" x2="9.81641" y2="35.875" gradientUnits="userSpaceOnUse">
<stop stop-color="#D9D9D9"/>
<stop offset="0.5028" stop-color="#F2F2F2"/>
<stop offset="1" stop-color="white"/>
</linearGradient>
<clipPath id="clip0_49_281755">
<rect width="42" height="42" rx="14" fill="white"/>
</clipPath>
</defs>
</svg>
