<svg width="42" height="42" viewBox="0 0 42 42" fill="none" xmlns="http://www.w3.org/2000/svg">
<g clip-path="url(#clip0_8654_19879)">
<path d="M0 21C0 14.4768 0 11.2152 1.06569 8.64243C2.4866 5.21204 5.21204 2.4866 8.64243 1.06569C11.2152 0 14.4768 0 21 0V0C27.5232 0 30.7848 0 33.3576 1.06569C36.788 2.4866 39.5134 5.21204 40.9343 8.64243C42 11.2152 42 14.4768 42 21V21C42 27.5232 42 30.7848 40.9343 33.3576C39.5134 36.788 36.788 39.5134 33.3576 40.9343C30.7848 42 27.5232 42 21 42V42C14.4768 42 11.2152 42 8.64243 40.9343C5.21204 39.5134 2.4866 36.788 1.06569 33.3576C0 30.7848 0 27.5232 0 21V21Z" fill="#959595" fill-opacity="0.2"/>
<mask id="mask0_8654_19879" style="mask-type:luminance" maskUnits="userSpaceOnUse" x="0" y="0" width="42" height="42">
<path d="M42 0H0V42H42V0Z" fill="white"/>
</mask>
<g mask="url(#mask0_8654_19879)">
<path d="M29.0848 9.42969H13.2852C12.5754 9.42969 12 10.1013 12 10.9297V30.7997C12 31.6281 12.5754 32.2997 13.2852 32.2997H29.0848C29.7946 32.2997 30.37 31.6281 30.37 30.7997V10.9297C30.37 10.1013 29.7946 9.42969 29.0848 9.42969Z" fill="#2C9A71"/>
<path d="M32.32 25.5H22.23V30.82H32.32V25.5Z" fill="#2C9A71"/>
<path d="M25.3641 27.1304H25.6766C25.9793 27.1304 26.159 27.2866 26.159 27.5796V27.5835C26.159 27.8765 25.9793 28.0347 25.6766 28.0347H25.3641V27.1304Z" fill="#F8F8F8"/>
<path fill-rule="evenodd" clip-rule="evenodd" d="M27 22C23.6863 22 21 24.6863 21 28C21 31.3137 23.6863 34 27 34C30.3137 34 33 31.3137 33 28C33 24.6863 30.3137 22 27 22ZM22.4129 26.5815V29.3999H23.1297V28.3491H24.2215V27.8003H23.1297V27.1577H24.3309V26.5815H22.4129ZM24.6473 26.5815V29.3999H25.3641V28.5737H25.8484C26.4773 28.5737 26.8836 28.187 26.8836 27.5835V27.5796C26.8836 26.9761 26.4773 26.5815 25.8484 26.5815H24.6473ZM27.8562 27.1577V29.3999H28.5711V27.1577H29.3484V26.5815H27.0789V27.1577H27.8562ZM29.5613 28.6011C29.5926 29.1401 30.0359 29.4507 30.7371 29.4507C31.4832 29.4507 31.9246 29.0933 31.9246 28.5308V28.5288C31.9246 28.0776 31.6473 27.8354 31.0496 27.7202L30.7605 27.6655C30.4578 27.6089 30.325 27.5288 30.325 27.3765V27.3745C30.325 27.2124 30.4734 27.0933 30.7371 27.0933C30.9949 27.0933 31.1766 27.2085 31.198 27.394L31.2 27.4155H31.866L31.8641 27.3745C31.8387 26.8628 31.4383 26.5308 30.7312 26.5308C30.0848 26.5308 29.6141 26.8804 29.6141 27.4233V27.4253C29.6141 27.8569 29.909 28.1323 30.4676 28.2358L30.7566 28.2905C31.0867 28.355 31.2117 28.4292 31.2117 28.5894V28.5913C31.2117 28.7671 31.0359 28.8882 30.7508 28.8882C30.4754 28.8882 30.2645 28.769 30.2293 28.5874L30.2254 28.5659H29.5594L29.5613 28.6011Z" fill="#F8F8F8"/>
<path d="M18.75 8.06984C18.75 7.24984 19.41 6.58984 20.23 6.58984H21.52C22.34 6.58984 23 7.24984 23 8.06984V9.40984H18.75V8.06984Z" fill="#F8F8F8"/>
<path d="M14.7002 17.2998H23.3002" stroke="#F8F8F8" stroke-width="1.4" stroke-linecap="round"/>
<path d="M14.7002 20.2998H20.3002" stroke="#F8F8F8" stroke-width="1.4" stroke-linecap="round"/>
<path d="M14.7002 14.2998H27.3002" stroke="#F8F8F8" stroke-width="1.4" stroke-linecap="round"/>
</g>
</g>
<defs>
<clipPath id="clip0_8654_19879">
<path d="M0 21C0 14.4768 0 11.2152 1.06569 8.64243C2.4866 5.21204 5.21204 2.4866 8.64243 1.06569C11.2152 0 14.4768 0 21 0V0C27.5232 0 30.7848 0 33.3576 1.06569C36.788 2.4866 39.5134 5.21204 40.9343 8.64243C42 11.2152 42 14.4768 42 21V21C42 27.5232 42 30.7848 40.9343 33.3576C39.5134 36.788 36.788 39.5134 33.3576 40.9343C30.7848 42 27.5232 42 21 42V42C14.4768 42 11.2152 42 8.64243 40.9343C5.21204 39.5134 2.4866 36.788 1.06569 33.3576C0 30.7848 0 27.5232 0 21V21Z" fill="white"/>
</clipPath>
</defs>
</svg>
