<svg width="42" height="42" viewBox="0 0 42 42" fill="none" xmlns="http://www.w3.org/2000/svg">
<path d="M0 21C0 14.4768 0 11.2152 1.06569 8.64243C2.4866 5.21204 5.21204 2.4866 8.64243 1.06569C11.2152 0 14.4768 0 21 0V0C27.5232 0 30.7848 0 33.3576 1.06569C36.788 2.4866 39.5134 5.21204 40.9343 8.64243C42 11.2152 42 14.4768 42 21V21C42 27.5232 42 30.7848 40.9343 33.3576C39.5134 36.788 36.788 39.5134 33.3576 40.9343C30.7848 42 27.5232 42 21 42V42C14.4768 42 11.2152 42 8.64243 40.9343C5.21204 39.5134 2.4866 36.788 1.06569 33.3576C0 30.7848 0 27.5232 0 21V21Z" fill="#959595" fill-opacity="0.2"/>
<path d="M32.4701 10.8C32.4701 9.98003 32.0101 9.53003 31.1801 9.53003H15.3901C14.5601 9.53003 14.1001 9.97003 14.1001 10.8V31.19C14.1001 31.71 14.2801 32.12 14.7601 32.35C15.2201 32.57 15.6501 32.47 16.0501 32.16C16.6601 31.69 17.2801 31.23 17.9101 30.77C18.5201 30.32 19.1201 29.86 19.7401 29.4L22.3201 31.98C22.9901 32.65 23.5801 32.65 24.2501 31.98C25.1001 31.13 25.9501 30.28 26.8301 29.39C28.0901 30.33 29.3001 31.24 30.5201 32.16C30.9201 32.46 31.3401 32.56 31.8101 32.35C32.2901 32.13 32.4701 31.7 32.4701 31.19V10.8Z" fill="#2C9A71"/>
<path d="M25.3599 20.8401H20.4399" stroke="#F8F8F8" stroke-width="1.4" stroke-linecap="round" stroke-linejoin="round"/>
<path d="M27.7303 17.3401H18.0703" stroke="#F8F8F8" stroke-width="1.4" stroke-linecap="round" stroke-linejoin="round"/>
<path d="M29.6899 13.8401H16.1099" stroke="#F8F8F8" stroke-width="1.4" stroke-linecap="round" stroke-linejoin="round"/>
<path d="M12.9301 24.68L8.11008 29.5C7.66008 29.95 6.93008 29.95 6.48008 29.5C6.03008 29.05 6.03008 28.3201 6.48008 27.8701L11.3001 23.05" fill="#2C9A71"/>
<path d="M16.3899 25.8601C19.9899 25.8601 22.8999 22.9501 22.8999 19.3501C22.8999 15.7501 19.9899 12.8401 16.3899 12.8401C12.7899 12.8401 9.87988 15.7501 9.87988 19.3501C9.87988 22.9501 12.7899 25.8601 16.3899 25.8601Z" fill="#67BF9E"/>
<path d="M16.9802 21.3702H17.4702C17.6302 21.3702 17.7802 21.4302 17.9102 21.5302C18.1902 21.4902 18.4602 21.4202 18.6902 21.3102C18.7602 21.2102 18.8102 21.1002 18.8702 20.9902V19.8902C18.8702 19.6402 18.9602 19.4102 19.1202 19.2402C18.8902 17.9102 17.7602 16.9102 16.4002 16.9102C15.0402 16.9102 13.9102 17.9202 13.6802 19.2402C13.8402 19.4202 13.9302 19.6502 13.9302 19.8902V20.9902C14.3802 21.9202 15.3202 22.5602 16.4002 22.5602C16.4202 22.5602 16.4302 22.5602 16.4502 22.5602C16.3502 22.4302 16.2802 22.2702 16.2802 22.0902C16.2802 21.6902 16.6002 21.3702 16.9902 21.3702H16.9802Z" fill="#F8F8F8"/>
<path d="M12.64 21.82H12.67C13.04 21.82 13.34 21.53 13.34 21.17V19.88C13.34 19.63 13.19 19.41 12.97 19.3C13.07 17.55 14.56 16.16 16.39 16.16C18.22 16.16 19.71 17.55 19.81 19.3C19.59 19.41 19.44 19.62 19.44 19.88V21.17C19.44 21.26 19.46 21.34 19.49 21.41C19.1 21.68 18.54 21.87 17.9 21.92C17.83 21.81 17.71 21.74 17.56 21.74H17.03C16.81 21.74 16.63 21.91 16.63 22.13C16.63 22.35 16.81 22.52 17.03 22.52H17.56C17.71 22.52 17.85 22.43 17.91 22.31C18.65 22.25 19.29 22.03 19.74 21.71C19.84 21.78 19.97 21.81 20.1 21.81H20.13C20.5 21.81 20.8 21.52 20.8 21.16V19.87C20.8 19.61 20.64 19.39 20.42 19.29C20.32 17.21 18.55 15.55 16.39 15.55C14.23 15.55 12.46 17.21 12.36 19.29C12.14 19.39 11.98 19.62 11.98 19.87V21.16C11.98 21.52 12.28 21.81 12.65 21.81L12.64 21.82Z" fill="#F8F8F8"/>
<path fill-rule="evenodd" clip-rule="evenodd" d="M16.3899 24.8601C19.4299 24.8601 21.8999 22.3901 21.8999 19.3501C21.8999 16.3101 19.4299 13.8401 16.3899 13.8401C13.3499 13.8401 10.8799 16.3101 10.8799 19.3501C10.8799 22.3901 13.3499 24.8601 16.3899 24.8601ZM22.8999 19.3501C22.8999 22.9501 19.9899 25.8601 16.3899 25.8601C12.7899 25.8601 9.87988 22.9501 9.87988 19.3501C9.87988 15.7501 12.7899 12.8401 16.3899 12.8401C19.9899 12.8401 22.8999 15.7501 22.8999 19.3501Z" fill="#41AB83"/>
</svg>
