<svg width="42" height="42" viewBox="0 0 42 42" fill="none" xmlns="http://www.w3.org/2000/svg">
<path d="M0 21C0 14.4768 0 11.2152 1.06569 8.64243C2.4866 5.21204 5.21204 2.4866 8.64243 1.06569C11.2152 0 14.4768 0 21 0V0C27.5232 0 30.7848 0 33.3576 1.06569C36.788 2.4866 39.5134 5.21204 40.9343 8.64243C42 11.2152 42 14.4768 42 21V21C42 27.5232 42 30.7848 40.9343 33.3576C39.5134 36.788 36.788 39.5134 33.3576 40.9343C30.7848 42 27.5232 42 21 42V42C14.4768 42 11.2152 42 8.64243 40.9343C5.21204 39.5134 2.4866 36.788 1.06569 33.3576C0 30.7848 0 27.5232 0 21V21Z" fill="#959595" fill-opacity="0.2"/>
<path d="M30.9799 14.84V15.97C31.5299 16.16 32.0099 16.53 32.3499 17C32.6899 17.48 32.8699 18.05 32.8799 18.63V28.11C32.8799 28.86 32.5799 29.59 32.0499 30.12C31.5199 30.65 30.7899 30.95 30.0399 30.95H12.9699C12.2199 30.95 11.4899 30.65 10.9599 30.12C10.4299 29.59 10.1299 28.86 10.1299 28.11V14.84C10.1299 14.09 10.4299 13.36 10.9599 12.83C11.4899 12.3 12.2199 12 12.9699 12H28.1399C28.8899 12 29.6199 12.3 30.1499 12.83C30.6799 13.36 30.9799 14.09 30.9799 14.84Z" fill="#2C9A71"/>
<path d="M30.9799 14.84V15.97C31.5299 16.16 32.0099 16.53 32.3499 17C32.6899 17.48 32.8699 18.05 32.8799 18.63V28.11C32.8799 28.86 32.5799 29.59 32.0499 30.12C31.5199 30.65 30.7899 30.95 30.0399 30.95H12.9699C12.2199 30.95 11.4899 30.65 10.9599 30.12C10.4299 29.59 10.1299 28.86 10.1299 28.11V14.84C10.1299 14.09 10.4299 13.36 10.9599 12.83C11.4899 12.3 12.2199 12 12.9699 12H28.1399C28.8899 12 29.6199 12.3 30.1499 12.83C30.6799 13.36 30.9799 14.09 30.9799 14.84Z" fill="#2C9A71"/>
<path d="M30.9801 14.84V15.97C30.6901 15.91 29.9001 15.79 29.0801 15.79H10.1201V14.84C10.1201 14.09 10.4201 13.36 10.9501 12.83C11.4801 12.3 12.2101 12 12.9601 12H28.1301C28.8801 12 29.6101 12.3 30.1401 12.83C30.6701 13.36 30.9701 14.09 30.9701 14.84H30.9801Z" fill="#2C9A71"/>
<path d="M28.0101 14.04H13.2301C12.9901 14.04 12.7501 14.13 12.5801 14.3C12.4101 14.46 12.3101 14.69 12.3101 14.92C12.3101 15.15 12.4101 15.37 12.5801 15.54C12.7501 15.7 12.9901 15.8 13.2301 15.8H28.9301V14.92C28.9301 14.69 28.8301 14.47 28.6601 14.3C28.4901 14.13 28.2501 14.04 28.0101 14.04Z" fill="#62C9A2"/>
<path d="M32.8799 19.4399L33.7599 20.3199H32.8799V19.4399Z" fill="#2C9A71"/>
<path fill-rule="evenodd" clip-rule="evenodd" d="M33.7501 20.3101H29.6701C27.8601 20.3101 26.3101 21.7301 26.3101 23.5901C26.3101 25.4501 27.8601 26.8701 29.6701 26.8701H32.1501C32.2101 26.8701 32.2601 26.8701 32.3101 26.8701C33.0401 26.8201 33.6901 26.2501 33.7501 25.4501C33.7501 25.4001 33.7501 25.3401 33.7501 25.2901V21.9201C33.7501 21.8501 33.7501 21.7401 33.7501 21.7401V20.3101ZM29.4801 24.4701C29.9501 24.4701 30.3201 24.0801 30.3201 23.5901C30.3201 23.1001 29.9401 22.7101 29.4801 22.7101C29.0201 22.7101 28.6401 23.1001 28.6401 23.5901C28.6401 24.0801 29.0201 24.4701 29.4801 24.4701Z" fill="#F8F8F8"/>
<g filter="url(#filter0_d_8654_19903)">
<path d="M21.4234 24.5693H21.2705C21.2234 24.6634 21.1646 24.7693 21.094 24.8634C21.0235 24.9457 20.9411 25.0281 20.8352 25.0987C20.7293 25.1693 20.5999 25.2281 20.447 25.2634C20.2941 25.2987 20.1176 25.3222 19.9058 25.3222C19.6353 25.3222 19.3882 25.2751 19.1529 25.181C18.9294 25.0869 18.7176 24.934 18.5412 24.7457C18.3765 24.5575 18.2353 24.3222 18.1412 24.0399C18.0471 23.7693 18 23.4517 18 23.087V22.934C18 22.5811 18.0471 22.2634 18.1529 21.9929C18.2588 21.7223 18.4 21.487 18.5765 21.2988C18.7529 21.1105 18.9647 20.9576 19.2 20.8635C19.4353 20.7694 19.6941 20.7105 19.9529 20.7105C20.3058 20.7105 20.5882 20.7811 20.7882 20.9105C20.9882 21.0399 21.1529 21.2282 21.2705 21.4635H21.4234V20.4635H20.047V19.4635H21.4234V19.04H22.5293V19.4635H23.0587V20.4635H22.5293V25.2045H21.4234V24.5693ZM20.2588 24.2752C20.5999 24.2752 20.8823 24.1693 21.094 23.9458C21.3058 23.7222 21.4234 23.4281 21.4234 23.0752V22.9693C21.4234 22.6164 21.3176 22.3223 21.094 22.1105C20.8823 21.887 20.5999 21.7811 20.2588 21.7811C19.9176 21.7811 19.6353 21.887 19.4117 22.1105C19.1882 22.334 19.0941 22.6164 19.0941 22.9811V23.087C19.0941 23.4517 19.2 23.7458 19.4117 23.9693C19.6235 24.181 19.9058 24.2869 20.2588 24.2869V24.2752Z" fill="#F8F8F8"/>
<path d="M22.1998 26.3105H18.5293V27.0399H22.1998V26.3105Z" fill="#F8F8F8"/>
</g>
<defs>
<filter id="filter0_d_8654_19903" x="14" y="16.04" width="13.0586" height="16" filterUnits="userSpaceOnUse" color-interpolation-filters="sRGB">
<feFlood flood-opacity="0" result="BackgroundImageFix"/>
<feColorMatrix in="SourceAlpha" type="matrix" values="0 0 0 0 0 0 0 0 0 0 0 0 0 0 0 0 0 0 127 0" result="hardAlpha"/>
<feOffset dy="1"/>
<feGaussianBlur stdDeviation="2"/>
<feComposite in2="hardAlpha" operator="out"/>
<feColorMatrix type="matrix" values="0 0 0 0 0 0 0 0 0 0 0 0 0 0 0 0 0 0 0.25 0"/>
<feBlend mode="normal" in2="BackgroundImageFix" result="effect1_dropShadow_8654_19903"/>
<feBlend mode="normal" in="SourceGraphic" in2="effect1_dropShadow_8654_19903" result="shape"/>
</filter>
</defs>
</svg>
