<svg width="42" height="42" viewBox="0 0 42 42" fill="none" xmlns="http://www.w3.org/2000/svg">
<path d="M0 21C0 14.4768 0 11.2152 1.06569 8.64243C2.4866 5.21204 5.21204 2.4866 8.64243 1.06569C11.2152 0 14.4768 0 21 0V0C27.5232 0 30.7848 0 33.3576 1.06569C36.788 2.4866 39.5134 5.21204 40.9343 8.64243C42 11.2152 42 14.4768 42 21V21C42 27.5232 42 30.7848 40.9343 33.3576C39.5134 36.788 36.788 39.5134 33.3576 40.9343C30.7848 42 27.5232 42 21 42V42C14.4768 42 11.2152 42 8.64243 40.9343C5.21204 39.5134 2.4866 36.788 1.06569 33.3576C0 30.7848 0 27.5232 0 21V21Z" fill="#959595" fill-opacity="0.2"/>
<rect x="11.2778" y="15.0115" width="19.4444" height="10.8885" fill="#F8F8F8"/>
<path d="M33.2427 11.5775C33.2427 11.1245 32.8754 10.7572 32.4224 10.7572H21.8204V9.82029C21.8204 9.36727 21.4531 9 21.0001 9C20.547 9 20.1797 9.36727 20.1797 9.82029V10.7572H9.57764C9.12461 10.7572 8.75732 11.1245 8.75732 11.5775L8.75732 27.0558H33.2427V11.5775ZM29.5553 16.6735L26.3922 19.8365C26.1426 20.0861 25.7612 20.1482 25.4453 19.9902L22.811 18.6731L20.066 21.418C19.8163 21.6677 19.4348 21.7296 19.1191 21.5717L16.4848 20.2546L13.7397 22.9995C13.4193 23.32 12.8999 23.3198 12.5796 22.9995C12.2593 22.6793 12.2593 22.1598 12.5796 21.8395L15.7428 18.6765C15.9925 18.4268 16.3739 18.3649 16.6896 18.5228L19.3239 19.8399L22.0689 17.0949C22.3185 16.8454 22.6999 16.7832 23.0158 16.9413L25.6501 18.2584L28.3951 15.5134C28.7154 15.1931 29.2349 15.1931 29.5552 15.5134C29.8756 15.8338 29.8756 16.3532 29.5553 16.6735Z" fill="#2C9A71"/>
<path d="M15.2441 31.3117C15.0526 31.7223 15.23 32.2104 15.6406 32.402C16.0509 32.5934 16.5393 32.4161 16.7309 32.0055L19.0559 27.2778H17.2455L15.2441 31.3117Z" fill="#F8F8F8"/>
<path d="M25.5331 27.2778H23.7227L26.0585 32.0055C26.2502 32.4161 26.7385 32.5934 27.1488 32.402C27.5594 32.2104 27.7368 31.7223 27.5453 31.3117L25.5331 27.2778Z" fill="#F8F8F8"/>
<path d="M34.1797 27.0374H7.82031C7.36728 27.0374 7 27.4046 7 27.8576C7 28.3107 7.36728 28.6779 7.82031 28.6779H34.1797C34.6327 28.6779 35 28.3107 35 27.8576C35 27.4046 34.6327 27.0374 34.1797 27.0374Z" fill="#F8F8F8"/>
</svg>
