<svg width="42" height="42" viewBox="0 0 42 42" fill="none" xmlns="http://www.w3.org/2000/svg">
<path d="M0 21C0 14.4768 0 11.2152 1.06569 8.64243C2.4866 5.21204 5.21204 2.4866 8.64243 1.06569C11.2152 0 14.4768 0 21 0V0C27.5232 0 30.7848 0 33.3576 1.06569C36.788 2.4866 39.5134 5.21204 40.9343 8.64243C42 11.2152 42 14.4768 42 21V21C42 27.5232 42 30.7848 40.9343 33.3576C39.5134 36.788 36.788 39.5134 33.3576 40.9343C30.7848 42 27.5232 42 21 42V42C14.4768 42 11.2152 42 8.64243 40.9343C5.21204 39.5134 2.4866 36.788 1.06569 33.3576C0 30.7848 0 27.5232 0 21V21Z" fill="#959595" fill-opacity="0.3"/>
<path d="M32.4701 10.7998C32.4701 9.97979 32.0101 9.52979 31.1801 9.52979H15.3901C14.5601 9.52979 14.1001 9.96979 14.1001 10.7998V31.1898C14.1001 31.7098 14.2801 32.1198 14.7601 32.3498C15.2201 32.5698 15.6501 32.4698 16.0501 32.1598C16.6601 31.6898 17.2801 31.2298 17.9101 30.7698C18.5201 30.3198 19.1201 29.8598 19.7401 29.3998L22.3201 31.9798C22.9901 32.6498 23.5801 32.6498 24.2501 31.9798C25.1001 31.1298 25.9501 30.2798 26.8301 29.3898C28.0901 30.3298 29.3001 31.2398 30.5201 32.1598C30.9201 32.4598 31.3401 32.5598 31.8101 32.3498C32.2901 32.1298 32.4701 31.6998 32.4701 31.1898V10.7998Z" fill="#2C9A71"/>
<path d="M25.3599 20.8398H20.4399" stroke="#F8F8F8" stroke-width="1.4" stroke-linecap="round" stroke-linejoin="round"/>
<path d="M27.7301 17.3398H18.0701" stroke="#F8F8F8" stroke-width="1.4" stroke-linecap="round" stroke-linejoin="round"/>
<path d="M29.6901 13.8398H16.1101" stroke="#F8F8F8" stroke-width="1.4" stroke-linecap="round" stroke-linejoin="round"/>
<path d="M12.9301 24.6798L8.11008 29.4998C7.66008 29.9498 6.93008 29.9498 6.48008 29.4998C6.03008 29.0498 6.03008 28.3198 6.48008 27.8698L11.3001 23.0498" fill="#2C9A71"/>
<path d="M16.3901 25.8598C19.9901 25.8598 22.9001 22.9498 22.9001 19.3498C22.9001 15.7498 19.9901 12.8398 16.3901 12.8398C12.7901 12.8398 9.88013 15.7498 9.88013 19.3498C9.88013 22.9498 12.7901 25.8598 16.3901 25.8598Z" fill="#67BF9E"/>
<path d="M16.9799 21.3697H17.4699C17.6299 21.3697 17.7799 21.4297 17.9099 21.5297C18.1899 21.4897 18.4599 21.4197 18.6899 21.3097C18.7599 21.2097 18.8099 21.0997 18.8699 20.9897V19.8897C18.8699 19.6397 18.9599 19.4097 19.1199 19.2397C18.8899 17.9097 17.7599 16.9097 16.3999 16.9097C15.0399 16.9097 13.9099 17.9197 13.6799 19.2397C13.8399 19.4197 13.9299 19.6497 13.9299 19.8897V20.9897C14.3799 21.9197 15.3199 22.5597 16.3999 22.5597C16.4199 22.5597 16.4299 22.5597 16.4499 22.5597C16.3499 22.4297 16.2799 22.2697 16.2799 22.0897C16.2799 21.6897 16.5999 21.3697 16.9899 21.3697H16.9799Z" fill="#F8F8F8"/>
<path d="M12.64 21.8198H12.67C13.04 21.8198 13.34 21.5298 13.34 21.1698V19.8798C13.34 19.6298 13.19 19.4098 12.97 19.2998C13.07 17.5498 14.56 16.1598 16.39 16.1598C18.22 16.1598 19.71 17.5498 19.81 19.2998C19.59 19.4098 19.44 19.6198 19.44 19.8798V21.1698C19.44 21.2598 19.46 21.3398 19.49 21.4098C19.1 21.6798 18.54 21.8698 17.9 21.9198C17.83 21.8098 17.71 21.7398 17.56 21.7398H17.03C16.81 21.7398 16.63 21.9098 16.63 22.1298C16.63 22.3498 16.81 22.5198 17.03 22.5198H17.56C17.71 22.5198 17.85 22.4298 17.91 22.3098C18.65 22.2498 19.29 22.0298 19.74 21.7098C19.84 21.7798 19.97 21.8098 20.1 21.8098H20.13C20.5 21.8098 20.8 21.5198 20.8 21.1598V19.8698C20.8 19.6098 20.64 19.3898 20.42 19.2898C20.32 17.2098 18.55 15.5498 16.39 15.5498C14.23 15.5498 12.46 17.2098 12.36 19.2898C12.14 19.3898 11.98 19.6198 11.98 19.8698V21.1598C11.98 21.5198 12.28 21.8098 12.65 21.8098L12.64 21.8198Z" fill="#F8F8F8"/>
<path fill-rule="evenodd" clip-rule="evenodd" d="M16.3901 24.8598C19.4301 24.8598 21.9001 22.3898 21.9001 19.3498C21.9001 16.3098 19.4301 13.8398 16.3901 13.8398C13.3501 13.8398 10.8801 16.3098 10.8801 19.3498C10.8801 22.3898 13.3501 24.8598 16.3901 24.8598ZM22.9001 19.3498C22.9001 22.9498 19.9901 25.8598 16.3901 25.8598C12.7901 25.8598 9.88013 22.9498 9.88013 19.3498C9.88013 15.7498 12.7901 12.8398 16.3901 12.8398C19.9901 12.8398 22.9001 15.7498 22.9001 19.3498Z" fill="#41AB83"/>
</svg>
