<svg width="42" height="42" viewBox="0 0 42 42" fill="none" xmlns="http://www.w3.org/2000/svg">
<path d="M0 21C0 14.4768 0 11.2152 1.06569 8.64243C2.4866 5.21204 5.21204 2.4866 8.64243 1.06569C11.2152 0 14.4768 0 21 0V0C27.5232 0 30.7848 0 33.3576 1.06569C36.788 2.4866 39.5134 5.21204 40.9343 8.64243C42 11.2152 42 14.4768 42 21V21C42 27.5232 42 30.7848 40.9343 33.3576C39.5134 36.788 36.788 39.5134 33.3576 40.9343C30.7848 42 27.5232 42 21 42V42C14.4768 42 11.2152 42 8.64243 40.9343C5.21204 39.5134 2.4866 36.788 1.06569 33.3576C0 30.7848 0 27.5232 0 21V21Z" fill="#959595" fill-opacity="0.2"/>
<path d="M30.21 25.48H23.8V32.37H30.21V25.48Z" fill="#2C9A71"/>
<path d="M29.5848 9.93994H13.7852C13.0754 9.93994 12.5 10.6115 12.5 11.4399V31.3099C12.5 32.1383 13.0754 32.8099 13.7852 32.8099H29.5848C30.2946 32.8099 30.87 32.1383 30.87 31.3099V11.4399C30.87 10.6115 30.2946 9.93994 29.5848 9.93994Z" fill="#2C9A71"/>
<path d="M29.0901 28.2603C28.7301 28.2603 28.5901 28.6503 28.5901 29.1603C28.5901 29.6903 28.7501 30.0503 29.0901 30.0503C29.4001 30.0503 29.5601 29.7403 29.5601 29.1603C29.5601 28.6403 29.4201 28.2603 29.0801 28.2603H29.0901Z" fill="#F8F8F8"/>
<path d="M24.9199 25.9502C24.5599 25.9502 24.4199 26.3402 24.4199 26.8402C24.4199 27.3702 24.5899 27.7302 24.9199 27.7302C25.2299 27.7302 25.3899 27.4202 25.3899 26.8402C25.3899 26.3302 25.2599 25.9502 24.9099 25.9502H24.9199Z" fill="#F8F8F8"/>
<path d="M27 22C23.69 22 21 24.69 21 28C21 31.31 23.69 34 27 34C30.31 34 33 31.31 33 28C33 24.69 30.31 22 27 22ZM23.3 26.87C23.3 25.93 23.91 25.13 24.94 25.13C25.97 25.13 26.53 25.87 26.53 26.77C26.53 27.92 25.74 28.55 24.9 28.55C23.99 28.55 23.3 27.88 23.3 26.88V26.87ZM25.81 30.87H25.02L28.18 25.13H28.97L25.81 30.87ZM29.07 30.87C28.16 30.87 27.47 30.2 27.47 29.19C27.47 28.25 28.08 27.45 29.11 27.45C30.14 27.45 30.7 28.19 30.7 29.1C30.7 30.25 29.91 30.88 29.07 30.88V30.87Z" fill="#F8F8F8"/>
<path d="M19.52 8.5801C19.52 7.7601 20.18 7.1001 21 7.1001H22.29C23.11 7.1001 23.77 7.7601 23.77 8.5801V9.9201H19.52V8.5801Z" fill="#F8F8F8"/>
<path d="M15.2 17.3003H23.8" stroke="#F8F8F8" stroke-width="1.4" stroke-linecap="round"/>
<path d="M15.2 20.3003H20.8" stroke="#F8F8F8" stroke-width="1.4" stroke-linecap="round"/>
<path d="M15.2 14.3003H27.8" stroke="#F8F8F8" stroke-width="1.4" stroke-linecap="round"/>
</svg>
