<svg width="42" height="42" viewBox="0 0 42 42" fill="none" xmlns="http://www.w3.org/2000/svg">
<path d="M0 21C0 14.4768 0 11.2152 1.06569 8.64243C2.4866 5.21204 5.21204 2.4866 8.64243 1.06569C11.2152 0 14.4768 0 21 0V0C27.5232 0 30.7848 0 33.3576 1.06569C36.788 2.4866 39.5134 5.21204 40.9343 8.64243C42 11.2152 42 14.4768 42 21V21C42 27.5232 42 30.7848 40.9343 33.3576C39.5134 36.788 36.788 39.5134 33.3576 40.9343C30.7848 42 27.5232 42 21 42V42C14.4768 42 11.2152 42 8.64243 40.9343C5.21204 39.5134 2.4866 36.788 1.06569 33.3576C0 30.7848 0 27.5232 0 21V21Z" fill="#959595" fill-opacity="0.2"/>
<rect x="10" y="9.85938" width="21.4439" height="22.8736" rx="1.5" fill="#2C9A71"/>
<rect x="12.1445" y="13.0039" width="15.7255" height="1.4296" rx="0.714799" fill="#F8F8F8"/>
<rect x="12.1445" y="16.208" width="12.1515" height="1.4296" rx="0.714799" fill="#F8F8F8"/>
<rect x="12.1445" y="19.4124" width="7.98601" height="1.60687" rx="0.803433" fill="#F8F8F8"/>
<rect x="26.6655" y="24.6641" width="5" height="9" fill="#2C9A71"/>
<path d="M28 23C24.6915 23 22 25.6915 22 29C22 32.3085 24.6915 35 28 35C31.3085 35 34 32.3085 34 29C34 25.6915 31.3085 23 28 23ZM30.8535 32.1035C30.756 32.201 30.628 32.25 30.5 32.25C30.372 32.25 30.2439 32.201 30.1465 32.1035L27.6465 29.6035C27.5525 29.51 27.5 29.383 27.5 29.25V26C27.5 25.7235 27.724 25.5 28 25.5C28.276 25.5 28.5 25.7235 28.5 26V29.043L30.8535 31.3965C31.049 31.592 31.049 31.908 30.8535 32.1035Z" fill="#F8F8F8"/>
<path d="M19 8.5C19 7.67157 19.6716 7 20.5 7H21.7888C22.6172 7 23.2888 7.67157 23.2888 8.5V9.85919H19V8.5Z" fill="#F8F8F8"/>
</svg>
