<svg width="42" height="42" viewBox="0 0 42 42" fill="none" xmlns="http://www.w3.org/2000/svg">
<path d="M0 21C0 14.4768 0 11.2152 1.06569 8.64243C2.4866 5.21204 5.21204 2.4866 8.64243 1.06569C11.2152 0 14.4768 0 21 0V0C27.5232 0 30.7848 0 33.3576 1.06569C36.788 2.4866 39.5134 5.21204 40.9343 8.64243C42 11.2152 42 14.4768 42 21V21C42 27.5232 42 30.7848 40.9343 33.3576C39.5134 36.788 36.788 39.5134 33.3576 40.9343C30.7848 42 27.5232 42 21 42V42C14.4768 42 11.2152 42 8.64243 40.9343C5.21204 39.5134 2.4866 36.788 1.06569 33.3576C0 30.7848 0 27.5232 0 21V21Z" fill="#959595" fill-opacity="0.2"/>
<path d="M25.5399 23.5598L21.7099 27.3898C21.5399 27.5698 21.4499 27.7998 21.4499 28.0398C21.4499 28.2798 21.5499 28.5198 21.7299 28.6898C21.8999 28.8598 22.1399 28.9598 22.3799 28.9498C22.6199 28.9398 22.8599 28.8498 23.0299 28.6798L26.6299 25.0698C26.6799 25.0198 26.7399 24.9798 26.8099 24.9498C26.8799 24.9198 26.9499 24.9098 27.0199 24.9098C27.0899 24.9098 27.1599 24.9198 27.2299 24.9498C27.2999 24.9798 27.3599 25.0198 27.4099 25.0698C27.4599 25.1198 27.4999 25.1798 27.5299 25.2498C27.5599 25.3198 27.5699 25.3898 27.5699 25.4598C27.5699 25.5298 27.5599 25.5998 27.5299 25.6698C27.4999 25.7398 27.4599 25.7998 27.4099 25.8498L23.7899 29.4698C23.4499 29.7998 22.9999 30.0098 22.5299 30.0398C22.0599 30.0698 21.5799 29.9398 21.1999 29.6598H16.8799C16.7599 29.6598 16.6299 29.6598 16.5099 29.6998C16.3899 29.7398 16.2799 29.7998 16.1899 29.8798C16.0999 29.9598 16.0199 30.0598 15.9699 30.1698C15.9199 30.2798 15.8899 30.3998 15.8799 30.5298C15.8799 30.6498 15.8899 30.7798 15.9399 30.8898C15.9799 31.0098 16.0499 31.1098 16.1299 31.1998C16.2199 31.2898 16.3199 31.3598 16.4299 31.4098C16.5399 31.4598 16.6699 31.4898 16.7899 31.4898H24.7799C25.2199 31.4898 25.6399 31.3098 25.9499 31.0098L28.5299 28.4298C28.7199 28.2398 28.9399 28.0898 29.1799 27.9898C29.4199 27.8898 29.6899 27.8398 29.9499 27.8398H31.7699V23.0698H26.7099C26.4899 23.0698 26.2799 23.1098 26.0799 23.1998C25.8799 23.2798 25.6999 23.4098 25.5399 23.5598Z" fill="#F8F8F8"/>
<path d="M34.1401 22.3498H33.3701C33.2301 22.3498 33.1001 22.3998 33.0001 22.4898C32.9001 22.5798 32.8401 22.7098 32.8301 22.8398V28.0898C32.8401 28.2198 32.9001 28.3498 33.0001 28.4298C33.1001 28.5198 33.2301 28.5698 33.3601 28.5698H34.1301C34.2701 28.5698 34.4101 28.5098 34.5101 28.4098C34.6101 28.3098 34.6701 28.1698 34.6701 28.0298V22.8798C34.6701 22.8098 34.6601 22.7398 34.6301 22.6698C34.6001 22.5998 34.5601 22.5498 34.5101 22.4998C34.4601 22.4498 34.4001 22.4098 34.3401 22.3798C34.2701 22.3498 34.2001 22.3398 34.1301 22.3398L34.1401 22.3498Z" fill="#167B5E" fill-opacity="0.3"/>
<path d="M20.3401 27.4598C20.4401 27.1198 20.6001 26.8098 20.8501 26.5598L24.6401 22.7698C25.0501 21.7498 25.2701 20.6398 25.2701 19.4698C25.2701 14.5198 21.2601 10.5098 16.3101 10.5098C11.3601 10.5098 7.3501 14.5198 7.3501 19.4698C7.3501 24.4198 11.3601 28.4298 16.3101 28.4298C17.7601 28.4298 19.1301 28.0798 20.3401 27.4698V27.4598Z" fill="#2C9A71"/>
<g filter="url(#filter0_d_8654_19816)">
<path d="M15.3603 23.2199C15.0603 23.2199 14.7803 23.1099 14.5603 22.9099L11.6903 20.3599C11.1903 19.9199 11.1403 19.1599 11.5803 18.6599C12.0203 18.1599 12.7803 18.1099 13.2803 18.5499L15.2703 20.3199L19.2403 16.0799C19.7003 15.5899 20.4603 15.5699 20.9503 16.0199C21.4403 16.4799 21.4603 17.2399 21.0103 17.7299L16.2303 22.8299C16.0003 23.0699 15.6803 23.2099 15.3503 23.2099L15.3603 23.2199Z" fill="#F8F8F8"/>
</g>
<defs>
<filter id="filter0_d_8654_19816" x="7.28027" y="12.6968" width="18.0532" height="15.5229" filterUnits="userSpaceOnUse" color-interpolation-filters="sRGB">
<feFlood flood-opacity="0" result="BackgroundImageFix"/>
<feColorMatrix in="SourceAlpha" type="matrix" values="0 0 0 0 0 0 0 0 0 0 0 0 0 0 0 0 0 0 127 0" result="hardAlpha"/>
<feOffset dy="1"/>
<feGaussianBlur stdDeviation="2"/>
<feComposite in2="hardAlpha" operator="out"/>
<feColorMatrix type="matrix" values="0 0 0 0 0 0 0 0 0 0 0 0 0 0 0 0 0 0 0.25 0"/>
<feBlend mode="normal" in2="BackgroundImageFix" result="effect1_dropShadow_8654_19816"/>
<feBlend mode="normal" in="SourceGraphic" in2="effect1_dropShadow_8654_19816" result="shape"/>
</filter>
</defs>
</svg>
