<svg width="42" height="42" viewBox="0 0 42 42" fill="none" xmlns="http://www.w3.org/2000/svg">
<path d="M0 21C0 14.4768 0 11.2152 1.06569 8.64243C2.4866 5.21204 5.21204 2.4866 8.64243 1.06569C11.2152 0 14.4768 0 21 0C27.5232 0 30.7848 0 33.3576 1.06569C36.788 2.4866 39.5134 5.21204 40.9343 8.64243C42 11.2152 42 14.4768 42 21C42 27.5232 42 30.7848 40.9343 33.3576C39.5134 36.788 36.788 39.5134 33.3576 40.9343C30.7848 42 27.5232 42 21 42C14.4768 42 11.2152 42 8.64243 40.9343C5.21204 39.5134 2.4866 36.788 1.06569 33.3576C0 30.7848 0 27.5232 0 21Z" fill="#959595" fill-opacity="0.3"/>
<path d="M19.8604 18.3403H20.8504C21.1804 18.3403 21.4904 18.4503 21.7404 18.6603C22.3104 18.5803 22.8504 18.4303 23.3104 18.2203C23.4404 18.0203 23.5604 17.8003 23.6704 17.5803V15.3603C23.6704 14.8603 23.8504 14.3903 24.1704 14.0403C23.7104 11.3603 21.4204 9.32031 18.6704 9.32031C15.9204 9.32031 13.6304 11.3603 13.1704 14.0403C13.4904 14.4003 13.6704 14.8603 13.6704 15.3603V17.5803C14.5904 19.4603 16.4804 20.7603 18.6704 20.7603C18.7004 20.7603 18.7404 20.7603 18.7704 20.7603C18.5604 20.5003 18.4304 20.1803 18.4304 19.8203C18.4304 19.0103 19.0704 18.3503 19.8604 18.3503V18.3403Z" fill="#F8F8F8"/>
<path d="M11.4201 19.13H11.4801C12.1901 19.13 12.7701 18.57 12.7701 17.87V15.37C12.7701 14.88 12.4801 14.45 12.0501 14.25C12.2301 10.86 15.1301 8.16 18.6701 8.16C22.2101 8.16 25.1001 10.86 25.2901 14.25C24.8601 14.46 24.5701 14.88 24.5701 15.37V17.87C24.5701 18.04 24.6001 18.19 24.6601 18.34C23.9101 18.86 22.8101 19.23 21.5801 19.34C21.4401 19.13 21.2001 19 20.9301 19H19.9001C19.4701 19 19.1301 19.34 19.1301 19.75C19.1301 20.16 19.4801 20.5 19.9001 20.5H20.9301C21.2301 20.5 21.4801 20.33 21.6101 20.09C23.0401 19.98 24.2901 19.56 25.1601 18.93C25.3601 19.06 25.6001 19.13 25.8501 19.13H25.9101C26.6201 19.13 27.2001 18.57 27.2001 17.87V15.37C27.2001 14.87 26.9001 14.44 26.4601 14.24C26.2701 10.22 22.8401 7 18.6501 7C14.4601 7 11.0301 10.22 10.8401 14.24C10.4001 14.44 10.1001 14.87 10.1001 15.37V17.87C10.1001 18.56 10.6801 19.12 11.3901 19.12L11.4201 19.13Z" fill="#2C9A71"/>
<path d="M32.1504 24.3901H28.4304C28.0504 24.3901 27.7104 24.6101 27.5704 24.9401C27.4304 25.2701 27.5104 25.6501 27.7704 25.9001L28.9704 27.0401L25.1704 30.6501L22.1104 27.7401C21.8104 27.4501 21.3304 27.4001 20.9604 27.6101L11.1904 33.3501C10.7504 33.6101 10.6204 34.1501 10.8904 34.5701C11.0704 34.8401 11.3704 34.9901 11.6804 34.9901C11.8504 34.9901 12.0204 34.9501 12.1704 34.8601L21.3104 29.4801L24.5104 32.5201C24.8704 32.8701 25.4604 32.8701 25.8304 32.5201L30.2904 28.2801L31.4904 29.4201C31.6704 29.5901 31.9104 29.6801 32.1504 29.6801C32.2704 29.6801 32.3904 29.6601 32.5104 29.6101C32.8604 29.4701 33.0804 29.1501 33.0804 28.7901V25.2501C33.0804 24.7601 32.6604 24.3701 32.1504 24.3701V24.3901Z" fill="#2C9A71"/>
<path fill-rule="evenodd" clip-rule="evenodd" d="M14.3602 21.8401H22.9302C24.5502 21.9901 26.0102 22.6801 27.1202 23.7301C26.8802 23.9301 26.6702 24.1801 26.5402 24.4901C26.2002 25.2601 26.4002 26.1401 27.0002 26.7101L27.3502 27.0401L25.1702 29.1101L22.8802 26.9301C22.2102 26.2901 21.1802 26.1901 20.4002 26.6501L10.7202 32.3401C9.05022 32.0101 7.97021 31.1301 7.97021 28.8601C7.97021 25.1801 10.7802 22.1601 14.3802 21.8301L14.3602 21.8401Z" fill="#2C9A71"/>
<path d="M32.1504 20.2699H31.9704C31.9204 20.3899 31.8504 20.4999 31.7704 20.6099C31.7004 20.7099 31.5904 20.7999 31.4604 20.8799C31.3404 20.9599 31.1904 21.0299 31.0104 21.0699C30.8404 21.1199 30.6304 21.1399 30.3904 21.1399C30.0804 21.1399 29.7904 21.0899 29.5204 20.9799C29.2604 20.8699 29.0204 20.6999 28.8204 20.4799C28.6204 20.2599 28.4704 19.9899 28.3504 19.6699C28.2404 19.3499 28.1904 18.9899 28.1904 18.5699V18.3899C28.1904 17.9799 28.2504 17.6199 28.3604 17.2999C28.4804 16.9799 28.6404 16.7099 28.8504 16.4999C29.0604 16.2799 29.3004 16.1099 29.5704 15.9899C29.8504 15.8699 30.1404 15.8199 30.4404 15.8199C30.8504 15.8199 31.1704 15.8999 31.4104 16.0499C31.6504 16.1999 31.8304 16.4099 31.9704 16.6899H32.1504V15.5299H30.5704V14.3699H32.1504V13.8799H33.4304V14.3699H34.0404V15.5299H33.4304V20.9899H32.1504V20.2599V20.2699ZM30.8104 19.9199C31.2104 19.9199 31.5304 19.7899 31.7704 19.5399C32.0204 19.2799 32.1504 18.9499 32.1504 18.5299V18.4099C32.1504 17.9999 32.0204 17.6599 31.7704 17.4099C31.5304 17.1499 31.2004 17.0199 30.8104 17.0199C30.4204 17.0199 30.0804 17.1499 29.8304 17.3999C29.5904 17.6399 29.4604 17.9799 29.4604 18.4099V18.5299C29.4604 18.9599 29.5804 19.2999 29.8304 19.5499C30.0804 19.7899 30.4104 19.9199 30.8104 19.9199Z" fill="#F8F8F8"/>
<path d="M28.8203 21.8496H33.0503V22.6996H28.8203V21.8496Z" fill="#F8F8F8"/>
</svg>
