<svg width="42" height="42" viewBox="0 0 42 42" fill="none" xmlns="http://www.w3.org/2000/svg">
<path d="M0 21C0 14.4768 0 11.2152 1.06569 8.64243C2.4866 5.21204 5.21204 2.4866 8.64243 1.06569C11.2152 0 14.4768 0 21 0V0C27.5232 0 30.7848 0 33.3576 1.06569C36.788 2.4866 39.5134 5.21204 40.9343 8.64243C42 11.2152 42 14.4768 42 21V21C42 27.5232 42 30.7848 40.9343 33.3576C39.5134 36.788 36.788 39.5134 33.3576 40.9343C30.7848 42 27.5232 42 21 42V42C14.4768 42 11.2152 42 8.64243 40.9343C5.21204 39.5134 2.4866 36.788 1.06569 33.3576C0 30.7848 0 27.5232 0 21V21Z" fill="#959595" fill-opacity="0.2"/>
<path d="M28.7492 6.125V8.47109H21.3664C17.3961 8.47109 14.1476 11.621 14 15.5422C15.3289 12.8187 18.1344 10.932 21.3664 10.932C23.6633 10.932 25.7304 11.8835 27.2399 13.393H28.7492V15.7391L35.3664 10.932L28.7492 6.125Z" fill="#F8F8F8"/>
<path d="M13.2508 35.875V33.5289H20.6336C24.6039 33.5289 27.8524 30.379 28 26.4578C26.6711 29.1813 23.8656 31.068 20.6336 31.068C18.3367 31.068 16.2696 30.1165 14.7601 28.607H13.2508V26.2609L6.63359 31.068L13.2508 35.875Z" fill="#F8F8F8"/>
<path d="M21 9.625C14.7279 9.625 9.625 14.7279 9.625 21C9.625 27.2721 14.7279 32.375 21 32.375C27.2721 32.375 32.375 27.2721 32.375 21C32.375 14.7279 27.2721 9.625 21 9.625Z" fill="#2C9A71"/>
<g filter="url(#filter0_d_8654_19432)">
<path d="M22.4383 23.1361H22.2223C22.1583 23.2721 22.0783 23.4041 21.9823 23.5321C21.8943 23.6521 21.7743 23.7601 21.6223 23.8561C21.4783 23.9521 21.3023 24.0281 21.0943 24.0841C20.8943 24.1401 20.6503 24.1681 20.3623 24.1681C19.9943 24.1681 19.6503 24.1041 19.3303 23.9761C19.0183 23.8401 18.7423 23.6441 18.5023 23.3881C18.2703 23.1241 18.0863 22.8041 17.9503 22.4281C17.8223 22.0521 17.7583 21.6201 17.7583 21.1321V20.9161C17.7583 20.4361 17.8263 20.0081 17.9623 19.6321C18.1063 19.2561 18.2983 18.9401 18.5383 18.6841C18.7863 18.4201 19.0703 18.2201 19.3903 18.0841C19.7183 17.9481 20.0623 17.8801 20.4223 17.8801C20.9023 17.8801 21.2823 17.9721 21.5623 18.1561C21.8423 18.3321 22.0623 18.5841 22.2223 18.9121H22.4383V17.5441H20.5663V16.1761H22.4383V15.6001H23.9503V16.1761H24.6703V17.5441H23.9503V24.0001H22.4383V23.1361ZM20.8543 22.7281C21.3263 22.7281 21.7063 22.5801 21.9943 22.2841C22.2903 21.9801 22.4383 21.5841 22.4383 21.0961V20.9521C22.4383 20.4641 22.2903 20.0721 21.9943 19.7761C21.7063 19.4721 21.3263 19.3201 20.8543 19.3201C20.3823 19.3201 19.9983 19.4681 19.7023 19.7641C19.4143 20.0521 19.2703 20.4481 19.2703 20.9521V21.0961C19.2703 21.6001 19.4143 22.0001 19.7023 22.2961C19.9983 22.5841 20.3823 22.7281 20.8543 22.7281Z" fill="#F8F8F8"/>
<path d="M18.5 25H23.5V26H18.5V25Z" fill="#F8F8F8"/>
</g>
<path d="M28.749 8.47109V6.125L35.3662 10.932L28.749 15.7391V13.393V8.47109Z" fill="#F8F8F8"/>
<path d="M13.125 33.5289V35.875L6.50781 31.068L13.125 26.2609V28.607V33.5289Z" fill="#F8F8F8"/>
<defs>
<filter id="filter0_d_8654_19432" x="13.7583" y="12.6001" width="14.9121" height="18.3999" filterUnits="userSpaceOnUse" color-interpolation-filters="sRGB">
<feFlood flood-opacity="0" result="BackgroundImageFix"/>
<feColorMatrix in="SourceAlpha" type="matrix" values="0 0 0 0 0 0 0 0 0 0 0 0 0 0 0 0 0 0 127 0" result="hardAlpha"/>
<feOffset dy="1"/>
<feGaussianBlur stdDeviation="2"/>
<feComposite in2="hardAlpha" operator="out"/>
<feColorMatrix type="matrix" values="0 0 0 0 0 0 0 0 0 0 0 0 0 0 0 0 0 0 0.25 0"/>
<feBlend mode="normal" in2="BackgroundImageFix" result="effect1_dropShadow_8654_19432"/>
<feBlend mode="normal" in="SourceGraphic" in2="effect1_dropShadow_8654_19432" result="shape"/>
</filter>
</defs>
</svg>
