<svg width="42" height="42" viewBox="0 0 42 42" fill="none" xmlns="http://www.w3.org/2000/svg">
<path d="M0 21C0 14.4768 0 11.2152 1.06569 8.64243C2.4866 5.21204 5.21204 2.4866 8.64243 1.06569C11.2152 0 14.4768 0 21 0V0C27.5232 0 30.7848 0 33.3576 1.06569C36.788 2.4866 39.5134 5.21204 40.9343 8.64243C42 11.2152 42 14.4768 42 21V21C42 27.5232 42 30.7848 40.9343 33.3576C39.5134 36.788 36.788 39.5134 33.3576 40.9343C30.7848 42 27.5232 42 21 42V42C14.4768 42 11.2152 42 8.64243 40.9343C5.21204 39.5134 2.4866 36.788 1.06569 33.3576C0 30.7848 0 27.5232 0 21V21Z" fill="#959595" fill-opacity="0.2"/>
<path d="M33.41 18.6401C33.74 18.6401 34 18.3801 34 18.0501V15.6901C34 15.4801 33.89 15.2901 33.71 15.1801L22.14 8.31011C21.42 7.91011 20.61 7.90011 19.85 8.31011L8.29 15.1801C8.11 15.2901 8 15.4801 8 15.6901V18.0501C8 18.3801 8.26 18.6401 8.59 18.6401H10.36V29.2801C9.06 29.2801 8 30.3401 8 31.6401V33.4101C8 33.7401 8.26 34.0001 8.59 34.0001H33.41C33.74 34.0001 34 33.7401 34 33.4101V31.6401C34 30.3401 32.94 29.2801 31.64 29.2801V18.6401H33.41Z" fill="#2C9A71"/>
<path d="M18.6398 18.6401H15.0898V29.2801H18.6398V18.6401Z" fill="#F8F8F8"/>
<path d="M26.9099 18.6401H23.3599V29.2801H26.9099V18.6401Z" fill="#F8F8F8"/>
<path d="M21 17.1501C22.806 17.1501 24.27 15.6861 24.27 13.8801C24.27 12.0741 22.806 10.6101 21 10.6101C19.194 10.6101 17.73 12.0741 17.73 13.8801C17.73 15.6861 19.194 17.1501 21 17.1501Z" fill="#F8F8F8"/>
<path d="M21.3001 14.6501H21.2201C21.2001 14.7001 21.1701 14.7501 21.1301 14.8001C21.1001 14.8401 21.0501 14.8801 21.0001 14.9201C20.9501 14.9601 20.8801 14.9801 20.8101 15.0001C20.7401 15.0201 20.6501 15.0301 20.5401 15.0301C20.4001 15.0301 20.2801 15.0101 20.1601 14.9601C20.0401 14.9101 19.9401 14.8401 19.8501 14.7401C19.7601 14.6401 19.7001 14.5201 19.6501 14.3901C19.6001 14.2501 19.5801 14.0901 19.5801 13.9101V13.8301C19.5801 13.6501 19.6101 13.5001 19.6601 13.3601C19.7101 13.2201 19.7801 13.1001 19.8701 13.0101C19.9601 12.9101 20.0701 12.8401 20.1801 12.7901C20.3001 12.7401 20.4301 12.7101 20.5601 12.7101C20.7401 12.7101 20.8801 12.7401 20.9801 12.8101C21.0801 12.8701 21.1601 12.9701 21.2201 13.0901H21.3001V12.5901H20.6101V12.0901H21.3001V11.8801H21.8601V12.0901H22.1301V12.5901H21.8601V14.9701H21.3001V14.6501ZM20.7201 14.5001C20.8901 14.5001 21.0301 14.4501 21.1401 14.3401C21.2501 14.2301 21.3001 14.0801 21.3001 13.9001V13.8501C21.3001 13.6701 21.2501 13.5301 21.1401 13.4201C21.0301 13.3101 20.8901 13.2501 20.7201 13.2501C20.5501 13.2501 20.4001 13.3001 20.3001 13.4101C20.2001 13.5201 20.1401 13.6601 20.1401 13.8501V13.9001C20.1401 14.0901 20.1901 14.2301 20.3001 14.3401C20.4101 14.4501 20.5501 14.5001 20.7201 14.5001Z" fill="#2C9A71"/>
<path d="M21.7599 15.53H19.9199V15.9H21.7599V15.53Z" fill="#2C9A71"/>
</svg>
