<svg width="42" height="42" viewBox="0 0 42 42" fill="none" xmlns="http://www.w3.org/2000/svg">
<path d="M0 21C0 14.4768 0 11.2152 1.06569 8.64243C2.4866 5.21204 5.21204 2.4866 8.64243 1.06569C11.2152 0 14.4768 0 21 0V0C27.5232 0 30.7848 0 33.3576 1.06569C36.788 2.4866 39.5134 5.21204 40.9343 8.64243C42 11.2152 42 14.4768 42 21V21C42 27.5232 42 30.7848 40.9343 33.3576C39.5134 36.788 36.788 39.5134 33.3576 40.9343C30.7848 42 27.5232 42 21 42V42C14.4768 42 11.2152 42 8.64243 40.9343C5.21204 39.5134 2.4866 36.788 1.06569 33.3576C0 30.7848 0 27.5232 0 21V21Z" fill="#959595" fill-opacity="0.2"/>
<path fill-rule="evenodd" clip-rule="evenodd" d="M23.3124 8.19791C22.8309 8 22.2206 8 20.9999 8C19.7792 8 19.1689 8 18.6875 8.19791C18.0455 8.4618 17.5355 8.96795 17.2696 9.60502C17.1482 9.89584 17.1007 10.2341 17.0822 10.7274C17.0548 11.4524 16.6802 12.1235 16.0471 12.4862C15.414 12.849 14.6411 12.8354 13.9948 12.4964C13.555 12.2657 13.2362 12.1374 12.9217 12.0963C12.2328 12.0063 11.5361 12.1916 10.9849 12.6114C10.5715 12.9262 10.2663 13.4508 9.65598 14.4999C9.04564 15.5491 8.74047 16.0736 8.67245 16.5864C8.58176 17.27 8.76844 17.9615 9.19141 18.5085C9.38447 18.7582 9.65581 18.9681 10.0769 19.2307C10.696 19.6168 11.0943 20.2744 11.0943 21C11.0942 21.7256 10.6959 22.3831 10.0769 22.7691C9.65573 23.0317 9.38437 23.2417 9.19128 23.4914C8.76831 24.0385 8.58163 24.7299 8.67233 25.4135C8.74034 25.9263 9.04551 26.4509 9.65585 27.5C10.2662 28.5491 10.5714 29.0737 10.9848 29.3886C11.536 29.8083 12.2327 29.9936 12.9216 29.9036C13.236 29.8625 13.5549 29.7342 13.9946 29.5036C14.641 29.1645 15.4139 29.151 16.0471 29.5137C16.6802 29.8765 17.0548 30.5476 17.0822 31.2727C17.1008 31.766 17.1483 32.1042 17.2696 32.395C17.5355 33.0321 18.0455 33.5382 18.6875 33.8021C19.1689 34 19.7792 34 20.9999 34C22.2206 34 22.8309 34 23.3124 33.8021C23.9543 33.5382 24.4643 33.0321 24.7302 32.395C24.8516 32.1041 24.8991 31.7659 24.9176 31.2726C24.945 30.5476 25.3196 29.8765 25.9526 29.5137C26.5857 29.1509 27.3587 29.1645 28.0051 29.5035C28.4448 29.7342 28.7637 29.8624 29.0781 29.9035C29.767 29.9935 30.4637 29.8082 31.0149 29.3885C31.4283 29.0736 31.7335 28.5491 32.3438 27.4999C32.9542 26.4508 33.2593 25.9262 33.3274 25.4134C33.418 24.7298 33.2314 24.0384 32.8084 23.4913C32.6153 23.2416 32.344 23.0317 31.9228 22.769C31.3038 22.383 30.9055 21.7254 30.9055 20.9999C30.9056 20.2744 31.3038 19.6169 31.9228 19.2309C32.344 18.9683 32.6154 18.7584 32.8085 18.5086C33.2315 17.9615 33.4182 17.2701 33.3275 16.5865C33.2595 16.0737 32.9543 15.5491 32.344 14.5C31.7336 13.4509 31.4285 12.9263 31.015 12.6114C30.4638 12.1917 29.7671 12.0064 29.0782 12.0964C28.7638 12.1375 28.4449 12.2658 28.0052 12.4964C27.3588 12.8355 26.5859 12.849 25.9527 12.4863C25.3196 12.1235 24.945 11.4524 24.9176 10.7273C24.8991 10.234 24.8516 9.89583 24.7302 9.60502C24.4643 8.96795 23.9543 8.4618 23.3124 8.19791ZM20.9999 24.9C23.1702 24.9 24.9296 23.1539 24.9296 21C24.9296 18.8461 23.1702 17.1 20.9999 17.1C18.8296 17.1 17.0702 18.8461 17.0702 21C17.0702 23.1539 18.8296 24.9 20.9999 24.9Z" fill="#2C9A71"/>
<ellipse cx="21.0029" cy="20.9972" rx="3.93451" ry="3.91124" fill="#F8F8F8"/>
</svg>
