<svg width="42" height="42" viewBox="0 0 42 42" fill="none" xmlns="http://www.w3.org/2000/svg">
<path d="M0 21C0 14.4768 0 11.2152 1.06569 8.64243C2.4866 5.21204 5.21204 2.4866 8.64243 1.06569C11.2152 0 14.4768 0 21 0V0C27.5232 0 30.7848 0 33.3576 1.06569C36.788 2.4866 39.5134 5.21204 40.9343 8.64243C42 11.2152 42 14.4768 42 21V21C42 27.5232 42 30.7848 40.9343 33.3576C39.5134 36.788 36.788 39.5134 33.3576 40.9343C30.7848 42 27.5232 42 21 42V42C14.4768 42 11.2152 42 8.64243 40.9343C5.21204 39.5134 2.4866 36.788 1.06569 33.3576C0 30.7848 0 27.5232 0 21V21Z" fill="#959595" fill-opacity="0.2"/>
<path d="M30.9 11.1C28.26 8.46 24.74 7 21 7C17.26 7 13.74 8.46 11.1 11.1C8.46 13.74 7 17.26 7 21C7 24.74 8.46 28.26 11.1 30.9C13.74 33.54 17.26 35 21 35C24.74 35 28.26 33.54 30.9 30.9C33.54 28.26 35 24.74 35 21C35 17.26 33.54 13.74 30.9 11.1Z" fill="#2C9A71"/>
<path d="M13.5901 28.9099C16.4901 31.4899 19.7101 31.7299 21.0001 31.7299C27.1501 31.7299 32.1601 26.7299 32.1601 20.5699C32.1601 14.4099 27.1501 9.41992 21.0001 9.41992C19.7201 9.41992 18.4701 9.62992 17.2801 10.0599C17.0201 10.1499 16.8401 10.3999 16.8401 10.6799V13.7199C16.8401 13.9499 16.9601 14.1599 17.1501 14.2799C17.3401 14.3999 17.5901 14.4099 17.7901 14.2999C18.7901 13.7899 19.8701 13.5299 20.9901 13.5299C24.8801 13.5299 28.0401 16.6899 28.0401 20.5799C28.0401 24.4699 24.8801 27.6299 20.9901 27.6299C19.3301 27.6299 17.7501 27.0599 16.4901 26.0099L17.6801 24.8199C17.8501 24.6499 17.9101 24.3999 17.8401 24.1699C17.7701 23.9399 17.5801 23.7699 17.3501 23.7199L10.6201 22.3199C10.4001 22.2799 10.1801 22.3399 10.0201 22.4999C9.96008 22.5599 9.92008 22.6199 9.89008 22.6799C9.83008 22.7999 9.83008 22.9099 9.83008 22.9899C9.83008 23.0299 9.83008 23.0599 9.84008 23.0799L11.2401 29.8099C11.2901 30.0499 11.4601 30.2299 11.6901 30.2999C11.9201 30.3699 12.1701 30.2999 12.3401 30.1399L13.5701 28.9099H13.5901Z" fill="#F8F8F8"/>
<g filter="url(#filter0_d_8654_19633)">
<path d="M15.5602 11.8499H14.9902V11.4199H14.0802V11.8499H13.3002V12.5799H14.0802V13.3299C14.0202 13.2799 13.9802 13.2199 13.9202 13.1799C13.6202 12.9599 13.2502 12.8499 12.8002 12.8499C12.3502 12.8499 11.9802 12.9599 11.6602 13.1799C11.3402 13.3899 11.0902 13.6899 10.9202 14.0599C10.7502 14.4299 10.6602 14.8499 10.6602 15.3299C10.6602 15.8099 10.7502 16.2199 10.9202 16.5999C11.0902 16.9699 11.3402 17.2699 11.6502 17.4899C11.9702 17.7099 12.3502 17.8199 12.7802 17.8199C13.2102 17.8199 13.6102 17.7099 13.9102 17.4899C14.0102 17.4199 14.0902 17.3199 14.1802 17.2299V17.6899H14.9902V12.5899H15.5602V11.8599V11.8499ZM14.0502 16.1899C13.9602 16.4399 13.8302 16.6299 13.6402 16.7799C13.4502 16.9199 13.2102 16.9899 12.9102 16.9899C12.6102 16.9899 12.3802 16.9199 12.1902 16.7699C12.0002 16.6199 11.8602 16.4199 11.7602 16.1699C11.6702 15.9199 11.6202 15.6399 11.6202 15.3299C11.6202 15.0199 11.6702 14.7399 11.7602 14.4999C11.8602 14.2499 12.0002 14.0499 12.1902 13.8999C12.3802 13.7499 12.6302 13.6799 12.9302 13.6799C13.2102 13.6799 13.4502 13.7499 13.6302 13.8899C13.8202 14.0299 13.9502 14.2199 14.0402 14.4699C14.1302 14.7199 14.1702 15.0099 14.1702 15.3299C14.1702 15.6499 14.1302 15.9399 14.0402 16.1899H14.0502Z" fill="#F8F8F8"/>
<path d="M14.8903 19.0698H11.3003V19.7598H14.8903V19.0698Z" fill="#F8F8F8"/>
</g>
<defs>
<filter id="filter0_d_8654_19633" x="6.66016" y="8.41992" width="12.8999" height="16.3398" filterUnits="userSpaceOnUse" color-interpolation-filters="sRGB">
<feFlood flood-opacity="0" result="BackgroundImageFix"/>
<feColorMatrix in="SourceAlpha" type="matrix" values="0 0 0 0 0 0 0 0 0 0 0 0 0 0 0 0 0 0 127 0" result="hardAlpha"/>
<feOffset dy="1"/>
<feGaussianBlur stdDeviation="2"/>
<feComposite in2="hardAlpha" operator="out"/>
<feColorMatrix type="matrix" values="0 0 0 0 0 0 0 0 0 0 0 0 0 0 0 0 0 0 0.25 0"/>
<feBlend mode="normal" in2="BackgroundImageFix" result="effect1_dropShadow_8654_19633"/>
<feBlend mode="normal" in="SourceGraphic" in2="effect1_dropShadow_8654_19633" result="shape"/>
</filter>
</defs>
</svg>
