<svg width="42" height="42" viewBox="0 0 42 42" fill="none" xmlns="http://www.w3.org/2000/svg">
<path d="M0 21C0 14.4768 0 11.2152 1.06569 8.64243C2.4866 5.21204 5.21204 2.4866 8.64243 1.06569C11.2152 0 14.4768 0 21 0V0C27.5232 0 30.7848 0 33.3576 1.06569C36.788 2.4866 39.5134 5.21204 40.9343 8.64243C42 11.2152 42 14.4768 42 21V21C42 27.5232 42 30.7848 40.9343 33.3576C39.5134 36.788 36.788 39.5134 33.3576 40.9343C30.7848 42 27.5232 42 21 42V42C14.4768 42 11.2152 42 8.64243 40.9343C5.21204 39.5134 2.4866 36.788 1.06569 33.3576C0 30.7848 0 27.5232 0 21V21Z" fill="#959595" fill-opacity="0.2"/>
<rect x="7" y="28.9875" width="28" height="3.10047" rx="1.55024" fill="#F8F8F8"/>
<path d="M23.0276 18.7996C23.2186 18.2286 23.8157 17.8996 24.4005 18.0432L31.3856 19.7589C32.0422 19.9202 32.4211 20.6078 32.2066 21.249L30.9392 25.0386C30.7232 25.6843 29.9991 26.0047 29.376 25.7303L22.7876 22.8285C22.2407 22.5877 21.9673 21.9698 22.1569 21.4031L23.0276 18.7996Z" fill="#2C9A71"/>
<rect x="10.6562" y="21.6772" width="11.2407" height="2.0691" rx="1" transform="rotate(18.493 10.6562 21.6772)" fill="#2C9A71"/>
<rect x="15.251" y="9.11865" width="11.2407" height="2.0691" rx="1" transform="rotate(18.493 15.251 9.11865)" fill="#2C9A71"/>
<rect x="15.2412" y="11.8008" width="9.11406" height="10.3035" rx="1.15667" transform="rotate(18.493 15.2412 11.8008)" fill="#2C9A71"/>
</svg>
