<svg width="42" height="42" viewBox="0 0 42 42" fill="none" xmlns="http://www.w3.org/2000/svg">
<g filter="url(#filter0_b_11266_19101)">
<path d="M0 21C0 14.4768 0 11.2152 1.06569 8.64243C2.4866 5.21204 5.21204 2.4866 8.64243 1.06569C11.2152 0 14.4768 0 21 0C27.5232 0 30.7848 0 33.3576 1.06569C36.788 2.4866 39.5134 5.21204 40.9343 8.64243C42 11.2152 42 14.4768 42 21C42 27.5232 42 30.7848 40.9343 33.3576C39.5134 36.788 36.788 39.5134 33.3576 40.9343C30.7848 42 27.5232 42 21 42C14.4768 42 11.2152 42 8.64243 40.9343C5.21204 39.5134 2.4866 36.788 1.06569 33.3576C0 30.7848 0 27.5232 0 21Z" fill="#959595" fill-opacity="0.25"/>
<path d="M30.7541 11.9997V15.5743L30.7541 17.6851V28.9563C30.7541 31.1654 28.9632 32.9563 26.7541 32.9563H22.7379H13.9333C13.3532 32.9563 12.8822 32.4853 12.8822 31.9018V11.9997C12.8822 11.4153 13.3532 10.9434 13.9333 10.9434H29.703C30.2831 10.9434 30.7541 11.4153 30.7541 11.9997Z" fill="#2C9A71"/>
<path d="M30.7541 11.9997V15.5743L30.7541 17.6851V28.9563C30.7541 31.1654 28.9632 32.9563 26.7541 32.9563H22.7379H13.9333C13.3532 32.9563 12.8822 32.4853 12.8822 31.9018V11.9997C12.8822 11.4153 13.3532 10.9434 13.9333 10.9434H29.703C30.2831 10.9434 30.7541 11.4153 30.7541 11.9997Z" fill="black" fill-opacity="0.4"/>
<path d="M29.7541 11.0564V15.5745L29.7541 17.6853V28C29.7541 30.2091 27.9632 32 25.7541 32H21.7379H12.9333C12.3532 32 11.8822 31.529 11.8822 30.9455V11.0564C11.8822 10.472 12.3532 10 12.9333 10H28.703C29.2831 10 29.7541 10.472 29.7541 11.0564Z" fill="#2C9A71"/>
<path d="M29.7541 11.0564V15.5745L29.7541 17.6853V28C29.7541 30.2091 27.9632 32 25.7541 32H21.7379H12.9333C12.3532 32 11.8822 31.529 11.8822 30.9455V11.0564C11.8822 10.472 12.3532 10 12.9333 10H28.703C29.2831 10 29.7541 10.472 29.7541 11.0564Z" fill="black" fill-opacity="0.2"/>
<path d="M28.8719 10.0564V14.5745L28.8719 16.6853V27C28.8719 29.2091 27.081 31 24.8719 31H20.8557H12.0511C11.471 31 11 30.529 11 29.9455V10.0564C11 9.47196 11.471 9 12.0511 9H27.8208C28.4009 9 28.8719 9.47196 28.8719 10.0564Z" fill="#2C9A71"/>
<path d="M12.6 16V12.2402H14.1268C15.2602 12.2402 15.9298 12.8968 15.9298 14.0928V14.098C15.9298 15.2991 15.2602 16 14.1268 16H12.6ZM13.5562 15.2288H14.0017C14.6245 15.2288 14.958 14.851 14.958 14.1006V14.0954C14.958 13.3919 14.6036 13.0115 14.0017 13.0115H13.5562V15.2288Z" fill="url(#paint0_linear_11266_19101)"/>
<path d="M16.3936 16V12.2402H17.4983L18.4415 14.6972H18.4572L19.4004 12.2402H20.5051V16H19.6635V13.6498H19.6427L18.7229 16H18.1758L17.256 13.6498H17.2352V16H16.3936Z" fill="url(#paint1_linear_11266_19101)"/>
<path d="M21.1695 16V14.4054H20.8829V13.8348H21.1695V12.2402H22.6937C23.8271 12.2402 24.4967 12.8968 24.4967 14.0928V14.098C24.4967 15.2991 23.8271 16 22.6937 16H21.1695ZM22.1231 15.2288H22.5686C23.1914 15.2288 23.5249 14.851 23.5249 14.1006V14.0954C23.5249 13.3919 23.1705 13.0115 22.5686 13.0115H22.1231V13.8348H22.6338V14.4054H22.1231V15.2288Z" fill="url(#paint2_linear_11266_19101)"/>
<path d="M25.6405 16V13.0089H24.6035V12.2402H27.6311V13.0089H26.5942V16H25.6405Z" fill="url(#paint3_linear_11266_19101)"/>
<g opacity="0.4">
<path d="M26.0669 24.4331H21.9633C21.784 24.4331 21.6378 24.5799 21.6378 24.7599C21.6378 24.8516 21.6766 24.9342 21.7371 24.9938L24.6267 27.8951C24.686 27.9593 24.7718 27.9995 24.8654 27.9995C24.9785 27.9995 25.0778 27.9421 25.1361 27.855C25.8465 27.027 26.3033 25.9754 26.3856 24.8184C26.3902 24.7989 26.3924 24.7794 26.3924 24.7599C26.3925 24.5799 26.2474 24.4331 26.0669 24.4331Z" fill="url(#paint4_linear_11266_19101)"/>
<path d="M20.7241 18.5103C20.5448 18.5114 20.3998 18.657 20.3998 18.8371V23.416C20.3998 23.5972 20.5448 23.744 20.7241 23.744H25.2858C25.4651 23.744 25.6113 23.5972 25.6113 23.416C25.4502 20.7808 23.3498 18.672 20.7241 18.5103Z" fill="url(#paint5_linear_11266_19101)"/>
<path d="M23.2311 27.6273L19.8664 24.249C19.8093 24.1905 19.7751 24.1091 19.7751 24.0208L19.7739 19.2492C19.7739 19.0692 19.6288 18.9235 19.4495 18.9235C16.7164 19.091 14.5521 21.3706 14.5521 24.1561C14.5521 27.0516 16.8901 29.4002 19.7739 29.4002C21.0896 29.4002 22.2911 28.9117 23.2094 28.1055C23.2802 28.0458 23.3247 27.9564 23.3247 27.8566C23.3247 27.7683 23.2893 27.6869 23.2311 27.6273Z" fill="url(#paint6_linear_11266_19101)"/>
</g>
</g>
<defs>
<filter id="filter0_b_11266_19101" x="-14" y="-14" width="70" height="70" filterUnits="userSpaceOnUse" color-interpolation-filters="sRGB">
<feFlood flood-opacity="0" result="BackgroundImageFix"/>
<feGaussianBlur in="BackgroundImageFix" stdDeviation="7"/>
<feComposite in2="SourceAlpha" operator="in" result="effect1_backgroundBlur_11266_19101"/>
<feBlend mode="normal" in="SourceGraphic" in2="effect1_backgroundBlur_11266_19101" result="shape"/>
</filter>
<linearGradient id="paint0_linear_11266_19101" x1="20.1156" y1="16" x2="20.1156" y2="12.2402" gradientUnits="userSpaceOnUse">
<stop stop-color="#F2F2F2"/>
<stop offset="1" stop-color="white"/>
</linearGradient>
<linearGradient id="paint1_linear_11266_19101" x1="20.1156" y1="16" x2="20.1156" y2="12.2402" gradientUnits="userSpaceOnUse">
<stop stop-color="#F2F2F2"/>
<stop offset="1" stop-color="white"/>
</linearGradient>
<linearGradient id="paint2_linear_11266_19101" x1="20.1156" y1="16" x2="20.1156" y2="12.2402" gradientUnits="userSpaceOnUse">
<stop stop-color="#F2F2F2"/>
<stop offset="1" stop-color="white"/>
</linearGradient>
<linearGradient id="paint3_linear_11266_19101" x1="20.1156" y1="16" x2="20.1156" y2="12.2402" gradientUnits="userSpaceOnUse">
<stop stop-color="#F2F2F2"/>
<stop offset="1" stop-color="white"/>
</linearGradient>
<linearGradient id="paint4_linear_11266_19101" x1="20.4723" y1="29.4002" x2="20.4723" y2="18.5103" gradientUnits="userSpaceOnUse">
<stop stop-color="#D9D9D9"/>
<stop offset="0.5028" stop-color="#F2F2F2"/>
<stop offset="1" stop-color="white"/>
</linearGradient>
<linearGradient id="paint5_linear_11266_19101" x1="20.4723" y1="29.4002" x2="20.4723" y2="18.5103" gradientUnits="userSpaceOnUse">
<stop stop-color="#D9D9D9"/>
<stop offset="0.5028" stop-color="#F2F2F2"/>
<stop offset="1" stop-color="white"/>
</linearGradient>
<linearGradient id="paint6_linear_11266_19101" x1="20.4723" y1="29.4002" x2="20.4723" y2="18.5103" gradientUnits="userSpaceOnUse">
<stop stop-color="#D9D9D9"/>
<stop offset="0.5028" stop-color="#F2F2F2"/>
<stop offset="1" stop-color="white"/>
</linearGradient>
</defs>
</svg>
