<svg width="42" height="42" viewBox="0 0 42 42" fill="none" xmlns="http://www.w3.org/2000/svg">
<path d="M0 21C0 14.4768 0 11.2152 1.06569 8.64243C2.4866 5.21204 5.21204 2.4866 8.64243 1.06569C11.2152 0 14.4768 0 21 0V0C27.5232 0 30.7848 0 33.3576 1.06569C36.788 2.4866 39.5134 5.21204 40.9343 8.64243C42 11.2152 42 14.4768 42 21V21C42 27.5232 42 30.7848 40.9343 33.3576C39.5134 36.788 36.788 39.5134 33.3576 40.9343C30.7848 42 27.5232 42 21 42V42C14.4768 42 11.2152 42 8.64243 40.9343C5.21204 39.5134 2.4866 36.788 1.06569 33.3576C0 30.7848 0 27.5232 0 21V21Z" fill="#959595" fill-opacity="0.2"/>
<path d="M32.471 28.0155C32.471 34.213 29.1071 34.4063 20.3794 34.4063C20.3758 34.4063 20.374 34.4063 20.3704 34.4063C11.6427 34.4063 8.27881 34.213 8.27881 28.0155C8.27881 22.8043 12.9397 19.8266 17.2945 12.8577H20.3704H20.3794H23.4553C27.8101 19.8266 32.471 22.8043 32.471 28.0155Z" fill="#2C9A71"/>
<path d="M25.769 7.63782L23.7938 12.044H16.6806L14.7186 7.78732C14.6812 7.47142 15.1001 7.21432 15.5098 7.19412C15.9194 7.17402 16.3084 7.32182 16.675 7.46302C17.0416 7.60422 17.4344 7.74702 17.8422 7.71842C18.7212 7.65792 19.417 6.83117 20.2625 7.03112C20.7731 7.15042 21.0518 7.61422 21.5643 7.73192C22.2021 7.87982 22.7838 7.43612 23.3935 7.23112C24.1885 6.96224 25.1966 7.13532 25.769 7.63782Z" fill="#2C9A71"/>
<path fill-rule="evenodd" clip-rule="evenodd" d="M16.6809 11.8541C16.6809 11.8541 16.6813 11.8537 16.6824 11.8541H23.7937L23.4724 12.9956C23.4724 12.9956 22.7585 12.9393 22.0566 12.9084L23.8494 17.8551C23.9772 18.2076 23.7161 18.5799 23.3411 18.5799C23.0886 18.5799 22.8698 18.4052 22.8139 18.1589L21.6778 13.151L21.2731 16.7335C21.2411 17.0168 21.0014 17.2309 20.7163 17.2309C20.3428 17.2309 20.0738 16.8724 20.1784 16.5138L21.235 12.8888H20.242H20.2326H19.0661C18.2479 12.897 17.0024 12.9952 17.0024 12.9952L16.6814 11.856L16.6809 11.8541Z" fill="#F8F8F8"/>
<path d="M33.7307 33.4618L33.7834 32.7477L33.6003 32.7351C33.1208 31.64 31.4079 30.7323 29.3068 30.5669C27.1483 30.3969 25.272 31.0637 24.6769 32.1187L24.5339 32.1085L24.4843 32.7336C24.3751 34.1318 26.3552 35.4277 28.9083 35.6292C31.463 35.83 33.6215 34.8593 33.7307 33.4618Z" fill="#48BE92"/>
<path d="M28.9588 35.0053C26.4056 34.8038 24.4256 33.5079 24.5356 32.1097C24.6449 30.7122 26.8042 29.7415 29.3565 29.943C31.9096 30.1446 33.8897 31.4405 33.7804 32.8387C33.6704 34.2353 31.5119 35.2061 28.9588 35.0053Z" fill="#48BE92"/>
<path d="M29.2865 30.3729C31.5134 30.5484 33.2601 31.6129 33.2876 32.7836C33.2946 32.7442 33.3001 32.704 33.3033 32.6639C33.3992 31.4467 31.6093 30.3138 29.3062 30.132C27.003 29.9501 25.0575 30.7894 24.9624 32.0065C24.9593 32.0467 24.9585 32.0868 24.9593 32.127C25.1676 30.9752 27.0596 30.1965 29.2865 30.3729Z" fill="#48BE92"/>
<path d="M28.9591 34.5376C31.186 34.7132 33.078 33.9346 33.2871 32.7836C33.2604 31.6129 31.513 30.5484 29.2861 30.3729C27.0592 30.1973 25.1671 30.9759 24.958 32.127C24.9848 33.2969 26.7322 34.3621 28.9591 34.5376Z" fill="#48BE92"/>
<path opacity="0.6" d="M33.2031 33.9322C33.2031 33.9322 33.1844 33.9621 33.1396 34.0125C33.1175 34.0377 33.09 34.0684 33.0539 34.1015C33.0358 34.118 33.0177 34.1377 32.9965 34.1558C32.9753 34.1731 32.9517 34.192 32.9281 34.2125C32.8314 34.292 32.7041 34.377 32.5524 34.4652C32.4761 34.5085 32.392 34.5479 32.304 34.5927C32.2152 34.6337 32.1177 34.6699 32.0186 34.7116C31.9172 34.7478 31.8095 34.7809 31.6995 34.8179C31.5879 34.851 31.4708 34.8762 31.3505 34.9069C31.2907 34.9234 31.2286 34.9328 31.1666 34.9439C31.1037 34.9549 31.0408 34.9667 30.9771 34.9777C30.8498 35.0045 30.7177 35.0139 30.5841 35.0297C30.5173 35.0368 30.4497 35.0446 30.3821 35.0517C30.3137 35.0572 30.2453 35.0596 30.1761 35.0635C30.0378 35.069 29.8979 35.0816 29.7564 35.0809C29.6149 35.0793 29.4726 35.0777 29.3303 35.0769L29.2234 35.0761C29.188 35.0746 29.1519 35.0722 29.1165 35.0698L28.9019 35.0572C28.7596 35.0478 28.6174 35.0383 28.4751 35.0289C28.3312 35.0179 28.189 34.9998 28.049 34.9777C27.7684 34.9336 27.4964 34.8675 27.2386 34.7896C26.98 34.7124 26.7363 34.6171 26.5115 34.5132C26.2867 34.4093 26.0823 34.2936 25.9023 34.1755C25.7215 34.0574 25.5651 33.9361 25.4354 33.8188C25.3686 33.7621 25.312 33.7023 25.2562 33.6511C25.2035 33.5968 25.1564 33.5456 25.1131 33.5C25.0314 33.4055 24.9693 33.3291 24.93 33.2748C24.8899 33.2213 24.8687 33.1929 24.8687 33.1929C24.8687 33.1929 24.8922 33.2197 24.9363 33.2701C24.9591 33.2945 24.985 33.3268 25.0188 33.3614C25.0526 33.3961 25.0911 33.4362 25.1336 33.4819C25.1792 33.5244 25.2279 33.5724 25.2837 33.6228C25.3411 33.6708 25.4 33.7259 25.4692 33.7779C25.6036 33.8865 25.7648 33.996 25.9463 34.1054C26.3095 34.3235 26.7646 34.525 27.274 34.6683C27.5279 34.7415 27.7959 34.7974 28.0703 34.8407C28.2078 34.8612 28.3462 34.8785 28.4853 34.888C28.6268 34.8958 28.7691 34.9045 28.9106 34.9132L29.122 34.9273C29.1574 34.9297 29.1928 34.9328 29.2281 34.9336L29.3343 34.9352C29.475 34.9368 29.6157 34.9391 29.7548 34.9415C29.8248 34.9447 29.8939 34.9384 29.9631 34.9368C30.0323 34.9344 30.1007 34.9321 30.169 34.9297C30.2374 34.9265 30.305 34.9265 30.3726 34.9218C30.4394 34.9155 30.5063 34.9092 30.5723 34.9037C30.7036 34.8903 30.8348 34.8825 30.9598 34.8604C31.0227 34.851 31.0856 34.8415 31.1469 34.8321C31.2082 34.8226 31.2695 34.8155 31.3285 34.8006C31.4464 34.7738 31.5627 34.751 31.6736 34.7234C31.7828 34.6919 31.8897 34.6636 31.9911 34.6321C32.091 34.5959 32.1869 34.5628 32.2772 34.5282C32.3653 34.4888 32.451 34.455 32.528 34.4164C32.6813 34.3392 32.8118 34.2621 32.9116 34.1889C32.9619 34.1526 33.0067 34.1196 33.0429 34.0881C33.0814 34.0582 33.1105 34.0298 33.1341 34.0062C33.182 33.9605 33.2031 33.9322 33.2031 33.9322Z" fill="#F8F8F8"/>
<path d="M29.1023 30.7356L28.9435 29.9397L28.7399 29.9822C27.8847 28.9335 25.7403 28.4651 23.3987 28.924C20.9925 29.3956 19.1485 30.6939 18.8199 32.026L18.6611 32.059L18.7971 32.7558C19.1021 34.3138 21.656 35.1255 24.5015 34.5673C27.3462 34.0091 29.4065 32.2936 29.1023 30.7356Z" fill="#5ACBA1"/>
<path d="M24.365 33.8707C21.5187 34.4281 18.9656 33.6172 18.6606 32.0591C18.3564 30.5011 20.4167 28.7856 23.2622 28.2282C26.1077 27.6708 28.6616 28.4817 28.9666 30.0397C29.2708 31.5978 27.2105 33.3133 24.365 33.8707Z" fill="#5ACBA1"/>
<path d="M23.3163 28.7178C25.7986 28.2312 28.0271 28.8619 28.4115 30.1302C28.4076 30.0845 28.4013 30.0397 28.3926 29.9948C28.1277 28.6391 25.8317 27.947 23.2636 28.4501C20.6956 28.9532 18.8295 30.4609 19.0944 31.8166C19.103 31.8614 19.114 31.9055 19.1274 31.9488C19.0071 30.6293 20.8339 29.2043 23.3163 28.7178Z" fill="#5ACBA1"/>
<path d="M24.2238 33.3615C26.7061 32.875 28.5337 31.45 28.4119 30.1305C28.0275 28.8622 25.799 28.2324 23.3167 28.7182C20.8343 29.2047 19.0067 30.6296 19.1278 31.9491C19.5129 33.2175 21.7414 33.8481 24.2238 33.3615Z" fill="#5ACBA1"/>
<path opacity="0.6" d="M28.6699 31.4094C28.6699 31.4094 28.6581 31.448 28.6243 31.5165C28.6078 31.5503 28.5873 31.5928 28.5583 31.6401C28.5441 31.6637 28.53 31.6905 28.5127 31.7164C28.4946 31.7424 28.4749 31.77 28.4545 31.7991C28.3727 31.9156 28.2603 32.0471 28.1212 32.1888C28.0512 32.2597 27.9711 32.3282 27.8893 32.4037C27.8044 32.4754 27.7093 32.5447 27.6134 32.6202C27.5136 32.6911 27.4067 32.7596 27.2974 32.8328C27.1858 32.9029 27.0655 32.9659 26.9437 33.0359C26.884 33.0721 26.8187 33.1013 26.7543 33.1328C26.6898 33.1643 26.6246 33.1958 26.5577 33.2272C26.4273 33.295 26.2858 33.3453 26.1451 33.4036C26.0743 33.4319 26.0028 33.4603 25.9312 33.4894C25.8581 33.5162 25.7843 33.5398 25.7104 33.565C25.561 33.613 25.4125 33.6689 25.2584 33.7114C25.1043 33.7532 24.9487 33.7949 24.7923 33.8374L24.6751 33.8689C24.6358 33.8783 24.5957 33.8862 24.5564 33.8949L24.3183 33.946C24.1603 33.9791 24.0023 34.0122 23.8443 34.0452C23.6839 34.0767 23.5228 34.1003 23.364 34.1192C23.0448 34.157 22.7281 34.1673 22.4231 34.161C22.1173 34.1555 21.8225 34.1255 21.5458 34.0807C21.2691 34.0358 21.0113 33.972 20.7786 33.8972C20.546 33.8232 20.3377 33.739 20.1608 33.65C20.0704 33.6091 19.991 33.5611 19.9156 33.5217C19.8417 33.4792 19.7749 33.4375 19.7135 33.4012C19.5948 33.3225 19.5044 33.2579 19.4455 33.2107C19.3858 33.1643 19.3535 33.1399 19.3535 33.1399C19.3535 33.1399 19.3873 33.1619 19.451 33.2036C19.4832 33.2233 19.521 33.2509 19.5681 33.2784C19.6153 33.306 19.6695 33.3383 19.73 33.3737C19.7921 33.4067 19.8605 33.4437 19.936 33.4823C20.0138 33.517 20.0948 33.5595 20.1852 33.5949C20.3652 33.6721 20.5743 33.7429 20.8054 33.8075C21.2676 33.9342 21.8257 34.0161 22.4246 34.0169C22.7241 34.0193 23.0338 33.9988 23.3451 33.9626C23.5008 33.9437 23.6572 33.9193 23.812 33.8878C23.9693 33.8547 24.1265 33.8201 24.2837 33.7862L24.5195 33.7374C24.5588 33.7287 24.5981 33.7209 24.6374 33.7122L24.753 33.6815C24.9078 33.6406 25.0611 33.6004 25.2144 33.5611C25.2914 33.5429 25.3653 33.5154 25.4392 33.4918C25.5139 33.4682 25.5877 33.4445 25.6616 33.4217C25.7355 33.3981 25.8094 33.376 25.8809 33.3508C25.9517 33.3241 26.0224 33.2973 26.0924 33.2698C26.2323 33.2154 26.3722 33.1674 26.5027 33.1052C26.5687 33.0753 26.634 33.0462 26.6984 33.0178C26.7629 32.9887 26.8274 32.9619 26.8871 32.9281C27.0081 32.8635 27.1276 32.8037 27.24 32.7391C27.3501 32.6714 27.4586 32.6076 27.5592 32.5431C27.6566 32.473 27.751 32.4077 27.839 32.3423C27.9231 32.2723 28.0064 32.2101 28.0788 32.1439C28.2226 32.0125 28.3413 31.8889 28.4286 31.7794C28.4726 31.7243 28.5111 31.6747 28.541 31.629C28.5732 31.585 28.5976 31.5448 28.6156 31.5117C28.6549 31.4472 28.6699 31.4094 28.6699 31.4094Z" fill="#F8F8F8"/>
<g filter="url(#filter0_d_8654_19579)">
<path d="M21.4895 25.4514H21.3332C21.2869 25.5498 21.229 25.6453 21.1596 25.7378C21.0959 25.8247 21.0091 25.9028 20.8992 25.9722C20.795 26.0417 20.6677 26.0966 20.5172 26.1372C20.3726 26.1777 20.1961 26.1979 19.9877 26.1979C19.7215 26.1979 19.4727 26.1516 19.2412 26.059C19.0155 25.9606 18.8159 25.8189 18.6422 25.6337C18.4744 25.4427 18.3413 25.2112 18.2429 24.9392C18.1503 24.6672 18.104 24.3547 18.104 24.0017V23.8455C18.104 23.4983 18.1532 23.1887 18.2516 22.9167C18.3558 22.6447 18.4947 22.4161 18.6683 22.2309C18.8477 22.0399 19.0531 21.8953 19.2846 21.7969C19.5219 21.6985 19.7707 21.6493 20.0311 21.6493C20.3784 21.6493 20.6532 21.7159 20.8558 21.849C21.0583 21.9763 21.2175 22.1586 21.3332 22.3958H21.4895V21.4062H20.1353V20.4167H21.4895V20H22.5832V20.4167H23.104V21.4062H22.5832V26.0764H21.4895V25.4514ZM20.3436 25.1562C20.6851 25.1562 20.96 25.0492 21.1683 24.8351C21.3824 24.6152 21.4895 24.3287 21.4895 23.9757V23.8715C21.4895 23.5185 21.3824 23.235 21.1683 23.0208C20.96 22.8009 20.6851 22.691 20.3436 22.691C20.0022 22.691 19.7244 22.798 19.5103 23.0122C19.302 23.2205 19.1978 23.5069 19.1978 23.8715V23.9757C19.1978 24.3403 19.302 24.6296 19.5103 24.8437C19.7244 25.0521 20.0022 25.1562 20.3436 25.1562Z" fill="#F8F8F8"/>
<path d="M18.6406 26.7998H22.2575V27.5232H18.6406V26.7998Z" fill="#F8F8F8"/>
</g>
<defs>
<filter id="filter0_d_8654_19579" x="14.104" y="17" width="13" height="15.5232" filterUnits="userSpaceOnUse" color-interpolation-filters="sRGB">
<feFlood flood-opacity="0" result="BackgroundImageFix"/>
<feColorMatrix in="SourceAlpha" type="matrix" values="0 0 0 0 0 0 0 0 0 0 0 0 0 0 0 0 0 0 127 0" result="hardAlpha"/>
<feOffset dy="1"/>
<feGaussianBlur stdDeviation="2"/>
<feComposite in2="hardAlpha" operator="out"/>
<feColorMatrix type="matrix" values="0 0 0 0 0 0 0 0 0 0 0 0 0 0 0 0 0 0 0.25 0"/>
<feBlend mode="normal" in2="BackgroundImageFix" result="effect1_dropShadow_8654_19579"/>
<feBlend mode="normal" in="SourceGraphic" in2="effect1_dropShadow_8654_19579" result="shape"/>
</filter>
</defs>
</svg>
