<svg width="42" height="42" viewBox="0 0 42 42" fill="none" xmlns="http://www.w3.org/2000/svg">
<path d="M0 21C0 14.4768 0 11.2152 1.06569 8.64243C2.4866 5.21204 5.21204 2.4866 8.64243 1.06569C11.2152 0 14.4768 0 21 0V0C27.5232 0 30.7848 0 33.3576 1.06569C36.788 2.4866 39.5134 5.21204 40.9343 8.64243C42 11.2152 42 14.4768 42 21V21C42 27.5232 42 30.7848 40.9343 33.3576C39.5134 36.788 36.788 39.5134 33.3576 40.9343C30.7848 42 27.5232 42 21 42V42C14.4768 42 11.2152 42 8.64243 40.9343C5.21204 39.5134 2.4866 36.788 1.06569 33.3576C0 30.7848 0 27.5232 0 21V21Z" fill="#959595" fill-opacity="0.2"/>
<path fill-rule="evenodd" clip-rule="evenodd" d="M31.7271 16.7505C31.2999 17.179 30.7204 17.4186 30.1161 17.4186H28.651L26.9905 19.6326C26.8056 19.8787 26.5165 20.0233 26.2091 20.0233C25.9018 20.0233 25.6127 19.8787 25.4277 19.6326L23.7673 17.4186H18.2324L16.5719 19.6326C16.387 19.8787 16.0979 20.0233 15.7905 20.0233C15.4832 20.0233 15.1941 19.8787 15.0091 19.6326L13.3487 17.4186H11.8836C11.2793 17.4186 10.6997 17.179 10.2726 16.7505C9.84412 16.3233 9.60449 15.7438 9.60449 15.1395V9.27907C9.60449 8.02102 10.6242 7 11.8836 7H30.1161C31.3755 7 32.3952 8.02102 32.3952 9.27907V15.1395C32.3952 15.7438 32.1556 16.3233 31.7271 16.7505ZM15.5349 9C15.2394 9 14.9998 9.23956 14.9998 9.53507C14.9998 9.83059 15.2394 10.0701 15.5349 10.0701H26.2363C26.5319 10.0701 26.7714 9.83059 26.7714 9.53507C26.7714 9.23956 26.5319 9 26.2363 9H15.5349ZM15.9998 11.9336C15.9998 11.6381 16.2394 11.3986 16.5349 11.3986H24.561C24.8565 11.3986 25.0961 11.6381 25.0961 11.9336C25.0961 12.2291 24.8565 12.4687 24.561 12.4687H16.5349C16.2394 12.4687 15.9998 12.2291 15.9998 11.9336ZM18.6012 13.7972C18.2691 13.7972 17.9998 14.0664 17.9998 14.3986C17.9998 14.7307 18.2691 15 18.6012 15H23.3764C23.7086 15 23.9779 14.7307 23.9779 14.3986C23.9779 14.0664 23.7086 13.7972 23.3764 13.7972H18.6012Z" fill="#F8F8F8"/>
<path d="M20.9999 28.6513C22.9778 28.6513 24.5812 27.0479 24.5812 25.0699C24.5812 23.092 22.9778 21.4885 20.9999 21.4885C19.0219 21.4885 17.4185 23.092 17.4185 25.0699C17.4185 27.0479 19.0219 28.6513 20.9999 28.6513Z" fill="#2C9A71"/>
<path d="M28.814 27.1861C30.4323 27.1861 31.7443 25.8742 31.7443 24.2559C31.7443 22.6376 30.4323 21.3257 28.814 21.3257C27.1957 21.3257 25.8838 22.6376 25.8838 24.2559C25.8838 25.8742 27.1957 27.1861 28.814 27.1861Z" fill="#2C9A71"/>
<path d="M12.5347 27.1861C14.153 27.1861 15.465 25.8742 15.465 24.2559C15.465 22.6376 14.153 21.3257 12.5347 21.3257C10.9164 21.3257 9.60449 22.6376 9.60449 24.2559C9.60449 25.8742 10.9164 27.1861 12.5347 27.1861Z" fill="#2C9A71"/>
<path fill-rule="evenodd" clip-rule="evenodd" d="M15.7907 35.0001H26.2093C26.2093 35.0001 27.1861 34.9233 27.1861 34.0064C27.1861 33.9049 27.1861 33.367 27.1861 32.721C27.1861 31.7716 26.8084 30.86 26.1377 30.188C25.4657 29.5173 24.5541 29.1396 23.6047 29.1396H18.3954C17.446 29.1396 16.5343 29.5173 15.8623 30.188C15.1916 30.86 14.814 31.7716 14.814 32.721V34.0064C14.814 34.9207 15.7868 35.0001 15.7907 35.0001Z" fill="#2C9A71"/>
<path fill-rule="evenodd" clip-rule="evenodd" d="M13.5116 33.6979V32.7211C13.5116 31.4253 14.026 30.1842 14.9416 29.2674C15.3349 28.8741 15.7894 28.555 16.2817 28.318C15.7412 28.0067 15.1239 27.8374 14.4884 27.8374H10.5814C9.632 27.8374 8.72037 28.2151 8.04837 28.8858C7.37767 29.5578 7 30.4694 7 31.4188V32.7042C7 33.621 7.97674 33.6979 7.97674 33.6979H13.5116Z" fill="#2C9A71"/>
<path fill-rule="evenodd" clip-rule="evenodd" d="M25.3643 28.1656C25.9933 28.4078 26.5715 28.7816 27.0586 29.2674C27.9741 30.1842 28.4885 31.4253 28.4885 32.7211V33.6979H33.3723C33.3723 33.6979 34.349 33.621 34.349 32.7042C34.349 32.6026 34.349 32.0648 34.349 31.4188C34.349 30.4694 33.9713 29.5578 33.3006 28.8858C32.6286 28.2151 31.717 27.8374 30.7676 27.8374H26.8606C26.3384 27.8374 25.8292 27.9507 25.3643 28.1656Z" fill="#2C9A71"/>
</svg>
