<svg width="42" height="42" viewBox="0 0 42 42" fill="none" xmlns="http://www.w3.org/2000/svg">
<path d="M0 21C0 14.4768 0 11.2152 1.06569 8.64243C2.4866 5.21204 5.21204 2.4866 8.64243 1.06569C11.2152 0 14.4768 0 21 0V0C27.5232 0 30.7848 0 33.3576 1.06569C36.788 2.4866 39.5134 5.21204 40.9343 8.64243C42 11.2152 42 14.4768 42 21V21C42 27.5232 42 30.7848 40.9343 33.3576C39.5134 36.788 36.788 39.5134 33.3576 40.9343C30.7848 42 27.5232 42 21 42V42C14.4768 42 11.2152 42 8.64243 40.9343C5.21204 39.5134 2.4866 36.788 1.06569 33.3576C0 30.7848 0 27.5232 0 21V21Z" fill="#959595" fill-opacity="0.2"/>
<path d="M11.1099 16.9399H30.8899V28.0099C30.8899 29.0699 30.0299 29.9299 28.9699 29.9299H13.0299C11.9699 29.9299 11.1099 29.0699 11.1099 28.0099V16.9399Z" fill="#2C9A71"/>
<path fill-rule="evenodd" clip-rule="evenodd" d="M29.8599 12.0698H12.1399C11.5699 12.0698 11.1099 12.5698 11.1099 13.1898V16.1298H30.8899V13.1898C30.8899 12.5698 30.4299 12.0698 29.8599 12.0698ZM13.2199 14.9098C12.7799 14.9098 12.4099 14.5498 12.4099 14.0998C12.4099 13.6498 12.7699 13.2898 13.2199 13.2898C13.6699 13.2898 14.0299 13.6498 14.0299 14.0998C14.0299 14.5498 13.6699 14.9098 13.2199 14.9098ZM28.7799 14.9098C28.3399 14.9098 27.9699 14.5498 27.9699 14.0998C27.9699 13.6498 28.3299 13.2898 28.7799 13.2898C29.2299 13.2898 29.5899 13.6498 29.5899 14.0998C29.5899 14.5498 29.2299 14.9098 28.7799 14.9098Z" fill="#F8F8F8"/>
<path d="M21 20.6797V25.5997" stroke="#F8F8F8" stroke-width="1.4" stroke-linecap="round" stroke-linejoin="round"/>
<path d="M23.46 23.1396H18.54" stroke="#F8F8F8" stroke-width="1.4" stroke-linecap="round" stroke-linejoin="round"/>
</svg>
