<svg width="42" height="42" viewBox="0 0 42 42" fill="none" xmlns="http://www.w3.org/2000/svg">
<path d="M0 21C0 14.4768 0 11.2152 1.06569 8.64243C2.4866 5.21204 5.21204 2.4866 8.64243 1.06569C11.2152 0 14.4768 0 21 0V0C27.5232 0 30.7848 0 33.3576 1.06569C36.788 2.4866 39.5134 5.21204 40.9343 8.64243C42 11.2152 42 14.4768 42 21V21C42 27.5232 42 30.7848 40.9343 33.3576C39.5134 36.788 36.788 39.5134 33.3576 40.9343C30.7848 42 27.5232 42 21 42V42C14.4768 42 11.2152 42 8.64243 40.9343C5.21204 39.5134 2.4866 36.788 1.06569 33.3576C0 30.7848 0 27.5232 0 21V21Z" fill="#959595" fill-opacity="0.2"/>
<path d="M12.8898 9.84009H29.1098C29.8398 9.84009 30.4298 10.5101 30.4298 11.3401V31.2101C30.4298 32.0401 29.8398 32.7101 29.1098 32.7101H12.8898C12.1598 32.7101 11.5698 32.0401 11.5698 31.2101V11.3401C11.5698 10.5101 12.1598 9.84009 12.8898 9.84009Z" fill="#2C9A71"/>
<path d="M19.2998 8.49001C19.2998 7.67001 19.9598 7.01001 20.7798 7.01001H22.0698C22.8898 7.01001 23.5498 7.67001 23.5498 8.49001V9.83001H19.2998V8.49001Z" fill="#F8F8F8"/>
<path d="M31.0598 24.77C29.9298 23.64 28.4198 23.01 26.8198 23.01C25.2198 23.01 23.7098 23.63 22.5798 24.77C21.4498 25.9 20.8198 27.41 20.8198 29.01C20.8198 30.61 21.4398 32.12 22.5798 33.25C23.7098 34.38 25.2198 35.01 26.8198 35.01C28.4198 35.01 29.9298 34.39 31.0598 33.25C32.1898 32.12 32.8198 30.61 32.8198 29.01C32.8198 27.41 32.1998 25.9 31.0598 24.77Z" fill="#F8F8F8"/>
<path d="M27.16 26.27H26.46V28.82H27.16V26.27Z" fill="#2C9A71"/>
<path d="M30.4 32.5999L30.15 32.8499L29.09 31.7899L29.59 31.2899L30.14 31.8399C30.74 31.1399 31.09 30.2799 31.17 29.3599H30.39V28.6599H31.17C31.09 27.7199 30.72 26.8599 30.14 26.1799L29.59 26.7299L29.09 26.2299L29.64 25.6799C28.96 25.0999 28.1 24.7299 27.16 24.6499V25.4299H26.46V24.6499C25.52 24.7299 24.66 25.0999 23.98 25.6799L24.53 26.2299L24.03 26.7299L23.48 26.1799C22.9 26.8599 22.53 27.7199 22.45 28.6599H23.23V29.3599H22.45C22.52 30.2799 22.88 31.1399 23.48 31.8399L24.03 31.2899L24.53 31.7899L23.47 32.8499L23.22 32.5999C22.26 31.6399 21.73 30.3699 21.73 29.0099C21.73 27.6499 22.26 26.3799 23.22 25.4199C24.18 24.4599 25.45 23.9299 26.81 23.9299C28.17 23.9299 29.44 24.4599 30.4 25.4199C31.36 26.3799 31.89 27.6499 31.89 29.0099C31.89 30.3699 31.36 31.6399 30.4 32.5999Z" fill="#2C9A71"/>
<path d="M27.1898 32.9899H27.0998C27.0698 33.0399 27.0398 33.0999 26.9998 33.1499C26.9598 33.1999 26.9198 33.2399 26.8598 33.2799C26.7998 33.3199 26.7298 33.3499 26.6498 33.3699C26.5698 33.3899 26.4698 33.3999 26.3598 33.3999C26.2098 33.3999 26.0698 33.3699 25.9498 33.3199C25.8198 33.2699 25.7098 33.1899 25.6198 33.0799C25.5298 32.9699 25.4498 32.8499 25.3998 32.6899C25.3498 32.5399 25.3198 32.3699 25.3198 32.1699V32.0799C25.3198 31.8899 25.3498 31.7199 25.3998 31.5599C25.4598 31.4099 25.5398 31.2799 25.6298 31.1799C25.7298 31.0699 25.8398 30.9899 25.9698 30.9399C26.0998 30.8899 26.2398 30.8599 26.3798 30.8599C26.5698 30.8599 26.7298 30.8999 26.8398 30.9699C26.9498 31.0399 27.0398 31.1399 27.1098 31.2699H27.1998V30.7199H26.4498V30.1699H27.1998V29.9399H27.8098V30.1699H28.0998V30.7199H27.8098V33.3099H27.1998V32.9599L27.1898 32.9899ZM26.5598 32.8299C26.7498 32.8299 26.8998 32.7699 27.0198 32.6499C27.1398 32.5299 27.1998 32.3699 27.1998 32.1699V32.1099C27.1998 31.9099 27.1398 31.7599 27.0198 31.6399C26.8998 31.5199 26.7498 31.4599 26.5598 31.4599C26.3698 31.4599 26.2198 31.5199 26.0998 31.6399C25.9798 31.7599 25.9298 31.9099 25.9298 32.1199V32.1799C25.9298 32.3799 25.9898 32.5399 26.0998 32.6599C26.2198 32.7799 26.3698 32.8299 26.5598 32.8299Z" fill="#2C9A71"/>
<path d="M27.6199 33.9399H25.6099V34.3399H27.6199V33.9399Z" fill="#2C9A71"/>
<g filter="url(#filter0_d_8654_19783)">
<path d="M19.13 21.8401H14.21" stroke="#F8F8F8" stroke-width="1.4" stroke-linecap="round" stroke-linejoin="round"/>
</g>
<path d="M23.86 18.3401H14.21" stroke="#F8F8F8" stroke-width="1.4" stroke-linecap="round" stroke-linejoin="round"/>
<path d="M27.79 14.8401H14.21" stroke="#F8F8F8" stroke-width="1.4" stroke-linecap="round" stroke-linejoin="round"/>
<defs>
<filter id="filter0_d_8654_19783" x="5.50977" y="18.1401" width="22.3203" height="17.3999" filterUnits="userSpaceOnUse" color-interpolation-filters="sRGB">
<feFlood flood-opacity="0" result="BackgroundImageFix"/>
<feColorMatrix in="SourceAlpha" type="matrix" values="0 0 0 0 0 0 0 0 0 0 0 0 0 0 0 0 0 0 127 0" result="hardAlpha"/>
<feOffset dy="5"/>
<feGaussianBlur stdDeviation="4"/>
<feComposite in2="hardAlpha" operator="out"/>
<feColorMatrix type="matrix" values="0 0 0 0 0 0 0 0 0 0 0 0 0 0 0 0 0 0 0.45 0"/>
<feBlend mode="normal" in2="BackgroundImageFix" result="effect1_dropShadow_8654_19783"/>
<feBlend mode="normal" in="SourceGraphic" in2="effect1_dropShadow_8654_19783" result="shape"/>
</filter>
</defs>
</svg>
