<svg width="42" height="42" viewBox="0 0 42 42" fill="none" xmlns="http://www.w3.org/2000/svg">
<path d="M0 21C0 14.4768 0 11.2152 1.06569 8.64243C2.4866 5.21204 5.21204 2.4866 8.64243 1.06569C11.2152 0 14.4768 0 21 0V0C27.5232 0 30.7848 0 33.3576 1.06569C36.788 2.4866 39.5134 5.21204 40.9343 8.64243C42 11.2152 42 14.4768 42 21V21C42 27.5232 42 30.7848 40.9343 33.3576C39.5134 36.788 36.788 39.5134 33.3576 40.9343C30.7848 42 27.5232 42 21 42V42C14.4768 42 11.2152 42 8.64243 40.9343C5.21204 39.5134 2.4866 36.788 1.06569 33.3576C0 30.7848 0 27.5232 0 21V21Z" fill="#959595" fill-opacity="0.2"/>
<path d="M25.5804 24.8001L21.7504 28.6301C21.5804 28.8101 21.4904 29.0401 21.4904 29.2801C21.4904 29.5201 21.5904 29.7601 21.7704 29.9301C21.9404 30.1001 22.1804 30.2001 22.4204 30.1901C22.6604 30.1801 22.9004 30.0901 23.0704 29.9201L26.6704 26.3101C26.7204 26.2601 26.7804 26.2201 26.8504 26.1901C26.9204 26.1601 26.9904 26.1501 27.0604 26.1501C27.1304 26.1501 27.2004 26.1601 27.2704 26.1901C27.3404 26.2201 27.4004 26.2601 27.4504 26.3101C27.5004 26.3601 27.5404 26.4201 27.5704 26.4901C27.6004 26.5601 27.6104 26.6301 27.6104 26.7001C27.6104 26.7701 27.6004 26.8401 27.5704 26.9101C27.5404 26.9801 27.5004 27.0401 27.4504 27.0901L23.8304 30.7101C23.4904 31.0401 23.0404 31.2501 22.5704 31.2801C22.1004 31.3101 21.6204 31.1801 21.2404 30.9001H16.9204C16.8004 30.9001 16.6704 30.9001 16.5504 30.9401C16.4304 30.9801 16.3204 31.0401 16.2304 31.1201C16.1404 31.2001 16.0604 31.3001 16.0104 31.4101C15.9604 31.5201 15.9304 31.6401 15.9204 31.7701C15.9204 31.8901 15.9304 32.0201 15.9804 32.1301C16.0204 32.2501 16.0904 32.3501 16.1704 32.4401C16.2604 32.5301 16.3604 32.6001 16.4704 32.6501C16.5804 32.7001 16.7104 32.7301 16.8304 32.7301H24.8204C25.2604 32.7301 25.6804 32.5501 25.9904 32.2501L28.5704 29.6701C28.7604 29.4801 28.9804 29.3301 29.2204 29.2301C29.4604 29.1301 29.7304 29.0801 29.9904 29.0801H31.8104V24.3101H26.7504C26.5304 24.3101 26.3204 24.3501 26.1204 24.4401C25.9204 24.5201 25.7404 24.6501 25.5804 24.8001Z" fill="#F8F8F8"/>
<path d="M34.1806 23.5901H33.4106C33.2706 23.5901 33.1406 23.6401 33.0406 23.7301C32.9406 23.8201 32.8806 23.9501 32.8706 24.0801V29.3301C32.8806 29.4601 32.9406 29.5901 33.0406 29.6701C33.1406 29.7601 33.2706 29.8101 33.4006 29.8101H34.1706C34.3106 29.8101 34.4506 29.7501 34.5506 29.6501C34.6506 29.5501 34.7106 29.4101 34.7106 29.2701V24.1201C34.7106 24.0501 34.7006 23.9801 34.6706 23.9101C34.6406 23.8401 34.6006 23.7901 34.5506 23.7401C34.5006 23.6901 34.4406 23.6501 34.3806 23.6201C34.3106 23.5901 34.2406 23.5801 34.1706 23.5801L34.1806 23.5901Z" fill="url(#paint0_linear_8654_19741)"/>
<path d="M25.5804 24.8201L21.7504 28.6501C21.5804 28.8301 21.4904 29.0601 21.4904 29.3001C21.4904 29.5401 21.5904 29.7801 21.7704 29.9501C21.9404 30.1201 22.1804 30.2201 22.4204 30.2101C22.6604 30.2001 22.9004 30.1101 23.0704 29.9401L26.6704 26.3301C26.7204 26.2801 26.7804 26.2401 26.8504 26.2101C26.9204 26.1801 26.9904 26.1701 27.0604 26.1701C27.1304 26.1701 27.2004 26.1801 27.2704 26.2101C27.3404 26.2401 27.4004 26.2801 27.4504 26.3301C27.5004 26.3801 27.5404 26.4401 27.5704 26.5101C27.6004 26.5801 27.6104 26.6501 27.6104 26.7201C27.6104 26.7901 27.6004 26.8601 27.5704 26.9301C27.5404 27.0001 27.5004 27.0601 27.4504 27.1101L23.8304 30.7301C23.4904 31.0601 23.0404 31.2701 22.5704 31.3001C22.1004 31.3301 21.6204 31.2001 21.2404 30.9201H16.9204C16.8004 30.9201 16.6704 30.9201 16.5504 30.9601C16.4304 31.0001 16.3204 31.0601 16.2304 31.1401C16.1404 31.2201 16.0604 31.3201 16.0104 31.4301C15.9604 31.5401 15.9304 31.6601 15.9204 31.7901C15.9204 31.9101 15.9304 32.0401 15.9804 32.1501C16.0204 32.2701 16.0904 32.3701 16.1704 32.4601C16.2604 32.5501 16.3604 32.6201 16.4704 32.6701C16.5804 32.7201 16.7104 32.7501 16.8304 32.7501H24.8204C25.2604 32.7501 25.6804 32.5701 25.9904 32.2701L28.5704 29.6901C28.7604 29.5001 28.9804 29.3501 29.2204 29.2501C29.4604 29.1501 29.7304 29.1001 29.9904 29.1001H31.8104V24.3301H26.7504C26.5304 24.3301 26.3204 24.3701 26.1204 24.4601C25.9204 24.5401 25.7404 24.6701 25.5804 24.8201Z" fill="#F8F8F8"/>
<path d="M34.1806 23.6001H33.4106C33.2706 23.6001 33.1406 23.6501 33.0406 23.7401C32.9406 23.8301 32.8806 23.9601 32.8706 24.0901V29.3401C32.8806 29.4701 32.9406 29.6001 33.0406 29.6801C33.1406 29.7701 33.2706 29.8201 33.4006 29.8201H34.1706C34.3106 29.8201 34.4506 29.7601 34.5506 29.6601C34.6506 29.5601 34.7106 29.4201 34.7106 29.2801V24.1301C34.7106 24.0601 34.7006 23.9901 34.6706 23.9201C34.6406 23.8501 34.6006 23.8001 34.5506 23.7501C34.5006 23.7001 34.4406 23.6601 34.3806 23.6301C34.3106 23.6001 34.2406 23.5901 34.1706 23.5901L34.1806 23.6001Z" fill="#F8F8F8"/>
<path d="M10.3003 13.09C11.2203 13.92 12.2403 14.55 12.2403 14.55C12.3003 14.59 12.3603 14.61 12.4303 14.61H17.8703C17.9403 14.61 18.0103 14.59 18.0603 14.55C18.0603 14.55 19.0803 13.92 20.0003 13.09C20.4603 12.68 20.9003 12.22 21.1803 11.73C21.4603 11.24 21.6003 10.65 21.2903 10.15C21.0803 9.80999 20.6603 9.66999 20.3203 9.71999C19.9803 9.76999 19.6703 9.92999 19.3603 10.09C18.7303 10.42 18.0803 10.76 17.7503 10.71C17.4103 10.66 17.0603 10.36 16.6603 10.01C16.2603 9.65999 15.7903 9.23999 15.1403 9.23999C14.4903 9.23999 14.0203 9.64999 13.6203 10.01C13.2203 10.36 12.8703 10.66 12.5303 10.71C12.2003 10.76 11.5503 10.42 10.9203 10.09C10.6103 9.91999 10.3003 9.76999 9.96029 9.71999C9.62029 9.66999 9.20029 9.80999 8.99029 10.15C8.68029 10.65 8.82029 11.24 9.10029 11.73C9.38029 12.22 9.82029 12.68 10.2803 13.09H10.3003Z" fill="#2C9A71"/>
<path d="M23.2903 25.4101C23.3203 25.1501 23.3403 24.8701 23.3403 24.5801C23.3403 22.8701 22.8103 20.8901 21.9103 19.1701C21.0103 17.4501 19.7303 15.9801 18.1603 15.3701C18.1203 15.3501 18.0703 15.3501 18.0303 15.3501H12.5903C12.5903 15.3501 12.5003 15.3501 12.4603 15.3701C10.8903 15.9801 9.61027 17.4501 8.71027 19.1701C7.81027 20.8901 7.28027 22.8701 7.28027 24.5801C7.28027 26.8001 8.25027 28.1701 9.73027 28.8701C11.2203 29.5701 13.1703 29.6901 15.3103 29.6901C17.1803 29.6901 18.9003 29.5801 20.3003 29.0801C20.3503 28.6101 20.5403 28.1701 20.8803 27.8301L23.2903 25.4201V25.4101Z" fill="#2C9A71"/>
<g filter="url(#filter0_d_8654_19741)">
<path d="M13.4803 25.1501V20.7601H11.8003V19.8201H16.1603V20.7601H14.4803V25.1501H13.4703H13.4803Z" fill="#F8F8F8"/>
<path d="M17.9602 24.1501V22.8701H16.6802V22.0901H17.9602V20.8201H18.7402V22.0901H20.0102V22.8701H18.7402V24.1501H17.9602Z" fill="#F8F8F8"/>
</g>
<defs>
<filter id="filter0_d_8654_19741" x="7.80029" y="16.8201" width="16.21" height="13.3298" filterUnits="userSpaceOnUse" color-interpolation-filters="sRGB">
<feFlood flood-opacity="0" result="BackgroundImageFix"/>
<feColorMatrix in="SourceAlpha" type="matrix" values="0 0 0 0 0 0 0 0 0 0 0 0 0 0 0 0 0 0 127 0" result="hardAlpha"/>
<feOffset dy="1"/>
<feGaussianBlur stdDeviation="2"/>
<feComposite in2="hardAlpha" operator="out"/>
<feColorMatrix type="matrix" values="0 0 0 0 0 0 0 0 0 0 0 0 0 0 0 0 0 0 0.25 0"/>
<feBlend mode="normal" in2="BackgroundImageFix" result="effect1_dropShadow_8654_19741"/>
<feBlend mode="normal" in="SourceGraphic" in2="effect1_dropShadow_8654_19741" result="shape"/>
</filter>
<linearGradient id="paint0_linear_8654_19741" x1="33.7906" y1="29.8101" x2="33.7906" y2="23.5801" gradientUnits="userSpaceOnUse">
<stop stop-color="#ABABAB"/>
<stop offset="1" stop-color="#E2E2E2"/>
</linearGradient>
</defs>
</svg>
