<svg width="42" height="42" viewBox="0 0 42 42" fill="none" xmlns="http://www.w3.org/2000/svg">
<path d="M0 21C0 14.4768 0 11.2152 1.06569 8.64243C2.4866 5.21204 5.21204 2.4866 8.64243 1.06569C11.2152 0 14.4768 0 21 0V0C27.5232 0 30.7848 0 33.3576 1.06569C36.788 2.4866 39.5134 5.21204 40.9343 8.64243C42 11.2152 42 14.4768 42 21V21C42 27.5232 42 30.7848 40.9343 33.3576C39.5134 36.788 36.788 39.5134 33.3576 40.9343C30.7848 42 27.5232 42 21 42V42C14.4768 42 11.2152 42 8.64243 40.9343C5.21204 39.5134 2.4866 36.788 1.06569 33.3576C0 30.7848 0 27.5232 0 21V21Z" fill="#959595" fill-opacity="0.2"/>
<path d="M30.9573 31.348H16.9571C16.5868 31.348 16.2866 30.971 16.2866 30.5059V13.5613C16.2866 12.3217 17.0866 11.3169 18.0736 11.3169H30.6263C31.6133 11.3169 32.4133 12.3217 32.4133 13.5613V29.5193C32.4133 30.5294 31.7615 31.348 30.9573 31.348Z" fill="#2C9A71"/>
<path d="M17.0436 12.9556C17.2901 13.9274 18.009 14.5871 18.8211 14.5871H23.772C23.7066 14.5871 23.6418 14.5825 23.5777 14.574L21.5677 12.0511C21.2234 11.5974 20.7398 11.324 20.2173 11.324H18.11C17.5404 11.324 17.0306 11.6452 16.6885 12.1507C16.8448 12.382 16.9671 12.6536 17.0436 12.9556Z" fill="url(#paint0_linear_8654_19963)"/>
<path d="M30.0958 31.348H13.7808C13.095 31.348 12.5391 30.6497 12.5391 29.7884V14.3371C12.5391 13.4758 13.095 12.7776 13.7808 12.7776H30.0958C30.7816 12.7776 31.3375 13.4758 31.3375 14.3371V29.7884C31.3375 30.6497 30.7816 31.348 30.0958 31.348Z" fill="#F8F8F8"/>
<path d="M23.9284 15.1779V14.5871H23.7716C22.9597 14.5871 22.2409 13.9274 21.9943 12.9556C21.7478 11.9837 21.029 11.324 20.2169 11.324H18.1096C17.0795 11.324 16.2441 12.3729 16.2441 13.6669V15.1779H23.9284Z" fill="#F8F8F8"/>
<path d="M17.0435 12.9556C16.7969 11.9837 16.0781 11.324 15.2662 11.324H13.1589C12.1286 11.324 11.2935 12.3729 11.2935 13.6669V29.0342C11.2935 30.3121 12.1183 31.348 13.1357 31.348H30.6284C30.3471 31.348 30.1191 31.0617 30.1191 30.7083V16.9301C30.1191 15.6363 29.2839 14.5871 28.2537 14.5871H18.8209C18.0088 14.5871 17.29 13.9274 17.0435 12.9556Z" fill="#2C9A71"/>
<path d="M33.2375 23.3579C32.5742 23.2862 31.911 23.1428 31.2836 22.9097C30.71 22.7125 30.1543 22.4437 29.6344 22.121C29.3655 21.9597 29.007 21.9597 28.7381 22.121C28.2183 22.4437 27.6626 22.7125 27.089 22.9097C26.4616 23.1248 25.7983 23.2862 25.1351 23.3579C24.6869 23.4117 24.3643 23.7702 24.3643 24.2183V26.7996C24.3643 28.7356 25.4219 30.5282 27.1069 31.4603L28.774 32.3924C29.0429 32.5359 29.3476 32.5359 29.6165 32.3924L31.2836 31.4603C32.9686 30.5282 34.0262 28.7356 34.0262 26.7996V24.2183C34.0262 23.7702 33.6856 23.3937 33.2554 23.3579H33.2375Z" fill="#F8F8F8"/>
<path d="M28.8277 28.8431C28.6842 28.8431 28.5408 28.7893 28.4333 28.6997L27.0172 27.4449C26.7662 27.2298 26.7483 26.8533 26.9634 26.6024C27.1785 26.3514 27.5549 26.3335 27.8059 26.5486L28.7918 27.427L30.7457 25.3297C30.9787 25.0966 31.3552 25.0787 31.5882 25.2938C31.8212 25.5268 31.8392 25.9033 31.6241 26.1363L29.2758 28.6459C29.1682 28.7714 29.0069 28.8431 28.8456 28.8252L28.8277 28.8431Z" fill="#2C9A71"/>
<defs>
<linearGradient id="paint0_linear_8654_19963" x1="22.9397" y1="17.1362" x2="16.3683" y2="11.9042" gradientUnits="userSpaceOnUse">
<stop stop-color="#FF9517" stop-opacity="0"/>
<stop offset="0.3074" stop-color="#EE8421" stop-opacity="0.305882"/>
<stop offset="0.6784" stop-color="#E07728" stop-opacity="0.678431"/>
<stop offset="1" stop-color="#DB722B"/>
</linearGradient>
</defs>
</svg>
