<svg width="42" height="42" viewBox="0 0 42 42" fill="none" xmlns="http://www.w3.org/2000/svg">
<path d="M0 21C0 14.4768 0 11.2152 1.06569 8.64243C2.4866 5.21204 5.21204 2.4866 8.64243 1.06569C11.2152 0 14.4768 0 21 0V0C27.5232 0 30.7848 0 33.3576 1.06569C36.788 2.4866 39.5134 5.21204 40.9343 8.64243C42 11.2152 42 14.4768 42 21V21C42 27.5232 42 30.7848 40.9343 33.3576C39.5134 36.788 36.788 39.5134 33.3576 40.9343C30.7848 42 27.5232 42 21 42V42C14.4768 42 11.2152 42 8.64243 40.9343C5.21204 39.5134 2.4866 36.788 1.06569 33.3576C0 30.7848 0 27.5232 0 21V21Z" fill="#959595" fill-opacity="0.2"/>
<path d="M28.2912 9.55005H14.0788C12.9307 9.55005 12 10.4544 12 11.57V29.99C12 31.1057 12.9307 32.01 14.0788 32.01H28.2912C29.4393 32.01 30.37 31.1057 30.37 29.99V11.57C30.37 10.4544 29.4393 9.55005 28.2912 9.55005Z" fill="#2C9A71"/>
<path d="M33.3802 19.8101L32.0202 18.4301C31.3602 17.7701 30.2902 17.7701 29.6202 18.4301L23.7502 24.3001C23.4302 24.6201 23.2502 25.0501 23.2602 25.5001V26.8601C23.2602 27.7901 24.0202 28.5501 24.9502 28.5501H26.3402C26.7702 28.5501 27.1902 28.3901 27.5102 28.1001L33.3802 22.2301C34.0502 21.5701 34.0502 20.4901 33.3902 19.8201C33.3902 19.8201 33.3902 19.8201 33.3802 19.8101Z" fill="#F8F8F8"/>
<g filter="url(#filter0_d_8654_19647)">
<path d="M19.3854 26.4514H19.2292C19.1829 26.5498 19.125 26.6453 19.0556 26.7378C18.9919 26.8247 18.9051 26.9028 18.7951 26.9722C18.691 27.0417 18.5637 27.0966 18.4132 27.1372C18.2685 27.1777 18.092 27.1979 17.8837 27.1979C17.6175 27.1979 17.3686 27.1516 17.1372 27.059C16.9115 26.9606 16.7118 26.8189 16.5382 26.6337C16.3704 26.4427 16.2373 26.2112 16.1389 25.9392C16.0463 25.6672 16 25.3547 16 25.0017V24.8455C16 24.4983 16.0492 24.1887 16.1476 23.9167C16.2517 23.6447 16.3906 23.4161 16.5642 23.2309C16.7436 23.0399 16.9491 22.8953 17.1806 22.7969C17.4178 22.6985 17.6667 22.6493 17.9271 22.6493C18.2743 22.6493 18.5492 22.7159 18.7517 22.849C18.9543 22.9763 19.1134 23.1586 19.2292 23.3958H19.3854V22.4063H18.0312V21.4167H19.3854V21H20.4792V21.4167H21V22.4063H20.4792V27.0764H19.3854V26.4514ZM18.2396 26.1562C18.581 26.1562 18.8559 26.0492 19.0642 25.8351C19.2784 25.6152 19.3854 25.3287 19.3854 24.9757V24.8715C19.3854 24.5185 19.2784 24.235 19.0642 24.0208C18.8559 23.8009 18.581 23.691 18.2396 23.691C17.8981 23.691 17.6204 23.798 17.4062 24.0122C17.1979 24.2205 17.0937 24.5069 17.0937 24.8715V24.9757C17.0937 25.3403 17.1979 25.6296 17.4062 25.8437C17.6204 26.0521 17.8981 26.1562 18.2396 26.1562Z" fill="#F8F8F8"/>
<path d="M16.5366 27.7998H20.1535V28.5232H16.5366V27.7998Z" fill="#F8F8F8"/>
</g>
<line x1="14.7" y1="16.3" x2="23.3" y2="16.3" stroke="url(#paint0_linear_8654_19647)" stroke-width="1.4" stroke-linecap="round"/>
<line x1="14.7" y1="13.3" x2="27.3" y2="13.3" stroke="url(#paint1_linear_8654_19647)" stroke-width="1.4" stroke-linecap="round"/>
<defs>
<filter id="filter0_d_8654_19647" x="12" y="18" width="13" height="15.5232" filterUnits="userSpaceOnUse" color-interpolation-filters="sRGB">
<feFlood flood-opacity="0" result="BackgroundImageFix"/>
<feColorMatrix in="SourceAlpha" type="matrix" values="0 0 0 0 0 0 0 0 0 0 0 0 0 0 0 0 0 0 127 0" result="hardAlpha"/>
<feOffset dy="1"/>
<feGaussianBlur stdDeviation="2"/>
<feComposite in2="hardAlpha" operator="out"/>
<feColorMatrix type="matrix" values="0 0 0 0 0 0 0 0 0 0 0 0 0 0 0 0 0 0 0.25 0"/>
<feBlend mode="normal" in2="BackgroundImageFix" result="effect1_dropShadow_8654_19647"/>
<feBlend mode="normal" in="SourceGraphic" in2="effect1_dropShadow_8654_19647" result="shape"/>
</filter>
<linearGradient id="paint0_linear_8654_19647" x1="19" y1="17" x2="19" y2="18" gradientUnits="userSpaceOnUse">
<stop stop-color="#EAF6FF"/>
<stop offset="1" stop-color="#B7E0FF"/>
</linearGradient>
<linearGradient id="paint1_linear_8654_19647" x1="21" y1="14" x2="21" y2="15" gradientUnits="userSpaceOnUse">
<stop stop-color="#EAF6FF"/>
<stop offset="1" stop-color="#B7E0FF"/>
</linearGradient>
</defs>
</svg>
