<svg width="82" height="82" viewBox="0 0 82 82" fill="none" xmlns="http://www.w3.org/2000/svg">
<rect width="82" height="82" rx="18" fill="#D6EDE4"/>
<path d="M63.3957 54.6969C63.3957 66.7968 56.8281 67.1742 39.7883 67.1742C39.7813 67.1742 39.7778 67.1742 39.7707 67.1742C22.7309 67.1742 16.1633 66.7968 16.1633 54.6969C16.1633 44.5227 25.2632 38.7091 33.7654 25.1031H39.7707H39.7883H45.7936C54.2959 38.7091 63.3957 44.5227 63.3957 54.6969Z" fill="#2C9A71"/>
<path d="M50.3105 14.9119L46.4541 23.5145H32.5665L28.7359 15.2038C28.6629 14.587 29.4807 14.0851 30.2806 14.0456C31.0803 14.0064 31.8398 14.2949 32.5555 14.5706C33.2713 14.8463 34.0382 15.1251 34.8343 15.0692C36.5505 14.9511 37.9089 13.337 39.5597 13.7274C40.5566 13.9603 41.1007 14.8658 42.1013 15.0956C43.3465 15.3844 44.4822 14.5181 45.6726 14.1179C47.2247 13.5929 49.1929 13.9308 50.3105 14.9119Z" fill="#2C9A71"/>
<path fill-rule="evenodd" clip-rule="evenodd" d="M32.5673 23.1439C32.5673 23.1439 32.5681 23.1431 32.5702 23.1439H46.4542L45.8269 25.3725C45.8269 25.3725 44.4331 25.2626 43.0627 25.2023L46.5629 34.8601C46.8124 35.5483 46.3027 36.2752 45.5705 36.2752C45.0776 36.2752 44.6504 35.9341 44.5412 35.4532L42.3231 25.6759L41.533 32.6703C41.4705 33.2234 41.0025 33.6414 40.4459 33.6414C39.7167 33.6414 39.1915 32.9415 39.3957 32.2414L41.4586 25.164H39.5199H39.5016H37.2241C35.6267 25.18 33.195 25.3717 33.195 25.3717L32.5683 23.1476L32.5673 23.1439Z" fill="#F8F8F8"/>
<path d="M65.8553 65.3302L65.9582 63.936L65.6007 63.9114C64.6646 61.7733 61.3203 60.0012 57.2182 59.6782C53.004 59.3463 49.3407 60.6482 48.1789 62.7079L47.8997 62.688L47.8028 63.9085C47.5896 66.6383 51.4556 69.1684 56.4402 69.5618C61.4279 69.9538 65.6421 68.0586 65.8553 65.3302Z" fill="#48BE92"/>
<path d="M56.5388 68.3434C51.554 67.95 47.6883 65.4199 47.9031 62.6901C48.1165 59.9617 52.3322 58.0665 57.3153 58.4599C62.2999 58.8535 66.1658 61.3836 65.9524 64.1134C65.7377 66.8401 61.5235 68.7355 56.5388 68.3434Z" fill="#48BE92"/>
<path d="M57.1785 59.2993C61.5263 59.642 64.9365 61.7203 64.9902 64.0059C65.0039 63.929 65.0146 63.8505 65.0208 63.7722C65.2081 61.3958 61.7135 59.184 57.217 58.829C52.7203 58.4739 48.9219 60.1125 48.7362 62.4887C48.7302 62.5672 48.7286 62.6455 48.7302 62.724C49.1369 60.4753 52.8308 58.9549 57.1785 59.2993Z" fill="#48BE92"/>
<path d="M56.5399 67.4302C60.8877 67.773 64.5816 66.2529 64.9898 64.0057C64.9377 61.7201 61.5261 59.6417 57.1784 59.2991C52.8306 58.9563 49.1365 60.4764 48.7283 62.7238C48.7806 65.0079 52.1922 67.0875 56.5399 67.4302Z" fill="#48BE92"/>
<path opacity="0.6" d="M64.8252 66.2488C64.8252 66.2488 64.7885 66.3072 64.701 66.4056C64.6579 66.4548 64.6042 66.5147 64.5337 66.5794C64.4984 66.6116 64.463 66.65 64.4217 66.6854C64.3803 66.7191 64.3342 66.756 64.2881 66.7961C64.0993 66.9513 63.8508 67.1172 63.5546 67.2894C63.4056 67.374 63.2414 67.4509 63.0696 67.5384C62.8963 67.6184 62.7059 67.6891 62.5124 67.7705C62.3145 67.8412 62.1042 67.9058 61.8894 67.978C61.6715 68.0427 61.4429 68.0919 61.208 68.1518C61.0913 68.184 60.97 68.2024 60.849 68.224C60.7262 68.2455 60.6034 68.2685 60.479 68.29C60.2305 68.3423 59.9726 68.3607 59.7117 68.3916C59.5813 68.4054 59.4493 68.4206 59.3174 68.4345C59.1838 68.4452 59.0503 68.4499 58.9152 68.4575C58.6451 68.4683 58.372 68.4929 58.0958 68.4915C57.8195 68.4884 57.5417 68.4853 57.2638 68.4837L57.0551 68.4821C56.986 68.4792 56.9155 68.4745 56.8464 68.4698L56.4274 68.4452C56.1496 68.4269 55.872 68.4083 55.5942 68.39C55.3132 68.3685 55.0356 68.3332 54.7623 68.29C54.2144 68.2039 53.6834 68.0749 53.18 67.9228C52.6752 67.7721 52.1994 67.586 51.7605 67.3832C51.3216 67.1803 50.9225 66.9544 50.5711 66.7238C50.2181 66.4932 49.9127 66.2564 49.6595 66.0274C49.5291 65.9167 49.4186 65.8 49.3096 65.7C49.2068 65.594 49.1148 65.494 49.0303 65.405C48.8708 65.2205 48.7495 65.0713 48.6728 64.9653C48.5945 64.8609 48.5531 64.8054 48.5531 64.8054C48.5531 64.8054 48.599 64.8577 48.6851 64.9561C48.7296 65.0038 48.7802 65.0668 48.8462 65.1344C48.9121 65.2021 48.9873 65.2804 49.0703 65.3697C49.1593 65.4526 49.2544 65.5463 49.3633 65.6447C49.4754 65.7385 49.5904 65.846 49.7255 65.9476C49.9879 66.1596 50.3026 66.3734 50.657 66.587C51.3661 67.0128 52.2546 67.4062 53.2492 67.686C53.7449 67.8289 54.2681 67.938 54.8038 68.0226C55.0723 68.0626 55.3425 68.0964 55.6141 68.1149C55.8903 68.1301 56.1682 68.1471 56.4444 68.1641L56.8572 68.1916C56.9263 68.1963 56.9954 68.2024 57.0643 68.2039L57.2717 68.207C57.5464 68.2102 57.8211 68.2147 58.0926 68.2194C58.2293 68.2256 58.3642 68.2133 58.4993 68.2102C58.6344 68.2055 58.768 68.201 58.9013 68.1963C59.0348 68.1901 59.1668 68.1901 59.2988 68.1809C59.4292 68.1686 59.5598 68.1563 59.6887 68.1456C59.945 68.1194 60.2012 68.1042 60.4452 68.061C60.5681 68.0427 60.6909 68.0241 60.8105 68.0058C60.9302 67.9872 61.0499 67.9734 61.1651 67.9443C61.3953 67.8919 61.6223 67.8474 61.8389 67.7935C62.0521 67.732 62.2608 67.6768 62.4587 67.6153C62.6538 67.5446 62.841 67.48 63.0173 67.4124C63.1893 67.3355 63.3566 67.2695 63.507 67.1942C63.8063 67.0434 64.0611 66.8929 64.2559 66.75C64.3541 66.6791 64.4416 66.6147 64.5123 66.5532C64.5874 66.4948 64.6442 66.4394 64.6903 66.3933C64.7838 66.3041 64.8252 66.2488 64.8252 66.2488Z" fill="#F8F8F8"/>
<path d="M56.8195 60.0077L56.5095 58.4538L56.112 58.5368C54.4423 56.4893 50.2556 55.5748 45.6839 56.4708C40.9861 57.3915 37.3859 59.9263 36.7444 62.5271L36.4343 62.5915L36.6998 63.9519C37.2953 66.9937 42.2815 68.5785 47.837 67.4887C53.3909 66.3988 57.4134 63.0495 56.8195 60.0077Z" fill="#5ACBA1"/>
<path d="M47.5701 66.1285C42.013 67.2168 37.0284 65.6336 36.4329 62.5916C35.839 59.5498 39.8615 56.2005 45.417 55.1122C50.9725 54.0239 55.9587 55.6071 56.5541 58.6489C57.1481 61.6909 53.1256 65.0403 47.5701 66.1285Z" fill="#5ACBA1"/>
<path d="M45.523 56.068C50.3694 55.118 54.7203 56.3494 55.4708 58.8256C55.4631 58.7363 55.4508 58.6489 55.4339 58.5612C54.9167 55.9144 50.434 54.5631 45.4201 55.5454C40.4064 56.5276 36.763 59.4712 37.2802 62.1181C37.297 62.2055 37.3185 62.2916 37.3447 62.3762C37.1098 59.8 40.6764 57.0179 45.523 56.068Z" fill="#5ACBA1"/>
<path d="M47.2939 65.1347C52.1403 64.1848 55.7085 61.4027 55.4707 58.8265C54.7202 56.3503 50.3693 55.1205 45.5229 56.069C40.6763 57.0188 37.1082 59.801 37.3446 62.3771C38.0965 64.8535 42.4473 66.0847 47.2939 65.1347Z" fill="#5ACBA1"/>
<path opacity="0.6" d="M55.9743 61.3231C55.9743 61.3231 55.9513 61.3985 55.8853 61.5322C55.8531 61.5982 55.8131 61.6812 55.7564 61.7735C55.7287 61.8196 55.7012 61.8719 55.6674 61.9225C55.6321 61.9733 55.5936 62.0271 55.5538 62.084C55.3941 62.3114 55.1746 62.5682 54.903 62.8448C54.7664 62.9832 54.61 63.117 54.4503 63.2644C54.2845 63.4044 54.0989 63.5397 53.9116 63.6871C53.7168 63.8255 53.5081 63.9592 53.2947 64.1021C53.0768 64.239 52.8419 64.362 52.6041 64.4987C52.4876 64.5693 52.3601 64.6264 52.2343 64.6879C52.1084 64.7494 51.9811 64.8109 51.8505 64.8722C51.5959 65.0045 51.3196 65.1027 51.0449 65.2166C50.9067 65.2718 50.7671 65.3273 50.6273 65.3841C50.4846 65.4364 50.3405 65.4825 50.1962 65.5317C49.9046 65.6254 49.6146 65.7345 49.3138 65.8175C49.0129 65.8991 48.7091 65.9805 48.4038 66.0635L48.1749 66.125C48.0982 66.1434 48.0199 66.1588 47.9432 66.1758L47.4783 66.2755C47.1699 66.3401 46.8614 66.4048 46.5529 66.4692C46.2397 66.5307 45.9252 66.5768 45.6152 66.6137C44.992 66.6875 44.3737 66.7076 43.7782 66.6953C43.1811 66.6846 42.6056 66.626 42.0654 66.5385C41.5251 66.4509 41.0218 66.3263 40.5675 66.1803C40.1134 66.0358 39.7067 65.8714 39.3613 65.6976C39.1848 65.6178 39.0298 65.5241 38.8826 65.4471C38.7383 65.3642 38.6079 65.2827 38.488 65.2119C38.2563 65.0582 38.0798 64.9321 37.9648 64.8399C37.8482 64.7494 37.7852 64.7017 37.7852 64.7017C37.7852 64.7017 37.8511 64.7447 37.9755 64.8261C38.0384 64.8645 38.1122 64.9184 38.2041 64.9721C38.2963 65.026 38.4021 65.0891 38.5202 65.1582C38.6415 65.2226 38.775 65.2948 38.9224 65.3702C39.0743 65.438 39.2325 65.5209 39.409 65.59C39.7604 65.7408 40.1686 65.879 40.6198 66.0051C41.5222 66.2525 42.6118 66.4124 43.7811 66.4139C44.3659 66.4186 44.9705 66.3786 45.5783 66.3079C45.8823 66.271 46.1876 66.2234 46.4898 66.1619C46.797 66.0973 47.1039 66.0297 47.4108 65.9635L47.8712 65.8683C47.9479 65.8513 48.0246 65.836 48.1013 65.8191L48.327 65.7591C48.6293 65.6793 48.9286 65.6008 49.2279 65.5241C49.3782 65.4885 49.5225 65.4348 49.6668 65.3888C49.8126 65.3427 49.9567 65.2964 50.101 65.2519C50.2453 65.2058 50.3895 65.1627 50.5291 65.1135C50.6674 65.0613 50.8054 65.009 50.9421 64.9553C51.2152 64.8491 51.4883 64.7554 51.7431 64.634C51.872 64.5756 51.9995 64.5188 52.1252 64.4633C52.2511 64.4065 52.3771 64.3542 52.4936 64.2882C52.7299 64.1621 52.9632 64.0453 53.1826 63.9192C53.3976 63.787 53.6094 63.6625 53.8058 63.5365C53.996 63.3997 54.1803 63.2722 54.3521 63.1445C54.5163 63.0078 54.6789 62.8864 54.8203 62.7571C55.101 62.5006 55.3328 62.2593 55.5032 62.0455C55.5891 61.9379 55.6643 61.8411 55.7227 61.7519C55.7855 61.666 55.8332 61.5875 55.8683 61.5228C55.945 61.3969 55.9743 61.3231 55.9743 61.3231Z" fill="#F8F8F8"/>
<g filter="url(#filter0_d_11848_633354)">
<path d="M41.9561 49.6908H41.6509C41.5605 49.8829 41.4475 50.0694 41.312 50.25C41.1876 50.4196 41.0182 50.5721 40.8036 50.7076C40.6002 50.8433 40.3516 50.9505 40.0578 51.0298C39.7755 51.1088 39.4309 51.1483 39.024 51.1483C38.5043 51.1483 38.0185 51.0579 37.5666 50.8771C37.1259 50.685 36.7362 50.4083 36.3971 50.0467C36.0695 49.6738 35.8096 49.2219 35.6175 48.6908C35.4367 48.1598 35.3463 47.5496 35.3463 46.8604V46.5555C35.3463 45.8776 35.4424 45.2732 35.6345 44.7421C35.8379 44.2111 36.1091 43.7648 36.448 43.4032C36.7983 43.0303 37.1993 42.748 37.6513 42.5558C38.1146 42.3637 38.6003 42.2677 39.1087 42.2677C39.7868 42.2677 40.3233 42.3977 40.7189 42.6576C41.1142 42.9061 41.4251 43.262 41.6509 43.7251H41.9561V41.793H39.3122V39.8612H41.9561V39.0476H44.0914V39.8612H45.1082V41.793H44.0914V50.9111H41.9561V49.6908ZM39.7189 49.1145C40.3856 49.1145 40.9223 48.9056 41.329 48.4876C41.747 48.0582 41.9561 47.4989 41.9561 46.8097V46.6063C41.9561 45.9171 41.747 45.3636 41.329 44.9454C40.9223 44.516 40.3856 44.3015 39.7189 44.3015C39.0523 44.3015 38.51 44.5104 38.0919 44.9286C37.6853 45.3352 37.4818 45.8944 37.4818 46.6063V46.8097C37.4818 47.5215 37.6853 48.0864 38.0919 48.5044C38.51 48.9112 39.0523 49.1145 39.7189 49.1145Z" fill="#F8F8F8"/>
<path d="M36.3942 52.3234H43.4557V53.7357H36.3942V52.3234Z" fill="#F8F8F8"/>
</g>
<defs>
<filter id="filter0_d_11848_633354" x="31.3463" y="36.0476" width="17.762" height="22.6881" filterUnits="userSpaceOnUse" color-interpolation-filters="sRGB">
<feFlood flood-opacity="0" result="BackgroundImageFix"/>
<feColorMatrix in="SourceAlpha" type="matrix" values="0 0 0 0 0 0 0 0 0 0 0 0 0 0 0 0 0 0 127 0" result="hardAlpha"/>
<feOffset dy="1"/>
<feGaussianBlur stdDeviation="2"/>
<feComposite in2="hardAlpha" operator="out"/>
<feColorMatrix type="matrix" values="0 0 0 0 0 0 0 0 0 0 0 0 0 0 0 0 0 0 0.25 0"/>
<feBlend mode="normal" in2="BackgroundImageFix" result="effect1_dropShadow_11848_633354"/>
<feBlend mode="normal" in="SourceGraphic" in2="effect1_dropShadow_11848_633354" result="shape"/>
</filter>
</defs>
</svg>
