<svg width="42" height="42" viewBox="0 0 42 42" fill="none" xmlns="http://www.w3.org/2000/svg">
<path d="M0 21C0 14.4768 0 11.2152 1.06569 8.64243C2.4866 5.21204 5.21204 2.4866 8.64243 1.06569C11.2152 0 14.4768 0 21 0V0C27.5232 0 30.7848 0 33.3576 1.06569C36.788 2.4866 39.5134 5.21204 40.9343 8.64243C42 11.2152 42 14.4768 42 21V21C42 27.5232 42 30.7848 40.9343 33.3576C39.5134 36.788 36.788 39.5134 33.3576 40.9343C30.7848 42 27.5232 42 21 42V42C14.4768 42 11.2152 42 8.64243 40.9343C5.21204 39.5134 2.4866 36.788 1.06569 33.3576C0 30.7848 0 27.5232 0 21V21Z" fill="#959595" fill-opacity="0.3"/>
<path d="M19.2199 17.2099H20.0199C20.2799 17.2099 20.5299 17.2999 20.7399 17.4699C21.1999 17.4099 21.6399 17.2799 22.0099 17.1199C22.1199 16.9599 22.2099 16.7799 22.2999 16.5999V14.8099C22.2999 14.3999 22.4499 14.0299 22.6999 13.7399C22.3299 11.5699 20.4799 9.91992 18.2599 9.91992C16.0399 9.91992 14.1899 11.5699 13.8199 13.7399C14.0799 14.0299 14.2199 14.3999 14.2199 14.8099V16.5999C14.9599 18.1199 16.4899 19.1699 18.2599 19.1699C18.2899 19.1699 18.3099 19.1699 18.3399 19.1699C18.1699 18.9599 18.0599 18.6999 18.0599 18.4099C18.0599 17.7599 18.5799 17.2299 19.2199 17.2299V17.2099Z" fill="#F8F8F8"/>
<path d="M12.1399 17.95H12.1899C12.7899 17.95 13.2799 17.48 13.2799 16.89V14.78C13.2799 14.36 13.0299 14.01 12.6699 13.83C12.8299 10.97 15.2699 8.68996 18.2499 8.68996C21.2299 8.68996 23.6799 10.97 23.8299 13.83C23.4699 14 23.2199 14.36 23.2199 14.78V16.89C23.2199 17.03 23.2499 17.16 23.2999 17.28C22.6599 17.72 21.7399 18.03 20.6999 18.12C20.5799 17.95 20.3799 17.83 20.1499 17.83H19.2799C18.9199 17.83 18.6299 18.11 18.6299 18.46C18.6299 18.81 18.9199 19.09 19.2799 19.09H20.1499C20.3999 19.09 20.6199 18.95 20.7299 18.75C21.9399 18.66 22.9899 18.3 23.7299 17.77C23.8999 17.88 24.0999 17.94 24.3199 17.94H24.3699C24.9699 17.94 25.4599 17.47 25.4599 16.88V14.77C25.4599 14.35 25.2099 13.99 24.8399 13.82C24.6799 10.43 21.7899 7.70996 18.2499 7.70996C14.7099 7.70996 11.8199 10.42 11.6599 13.82C11.2899 13.99 11.0399 14.35 11.0399 14.77V16.88C11.0399 17.47 11.5299 17.94 12.1299 17.94L12.1399 17.95Z" fill="#2C9A71"/>
<path fill-rule="evenodd" clip-rule="evenodd" d="M20.6599 28.3798C20.7799 28.2298 20.8999 28.1098 21.0299 27.9998C20.8999 27.8998 20.7799 27.7698 20.6599 27.6298C20.2299 27.0798 20.0399 26.3698 20.1299 25.6898C20.1999 25.1698 20.4299 24.7798 20.7699 24.1798C21.1199 23.5798 21.3499 23.1798 21.7699 22.8698C22.2199 22.5298 22.7899 22.3398 23.3599 22.3398C23.4699 22.3398 23.5799 22.3398 23.6999 22.3598C23.8899 22.3898 24.0699 22.4298 24.2299 22.4998C24.2599 22.3298 24.2999 22.1598 24.3799 21.9798C24.5399 21.6098 24.7799 21.2898 25.0699 21.0298C24.2399 20.5598 23.2999 20.2798 22.3199 20.2798H14.1699C12.6799 20.2798 11.2599 20.8698 10.2099 21.9198C9.15995 22.9698 8.56995 24.3998 8.56995 25.8798V27.8898C8.56995 29.3198 10.0899 29.4398 10.0999 29.4398H20.1699C20.2499 29.0598 20.3999 28.6898 20.6499 28.3798H20.6599Z" fill="#2C9A71"/>
<path fill-rule="evenodd" clip-rule="evenodd" d="M28.56 21.81C28.33 21.71 28.03 21.71 27.44 21.71C26.85 21.71 26.55 21.71 26.32 21.81C26.01 21.94 25.76 22.18 25.63 22.49C25.57 22.63 25.55 22.79 25.54 23.03C25.53 23.38 25.35 23.7 25.04 23.88C24.73 24.06 24.36 24.05 24.05 23.88C23.84 23.77 23.68 23.71 23.53 23.69C23.2 23.65 22.86 23.74 22.59 23.94C22.39 24.09 22.24 24.35 21.95 24.85C21.65 25.36 21.51 25.61 21.47 25.86C21.43 26.19 21.52 26.52 21.72 26.79C21.81 26.91 21.94 27.01 22.15 27.14C22.45 27.33 22.64 27.64 22.64 28C22.64 28.36 22.45 28.67 22.15 28.86C21.95 28.99 21.82 29.09 21.72 29.21C21.52 29.47 21.43 29.81 21.47 30.14C21.5 30.39 21.65 30.64 21.95 31.15C22.25 31.66 22.39 31.91 22.59 32.06C22.86 32.26 23.19 32.35 23.53 32.31C23.68 32.29 23.84 32.23 24.05 32.12C24.36 31.96 24.74 31.95 25.04 32.12C25.35 32.3 25.53 32.62 25.54 32.97C25.54 33.21 25.57 33.37 25.63 33.51C25.76 33.82 26.01 34.06 26.32 34.19C26.55 34.29 26.85 34.29 27.44 34.29C28.03 34.29 28.33 34.29 28.56 34.19C28.87 34.06 29.12 33.82 29.25 33.51C29.31 33.37 29.33 33.21 29.34 32.97C29.35 32.62 29.53 32.3 29.84 32.12C30.15 31.94 30.52 31.95 30.83 32.12C31.04 32.23 31.2 32.29 31.35 32.31C31.68 32.35 32.02 32.26 32.29 32.06C32.49 31.91 32.64 31.65 32.93 31.15C33.23 30.64 33.37 30.39 33.41 30.14C33.45 29.81 33.36 29.48 33.16 29.21C33.07 29.09 32.94 28.99 32.73 28.86C32.43 28.67 32.24 28.36 32.24 28C32.24 27.65 32.43 27.33 32.73 27.14C32.93 27.01 33.06 26.91 33.16 26.79C33.36 26.53 33.45 26.19 33.41 25.86C33.38 25.61 33.23 25.36 32.93 24.85C32.63 24.34 32.49 24.09 32.29 23.94C32.02 23.74 31.69 23.65 31.35 23.69C31.2 23.71 31.04 23.77 30.83 23.88C30.52 24.04 30.14 24.05 29.84 23.88C29.53 23.7 29.35 23.38 29.34 23.03C29.34 22.79 29.31 22.63 29.25 22.49C29.12 22.18 28.87 21.94 28.56 21.81ZM27.44 29.88C28.49 29.88 29.34 29.04 29.34 27.99C29.34 26.94 28.49 26.1 27.44 26.1C26.39 26.1 25.54 26.94 25.54 27.99C25.54 29.04 26.39 29.88 27.44 29.88Z" fill="#F8F8F8"/>
</svg>
