<svg width="42" height="42" viewBox="0 0 42 42" fill="none" xmlns="http://www.w3.org/2000/svg">
<path d="M0 21C0 14.4768 0 11.2152 1.06569 8.64243C2.4866 5.21204 5.21204 2.4866 8.64243 1.06569C11.2152 0 14.4768 0 21 0C27.5232 0 30.7848 0 33.3576 1.06569C36.788 2.4866 39.5134 5.21204 40.9343 8.64243C42 11.2152 42 14.4768 42 21C42 27.5232 42 30.7848 40.9343 33.3576C39.5134 36.788 36.788 39.5134 33.3576 40.9343C30.7848 42 27.5232 42 21 42C14.4768 42 11.2152 42 8.64243 40.9343C5.21204 39.5134 2.4866 36.788 1.06569 33.3576C0 30.7848 0 27.5232 0 21Z" fill="#959595" fill-opacity="0.3"/>
<path d="M21.8498 24.5596H22.5598C22.7898 24.5596 23.0198 24.6396 23.1998 24.7896C23.6098 24.7296 23.9898 24.6296 24.3298 24.4796C24.4298 24.3296 24.5098 24.1796 24.5898 24.0196V22.4296C24.5898 22.0696 24.7198 21.7396 24.9498 21.4796C24.6198 19.5596 22.9798 18.0996 21.0098 18.0996C19.0398 18.0996 17.3998 19.5596 17.0698 21.4796C17.2998 21.7296 17.4298 22.0696 17.4298 22.4296V24.0196C18.0898 25.3696 19.4398 26.2996 21.0098 26.2996C21.0298 26.2996 21.0598 26.2996 21.0798 26.2996C20.9298 26.1196 20.8298 25.8796 20.8298 25.6196C20.8298 25.0396 21.2898 24.5696 21.8598 24.5696L21.8498 24.5596Z" fill="#F8F8F8"/>
<path d="M15.5698 25.2099H15.6198C16.1498 25.2099 16.5898 24.7899 16.5898 24.2699V22.3999C16.5898 22.0299 16.3698 21.7099 16.0498 21.5599C16.1898 19.0199 18.3598 16.9999 20.9998 16.9999C23.6398 16.9999 25.8198 19.0199 25.9498 21.5599C25.6298 21.7099 25.4098 22.0299 25.4098 22.3999V24.2699C25.4098 24.3899 25.4398 24.5099 25.4798 24.6199C24.9198 25.0099 24.0998 25.2899 23.1698 25.3699C23.0698 25.2199 22.8898 25.1099 22.6798 25.1099H21.9098C21.5898 25.1099 21.3298 25.3599 21.3298 25.6699C21.3298 25.9799 21.5898 26.2299 21.9098 26.2299H22.6798C22.8998 26.2299 23.0898 26.1099 23.1898 25.9299C24.2598 25.8499 25.1898 25.5299 25.8498 25.0599C25.9998 25.1499 26.1798 25.2099 26.3698 25.2099H26.4198C26.9498 25.2099 27.3898 24.7899 27.3898 24.2699V22.3999C27.3898 22.0299 27.1598 21.6999 26.8398 21.5499C26.6998 18.5399 24.1298 16.1299 20.9898 16.1299C17.8498 16.1299 15.2898 18.5399 15.1398 21.5499C14.8098 21.6999 14.5898 22.0199 14.5898 22.3999V24.2699C14.5898 24.7899 15.0198 25.2099 15.5598 25.2099H15.5698Z" fill="#2C9A71"/>
<path d="M22.6599 14.5798L20.9999 13.7098L19.3399 14.5798C18.8399 14.8498 18.2499 14.4198 18.3399 13.8598L18.6599 12.0098L17.3199 10.6998C16.9099 10.2998 17.1399 9.60977 17.6999 9.52977L19.5599 9.25977L20.3899 7.57977C20.6399 7.06977 21.3699 7.06977 21.6199 7.57977L22.4499 9.25977L24.3099 9.52977C24.8699 9.60977 25.0999 10.2998 24.6899 10.6998L23.3499 12.0098L23.6699 13.8598C23.7699 14.4198 23.1799 14.8498 22.6699 14.5798H22.6599Z" fill="#2C9A71"/>
<path d="M30.9998 17.0202L29.3398 16.1502L27.6798 17.0202C27.1798 17.2902 26.5898 16.8602 26.6798 16.3002L26.9998 14.4502L25.6598 13.1402C25.2498 12.7402 25.4798 12.0502 26.0398 11.9702L27.8998 11.7002L28.7298 10.0202C28.9798 9.5102 29.7098 9.5102 29.9598 10.0202L30.7898 11.7002L32.6498 11.9702C33.2098 12.0502 33.4398 12.7402 33.0298 13.1402L31.6898 14.4502L32.0098 16.3002C32.1098 16.8602 31.5198 17.2902 31.0098 17.0202H30.9998Z" fill="#2C9A71"/>
<path d="M14.3298 17.0202L12.6698 16.1502L11.0098 17.0202C10.5098 17.2902 9.91984 16.8602 10.0098 16.3002L10.3298 14.4502L8.98984 13.1402C8.57984 12.7402 8.80984 12.0502 9.36984 11.9702L11.2298 11.7002L12.0598 10.0202C12.3098 9.5102 13.0398 9.5102 13.2898 10.0202L14.1198 11.7002L15.9798 11.9702C16.5398 12.0502 16.7698 12.7402 16.3598 13.1402L15.0198 14.4502L15.3398 16.3002C15.4398 16.8602 14.8498 17.2902 14.3398 17.0202H14.3298Z" fill="#2C9A71"/>
<path fill-rule="evenodd" clip-rule="evenodd" d="M13.7699 35.4093H28.2299C28.2299 35.4093 29.5899 35.2993 29.5899 34.0293V32.2493C29.5899 30.9293 29.0699 29.6693 28.1399 28.7293C27.2099 27.7993 25.9399 27.2793 24.6199 27.2793H17.3899C16.0699 27.2793 14.8099 27.7993 13.8699 28.7293C12.9399 29.6593 12.4199 30.9293 12.4199 32.2493V34.0293C12.4199 35.2993 13.7699 35.4093 13.7799 35.4093H13.7699Z" fill="#2C9A71"/>
</svg>
