<svg width="42" height="42" viewBox="0 0 42 42" fill="none" xmlns="http://www.w3.org/2000/svg">
<path d="M0 21C0 14.4768 0 11.2152 1.06569 8.64243C2.4866 5.21204 5.21204 2.4866 8.64243 1.06569C11.2152 0 14.4768 0 21 0V0C27.5232 0 30.7848 0 33.3576 1.06569C36.788 2.4866 39.5134 5.21204 40.9343 8.64243C42 11.2152 42 14.4768 42 21V21C42 27.5232 42 30.7848 40.9343 33.3576C39.5134 36.788 36.788 39.5134 33.3576 40.9343C30.7848 42 27.5232 42 21 42V42C14.4768 42 11.2152 42 8.64243 40.9343C5.21204 39.5134 2.4866 36.788 1.06569 33.3576C0 30.7848 0 27.5232 0 21V21Z" fill="#959595" fill-opacity="0.2"/>
<path d="M10.1105 8C8.94301 8 8 8.94301 8 10.1105H12.2301C12.2301 8.94301 11.287 8 10.1195 8H10.1105Z" fill="#54AE8D"/>
<path d="M29.5632 8H10.1104C11.2779 8 12.2209 8.943 12.2209 10.1105V31.8895C12.2209 33.057 13.1639 34 14.3314 34H31.6648V10.1195C31.6648 8.95199 30.7218 8.00898 29.5542 8.00898L29.5632 8Z" fill="#2C9A71"/>
<path d="M29.5635 31.8896H16.4602C16.4602 33.0572 15.5172 34.0002 14.3496 34.0002H31.683C32.8505 34.0002 33.7935 33.0572 33.7935 31.8896H29.5635Z" fill="#54AE8D"/>
<path d="M20.1001 16.2627H21.3125V16.6669H20.612V17.0082H21.2766V17.4033H20.612V18.1038H20.1091V16.2627H20.1001Z" fill="#F8F8F8"/>
<path d="M21.6267 16.2893C21.7614 16.2714 21.959 16.2534 22.2464 16.2534C22.5158 16.2534 22.7134 16.2983 22.8391 16.3971C22.9648 16.4869 23.0547 16.6575 23.0547 16.8461C23.0547 17.0347 22.9918 17.1964 22.875 17.3042C22.7224 17.4389 22.4978 17.4928 22.2464 17.4928C22.2015 17.4928 22.1566 17.4928 22.1206 17.4928V18.1214H21.6177V16.3073L21.6267 16.2893ZM22.1296 17.1066C22.1296 17.1066 22.1925 17.1066 22.2464 17.1066C22.444 17.1066 22.5697 17.0078 22.5697 16.8461C22.5697 16.7114 22.4709 16.6126 22.2823 16.6126C22.2104 16.6126 22.1566 16.6126 22.1296 16.6216V17.0886V17.1066Z" fill="#F8F8F8"/>
<path d="M23.6835 16.6759H23.2075V16.2627H24.6804V16.6759H24.1954V18.1038H23.6925V16.6759H23.6835Z" fill="#F8F8F8"/>
<path d="M20.1001 16.2627H21.3125V16.6669H20.612V17.0082H21.2766V17.4033H20.612V18.1038H20.1091V16.2627H20.1001Z" fill="url(#paint0_linear_8654_19756)"/>
<path d="M21.6267 16.2893C21.7614 16.2714 21.959 16.2534 22.2464 16.2534C22.5158 16.2534 22.7134 16.2983 22.8391 16.3971C22.9648 16.4869 23.0547 16.6575 23.0547 16.8461C23.0547 17.0347 22.9918 17.1964 22.875 17.3042C22.7224 17.4389 22.4978 17.4928 22.2464 17.4928C22.2015 17.4928 22.1566 17.4928 22.1206 17.4928V18.1214H21.6177V16.3073L21.6267 16.2893ZM22.1296 17.1066C22.1296 17.1066 22.1925 17.1066 22.2464 17.1066C22.444 17.1066 22.5697 17.0078 22.5697 16.8461C22.5697 16.7114 22.4709 16.6126 22.2823 16.6126C22.2104 16.6126 22.1566 16.6126 22.1296 16.6216V17.0886V17.1066Z" fill="url(#paint1_linear_8654_19756)"/>
<path d="M23.6835 16.6759H23.2075V16.2627H24.6804V16.6759H24.1954V18.1038H23.6925V16.6759H23.6835Z" fill="url(#paint2_linear_8654_19756)"/>
<path d="M17.385 18.1394C17.5107 18.1394 17.6365 18.0855 17.7173 17.9778L17.8969 17.7443C18.1663 19.3429 19.289 20.717 20.8786 21.2648C21.3726 21.4354 21.8755 21.5163 22.3695 21.5163C23.8513 21.5163 25.2883 20.7798 26.1415 19.4955C26.2672 19.3069 26.2133 19.0465 26.0247 18.9208C25.8361 18.795 25.5757 18.8489 25.4499 19.0375C24.5159 20.4475 22.7467 21.0403 21.157 20.4835C19.8278 20.0254 18.9118 18.8669 18.7142 17.5287L19.0734 17.7981C19.253 17.9329 19.5135 17.9059 19.6572 17.7263C19.8009 17.5467 19.765 17.2862 19.5853 17.1425L18.6064 16.3881C18.3999 16.2265 18.1035 16.1367 17.9239 16.3881L17.0886 17.4748C16.9449 17.6544 16.9809 17.9149 17.1605 18.0586C17.2323 18.1125 17.3221 18.1484 17.4119 18.1484L17.385 18.1394Z" fill="url(#paint3_linear_8654_19756)"/>
<path d="M18.6962 15.0504C18.8848 15.1761 19.1452 15.1222 19.2709 14.9336C20.205 13.5236 21.9742 12.9308 23.5639 13.4877C24.893 13.9457 25.8091 15.1042 26.0067 16.4424L25.6475 16.173C25.4678 16.0293 25.2074 16.0652 25.0637 16.2448C24.92 16.4245 24.9559 16.6849 25.1355 16.8286L26.1145 17.583C26.321 17.7447 26.6084 17.8345 26.797 17.583L27.6323 16.4963C27.7759 16.3167 27.74 16.0562 27.5604 15.9125C27.3808 15.7688 27.1203 15.8048 26.9766 15.9844L26.797 16.2179C26.5276 14.6193 25.405 13.2452 23.8153 12.6973C21.8575 12.0148 19.6931 12.7422 18.5525 14.4666C18.4267 14.6552 18.4806 14.9156 18.6692 15.0414L18.6962 15.0504Z" fill="url(#paint4_linear_8654_19756)"/>
<path d="M15.7002 28.2998H24.3002" stroke="#F8F8F8" stroke-width="1.4" stroke-linecap="round"/>
<path d="M15.7002 25.2998H28.3002" stroke="#F8F8F8" stroke-width="1.4" stroke-linecap="round"/>
<defs>
<linearGradient id="paint0_linear_8654_19756" x1="20.7063" y1="18.1038" x2="20.7063" y2="16.2627" gradientUnits="userSpaceOnUse">
<stop stop-color="#F4F4F4"/>
<stop offset="0.5028" stop-color="#F2F2F2"/>
<stop offset="1" stop-color="white"/>
</linearGradient>
<linearGradient id="paint1_linear_8654_19756" x1="22.3362" y1="18.1214" x2="22.3362" y2="16.2534" gradientUnits="userSpaceOnUse">
<stop stop-color="#F4F4F4"/>
<stop offset="0.5028" stop-color="#F2F2F2"/>
<stop offset="1" stop-color="white"/>
</linearGradient>
<linearGradient id="paint2_linear_8654_19756" x1="23.944" y1="18.1038" x2="23.944" y2="16.2627" gradientUnits="userSpaceOnUse">
<stop stop-color="#F4F4F4"/>
<stop offset="0.5028" stop-color="#F2F2F2"/>
<stop offset="1" stop-color="white"/>
</linearGradient>
<linearGradient id="paint3_linear_8654_19756" x1="26" y1="21.4999" x2="21.6048" y2="16.2314" gradientUnits="userSpaceOnUse">
<stop stop-color="#D9D9D9"/>
<stop offset="0.5028" stop-color="#F2F2F2"/>
<stop offset="1" stop-color="white"/>
</linearGradient>
<linearGradient id="paint4_linear_8654_19756" x1="20.4998" y1="9.50024" x2="24.4998" y2="15.5002" gradientUnits="userSpaceOnUse">
<stop stop-color="#D9D9D9"/>
<stop offset="0.5028" stop-color="#F2F2F2"/>
<stop offset="1" stop-color="white"/>
</linearGradient>
</defs>
</svg>
