<svg width="42" height="42" viewBox="0 0 42 42" fill="none" xmlns="http://www.w3.org/2000/svg">
<path d="M0 21C0 14.4768 0 11.2152 1.06569 8.64243C2.4866 5.21204 5.21204 2.4866 8.64243 1.06569C11.2152 0 14.4768 0 21 0V0C27.5232 0 30.7848 0 33.3576 1.06569C36.788 2.4866 39.5134 5.21204 40.9343 8.64243C42 11.2152 42 14.4768 42 21V21C42 27.5232 42 30.7848 40.9343 33.3576C39.5134 36.788 36.788 39.5134 33.3576 40.9343C30.7848 42 27.5232 42 21 42V42C14.4768 42 11.2152 42 8.64243 40.9343C5.21204 39.5134 2.4866 36.788 1.06569 33.3576C0 30.7848 0 27.5232 0 21V21Z" fill="#959595" fill-opacity="0.2"/>
<path d="M25.5299 23.5501L21.6999 27.3801C21.5299 27.5601 21.4399 27.7901 21.4399 28.0301C21.4399 28.2701 21.5399 28.5101 21.7199 28.6801C21.8899 28.8501 22.1299 28.9501 22.3699 28.9401C22.6099 28.9301 22.8499 28.8401 23.0199 28.6701L26.6199 25.0601C26.6699 25.0101 26.7299 24.9701 26.7999 24.9401C26.8699 24.9101 26.9399 24.9001 27.0099 24.9001C27.0799 24.9001 27.1499 24.9101 27.2199 24.9401C27.2899 24.9701 27.3499 25.0101 27.3999 25.0601C27.4499 25.1101 27.4899 25.1701 27.5199 25.2401C27.5499 25.3101 27.5599 25.3801 27.5599 25.4501C27.5599 25.5201 27.5499 25.5901 27.5199 25.6601C27.4899 25.7301 27.4499 25.7901 27.3999 25.8401L23.7799 29.4601C23.4399 29.7901 22.9899 30.0001 22.5199 30.0301C22.0499 30.0601 21.5699 29.9301 21.1899 29.6501H16.8699C16.7499 29.6501 16.6199 29.6501 16.4999 29.6901C16.3799 29.7301 16.2699 29.7901 16.1799 29.8701C16.0899 29.9501 16.0099 30.0501 15.9599 30.1601C15.9099 30.2701 15.8799 30.3901 15.8699 30.5201C15.8699 30.6401 15.8799 30.7701 15.9299 30.8801C15.9699 31.0001 16.0399 31.1001 16.1199 31.1901C16.2099 31.2801 16.3099 31.3501 16.4199 31.4001C16.5299 31.4501 16.6599 31.4801 16.7799 31.4801H24.7699C25.2099 31.4801 25.6299 31.3001 25.9399 31.0001L28.5199 28.4201C28.7099 28.2301 28.9299 28.0801 29.1699 27.9801C29.4099 27.8801 29.6799 27.8301 29.9399 27.8301H31.7599V23.0601H26.6999C26.4799 23.0601 26.2699 23.1001 26.0699 23.1901C25.8699 23.2701 25.6899 23.4001 25.5299 23.5501Z" fill="#F8F8F8"/>
<path d="M34.1298 22.3401H33.3598C33.2198 22.3401 33.0898 22.3901 32.9898 22.4801C32.8898 22.5701 32.8298 22.7001 32.8198 22.8301V28.0801C32.8298 28.2101 32.8898 28.3401 32.9898 28.4201C33.0898 28.5101 33.2198 28.5601 33.3498 28.5601H34.1198C34.2598 28.5601 34.3998 28.5001 34.4998 28.4001C34.5998 28.3001 34.6598 28.1601 34.6598 28.0201V22.8701C34.6598 22.8001 34.6498 22.7301 34.6198 22.6601C34.5898 22.5901 34.5498 22.5401 34.4998 22.4901C34.4498 22.4401 34.3898 22.4001 34.3298 22.3701C34.2598 22.3401 34.1898 22.3301 34.1198 22.3301L34.1298 22.3401Z" fill="#F8F8F8"/>
<path d="M20.3298 27.45C20.4298 27.11 20.5898 26.8 20.8398 26.55L24.6298 22.76C25.0398 21.74 25.2598 20.63 25.2598 19.46C25.2598 14.51 21.2498 10.5 16.2998 10.5C11.3498 10.5 7.33984 14.51 7.33984 19.46C7.33984 24.41 11.3498 28.42 16.2998 28.42C17.7498 28.42 19.1198 28.07 20.3298 27.46V27.45Z" fill="#2C9A71"/>
<path d="M17.11 20.8501H16.97C16.93 20.9401 16.87 21.0301 16.81 21.1101C16.75 21.1901 16.67 21.2601 16.57 21.3301C16.47 21.3901 16.36 21.4401 16.22 21.4801C16.09 21.5201 15.92 21.5401 15.73 21.5401C15.48 21.5401 15.26 21.5001 15.04 21.4101C14.83 21.3201 14.65 21.1901 14.49 21.0201C14.34 20.8401 14.21 20.6301 14.12 20.3801C14.03 20.1301 13.99 19.8401 13.99 19.5201V19.3801C13.99 19.0601 14.04 18.7701 14.13 18.5201C14.23 18.2701 14.35 18.0601 14.51 17.8901C14.68 17.7101 14.86 17.5801 15.08 17.4901C15.3 17.4001 15.53 17.3501 15.77 17.3501C16.09 17.3501 16.34 17.4101 16.53 17.5301C16.72 17.6501 16.86 17.8201 16.97 18.0301H17.11V17.1201H15.86V16.2101H17.11V15.8301H18.12V16.2101H18.6V17.1201H18.12V21.4201H17.11V20.8401V20.8501ZM16.06 20.5801C16.37 20.5801 16.63 20.4801 16.82 20.2801C17.02 20.0801 17.12 19.8101 17.12 19.4901V19.3901C17.12 19.0601 17.02 18.8001 16.82 18.6101C16.63 18.4101 16.37 18.3101 16.06 18.3101C15.75 18.3101 15.49 18.4101 15.29 18.6101C15.09 18.8101 15 19.0701 15 19.4001V19.5001C15 19.8401 15.1 20.1001 15.29 20.3001C15.49 20.4901 15.74 20.5901 16.06 20.5901V20.5801Z" fill="#F8F8F8"/>
<path d="M17.82 22.4302H14.49V23.1002H17.82V22.4302Z" fill="#F8F8F8"/>
</svg>
