<svg width="42" height="42" viewBox="0 0 42 42" fill="none" xmlns="http://www.w3.org/2000/svg">
<path d="M0 21C0 14.4768 0 11.2152 1.06569 8.64243C2.4866 5.21204 5.21204 2.4866 8.64243 1.06569C11.2152 0 14.4768 0 21 0V0C27.5232 0 30.7848 0 33.3576 1.06569C36.788 2.4866 39.5134 5.21204 40.9343 8.64243C42 11.2152 42 14.4768 42 21V21C42 27.5232 42 30.7848 40.9343 33.3576C39.5134 36.788 36.788 39.5134 33.3576 40.9343C30.7848 42 27.5232 42 21 42V42C14.4768 42 11.2152 42 8.64243 40.9343C5.21204 39.5134 2.4866 36.788 1.06569 33.3576C0 30.7848 0 27.5232 0 21V21Z" fill="#959595" fill-opacity="0.2"/>
<path d="M10.1105 8C8.94301 8 8 8.94301 8 10.1105H12.2301C12.2301 8.94301 11.287 8 10.1195 8H10.1105Z" fill="#54AE8D"/>
<path d="M29.5632 8H10.1104C11.2779 8 12.2209 8.94301 12.2209 10.1105V31.8894C12.2209 33.057 13.1639 34 14.3314 34H31.6648V10.1195C31.6648 8.95199 30.7218 8.00899 29.5542 8.00899L29.5632 8Z" fill="#2C9A71"/>
<path d="M29.5635 31.8896H16.4602C16.4602 33.0571 15.5172 34.0001 14.3496 34.0001H31.683C32.8505 34.0001 33.7935 33.0571 33.7935 31.8896H29.5635Z" fill="#54AE8D"/>
<path d="M15.7002 27.8003H24.3002" stroke="#F8F8F8" stroke-width="1.4" stroke-linecap="round"/>
<path d="M15.7002 24.8003H28.3002" stroke="#F8F8F8" stroke-width="1.4" stroke-linecap="round"/>
<g filter="url(#filter0_d_8654_19929)">
<path d="M21.6062 15.5887C21.6062 16.6754 20.8698 17.2591 20.0704 17.2591C19.2172 17.2591 18.5706 16.6305 18.5706 15.6875C18.5706 14.8073 19.1364 14.0529 20.1064 14.0529C21.0763 14.0529 21.5972 14.7534 21.5972 15.5887H21.6062ZM19.6304 15.6515C19.6304 16.1455 19.792 16.4868 20.1064 16.4868C20.3938 16.4868 20.5464 16.1994 20.5464 15.6515C20.5464 15.1666 20.4297 14.8163 20.0974 14.8163C19.7651 14.8163 19.6304 15.1845 19.6304 15.6515ZM20.1872 19.4325L23.1509 14.0439H23.8964L20.9326 19.4325H20.1872ZM25.5219 17.7531C25.5219 18.8398 24.7855 19.4235 23.9862 19.4235C23.133 19.4235 22.4863 18.7949 22.4863 17.8429C22.4863 16.9628 23.0521 16.2083 24.0221 16.2083C24.992 16.2083 25.5129 16.9089 25.5129 17.7531H25.5219ZM23.5461 17.8159C23.5461 18.3099 23.6988 18.6512 24.0221 18.6512C24.3095 18.6512 24.4622 18.3638 24.4622 17.8159C24.4622 17.331 24.3364 16.9717 24.0131 16.9717C23.6718 16.9717 23.5461 17.34 23.5461 17.8159Z" fill="url(#paint0_linear_8654_19929)"/>
</g>
<defs>
<filter id="filter0_d_8654_19929" x="14.5706" y="11.0439" width="14.9514" height="13.3887" filterUnits="userSpaceOnUse" color-interpolation-filters="sRGB">
<feFlood flood-opacity="0" result="BackgroundImageFix"/>
<feColorMatrix in="SourceAlpha" type="matrix" values="0 0 0 0 0 0 0 0 0 0 0 0 0 0 0 0 0 0 127 0" result="hardAlpha"/>
<feOffset dy="1"/>
<feGaussianBlur stdDeviation="2"/>
<feComposite in2="hardAlpha" operator="out"/>
<feColorMatrix type="matrix" values="0 0 0 0 0 0 0 0 0 0 0 0 0 0 0 0 0 0 0.25 0"/>
<feBlend mode="normal" in2="BackgroundImageFix" result="effect1_dropShadow_8654_19929"/>
<feBlend mode="normal" in="SourceGraphic" in2="effect1_dropShadow_8654_19929" result="shape"/>
</filter>
<linearGradient id="paint0_linear_8654_19929" x1="22.5" y1="22.4999" x2="22.0462" y2="14.0439" gradientUnits="userSpaceOnUse">
<stop stop-color="#D9D9D9"/>
<stop offset="0.5028" stop-color="#F2F2F2"/>
<stop offset="1" stop-color="white"/>
</linearGradient>
</defs>
</svg>
