<svg width="42" height="42" viewBox="0 0 42 42" fill="none" xmlns="http://www.w3.org/2000/svg">
<path d="M0 21C0 14.4768 0 11.2152 1.06569 8.64243C2.4866 5.21204 5.21204 2.4866 8.64243 1.06569C11.2152 0 14.4768 0 21 0V0C27.5232 0 30.7848 0 33.3576 1.06569C36.788 2.4866 39.5134 5.21204 40.9343 8.64243C42 11.2152 42 14.4768 42 21V21C42 27.5232 42 30.7848 40.9343 33.3576C39.5134 36.788 36.788 39.5134 33.3576 40.9343C30.7848 42 27.5232 42 21 42V42C14.4768 42 11.2152 42 8.64243 40.9343C5.21204 39.5134 2.4866 36.788 1.06569 33.3576C0 30.7848 0 27.5232 0 21V21Z" fill="#959595" fill-opacity="0.2"/>
<path fill-rule="evenodd" clip-rule="evenodd" d="M20.875 7.95825C19.7812 7.95825 18.7369 8.31593 17.0523 8.89289L16.2036 9.18341C14.4754 9.77498 13.1416 10.2315 12.1869 10.6194C11.7059 10.8148 11.2924 11.004 10.9595 11.1974C10.6391 11.3835 10.3176 11.6156 10.0992 11.9267C9.88337 12.2343 9.77176 12.6124 9.70162 12.9763C9.6287 13.3547 9.58473 13.8087 9.55635 14.3298C9.5 15.3647 9.5 16.7823 9.5 18.6212V20.4898C9.5 27.6077 14.876 31.0204 18.0731 32.4169L18.1047 32.4307C18.5011 32.6039 18.8737 32.7668 19.3019 32.8764C19.7539 32.9921 20.2342 33.0416 20.875 33.0416C21.5158 33.0416 21.9961 32.9921 22.4481 32.8764C22.8763 32.7668 23.2489 32.604 23.6453 32.4307L23.6769 32.4169C26.874 31.0204 32.25 27.6077 32.25 20.4898V18.6214C32.25 16.7825 32.25 15.3647 32.1937 14.3298C32.1653 13.8087 32.1213 13.3547 32.0484 12.9763C31.9782 12.6124 31.8666 12.2343 31.6508 11.9267C31.4324 11.6156 31.1109 11.3835 30.7905 11.1974C30.4576 11.004 30.0441 10.8148 29.5631 10.6194C28.6084 10.2315 27.2746 9.77498 25.5464 9.18341L24.6977 8.89289C23.0131 8.31593 21.9688 7.95825 20.875 7.95825Z" fill="#2C9A71"/>
<path fill-rule="evenodd" clip-rule="evenodd" d="M20.875 14.9583C18.4588 14.9583 16.5 16.917 16.5 19.3333C16.5 20.7656 17.1886 22.0362 18.25 22.8334V23.9999C18.25 25.1275 19.1641 26.0416 20.2917 26.0416H21.4583C22.5859 26.0416 23.5 25.1275 23.5 23.9999V22.8334C24.5614 22.0362 25.25 20.7656 25.25 19.3333C25.25 16.917 23.2912 14.9583 20.875 14.9583ZM18.25 19.3333C18.25 17.8835 19.4253 16.7083 20.875 16.7083C22.3247 16.7083 23.5 17.8835 23.5 19.3333C23.5 20.3038 22.9738 21.1524 22.1869 21.6076C21.9165 21.764 21.75 22.0527 21.75 22.365V23.9999C21.75 24.161 21.6194 24.2916 21.4583 24.2916H20.2917C20.1306 24.2916 20 24.161 20 23.9999V22.365C20 22.0527 19.8335 21.764 19.5631 21.6076C18.7762 21.1524 18.25 20.3038 18.25 19.3333Z" fill="#F8F8F8"/>
<path fill-rule="evenodd" clip-rule="evenodd" d="M20.875 14.9583C18.4588 14.9583 16.5 16.917 16.5 19.3333C16.5 20.7656 17.1886 22.0362 18.25 22.8334V23.9999C18.25 25.1275 19.1641 26.0416 20.2917 26.0416H21.4583C22.5859 26.0416 23.5 25.1275 23.5 23.9999V22.8334C24.5614 22.0362 25.25 20.7656 25.25 19.3333C25.25 16.917 23.2912 14.9583 20.875 14.9583ZM18.25 19.3333C18.25 17.8835 19.4253 16.7083 20.875 16.7083C22.3247 16.7083 23.5 17.8835 23.5 19.3333C23.5 20.3038 22.9738 21.1524 22.1869 21.6076C21.9165 21.764 21.75 22.0527 21.75 22.365V23.9999C21.75 24.161 21.6194 24.2916 21.4583 24.2916H20.2917C20.1306 24.2916 20 24.161 20 23.9999V22.365C20 22.0527 19.8335 21.764 19.5631 21.6076C18.7762 21.1524 18.25 20.3038 18.25 19.3333Z" fill="#F8F8F8"/>
</svg>
