<svg width="42" height="42" viewBox="0 0 42 42" fill="none" xmlns="http://www.w3.org/2000/svg">
<path d="M0 21C0 14.4768 0 11.2152 1.06569 8.64243C2.4866 5.21204 5.21204 2.4866 8.64243 1.06569C11.2152 0 14.4768 0 21 0V0C27.5232 0 30.7848 0 33.3576 1.06569C36.788 2.4866 39.5134 5.21204 40.9343 8.64243C42 11.2152 42 14.4768 42 21V21C42 27.5232 42 30.7848 40.9343 33.3576C39.5134 36.788 36.788 39.5134 33.3576 40.9343C30.7848 42 27.5232 42 21 42V42C14.4768 42 11.2152 42 8.64243 40.9343C5.21204 39.5134 2.4866 36.788 1.06569 33.3576C0 30.7848 0 27.5232 0 21V21Z" fill="#959595" fill-opacity="0.2"/>
<path d="M32.4137 20.5018H21.4945V9.5808C21.4945 9.11646 21.1188 8.74072 20.6546 8.74072C13.7071 8.74072 7.99951 14.3932 7.99951 21.3419C7.99951 28.2905 13.7071 33.999 20.6546 33.999C27.6021 33.999 33.2536 28.2905 33.2536 21.3419C33.2536 20.8775 32.8779 20.5018 32.4137 20.5018Z" fill="#2C9A71"/>
<path d="M21.1882 6C20.6448 6 20.2051 6.4398 20.2051 6.98331V20.8152C20.2051 21.3587 20.6448 21.7985 21.1882 21.7985H35.0178C35.5612 21.7985 36.001 21.3587 36.001 20.8152C36.001 12.6818 29.3203 6 21.1882 6Z" fill="#F8F8F8"/>
<path d="M27.1523 13.6042C27.1523 14.7327 26.3876 15.3389 25.5575 15.3389C24.6715 15.3389 24 14.686 24 13.7067C24 12.7928 24.5876 12.0093 25.5948 12.0093C26.6021 12.0093 27.143 12.7368 27.143 13.6042H27.1523ZM25.1005 13.6694C25.1005 14.1824 25.2684 14.5368 25.5948 14.5368C25.8933 14.5368 26.0518 14.2384 26.0518 13.6694C26.0518 13.1658 25.9306 12.8021 25.5855 12.8021C25.2404 12.8021 25.1005 13.1845 25.1005 13.6694ZM25.6788 17.5959L28.7565 12H29.5306L26.4529 17.5959H25.6788ZM31.2187 15.8518C31.2187 16.9803 30.4539 17.5865 29.6238 17.5865C28.7378 17.5865 28.0663 16.9337 28.0663 15.9451C28.0663 15.0311 28.6539 14.2477 29.6611 14.2477C30.6684 14.2477 31.2093 14.9751 31.2093 15.8518H31.2187ZM29.1668 15.9171C29.1668 16.4301 29.3254 16.7845 29.6611 16.7845C29.9596 16.7845 30.1181 16.486 30.1181 15.9171C30.1181 15.4135 29.9876 15.0404 29.6518 15.0404C29.2974 15.0404 29.1668 15.4228 29.1668 15.9171Z" fill="#2C9A71"/>
</svg>
