<svg width="42" height="42" viewBox="0 0 42 42" fill="none" xmlns="http://www.w3.org/2000/svg">
<path d="M0 21C0 14.4768 0 11.2152 1.06569 8.64243C2.4866 5.21204 5.21204 2.4866 8.64243 1.06569C11.2152 0 14.4768 0 21 0V0C27.5232 0 30.7848 0 33.3576 1.06569C36.788 2.4866 39.5134 5.21204 40.9343 8.64243C42 11.2152 42 14.4768 42 21V21C42 27.5232 42 30.7848 40.9343 33.3576C39.5134 36.788 36.788 39.5134 33.3576 40.9343C30.7848 42 27.5232 42 21 42V42C14.4768 42 11.2152 42 8.64243 40.9343C5.21204 39.5134 2.4866 36.788 1.06569 33.3576C0 30.7848 0 27.5232 0 21V21Z" fill="#959595" fill-opacity="0.2"/>
<mask id="mask0_8654_19361" style="mask-type:luminance" maskUnits="userSpaceOnUse" x="8" y="8" width="29" height="29">
<path d="M8.50195 8.00391H36.502V36.0039H8.50195V8.00391Z" fill="white"/>
</mask>
<g mask="url(#mask0_8654_19361)">
<path d="M31.9082 34.2546H12.6035C10.7912 34.2546 9.32227 32.7857 9.32227 30.9734V11.7546C9.32227 10.6501 10.2177 9.75464 11.3223 9.75464H26.627C27.7315 9.75464 28.627 10.6501 28.627 11.7546V30.9734C28.627 32.7857 30.0958 34.2546 31.9082 34.2546Z" fill="#2C9A71"/>
<path d="M35.6812 23.2078V30.9734C35.6812 32.7857 34.2123 34.2546 32.3999 34.2546H31.9077C30.0953 34.2546 28.6265 32.7857 28.6265 30.9734V23.2078H35.6812Z" fill="#F8F8F8"/>
<path d="M12.877 13.6921H25.127" stroke="#F8F8F8" stroke-width="1.55555" stroke-miterlimit="10" stroke-linecap="round" stroke-linejoin="round"/>
<path d="M12.877 17.1921H25.127" stroke="#F8F8F8" stroke-width="1.64062" stroke-miterlimit="10" stroke-linecap="round" stroke-linejoin="round"/>
<path d="M19.0005 27.4451H12.7783V20.4451H19.0005V27.4451Z" fill="#F8F8F8" stroke="#F8F8F8" stroke-width="1.55555" stroke-miterlimit="10" stroke-linecap="round" stroke-linejoin="round"/>
<path d="M22.1118 20.4451H25.2229" stroke="#F8F8F8" stroke-width="1.55555" stroke-miterlimit="10" stroke-linecap="round" stroke-linejoin="round"/>
<path d="M22.1113 23.9451H25.2224" stroke="#F8F8F8" stroke-width="1.55555" stroke-miterlimit="10" stroke-linecap="round" stroke-linejoin="round"/>
<path d="M22.1113 27.4451H25.2224" stroke="#F8F8F8" stroke-width="1.55555" stroke-miterlimit="10" stroke-linecap="round" stroke-linejoin="round"/>
</g>
</svg>
