<svg width="42" height="42" viewBox="0 0 42 42" fill="none" xmlns="http://www.w3.org/2000/svg">
<path d="M0 21C0 14.4768 0 11.2152 1.06569 8.64243C2.4866 5.21204 5.21204 2.4866 8.64243 1.06569C11.2152 0 14.4768 0 21 0C27.5232 0 30.7848 0 33.3576 1.06569C36.788 2.4866 39.5134 5.21204 40.9343 8.64243C42 11.2152 42 14.4768 42 21C42 27.5232 42 30.7848 40.9343 33.3576C39.5134 36.788 36.788 39.5134 33.3576 40.9343C30.7848 42 27.5232 42 21 42C14.4768 42 11.2152 42 8.64243 40.9343C5.21204 39.5134 2.4866 36.788 1.06569 33.3576C0 30.7848 0 27.5232 0 21Z" fill="#959595" fill-opacity="0.3"/>
<path d="M30.87 11.27C30.87 10.45 30.41 10 29.58 10C24.32 10 19.06 10 13.79 10C12.96 10 12.5 10.44 12.5 11.27C12.5 18.07 12.5 24.87 12.5 31.66C12.5 32.18 12.68 32.59 13.16 32.82C13.62 33.04 14.05 32.94 14.45 32.63C15.06 32.16 15.68 31.7 16.31 31.24C16.92 30.79 17.52 30.33 18.14 29.87C19.02 30.75 19.87 31.6 20.72 32.45C21.39 33.12 21.98 33.12 22.65 32.45C23.5 31.6 24.35 30.75 25.23 29.86C26.49 30.8 27.7 31.71 28.92 32.63C29.32 32.93 29.74 33.03 30.21 32.82C30.69 32.6 30.87 32.17 30.87 31.66C30.87 24.86 30.87 18.07 30.87 11.27Z" fill="#2C9A71"/>
<path d="M16.1099 17.77H26.7099" stroke="url(#paint0_linear_10603_19291)" stroke-width="1.4" stroke-linecap="round"/>
<path d="M16.1099 20.77H24.7099" stroke="url(#paint1_linear_10603_19291)" stroke-width="1.4" stroke-linecap="round"/>
<path d="M16.1099 14.77H28.7099" stroke="url(#paint2_linear_10603_19291)" stroke-width="1.4" stroke-linecap="round"/>
<path d="M12.7875 24.84L7.96745 29.66C7.51745 30.11 6.7875 30.11 6.3375 29.66C5.8875 29.21 5.8875 28.48 6.3375 28.03L11.1575 23.21" fill="#2C9A71"/>
<g filter="url(#filter0_b_10603_19291)">
<path d="M16.2473 26.02C19.8473 26.02 22.7573 23.11 22.7573 19.51C22.7573 15.91 19.8473 13 16.2473 13C12.6473 13 9.7373 15.91 9.7373 19.51C9.7373 23.11 12.6473 26.02 16.2473 26.02Z" fill="url(#paint3_linear_10603_19291)"/>
</g>
<path fill-rule="evenodd" clip-rule="evenodd" d="M16.2473 25.02C19.2873 25.02 21.7573 22.55 21.7573 19.51C21.7573 16.47 19.2873 14 16.2473 14C13.2073 14 10.7373 16.47 10.7373 19.51C10.7373 22.55 13.2073 25.02 16.2473 25.02ZM22.7573 19.51C22.7573 23.11 19.8473 26.02 16.2473 26.02C12.6473 26.02 9.7373 23.11 9.7373 19.51C9.7373 15.91 12.6473 13 16.2473 13C19.8473 13 22.7573 15.91 22.7573 19.51Z" fill="#2C9A71"/>
<path d="M16.2505 16.9995C15.3933 16.9995 14.6926 17.7002 14.6926 18.5573C14.6926 19.4145 15.3933 20.1152 16.2505 20.1152C17.1076 20.1152 17.8083 19.4145 17.8083 18.5573C17.8083 17.7002 17.1076 16.9995 16.2505 16.9995Z" fill="white"/>
<path d="M18.9239 21.36C18.8831 21.258 18.8287 21.1627 18.7675 21.0743C18.4546 20.6117 17.9716 20.3056 17.4274 20.2308C17.3593 20.224 17.2845 20.2376 17.2301 20.2784C16.9444 20.4893 16.6042 20.5981 16.2505 20.5981C15.8967 20.5981 15.5566 20.4893 15.2709 20.2784C15.2165 20.2376 15.1416 20.2172 15.0736 20.2308C14.5294 20.3056 14.0396 20.6117 13.7335 21.0743C13.6723 21.1627 13.6178 21.2648 13.577 21.36C13.5566 21.4008 13.5634 21.4485 13.5838 21.4893C13.6382 21.5845 13.7063 21.6798 13.7675 21.7614C13.8627 21.8906 13.9648 22.0063 14.0804 22.1151C14.1757 22.2104 14.2845 22.2988 14.3933 22.3872C14.9308 22.7886 15.577 22.9995 16.2437 22.9995C16.9104 22.9995 17.5566 22.7886 18.094 22.3872C18.2029 22.3056 18.3117 22.2104 18.407 22.1151C18.5158 22.0063 18.6246 21.8906 18.7199 21.7614C18.7879 21.6729 18.8491 21.5845 18.9036 21.4893C18.9376 21.4485 18.9443 21.4008 18.9239 21.36Z" fill="white"/>
<defs>
<filter id="filter0_b_10603_19291" x="5.7373" y="9" width="21.02" height="21.02" filterUnits="userSpaceOnUse" color-interpolation-filters="sRGB">
<feFlood flood-opacity="0" result="BackgroundImageFix"/>
<feGaussianBlur in="BackgroundImageFix" stdDeviation="2"/>
<feComposite in2="SourceAlpha" operator="in" result="effect1_backgroundBlur_10603_19291"/>
<feBlend mode="normal" in="SourceGraphic" in2="effect1_backgroundBlur_10603_19291" result="shape"/>
</filter>
<linearGradient id="paint0_linear_10603_19291" x1="-nan" y1="-nan" x2="-nan" y2="-nan" gradientUnits="userSpaceOnUse">
<stop stop-color="white"/>
<stop offset="1" stop-color="#FFCBC9"/>
</linearGradient>
<linearGradient id="paint1_linear_10603_19291" x1="-nan" y1="-nan" x2="-nan" y2="-nan" gradientUnits="userSpaceOnUse">
<stop stop-color="white"/>
<stop offset="1" stop-color="#FFCBC9"/>
</linearGradient>
<linearGradient id="paint2_linear_10603_19291" x1="-nan" y1="-nan" x2="-nan" y2="-nan" gradientUnits="userSpaceOnUse">
<stop stop-color="white"/>
<stop offset="1" stop-color="#FFCBC9"/>
</linearGradient>
<linearGradient id="paint3_linear_10603_19291" x1="16.2473" y1="13" x2="16.2473" y2="26.02" gradientUnits="userSpaceOnUse">
<stop stop-color="#3FE4A8"/>
<stop offset="1" stop-color="#44C66C"/>
</linearGradient>
</defs>
</svg>
