<svg xmlns="http://www.w3.org/2000/svg" viewBox="0 0 43 43"><g id="Layer_2" data-name="Layer 2"><g id="Layer_1-2" data-name="Layer 1"><path d="M0,21.5C0,14.51,0,11,1.22,8.28A14,14,0,0,1,8.28,1.22C11,0,14.51,0,21.5,0h0c7,0,10.49,0,13.22,1.22a14,14,0,0,1,7.06,7.06C43,11,43,14.51,43,21.5h0c0,7,0,10.49-1.22,13.22a14,14,0,0,1-7.06,7.06C32,43,28.49,43,21.5,43h0c-7,0-10.49,0-13.22-1.22a14,14,0,0,1-7.06-7.06C0,32,0,28.49,0,21.5Z" fill="#959595" fill-opacity="0.3"/><path d="M32.32,10.27A1.16,1.16,0,0,0,31,9H15.24A1.15,1.15,0,0,0,14,10.27V30.66a1.17,1.17,0,0,0,2,1c.61-.47,1.23-.93,1.86-1.39l1.83-1.37,2.58,2.58a1.18,1.18,0,0,0,1.93,0l2.58-2.59,3.69,2.77a1.2,1.2,0,0,0,1.29.19,1.16,1.16,0,0,0,.66-1.16Z" fill="#2c9a71"/><path d="M17.56,16.77h10.6" fill="none" stroke="#fff" stroke-linecap="round" stroke-width="1.4"/><path d="M17.56,19.77h8.6" fill="none" stroke="#fff" stroke-linecap="round" stroke-width="1.4"/><path d="M17.56,13.77h12.6" fill="none" stroke="#fff" stroke-linecap="round" stroke-width="1.4"/><path d="M12.79,24.15,8,29a1.15,1.15,0,1,1-1.63-1.63l4.82-4.82" fill="#2c9a71"/><path d="M16.25,25.33a6.51,6.51,0,1,0-6.51-6.51A6.5,6.5,0,0,0,16.25,25.33Z" fill="#67bf9e"/><path d="M16.25,24.33a5.51,5.51,0,1,0-5.51-5.51A5.51,5.51,0,0,0,16.25,24.33Zm6.51-5.51a6.51,6.51,0,1,1-6.51-6.51A6.5,6.5,0,0,1,22.76,18.82Z" fill="#41ab83" fill-rule="evenodd"/><path d="M18.51,16.65a4.85,4.85,0,0,1-2-.69.5.5,0,0,0-.5,0,4.57,4.57,0,0,1-.92.44,5.07,5.07,0,0,1-1.09.25.48.48,0,0,0-.43.48v1.44a3,3,0,0,0,1.53,2.6l.93.52a.49.49,0,0,0,.47,0l.93-.52A3,3,0,0,0,19,18.57V17.13a.48.48,0,0,0-.43-.48Z" fill="#f8f8f8"/><path d="M16.05,19.71a.35.35,0,0,1-.22-.08l-.79-.7a.33.33,0,1,1,.44-.5l.55.49,1.09-1.17a.33.33,0,0,1,.49.45L16.3,19.6a.28.28,0,0,1-.24.1Z" fill="#2c9a71"/></g></g></svg>