<svg width="42" height="42" viewBox="0 0 42 42" fill="none" xmlns="http://www.w3.org/2000/svg">
<path d="M0 21C0 14.4768 0 11.2152 1.06569 8.64243C2.4866 5.21204 5.21204 2.4866 8.64243 1.06569C11.2152 0 14.4768 0 21 0V0C27.5232 0 30.7848 0 33.3576 1.06569C36.788 2.4866 39.5134 5.21204 40.9343 8.64243C42 11.2152 42 14.4768 42 21V21C42 27.5232 42 30.7848 40.9343 33.3576C39.5134 36.788 36.788 39.5134 33.3576 40.9343C30.7848 42 27.5232 42 21 42V42C14.4768 42 11.2152 42 8.64243 40.9343C5.21204 39.5134 2.4866 36.788 1.06569 33.3576C0 30.7848 0 27.5232 0 21V21Z" fill="#959595" fill-opacity="0.2"/>
<path d="M30.1929 11.8071C27.7414 9.35571 24.4729 8 21 8C17.5271 8 14.2586 9.35571 11.8071 11.8071C9.35571 14.2586 8 17.5271 8 21C8 24.4729 9.35571 27.7414 11.8071 30.1929C14.2586 32.6443 17.5271 34 21 34C24.4729 34 27.7414 32.6443 30.1929 30.1929C32.6443 27.7414 34 24.4729 34 21C34 17.5271 32.6443 14.2586 30.1929 11.8071Z" fill="#2C9A71"/>
<path d="M21.7616 15.0571H20.2388V20.5821H21.7616V15.0571Z" fill="#F8F8F8"/>
<path d="M28.763 28.772C28.7664 28.772 28.7682 28.7762 28.7657 28.7786L28.3915 29.1529C28.3044 29.24 28.1631 29.24 28.076 29.1529L26.1077 27.1845C26.01 27.0869 26.01 26.9286 26.1077 26.831L26.8312 26.1074C26.9289 26.0098 27.0872 26.0098 27.1848 26.1074L28.0145 26.9371C28.1176 27.0402 28.2871 27.0337 28.3786 26.92C29.51 25.5148 30.2145 23.8265 30.4012 22.0297C30.4162 21.8851 30.3012 21.7613 30.1558 21.7613H28.9759C28.8378 21.7613 28.7259 21.6494 28.7259 21.5113V20.4885C28.7259 20.3504 28.8378 20.2385 28.9759 20.2385H30.1538C30.2999 20.2385 30.4152 20.1135 30.3991 19.9683C30.1957 18.1347 29.4703 16.4543 28.3692 15.0805C28.2778 14.9666 28.1081 14.9598 28.0048 15.0631L27.1755 15.8924C27.0779 15.99 26.9196 15.99 26.822 15.8924L26.0984 15.1688C26.0007 15.0712 26.0007 14.9129 26.0984 14.8153L26.9283 13.9854C27.0313 13.8823 27.0249 13.713 26.9114 13.6215C25.545 12.5202 23.8642 11.7947 22.0224 11.5916C21.8772 11.5755 21.7523 11.6908 21.7523 11.8369V13.0149C21.7523 13.153 21.6404 13.2649 21.5023 13.2649H20.4794C20.3414 13.2649 20.2294 13.153 20.2294 13.0149V11.837C20.2294 11.6909 20.1045 11.5756 19.9592 11.5917C18.1256 11.795 16.4453 12.5205 15.0715 13.6216C14.9575 13.7129 14.9508 13.8827 15.0541 13.986L15.8834 14.8153C15.981 14.9129 15.981 15.0712 15.8834 15.1688L15.1598 15.8924C15.0622 15.99 14.9039 15.99 14.8062 15.8924L13.9764 15.0625C13.8733 14.9594 13.704 14.9659 13.6125 15.0794C12.5112 16.4458 11.7857 18.1266 11.5825 19.9683C11.5665 20.1136 11.6818 20.2385 11.8279 20.2385H13.0059C13.1439 20.2385 13.2559 20.3504 13.2559 20.4885V21.5113C13.2559 21.6494 13.1439 21.7613 13.0059 21.7613H11.8272C11.6814 21.7613 11.5662 21.8858 11.5818 22.0308C11.7757 23.8272 12.4728 25.5151 13.6032 26.92C13.6946 27.0337 13.8641 27.0402 13.9673 26.9371L14.797 26.1074C14.8946 26.0098 15.0529 26.0098 15.1505 26.1074L15.8741 26.831C15.9717 26.9286 15.9717 27.0869 15.8741 27.1845L13.9248 29.1338C13.8272 29.2315 13.6689 29.2315 13.5712 29.1338L13.2094 28.772C11.1387 26.7013 9.9873 23.9342 9.9873 20.9999C9.9873 18.0656 11.1294 15.3078 13.2094 13.2278C15.2802 11.157 18.0473 10.0056 20.9816 10.0056C23.9159 10.0056 26.6737 11.1478 28.7537 13.2278C30.8244 15.2985 31.9759 18.0656 31.9759 20.9999C31.9759 23.9311 30.8361 26.6862 28.7603 28.7655C28.7579 28.7679 28.7596 28.772 28.763 28.772V28.772Z" fill="#F8F8F8"/>
<path d="M21.8854 28.4514H21.7292C21.6829 28.5498 21.625 28.6453 21.5556 28.7378C21.4919 28.8247 21.4051 28.9028 21.2951 28.9722C21.191 29.0417 21.0637 29.0966 20.9132 29.1372C20.7685 29.1777 20.592 29.1979 20.3837 29.1979C20.1175 29.1979 19.8686 29.1516 19.6372 29.059C19.4115 28.9606 19.2118 28.8189 19.0382 28.6337C18.8704 28.4427 18.7373 28.2112 18.6389 27.9392C18.5463 27.6672 18.5 27.3547 18.5 27.0017V26.8455C18.5 26.4983 18.5492 26.1887 18.6476 25.9167C18.7517 25.6447 18.8906 25.4161 19.0642 25.2309C19.2436 25.0399 19.4491 24.8953 19.6806 24.7969C19.9178 24.6985 20.1667 24.6493 20.4271 24.6493C20.7743 24.6493 21.0492 24.7159 21.2517 24.849C21.4543 24.9763 21.6134 25.1586 21.7292 25.3958H21.8854V24.4063H20.5312V23.4167H21.8854V23H22.9792V23.4167H23.5V24.4063H22.9792V29.0764H21.8854V28.4514ZM20.7396 28.1563C21.081 28.1563 21.3559 28.0492 21.5642 27.8351C21.7784 27.6152 21.8854 27.3287 21.8854 26.9757V26.8715C21.8854 26.5185 21.7784 26.235 21.5642 26.0208C21.3559 25.8009 21.081 25.691 20.7396 25.691C20.3981 25.691 20.1204 25.798 19.9062 26.0122C19.6979 26.2205 19.5937 26.5069 19.5937 26.8715V26.9757C19.5937 27.3403 19.6979 27.6296 19.9062 27.8437C20.1204 28.0521 20.3981 28.1563 20.7396 28.1563Z" fill="#F8F8F8"/>
<path d="M19.0366 29.7998H22.6535V30.5232H19.0366V29.7998Z" fill="#F8F8F8"/>
</svg>
