<svg xmlns="http://www.w3.org/2000/svg" viewBox="0 0 42 42"><g id="Layer_2" data-name="Layer 2"><g id="Layer_1-2" data-name="Layer 1"><path d="M0,21c0-6.52,0-9.78,1.07-12.36A14,14,0,0,1,8.64,1.07C11.22,0,14.48,0,21,0h0c6.52,0,9.78,0,12.36,1.07a14,14,0,0,1,7.57,7.57C42,11.22,42,14.48,42,21h0c0,6.52,0,9.78-1.07,12.36a14,14,0,0,1-7.57,7.57C30.78,42,27.52,42,21,42h0c-6.52,0-9.78,0-12.36-1.07a14,14,0,0,1-7.57-7.57C0,30.78,0,27.52,0,21Z" fill="#959595" fill-opacity="0.3"/><path d="M30.87,11.27A1.16,1.16,0,0,0,29.58,10H13.79a1.15,1.15,0,0,0-1.29,1.27V31.66a1.17,1.17,0,0,0,1.95,1c.61-.47,1.23-.93,1.86-1.39l1.83-1.37,2.58,2.58a1.18,1.18,0,0,0,1.93,0l2.58-2.59,3.69,2.77a1.2,1.2,0,0,0,1.29.19,1.16,1.16,0,0,0,.66-1.16Z" fill="#2c9a71"/><path d="M16.11,17.77h10.6" fill="none" stroke="#fff" stroke-linecap="round" stroke-width="1.4"/><path d="M16.11,20.77h8.6" fill="none" stroke="#fff" stroke-linecap="round" stroke-width="1.4"/><path d="M16.11,14.77h12.6" fill="none" stroke="#fff" stroke-linecap="round" stroke-width="1.4"/><path d="M12.79,24.84,8,29.66A1.15,1.15,0,0,1,6.34,28l4.82-4.82" fill="#2c9a71"/><path d="M16.25,26a6.51,6.51,0,1,0-6.51-6.51A6.5,6.5,0,0,0,16.25,26Z" fill="#67bf9e"/><path d="M16.25,25a5.51,5.51,0,1,0-5.51-5.51A5.51,5.51,0,0,0,16.25,25Zm6.51-5.51A6.51,6.51,0,1,1,16.25,13,6.5,6.5,0,0,1,22.76,19.51Z" fill="#41ab83" fill-rule="evenodd"/><path d="M16.27,17l1,1,0,0H14.15a1.11,1.11,0,0,0-.81.34,1.14,1.14,0,0,0-.34.81,1.13,1.13,0,0,0,.34.81,1.14,1.14,0,0,0,.81.34" fill="none" stroke="#f8f8f8" stroke-linecap="round" stroke-linejoin="round" stroke-width="0.75"/><path d="M16.23,22l-1-1,0,0h3.18a1.11,1.11,0,0,0,.81-.34,1.14,1.14,0,0,0,.34-.81,1.13,1.13,0,0,0-.34-.81,1.14,1.14,0,0,0-.81-.34" fill="none" stroke="#f8f8f8" stroke-linecap="round" stroke-linejoin="round" stroke-width="0.75"/></g></g></svg>