<svg width="42" height="42" viewBox="0 0 42 42" fill="none" xmlns="http://www.w3.org/2000/svg">
<path d="M0 21C0 14.4768 0 11.2152 1.06569 8.64243C2.4866 5.21204 5.21204 2.4866 8.64243 1.06569C11.2152 0 14.4768 0 21 0V0C27.5232 0 30.7848 0 33.3576 1.06569C36.788 2.4866 39.5134 5.21204 40.9343 8.64243C42 11.2152 42 14.4768 42 21V21C42 27.5232 42 30.7848 40.9343 33.3576C39.5134 36.788 36.788 39.5134 33.3576 40.9343C30.7848 42 27.5232 42 21 42V42C14.4768 42 11.2152 42 8.64243 40.9343C5.21204 39.5134 2.4866 36.788 1.06569 33.3576C0 30.7848 0 27.5232 0 21V21Z" fill="#959595" fill-opacity="0.3"/>
<path d="M25.4901 11.2395V27.0495C25.4901 27.7195 24.9401 28.2695 24.2701 28.2695H12.3201C11.6501 28.2695 11.1001 27.7195 11.1001 27.0495V14.0295L15.1101 10.0195H24.2701C24.9401 10.0195 25.4901 10.5695 25.4901 11.2395Z" fill="#2C9A71"/>
<path d="M15.1101 10.0098L11.1001 14.0198H15.1101V10.0098Z" fill="#F8F8F8"/>
<path d="M29.2901 15.0298V30.8398C29.2901 31.5098 28.7401 32.0598 28.0701 32.0598H16.1201C15.4501 32.0598 14.9001 31.5098 14.9001 30.8398V29.6298H25.0901C26.0701 29.6298 26.8601 28.8298 26.8601 27.8598V13.8198H28.0701C28.7401 13.8198 29.2901 14.3698 29.2901 15.0398V15.0298Z" fill="#F8F8F8"/>
</svg>
