<svg width="42" height="42" viewBox="0 0 42 42" fill="none" xmlns="http://www.w3.org/2000/svg">
<path d="M0 21C0 14.4768 0 11.2152 1.06569 8.64243C2.4866 5.21204 5.21204 2.4866 8.64243 1.06569C11.2152 0 14.4768 0 21 0V0C27.5232 0 30.7848 0 33.3576 1.06569C36.788 2.4866 39.5134 5.21204 40.9343 8.64243C42 11.2152 42 14.4768 42 21V21C42 27.5232 42 30.7848 40.9343 33.3576C39.5134 36.788 36.788 39.5134 33.3576 40.9343C30.7848 42 27.5232 42 21 42V42C14.4768 42 11.2152 42 8.64243 40.9343C5.21204 39.5134 2.4866 36.788 1.06569 33.3576C0 30.7848 0 27.5232 0 21V21Z" fill="#959595" fill-opacity="0.2"/>
<path d="M25.5204 23.5501L21.6904 27.3801C21.5204 27.5601 21.4304 27.7901 21.4304 28.0301C21.4304 28.2701 21.5304 28.5101 21.7104 28.6801C21.8804 28.8501 22.1204 28.9501 22.3604 28.9401C22.6004 28.9301 22.8404 28.8401 23.0104 28.6701L26.6104 25.0601C26.6604 25.0101 26.7204 24.9701 26.7904 24.9401C26.8604 24.9101 26.9304 24.9001 27.0004 24.9001C27.0704 24.9001 27.1404 24.9101 27.2104 24.9401C27.2804 24.9701 27.3404 25.0101 27.3904 25.0601C27.4404 25.1101 27.4804 25.1701 27.5104 25.2401C27.5404 25.3101 27.5504 25.3801 27.5504 25.4501C27.5504 25.5201 27.5404 25.5901 27.5104 25.6601C27.4804 25.7301 27.4404 25.7901 27.3904 25.8401L23.7704 29.4601C23.4304 29.7901 22.9804 30.0001 22.5104 30.0301C22.0404 30.0601 21.5604 29.9301 21.1804 29.6501H16.8604C16.7404 29.6501 16.6104 29.6501 16.4904 29.6901C16.3704 29.7301 16.2604 29.7901 16.1704 29.8701C16.0804 29.9501 16.0004 30.0501 15.9504 30.1601C15.9004 30.2701 15.8704 30.3901 15.8604 30.5201C15.8604 30.6401 15.8704 30.7701 15.9204 30.8801C15.9604 31.0001 16.0304 31.1001 16.1104 31.1901C16.2004 31.2801 16.3004 31.3501 16.4104 31.4001C16.5204 31.4501 16.6504 31.4801 16.7704 31.4801H24.7604C25.2004 31.4801 25.6204 31.3001 25.9304 31.0001L28.5104 28.4201C28.7004 28.2301 28.9204 28.0801 29.1604 27.9801C29.4004 27.8801 29.6704 27.8301 29.9304 27.8301H31.7504V23.0601H26.6904C26.4704 23.0601 26.2604 23.1001 26.0604 23.1901C25.8604 23.2701 25.6804 23.4001 25.5204 23.5501Z" fill="#F8F8F8"/>
<path d="M34.1303 22.3298H33.3603C33.2203 22.3298 33.0903 22.3798 32.9903 22.4698C32.8903 22.5598 32.8303 22.6898 32.8203 22.8198V28.0698C32.8303 28.1998 32.8903 28.3298 32.9903 28.4098C33.0903 28.4998 33.2203 28.5498 33.3503 28.5498H34.1203C34.2603 28.5498 34.4003 28.4898 34.5003 28.3898C34.6003 28.2898 34.6603 28.1498 34.6603 28.0098V22.8598C34.6603 22.7898 34.6503 22.7198 34.6203 22.6498C34.5903 22.5798 34.5503 22.5298 34.5003 22.4798C34.4503 22.4298 34.3903 22.3898 34.3303 22.3598C34.2603 22.3298 34.1903 22.3198 34.1203 22.3198L34.1303 22.3298Z" fill="#F8F8F8"/>
<path d="M25.1002 15.46C23.8202 12.5 21.4702 11.2 20.5002 10.75C15.8702 8.60005 10.3502 10.63 8.20024 15.26C6.05024 19.89 8.08024 25.41 12.7102 27.56C13.6702 28.01 14.6902 28.28 15.7302 28.38C15.9602 28.4 16.1802 28.28 16.2702 28.07L17.3302 25.78C17.4102 25.61 17.3902 25.41 17.2902 25.25C17.1902 25.09 17.0102 25 16.8202 25.01C15.8902 25.05 14.9902 24.87 14.1402 24.47C11.2102 23.11 9.93024 19.63 11.2902 16.7C12.6502 13.77 16.1302 12.49 19.0602 13.85C20.3102 14.43 21.3002 15.41 21.8802 16.64L20.5702 17.12C20.3802 17.19 20.2502 17.35 20.2202 17.55C20.1902 17.75 20.2702 17.94 20.4302 18.06L25.0102 21.47C25.1602 21.58 25.3502 21.61 25.5202 21.54C25.5802 21.52 25.6402 21.48 25.6802 21.45C25.7602 21.38 25.8102 21.3 25.8402 21.23C25.8502 21.2 25.8602 21.17 25.8602 21.15L27.1502 15.59C27.2002 15.4 27.1302 15.19 26.9802 15.06C26.8302 14.93 26.6202 14.89 26.4302 14.96L25.0802 15.46H25.1002Z" fill="#2C9A71"/>
<path d="M17.2201 20.8598H17.0801C17.0401 20.9498 16.9801 21.0398 16.9201 21.1198C16.8601 21.1998 16.7801 21.2698 16.6801 21.3398C16.5801 21.3998 16.4701 21.4498 16.3301 21.4898C16.2001 21.5298 16.0301 21.5498 15.8401 21.5498C15.5901 21.5498 15.3701 21.5098 15.1501 21.4198C14.9401 21.3298 14.7601 21.1998 14.6001 21.0298C14.4501 20.8498 14.3201 20.6398 14.2301 20.3898C14.1401 20.1398 14.1001 19.8498 14.1001 19.5298V19.3898C14.1001 19.0698 14.1501 18.7798 14.2401 18.5298C14.3401 18.2798 14.4601 18.0698 14.6201 17.8998C14.7901 17.7198 14.9701 17.5898 15.1901 17.4998C15.4101 17.4098 15.6401 17.3598 15.8801 17.3598C16.2001 17.3598 16.4501 17.4198 16.6401 17.5398C16.8301 17.6598 16.9701 17.8298 17.0801 18.0398H17.2201V17.1298H15.9701V16.2198H17.2201V15.8398H18.2301V16.2198H18.7101V17.1298H18.2301V21.4298H17.2201V20.8498V20.8598ZM16.1601 20.5798C16.4701 20.5798 16.7301 20.4798 16.9201 20.2798C17.1201 20.0798 17.2201 19.8098 17.2201 19.4898V19.3898C17.2201 19.0598 17.1201 18.7998 16.9201 18.6098C16.7301 18.4098 16.4701 18.3098 16.1601 18.3098C15.8501 18.3098 15.5901 18.4098 15.3901 18.6098C15.1901 18.8098 15.1001 19.0698 15.1001 19.3998V19.4998C15.1001 19.8398 15.2001 20.0998 15.3901 20.2998C15.5901 20.4898 15.8401 20.5898 16.1601 20.5898V20.5798Z" fill="#F8F8F8"/>
<path d="M17.9198 22.4297H14.5898V23.0997H17.9198V22.4297Z" fill="#F8F8F8"/>
</svg>
