<svg width="42" height="42" viewBox="0 0 42 42" fill="none" xmlns="http://www.w3.org/2000/svg">
<path d="M0 21C0 14.4768 0 11.2152 1.06569 8.64243C2.4866 5.21204 5.21204 2.4866 8.64243 1.06569C11.2152 0 14.4768 0 21 0V0C27.5232 0 30.7848 0 33.3576 1.06569C36.788 2.4866 39.5134 5.21204 40.9343 8.64243C42 11.2152 42 14.4768 42 21V21C42 27.5232 42 30.7848 40.9343 33.3576C39.5134 36.788 36.788 39.5134 33.3576 40.9343C30.7848 42 27.5232 42 21 42V42C14.4768 42 11.2152 42 8.64243 40.9343C5.21204 39.5134 2.4866 36.788 1.06569 33.3576C0 30.7848 0 27.5232 0 21V21Z" fill="#959595" fill-opacity="0.3"/>
<path d="M18.225 28.73C24.055 30.31 30.035 26.87 31.615 21.04C33.195 15.21 29.755 9.23002 23.925 7.65002C18.095 6.07002 12.115 9.51002 10.535 15.34C8.95503 21.17 12.395 27.15 18.225 28.73Z" fill="#3BB894"/>
<path d="M21.9551 20.3501H22.6951C22.9351 20.3501 23.1651 20.4301 23.3551 20.5801C23.7751 20.5201 24.1751 20.4101 24.5251 20.2601C24.6251 20.1101 24.7151 19.9501 24.7951 19.7801V18.1301C24.7951 17.7601 24.9351 17.4101 25.1651 17.1501C24.8251 15.1601 23.1251 13.6401 21.0751 13.6401C19.0251 13.6401 17.3351 15.1601 16.9851 17.1501C17.2151 17.4101 17.3551 17.7601 17.3551 18.1301V19.7801C18.0351 21.1801 19.4451 22.1401 21.0751 22.1401C21.1051 22.1401 21.1251 22.1401 21.1551 22.1401C20.9951 21.9501 20.8951 21.7101 20.8951 21.4401C20.8951 20.8401 21.3751 20.3501 21.9651 20.3501H21.9551Z" fill="#F8F8F8"/>
<path d="M15.4251 20.9402H15.4751C16.0351 20.9402 16.4851 20.5002 16.4851 19.9602V18.0102C16.4851 17.6302 16.2551 17.3002 15.9251 17.1402C16.0651 14.5002 18.3251 12.4002 21.0851 12.4002C23.8451 12.4002 26.0951 14.5002 26.2451 17.1402C25.9151 17.3002 25.6851 17.6302 25.6851 18.0102V19.9602C25.6851 20.0902 25.7151 20.2102 25.7551 20.3202C25.1651 20.7302 24.3151 21.0202 23.3551 21.1002C23.2451 20.9402 23.0651 20.8302 22.8451 20.8302H22.0451C21.7151 20.8302 21.4451 21.0902 21.4451 21.4102C21.4451 21.7302 21.7151 22.0002 22.0451 22.0002H22.8451C23.0751 22.0002 23.2751 21.8702 23.3751 21.6802C24.4951 21.5902 25.4651 21.2602 26.1451 20.7802C26.3051 20.8802 26.4851 20.9402 26.6851 20.9402H26.7351C27.2951 20.9402 27.7451 20.5002 27.7451 19.9602V18.0102C27.7451 17.6202 27.5151 17.2902 27.1751 17.1302C27.0251 14.0002 24.3551 11.4902 21.0951 11.4902C17.8351 11.4902 15.1551 14.0002 15.0151 17.1302C14.6751 17.2902 14.4451 17.6202 14.4451 18.0102V19.9602C14.4451 20.5002 14.8951 20.9402 15.4551 20.9402H15.4251Z" fill="#F8F8F8"/>
<path d="M28.525 25.1399C25.995 27.7599 22.155 28.9599 18.375 27.9399C16.495 27.4299 14.885 26.4299 13.635 25.1299C13.005 25.9699 12.645 26.9899 12.645 28.0499V29.7999C12.645 31.0499 13.975 31.1599 13.975 31.1599H28.185C28.185 31.1599 29.515 31.0599 29.515 29.7999V28.0499C29.515 26.9899 29.155 25.9799 28.525 25.1399Z" fill="#F8F8F8"/>
<path d="M15.345 26.3801L8.705 33.0201C8.085 33.6401 7.085 33.6401 6.465 33.0201C5.845 32.4001 5.845 31.4001 6.465 30.7801L13.105 24.1401" fill="#2C9A71"/>
<path fill-rule="evenodd" clip-rule="evenodd" d="M18.665 27.11C23.585 28.44 28.665 25.52 29.995 20.6C31.325 15.68 28.405 10.6 23.485 9.27002C18.565 7.94002 13.485 10.86 12.155 15.78C10.825 20.7 13.745 25.78 18.665 27.11ZM31.615 21.04C30.035 26.87 24.055 30.31 18.225 28.73C12.395 27.15 8.95503 21.17 10.535 15.34C12.115 9.51002 18.095 6.07002 23.925 7.65002C29.755 9.23002 33.195 15.21 31.615 21.04Z" fill="#2C9A71"/>
<path fill-rule="evenodd" clip-rule="evenodd" d="M24.6249 22.8501H17.5249C16.7249 22.8501 15.9549 23.0701 15.2549 23.4401C16.2349 24.5201 17.5149 25.3501 19.0249 25.7601C21.9649 26.5601 24.9749 25.5601 26.8849 23.4401C26.1949 23.0701 25.4249 22.8501 24.6149 22.8501H24.6249Z" fill="#F8F8F8"/>
</svg>
