<svg width="43" height="42" viewBox="0 0 43 42" fill="none" xmlns="http://www.w3.org/2000/svg">
<path d="M0 21C0 14.4768 0 11.2152 1.06569 8.64243C2.4866 5.21204 5.21204 2.4866 8.64243 1.06569C11.2152 0 14.4768 0 21 0H22C28.5232 0 31.7848 0 34.3576 1.06569C37.788 2.4866 40.5134 5.21204 41.9343 8.64243C43 11.2152 43 14.4768 43 21C43 27.5232 43 30.7848 41.9343 33.3576C40.5134 36.788 37.788 39.5134 34.3576 40.9343C31.7848 42 28.5232 42 22 42H21C14.4768 42 11.2152 42 8.64243 40.9343C5.21204 39.5134 2.4866 36.788 1.06569 33.3576C0 30.7848 0 27.5232 0 21Z" fill="#959595" fill-opacity="0.3"/>
<path d="M12.1094 18.8438H18.8494L21.456 21.4503C21.5905 21.5848 21.7703 21.6563 21.9533 21.6562C22.0439 21.6562 22.1352 21.6388 22.2222 21.6027C22.485 21.4939 22.6563 21.2375 22.6563 20.9531V18.8438H24.2969C25.46 18.8438 26.4063 17.8975 26.4063 16.7344V11.1094C26.4063 9.94627 25.46 9 24.2969 9H12.1094C10.9463 9 10 9.94627 10 11.1094V16.7344C10 17.8975 10.9463 18.8438 12.1094 18.8438Z" fill="#2C9A71"/>
<path d="M19.6094 24.9375H18.8355C18.7442 24.4893 18.5669 24.0721 18.3223 23.7033L18.871 23.1547C19.1455 22.8802 19.1455 22.4349 18.871 22.1603C18.5964 21.8857 18.1512 21.8857 17.8766 22.1603L17.328 22.709C16.9591 22.4644 16.542 22.2871 16.0938 22.1958V21.4219C16.0938 21.0336 15.779 20.7188 15.3907 20.7188C15.0024 20.7188 14.6875 21.0336 14.6875 21.4219V22.1957C14.2394 22.287 13.8222 22.4644 13.4534 22.7089L12.9047 22.1603C12.6302 21.8857 12.185 21.8857 11.9104 22.1603C11.6358 22.4348 11.6358 22.8801 11.9104 23.1547L12.459 23.7032C12.2144 24.0721 12.0371 24.4892 11.9458 24.9375H11.1719C10.7836 24.9375 10.4688 25.2523 10.4688 25.6406C10.4688 26.0289 10.7836 26.3437 11.1719 26.3437H11.9457C12.0371 26.7919 12.2144 27.2091 12.4589 27.5779L11.9103 28.1265C11.6357 28.401 11.6357 28.8463 11.9103 29.1209C12.0476 29.2582 12.2275 29.3268 12.4075 29.3268C12.5874 29.3268 12.7674 29.2582 12.9047 29.1209L13.4533 28.5722C13.8221 28.8168 14.2393 28.9941 14.6875 29.0854V29.8594C14.6875 30.2477 15.0023 30.5625 15.3906 30.5625C15.7789 30.5625 16.0937 30.2477 16.0937 29.8594V29.0855C16.5419 28.9942 16.959 28.8169 17.3279 28.5723L17.8765 29.121C18.0138 29.2583 18.1937 29.3269 18.3737 29.3269C18.5536 29.3269 18.7336 29.2583 18.8709 29.121C19.1454 28.8464 19.1454 28.4012 18.8709 28.1266L18.3222 27.578C18.5668 27.2092 18.7441 26.792 18.8354 26.3438H19.6094C19.9977 26.3438 20.3125 26.029 20.3125 25.6407C20.3125 25.2524 19.9977 24.9375 19.6094 24.9375ZM15.3906 26.3438C15.0023 26.3438 14.6875 26.0289 14.6875 25.6406C14.6875 25.2523 15.0023 24.9375 15.3906 24.9375C15.7789 24.9375 16.0938 25.2523 16.0938 25.6406C16.0938 26.0289 15.7789 26.3438 15.3906 26.3438Z" fill="#F8F8F8"/>
<path d="M33.6483 27.6576L33.0718 27.3247C33.0991 27.1058 33.1129 26.8875 33.1129 26.6719C33.1129 26.4563 33.0991 26.238 33.0718 26.019L33.6483 25.6861C33.9846 25.492 34.0999 25.062 33.9057 24.7257L32.4994 22.29C32.3053 21.9537 31.8753 21.8384 31.539 22.0326L30.9599 22.3669C30.6089 22.1008 30.2317 21.8813 29.8316 21.7107V21.0469C29.8316 20.6586 29.5168 20.3438 29.1285 20.3438H26.316C25.9277 20.3438 25.6129 20.6586 25.6129 21.0469V21.7106C25.2128 21.8813 24.8356 22.1007 24.4846 22.3669L23.9056 22.0326C23.5693 21.8384 23.1393 21.9536 22.9451 22.2899L21.5389 24.7256C21.3447 25.0619 21.46 25.4919 21.7962 25.6861L22.3728 26.019C22.3455 26.238 22.3317 26.4562 22.3317 26.6718C22.3317 26.8875 22.3455 27.1057 22.3728 27.3247L21.7962 27.6576C21.46 27.8517 21.3447 28.2818 21.5389 28.618L22.9451 31.0538C23.1393 31.3901 23.5693 31.5053 23.9057 31.3111L24.4847 30.9768C24.8358 31.243 25.2129 31.4624 25.6129 31.633V32.2969C25.6129 32.6852 25.9278 33 26.3161 33H29.1286C29.5169 33 29.8317 32.6852 29.8317 32.2969V31.6331C30.2318 31.4624 30.6089 31.243 30.96 30.9768L31.539 31.3111C31.8753 31.5053 32.3053 31.3901 32.4994 31.0538L33.9057 28.6181C34.0999 28.2818 33.9846 27.8518 33.6483 27.6576ZM27.7223 28.7812C26.5592 28.7812 25.6129 27.835 25.6129 26.6719C25.6129 25.5088 26.5592 24.5625 27.7223 24.5625C28.8854 24.5625 29.8316 25.5088 29.8316 26.6719C29.8316 27.835 28.8854 28.7812 27.7223 28.7812Z" fill="#F8F8F8"/>
<path fill-rule="evenodd" clip-rule="evenodd" d="M12.25 12.5C12.25 12.0858 12.5858 11.75 13 11.75H23.5C23.9142 11.75 24.25 12.0858 24.25 12.5C24.25 12.9142 23.9142 13.25 23.5 13.25H13C12.5858 13.25 12.25 12.9142 12.25 12.5Z" fill="url(#paint0_linear_10603_19269)"/>
<path fill-rule="evenodd" clip-rule="evenodd" d="M12.25 15C12.25 14.5858 12.5858 14.25 13 14.25H21C21.4142 14.25 21.75 14.5858 21.75 15C21.75 15.4142 21.4142 15.75 21 15.75H13C12.5858 15.75 12.25 15.4142 12.25 15Z" fill="url(#paint1_linear_10603_19269)"/>
<defs>
<linearGradient id="paint0_linear_10603_19269" x1="18.25" y1="13.25" x2="18.25" y2="11.75" gradientUnits="userSpaceOnUse">
<stop stop-color="#D9D9D9"/>
<stop offset="0.5028" stop-color="#F2F2F2"/>
<stop offset="1" stop-color="white"/>
</linearGradient>
<linearGradient id="paint1_linear_10603_19269" x1="17" y1="15.75" x2="17" y2="14.25" gradientUnits="userSpaceOnUse">
<stop stop-color="#D9D9D9"/>
<stop offset="0.5028" stop-color="#F2F2F2"/>
<stop offset="1" stop-color="white"/>
</linearGradient>
</defs>
</svg>
