<svg width="42" height="42" viewBox="0 0 42 42" fill="none" xmlns="http://www.w3.org/2000/svg">
<path d="M0 21C0 14.4768 0 11.2152 1.06569 8.64243C2.4866 5.21204 5.21204 2.4866 8.64243 1.06569C11.2152 0 14.4768 0 21 0V0C27.5232 0 30.7848 0 33.3576 1.06569C36.788 2.4866 39.5134 5.21204 40.9343 8.64243C42 11.2152 42 14.4768 42 21V21C42 27.5232 42 30.7848 40.9343 33.3576C39.5134 36.788 36.788 39.5134 33.3576 40.9343C30.7848 42 27.5232 42 21 42V42C14.4768 42 11.2152 42 8.64243 40.9343C5.21204 39.5134 2.4866 36.788 1.06569 33.3576C0 30.7848 0 27.5232 0 21V21Z" fill="#959595" fill-opacity="0.2"/>
<path d="M25.2899 24.8001L21.4599 28.6301C21.2899 28.8101 21.1999 29.0401 21.1999 29.2801C21.1999 29.5201 21.2999 29.7601 21.4799 29.9301C21.6499 30.1001 21.8899 30.2001 22.1299 30.1901C22.3699 30.1801 22.6099 30.0901 22.7799 29.9201L26.3799 26.3101C26.4299 26.2601 26.4899 26.2201 26.5599 26.1901C26.6299 26.1601 26.6999 26.1501 26.7699 26.1501C26.8399 26.1501 26.9099 26.1601 26.9799 26.1901C27.0499 26.2201 27.1099 26.2601 27.1599 26.3101C27.2099 26.3601 27.2499 26.4201 27.2799 26.4901C27.3099 26.5601 27.3199 26.6301 27.3199 26.7001C27.3199 26.7701 27.3099 26.8401 27.2799 26.9101C27.2499 26.9801 27.2099 27.0401 27.1599 27.0901L23.5399 30.7101C23.1999 31.0401 22.7499 31.2501 22.2799 31.2801C21.8099 31.3101 21.3299 31.1801 20.9499 30.9001H16.6299C16.5099 30.9001 16.3799 30.9001 16.2599 30.9401C16.1399 30.9801 16.0299 31.0401 15.9399 31.1201C15.8499 31.2001 15.7699 31.3001 15.7199 31.4101C15.6699 31.5201 15.6399 31.6401 15.6299 31.7701C15.6299 31.8901 15.6399 32.0201 15.6899 32.1301C15.7299 32.2501 15.7999 32.3501 15.8799 32.4401C15.9699 32.5301 16.0699 32.6001 16.1799 32.6501C16.2899 32.7001 16.4199 32.7301 16.5399 32.7301H24.5299C24.9699 32.7301 25.3899 32.5501 25.6999 32.2501L28.2799 29.6701C28.4699 29.4801 28.6899 29.3301 28.9299 29.2301C29.1699 29.1301 29.4399 29.0801 29.6999 29.0801H31.5199V24.3101H26.4599C26.2399 24.3101 26.0299 24.3501 25.8299 24.4401C25.6299 24.5201 25.4499 24.6501 25.2899 24.8001Z" fill="#F8F8F8"/>
<path d="M33.8998 23.5901H33.1298C32.9898 23.5901 32.8598 23.6401 32.7598 23.7301C32.6598 23.8201 32.5998 23.9501 32.5898 24.0801V29.3301C32.5998 29.4601 32.6598 29.5901 32.7598 29.6701C32.8598 29.7601 32.9898 29.8101 33.1198 29.8101H33.8898C34.0298 29.8101 34.1698 29.7501 34.2698 29.6501C34.3698 29.5501 34.4298 29.4101 34.4298 29.2701V24.1201C34.4298 24.0501 34.4198 23.9801 34.3898 23.9101C34.3598 23.8401 34.3198 23.7901 34.2698 23.7401C34.2198 23.6901 34.1598 23.6501 34.0998 23.6201C34.0298 23.5901 33.9598 23.5801 33.8898 23.5801L33.8998 23.5901Z" fill="url(#paint0_linear_8654_19798)"/>
<path d="M25.2899 24.8201L21.4599 28.6501C21.2899 28.8301 21.1999 29.0601 21.1999 29.3001C21.1999 29.5401 21.2999 29.7801 21.4799 29.9501C21.6499 30.1201 21.8899 30.2201 22.1299 30.2101C22.3699 30.2001 22.6099 30.1101 22.7799 29.9401L26.3799 26.3301C26.4299 26.2801 26.4899 26.2401 26.5599 26.2101C26.6299 26.1801 26.6999 26.1701 26.7699 26.1701C26.8399 26.1701 26.9099 26.1801 26.9799 26.2101C27.0499 26.2401 27.1099 26.2801 27.1599 26.3301C27.2099 26.3801 27.2499 26.4401 27.2799 26.5101C27.3099 26.5801 27.3199 26.6501 27.3199 26.7201C27.3199 26.7901 27.3099 26.8601 27.2799 26.9301C27.2499 27.0001 27.2099 27.0601 27.1599 27.1101L23.5399 30.7301C23.1999 31.0601 22.7499 31.2701 22.2799 31.3001C21.8099 31.3301 21.3299 31.2001 20.9499 30.9201H16.6299C16.5099 30.9201 16.3799 30.9201 16.2599 30.9601C16.1399 31.0001 16.0299 31.0601 15.9399 31.1401C15.8499 31.2201 15.7699 31.3201 15.7199 31.4301C15.6699 31.5401 15.6399 31.6601 15.6299 31.7901C15.6299 31.9101 15.6399 32.0401 15.6899 32.1501C15.7299 32.2701 15.7999 32.3701 15.8799 32.4601C15.9699 32.5501 16.0699 32.6201 16.1799 32.6701C16.2899 32.7201 16.4199 32.7501 16.5399 32.7501H24.5299C24.9699 32.7501 25.3899 32.5701 25.6999 32.2701L28.2799 29.6901C28.4699 29.5001 28.6899 29.3501 28.9299 29.2501C29.1699 29.1501 29.4399 29.1001 29.6999 29.1001H31.5199V24.3301H26.4599C26.2399 24.3301 26.0299 24.3701 25.8299 24.4601C25.6299 24.5401 25.4499 24.6701 25.2899 24.8201Z" fill="#F8F8F8"/>
<path d="M33.8998 23.6001H33.1298C32.9898 23.6001 32.8598 23.6501 32.7598 23.7401C32.6598 23.8301 32.5998 23.9601 32.5898 24.0901V29.3401C32.5998 29.4701 32.6598 29.6001 32.7598 29.6801C32.8598 29.7701 32.9898 29.8201 33.1198 29.8201H33.8898C34.0298 29.8201 34.1698 29.7601 34.2698 29.6601C34.3698 29.5601 34.4298 29.4201 34.4298 29.2801V24.1301C34.4298 24.0601 34.4198 23.9901 34.3898 23.9201C34.3598 23.8501 34.3198 23.8001 34.2698 23.7501C34.2198 23.7001 34.1598 23.6601 34.0998 23.6301C34.0298 23.6001 33.9598 23.5901 33.8898 23.5901L33.8998 23.6001Z" fill="#F8F8F8"/>
<path d="M10.02 13.09C10.94 13.92 11.96 14.55 11.96 14.55C12.02 14.59 12.08 14.61 12.15 14.61H17.59C17.66 14.61 17.73 14.59 17.78 14.55C17.78 14.55 18.8 13.92 19.72 13.09C20.18 12.68 20.62 12.22 20.9 11.73C21.18 11.24 21.32 10.65 21.01 10.15C20.8 9.80999 20.38 9.66999 20.04 9.71999C19.7 9.76999 19.39 9.92999 19.08 10.09C18.45 10.42 17.8 10.76 17.47 10.71C17.13 10.66 16.78 10.36 16.38 10.01C15.98 9.65999 15.51 9.23999 14.86 9.23999C14.21 9.23999 13.74 9.64999 13.34 10.01C12.94 10.36 12.59 10.66 12.25 10.71C11.92 10.76 11.27 10.42 10.64 10.09C10.33 9.91999 10.02 9.76999 9.68002 9.71999C9.34002 9.66999 8.92002 9.80999 8.71002 10.15C8.40002 10.65 8.54002 11.24 8.82002 11.73C9.10002 12.22 9.54002 12.68 10 13.09H10.02Z" fill="#2C9A71"/>
<path d="M23.01 25.4101C23.04 25.1501 23.06 24.8701 23.06 24.5801C23.06 22.8701 22.53 20.8901 21.63 19.1701C20.73 17.4501 19.45 15.9801 17.88 15.3701C17.84 15.3501 17.79 15.3501 17.75 15.3501H12.31C12.31 15.3501 12.22 15.3501 12.18 15.3701C10.61 15.9801 9.33 17.4501 8.43 19.1701C7.53 20.8901 7 22.8701 7 24.5801C7 26.8001 7.97 28.1701 9.45 28.8701C10.94 29.5701 12.89 29.6901 15.03 29.6901C16.9 29.6901 18.62 29.5801 20.02 29.0801C20.07 28.6101 20.26 28.1701 20.6 27.8301L23.01 25.4201V25.4101Z" fill="#2C9A71"/>
<path d="M15.9701 23.8999H15.8301C15.7901 23.9899 15.7301 24.0799 15.6701 24.1599C15.6101 24.2399 15.5301 24.3099 15.4301 24.3799C15.3301 24.4399 15.2201 24.4899 15.0801 24.5299C14.9501 24.5699 14.7801 24.5899 14.5901 24.5899C14.3401 24.5899 14.1201 24.5499 13.9001 24.4599C13.6901 24.3699 13.5101 24.2399 13.3501 24.0699C13.2001 23.8899 13.0701 23.6799 12.9801 23.4299C12.8901 23.1799 12.8501 22.8899 12.8501 22.5699V22.4299C12.8501 22.1099 12.9001 21.8199 12.9901 21.5699C13.0901 21.3199 13.2101 21.1099 13.3701 20.9399C13.5401 20.7599 13.7201 20.6299 13.9401 20.5399C14.1601 20.4499 14.3901 20.3999 14.6301 20.3999C14.9501 20.3999 15.2001 20.4599 15.3901 20.5799C15.5801 20.6999 15.7201 20.8699 15.8301 21.0799H15.9701V20.1699H14.7201V19.2599H15.9701V18.8799H16.9801V19.2599H17.4601V20.1699H16.9801V24.4699H15.9701V23.8899V23.8999ZM14.9101 23.6299C15.2201 23.6299 15.4801 23.5299 15.6701 23.3299C15.8701 23.1299 15.9701 22.8599 15.9701 22.5399V22.4399C15.9701 22.1099 15.8701 21.8499 15.6701 21.6599C15.4801 21.4599 15.2201 21.3599 14.9101 21.3599C14.6001 21.3599 14.3401 21.4599 14.1401 21.6599C13.9401 21.8599 13.8501 22.1199 13.8501 22.4499V22.5499C13.8501 22.8899 13.9501 23.1499 14.1401 23.3499C14.3401 23.5399 14.5901 23.6399 14.9101 23.6399V23.6299Z" fill="#F8F8F8"/>
<path d="M16.6701 25.4697H13.3401V26.1397H16.6701V25.4697Z" fill="#F8F8F8"/>
<defs>
<linearGradient id="paint0_linear_8654_19798" x1="33.5098" y1="29.8101" x2="33.5098" y2="23.5801" gradientUnits="userSpaceOnUse">
<stop stop-color="#ABABAB"/>
<stop offset="1" stop-color="#E2E2E2"/>
</linearGradient>
</defs>
</svg>
