<svg width="42" height="49" viewBox="0 0 42 49" fill="none" xmlns="http://www.w3.org/2000/svg">
<rect width="42" height="42" rx="14" fill="#167B5E" fill-opacity="0.3"/>
<g filter="url(#filter0_d_49_281771)">
<path d="M32.4705 28.0157C32.4705 34.2132 29.1066 34.4065 20.3789 34.4065C20.3753 34.4065 20.3735 34.4065 20.3699 34.4065C11.6422 34.4065 8.27832 34.2132 8.27832 28.0157C8.27832 22.8045 12.9392 19.8268 17.294 12.8579H20.3699H20.3789H23.4548C27.8096 19.8268 32.4705 22.8045 32.4705 28.0157Z" fill="url(#paint0_linear_49_281771)"/>
<path d="M25.7686 7.63782L23.7934 12.044H16.6802L14.7182 7.78732C14.6808 7.47142 15.0997 7.21432 15.5094 7.19412C15.919 7.17402 16.308 7.32182 16.6746 7.46302C17.0412 7.60422 17.434 7.74702 17.8418 7.71842C18.7208 7.65792 19.4166 6.83117 20.2621 7.03112C20.7727 7.15042 21.0514 7.61422 21.5639 7.73192C22.2017 7.87982 22.7834 7.43612 23.3931 7.23112C24.1881 6.96224 25.1962 7.13532 25.7686 7.63782Z" fill="url(#paint1_linear_49_281771)"/>
<path fill-rule="evenodd" clip-rule="evenodd" d="M16.6799 11.8541C16.6799 11.8541 16.6803 11.8537 16.6814 11.8541H23.7927L23.4714 12.9956C23.4714 12.9956 22.7575 12.9393 22.0556 12.9084L23.8484 17.8551C23.9762 18.2076 23.7151 18.5799 23.3401 18.5799C23.0876 18.5799 22.8688 18.4052 22.8129 18.1589L21.6768 13.151L21.2721 16.7335C21.2401 17.0168 21.0004 17.2309 20.7153 17.2309C20.3418 17.2309 20.0728 16.8724 20.1774 16.5138L21.234 12.8888H20.241H20.2316H19.0651C18.2469 12.897 17.0014 12.9952 17.0014 12.9952L16.6804 11.856L16.6799 11.8541Z" fill="url(#paint2_linear_49_281771)"/>
<path d="M33.7302 33.4618L33.7829 32.7477L33.5998 32.7351C33.1203 31.64 31.4074 30.7323 29.3063 30.5669C27.1478 30.3969 25.2715 31.0637 24.6764 32.1187L24.5334 32.1085L24.4838 32.7336C24.3746 34.1318 26.3547 35.4277 28.9078 35.6292C31.4625 35.83 33.621 34.8593 33.7302 33.4618Z" fill="url(#paint3_linear_49_281771)"/>
<path d="M28.9588 35.0053C26.4056 34.8038 24.4256 33.5079 24.5356 32.1097C24.6449 30.7122 26.8042 29.7415 29.3565 29.943C31.9096 30.1446 33.8897 31.4405 33.7804 32.8387C33.6704 34.2353 31.5119 35.2061 28.9588 35.0053Z" fill="url(#paint4_linear_49_281771)"/>
<path d="M29.2865 30.3726C31.5134 30.5481 33.2601 31.6126 33.2876 32.7833C33.2946 32.7439 33.3001 32.7037 33.3033 32.6636C33.3992 31.4464 31.6093 30.3135 29.3062 30.1317C27.003 29.9498 25.0575 30.7891 24.9624 32.0062C24.9593 32.0464 24.9585 32.0865 24.9593 32.1267C25.1676 30.9749 27.0596 30.1962 29.2865 30.3726Z" fill="url(#paint5_linear_49_281771)"/>
<path d="M28.9591 34.5376C31.186 34.7132 33.078 33.9346 33.2871 32.7836C33.2604 31.6129 31.513 30.5484 29.2861 30.3729C27.0592 30.1973 25.1671 30.9759 24.958 32.127C24.9848 33.2969 26.7322 34.3621 28.9591 34.5376Z" fill="url(#paint6_linear_49_281771)"/>
<path opacity="0.6" d="M33.2027 33.9322C33.2027 33.9322 33.1839 33.9621 33.1391 34.0125C33.117 34.0377 33.0895 34.0684 33.0534 34.1015C33.0353 34.118 33.0172 34.1377 32.996 34.1558C32.9748 34.1731 32.9512 34.192 32.9276 34.2125C32.8309 34.292 32.7036 34.377 32.5519 34.4652C32.4756 34.5085 32.3915 34.5479 32.3035 34.5927C32.2147 34.6337 32.1172 34.6699 32.0181 34.7116C31.9167 34.7478 31.809 34.7809 31.699 34.8179C31.5874 34.851 31.4703 34.8762 31.35 34.9069C31.2902 34.9234 31.2281 34.9328 31.1661 34.9439C31.1032 34.9549 31.0403 34.9667 30.9766 34.9777C30.8493 35.0045 30.7172 35.0139 30.5836 35.0297C30.5168 35.0368 30.4492 35.0446 30.3816 35.0517C30.3132 35.0572 30.2448 35.0596 30.1756 35.0635C30.0373 35.069 29.8974 35.0816 29.7559 35.0809C29.6144 35.0793 29.4721 35.0777 29.3298 35.0769L29.2229 35.0761C29.1875 35.0746 29.1514 35.0722 29.116 35.0698L28.9014 35.0572C28.7591 35.0478 28.6169 35.0383 28.4746 35.0289C28.3307 35.0179 28.1885 34.9998 28.0485 34.9777C27.7679 34.9336 27.4959 34.8675 27.2381 34.7896C26.9795 34.7124 26.7358 34.6171 26.511 34.5132C26.2862 34.4093 26.0818 34.2936 25.9018 34.1755C25.721 34.0574 25.5646 33.9361 25.4349 33.8188C25.3681 33.7621 25.3115 33.7023 25.2557 33.6511C25.203 33.5968 25.1559 33.5456 25.1126 33.5C25.0309 33.4055 24.9688 33.3291 24.9295 33.2748C24.8894 33.2213 24.8682 33.1929 24.8682 33.1929C24.8682 33.1929 24.8917 33.2197 24.9358 33.2701C24.9586 33.2945 24.9845 33.3268 25.0183 33.3614C25.0521 33.3961 25.0906 33.4362 25.1331 33.4819C25.1787 33.5244 25.2274 33.5724 25.2832 33.6228C25.3406 33.6708 25.3995 33.7259 25.4687 33.7779C25.6031 33.8865 25.7643 33.996 25.9458 34.1054C26.309 34.3235 26.7641 34.525 27.2735 34.6683C27.5274 34.7415 27.7954 34.7974 28.0698 34.8407C28.2073 34.8612 28.3457 34.8785 28.4848 34.888C28.6263 34.8958 28.7686 34.9045 28.9101 34.9132L29.1215 34.9273C29.1569 34.9297 29.1923 34.9328 29.2276 34.9336L29.3338 34.9352C29.4745 34.9368 29.6152 34.9391 29.7543 34.9415C29.8243 34.9447 29.8934 34.9384 29.9626 34.9368C30.0318 34.9344 30.1002 34.9321 30.1685 34.9297C30.2369 34.9265 30.3045 34.9265 30.3721 34.9218C30.4389 34.9155 30.5058 34.9092 30.5718 34.9037C30.7031 34.8903 30.8343 34.8825 30.9593 34.8604C31.0222 34.851 31.0851 34.8415 31.1464 34.8321C31.2077 34.8226 31.269 34.8155 31.328 34.8006C31.4459 34.7738 31.5622 34.751 31.6731 34.7234C31.7823 34.6919 31.8892 34.6636 31.9906 34.6321C32.0905 34.5959 32.1864 34.5628 32.2767 34.5282C32.3648 34.4888 32.4505 34.455 32.5275 34.4164C32.6808 34.3392 32.8113 34.2621 32.9111 34.1889C32.9614 34.1526 33.0062 34.1196 33.0424 34.0881C33.0809 34.0582 33.11 34.0298 33.1336 34.0062C33.1815 33.9605 33.2027 33.9322 33.2027 33.9322Z" fill="url(#paint7_linear_49_281771)"/>
<path d="M29.1023 30.7356L28.9435 29.9397L28.7399 29.9822C27.8847 28.9335 25.7403 28.4651 23.3987 28.924C20.9925 29.3956 19.1485 30.6939 18.8199 32.026L18.6611 32.059L18.7971 32.7558C19.1021 34.3138 21.656 35.1255 24.5015 34.5673C27.3462 34.0091 29.4065 32.2936 29.1023 30.7356Z" fill="url(#paint8_linear_49_281771)"/>
<path d="M24.365 33.8707C21.5187 34.4281 18.9656 33.6172 18.6606 32.0591C18.3564 30.5011 20.4167 28.7856 23.2622 28.2282C26.1077 27.6708 28.6616 28.4817 28.9666 30.0397C29.2708 31.5978 27.2105 33.3133 24.365 33.8707Z" fill="url(#paint9_linear_49_281771)"/>
<path d="M23.3163 28.718C25.7986 28.2314 28.0271 28.8621 28.4115 30.1304C28.4076 30.0847 28.4013 30.0399 28.3926 29.995C28.1277 28.6393 25.8317 27.9472 23.2636 28.4503C20.6956 28.9534 18.8295 30.4611 19.0944 31.8168C19.103 31.8616 19.114 31.9057 19.1274 31.949C19.0071 30.6295 20.8339 29.2045 23.3163 28.718Z" fill="url(#paint10_linear_49_281771)"/>
<path d="M24.2228 33.3615C26.7051 32.875 28.5327 31.45 28.4109 30.1305C28.0265 28.8622 25.798 28.2324 23.3157 28.7182C20.8333 29.2047 19.0057 30.6296 19.1268 31.9491C19.5119 33.2175 21.7404 33.8481 24.2228 33.3615Z" fill="url(#paint11_linear_49_281771)"/>
<path opacity="0.6" d="M28.6689 31.4092C28.6689 31.4092 28.6571 31.4478 28.6233 31.5163C28.6068 31.5501 28.5863 31.5926 28.5573 31.6399C28.5431 31.6635 28.529 31.6903 28.5117 31.7162C28.4936 31.7422 28.4739 31.7698 28.4535 31.7989C28.3717 31.9154 28.2593 32.0469 28.1202 32.1886C28.0502 32.2595 27.9701 32.328 27.8883 32.4035C27.8034 32.4752 27.7083 32.5445 27.6124 32.62C27.5126 32.6909 27.4057 32.7594 27.2964 32.8326C27.1848 32.9027 27.0645 32.9657 26.9427 33.0357C26.883 33.0719 26.8177 33.1011 26.7533 33.1326C26.6888 33.1641 26.6236 33.1956 26.5567 33.227C26.4263 33.2948 26.2848 33.3451 26.1441 33.4034C26.0733 33.4317 26.0018 33.4601 25.9302 33.4892C25.8571 33.516 25.7833 33.5396 25.7094 33.5648C25.56 33.6128 25.4115 33.6687 25.2574 33.7112C25.1033 33.753 24.9477 33.7947 24.7913 33.8372L24.6741 33.8687C24.6348 33.8781 24.5947 33.886 24.5554 33.8947L24.3173 33.9458C24.1593 33.9789 24.0013 34.012 23.8433 34.045C23.6829 34.0765 23.5218 34.1001 23.363 34.119C23.0438 34.1568 22.7271 34.1671 22.4221 34.1608C22.1163 34.1553 21.8215 34.1253 21.5448 34.0805C21.2681 34.0356 21.0103 33.9718 20.7776 33.897C20.545 33.823 20.3367 33.7388 20.1598 33.6498C20.0694 33.6089 19.99 33.5609 19.9146 33.5215C19.8407 33.479 19.7739 33.4373 19.7125 33.401C19.5938 33.3223 19.5034 33.2577 19.4445 33.2105C19.3848 33.1641 19.3525 33.1397 19.3525 33.1397C19.3525 33.1397 19.3863 33.1617 19.45 33.2034C19.4822 33.2231 19.52 33.2507 19.5671 33.2782C19.6143 33.3058 19.6685 33.3381 19.729 33.3735C19.7911 33.4065 19.8595 33.4435 19.935 33.4821C20.0128 33.5168 20.0938 33.5593 20.1842 33.5947C20.3642 33.6719 20.5733 33.7427 20.8044 33.8073C21.2666 33.934 21.8247 34.0159 22.4236 34.0167C22.7231 34.0191 23.0328 33.9986 23.3441 33.9624C23.4998 33.9435 23.6562 33.9191 23.811 33.8876C23.9683 33.8545 24.1255 33.8199 24.2827 33.786L24.5185 33.7372C24.5578 33.7285 24.5971 33.7207 24.6364 33.712L24.752 33.6813C24.9068 33.6404 25.0601 33.6002 25.2134 33.5609C25.2904 33.5427 25.3643 33.5152 25.4382 33.4916C25.5129 33.468 25.5867 33.4443 25.6606 33.4215C25.7345 33.3979 25.8084 33.3758 25.8799 33.3506C25.9507 33.3239 26.0214 33.2971 26.0914 33.2696C26.2313 33.2152 26.3712 33.1672 26.5017 33.105C26.5677 33.0751 26.633 33.046 26.6974 33.0176C26.7619 32.9885 26.8264 32.9617 26.8861 32.9279C27.0071 32.8633 27.1266 32.8035 27.239 32.7389C27.3491 32.6712 27.4576 32.6074 27.5582 32.5429C27.6556 32.4728 27.75 32.4075 27.838 32.3421C27.9221 32.2721 28.0054 32.2099 28.0778 32.1437C28.2216 32.0123 28.3403 31.8887 28.4276 31.7792C28.4716 31.7241 28.5101 31.6745 28.54 31.6288C28.5722 31.5848 28.5966 31.5446 28.6146 31.5115C28.6539 31.447 28.6689 31.4092 28.6689 31.4092Z" fill="url(#paint12_linear_49_281771)"/>
<g filter="url(#filter1_d_49_281771)">
<path d="M21.489 25.4514H21.3327C21.2864 25.5498 21.2285 25.6453 21.1591 25.7378C21.0954 25.8247 21.0086 25.9028 20.8987 25.9722C20.7945 26.0417 20.6672 26.0966 20.5167 26.1372C20.3721 26.1777 20.1956 26.1979 19.9872 26.1979C19.721 26.1979 19.4722 26.1516 19.2407 26.059C19.015 25.9606 18.8154 25.8189 18.6417 25.6337C18.4739 25.4427 18.3408 25.2112 18.2424 24.9392C18.1498 24.6672 18.1035 24.3547 18.1035 24.0017V23.8455C18.1035 23.4983 18.1527 23.1887 18.2511 22.9167C18.3553 22.6447 18.4942 22.4161 18.6678 22.2309C18.8472 22.0399 19.0526 21.8953 19.2841 21.7969C19.5214 21.6985 19.7702 21.6493 20.0306 21.6493C20.3779 21.6493 20.6527 21.7159 20.8553 21.849C21.0578 21.9763 21.217 22.1586 21.3327 22.3958H21.489V21.4062H20.1348V20.4167H21.489V20H22.5827V20.4167H23.1035V21.4062H22.5827V26.0764H21.489V25.4514ZM20.3431 25.1562C20.6846 25.1562 20.9595 25.0492 21.1678 24.8351C21.3819 24.6152 21.489 24.3287 21.489 23.9757V23.8715C21.489 23.5185 21.3819 23.235 21.1678 23.0208C20.9595 22.8009 20.6846 22.691 20.3431 22.691C20.0017 22.691 19.7239 22.798 19.5098 23.0122C19.3015 23.2205 19.1973 23.5069 19.1973 23.8715V23.9757C19.1973 24.3403 19.3015 24.6296 19.5098 24.8437C19.7239 25.0521 20.0017 25.1562 20.3431 25.1562Z" fill="url(#paint13_linear_49_281771)"/>
<path d="M18.6406 26.7998H22.2575V27.5232H18.6406V26.7998Z" fill="url(#paint14_linear_49_281771)"/>
</g>
</g>
<defs>
<filter id="filter0_d_49_281771" x="0.278321" y="3.57143" width="41.5068" height="44.6558" filterUnits="userSpaceOnUse" color-interpolation-filters="sRGB">
<feFlood flood-opacity="0" result="BackgroundImageFix"/>
<feColorMatrix in="SourceAlpha" type="matrix" values="0 0 0 0 0 0 0 0 0 0 0 0 0 0 0 0 0 0 127 0" result="hardAlpha"/>
<feOffset dy="4.57143"/>
<feGaussianBlur stdDeviation="4"/>
<feComposite in2="hardAlpha" operator="out"/>
<feColorMatrix type="matrix" values="0 0 0 0 0.0706443 0 0 0 0 0.623333 0 0 0 0 0.557011 0 0 0 0.45 0"/>
<feBlend mode="normal" in2="BackgroundImageFix" result="effect1_dropShadow_49_281771"/>
<feBlend mode="normal" in="SourceGraphic" in2="effect1_dropShadow_49_281771" result="shape"/>
</filter>
<filter id="filter1_d_49_281771" x="14.1035" y="17" width="13" height="15.5234" filterUnits="userSpaceOnUse" color-interpolation-filters="sRGB">
<feFlood flood-opacity="0" result="BackgroundImageFix"/>
<feColorMatrix in="SourceAlpha" type="matrix" values="0 0 0 0 0 0 0 0 0 0 0 0 0 0 0 0 0 0 127 0" result="hardAlpha"/>
<feOffset dy="1"/>
<feGaussianBlur stdDeviation="2"/>
<feComposite in2="hardAlpha" operator="out"/>
<feColorMatrix type="matrix" values="0 0 0 0 0 0 0 0 0 0 0 0 0 0 0 0 0 0 0.25 0"/>
<feBlend mode="normal" in2="BackgroundImageFix" result="effect1_dropShadow_49_281771"/>
<feBlend mode="normal" in="SourceGraphic" in2="effect1_dropShadow_49_281771" result="shape"/>
</filter>
<linearGradient id="paint0_linear_49_281771" x1="20.3744" y1="12.8579" x2="20.3744" y2="34.4065" gradientUnits="userSpaceOnUse">
<stop stop-color="#3FE4A8"/>
<stop offset="1" stop-color="#0D8732"/>
</linearGradient>
<linearGradient id="paint1_linear_49_281771" x1="20.2422" y1="7" x2="20.2422" y2="12.044" gradientUnits="userSpaceOnUse">
<stop stop-color="#3FE4A8"/>
<stop offset="1" stop-color="#0D8732"/>
</linearGradient>
<linearGradient id="paint2_linear_49_281771" x1="20.2805" y1="18.5799" x2="20.2805" y2="11.8535" gradientUnits="userSpaceOnUse">
<stop stop-color="#D9D9D9"/>
<stop offset="0.5028" stop-color="#F2F2F2"/>
<stop offset="1" stop-color="white"/>
</linearGradient>
<linearGradient id="paint3_linear_49_281771" x1="29.1312" y1="30.5405" x2="29.1312" y2="35.6555" gradientUnits="userSpaceOnUse">
<stop stop-color="#3FE4A8"/>
<stop offset="1" stop-color="#0D8732"/>
</linearGradient>
<linearGradient id="paint4_linear_49_281771" x1="29.158" y1="29.9165" x2="29.158" y2="35.0316" gradientUnits="userSpaceOnUse">
<stop stop-color="#3FE4A8"/>
<stop offset="1" stop-color="#0D8732"/>
</linearGradient>
<linearGradient id="paint5_linear_49_281771" x1="29.133" y1="30.1069" x2="29.133" y2="32.7833" gradientUnits="userSpaceOnUse">
<stop stop-color="#3FE4A8"/>
<stop offset="1" stop-color="#0D8732"/>
</linearGradient>
<linearGradient id="paint6_linear_49_281771" x1="29.1226" y1="30.3481" x2="29.1226" y2="34.5623" gradientUnits="userSpaceOnUse">
<stop stop-color="#3FE4A8"/>
<stop offset="1" stop-color="#0D8732"/>
</linearGradient>
<linearGradient id="paint7_linear_49_281771" x1="29.0354" y1="35.0809" x2="29.0354" y2="33.1929" gradientUnits="userSpaceOnUse">
<stop stop-color="#D9D9D9"/>
<stop offset="0.5028" stop-color="#F2F2F2"/>
<stop offset="1" stop-color="white"/>
</linearGradient>
<linearGradient id="paint8_linear_49_281771" x1="23.8966" y1="28.748" x2="23.8966" y2="34.7436" gradientUnits="userSpaceOnUse">
<stop stop-color="#3FE4A8"/>
<stop offset="1" stop-color="#0D8732"/>
</linearGradient>
<linearGradient id="paint9_linear_49_281771" x1="23.8136" y1="28.0522" x2="23.8136" y2="34.0466" gradientUnits="userSpaceOnUse">
<stop stop-color="#3FE4A8"/>
<stop offset="1" stop-color="#0D8732"/>
</linearGradient>
<linearGradient id="paint10_linear_49_281771" x1="23.7404" y1="28.2861" x2="23.7404" y2="31.949" gradientUnits="userSpaceOnUse">
<stop stop-color="#3FE4A8"/>
<stop offset="1" stop-color="#0D8732"/>
</linearGradient>
<linearGradient id="paint11_linear_49_281771" x1="23.7689" y1="28.5542" x2="23.7689" y2="33.5258" gradientUnits="userSpaceOnUse">
<stop stop-color="#3FE4A8"/>
<stop offset="1" stop-color="#0D8732"/>
</linearGradient>
<linearGradient id="paint12_linear_49_281771" x1="24.0107" y1="34.1625" x2="24.0107" y2="31.4092" gradientUnits="userSpaceOnUse">
<stop stop-color="#D9D9D9"/>
<stop offset="0.5028" stop-color="#F2F2F2"/>
<stop offset="1" stop-color="white"/>
</linearGradient>
<linearGradient id="paint13_linear_49_281771" x1="20.6035" y1="26.1979" x2="20.6035" y2="20" gradientUnits="userSpaceOnUse">
<stop stop-color="#D9D9D9"/>
<stop offset="0.5028" stop-color="#F2F2F2"/>
<stop offset="1" stop-color="white"/>
</linearGradient>
<linearGradient id="paint14_linear_49_281771" x1="20.4491" y1="27.5232" x2="20.4491" y2="26.7998" gradientUnits="userSpaceOnUse">
<stop stop-color="#D9D9D9"/>
<stop offset="0.5028" stop-color="#F2F2F2"/>
<stop offset="1" stop-color="white"/>
</linearGradient>
</defs>
</svg>
