<svg width="42" height="42" viewBox="0 0 42 42" fill="none" xmlns="http://www.w3.org/2000/svg">
<g clip-path="url(#clip0_49_281872)">
<path d="M0 21C0 14.4768 0 11.2152 1.06569 8.64243C2.4866 5.21204 5.21204 2.4866 8.64243 1.06569C11.2152 0 14.4768 0 21 0C27.5232 0 30.7848 0 33.3576 1.06569C36.788 2.4866 39.5134 5.21204 40.9343 8.64243C42 11.2152 42 14.4768 42 21C42 27.5232 42 30.7848 40.9343 33.3576C39.5134 36.788 36.788 39.5134 33.3576 40.9343C30.7848 42 27.5232 42 21 42C14.4768 42 11.2152 42 8.64243 40.9343C5.21204 39.5134 2.4866 36.788 1.06569 33.3576C0 30.7848 0 27.5232 0 21Z" fill="#167B5E" fill-opacity="0.3"/>
<g filter="url(#filter0_d_49_281872)">
<path d="M18.2253 28.73C24.0553 30.31 30.0353 26.87 31.6153 21.04C33.1953 15.21 29.7553 9.23002 23.9253 7.65002C18.0953 6.07002 12.1153 9.51002 10.5353 15.34C8.95528 21.17 12.3953 27.15 18.2253 28.73Z" fill="#167B5E" fill-opacity="0.3"/>
<path d="M21.9554 20.3501H22.6954C22.9354 20.3501 23.1654 20.4301 23.3554 20.5801C23.7754 20.5201 24.1754 20.4101 24.5254 20.2601C24.6254 20.1101 24.7154 19.9501 24.7954 19.7801V18.1301C24.7954 17.7601 24.9354 17.4101 25.1654 17.1501C24.8254 15.1601 23.1254 13.6401 21.0754 13.6401C19.0254 13.6401 17.3354 15.1601 16.9854 17.1501C17.2154 17.4101 17.3554 17.7601 17.3554 18.1301V19.7801C18.0354 21.1801 19.4454 22.1401 21.0754 22.1401C21.1054 22.1401 21.1254 22.1401 21.1554 22.1401C20.9954 21.9501 20.8954 21.7101 20.8954 21.4401C20.8954 20.8401 21.3754 20.3501 21.9654 20.3501H21.9554Z" fill="url(#paint0_linear_49_281872)"/>
<path d="M15.4253 20.9402H15.4753C16.0353 20.9402 16.4853 20.5002 16.4853 19.9602V18.0102C16.4853 17.6302 16.2553 17.3002 15.9253 17.1402C16.0653 14.5002 18.3253 12.4002 21.0853 12.4002C23.8453 12.4002 26.0953 14.5002 26.2453 17.1402C25.9153 17.3002 25.6853 17.6302 25.6853 18.0102V19.9602C25.6853 20.0902 25.7153 20.2102 25.7553 20.3202C25.1653 20.7302 24.3153 21.0202 23.3553 21.1002C23.2453 20.9402 23.0653 20.8302 22.8453 20.8302H22.0453C21.7153 20.8302 21.4453 21.0902 21.4453 21.4102C21.4453 21.7302 21.7153 22.0002 22.0453 22.0002H22.8453C23.0753 22.0002 23.2753 21.8702 23.3753 21.6802C24.4953 21.5902 25.4653 21.2602 26.1453 20.7802C26.3053 20.8802 26.4853 20.9402 26.6853 20.9402H26.7353C27.2953 20.9402 27.7453 20.5002 27.7453 19.9602V18.0102C27.7453 17.6202 27.5153 17.2902 27.1753 17.1302C27.0253 14.0002 24.3553 11.4902 21.0953 11.4902C17.8353 11.4902 15.1553 14.0002 15.0153 17.1302C14.6753 17.2902 14.4453 17.6202 14.4453 18.0102V19.9602C14.4453 20.5002 14.8953 20.9402 15.4553 20.9402H15.4253Z" fill="url(#paint1_linear_49_281872)"/>
<path d="M28.5245 25.1399C25.9945 27.7599 22.1545 28.9599 18.3745 27.9399C16.4945 27.4299 14.8845 26.4299 13.6345 25.1299C13.0045 25.9699 12.6445 26.9899 12.6445 28.0499V29.7999C12.6445 31.0499 13.9745 31.1599 13.9745 31.1599H28.1845C28.1845 31.1599 29.5145 31.0599 29.5145 29.7999V28.0499C29.5145 26.9899 29.1545 25.9799 28.5245 25.1399Z" fill="url(#paint2_linear_49_281872)"/>
<path d="M15.345 26.3801L8.705 33.0201C8.085 33.6401 7.085 33.6401 6.465 33.0201C5.845 32.4001 5.845 31.4001 6.465 30.7801L13.105 24.1401" fill="url(#paint3_linear_49_281872)"/>
<path fill-rule="evenodd" clip-rule="evenodd" d="M18.6653 27.11C23.5853 28.44 28.6653 25.52 29.9953 20.6C31.3253 15.68 28.4053 10.6 23.4853 9.27002C18.5653 7.94002 13.4853 10.86 12.1553 15.78C10.8253 20.7 13.7453 25.78 18.6653 27.11ZM31.6153 21.04C30.0353 26.87 24.0553 30.31 18.2253 28.73C12.3953 27.15 8.95528 21.17 10.5353 15.34C12.1153 9.51002 18.0953 6.07002 23.9253 7.65002C29.7553 9.23002 33.1953 15.21 31.6153 21.04Z" fill="url(#paint4_linear_49_281872)"/>
<path fill-rule="evenodd" clip-rule="evenodd" d="M24.6249 22.8501H17.5249C16.7249 22.8501 15.9549 23.0701 15.2549 23.4401C16.2349 24.5201 17.5149 25.3501 19.0249 25.7601C21.9649 26.5601 24.9749 25.5601 26.8849 23.4401C26.1949 23.0701 25.4249 22.8501 24.6149 22.8501H24.6249Z" fill="url(#paint5_linear_49_281872)"/>
</g>
</g>
<defs>
<filter id="filter0_d_49_281872" x="-2" y="3.83754" width="41.999" height="42.2192" filterUnits="userSpaceOnUse" color-interpolation-filters="sRGB">
<feFlood flood-opacity="0" result="BackgroundImageFix"/>
<feColorMatrix in="SourceAlpha" type="matrix" values="0 0 0 0 0 0 0 0 0 0 0 0 0 0 0 0 0 0 127 0" result="hardAlpha"/>
<feOffset dy="4.57143"/>
<feGaussianBlur stdDeviation="4"/>
<feComposite in2="hardAlpha" operator="out"/>
<feColorMatrix type="matrix" values="0 0 0 0 0.0706443 0 0 0 0 0.623333 0 0 0 0 0.557011 0 0 0 0.45 0"/>
<feBlend mode="normal" in2="BackgroundImageFix" result="effect1_dropShadow_49_281872"/>
<feBlend mode="normal" in="SourceGraphic" in2="effect1_dropShadow_49_281872" result="shape"/>
</filter>
<linearGradient id="paint0_linear_49_281872" x1="21.0754" y1="22.1401" x2="21.0754" y2="13.6401" gradientUnits="userSpaceOnUse">
<stop stop-color="#D9D9D9"/>
<stop offset="0.5028" stop-color="#F2F2F2"/>
<stop offset="1" stop-color="white"/>
</linearGradient>
<linearGradient id="paint1_linear_49_281872" x1="21.0953" y1="22.0002" x2="21.0953" y2="11.4902" gradientUnits="userSpaceOnUse">
<stop stop-color="#D9D9D9"/>
<stop offset="0.5028" stop-color="#F2F2F2"/>
<stop offset="1" stop-color="white"/>
</linearGradient>
<linearGradient id="paint2_linear_49_281872" x1="21.0795" y1="31.1599" x2="21.0795" y2="25.1299" gradientUnits="userSpaceOnUse">
<stop stop-color="#D9D9D9"/>
<stop offset="0.5028" stop-color="#F2F2F2"/>
<stop offset="1" stop-color="white"/>
</linearGradient>
<linearGradient id="paint3_linear_49_281872" x1="10.6725" y1="24.1401" x2="10.6725" y2="33.4851" gradientUnits="userSpaceOnUse">
<stop stop-color="#3FE4A8"/>
<stop offset="1" stop-color="#0D8732"/>
</linearGradient>
<linearGradient id="paint4_linear_49_281872" x1="21.0753" y1="7.26611" x2="21.0753" y2="29.1139" gradientUnits="userSpaceOnUse">
<stop stop-color="#3FE4A8"/>
<stop offset="1" stop-color="#0D8732"/>
</linearGradient>
<linearGradient id="paint5_linear_49_281872" x1="21.0699" y1="26.0347" x2="21.0699" y2="22.8501" gradientUnits="userSpaceOnUse">
<stop stop-color="#D9D9D9"/>
<stop offset="0.5028" stop-color="#F2F2F2"/>
<stop offset="1" stop-color="white"/>
</linearGradient>
<clipPath id="clip0_49_281872">
<path d="M0 21C0 14.4768 0 11.2152 1.06569 8.64243C2.4866 5.21204 5.21204 2.4866 8.64243 1.06569C11.2152 0 14.4768 0 21 0C27.5232 0 30.7848 0 33.3576 1.06569C36.788 2.4866 39.5134 5.21204 40.9343 8.64243C42 11.2152 42 14.4768 42 21C42 27.5232 42 30.7848 40.9343 33.3576C39.5134 36.788 36.788 39.5134 33.3576 40.9343C30.7848 42 27.5232 42 21 42C14.4768 42 11.2152 42 8.64243 40.9343C5.21204 39.5134 2.4866 36.788 1.06569 33.3576C0 30.7848 0 27.5232 0 21Z" fill="white"/>
</clipPath>
</defs>
</svg>
