<svg width="20" height="21" viewBox="0 0 20 21" fill="none" xmlns="http://www.w3.org/2000/svg">
<path fill-rule="evenodd" clip-rule="evenodd" d="M8.82784 2.43171C9.56902 2.07745 10.4307 2.07745 11.1718 2.43171C11.4938 2.58561 11.7889 2.83728 12.1974 3.18574C12.2186 3.20383 12.2401 3.22218 12.262 3.24079C12.4604 3.40987 12.5229 3.46185 12.5861 3.50423C12.7469 3.61201 12.9275 3.68681 13.1174 3.72431C13.1921 3.73905 13.273 3.74647 13.5329 3.7672C13.5615 3.76949 13.5896 3.77172 13.6174 3.77393C14.1527 3.8164 14.5393 3.84708 14.8758 3.96594C15.6504 4.23953 16.2597 4.8488 16.5333 5.62339C16.6521 5.9599 16.6828 6.34649 16.7253 6.88177C16.7275 6.90955 16.7297 6.93774 16.732 6.96634C16.7527 7.22618 16.7601 7.30713 16.7749 7.3818C16.8124 7.57172 16.8872 7.75231 16.995 7.91311C17.0373 7.97634 17.0893 8.03882 17.2584 8.23722C17.277 8.25907 17.2954 8.28058 17.3135 8.30179C17.6619 8.71032 17.9136 9.00536 18.0675 9.32735C18.4217 10.0685 18.4217 10.9302 18.0675 11.6713C17.9136 11.9933 17.6619 12.2884 17.3135 12.6969C17.2954 12.7181 17.277 12.7396 17.2584 12.7615C17.0893 12.9599 17.0373 13.0224 16.995 13.0856C16.8872 13.2464 16.8124 13.427 16.7749 13.6169C16.7601 13.6916 16.7527 13.7725 16.732 14.0324C16.7297 14.061 16.7275 14.0891 16.7253 14.1169C16.6828 14.6522 16.6521 15.0388 16.5333 15.3753C16.2597 16.1499 15.6504 16.7592 14.8758 17.0328C14.5393 17.1516 14.1527 17.1823 13.6174 17.2248C13.5896 17.227 13.5615 17.2292 13.5329 17.2315C13.273 17.2522 13.1921 17.2597 13.1174 17.2744C12.9275 17.3119 12.7469 17.3867 12.5861 17.4945C12.5229 17.5368 12.4604 17.5888 12.262 17.7579C12.2401 17.7765 12.2186 17.7949 12.1974 17.813C11.7889 18.1614 11.4938 18.4131 11.1718 18.567C10.4307 18.9212 9.56902 18.9212 8.82784 18.567C8.50584 18.4131 8.2108 18.1614 7.80226 17.813C7.78105 17.7949 7.75954 17.7765 7.73771 17.7579C7.53931 17.5888 7.47683 17.5368 7.4136 17.4945C7.2528 17.3867 7.0722 17.3119 6.88228 17.2744C6.80761 17.2597 6.72667 17.2522 6.46683 17.2315C6.43823 17.2292 6.41004 17.227 6.38226 17.2248C5.84697 17.1823 5.46039 17.1516 5.12388 17.0328C4.34929 16.7592 3.74002 16.1499 3.46643 15.3753C3.34757 15.0388 3.31689 14.6522 3.27442 14.1169C3.27221 14.0891 3.26998 14.061 3.26769 14.0324C3.24696 13.7725 3.23954 13.6916 3.22479 13.6169C3.1873 13.427 3.11249 13.2464 3.00471 13.0856C2.96234 13.0224 2.91035 12.9599 2.74128 12.7615C2.72267 12.7396 2.70432 12.7181 2.68623 12.6969C2.33776 12.2884 2.0861 11.9933 1.9322 11.6713C1.57794 10.9302 1.57794 10.0685 1.9322 9.32735C2.0861 9.00536 2.33776 8.71031 2.68623 8.30178C2.70432 8.28057 2.72267 8.25906 2.74128 8.23722C2.91035 8.03882 2.96234 7.97634 3.00471 7.91311C3.11249 7.75231 3.1873 7.57172 3.22479 7.3818C3.23954 7.30713 3.24696 7.22619 3.26769 6.96634C3.26998 6.93774 3.27221 6.90955 3.27442 6.88177C3.31689 6.34649 3.34757 5.9599 3.46643 5.62339C3.74002 4.84881 4.34929 4.23953 5.12388 3.96594C5.46039 3.84708 5.84698 3.8164 6.38226 3.77393C6.41004 3.77172 6.43823 3.76949 6.46683 3.7672C6.72667 3.74647 6.80761 3.73905 6.88228 3.72431C7.0722 3.68681 7.2528 3.61201 7.4136 3.50423C7.47683 3.46185 7.53931 3.40986 7.73771 3.24079C7.75955 3.22218 7.78106 3.20383 7.80226 3.18574C8.2108 2.83727 8.50584 2.58561 8.82784 2.43171ZM10.6309 3.56343C10.2318 3.37267 9.76786 3.37267 9.36876 3.56343C9.21446 3.63718 9.05183 3.76895 8.5513 4.19549C8.54308 4.2025 8.53497 4.20941 8.52697 4.21623C8.36271 4.35627 8.2428 4.45849 8.11197 4.54618C7.81333 4.74634 7.47794 4.88527 7.12524 4.9549C6.97072 4.98541 6.81365 4.99791 6.59848 5.01504C6.58799 5.01587 6.57737 5.01672 6.56661 5.01758C5.91107 5.06989 5.70289 5.09172 5.54164 5.14867C5.12455 5.29599 4.79648 5.62406 4.64916 6.04115C4.59221 6.2024 4.57038 6.41058 4.51807 7.06612C4.51721 7.07688 4.51636 7.08751 4.51553 7.09799C4.4984 7.31316 4.48589 7.47023 4.45539 7.62475C4.38575 7.97745 4.24683 8.31284 4.04667 8.61148C3.95898 8.74232 3.85676 8.86222 3.71672 9.02648C3.70989 9.03449 3.70298 9.04259 3.69598 9.05081C3.26943 9.55134 3.13767 9.71398 3.06392 9.86827C2.87316 10.2674 2.87316 10.7313 3.06392 11.1304C3.13767 11.2847 3.26943 11.4474 3.69598 11.9479C3.70298 11.9561 3.7099 11.9642 3.71672 11.9722C3.85676 12.1365 3.95898 12.2564 4.04667 12.3872C4.24683 12.6859 4.38575 13.0212 4.45539 13.374C4.48589 13.5285 4.4984 13.6855 4.51553 13.9007C4.51636 13.9112 4.51721 13.9218 4.51807 13.9326C4.57038 14.5881 4.59221 14.7963 4.64916 14.9575C4.79648 15.3746 5.12455 15.7027 5.54164 15.85C5.70289 15.907 5.91107 15.9288 6.56661 15.9811L6.59847 15.9837C6.81365 16.0008 6.97072 16.0133 7.12524 16.0438C7.47794 16.1134 7.81333 16.2524 8.11197 16.4525C8.2428 16.5402 8.36271 16.6424 8.52697 16.7825L8.5513 16.8032C9.05183 17.2298 9.21446 17.3615 9.36876 17.4353C9.76786 17.626 10.2318 17.626 10.6309 17.4353C10.7852 17.3615 10.9479 17.2298 11.4484 16.8032L11.4727 16.7825C11.637 16.6424 11.7569 16.5402 11.8877 16.4525C12.1863 16.2524 12.5217 16.1134 12.8744 16.0438C13.029 16.0133 13.186 16.0008 13.4012 15.9837L13.4331 15.9811C14.0886 15.9288 14.2968 15.907 14.458 15.85C14.8751 15.7027 15.2032 15.3746 15.3505 14.9575C15.4075 14.7963 15.4293 14.5881 15.4816 13.9326L15.4842 13.9007C15.5013 13.6855 15.5138 13.5285 15.5443 13.374C15.6139 13.0212 15.7528 12.6859 15.953 12.3872C16.0407 12.2564 16.1429 12.1365 16.2829 11.9722L16.3037 11.9479C16.7302 11.4474 16.862 11.2847 16.9358 11.1304C17.1265 10.7313 17.1265 10.2674 16.9358 9.86827C16.862 9.71398 16.7302 9.55134 16.3037 9.05081L16.2829 9.02646C16.1429 8.86221 16.0407 8.74231 15.953 8.61148C15.7528 8.31284 15.6139 7.97745 15.5443 7.62475C15.5138 7.47023 15.5013 7.31316 15.4842 7.09798L15.4816 7.06612C15.4293 6.41058 15.4075 6.2024 15.3505 6.04115C15.2032 5.62406 14.8751 5.29599 14.458 5.14867C14.2968 5.09172 14.0886 5.06989 13.4331 5.01758C13.4223 5.01672 13.4117 5.01587 13.4012 5.01504C13.186 4.99791 13.029 4.98541 12.8744 4.9549C12.5217 4.88527 12.1863 4.74634 11.8877 4.54618C11.7569 4.45849 11.637 4.35627 11.4727 4.21623C11.4647 4.2094 11.4566 4.20249 11.4484 4.19549C10.9479 3.76895 10.7852 3.63718 10.6309 3.56343ZM13.3701 7.96529C13.6151 8.21022 13.6151 8.60732 13.3701 8.85225L9.18897 13.0334C8.94404 13.2783 8.54694 13.2783 8.30201 13.0334L6.62955 11.3609C6.38462 11.116 6.38462 10.7189 6.62955 10.474C6.87448 10.2291 7.27158 10.2291 7.51651 10.474L8.74549 11.703L12.4832 7.96529C12.7281 7.72037 13.1252 7.72037 13.3701 7.96529Z" fill="#858B93"/>
</svg>
