<svg width="96" height="96" viewBox="0 0 96 96" fill="none" xmlns="http://www.w3.org/2000/svg">
<g filter="url(#filter0_d_10603_24097)">
<rect x="40" y="36" width="16" height="16" rx="8" fill="#1AC795" fill-opacity="0.3"/>
<g filter="url(#filter1_d_10603_24097)">
<path d="M49.8502 45.4532L48.3918 46.9137C48.3271 46.9804 48.2914 47.0701 48.2926 47.163C48.2938 47.256 48.3318 47.3447 48.3982 47.4098C48.4646 47.4748 48.5541 47.5109 48.647 47.5102C48.74 47.5095 48.8289 47.472 48.8943 47.406L50.2666 46.0316C50.2858 46.0125 50.3085 45.9973 50.3334 45.987C50.3584 45.9766 50.3852 45.9713 50.4123 45.9713C50.4393 45.9713 50.4661 45.9766 50.4911 45.987C50.5161 45.9973 50.5388 46.0125 50.5579 46.0316C50.577 46.0507 50.5922 46.0735 50.6026 46.0984C50.6129 46.1234 50.6182 46.1502 50.6182 46.1773C50.6182 46.2043 50.6129 46.2311 50.6026 46.2561C50.5922 46.2811 50.577 46.3038 50.5579 46.3229L49.1794 47.7014C49.0501 47.8288 48.8797 47.9062 48.6986 47.9197C48.5176 47.9332 48.3376 47.882 48.1907 47.7752H46.5456C46.4985 47.7715 46.4511 47.7772 46.4063 47.7922C46.3615 47.8071 46.3201 47.8309 46.2847 47.8621C46.2492 47.8934 46.2204 47.9314 46.2 47.974C46.1795 48.0166 46.1679 48.0629 46.1657 48.1101C46.1635 48.1573 46.1708 48.2044 46.1872 48.2487C46.2036 48.293 46.2287 48.3336 46.2611 48.368C46.2935 48.4024 46.3324 48.4299 46.3757 48.449C46.4189 48.468 46.4655 48.4782 46.5128 48.4788H49.5569C49.7238 48.4783 49.8837 48.4119 50.002 48.2942L50.9866 47.3096C51.0576 47.2383 51.142 47.1818 51.2349 47.1434C51.3279 47.105 51.4276 47.0855 51.5282 47.086H52.2215V45.2686H50.2954C50.2126 45.2684 50.1307 45.2846 50.0543 45.3163C49.9779 45.3479 49.9085 45.3945 49.8502 45.4532Z" fill="white"/>
<path d="M53.1282 44.9917H52.8349C52.7833 44.9911 52.7334 45.0103 52.6956 45.0454C52.6578 45.0806 52.635 45.1289 52.6318 45.1804V47.1804C52.6368 47.2309 52.6604 47.2777 52.6979 47.3118C52.7354 47.3459 52.7842 47.3649 52.8349 47.365H53.1282C53.1826 47.3649 53.2347 47.3432 53.2731 47.3048C53.3115 47.2664 53.3332 47.2143 53.3334 47.1599V45.1968C53.3335 45.1699 53.3282 45.1432 53.318 45.1182C53.3077 45.0933 53.2926 45.0707 53.2735 45.0516C53.2544 45.0325 53.2318 45.0174 53.2069 45.0071C53.1819 44.9969 53.1552 44.9916 53.1282 44.9917Z" fill="#B5FACD"/>
<path d="M48.1047 46.6209L49.4776 45.2439V45.0812C49.4777 44.6645 49.3255 44.2622 49.0496 43.9499C48.7737 43.6377 48.3931 43.4372 47.9796 43.3861C47.9477 43.3819 47.9153 43.3853 47.885 43.396C47.8547 43.4067 47.8273 43.4244 47.8051 43.4477C47.5818 43.683 47.3129 43.8704 47.0148 43.9985C46.7166 44.1266 46.3956 44.1926 46.0711 44.1926C45.7467 44.1926 45.4256 44.1266 45.1275 43.9985C44.8294 43.8704 44.5605 43.683 44.3371 43.4477C44.3155 43.4243 44.2885 43.4065 44.2585 43.3958C44.2285 43.3851 44.1963 43.3818 44.1648 43.3861C43.7512 43.4372 43.3707 43.6377 43.0947 43.9499C42.8188 44.2622 42.6666 44.6645 42.6667 45.0812V46.7912C42.6667 46.8604 42.6804 46.929 42.7068 46.993C42.7333 47.057 42.7722 47.1152 42.8212 47.1641C42.8701 47.2131 42.9283 47.2519 42.9923 47.2784C43.0563 47.3049 43.1249 47.3186 43.1941 47.3185H47.8975C47.8702 47.1942 47.8748 47.065 47.9111 46.943C47.9473 46.8209 48.014 46.7101 48.1047 46.6209Z" fill="url(#paint0_linear_10603_24097)"/>
<path d="M46.0732 43.7824C46.466 43.782 46.8498 43.6652 47.1762 43.4466C47.5026 43.2281 47.7569 42.9177 47.9069 42.5547C48.057 42.1917 48.096 41.7924 48.0191 41.4072C47.9423 41.022 47.7529 40.6683 47.475 40.3907C47.1971 40.1131 46.8432 39.9241 46.4579 39.8476C46.0726 39.7711 45.6733 39.8106 45.3105 39.961C44.9476 40.1114 44.6375 40.366 44.4193 40.6926C44.2012 41.0192 44.0847 41.4032 44.0847 41.796C44.0851 42.323 44.2948 42.8284 44.6677 43.2008C45.0406 43.5733 45.5461 43.7825 46.0732 43.7824Z" fill="url(#paint1_linear_10603_24097)"/>
<path d="M46.2515 40.8338C46.2515 40.7341 46.1707 40.6533 46.0711 40.6533C45.9714 40.6533 45.8906 40.7341 45.8906 40.8338L45.8906 41.6157H45.1087C45.009 41.6157 44.9282 41.6965 44.9282 41.7962C44.9282 41.8958 45.009 41.9766 45.1087 41.9766H45.8906V42.7586C45.8906 42.8582 45.9714 42.939 46.0711 42.939C46.1707 42.939 46.2515 42.8582 46.2515 42.7586L46.2515 41.9766H47.0335C47.1331 41.9766 47.2139 41.8958 47.2139 41.7962C47.2139 41.6965 47.1331 41.6157 47.0335 41.6157H46.2515V40.8338Z" fill="white"/>
</g>
</g>
<defs>
<filter id="filter0_d_10603_24097" x="0" y="0" width="96" height="96" filterUnits="userSpaceOnUse" color-interpolation-filters="sRGB">
<feFlood flood-opacity="0" result="BackgroundImageFix"/>
<feColorMatrix in="SourceAlpha" type="matrix" values="0 0 0 0 0 0 0 0 0 0 0 0 0 0 0 0 0 0 127 0" result="hardAlpha"/>
<feOffset dy="4"/>
<feGaussianBlur stdDeviation="20"/>
<feColorMatrix type="matrix" values="0 0 0 0 0.511111 0 0 0 0 0.958333 0 0 0 0 0.636333 0 0 0 0.4 0"/>
<feBlend mode="normal" in2="BackgroundImageFix" result="effect1_dropShadow_10603_24097"/>
<feBlend mode="normal" in="SourceGraphic" in2="effect1_dropShadow_10603_24097" result="shape"/>
</filter>
<filter id="filter1_d_10603_24097" x="34.6667" y="36.381" width="26.6667" height="24.6694" filterUnits="userSpaceOnUse" color-interpolation-filters="sRGB">
<feFlood flood-opacity="0" result="BackgroundImageFix"/>
<feColorMatrix in="SourceAlpha" type="matrix" values="0 0 0 0 0 0 0 0 0 0 0 0 0 0 0 0 0 0 127 0" result="hardAlpha"/>
<feOffset dy="4.57143"/>
<feGaussianBlur stdDeviation="4"/>
<feComposite in2="hardAlpha" operator="out"/>
<feColorMatrix type="matrix" values="0 0 0 0 0.0176667 0 0 0 0 0.265 0 0 0 0 0.23532 0 0 0 0.45 0"/>
<feBlend mode="normal" in2="BackgroundImageFix" result="effect1_dropShadow_10603_24097"/>
<feBlend mode="normal" in="SourceGraphic" in2="effect1_dropShadow_10603_24097" result="shape"/>
</filter>
<linearGradient id="paint0_linear_10603_24097" x1="46.0722" y1="43.3843" x2="46.0722" y2="48.9596" gradientUnits="userSpaceOnUse">
<stop stop-color="#28FFB0"/>
<stop offset="1" stop-color="#0F9980"/>
</linearGradient>
<linearGradient id="paint1_linear_10603_24097" x1="46.0711" y1="39.8096" x2="46.0711" y2="45.4395" gradientUnits="userSpaceOnUse">
<stop stop-color="#28FFB0"/>
<stop offset="1" stop-color="#0F9980"/>
</linearGradient>
</defs>
</svg>
