<svg width="42" height="42" viewBox="0 0 42 42" fill="none" xmlns="http://www.w3.org/2000/svg">
<path d="M0 21C0 14.4768 0 11.2152 1.06569 8.64243C2.4866 5.21204 5.21204 2.4866 8.64243 1.06569C11.2152 0 14.4768 0 21 0C27.5232 0 30.7848 0 33.3576 1.06569C36.788 2.4866 39.5134 5.21204 40.9343 8.64243C42 11.2152 42 14.4768 42 21C42 27.5232 42 30.7848 40.9343 33.3576C39.5134 36.788 36.788 39.5134 33.3576 40.9343C30.7848 42 27.5232 42 21 42C14.4768 42 11.2152 42 8.64243 40.9343C5.21204 39.5134 2.4866 36.788 1.06569 33.3576C0 30.7848 0 27.5232 0 21Z" fill="#959595" fill-opacity="0.12"/>
<path d="M19.2203 16.7099H18.7203V16.8074C18.0442 17.0235 17.5603 17.6655 17.5603 18.4099C17.5603 18.4777 17.5645 18.5442 17.5724 18.6091C16.3396 18.3888 15.2955 17.5865 14.7203 16.4812V14.8099C14.7203 14.3716 14.5949 13.9597 14.355 13.612C14.7662 11.776 16.3689 10.4199 18.2603 10.4199C20.1531 10.4199 21.7568 11.778 22.1665 13.616C21.9358 13.9568 21.8003 14.3656 21.8003 14.8099V16.4813C21.7562 16.5684 21.7152 16.6465 21.6734 16.7178C21.4263 16.814 21.1497 16.8943 20.8614 16.9455C20.6078 16.7925 20.3199 16.7099 20.0203 16.7099H19.2203Z" stroke="#838383"/>
<path d="M12.1708 13.802L12.1525 14.1302L12.4464 14.2772C12.6592 14.3836 12.78 14.5729 12.78 14.78V16.89C12.78 17.1545 12.5835 17.3895 12.3032 17.44H12.13C11.7909 17.44 11.54 17.1788 11.54 16.88V14.77C11.54 14.558 11.6645 14.3682 11.8688 14.2743L12.1452 14.1473L12.1595 13.8435C12.2252 12.4478 12.7929 11.1741 13.6942 10.1922C12.8112 11.1631 12.2482 12.4186 12.1708 13.802ZM24.3294 13.8038C24.2836 12.9308 24.043 12.1091 23.6499 11.3776C24.0542 12.1223 24.2988 12.959 24.3406 13.8435L24.3549 14.1473L24.6313 14.2743C24.8356 14.3682 24.96 14.558 24.96 14.77V16.88C24.96 17.1788 24.7092 17.44 24.37 17.44H24.32C24.1937 17.44 24.0885 17.4064 24.0017 17.3502L23.8227 17.2344L23.7616 17.0877C23.734 17.0215 23.72 16.9566 23.72 16.89V14.78C23.72 14.566 23.8468 14.375 24.0435 14.2821L24.3469 14.1388L24.3294 13.8038ZM20.2916 18.4083L20.3229 18.4527L20.2919 18.509C20.2674 18.5536 20.2127 18.59 20.15 18.59H19.28C19.1808 18.59 19.13 18.5187 19.13 18.46C19.13 18.4013 19.1808 18.33 19.28 18.33H20.15C20.2013 18.33 20.2554 18.3571 20.2916 18.4083Z" stroke="#838383"/>
<path d="M20.2664 27.9377L20.2734 27.9466L20.2807 27.9552C20.2925 27.9689 20.3045 27.9829 20.3167 27.9969L20.2611 28.0659C20.0441 28.335 19.8922 28.6347 19.789 28.9398H10.116C10.1185 28.9398 10.1197 28.9397 10.1197 28.9396C10.1198 28.9386 10.0652 28.9339 9.9707 28.9118C9.85667 28.8852 9.71147 28.839 9.57169 28.7625C9.31036 28.6194 9.07031 28.3803 9.07031 27.8898V25.8798C9.07031 24.5321 9.60785 23.2294 10.5639 22.2733C11.5202 21.317 12.8131 20.7798 14.1703 20.7798H22.3203C22.9925 20.7798 23.6485 20.9258 24.2601 21.1861C24.1286 21.3682 24.0146 21.5663 23.9224 21.779C23.9068 21.8141 23.8926 21.8487 23.8794 21.8829C23.8458 21.8769 23.8127 21.8714 23.7803 21.8662C23.6199 21.8397 23.4755 21.8398 23.3705 21.8398L23.3603 21.8398C22.6837 21.8398 22.0086 22.0639 21.4711 22.4692C20.9739 22.837 20.6971 23.3121 20.3766 23.8623C20.364 23.884 20.3512 23.9059 20.3384 23.9278L20.3384 23.9278L20.3353 23.9333C20.317 23.9656 20.2988 23.9975 20.2808 24.0292C19.9767 24.5643 19.7154 25.0241 19.6348 25.6231L19.6346 25.6242C19.5271 26.4368 19.7534 27.2816 20.2664 27.9377Z" stroke="#838383"/>
<path fill-rule="evenodd" clip-rule="evenodd" d="M28.5602 21.81C28.3302 21.71 28.0302 21.71 27.4402 21.71C26.8502 21.71 26.5502 21.71 26.3202 21.81C26.0102 21.94 25.7602 22.18 25.6302 22.49C25.5702 22.63 25.5502 22.79 25.5402 23.03C25.5302 23.38 25.3502 23.7 25.0402 23.88C24.7302 24.06 24.3602 24.05 24.0502 23.88C23.8402 23.77 23.6802 23.71 23.5302 23.69C23.2002 23.65 22.8602 23.74 22.5902 23.94C22.3902 24.09 22.2402 24.35 21.9502 24.85C21.6502 25.36 21.5102 25.61 21.4702 25.86C21.4302 26.19 21.5202 26.52 21.7202 26.79C21.8102 26.91 21.9402 27.01 22.1502 27.14C22.4502 27.33 22.6402 27.64 22.6402 28C22.6402 28.36 22.4502 28.67 22.1502 28.86C21.9502 28.99 21.8202 29.09 21.7202 29.21C21.5202 29.47 21.4302 29.81 21.4702 30.14C21.5002 30.39 21.6502 30.64 21.9502 31.15C22.2502 31.66 22.3902 31.91 22.5902 32.06C22.8602 32.26 23.1902 32.35 23.5302 32.31C23.6802 32.29 23.8402 32.23 24.0502 32.12C24.3602 31.96 24.7402 31.95 25.0402 32.12C25.3502 32.3 25.5302 32.62 25.5402 32.97C25.5402 33.21 25.5702 33.37 25.6302 33.51C25.7602 33.82 26.0102 34.06 26.3202 34.19C26.5502 34.29 26.8502 34.29 27.4402 34.29C28.0302 34.29 28.3302 34.29 28.5602 34.19C28.8702 34.06 29.1202 33.82 29.2502 33.51C29.3102 33.37 29.3302 33.21 29.3402 32.97C29.3502 32.62 29.5302 32.3 29.8402 32.12C30.1502 31.94 30.5202 31.95 30.8302 32.12C31.0402 32.23 31.2002 32.29 31.3502 32.31C31.6802 32.35 32.0202 32.26 32.2902 32.06C32.4902 31.91 32.6402 31.65 32.9302 31.15C33.2302 30.64 33.3702 30.39 33.4102 30.14C33.4502 29.81 33.3602 29.48 33.1602 29.21C33.0702 29.09 32.9402 28.99 32.7302 28.86C32.4302 28.67 32.2402 28.36 32.2402 28C32.2402 27.65 32.4302 27.33 32.7302 27.14C32.9302 27.01 33.0602 26.91 33.1602 26.79C33.3602 26.53 33.4502 26.19 33.4102 25.86C33.3802 25.61 33.2302 25.36 32.9302 24.85C32.6302 24.34 32.4902 24.09 32.2902 23.94C32.0202 23.74 31.6902 23.65 31.3502 23.69C31.2002 23.71 31.0402 23.77 30.8302 23.88C30.5202 24.04 30.1402 24.05 29.8402 23.88C29.5302 23.7 29.3502 23.38 29.3402 23.03C29.3402 22.79 29.3102 22.63 29.2502 22.49C29.1202 22.18 28.8702 21.94 28.5602 21.81ZM27.4402 29.88C28.4902 29.88 29.3402 29.04 29.3402 27.99C29.3402 26.94 28.4902 26.1 27.4402 26.1C26.3902 26.1 25.5402 26.94 25.5402 27.99C25.5402 29.04 26.3902 29.88 27.4402 29.88Z" fill="#838383"/>
</svg>
