<svg width="42" height="42" viewBox="0 0 42 42" fill="none" xmlns="http://www.w3.org/2000/svg">
<path d="M0 21C0 14.4768 0 11.2152 1.06569 8.64243C2.4866 5.21204 5.21204 2.4866 8.64243 1.06569C11.2152 0 14.4768 0 21 0C27.5232 0 30.7848 0 33.3576 1.06569C36.788 2.4866 39.5134 5.21204 40.9343 8.64243C42 11.2152 42 14.4768 42 21C42 27.5232 42 30.7848 40.9343 33.3576C39.5134 36.788 36.788 39.5134 33.3576 40.9343C30.7848 42 27.5232 42 21 42C14.4768 42 11.2152 42 8.64243 40.9343C5.21204 39.5134 2.4866 36.788 1.06569 33.3576C0 30.7848 0 27.5232 0 21Z" fill="#1AC795" fill-opacity="0.3"/>
<path d="M33.41 18.6401C33.74 18.6401 34 18.3801 34 18.0501V15.6901C34 15.4801 33.89 15.2901 33.71 15.1801L22.14 8.31011C21.42 7.91011 20.61 7.90011 19.85 8.31011L8.29 15.1801C8.11 15.2901 8 15.4801 8 15.6901V18.0501C8 18.3801 8.26 18.6401 8.59 18.6401H10.36V29.2801C9.06 29.2801 8 30.3401 8 31.6401V33.4101C8 33.7401 8.26 34.0001 8.59 34.0001H33.41C33.74 34.0001 34 33.7401 34 33.4101V31.6401C34 30.3401 32.94 29.2801 31.64 29.2801V18.6401H33.41Z" fill="url(#paint0_linear_49_281795)"/>
<path d="M18.6398 18.6401H15.0898V29.2801H18.6398V18.6401Z" fill="url(#paint1_linear_49_281795)"/>
<path d="M26.9104 18.6401H23.3604V29.2801H26.9104V18.6401Z" fill="url(#paint2_linear_49_281795)"/>
<path d="M21.0005 17.1504C22.8064 17.1504 24.2705 15.6863 24.2705 13.8804C24.2705 12.0744 22.8064 10.6104 21.0005 10.6104C19.1945 10.6104 17.7305 12.0744 17.7305 13.8804C17.7305 15.6863 19.1945 17.1504 21.0005 17.1504Z" fill="url(#paint3_linear_49_281795)"/>
<path d="M21.3001 14.6499H21.2201C21.2001 14.6999 21.1701 14.7499 21.1301 14.7999C21.1001 14.8399 21.0501 14.8799 21.0001 14.9199C20.9501 14.9599 20.8801 14.9799 20.8101 14.9999C20.7401 15.0199 20.6501 15.0299 20.5401 15.0299C20.4001 15.0299 20.2801 15.0099 20.1601 14.9599C20.0401 14.9099 19.9401 14.8399 19.8501 14.7399C19.7601 14.6399 19.7001 14.5199 19.6501 14.3899C19.6001 14.2499 19.5801 14.0899 19.5801 13.9099V13.8299C19.5801 13.6499 19.6101 13.4999 19.6601 13.3599C19.7101 13.2199 19.7801 13.0999 19.8701 13.0099C19.9601 12.9099 20.0701 12.8399 20.1801 12.7899C20.3001 12.7399 20.4301 12.7099 20.5601 12.7099C20.7401 12.7099 20.8801 12.7399 20.9801 12.8099C21.0801 12.8699 21.1601 12.9699 21.2201 13.0899H21.3001V12.5899H20.6101V12.0899H21.3001V11.8799H21.8601V12.0899H22.1301V12.5899H21.8601V14.9699H21.3001V14.6499ZM20.7201 14.4999C20.8901 14.4999 21.0301 14.4499 21.1401 14.3399C21.2501 14.2299 21.3001 14.0799 21.3001 13.8999V13.8499C21.3001 13.6699 21.2501 13.5299 21.1401 13.4199C21.0301 13.3099 20.8901 13.2499 20.7201 13.2499C20.5501 13.2499 20.4001 13.2999 20.3001 13.4099C20.2001 13.5199 20.1401 13.6599 20.1401 13.8499V13.8999C20.1401 14.0899 20.1901 14.2299 20.3001 14.3399C20.4101 14.4499 20.5501 14.4999 20.7201 14.4999Z" fill="url(#paint4_linear_49_281795)"/>
<path d="M21.7599 15.5303H19.9199V15.9003H21.7599V15.5303Z" fill="url(#paint5_linear_49_281795)"/>
<defs>
<linearGradient id="paint0_linear_49_281795" x1="21" y1="4.23011" x2="21" y2="33.9301" gradientUnits="userSpaceOnUse">
<stop stop-color="#28FFB0"/>
<stop offset="1" stop-color="#0F9980"/>
</linearGradient>
<linearGradient id="paint1_linear_49_281795" x1="16.8598" y1="29.6201" x2="16.8598" y2="19.4201" gradientUnits="userSpaceOnUse">
<stop stop-color="#B3FFC7"/>
<stop offset="1" stop-color="white"/>
</linearGradient>
<linearGradient id="paint2_linear_49_281795" x1="25.1404" y1="29.6201" x2="25.1404" y2="19.4201" gradientUnits="userSpaceOnUse">
<stop stop-color="#B3FFC7"/>
<stop offset="1" stop-color="white"/>
</linearGradient>
<linearGradient id="paint3_linear_49_281795" x1="21.0005" y1="16.6504" x2="21.0005" y2="11.8004" gradientUnits="userSpaceOnUse">
<stop stop-color="#B3FFC7"/>
<stop offset="1" stop-color="white"/>
</linearGradient>
<linearGradient id="paint4_linear_49_281795" x1="20.8401" y1="21.0199" x2="20.8401" y2="12.8699" gradientUnits="userSpaceOnUse">
<stop stop-color="#28FFB0"/>
<stop offset="1" stop-color="#0F9980"/>
</linearGradient>
<linearGradient id="paint5_linear_49_281795" x1="20.8399" y1="21.0203" x2="20.8399" y2="12.8703" gradientUnits="userSpaceOnUse">
<stop stop-color="#28FFB0"/>
<stop offset="1" stop-color="#0F9980"/>
</linearGradient>
</defs>
</svg>
