<svg width="13" height="12" viewBox="0 0 13 12" fill="none" xmlns="http://www.w3.org/2000/svg">
<path fill-rule="evenodd" clip-rule="evenodd" d="M3.89888 1.63023C3.95867 1.06522 4.43672 0.625 5.01758 0.625H7.51758C8.09844 0.625 8.57648 1.06522 8.63628 1.63023C9.01782 1.638 9.34772 1.65773 9.6294 1.70947C10.0084 1.77909 10.3309 1.91171 10.5934 2.17418C10.8944 2.47513 11.0238 2.85407 11.0843 3.30412C11.1426 3.73761 11.1426 4.28877 11.1426 4.97257V8.02743C11.1426 8.71123 11.1426 9.26239 11.0843 9.69588C11.0238 10.1459 10.8944 10.5249 10.5934 10.8258C10.2924 11.1268 9.91351 11.2562 9.46345 11.3167C9.02997 11.375 8.47881 11.375 7.79501 11.375H4.74014C4.05635 11.375 3.50519 11.375 3.0717 11.3167C2.62165 11.2562 2.24271 11.1268 1.94175 10.8258C1.6408 10.5249 1.51135 10.1459 1.45084 9.69588C1.39256 9.26239 1.39257 8.71123 1.39258 8.02744V4.97256C1.39257 4.28877 1.39256 3.73761 1.45084 3.30412C1.51135 2.85407 1.6408 2.47513 1.94175 2.17417C2.20422 1.91171 2.52676 1.77909 2.90575 1.70947C3.18744 1.65773 3.51734 1.638 3.89888 1.63023ZM3.90006 2.38043C3.54097 2.3881 3.26426 2.40617 3.04125 2.44713C2.75785 2.49919 2.59381 2.58278 2.47208 2.7045C2.3337 2.84289 2.24348 3.03717 2.19415 3.40406C2.14338 3.78174 2.14258 4.28229 2.14258 5V8C2.14258 8.71771 2.14338 9.21826 2.19415 9.59594C2.24348 9.96283 2.3337 10.1571 2.47208 10.2955C2.61046 10.4339 2.80475 10.5241 3.17164 10.5734C3.54931 10.6242 4.04987 10.625 4.76758 10.625H7.76758C8.48529 10.625 8.98584 10.6242 9.36352 10.5734C9.7304 10.5241 9.92469 10.4339 10.0631 10.2955C10.2015 10.1571 10.2917 9.96283 10.341 9.59594C10.3918 9.21826 10.3926 8.71771 10.3926 8V5C10.3926 4.28229 10.3918 3.78174 10.341 3.40406C10.2917 3.03717 10.2015 2.84289 10.0631 2.7045C9.94135 2.58278 9.77731 2.49919 9.49391 2.44713C9.2709 2.40617 8.99419 2.3881 8.6351 2.38043C8.57046 2.94031 8.09478 3.375 7.51758 3.375H5.01758C4.44037 3.375 3.9647 2.94031 3.90006 2.38043ZM5.01758 1.375C4.81047 1.375 4.64258 1.54289 4.64258 1.75V2.25C4.64258 2.45711 4.81047 2.625 5.01758 2.625H7.51758C7.72468 2.625 7.89258 2.45711 7.89258 2.25V1.75C7.89258 1.54289 7.72468 1.375 7.51758 1.375H5.01758ZM3.39258 5.25C3.39258 5.04289 3.56047 4.875 3.76758 4.875H4.01758C4.22469 4.875 4.39258 5.04289 4.39258 5.25C4.39258 5.45711 4.22469 5.625 4.01758 5.625H3.76758C3.56047 5.625 3.39258 5.45711 3.39258 5.25ZM5.14258 5.25C5.14258 5.04289 5.31047 4.875 5.51758 4.875H8.76758C8.97468 4.875 9.14258 5.04289 9.14258 5.25C9.14258 5.45711 8.97468 5.625 8.76758 5.625H5.51758C5.31047 5.625 5.14258 5.45711 5.14258 5.25ZM3.39258 7C3.39258 6.79289 3.56047 6.625 3.76758 6.625H4.01758C4.22469 6.625 4.39258 6.79289 4.39258 7C4.39258 7.20711 4.22469 7.375 4.01758 7.375H3.76758C3.56047 7.375 3.39258 7.20711 3.39258 7ZM5.14258 7C5.14258 6.79289 5.31047 6.625 5.51758 6.625H8.76758C8.97468 6.625 9.14258 6.79289 9.14258 7C9.14258 7.20711 8.97468 7.375 8.76758 7.375H5.51758C5.31047 7.375 5.14258 7.20711 5.14258 7ZM3.39258 8.75C3.39258 8.54289 3.56047 8.375 3.76758 8.375H4.01758C4.22469 8.375 4.39258 8.54289 4.39258 8.75C4.39258 8.95711 4.22469 9.125 4.01758 9.125H3.76758C3.56047 9.125 3.39258 8.95711 3.39258 8.75ZM5.14258 8.75C5.14258 8.54289 5.31047 8.375 5.51758 8.375H8.76758C8.97468 8.375 9.14258 8.54289 9.14258 8.75C9.14258 8.95711 8.97468 9.125 8.76758 9.125H5.51758C5.31047 9.125 5.14258 8.95711 5.14258 8.75Z" fill="#1A1D1F"/>
</svg>
