<svg width="36" height="36" viewBox="0 0 36 36" fill="none" xmlns="http://www.w3.org/2000/svg">
<path fill-rule="evenodd" clip-rule="evenodd" d="M31.125 10.4997C31.125 11.121 30.6213 11.6247 30 11.6247L6 11.6247C5.37868 11.6247 4.875 11.121 4.875 10.4997C4.875 9.87837 5.37868 9.37469 6 9.37469L30 9.37469C30.6213 9.37469 31.125 9.87837 31.125 10.4997Z" fill="#858B93"/>
<path fill-rule="evenodd" clip-rule="evenodd" d="M31.125 17.9997C31.125 18.621 30.6213 19.1247 30 19.1247L6 19.1247C5.37868 19.1247 4.875 18.621 4.875 17.9997C4.875 17.3784 5.37868 16.8747 6 16.8747L30 16.8747C30.6213 16.8747 31.125 17.3784 31.125 17.9997Z" fill="#858B93"/>
<path fill-rule="evenodd" clip-rule="evenodd" d="M31.125 25.4997C31.125 26.121 30.6213 26.6247 30 26.6247L6 26.6247C5.37868 26.6247 4.875 26.121 4.875 25.4997C4.875 24.8784 5.37868 24.3747 6 24.3747L30 24.3747C30.6213 24.3747 31.125 24.8784 31.125 25.4997Z" fill="#858B93"/>
</svg>
