<svg width="42" height="42" viewBox="0 0 42 42" fill="none" xmlns="http://www.w3.org/2000/svg">
<path d="M0 21C0 14.4768 0 11.2152 1.06569 8.64243C2.4866 5.21204 5.21204 2.4866 8.64243 1.06569C11.2152 0 14.4768 0 21 0C27.5232 0 30.7848 0 33.3576 1.06569C36.788 2.4866 39.5134 5.21204 40.9343 8.64243C42 11.2152 42 14.4768 42 21C42 27.5232 42 30.7848 40.9343 33.3576C39.5134 36.788 36.788 39.5134 33.3576 40.9343C30.7848 42 27.5232 42 21 42C14.4768 42 11.2152 42 8.64243 40.9343C5.21204 39.5134 2.4866 36.788 1.06569 33.3576C0 30.7848 0 27.5232 0 21Z" fill="#959595" fill-opacity="0.12"/>
<path d="M21 8.5C24.3402 8.5 27.4816 9.803 29.8393 12.1607C32.197 14.5184 33.5 17.6598 33.5 21C33.5 24.3402 32.197 27.4816 29.8393 29.8393C27.4816 32.197 24.3402 33.5 21 33.5C17.6598 33.5 14.5184 32.197 12.1607 29.8393C9.803 27.4816 8.5 24.3402 8.5 21C8.5 17.6598 9.803 14.5184 12.1607 12.1607C14.5184 9.803 17.6598 8.5 21 8.5Z" stroke="#838383"/>
<path d="M21.7611 15.0571H20.2383V20.5821H21.7611V15.0571Z" fill="#838383"/>
<path d="M28.763 28.7723C28.7664 28.7723 28.7682 28.7764 28.7657 28.7789L28.3915 29.1531C28.3044 29.2402 28.1631 29.2402 28.076 29.1531L26.1077 27.1848C26.01 27.0871 26.01 26.9289 26.1077 26.8312L26.8312 26.1076C26.9289 26.01 27.0872 26.01 27.1848 26.1076L28.0145 26.9373C28.1176 27.0405 28.2871 27.0339 28.3786 26.9203C29.51 25.5151 30.2145 23.8268 30.4012 22.0299C30.4162 21.8853 30.3012 21.7616 30.1558 21.7616H28.9759C28.8378 21.7616 28.7259 21.6496 28.7259 21.5116V20.4887C28.7259 20.3506 28.8378 20.2387 28.9759 20.2387H30.1538C30.2999 20.2387 30.4152 20.1138 30.3991 19.9685C30.1957 18.1349 29.4703 16.4545 28.3692 15.0808C28.2778 14.9668 28.1081 14.9601 28.0048 15.0634L27.1755 15.8927C27.0779 15.9903 26.9196 15.9903 26.822 15.8927L26.0984 15.1691C26.0007 15.0714 26.0007 14.9131 26.0984 14.8155L26.9283 13.9856C27.0313 13.8825 27.0249 13.7132 26.9114 13.6218C25.545 12.5204 23.8642 11.7949 22.0224 11.5918C21.8772 11.5758 21.7523 11.691 21.7523 11.8371V13.0151C21.7523 13.1532 21.6404 13.2651 21.5023 13.2651H20.4794C20.3414 13.2651 20.2294 13.1532 20.2294 13.0151V11.8373C20.2294 11.6911 20.1045 11.5758 19.9592 11.5919C18.1256 11.7953 16.4453 12.5207 15.0715 13.6218C14.9575 13.7132 14.9508 13.8829 15.0541 13.9862L15.8834 14.8155C15.981 14.9131 15.981 15.0714 15.8834 15.1691L15.1598 15.8927C15.0622 15.9903 14.9039 15.9903 14.8062 15.8927L13.9764 15.0628C13.8733 14.9597 13.704 14.9661 13.6125 15.0796C12.5112 16.446 11.7857 18.1268 11.5825 19.9686C11.5665 20.1138 11.6818 20.2387 11.8279 20.2387H13.0059C13.1439 20.2387 13.2559 20.3506 13.2559 20.4887V21.5116C13.2559 21.6496 13.1439 21.7616 13.0059 21.7616H11.8272C11.6814 21.7616 11.5662 21.8861 11.5818 22.0311C11.7757 23.8275 12.4728 25.5154 13.6032 26.9203C13.6946 27.0339 13.8641 27.0405 13.9673 26.9373L14.797 26.1076C14.8946 26.01 15.0529 26.01 15.1505 26.1076L15.8741 26.8312C15.9717 26.9289 15.9717 27.0871 15.8741 27.1848L13.9248 29.1341C13.8272 29.2317 13.6689 29.2317 13.5712 29.1341L13.2094 28.7723C11.1387 26.7016 9.9873 23.9344 9.9873 21.0001C9.9873 18.0659 11.1294 15.308 13.2094 13.228C15.2802 11.1573 18.0473 10.0059 20.9816 10.0059C23.9159 10.0059 26.6737 11.148 28.7537 13.228C30.8244 15.2987 31.9759 18.0659 31.9759 21.0001C31.9759 23.9313 30.8361 26.6865 28.7603 28.7657C28.7579 28.7681 28.7596 28.7723 28.763 28.7723Z" fill="#838383"/>
<path d="M21.8854 28.4514H21.7292C21.6829 28.5498 21.625 28.6453 21.5556 28.7378C21.4919 28.8247 21.4051 28.9028 21.2951 28.9722C21.191 29.0417 21.0637 29.0966 20.9132 29.1372C20.7685 29.1777 20.592 29.1979 20.3837 29.1979C20.1175 29.1979 19.8686 29.1516 19.6372 29.059C19.4115 28.9606 19.2118 28.8189 19.0382 28.6337C18.8704 28.4427 18.7373 28.2112 18.6389 27.9392C18.5463 27.6672 18.5 27.3547 18.5 27.0017V26.8455C18.5 26.4983 18.5492 26.1887 18.6476 25.9167C18.7517 25.6447 18.8906 25.4161 19.0642 25.2309C19.2436 25.0399 19.4491 24.8953 19.6806 24.7969C19.9178 24.6985 20.1667 24.6493 20.4271 24.6493C20.7743 24.6493 21.0492 24.7159 21.2517 24.849C21.4543 24.9763 21.6134 25.1586 21.7292 25.3958H21.8854V24.4063H20.5312V23.4167H21.8854V23H22.9792V23.4167H23.5V24.4063H22.9792V29.0764H21.8854V28.4514ZM20.7396 28.1562C21.081 28.1562 21.3559 28.0492 21.5642 27.8351C21.7784 27.6152 21.8854 27.3287 21.8854 26.9757V26.8715C21.8854 26.5185 21.7784 26.235 21.5642 26.0208C21.3559 25.8009 21.081 25.691 20.7396 25.691C20.3981 25.691 20.1204 25.798 19.9062 26.0122C19.6979 26.2205 19.5937 26.5069 19.5937 26.8715V26.9757C19.5937 27.3403 19.6979 27.6296 19.9062 27.8438C20.1204 28.0521 20.3981 28.1562 20.7396 28.1562Z" fill="#838383"/>
<path d="M19.0361 29.7998H22.653V30.5232H19.0361V29.7998Z" fill="#838383"/>
</svg>
