<svg width="42" height="42" viewBox="0 0 42 42" fill="none" xmlns="http://www.w3.org/2000/svg">
<g clip-path="url(#clip0_10797_55911)">
<path d="M0 21C0 14.4768 0 11.2152 1.06569 8.64243C2.4866 5.21204 5.21204 2.4866 8.64243 1.06569C11.2152 0 14.4768 0 21 0C27.5232 0 30.7848 0 33.3576 1.06569C36.788 2.4866 39.5134 5.21204 40.9343 8.64243C42 11.2152 42 14.4768 42 21C42 27.5232 42 30.7848 40.9343 33.3576C39.5134 36.788 36.788 39.5134 33.3576 40.9343C30.7848 42 27.5232 42 21 42C14.4768 42 11.2152 42 8.64243 40.9343C5.21204 39.5134 2.4866 36.788 1.06569 33.3576C0 30.7848 0 27.5232 0 21Z" fill="#EEAD70" fill-opacity="0.3"/>
<g filter="url(#filter1_d_10797_55911)">
<path d="M30.1929 11.8071C27.7414 9.35571 24.4729 8 21 8C17.5271 8 14.2586 9.35571 11.8071 11.8071C9.35571 14.2586 8 17.5271 8 21C8 24.4729 9.35571 27.7414 11.8071 30.1929C14.2586 32.6443 17.5271 34 21 34C24.4729 34 27.7414 32.6443 30.1929 30.1929C32.6443 27.7414 34 24.4729 34 21C34 17.5271 32.6443 14.2586 30.1929 11.8071Z" fill="url(#paint0_linear_10797_55911)"/>
<path d="M21.7614 15.0571H20.2385V20.5821H21.7614V15.0571Z" fill="url(#paint1_linear_10797_55911)"/>
<path d="M28.7628 28.7723C28.7662 28.7723 28.7679 28.7764 28.7655 28.7789L28.3912 29.1531C28.3041 29.2402 28.1629 29.2402 28.0757 29.1531L26.1074 27.1848C26.0098 27.0871 26.0098 26.9289 26.1074 26.8312L26.831 26.1076C26.9286 26.01 27.0869 26.01 27.1845 26.1076L28.0142 26.9373C28.1174 27.0405 28.2869 27.0339 28.3784 26.9203C29.5097 25.5151 30.2142 23.8268 30.4009 22.0299C30.416 21.8853 30.3009 21.7616 30.1555 21.7616H28.9756C28.8376 21.7616 28.7256 21.6496 28.7256 21.5116V20.4887C28.7256 20.3506 28.8376 20.2387 28.9756 20.2387H30.1535C30.2997 20.2387 30.4149 20.1138 30.3988 19.9685C30.1955 18.1349 29.4701 16.4545 28.369 15.0808C28.2776 14.9668 28.1079 14.9601 28.0046 15.0634L27.1753 15.8927C27.0776 15.9903 26.9193 15.9903 26.8217 15.8927L26.0981 15.1691C26.0005 15.0714 26.0005 14.9131 26.0981 14.8155L26.928 13.9856C27.0311 13.8825 27.0246 13.7132 26.9111 13.6218C25.5447 12.5204 23.8639 11.7949 22.0222 11.5918C21.877 11.5758 21.7521 11.691 21.7521 11.8371V13.0151C21.7521 13.1532 21.6401 13.2651 21.5021 13.2651H20.4792C20.3411 13.2651 20.2292 13.1532 20.2292 13.0151V11.8373C20.2292 11.6911 20.1042 11.5758 19.959 11.5919C18.1254 11.7953 16.445 12.5207 15.0713 13.6218C14.9573 13.7132 14.9506 13.8829 15.0539 13.9862L15.8831 14.8155C15.9808 14.9131 15.9808 15.0714 15.8831 15.1691L15.1596 15.8927C15.0619 15.9903 14.9036 15.9903 14.806 15.8927L13.9761 15.0628C13.873 14.9597 13.7037 14.9661 13.6122 15.0796C12.5109 16.446 11.7854 18.1268 11.5823 19.9686C11.5663 20.1138 11.6815 20.2387 11.8276 20.2387H13.0056C13.1437 20.2387 13.2556 20.3506 13.2556 20.4887V21.5116C13.2556 21.6496 13.1437 21.7616 13.0056 21.7616H11.827C11.6811 21.7616 11.5659 21.8861 11.5816 22.0311C11.7755 23.8275 12.4725 25.5154 13.6029 26.9203C13.6944 27.0339 13.8639 27.0405 13.967 26.9373L14.7967 26.1076C14.8943 26.01 15.0526 26.01 15.1503 26.1076L15.8739 26.8312C15.9715 26.9289 15.9715 27.0871 15.8739 27.1848L13.9246 29.1341C13.8269 29.2317 13.6686 29.2317 13.571 29.1341L13.2092 28.7723C11.1385 26.7016 9.98706 23.9344 9.98706 21.0001C9.98706 18.0659 11.1292 15.308 13.2092 13.228C15.2799 11.1573 18.0471 10.0059 20.9813 10.0059C23.9156 10.0059 26.6735 11.148 28.7535 13.228C30.8242 15.2987 31.9756 18.0659 31.9756 21.0001C31.9756 23.9313 30.8359 26.6865 28.7601 28.7657C28.7576 28.7681 28.7593 28.7723 28.7628 28.7723Z" fill="url(#paint2_linear_10797_55911)"/>
</g>
<g filter="url(#filter2_d_10797_55911)">
<path d="M21.8854 28.4514H21.7292C21.6829 28.5498 21.625 28.6453 21.5556 28.7378C21.4919 28.8247 21.4051 28.9028 21.2951 28.9722C21.191 29.0417 21.0637 29.0966 20.9132 29.1372C20.7685 29.1777 20.592 29.1979 20.3837 29.1979C20.1175 29.1979 19.8686 29.1516 19.6372 29.059C19.4115 28.9606 19.2118 28.8189 19.0382 28.6337C18.8704 28.4427 18.7373 28.2112 18.6389 27.9392C18.5463 27.6672 18.5 27.3547 18.5 27.0017V26.8455C18.5 26.4983 18.5492 26.1887 18.6476 25.9167C18.7517 25.6447 18.8906 25.4161 19.0642 25.2309C19.2436 25.0399 19.4491 24.8953 19.6806 24.7969C19.9178 24.6985 20.1667 24.6493 20.4271 24.6493C20.7743 24.6493 21.0492 24.7159 21.2517 24.849C21.4543 24.9763 21.6134 25.1586 21.7292 25.3958H21.8854V24.4063H20.5312V23.4167H21.8854V23H22.9792V23.4167H23.5V24.4063H22.9792V29.0764H21.8854V28.4514ZM20.7396 28.1562C21.081 28.1562 21.3559 28.0492 21.5642 27.8351C21.7784 27.6152 21.8854 27.3287 21.8854 26.9757V26.8715C21.8854 26.5185 21.7784 26.235 21.5642 26.0208C21.3559 25.8009 21.081 25.691 20.7396 25.691C20.3981 25.691 20.1204 25.798 19.9062 26.0122C19.6979 26.2205 19.5937 26.5069 19.5937 26.8715V26.9757C19.5937 27.3403 19.6979 27.6296 19.9062 27.8438C20.1204 28.0521 20.3981 28.1562 20.7396 28.1562Z" fill="white"/>
<path d="M19.0366 29.7998H22.6535V30.5232H19.0366V29.7998Z" fill="white"/>
</g>
</g>
<defs>
<filter id="filter1_d_10797_55911" x="0" y="4.57" width="42" height="42" filterUnits="userSpaceOnUse" color-interpolation-filters="sRGB">
<feFlood flood-opacity="0" result="BackgroundImageFix"/>
<feColorMatrix in="SourceAlpha" type="matrix" values="0 0 0 0 0 0 0 0 0 0 0 0 0 0 0 0 0 0 127 0" result="hardAlpha"/>
<feOffset dy="4.57"/>
<feGaussianBlur stdDeviation="4"/>
<feComposite in2="hardAlpha" operator="out"/>
<feColorMatrix type="matrix" values="0 0 0 0 0.356863 0 0 0 0 0.223529 0 0 0 0 0.027451 0 0 0 0.45 0"/>
<feBlend mode="normal" in2="BackgroundImageFix" result="effect1_dropShadow_10797_55911"/>
<feBlend mode="normal" in="SourceGraphic" in2="effect1_dropShadow_10797_55911" result="shape"/>
</filter>
<filter id="filter2_d_10797_55911" x="17.5" y="23" width="7" height="9.52295" filterUnits="userSpaceOnUse" color-interpolation-filters="sRGB">
<feFlood flood-opacity="0" result="BackgroundImageFix"/>
<feColorMatrix in="SourceAlpha" type="matrix" values="0 0 0 0 0 0 0 0 0 0 0 0 0 0 0 0 0 0 127 0" result="hardAlpha"/>
<feOffset dy="1"/>
<feGaussianBlur stdDeviation="0.5"/>
<feComposite in2="hardAlpha" operator="out"/>
<feColorMatrix type="matrix" values="0 0 0 0 0 0 0 0 0 0 0 0 0 0 0 0 0 0 0.25 0"/>
<feBlend mode="normal" in2="BackgroundImageFix" result="effect1_dropShadow_10797_55911"/>
<feBlend mode="normal" in="SourceGraphic" in2="effect1_dropShadow_10797_55911" result="shape"/>
</filter>
<linearGradient id="paint0_linear_10797_55911" x1="21" y1="33.3964" x2="21" y2="10.7207" gradientUnits="userSpaceOnUse">
<stop stop-color="#FF8D3A"/>
<stop offset="1" stop-color="#FFC581"/>
</linearGradient>
<linearGradient id="paint1_linear_10797_55911" x1="21" y1="20.4521" x2="21" y2="15.6328" gradientUnits="userSpaceOnUse">
<stop stop-color="#FFDDBE"/>
<stop offset="1" stop-color="#FFF1FF"/>
</linearGradient>
<linearGradient id="paint2_linear_10797_55911" x1="20.9999" y1="28.8651" x2="20.9999" y2="12.0394" gradientUnits="userSpaceOnUse">
<stop stop-color="#FFDDBE"/>
<stop offset="1" stop-color="#FFF1FF"/>
</linearGradient>
<clipPath id="clip0_10797_55911">
<path d="M0 21C0 14.4768 0 11.2152 1.06569 8.64243C2.4866 5.21204 5.21204 2.4866 8.64243 1.06569C11.2152 0 14.4768 0 21 0C27.5232 0 30.7848 0 33.3576 1.06569C36.788 2.4866 39.5134 5.21204 40.9343 8.64243C42 11.2152 42 14.4768 42 21C42 27.5232 42 30.7848 40.9343 33.3576C39.5134 36.788 36.788 39.5134 33.3576 40.9343C30.7848 42 27.5232 42 21 42C14.4768 42 11.2152 42 8.64243 40.9343C5.21204 39.5134 2.4866 36.788 1.06569 33.3576C0 30.7848 0 27.5232 0 21Z" fill="white"/>
</clipPath>
</defs>
</svg>
