<svg width="65" height="65" viewBox="0 0 65 65" fill="none" xmlns="http://www.w3.org/2000/svg">
<path d="M43.2475 27.2482C44.0285 26.4672 44.0285 25.2008 43.2475 24.4198C42.4664 23.6387 41.2001 23.6387 40.419 24.4198L28.4999 36.3389L24.5808 32.4198C23.7998 31.6387 22.5334 31.6387 21.7524 32.4198C20.9713 33.2008 20.9713 34.4671 21.7524 35.2482L27.0857 40.5815C27.8668 41.3626 29.1331 41.3626 29.9141 40.5815L43.2475 27.2482Z" fill="#1AAF74"/>
<path fill-rule="evenodd" clip-rule="evenodd" d="M32.4999 3.83398C16.6678 3.83398 3.83325 16.6685 3.83325 32.5007C3.83325 48.3328 16.6678 61.1673 32.4999 61.1673C48.3321 61.1673 61.1666 48.3328 61.1666 32.5007C61.1666 16.6685 48.3321 3.83398 32.4999 3.83398ZM7.83325 32.5007C7.83325 18.8776 18.8769 7.83398 32.4999 7.83398C46.1229 7.83398 57.1666 18.8776 57.1666 32.5007C57.1666 46.1237 46.1229 57.1673 32.4999 57.1673C18.8769 57.1673 7.83325 46.1237 7.83325 32.5007Z" fill="#1AAF74"/>
</svg>
