<svg width="21" height="20" viewBox="0 0 21 20" fill="none" xmlns="http://www.w3.org/2000/svg">
<path fill-rule="evenodd" clip-rule="evenodd" d="M9.52352 1.66663C9.52352 1.32145 9.80334 1.04163 10.1485 1.04163C15.0961 1.04163 19.1069 5.05241 19.1069 9.99996C19.1069 14.9475 15.0961 18.9583 10.1485 18.9583C5.20097 18.9583 1.19019 14.9475 1.19019 9.99996C1.19019 9.65478 1.47001 9.37496 1.81519 9.37496C2.16036 9.37496 2.44019 9.65478 2.44019 9.99996C2.44019 14.2572 5.89132 17.7083 10.1485 17.7083C14.4057 17.7083 17.8569 14.2572 17.8569 9.99996C17.8569 5.74276 14.4057 2.29163 10.1485 2.29163C9.80334 2.29163 9.52352 2.0118 9.52352 1.66663ZM10.1485 6.87496C10.4937 6.87496 10.7735 7.15478 10.7735 7.49996V10.2083H13.4819C13.827 10.2083 14.1069 10.4881 14.1069 10.8333C14.1069 11.1785 13.827 11.4583 13.4819 11.4583H10.1485C9.80334 11.4583 9.52352 11.1785 9.52352 10.8333V7.49996C9.52352 7.15478 9.80334 6.87496 10.1485 6.87496Z" fill="#858B93"/>
<path fill-rule="evenodd" clip-rule="evenodd" d="M7.7315 1.99791C7.8558 2.31993 7.69553 2.68175 7.37351 2.80605C7.25565 2.85155 7.13918 2.89986 7.02418 2.95091C6.7087 3.09097 6.33941 2.94876 6.19935 2.63327C6.05929 2.31778 6.20151 1.94849 6.51699 1.80844C6.65075 1.74906 6.78623 1.69285 6.92336 1.63992C7.24537 1.51561 7.60719 1.67589 7.7315 1.99791ZM4.85494 3.53351C5.09299 3.78347 5.08334 4.17908 4.83338 4.41713C4.74199 4.50417 4.65273 4.59343 4.56569 4.68482C4.32764 4.93478 3.93203 4.94443 3.68207 4.70638C3.43211 4.46833 3.42246 4.07272 3.66051 3.82276C3.76157 3.71665 3.86521 3.61301 3.97132 3.51195C4.22128 3.2739 4.61689 3.28356 4.85494 3.53351ZM2.78183 6.05079C3.09732 6.19085 3.23953 6.56014 3.09947 6.87563C3.04842 6.99062 3.00011 7.10709 2.95461 7.22495C2.8303 7.54697 2.46849 7.70725 2.14647 7.58294C1.82445 7.45863 1.66417 7.09682 1.78848 6.7748C1.84141 6.63768 1.89761 6.50219 1.95699 6.36843C2.09705 6.05295 2.46634 5.91073 2.78183 6.05079Z" fill="#858B93"/>
</svg>
