<svg width="42" height="42" viewBox="0 0 42 42" fill="none" xmlns="http://www.w3.org/2000/svg">
<rect width="42" height="42" rx="14" fill="#FF79F4" fill-opacity="0.3"/>
<g clip-path="url(#clip0_10797_55921)">
<path d="M30.9 11.1C28.26 8.46 24.74 7 21 7C17.26 7 13.74 8.46 11.1 11.1C8.46 13.74 7 17.26 7 21C7 24.74 8.46 28.26 11.1 30.9C13.74 33.54 17.26 35 21 35C24.74 35 28.26 33.54 30.9 30.9C33.54 28.26 35 24.74 35 21C35 17.26 33.54 13.74 30.9 11.1Z" fill="url(#paint0_linear_10797_55921)"/>
<path d="M13.5901 28.9099C16.4901 31.4899 19.7101 31.7299 21.0001 31.7299C27.1501 31.7299 32.1601 26.7299 32.1601 20.5699C32.1601 14.4099 27.1501 9.41992 21.0001 9.41992C19.7201 9.41992 18.4701 9.62992 17.2801 10.0599C17.0201 10.1499 16.8401 10.3999 16.8401 10.6799V13.7199C16.8401 13.9499 16.9601 14.1599 17.1501 14.2799C17.3401 14.3999 17.5901 14.4099 17.7901 14.2999C18.7901 13.7899 19.8701 13.5299 20.9901 13.5299C24.8801 13.5299 28.0401 16.6899 28.0401 20.5799C28.0401 24.4699 24.8801 27.6299 20.9901 27.6299C19.3301 27.6299 17.7501 27.0599 16.4901 26.0099L17.6801 24.8199C17.8501 24.6499 17.9101 24.3999 17.8401 24.1699C17.7701 23.9399 17.5801 23.7699 17.3501 23.7199L10.6201 22.3199C10.4001 22.2799 10.1801 22.3399 10.0201 22.4999C9.96008 22.5599 9.92008 22.6199 9.89008 22.6799C9.83008 22.7999 9.83008 22.9099 9.83008 22.9899C9.83008 23.0299 9.83008 23.0599 9.84008 23.0799L11.2401 29.8099C11.2901 30.0499 11.4601 30.2299 11.6901 30.2999C11.9201 30.3699 12.1701 30.2999 12.3401 30.1399L13.5701 28.9099H13.5901Z" fill="url(#paint1_linear_10797_55921)"/>
<path d="M15.5599 11.8499H14.9899V11.4199H14.0799V11.8499H13.2999V12.5799H14.0799V13.3299C14.0199 13.2799 13.9799 13.2199 13.9199 13.1799C13.6199 12.9599 13.2499 12.8499 12.7999 12.8499C12.3499 12.8499 11.9799 12.9599 11.6599 13.1799C11.3399 13.3899 11.0899 13.6899 10.9199 14.0599C10.7499 14.4299 10.6599 14.8499 10.6599 15.3299C10.6599 15.8099 10.7499 16.2199 10.9199 16.5999C11.0899 16.9699 11.3399 17.2699 11.6499 17.4899C11.9699 17.7099 12.3499 17.8199 12.7799 17.8199C13.2099 17.8199 13.6099 17.7099 13.9099 17.4899C14.0099 17.4199 14.0899 17.3199 14.1799 17.2299V17.6899H14.9899V12.5899H15.5599V11.8599V11.8499ZM14.0499 16.1899C13.9599 16.4399 13.8299 16.6299 13.6399 16.7799C13.4499 16.9199 13.2099 16.9899 12.9099 16.9899C12.6099 16.9899 12.3799 16.9199 12.1899 16.7699C11.9999 16.6199 11.8599 16.4199 11.7599 16.1699C11.6699 15.9199 11.6199 15.6399 11.6199 15.3299C11.6199 15.0199 11.6699 14.7399 11.7599 14.4999C11.8599 14.2499 11.9999 14.0499 12.1899 13.8999C12.3799 13.7499 12.6299 13.6799 12.9299 13.6799C13.2099 13.6799 13.4499 13.7499 13.6299 13.8899C13.8199 14.0299 13.9499 14.2199 14.0399 14.4699C14.1299 14.7199 14.1699 15.0099 14.1699 15.3299C14.1699 15.6499 14.1299 15.9399 14.0399 16.1899H14.0499Z" fill="url(#paint2_linear_10797_55921)"/>
<path d="M14.8898 19.0698H11.2998V19.7598H14.8898V19.0698Z" fill="url(#paint3_linear_10797_55921)"/>
</g>
<defs>
<linearGradient id="paint0_linear_10797_55921" x1="21" y1="34.35" x2="21" y2="9.93" gradientUnits="userSpaceOnUse">
<stop stop-color="#A93AFF"/>
<stop offset="1" stop-color="#FF81FF"/>
</linearGradient>
<linearGradient id="paint1_linear_10797_55921" x1="17.9501" y1="31.3199" x2="24.1201" y2="13.7699" gradientUnits="userSpaceOnUse">
<stop stop-color="#FFBEF9"/>
<stop offset="1" stop-color="#FFF1FF"/>
</linearGradient>
<linearGradient id="paint2_linear_10797_55921" x1="8.65991" y1="28.0599" x2="14.8199" y2="10.4999" gradientUnits="userSpaceOnUse">
<stop stop-color="#FFBEF9"/>
<stop offset="1" stop-color="#FFF1FF"/>
</linearGradient>
<linearGradient id="paint3_linear_10797_55921" x1="9.9098" y1="28.4998" x2="16.0798" y2="10.9398" gradientUnits="userSpaceOnUse">
<stop stop-color="#FFBEF9"/>
<stop offset="1" stop-color="#FFF1FF"/>
</linearGradient>
<clipPath id="clip0_10797_55921">
<rect width="28" height="28" fill="white" transform="translate(7 7)"/>
</clipPath>
</defs>
</svg>
