<svg width="42" height="42" viewBox="0 0 42 42" fill="none" xmlns="http://www.w3.org/2000/svg">
<rect width="42" height="42" rx="14" fill="#959595" fill-opacity="0.12"/>
<path d="M28.0764 15.6011H23.6175H17.6325H13.2361C12.9912 15.6011 12.7562 15.6933 12.583 15.8574C12.4098 16.0215 12.3125 16.244 12.3125 16.4761C12.3125 16.7081 12.4098 16.9307 12.583 17.0948C12.7562 17.2589 12.9912 17.3511 13.2361 17.3511H29V16.4761C29 16.244 28.9027 16.0215 28.7295 15.8574C28.5563 15.6933 28.3213 15.6011 28.0764 15.6011Z" fill="#838383"/>
<path d="M29.7927 14.749C30.2322 15.1885 30.4792 15.7846 30.4792 16.4063C30.4792 17.3101 31.089 18.0107 31.6056 18.4791C31.7299 18.5918 31.8424 18.7181 31.9408 18.8563C32.2201 19.2488 32.3717 19.7178 32.375 20.1995V22.0938V23.625V25.375V26.25V27.125V27.5625V27.7813V29.6771C32.375 30.2987 32.1281 30.8948 31.6885 31.3344C31.249 31.7739 30.6529 32.0208 30.0312 32.0208H12.9688C12.3471 32.0208 11.751 31.7739 11.3115 31.3344C10.8719 30.8948 10.625 30.2987 10.625 29.6771V16.4063C10.625 15.7846 10.8719 15.1885 11.3115 14.749C11.751 14.3094 12.3471 14.0625 12.9688 14.0625H15.585H25.5192H28.1354C28.757 14.0625 29.3532 14.3094 29.7927 14.749Z" stroke="#838383"/>
<path d="M19.8786 16.2043C19.9668 16.2931 20.0716 16.3636 20.1871 16.4118C20.3026 16.4599 20.4265 16.4847 20.5517 16.4847C20.6768 16.4847 20.8007 16.4599 20.9162 16.4118C21.0317 16.3636 21.1366 16.2931 21.2247 16.2043L24.0684 13.3605C24.2 13.2272 24.2891 13.0579 24.3245 12.8741C24.3599 12.6902 24.3401 12.4999 24.2675 12.3273C24.1964 12.1542 24.0756 12.006 23.9204 11.9014C23.7652 11.7968 23.5826 11.7405 23.3954 11.7396H21.4996V7.94792C21.4996 7.69651 21.3997 7.45541 21.2219 7.27764C21.0442 7.09987 20.8031 7 20.5517 7C20.3003 7 20.0592 7.09987 19.8814 7.27764C19.7036 7.45541 19.6037 7.69651 19.6037 7.94792V11.7396H17.7079C17.5208 11.7405 17.3381 11.7968 17.1829 11.9014C17.0277 12.006 16.9069 12.1542 16.8358 12.3273C16.7632 12.4999 16.7434 12.6902 16.7788 12.8741C16.8143 13.0579 16.9034 13.2272 17.0349 13.3605L19.8786 16.2043Z" fill="#838383"/>
<path d="M32.875 21L33.75 21.875H32.875V21Z" fill="#838383"/>
<path fill-rule="evenodd" clip-rule="evenodd" d="M33.75 21.875C33.75 21.875 33.2984 21.875 32.875 21.875C32.5157 21.875 32.1767 21.875 32.151 21.875L32.137 21.875L29.6698 21.875C27.8606 21.875 26.3125 23.2991 26.3125 25.1563C26.3125 27.0134 27.8606 28.4375 29.6698 28.4375L32.137 28.4375L32.151 28.4375C32.207 28.4375 32.261 28.4376 32.3106 28.4344C33.0454 28.388 33.6954 27.813 33.75 27.0097C33.7536 26.957 33.7536 26.9003 33.7535 26.8476L33.7535 26.8334V23.4792L33.7535 23.4649C33.7536 23.4123 33.75 23.3028 33.75 23.3028V21.875ZM29.4751 26.0313C29.9409 26.0313 30.3185 25.6395 30.3185 25.1563C30.3185 24.673 29.9409 24.2813 29.4751 24.2813C29.0094 24.2813 28.6318 24.673 28.6318 25.1563C28.6318 25.6395 29.0094 26.0313 29.4751 26.0313Z" fill="#838383"/>
</svg>
