<svg width="12" height="12" viewBox="0 0 12 12" fill="none" xmlns="http://www.w3.org/2000/svg">
<path d="M6.32752 0.421875C5.98783 0.421875 5.71214 0.697567 5.71214 1.03726V5.34495H1.40445C1.06475 5.34495 0.789062 5.62064 0.789062 5.96034C0.789062 6.30003 1.06475 6.57572 1.40445 6.57572H5.71214V10.8834C5.71214 11.2231 5.98783 11.4988 6.32752 11.4988C6.66722 11.4988 6.94291 11.2231 6.94291 10.8834V6.57572H11.2506C11.5903 6.57572 11.866 6.30003 11.866 5.96034C11.866 5.62064 11.5903 5.34495 11.2506 5.34495H6.94291V1.03726C6.94291 0.697567 6.66722 0.421875 6.32752 0.421875Z" fill="#1AAF74"/>
</svg>
