<svg width="42" height="42" viewBox="0 0 42 42" fill="none" xmlns="http://www.w3.org/2000/svg">
<g clip-path="url(#clip0_10797_55841)">
<rect width="42" height="42" rx="14" fill="#EEAD70" fill-opacity="0.3"/>
<g filter="url(#filter1_d_10797_55841)">
<path d="M28.7492 6.125V8.47109H21.3664C17.3961 8.47109 14.1476 11.621 14 15.5422C15.3289 12.8187 18.1344 10.932 21.3664 10.932C23.6633 10.932 25.7304 11.8835 27.2399 13.393H28.7492V15.7391L35.3664 10.932L28.7492 6.125Z" fill="url(#paint0_linear_10797_55841)"/>
<path d="M13.2508 35.875V33.5289H20.6336C24.6039 33.5289 27.8524 30.379 28 26.4578C26.6711 29.1813 23.8656 31.068 20.6336 31.068C18.3367 31.068 16.2696 30.1165 14.7601 28.607H13.2508V26.2609L6.63359 31.068L13.2508 35.875Z" fill="url(#paint1_linear_10797_55841)"/>
<path d="M21 9.625C14.7279 9.625 9.625 14.7279 9.625 21C9.625 27.2721 14.7279 32.375 21 32.375C27.2721 32.375 32.375 27.2721 32.375 21C32.375 14.7279 27.2721 9.625 21 9.625Z" fill="url(#paint2_linear_10797_55841)"/>
<g filter="url(#filter2_d_10797_55841)">
<path d="M22.4381 23.1361H22.2221C22.1581 23.2721 22.0781 23.4041 21.9821 23.5321C21.8941 23.6521 21.7741 23.7601 21.6221 23.8561C21.4781 23.9521 21.3021 24.0281 21.0941 24.0841C20.8941 24.1401 20.6501 24.1681 20.3621 24.1681C19.9941 24.1681 19.6501 24.1041 19.3301 23.9761C19.0181 23.8401 18.7421 23.6441 18.5021 23.3881C18.2701 23.1241 18.0861 22.8041 17.9501 22.4281C17.8221 22.0521 17.7581 21.6201 17.7581 21.1321V20.9161C17.7581 20.4361 17.8261 20.0081 17.9621 19.6321C18.1061 19.2561 18.2981 18.9401 18.5381 18.6841C18.7861 18.4201 19.0701 18.2201 19.3901 18.0841C19.7181 17.9481 20.0621 17.8801 20.4221 17.8801C20.9021 17.8801 21.2821 17.9721 21.5621 18.1561C21.8421 18.3321 22.0621 18.5841 22.2221 18.9121H22.4381V17.5441H20.5661V16.1761H22.4381V15.6001H23.9501V16.1761H24.6701V17.5441H23.9501V24.0001H22.4381V23.1361ZM20.8541 22.7281C21.3261 22.7281 21.7061 22.5801 21.9941 22.2841C22.2901 21.9801 22.4381 21.5841 22.4381 21.0961V20.9521C22.4381 20.4641 22.2901 20.0721 21.9941 19.7761C21.7061 19.4721 21.3261 19.3201 20.8541 19.3201C20.3821 19.3201 19.9981 19.4681 19.7021 19.7641C19.4141 20.0521 19.2701 20.4481 19.2701 20.9521V21.0961C19.2701 21.6001 19.4141 22.0001 19.7021 22.2961C19.9981 22.5841 20.3821 22.7281 20.8541 22.7281Z" fill="white"/>
<path d="M18.5 25H23.5V26H18.5V25Z" fill="white"/>
</g>
<path d="M28.7493 8.47109V6.125L35.3665 10.932L28.7493 15.7391V13.393V8.47109Z" fill="url(#paint3_linear_10797_55841)"/>
<path d="M13.125 33.5289V35.875L6.50781 31.068L13.125 26.2609V28.607V33.5289Z" fill="url(#paint4_linear_10797_55841)"/>
</g>
</g>
<defs>
<filter id="filter1_d_10797_55841" x="-1.49219" y="2.69643" width="44.8586" height="45.75" filterUnits="userSpaceOnUse" color-interpolation-filters="sRGB">
<feFlood flood-opacity="0" result="BackgroundImageFix"/>
<feColorMatrix in="SourceAlpha" type="matrix" values="0 0 0 0 0 0 0 0 0 0 0 0 0 0 0 0 0 0 127 0" result="hardAlpha"/>
<feOffset dy="4.57143"/>
<feGaussianBlur stdDeviation="4"/>
<feComposite in2="hardAlpha" operator="out"/>
<feColorMatrix type="matrix" values="0 0 0 0 0.355 0 0 0 0 0.22436 0 0 0 0 0.0284001 0 0 0 0.45 0"/>
<feBlend mode="normal" in2="BackgroundImageFix" result="effect1_dropShadow_10797_55841"/>
<feBlend mode="normal" in="SourceGraphic" in2="effect1_dropShadow_10797_55841" result="shape"/>
</filter>
<filter id="filter2_d_10797_55841" x="16.7581" y="15.6001" width="8.91211" height="12.3999" filterUnits="userSpaceOnUse" color-interpolation-filters="sRGB">
<feFlood flood-opacity="0" result="BackgroundImageFix"/>
<feColorMatrix in="SourceAlpha" type="matrix" values="0 0 0 0 0 0 0 0 0 0 0 0 0 0 0 0 0 0 127 0" result="hardAlpha"/>
<feOffset dy="1"/>
<feGaussianBlur stdDeviation="0.5"/>
<feComposite in2="hardAlpha" operator="out"/>
<feColorMatrix type="matrix" values="0 0 0 0 0 0 0 0 0 0 0 0 0 0 0 0 0 0 0.25 0"/>
<feBlend mode="normal" in2="BackgroundImageFix" result="effect1_dropShadow_10797_55841"/>
<feBlend mode="normal" in="SourceGraphic" in2="effect1_dropShadow_10797_55841" result="shape"/>
</filter>
<linearGradient id="paint0_linear_10797_55841" x1="24.6832" y1="15.7391" x2="24.6832" y2="6.125" gradientUnits="userSpaceOnUse">
<stop stop-color="white"/>
<stop offset="1" stop-color="#FFEBD3"/>
</linearGradient>
<linearGradient id="paint1_linear_10797_55841" x1="17.3168" y1="26.2609" x2="17.3168" y2="35.875" gradientUnits="userSpaceOnUse">
<stop stop-color="white"/>
<stop offset="1" stop-color="#FFEBD3"/>
</linearGradient>
<linearGradient id="paint2_linear_10797_55841" x1="21" y1="32.375" x2="21" y2="9.625" gradientUnits="userSpaceOnUse">
<stop stop-color="#FF8D3A"/>
<stop offset="1" stop-color="#FFC581"/>
</linearGradient>
<linearGradient id="paint3_linear_10797_55841" x1="28.3665" y1="15.7391" x2="28.3665" y2="6.125" gradientUnits="userSpaceOnUse">
<stop stop-color="white"/>
<stop offset="1" stop-color="#FFEBD3"/>
</linearGradient>
<linearGradient id="paint4_linear_10797_55841" x1="13.5078" y1="26.2609" x2="13.5078" y2="35.875" gradientUnits="userSpaceOnUse">
<stop stop-color="white"/>
<stop offset="1" stop-color="#FFEBD3"/>
</linearGradient>
<clipPath id="clip0_10797_55841">
<rect width="42" height="42" rx="14" fill="white"/>
</clipPath>
</defs>
</svg>
