<svg width="64" height="65" viewBox="0 0 64 65" fill="none" xmlns="http://www.w3.org/2000/svg">
<path fill-rule="evenodd" clip-rule="evenodd" d="M14.5771 12.2122C15.3573 12.994 15.3561 14.2604 14.5742 15.0406C10.098 19.508 7.33203 25.6791 7.33203 32.5001C7.33203 39.4007 10.1631 45.6366 14.7321 50.1157C15.5209 50.889 15.5335 52.1552 14.7602 52.944C13.987 53.7328 12.7207 53.7454 11.9319 52.9721C6.62708 47.7717 3.33203 40.5189 3.33203 32.5001C3.33203 24.5742 6.55125 17.3964 11.7486 12.2094C12.5305 11.4291 13.7968 11.4304 14.5771 12.2122ZM49.6424 12.4052C50.4312 11.632 51.6975 11.6446 52.4707 12.4333C57.5377 17.602 60.6654 24.6878 60.6654 32.5001C60.6654 40.4053 57.4629 47.5663 52.2894 52.7501C51.5091 53.532 50.2428 53.5332 49.461 52.753C48.6792 51.9727 48.6779 50.7064 49.4582 49.9245C53.9138 45.46 56.6654 39.3033 56.6654 32.5001C56.6654 25.7766 53.978 19.6848 49.6143 15.2335C48.8411 14.4447 48.8537 13.1785 49.6424 12.4052Z" fill="#F34859"/>
<path fill-rule="evenodd" clip-rule="evenodd" d="M22.158 20.4655C22.9127 21.272 22.8707 22.5376 22.0642 23.2923C19.5338 25.6603 18 28.8992 18 32.4512C18 36.0445 19.5698 39.318 22.1535 41.6929C22.9667 42.4404 23.0199 43.7057 22.2724 44.5189C21.5249 45.3321 20.2597 45.3853 19.4465 44.6378C16.1058 41.567 14 37.2517 14 32.4512C14 27.7066 16.0573 23.4354 19.3311 20.3717C20.1376 19.617 21.4032 19.659 22.158 20.4655ZM41.981 20.5669C42.7445 19.7687 44.0105 19.7405 44.8087 20.504C48.0013 23.5577 50 27.7748 50 32.4512C50 37.1834 47.9535 41.4448 44.6945 44.5067C43.8895 45.2631 42.6238 45.2236 41.8675 44.4186C41.1111 43.6136 41.1506 42.3479 41.9556 41.5916C44.4742 39.2252 46 35.994 46 32.4512C46 28.9498 44.5097 25.7532 42.0439 23.3946C41.2456 22.6311 41.2175 21.3651 41.981 20.5669Z" fill="#F34859"/>
<path fill-rule="evenodd" clip-rule="evenodd" d="M32.0013 29.168C30.1604 29.168 28.668 30.6604 28.668 32.5013C28.668 34.3423 30.1604 35.8346 32.0013 35.8346C33.8423 35.8346 35.3346 34.3423 35.3346 32.5013C35.3346 30.6604 33.8423 29.168 32.0013 29.168ZM24.668 32.5013C24.668 28.4512 27.9512 25.168 32.0013 25.168C36.0514 25.168 39.3346 28.4512 39.3346 32.5013C39.3346 36.5514 36.0514 39.8346 32.0013 39.8346C27.9512 39.8346 24.668 36.5514 24.668 32.5013Z" fill="#F34859"/>
<path d="M36 49.851C36 51.5162 34.8054 52.4936 33.9366 53.2538C33.6109 53.5434 32.9955 54.0503 32.9955 54.2313C32.9955 54.9915 32.4163 55.5707 31.6561 55.5707C30.9321 55.5707 30.3167 54.9915 30.3167 54.2674C30.3167 52.8194 31.3665 51.9144 32.2353 51.2265C32.9231 50.6473 33.3575 50.2491 33.3575 49.8871C33.3575 49.1631 32.7421 48.5477 32.0181 48.5477C31.2941 48.5477 30.6787 49.1631 30.6787 49.8871C30.6787 50.6473 30.0634 51.2265 29.3394 51.2265C28.6154 51.2265 28 50.6111 28 49.8871C28 47.6788 29.81 45.8326 32.0543 45.8326C34.19 45.7964 36 47.6065 36 49.851Z" fill="#F34859"/>
<path d="M31.6547 56.8008C30.8946 56.8008 30.3516 57.4162 30.3516 58.1402C30.3516 58.9004 30.9307 59.4796 31.6547 59.4796C32.4149 59.4796 32.9941 58.8642 32.9941 58.1402C32.9941 57.4162 32.4149 56.8008 31.6547 56.8008Z" fill="#F34859"/>
</svg>
