<svg width="30" height="12" viewBox="0 0 30 12" fill="none" xmlns="http://www.w3.org/2000/svg">
<path d="M0 0H30L27.4804 9.07058C26.9995 10.8019 25.4232 12 23.6263 12H6.37368C4.57685 12 3.00052 10.8019 2.5196 9.07058L0 0Z" fill="#272B30"/>
<path d="M9.66659 2.66602C8.92992 2.66602 8.33325 3.26268 8.33325 3.99935C8.33325 4.73602 8.92992 5.33268 9.66659 5.33268C10.4033 5.33268 10.9999 4.73602 10.9999 3.99935C10.9999 3.26268 10.4033 2.66602 9.66659 2.66602ZM14.9999 2.66602C14.2633 2.66602 13.6666 3.26268 13.6666 3.99935C13.6666 4.73602 14.2633 5.33268 14.9999 5.33268C15.7366 5.33268 16.3333 4.73602 16.3333 3.99935C16.3333 3.26268 15.7366 2.66602 14.9999 2.66602ZM20.3333 2.66602C19.5966 2.66602 18.9999 3.26268 18.9999 3.99935C18.9999 4.73602 19.5966 5.33268 20.3333 5.33268C21.0699 5.33268 21.6666 4.73602 21.6666 3.99935C21.6666 3.26268 21.0699 2.66602 20.3333 2.66602Z" fill="#858B93"/>
<path d="M9.66659 6.66602C8.92992 6.66602 8.33325 7.26268 8.33325 7.99935C8.33325 8.73602 8.92992 9.33268 9.66659 9.33268C10.4033 9.33268 10.9999 8.73602 10.9999 7.99935C10.9999 7.26268 10.4033 6.66602 9.66659 6.66602ZM14.9999 6.66602C14.2633 6.66602 13.6666 7.26268 13.6666 7.99935C13.6666 8.73602 14.2633 9.33268 14.9999 9.33268C15.7366 9.33268 16.3333 8.73602 16.3333 7.99935C16.3333 7.26268 15.7366 6.66602 14.9999 6.66602ZM20.3333 6.66602C19.5966 6.66602 18.9999 7.26268 18.9999 7.99935C18.9999 8.73602 19.5966 9.33268 20.3333 9.33268C21.0699 9.33268 21.6666 8.73602 21.6666 7.99935C21.6666 7.26268 21.0699 6.66602 20.3333 6.66602Z" fill="white" fill-opacity="0.3"/>
</svg>
