<svg width="12" height="12" viewBox="0 0 12 12" fill="none" xmlns="http://www.w3.org/2000/svg">
<path fill-rule="evenodd" clip-rule="evenodd" d="M7.5 0.625H5.47179C4.55291 0.624992 3.8251 0.624986 3.25549 0.701568C2.66928 0.780382 2.1948 0.94644 1.82062 1.32062C1.44644 1.6948 1.28038 2.16928 1.20157 2.75549C1.12499 3.3251 1.12499 4.05291 1.125 4.97179V8C1.125 8.93612 1.81103 9.71202 2.70776 9.85236C2.77674 10.2344 2.90876 10.5604 3.17418 10.8258C3.47513 11.1268 3.85407 11.2562 4.30413 11.3167C4.73761 11.375 5.28877 11.375 5.97257 11.375H7.52744C8.21123 11.375 8.76239 11.375 9.19588 11.3167C9.64593 11.2562 10.0249 11.1268 10.3258 10.8258C10.6268 10.5249 10.7562 10.1459 10.8167 9.69588C10.875 9.26239 10.875 8.71123 10.875 8.02744V5.47257C10.875 4.78877 10.875 4.23761 10.8167 3.80413C10.7562 3.35407 10.6268 2.97513 10.3258 2.67418C10.0604 2.40876 9.73436 2.27674 9.35236 2.20776C9.21202 1.31103 8.43612 0.625 7.5 0.625ZM8.56467 2.13558C8.41326 1.69312 7.99378 1.375 7.5 1.375H5.5C4.54659 1.375 3.86926 1.3758 3.35542 1.44488C2.85238 1.51251 2.56256 1.63935 2.35095 1.85095C2.13935 2.06256 2.01251 2.35238 1.94488 2.85542C1.8758 3.36926 1.875 4.04659 1.875 5V8C1.875 8.49378 2.19312 8.91326 2.63558 9.06467C2.62499 8.75968 2.62499 8.41485 2.625 8.02744V5.47256C2.62499 4.78877 2.62498 4.23761 2.68326 3.80413C2.74377 3.35407 2.87322 2.97513 3.17418 2.67418C3.47513 2.37322 3.85407 2.24377 4.30413 2.18326C4.73761 2.12498 5.28877 2.12499 5.97256 2.125H7.52744C7.91485 2.12499 8.25969 2.12499 8.56467 2.13558ZM3.70451 3.20451C3.84289 3.06612 4.03717 2.9759 4.40406 2.92657C4.78174 2.8758 5.28229 2.875 6 2.875H7.5C8.21771 2.875 8.71827 2.8758 9.09594 2.92657C9.46283 2.9759 9.65711 3.06612 9.7955 3.20451C9.93388 3.34289 10.0241 3.53717 10.0734 3.90406C10.1242 4.28174 10.125 4.78229 10.125 5.5V8C10.125 8.71771 10.1242 9.21826 10.0734 9.59594C10.0241 9.96283 9.93388 10.1571 9.7955 10.2955C9.65711 10.4339 9.46283 10.5241 9.09594 10.5734C8.71827 10.6242 8.21771 10.625 7.5 10.625H6C5.28229 10.625 4.78174 10.6242 4.40406 10.5734C4.03717 10.5241 3.84289 10.4339 3.70451 10.2955C3.56612 10.1571 3.4759 9.96283 3.42657 9.59594C3.3758 9.21826 3.375 8.71771 3.375 8V5.5C3.375 4.78229 3.3758 4.28174 3.42657 3.90406C3.4759 3.53717 3.56612 3.34289 3.70451 3.20451Z" fill="#858B93"/>
<path d="M6.837 8.685V7.348H5.5V6.8335H6.837V5.5H7.3515V6.8335H8.685V7.348H7.3515V8.685H6.837Z" fill="#858B93"/>
</svg>
