<svg width="63" height="40" viewBox="0 0 63 40" fill="none" xmlns="http://www.w3.org/2000/svg">
<path d="M27.7822 0C29.9914 0 31.7822 1.79086 31.7822 4V7C31.7822 9.20914 29.9914 11 27.7822 11H4.78223C2.57309 11 0.782227 9.20914 0.782227 7V4C0.782227 1.79086 2.57309 0 4.78223 0H27.7822ZM5.2002 6.25391C4.41711 6.25391 3.78223 6.88877 3.78223 7.67188C3.78235 8.45487 4.41719 9.08984 5.2002 9.08984C5.98313 9.08975 6.61804 8.45482 6.61816 7.67188C6.61816 6.88883 5.9832 6.254 5.2002 6.25391ZM10.1631 6.6084C9.57576 6.6084 9.09961 7.08455 9.09961 7.67188C9.09974 8.25909 9.57584 8.73535 10.1631 8.73535H25.4053C25.9924 8.73526 26.4686 8.25904 26.4688 7.67188C26.4688 7.08461 25.9925 6.60849 25.4053 6.6084H10.1631ZM5.2002 2C4.41711 2 3.78223 2.63487 3.78223 3.41797C3.78228 4.20103 4.41714 4.83594 5.2002 4.83594C5.98317 4.83585 6.61811 4.20097 6.61816 3.41797C6.61816 2.63492 5.9832 2.00009 5.2002 2ZM10.1631 2.35449C9.57576 2.35449 9.09961 2.83064 9.09961 3.41797C9.09966 4.00525 9.57579 4.48145 10.1631 4.48145H29.3047C29.8918 4.48125 30.3681 4.00513 30.3682 3.41797C30.3682 2.83076 29.8918 2.35469 29.3047 2.35449H10.1631Z" fill="#858B93" fill-opacity="0.3"/>
<mask id="mask0_870_42971" style="mask-type:alpha" maskUnits="userSpaceOnUse" x="5" y="13" width="26" height="13">
<path d="M27.3594 15.5L28.8594 13H9.35938C8.19271 16.6667 5.85938 24.1 5.85938 24.5C5.85938 24.9 13.526 25.6667 17.3594 26H30.3594L27.8594 23L27.3594 15.5Z" fill="black"/>
</mask>
<g mask="url(#mask0_870_42971)">
<path d="M35.7822 14C37.9914 14 39.7822 15.7909 39.7822 18V21C39.7822 23.2091 37.9914 25 35.7822 25H12.7822C10.5731 25 8.78223 23.2091 8.78223 21V18C8.78223 15.7909 10.5731 14 12.7822 14H35.7822ZM13.2002 20.2539C12.4171 20.2539 11.7822 20.8888 11.7822 21.6719C11.7823 22.4549 12.4172 23.0898 13.2002 23.0898C13.9831 23.0898 14.618 22.4548 14.6182 21.6719C14.6182 20.8888 13.9832 20.254 13.2002 20.2539ZM18.1631 20.6084C17.5758 20.6084 17.0996 21.0845 17.0996 21.6719C17.0997 22.2591 17.5758 22.7354 18.1631 22.7354H33.4053C33.9924 22.7353 34.4686 22.259 34.4688 21.6719C34.4688 21.0846 33.9925 20.6085 33.4053 20.6084H18.1631ZM13.2002 16C12.4171 16 11.7822 16.6349 11.7822 17.418C11.7823 18.201 12.4171 18.8359 13.2002 18.8359C13.9832 18.8358 14.6181 18.201 14.6182 17.418C14.6182 16.6349 13.9832 16.0001 13.2002 16ZM18.1631 16.3545C17.5758 16.3545 17.0996 16.8306 17.0996 17.418C17.0997 18.0053 17.5758 18.4814 18.1631 18.4814H37.3047C37.8918 18.4812 38.3681 18.0051 38.3682 17.418C38.3682 16.8308 37.8918 16.3547 37.3047 16.3545H18.1631Z" fill="#858B93" fill-opacity="0.3"/>
</g>
<path d="M27.7822 28C29.9914 28 31.7822 29.7909 31.7822 32V35C31.7822 37.2091 29.9914 39 27.7822 39H4.78223C2.57309 39 0.782227 37.2091 0.782227 35V32C0.782227 29.7909 2.57309 28 4.78223 28H27.7822ZM5.2002 34.2539C4.41711 34.2539 3.78223 34.8888 3.78223 35.6719C3.78235 36.4549 4.41719 37.0898 5.2002 37.0898C5.98313 37.0898 6.61804 36.4548 6.61816 35.6719C6.61816 34.8888 5.9832 34.254 5.2002 34.2539ZM10.1631 34.6084C9.57576 34.6084 9.09961 35.0845 9.09961 35.6719C9.09974 36.2591 9.57584 36.7354 10.1631 36.7354H25.4053C25.9924 36.7353 26.4686 36.259 26.4688 35.6719C26.4688 35.0846 25.9925 34.6085 25.4053 34.6084H10.1631ZM5.2002 30C4.41711 30 3.78223 30.6349 3.78223 31.418C3.78228 32.201 4.41714 32.8359 5.2002 32.8359C5.98317 32.8358 6.61811 32.201 6.61816 31.418C6.61816 30.6349 5.9832 30.0001 5.2002 30ZM10.1631 30.3545C9.57576 30.3545 9.09961 30.8306 9.09961 31.418C9.09966 32.0053 9.57579 32.4814 10.1631 32.4814H29.3047C29.8918 32.4812 30.3681 32.0051 30.3682 31.418C30.3682 30.8308 29.8918 30.3547 29.3047 30.3545H10.1631Z" fill="#858B93" fill-opacity="0.3"/>
<mask id="mask1_870_42971" style="mask-type:alpha" maskUnits="userSpaceOnUse" x="28" y="5" width="26" height="26">
<ellipse cx="40.9354" cy="17.9015" rx="12.5839" ry="12.5841" fill="#D9D9D9"/>
</mask>
<g mask="url(#mask1_870_42971)">
<path d="M37.3848 12C40.6071 12.0001 43.2188 14.6126 43.2188 17.835V22.2109C43.2186 25.4331 40.6069 28.0448 37.3848 28.0449H3.83594C0.61369 28.0449 -1.99883 25.4331 -1.99902 22.2109V17.835C-1.99902 14.6126 0.613569 12 3.83594 12H37.3848ZM4.44531 21.1221C3.30312 21.1221 2.37705 22.0482 2.37695 23.1904C2.37713 24.3326 3.30317 25.2588 4.44531 25.2588C5.58732 25.2586 6.5135 24.3325 6.51367 23.1904C6.51358 22.0483 5.58737 21.1222 4.44531 21.1221ZM11.6846 21.6396C10.8279 21.6396 10.1329 22.3338 10.1328 23.1904C10.133 24.047 10.828 24.7422 11.6846 24.7422H33.917C34.7735 24.742 35.4686 24.0469 35.4688 23.1904C35.4687 22.3339 34.7735 21.6398 33.917 21.6396H11.6846ZM4.44531 14.917C3.30316 14.917 2.3771 15.8432 2.37695 16.9854C2.37703 18.1276 3.30311 19.0537 4.44531 19.0537C5.58738 19.0536 6.5136 18.1275 6.51367 16.9854C6.51352 15.8433 5.58733 14.9172 4.44531 14.917ZM11.6846 15.4346C10.828 15.4346 10.133 16.1288 10.1328 16.9854C10.1329 17.842 10.8279 18.5371 11.6846 18.5371H39.6055C40.4618 18.5368 41.1562 17.8418 41.1562 16.9854C41.1561 16.129 40.4618 15.4349 39.6055 15.4346H11.6846Z" fill="#858B93" fill-opacity="0.3"/>
</g>
<path d="M50.0385 32.3C48.8884 31.2368 48.8179 29.4427 49.881 28.2925C50.9441 27.1424 52.7382 27.0719 53.8883 28.1351L60.1355 33.9099C61.2856 34.9731 61.3561 36.7673 60.293 37.9174C59.2299 39.0675 57.4358 39.138 56.2857 38.0749L50.0385 32.3Z" fill="#858B93"/>
<path d="M46.4287 26.8965L48.3536 24.814L51.7375 27.9421C52.3126 28.4737 52.3478 29.3708 51.8163 29.9458L-nan -nanL51.8163 29.9458C51.2847 30.5209 50.3877 30.5561 49.8126 30.0246L46.4287 26.8965Z" fill="#272B30"/>
<path fill-rule="evenodd" clip-rule="evenodd" d="M38.8085 28.0043C44.3879 28.0043 48.911 23.4811 48.911 17.9015C48.911 12.3219 44.3879 7.79876 38.8085 7.79876C33.229 7.79876 28.7059 12.3219 28.7059 17.9015C28.7059 23.4811 33.229 28.0043 38.8085 28.0043ZM38.8085 30.4857C45.7583 30.4857 51.3923 24.8516 51.3923 17.9015C51.3923 10.9515 45.7583 5.31738 38.8085 5.31738C31.8586 5.31738 26.2246 10.9515 26.2246 17.9015C26.2246 24.8516 31.8586 30.4857 38.8085 30.4857Z" fill="#858B93"/>
</svg>
