<svg width="62" height="41" viewBox="0 0 62 41" fill="none" xmlns="http://www.w3.org/2000/svg">
<path d="M27.1485 0.5C29.3576 0.5 31.1485 2.29086 31.1485 4.5V7.5C31.1485 9.70914 29.3576 11.5 27.1485 11.5H4.1485C1.93936 11.5 0.148499 9.70914 0.148499 7.5V4.5C0.148499 2.29086 1.93936 0.5 4.1485 0.5H27.1485ZM4.56647 6.75391C3.78338 6.75391 3.1485 7.38877 3.1485 8.17188C3.14862 8.95487 3.78346 9.58984 4.56647 9.58984C5.3494 9.58975 5.98432 8.95482 5.98444 8.17188C5.98444 7.38883 5.34947 6.754 4.56647 6.75391ZM9.52936 7.1084C8.94203 7.1084 8.46588 7.58455 8.46588 8.17188C8.46601 8.75909 8.94211 9.23535 9.52936 9.23535H24.7715C25.3587 9.23526 25.8349 8.75904 25.835 8.17188C25.835 7.58461 25.3588 7.10849 24.7715 7.1084H9.52936ZM4.56647 2.5C3.78338 2.5 3.1485 3.13487 3.1485 3.91797C3.14855 4.70103 3.78341 5.33594 4.56647 5.33594C5.34944 5.33585 5.98439 4.70097 5.98444 3.91797C5.98444 3.13492 5.34947 2.50009 4.56647 2.5ZM9.52936 2.85449C8.94203 2.85449 8.46588 3.33064 8.46588 3.91797C8.46593 4.50525 8.94206 4.98145 9.52936 4.98145H28.671C29.2581 4.98125 29.7344 4.50513 29.7344 3.91797C29.7344 3.33076 29.2581 2.85469 28.671 2.85449H9.52936Z" fill="#858B93" fill-opacity="0.3"/>
<mask id="mask0_2046_478616" style="mask-type:alpha" maskUnits="userSpaceOnUse" x="5" y="13" width="25" height="14">
<path d="M26.7255 16L28.2255 13.5H8.72552C7.55886 17.1667 5.22552 24.6 5.22552 25C5.22552 25.4 12.8922 26.1667 16.7255 26.5H29.7255L27.2255 23.5L26.7255 16Z" fill="black"/>
</mask>
<g mask="url(#mask0_2046_478616)">
<path d="M35.1485 14.5C37.3576 14.5 39.1485 16.2909 39.1485 18.5V21.5C39.1485 23.7091 37.3576 25.5 35.1485 25.5H12.1485C9.93936 25.5 8.1485 23.7091 8.1485 21.5V18.5C8.1485 16.2909 9.93936 14.5 12.1485 14.5H35.1485ZM12.5665 20.7539C11.7834 20.7539 11.1485 21.3888 11.1485 22.1719C11.1486 22.9549 11.7835 23.5898 12.5665 23.5898C13.3494 23.5898 13.9843 22.9548 13.9844 22.1719C13.9844 21.3888 13.3495 20.754 12.5665 20.7539ZM17.5294 21.1084C16.942 21.1084 16.4659 21.5845 16.4659 22.1719C16.466 22.7591 16.9421 23.2354 17.5294 23.2354H32.7715C33.3587 23.2353 33.8349 22.759 33.835 22.1719C33.835 21.5846 33.3588 21.1085 32.7715 21.1084H17.5294ZM12.5665 16.5C11.7834 16.5 11.1485 17.1349 11.1485 17.918C11.1485 18.701 11.7834 19.3359 12.5665 19.3359C13.3494 19.3358 13.9844 18.701 13.9844 17.918C13.9844 17.1349 13.3495 16.5001 12.5665 16.5ZM17.5294 16.8545C16.942 16.8545 16.4659 17.3306 16.4659 17.918C16.4659 18.5053 16.9421 18.9814 17.5294 18.9814H36.671C37.2581 18.9812 37.7344 18.5051 37.7344 17.918C37.7344 17.3308 37.2581 16.8547 36.671 16.8545H17.5294Z" fill="#858B93" fill-opacity="0.3"/>
</g>
<path d="M27.1485 28.5C29.3576 28.5 31.1485 30.2909 31.1485 32.5V35.5C31.1485 37.7091 29.3576 39.5 27.1485 39.5H4.1485C1.93936 39.5 0.148499 37.7091 0.148499 35.5V32.5C0.148499 30.2909 1.93936 28.5 4.1485 28.5H27.1485ZM4.56647 34.7539C3.78338 34.7539 3.1485 35.3888 3.1485 36.1719C3.14862 36.9549 3.78346 37.5898 4.56647 37.5898C5.3494 37.5898 5.98432 36.9548 5.98444 36.1719C5.98444 35.3888 5.34947 34.754 4.56647 34.7539ZM9.52936 35.1084C8.94203 35.1084 8.46588 35.5845 8.46588 36.1719C8.46601 36.7591 8.94211 37.2354 9.52936 37.2354H24.7715C25.3587 37.2353 25.8349 36.759 25.835 36.1719C25.835 35.5846 25.3588 35.1085 24.7715 35.1084H9.52936ZM4.56647 30.5C3.78338 30.5 3.1485 31.1349 3.1485 31.918C3.14855 32.701 3.78341 33.3359 4.56647 33.3359C5.34944 33.3358 5.98439 32.701 5.98444 31.918C5.98444 31.1349 5.34947 30.5001 4.56647 30.5ZM9.52936 30.8545C8.94203 30.8545 8.46588 31.3306 8.46588 31.918C8.46593 32.5053 8.94206 32.9814 9.52936 32.9814H28.671C29.2581 32.9812 29.7344 32.5051 29.7344 31.918C29.7344 31.3308 29.2581 30.8547 28.671 30.8545H9.52936Z" fill="#858B93" fill-opacity="0.3"/>
<mask id="mask1_2046_478616" style="mask-type:alpha" maskUnits="userSpaceOnUse" x="27" y="5" width="26" height="26">
<ellipse cx="40.3012" cy="18.4015" rx="12.5839" ry="12.5841" fill="#D9D9D9"/>
</mask>
<g mask="url(#mask1_2046_478616)">
<path d="M36.7503 12.5C39.9726 12.5001 42.5843 15.1126 42.5843 18.335V22.7109C42.5841 25.9331 39.9725 28.5448 36.7503 28.5449H3.20148C-0.0207705 28.5449 -2.63329 25.9331 -2.63348 22.7109V18.335C-2.63348 15.1126 -0.0208912 12.5 3.20148 12.5H36.7503ZM3.81085 21.6221C2.66866 21.6221 1.74259 22.5482 1.74249 23.6904C1.74267 24.8326 2.66871 25.7588 3.81085 25.7588C4.95286 25.7586 5.87904 24.8325 5.87921 23.6904C5.87912 22.5483 4.95291 21.6222 3.81085 21.6221ZM11.0501 22.1396C10.1935 22.1396 9.49845 22.8338 9.49835 23.6904C9.49854 24.547 10.1935 25.2422 11.0501 25.2422H33.2825C34.139 25.242 34.8341 24.5469 34.8343 23.6904C34.8342 22.8339 34.1391 22.1398 33.2825 22.1396H11.0501ZM3.81085 15.417C2.6687 15.417 1.74264 16.3432 1.74249 17.4854C1.74257 18.6276 2.66865 19.5537 3.81085 19.5537C4.95292 19.5536 5.87914 18.6275 5.87921 17.4854C5.87906 16.3433 4.95287 15.4172 3.81085 15.417ZM11.0501 15.9346C10.1935 15.9346 9.4985 16.6288 9.49835 17.4854C9.49843 18.342 10.1935 19.0371 11.0501 19.0371H38.971C39.8274 19.0368 40.5217 18.3418 40.5218 17.4854C40.5216 16.629 39.8273 15.9349 38.971 15.9346H11.0501Z" fill="#858B93" fill-opacity="0.3"/>
</g>
<path d="M49.4051 32.8C48.255 31.7368 48.1845 29.9427 49.2476 28.7925C50.3107 27.6424 52.1049 27.5719 53.2549 28.6351L59.5022 34.4099C60.6523 35.4731 60.7228 37.2673 59.6597 38.4174C58.5966 39.5675 56.8024 39.638 55.6523 38.5749L49.4051 32.8Z" fill="#858B93"/>
<path d="M45.7949 27.3965L47.7198 25.314L51.1038 28.4421C51.6788 28.9737 51.7141 29.8708 51.1825 30.4458L-nan -nanL51.1825 30.4458C50.651 31.0209 49.7539 31.0561 49.1788 30.5246L45.7949 27.3965Z" fill="#EFEFEF"/>
<path fill-rule="evenodd" clip-rule="evenodd" d="M38.1743 28.5043C43.7538 28.5043 48.2768 23.9811 48.2768 18.4015C48.2768 12.8219 43.7538 8.29876 38.1743 8.29876C32.5948 8.29876 28.0718 12.8219 28.0718 18.4015C28.0718 23.9811 32.5948 28.5043 38.1743 28.5043ZM38.1743 30.9857C45.1242 30.9857 50.7582 25.3516 50.7582 18.4015C50.7582 11.4515 45.1242 5.81738 38.1743 5.81738C31.2244 5.81738 25.5905 11.4515 25.5905 18.4015C25.5905 25.3516 31.2244 30.9857 38.1743 30.9857Z" fill="#858B93"/>
</svg>
