<svg width="16" height="16" viewBox="0 0 16 16" fill="none" xmlns="http://www.w3.org/2000/svg">
<mask id="mask0_3193_176870" style="mask-type:luminance" maskUnits="userSpaceOnUse" x="0" y="0" width="16" height="16">
<path d="M7.99323 0C4.40263 0 1.13775 2.43514 0.236349 6.07792C-0.825476 10.366 1.7904 14.7024 6.07821 15.763C10.3668 16.8244 14.7025 14.2089 15.7639 9.92082C16.8249 5.6327 14.2102 1.29717 9.92161 0.236181C9.27625 0.0765664 8.63008 0 7.99363 0H7.99323Z" fill="white"/>
</mask>
<g mask="url(#mask0_3193_176870)">
<path d="M16.8261 0H-0.824219V16.8244H16.8261V0Z" fill="url(#paint0_radial_3193_176870)"/>
</g>
<path d="M0.236349 6.0784C1.29736 1.78946 5.63379 -0.82514 9.92161 0.236257C14.2102 1.29684 16.8249 5.63277 15.7639 9.9209C14.7025 14.209 10.3668 16.8244 6.07821 15.763C1.7904 14.702 -0.825476 10.3661 0.236349 6.0784Z" fill="#223C72"/>
<path d="M13.6738 2.36044L10.4575 4.5043V0.388754C10.2821 0.332443 10.1034 0.280993 9.92151 0.236026C8.41243 -0.137489 6.89768 -0.0552508 5.52148 0.39483V4.50471L2.31777 2.36935C1.58409 3.10828 0.988159 3.99791 0.583036 5.00543L1.43136 5.57096H0.38007C0.327404 5.73706 0.278789 5.90599 0.236252 6.07776C-0.140107 7.59734 -0.0542209 9.123 0.404377 10.5069H1.45243L0.613015 11.0663C1.02016 12.0443 1.61853 12.9359 2.37368 13.6846L5.52148 11.5865V15.6028C5.70378 15.6619 5.88933 15.7154 6.07852 15.762C7.5799 16.1339 9.08696 16.0541 10.4575 15.6101V11.5861L13.6178 13.6923C14.36 12.9614 14.9665 12.0787 15.383 11.0769L14.5261 10.5056H15.5948C15.658 10.314 15.7144 10.1184 15.7638 9.91905C16.1324 8.42863 16.0567 6.93215 15.6216 5.56975H14.5476L15.4125 4.99327C15.0135 4.01249 14.4228 3.11517 13.6738 2.36044Z" fill="#EFEBE7"/>
<path d="M4.29055 5.57325L1.3206 3.59791C1.1229 3.8977 0.94424 4.21247 0.786647 4.54183L2.33705 5.57325H4.29055ZM14.6657 3.58252C14.4664 3.28112 14.246 2.99349 14.007 2.72084L10.4569 5.08184V5.57365H11.6727L14.6657 3.58252ZM1.34247 12.4347C1.54261 12.7352 1.7634 13.0225 2.00282 13.2943L5.5205 10.9548V10.5087H4.23829L1.34247 12.4347ZM15.8758 6.60102H9.42871V0.132575C8.45156 -0.0456751 7.47846 -0.037978 6.5487 0.134195V6.60102H0.125487C-0.0495254 7.57815 -0.0377768 8.55083 0.137641 9.47976H6.54911V15.866C7.52626 16.047 8.49936 16.0418 9.42912 15.872V9.47976H15.8596C16.044 8.50384 16.0415 7.53116 15.8758 6.60102ZM11.7412 10.5091L14.6516 12.4448C14.8509 12.1462 15.0311 11.8322 15.1908 11.5041L13.6947 10.5091H11.7412Z" fill="#EF3827"/>
<path d="M10.457 1.22266V1.22306V1.7412C10.4886 1.64276 10.5048 1.54958 10.5052 1.46208C10.5052 1.3766 10.4894 1.29639 10.457 1.22266Z" fill="#303F66"/>
<defs>
<radialGradient id="paint0_radial_3193_176870" cx="0" cy="0" r="1" gradientUnits="userSpaceOnUse" gradientTransform="translate(8.00093 8.0001) scale(7.99986 7.99968)">
<stop stop-color="white"/>
<stop offset="0.7809" stop-color="white"/>
<stop offset="0.8218" stop-color="#F6F4F1"/>
<stop offset="0.8832" stop-color="#E5DED9"/>
<stop offset="0.9571" stop-color="#C9C0B7"/>
<stop offset="1" stop-color="#B6ABA1"/>
</radialGradient>
</defs>
</svg>
