<svg width="16" height="20" viewBox="0 0 16 20" fill="none" xmlns="http://www.w3.org/2000/svg">
<path fill-rule="evenodd" clip-rule="evenodd" d="M3.12051 0H9.81393L15.4782 5.91241V17.3942C15.4782 18.8321 14.3176 20 12.8796 20H3.12051C1.68985 20 0.521973 18.8321 0.521973 17.3942V2.59853C0.521947 1.16788 1.68985 0 3.12051 0Z" fill="#1AAF74"/>
<path opacity="0.302" fill-rule="evenodd" clip-rule="evenodd" d="M9.80664 0V5.86131H15.4782L9.80664 0Z" fill="white"/>
<path d="M6.74074 14.5621H5.76994L5.10572 13.4454L4.44148 14.5621H3.46338L4.61667 12.6205L3.60209 10.9344H4.58016L5.1057 11.8103L5.62393 10.9344H6.60203L5.59472 12.6278L6.74074 14.5621ZM7.0838 14.5621V10.9344H8.01081V13.7738H9.58745V14.5621H7.0838V14.5621ZM11.1203 14.6059C10.7553 14.6059 10.4342 14.4891 10.1568 14.2629C9.88672 14.0439 9.73346 13.7665 9.71155 13.4381L10.5072 13.2045C10.5291 13.3797 10.6021 13.533 10.7262 13.6497C10.8575 13.7665 11.0035 13.8249 11.1641 13.8249C11.2955 13.8249 11.405 13.7957 11.4926 13.7373C11.5729 13.6789 11.6167 13.5987 11.6167 13.5038C11.6167 13.4235 11.5802 13.3578 11.5145 13.2994C11.4488 13.2483 11.3612 13.2045 11.259 13.168C11.1568 13.1315 11.0327 13.095 10.9086 13.0658C10.7772 13.0293 10.6458 12.9855 10.5218 12.9271C10.3904 12.876 10.2736 12.8103 10.1714 12.7301C10.0619 12.657 9.98161 12.5476 9.91591 12.4089C9.85021 12.2775 9.81372 12.1169 9.81372 11.9344C9.81372 11.6352 9.93779 11.387 10.1933 11.1899C10.4487 10.9855 10.7553 10.8906 11.113 10.8906C11.4706 10.8906 11.7845 10.9782 12.0473 11.1461C12.3101 11.3213 12.4779 11.5476 12.5436 11.8249L11.7115 12.1753C11.675 12.022 11.602 11.8979 11.4998 11.803C11.3976 11.7155 11.2663 11.6644 11.113 11.6644C10.9962 11.6644 10.9086 11.6936 10.8356 11.7374C10.7699 11.7812 10.7407 11.8469 10.7407 11.9271C10.7407 12.0002 10.7845 12.0658 10.8721 12.1169C10.9597 12.1607 11.0765 12.1972 11.2079 12.2191C11.3392 12.241 11.4852 12.2775 11.6385 12.3286C11.7991 12.387 11.9378 12.4454 12.0765 12.5257C12.2078 12.5987 12.3173 12.7228 12.4049 12.8834C12.4998 13.0513 12.5436 13.2483 12.5436 13.4746C12.5436 13.8104 12.4122 14.0878 12.1494 14.2921C11.8867 14.4965 11.5437 14.6059 11.1203 14.6059Z" fill="white"/>
</svg>
