<svg width="21" height="21" viewBox="0 0 21 21" fill="none" xmlns="http://www.w3.org/2000/svg">
<path fill-rule="evenodd" clip-rule="evenodd" d="M10.4998 7.47367C8.77395 7.47367 7.37484 8.87278 7.37484 10.5987C7.37484 12.3246 8.77395 13.7237 10.4998 13.7237C12.2257 13.7237 13.6248 12.3246 13.6248 10.5987C13.6248 8.87278 12.2257 7.47367 10.4998 7.47367ZM8.62484 10.5987C8.62484 9.56314 9.4643 8.72367 10.4998 8.72367C11.5354 8.72367 12.3748 9.56314 12.3748 10.5987C12.3748 11.6342 11.5354 12.4737 10.4998 12.4737C9.4643 12.4737 8.62484 11.6342 8.62484 10.5987Z" fill="#858B93"/>
<path fill-rule="evenodd" clip-rule="evenodd" d="M10.4998 3.30701C6.73806 3.30701 4.20425 5.5605 2.73364 7.47106L2.70712 7.50551C2.37454 7.93745 2.06822 8.33527 1.86041 8.80567C1.63787 9.3094 1.5415 9.85841 1.5415 10.5987C1.5415 11.3389 1.63787 11.8879 1.86041 12.3917C2.06822 12.8621 2.37454 13.2599 2.70713 13.6918L2.73364 13.7263C4.20425 15.6368 6.73806 17.8903 10.4998 17.8903C14.2616 17.8903 16.7954 15.6368 18.266 13.7263L18.2925 13.6919C18.6251 13.2599 18.9314 12.8621 19.1393 12.3917C19.3618 11.8879 19.4582 11.3389 19.4582 10.5987C19.4582 9.85841 19.3618 9.3094 19.1393 8.80567C18.9314 8.33527 18.6251 7.93744 18.2925 7.50549L18.266 7.47106C16.7954 5.5605 14.2616 3.30701 10.4998 3.30701ZM3.72419 8.23351C5.08203 6.46944 7.2918 4.55701 10.4998 4.55701C13.7079 4.55701 15.9176 6.46944 17.2755 8.23351C17.641 8.70833 17.8551 8.99205 17.9959 9.3108C18.1275 9.60869 18.2082 9.97279 18.2082 10.5987C18.2082 11.2246 18.1275 11.5887 17.9959 11.8866C17.8551 12.2053 17.641 12.489 17.2755 12.9638C15.9176 14.7279 13.7079 16.6403 10.4998 16.6403C7.2918 16.6403 5.08204 14.7279 3.72419 12.9638C3.3587 12.489 3.14462 12.2053 3.0038 11.8865C2.8722 11.5887 2.7915 11.2246 2.7915 10.5987C2.7915 9.97279 2.8722 9.60869 3.0038 9.3108C3.14462 8.99205 3.3587 8.70833 3.72419 8.23351Z" fill="#858B93"/>
</svg>
