<svg width="20" height="20" viewBox="0 0 20 20" fill="none" xmlns="http://www.w3.org/2000/svg">
<g clip-path="url(#clip0_1797_216332)">
<rect width="20" height="20" rx="6.67" fill="#EE7F70" fill-opacity="0.3"/>
<g filter="url(#filter0_d_1797_216332)">
<path d="M14.3418 3.33301C14.9413 3.33313 15.4266 3.81912 15.4268 4.41797V7.20898C15.4268 7.49673 15.3124 7.77315 15.1084 7.97656C14.9051 8.1803 14.6293 8.29388 14.3418 8.29395H13.6436L12.8535 9.34863C12.7655 9.46575 12.6277 9.53407 12.4814 9.53418C12.3352 9.53418 12.1974 9.46569 12.1094 9.34863L11.3184 8.29395H8.68262L7.8916 9.34863C7.80353 9.46569 7.66579 9.53418 7.51953 9.53418C7.3733 9.53408 7.23546 9.46575 7.14746 9.34863L6.35742 8.29395H5.65918C5.37169 8.29389 5.0959 8.1803 4.89258 7.97656C4.68855 7.77315 4.57422 7.49673 4.57422 7.20898V4.41797C4.57439 3.81911 5.05969 3.33312 5.65918 3.33301H14.3418ZM8.8584 6.56934C8.70023 6.56934 8.57227 6.69828 8.57227 6.85645C8.57243 7.01448 8.70033 7.14258 8.8584 7.14258H11.1318C11.2899 7.14258 11.4188 7.01448 11.4189 6.85645C11.4189 6.69828 11.29 6.56934 11.1318 6.56934H8.8584ZM7.87402 5.42773C7.73344 5.42789 7.61914 5.54199 7.61914 5.68262C7.61928 5.82312 7.73352 5.93734 7.87402 5.9375H11.6963C11.8369 5.93748 11.951 5.82321 11.9512 5.68262C11.9512 5.54191 11.837 5.42775 11.6963 5.42773H7.87402ZM7.39844 4.28516C7.25777 4.28516 7.14363 4.39939 7.14355 4.54004C7.14355 4.68076 7.25772 4.79492 7.39844 4.79492H12.4941C12.6348 4.79487 12.749 4.68073 12.749 4.54004C12.7489 4.39942 12.6348 4.2852 12.4941 4.28516H7.39844Z" fill="url(#paint0_linear_1797_216332)"/>
<path d="M9.9984 13.6423C10.9403 13.6423 11.7038 12.8788 11.7038 11.9369C11.7038 10.995 10.9403 10.2314 9.9984 10.2314C9.05651 10.2314 8.29297 10.995 8.29297 11.9369C8.29297 12.8788 9.05651 13.6423 9.9984 13.6423Z" fill="url(#paint1_linear_1797_216332)"/>
<path d="M13.7196 12.945C14.4902 12.945 15.1149 12.3203 15.1149 11.5496C15.1149 10.779 14.4902 10.1543 13.7196 10.1543C12.9489 10.1543 12.3242 10.779 12.3242 11.5496C12.3242 12.3203 12.9489 12.945 13.7196 12.945Z" fill="url(#paint2_linear_1797_216332)"/>
<path d="M5.96957 12.945C6.7402 12.945 7.36492 12.3203 7.36492 11.5496C7.36492 10.779 6.7402 10.1543 5.96957 10.1543C5.19894 10.1543 4.57422 10.779 4.57422 11.5496C4.57422 12.3203 5.19894 12.945 5.96957 12.945Z" fill="url(#paint3_linear_1797_216332)"/>
<path fill-rule="evenodd" clip-rule="evenodd" d="M7.5198 16.6657H12.481C12.481 16.6657 12.9462 16.6291 12.9462 16.1925C12.9462 16.1441 12.9462 15.888 12.9462 15.5804C12.9462 15.1283 12.7663 14.6942 12.4469 14.3742C12.1269 14.0548 11.6928 13.875 11.2407 13.875H8.76011C8.30802 13.875 7.87391 14.0548 7.55391 14.3742C7.23453 14.6942 7.05469 15.1283 7.05469 15.5804V16.1925C7.05469 16.6279 7.51794 16.6657 7.5198 16.6657Z" fill="url(#paint4_linear_1797_216332)"/>
<path fill-rule="evenodd" clip-rule="evenodd" d="M6.43281 16.0456V15.5805C6.43281 14.9634 6.67777 14.3724 7.11374 13.9358C7.30102 13.7485 7.51746 13.5966 7.75188 13.4837C7.49451 13.3355 7.20056 13.2549 6.89792 13.2549H5.03746C4.58536 13.2549 4.15126 13.4347 3.83126 13.7541C3.51188 14.0741 3.33203 14.5082 3.33203 14.9603V15.5724C3.33203 16.009 3.79715 16.0456 3.79715 16.0456H6.43281Z" fill="url(#paint5_linear_1797_216332)"/>
<path fill-rule="evenodd" clip-rule="evenodd" d="M12.0781 13.4112C12.3777 13.5265 12.653 13.7045 12.8849 13.9358C13.3209 14.3724 13.5659 14.9634 13.5659 15.5805V16.0456H15.8915C15.8915 16.0456 16.3566 16.009 16.3566 15.5724C16.3566 15.524 16.3566 15.2679 16.3566 14.9603C16.3566 14.5082 16.1767 14.0741 15.8574 13.7541C15.5373 13.4347 15.1032 13.2549 14.6511 13.2549H12.7907C12.542 13.2549 12.2995 13.3088 12.0781 13.4112Z" fill="url(#paint6_linear_1797_216332)"/>
</g>
</g>
<defs>
<filter id="filter0_d_1797_216332" x="-4.66797" y="-0.0955634" width="29.0234" height="29.333" filterUnits="userSpaceOnUse" color-interpolation-filters="sRGB">
<feFlood flood-opacity="0" result="BackgroundImageFix"/>
<feColorMatrix in="SourceAlpha" type="matrix" values="0 0 0 0 0 0 0 0 0 0 0 0 0 0 0 0 0 0 127 0" result="hardAlpha"/>
<feOffset dy="4.57143"/>
<feGaussianBlur stdDeviation="4"/>
<feComposite in2="hardAlpha" operator="out"/>
<feColorMatrix type="matrix" values="0 0 0 0 0.445 0 0 0 0 0.125104 0 0 0 0 0.0548835 0 0 0 0.45 0"/>
<feBlend mode="normal" in2="BackgroundImageFix" result="effect1_dropShadow_1797_216332"/>
<feBlend mode="normal" in="SourceGraphic" in2="effect1_dropShadow_1797_216332" result="shape"/>
</filter>
<linearGradient id="paint0_linear_1797_216332" x1="10.0005" y1="3.33301" x2="10.0005" y2="9.53418" gradientUnits="userSpaceOnUse">
<stop stop-color="#FFF1E3"/>
<stop offset="1" stop-color="#FFC4C4"/>
</linearGradient>
<linearGradient id="paint1_linear_1797_216332" x1="9.9984" y1="10.2314" x2="9.9984" y2="13.6423" gradientUnits="userSpaceOnUse">
<stop stop-color="#FF908D"/>
<stop offset="1" stop-color="#E25552"/>
</linearGradient>
<linearGradient id="paint2_linear_1797_216332" x1="13.7196" y1="10.1543" x2="13.7196" y2="12.945" gradientUnits="userSpaceOnUse">
<stop stop-color="#FF908D"/>
<stop offset="1" stop-color="#E25552"/>
</linearGradient>
<linearGradient id="paint3_linear_1797_216332" x1="5.96957" y1="10.1543" x2="5.96957" y2="12.945" gradientUnits="userSpaceOnUse">
<stop stop-color="#FF908D"/>
<stop offset="1" stop-color="#E25552"/>
</linearGradient>
<linearGradient id="paint4_linear_1797_216332" x1="10.0004" y1="13.875" x2="10.0004" y2="16.6657" gradientUnits="userSpaceOnUse">
<stop stop-color="#FF908D"/>
<stop offset="1" stop-color="#E25552"/>
</linearGradient>
<linearGradient id="paint5_linear_1797_216332" x1="5.54195" y1="13.2549" x2="5.54195" y2="16.0456" gradientUnits="userSpaceOnUse">
<stop stop-color="#FF908D"/>
<stop offset="1" stop-color="#E25552"/>
</linearGradient>
<linearGradient id="paint6_linear_1797_216332" x1="14.2174" y1="13.2549" x2="14.2174" y2="16.0456" gradientUnits="userSpaceOnUse">
<stop stop-color="#FF908D"/>
<stop offset="1" stop-color="#E25552"/>
</linearGradient>
<clipPath id="clip0_1797_216332">
<rect width="20" height="20" rx="6.67" fill="white"/>
</clipPath>
</defs>
</svg>
