<svg width="19" height="18" viewBox="0 0 19 18" fill="none" xmlns="http://www.w3.org/2000/svg">
<path fill-rule="evenodd" clip-rule="evenodd" d="M13.9603 0.625H15.007C15.3926 0.625 15.7049 0.937292 15.7049 1.32286V3.98716L18.188 5.45946C18.5934 5.69987 18.8422 6.13673 18.8422 6.60813C18.8422 7.53515 17.9352 8.1472 17.0997 7.89485V15.98C17.0997 16.7507 16.4748 17.3757 15.704 17.3757H3.14249C2.37171 17.3757 1.74677 16.7507 1.74677 15.98V7.8933C0.910124 8.14921 0 7.53641 0 6.60813C0 6.13673 0.248787 5.70022 0.654244 5.45946L8.23998 0.960354C8.9675 0.529077 9.87262 0.529077 10.6001 0.960354L13.2624 2.5389V1.32286C13.2624 0.937292 13.5747 0.625 13.9603 0.625Z" fill="#22B24C"/>
<path d="M15.4189 6.14559L9.4209 2.625L3.42285 6.14559V14.9471C3.42285 15.5952 3.91115 16.1206 4.51341 16.1206H14.3284C14.9307 16.1206 15.4189 15.5952 15.4189 14.9471V6.14559Z" fill="#50E07A"/>
<path d="M13.4229 7.05978L9.42285 4.625L5.42285 7.05978V13.1467C5.42285 13.5949 5.74849 13.9583 6.15012 13.9583H12.6956C13.0972 13.9583 13.4229 13.5949 13.4229 13.1467V7.05978Z" fill="#79F99F"/>
<path d="M11.4219 8.80435L9.42188 7.5L7.42188 8.80435V12.0652C7.42188 12.3053 7.58469 12.5 7.78551 12.5H11.0582C11.2591 12.5 11.4219 12.3053 11.4219 12.0652V8.80435Z" fill="#9EFFBB"/>
</svg>
