<svg width="25" height="25" viewBox="0 0 25 25" fill="none" xmlns="http://www.w3.org/2000/svg">
<g clip-path="url(#clip0_869_730069)">
<rect x="2.79346" y="2.5" width="20" height="20" rx="10" fill="white"/>
<path d="M12.7935 2.5C7.27066 2.5 2.79346 6.9772 2.79346 12.5C2.79346 17.1896 6.02226 21.1248 10.3779 22.2056V15.556H8.31586V12.5H10.3779V11.1832C10.3779 7.7796 11.9183 6.202 15.2599 6.202C15.8935 6.202 16.9867 6.3264 17.4339 6.4504V9.2204C17.1979 9.1956 16.7879 9.1832 16.2787 9.1832C14.6391 9.1832 14.0055 9.8044 14.0055 11.4192V12.5H17.2719L16.7107 15.556H14.0055V22.4268C18.9571 21.8288 22.7939 17.6128 22.7939 12.5C22.7935 6.9772 18.3163 2.5 12.7935 2.5Z" fill="#1877F2"/>
</g>
<defs>
<clipPath id="clip0_869_730069">
<rect x="2.79346" y="2.5" width="20" height="20" rx="10" fill="white"/>
</clipPath>
</defs>
</svg>
