<svg width="24" height="24" viewBox="0 0 24 24" fill="none" xmlns="http://www.w3.org/2000/svg">
<rect width="24" height="24" rx="12" fill="#00E3C8" fill-opacity="0.2"/>
<path d="M17.3939 5.93262H5.9207C5.03511 5.93262 4.31445 6.65318 4.31445 7.53886V15.7996C4.31445 16.6854 5.03511 17.4058 5.9207 17.4058H17.3939C18.2797 17.4058 19.0001 16.6854 19.0001 15.7996V7.53886C19.0001 6.65318 18.2797 5.93262 17.3939 5.93262ZM9.01846 7.99779C9.96857 7.99779 10.7394 8.76888 10.7394 9.71877C10.7394 10.6688 9.96857 11.4397 9.01846 11.4397C8.06857 11.4397 7.29748 10.6688 7.29748 9.71877C7.29748 8.76888 8.06857 7.99779 9.01846 7.99779ZM11.405 15.3406H6.64135C6.23185 15.3406 5.89803 14.9813 5.95746 14.5559C6.17325 13.0414 7.49041 11.8987 9.02318 11.8987C10.5515 11.8987 11.8686 13.0414 12.0842 14.5559C12.1433 14.9793 11.8097 15.3406 11.405 15.3406ZM15.0992 12.8165H13.493C13.1123 12.8165 12.8046 12.5091 12.8046 12.1281C12.8046 11.7472 13.1123 11.4397 13.493 11.4397H15.0992C15.4802 11.4397 15.7876 11.7472 15.7876 12.1281C15.7876 12.5091 15.4802 12.8165 15.0992 12.8165ZM16.7055 10.7514H13.493C13.1123 10.7514 12.8046 10.4439 12.8046 10.063C12.8046 9.68201 13.1123 9.37457 13.493 9.37457H16.7055C17.0864 9.37457 17.3939 9.68201 17.3939 10.063C17.3939 10.4439 17.0864 10.7514 16.7055 10.7514Z" fill="url(#paint0_linear_10591_23260)"/>
<defs>
<linearGradient id="paint0_linear_10591_23260" x1="11.6573" y1="5.93262" x2="11.6573" y2="17.4058" gradientUnits="userSpaceOnUse">
<stop stop-color="#55BE95"/>
<stop offset="1" stop-color="#20D2DD"/>
</linearGradient>
</defs>
</svg>
