<svg width="42" height="42" viewBox="0 0 42 42" fill="none" xmlns="http://www.w3.org/2000/svg">
<g clip-path="url(#clip0_10797_55974)">
<path d="M0 21C0 14.4768 0 11.2152 1.06569 8.64243C2.4866 5.21204 5.21204 2.4866 8.64243 1.06569C11.2152 0 14.4768 0 21 0C27.5232 0 30.7848 0 33.3576 1.06569C36.788 2.4866 39.5134 5.21204 40.9343 8.64243C42 11.2152 42 14.4768 42 21C42 27.5232 42 30.7848 40.9343 33.3576C39.5134 36.788 36.788 39.5134 33.3576 40.9343C30.7848 42 27.5232 42 21 42C14.4768 42 11.2152 42 8.64243 40.9343C5.21204 39.5134 2.4866 36.788 1.06569 33.3576C0 30.7848 0 27.5232 0 21Z" fill="#EEAD70" fill-opacity="0.3"/>
<g filter="url(#filter1_d_10797_55974)">
<path d="M28.7492 6.125V8.47109H21.3664C17.3961 8.47109 14.1476 11.621 14 15.5422C15.3289 12.8187 18.1344 10.932 21.3664 10.932C23.6633 10.932 25.7304 11.8835 27.2399 13.393H28.7492V15.7391L35.3664 10.932L28.7492 6.125Z" fill="url(#paint0_linear_10797_55974)"/>
<path d="M13.2508 35.875V33.5289H20.6336C24.6039 33.5289 27.8524 30.379 28 26.4578C26.6711 29.1813 23.8656 31.068 20.6336 31.068C18.3367 31.068 16.2696 30.1165 14.7601 28.607H13.2508V26.2609L6.63359 31.068L13.2508 35.875Z" fill="url(#paint1_linear_10797_55974)"/>
<path d="M21 9.625C14.7279 9.625 9.625 14.7279 9.625 21C9.625 27.2721 14.7279 32.375 21 32.375C27.2721 32.375 32.375 27.2721 32.375 21C32.375 14.7279 27.2721 9.625 21 9.625Z" fill="url(#paint2_linear_10797_55974)"/>
<rect x="19.6655" y="16.6641" width="5" height="9" fill="url(#paint3_linear_10797_55974)"/>
<g filter="url(#filter2_d_10797_55974)">
<path d="M21 15C17.6915 15 15 17.6915 15 21C15 24.3085 17.6915 27 21 27C24.3085 27 27 24.3085 27 21C27 17.6915 24.3085 15 21 15ZM23.8535 24.1035C23.756 24.201 23.628 24.25 23.5 24.25C23.372 24.25 23.2439 24.201 23.1465 24.1035L20.6465 21.6035C20.5525 21.51 20.5 21.383 20.5 21.25V18C20.5 17.7235 20.724 17.5 21 17.5C21.276 17.5 21.5 17.7235 21.5 18V21.043L23.8535 23.3965C24.049 23.592 24.049 23.908 23.8535 24.1035Z" fill="white"/>
</g>
<path d="M28.7493 8.47109V6.125L35.3665 10.932L28.7493 15.7391V13.393V8.47109Z" fill="url(#paint4_linear_10797_55974)"/>
<path d="M13.125 33.5289V35.875L6.50781 31.068L13.125 26.2609V28.607V33.5289Z" fill="url(#paint5_linear_10797_55974)"/>
</g>
</g>
<defs>
<filter id="filter1_d_10797_55974" x="-1.49219" y="2.69643" width="44.8586" height="45.75" filterUnits="userSpaceOnUse" color-interpolation-filters="sRGB">
<feFlood flood-opacity="0" result="BackgroundImageFix"/>
<feColorMatrix in="SourceAlpha" type="matrix" values="0 0 0 0 0 0 0 0 0 0 0 0 0 0 0 0 0 0 127 0" result="hardAlpha"/>
<feOffset dy="4.57143"/>
<feGaussianBlur stdDeviation="4"/>
<feComposite in2="hardAlpha" operator="out"/>
<feColorMatrix type="matrix" values="0 0 0 0 0.355 0 0 0 0 0.22436 0 0 0 0 0.0284001 0 0 0 0.45 0"/>
<feBlend mode="normal" in2="BackgroundImageFix" result="effect1_dropShadow_10797_55974"/>
<feBlend mode="normal" in="SourceGraphic" in2="effect1_dropShadow_10797_55974" result="shape"/>
</filter>
<filter id="filter2_d_10797_55974" x="14" y="15" width="14" height="14" filterUnits="userSpaceOnUse" color-interpolation-filters="sRGB">
<feFlood flood-opacity="0" result="BackgroundImageFix"/>
<feColorMatrix in="SourceAlpha" type="matrix" values="0 0 0 0 0 0 0 0 0 0 0 0 0 0 0 0 0 0 127 0" result="hardAlpha"/>
<feOffset dy="1"/>
<feGaussianBlur stdDeviation="0.5"/>
<feComposite in2="hardAlpha" operator="out"/>
<feColorMatrix type="matrix" values="0 0 0 0 0 0 0 0 0 0 0 0 0 0 0 0 0 0 0.25 0"/>
<feBlend mode="normal" in2="BackgroundImageFix" result="effect1_dropShadow_10797_55974"/>
<feBlend mode="normal" in="SourceGraphic" in2="effect1_dropShadow_10797_55974" result="shape"/>
</filter>
<linearGradient id="paint0_linear_10797_55974" x1="24.6832" y1="15.7391" x2="24.6832" y2="6.125" gradientUnits="userSpaceOnUse">
<stop stop-color="white"/>
<stop offset="1" stop-color="#FFEBD3"/>
</linearGradient>
<linearGradient id="paint1_linear_10797_55974" x1="17.3168" y1="26.2609" x2="17.3168" y2="35.875" gradientUnits="userSpaceOnUse">
<stop stop-color="white"/>
<stop offset="1" stop-color="#FFEBD3"/>
</linearGradient>
<linearGradient id="paint2_linear_10797_55974" x1="21" y1="32.375" x2="21" y2="9.625" gradientUnits="userSpaceOnUse">
<stop stop-color="#FF8D3A"/>
<stop offset="1" stop-color="#FFC581"/>
</linearGradient>
<linearGradient id="paint3_linear_10797_55974" x1="22.1655" y1="25.6641" x2="22.1655" y2="16.6641" gradientUnits="userSpaceOnUse">
<stop stop-color="#FF8D3A"/>
<stop offset="1" stop-color="#FFC581"/>
</linearGradient>
<linearGradient id="paint4_linear_10797_55974" x1="28.3665" y1="15.7391" x2="28.3665" y2="6.125" gradientUnits="userSpaceOnUse">
<stop stop-color="white"/>
<stop offset="1" stop-color="#FFEBD3"/>
</linearGradient>
<linearGradient id="paint5_linear_10797_55974" x1="13.5078" y1="26.2609" x2="13.5078" y2="35.875" gradientUnits="userSpaceOnUse">
<stop stop-color="white"/>
<stop offset="1" stop-color="#FFEBD3"/>
</linearGradient>
<clipPath id="clip0_10797_55974">
<path d="M0 21C0 14.4768 0 11.2152 1.06569 8.64243C2.4866 5.21204 5.21204 2.4866 8.64243 1.06569C11.2152 0 14.4768 0 21 0C27.5232 0 30.7848 0 33.3576 1.06569C36.788 2.4866 39.5134 5.21204 40.9343 8.64243C42 11.2152 42 14.4768 42 21C42 27.5232 42 30.7848 40.9343 33.3576C39.5134 36.788 36.788 39.5134 33.3576 40.9343C30.7848 42 27.5232 42 21 42C14.4768 42 11.2152 42 8.64243 40.9343C5.21204 39.5134 2.4866 36.788 1.06569 33.3576C0 30.7848 0 27.5232 0 21Z" fill="white"/>
</clipPath>
</defs>
</svg>
