<svg width="42" height="42" viewBox="0 0 42 42" fill="none" xmlns="http://www.w3.org/2000/svg">
<path d="M0 21C0 14.4768 0 11.2152 1.06569 8.64243C2.4866 5.21204 5.21204 2.4866 8.64243 1.06569C11.2152 0 14.4768 0 21 0C27.5232 0 30.7848 0 33.3576 1.06569C36.788 2.4866 39.5134 5.21204 40.9343 8.64243C42 11.2152 42 14.4768 42 21C42 27.5232 42 30.7848 40.9343 33.3576C39.5134 36.788 36.788 39.5134 33.3576 40.9343C30.7848 42 27.5232 42 21 42C14.4768 42 11.2152 42 8.64243 40.9343C5.21204 39.5134 2.4866 36.788 1.06569 33.3576C0 30.7848 0 27.5232 0 21Z" fill="#959595" fill-opacity="0.12"/>
<path d="M13.2518 33.0914H12.8143V33.5289V35.0164L7.37896 31.068L12.8143 27.1195V28.607V29.0445H13.2518H14.5825C16.1559 30.5558 18.2793 31.5055 20.6346 31.5055C23.2379 31.5055 25.5774 30.3439 27.1602 28.516C26.1965 31.1789 23.6348 33.0914 20.6346 33.0914H13.2518Z" stroke="#838383" stroke-width="0.875"/>
<path d="M28.7502 8.90859H29.1877V8.47109V6.98358L34.623 10.932L29.1877 14.8805V13.393V12.9555H28.7502H27.4195C25.8461 11.4442 23.7227 10.4945 21.3674 10.4945C18.7641 10.4945 16.4246 11.6561 14.8417 13.484C15.8055 10.8211 18.3671 8.90859 21.3674 8.90859H28.7502Z" stroke="#838383" stroke-width="0.875"/>
<path d="M10.0625 21C10.0625 14.9695 14.9695 10.0625 21 10.0625C27.0305 10.0625 31.9375 14.9695 31.9375 21C31.9375 27.0305 27.0305 31.9375 21 31.9375C14.9695 31.9375 10.0625 27.0305 10.0625 21Z" fill="#838383" stroke="#838383" stroke-width="0.875"/>
<rect x="19.665" y="16.6641" width="5" height="9" fill="#D8D8D8"/>
<path d="M21 15C17.6915 15 15 17.6915 15 21C15 24.3085 17.6915 27 21 27C24.3085 27 27 24.3085 27 21C27 17.6915 24.3085 15 21 15ZM23.8535 24.1035C23.756 24.201 23.628 24.25 23.5 24.25C23.372 24.25 23.2439 24.201 23.1465 24.1035L20.6465 21.6035C20.5525 21.51 20.5 21.383 20.5 21.25V18C20.5 17.7235 20.724 17.5 21 17.5C21.276 17.5 21.5 17.7235 21.5 18V21.043L23.8535 23.3965C24.049 23.592 24.049 23.908 23.8535 24.1035Z" fill="#838383"/>
</svg>
