<svg width="62" height="40" viewBox="0 0 62 40" fill="none" xmlns="http://www.w3.org/2000/svg">
<rect x="0.0644531" width="32.2572" height="11.3434" rx="2.83583" fill="#272B30"/>
<ellipse cx="4.31829" cy="3.54488" rx="1.4179" ry="1.41793" fill="#111315"/>
<ellipse cx="4.31829" cy="7.79855" rx="1.4179" ry="1.41793" fill="#111315"/>
<rect x="8.2168" y="2.48145" width="21.2685" height="2.1269" rx="1.06345" fill="#111315"/>
<rect x="8.2168" y="6.73511" width="17.3693" height="2.1269" rx="1.06345" fill="#111315"/>
<rect x="8.57227" y="14.1794" width="32.2572" height="11.3434" rx="2.83583" fill="#1A1D1F"/>
<ellipse cx="12.8261" cy="17.7243" rx="1.4179" ry="1.41793" fill="#272B30"/>
<ellipse cx="12.8261" cy="21.978" rx="1.4179" ry="1.41793" fill="#272B30"/>
<rect x="16.7246" y="16.6609" width="21.2685" height="2.1269" rx="1.06345" fill="#272B30"/>
<rect x="16.7246" y="20.9146" width="17.3693" height="2.1269" rx="1.06345" fill="#272B30"/>
<rect x="0.0644531" y="28.3586" width="32.2572" height="11.3434" rx="2.83583" fill="#272B30"/>
<ellipse cx="4.31829" cy="31.9035" rx="1.4179" ry="1.41793" fill="#111315"/>
<ellipse cx="4.31829" cy="36.1572" rx="1.4179" ry="1.41793" fill="#111315"/>
<rect x="8.2168" y="30.8401" width="21.2685" height="2.1269" rx="1.06345" fill="#111315"/>
<rect x="8.2168" y="35.0938" width="17.3693" height="2.1269" rx="1.06345" fill="#111315"/>
<mask id="mask0_512_88606" style="mask-type:alpha" maskUnits="userSpaceOnUse" x="28" y="5" width="26" height="26">
<ellipse cx="40.6542" cy="17.9013" rx="12.5839" ry="12.5841" fill="#D9D9D9"/>
</mask>
<g mask="url(#mask0_512_88606)">
<rect x="-7.73047" y="10.6345" width="50.3216" height="17.6958" rx="4.42392" fill="#1A1D1F"/>
<rect x="4.98828" y="14.5056" width="33.1791" height="3.31797" rx="1.65898" fill="#272B30"/>
<rect x="4.98828" y="21.1416" width="27.0962" height="3.31797" rx="1.65898" fill="#272B30"/>
</g>
<path d="M49.7582 32.3C48.6081 31.2368 48.5376 29.4427 49.6007 28.2925C50.6638 27.1424 52.458 27.0719 53.608 28.1351L59.8553 33.9099C61.0053 34.9731 61.0759 36.7673 60.0128 37.9174C58.9496 39.0675 57.1555 39.138 56.0054 38.0749L49.7582 32.3Z" fill="#858B93"/>
<path d="M46.1484 26.896L48.0734 24.8135L51.4573 27.9416C52.0323 28.4732 52.0676 29.3703 51.536 29.9453L-nan -nanL51.536 29.9453C51.0045 30.5204 50.1074 30.5556 49.5324 30.0241L46.1484 26.896Z" fill="#272B30"/>
<path fill-rule="evenodd" clip-rule="evenodd" d="M38.5272 28.004C44.1067 28.004 48.6298 23.4809 48.6298 17.9013C48.6298 12.3217 44.1067 7.79852 38.5272 7.79852C32.9477 7.79852 28.4247 12.3217 28.4247 17.9013C28.4247 23.4809 32.9477 28.004 38.5272 28.004ZM38.5272 30.4854C45.4771 30.4854 51.1111 24.8513 51.1111 17.9013C51.1111 10.9512 45.4771 5.31714 38.5272 5.31714C31.5773 5.31714 25.9434 10.9512 25.9434 17.9013C25.9434 24.8513 31.5773 30.4854 38.5272 30.4854Z" fill="#858B93"/>
</svg>
