<svg width="55" height="17" viewBox="0 0 55 17" fill="none" xmlns="http://www.w3.org/2000/svg">
<path d="M0.328125 0H42.3281C48.9555 0 54.3281 5.37258 54.3281 12V17H12.3281C5.70071 17 0.328125 11.6274 0.328125 5V0Z" fill="#1AAF74" fill-opacity="0.5"/>
<path d="M11.4222 12V5.645H8.96719V4.8H14.7672V5.645H12.3122V12H11.4222ZM15.5633 12V4.8H16.4533V8.18L19.6033 4.8H20.7233L17.4533 8.295L20.9783 12H19.8283L16.4533 8.48V12H15.5633ZM23.4832 12V4.8H27.6832V5.69H24.3732V7.955H27.0832V8.845H24.3732V12H23.4832ZM28.5809 12V4.8H31.4259C31.4959 4.8 31.5792 4.80333 31.6759 4.81C31.7725 4.81333 31.8659 4.82333 31.9559 4.84C32.3459 4.9 32.6725 5.03333 32.9359 5.24C33.2025 5.44667 33.4025 5.70833 33.5359 6.025C33.6692 6.33833 33.7359 6.68667 33.7359 7.07C33.7359 7.45 33.6675 7.79833 33.5309 8.115C33.3975 8.42833 33.1975 8.69 32.9309 8.9C32.6675 9.10667 32.3425 9.24 31.9559 9.3C31.8659 9.31333 31.7725 9.32333 31.6759 9.33C31.5792 9.33667 31.4959 9.34 31.4259 9.34H29.4709V12H28.5809ZM29.4709 8.495H31.3959C31.4592 8.495 31.5309 8.49167 31.6109 8.485C31.6942 8.47833 31.7725 8.46667 31.8459 8.45C32.0759 8.39667 32.2625 8.3 32.4059 8.16C32.5525 8.01667 32.6592 7.85 32.7259 7.66C32.7925 7.46667 32.8259 7.27 32.8259 7.07C32.8259 6.87 32.7925 6.675 32.7259 6.485C32.6592 6.29167 32.5525 6.12333 32.4059 5.98C32.2625 5.83667 32.0759 5.74 31.8459 5.69C31.7725 5.67 31.6942 5.65833 31.6109 5.655C31.5309 5.64833 31.4592 5.645 31.3959 5.645H29.4709V8.495ZM36.5882 12V5.645H34.1332V4.8H39.9332V5.645H37.4782V12H36.5882ZM43.2843 12.15C42.7743 12.15 42.3143 12.0633 41.9043 11.89C41.4976 11.7167 41.161 11.47 40.8943 11.15C40.631 10.8267 40.4593 10.445 40.3793 10.005L41.2993 9.86C41.416 10.3133 41.6576 10.6683 42.0243 10.925C42.3943 11.1783 42.8293 11.305 43.3293 11.305C43.6526 11.305 43.9443 11.255 44.2043 11.155C44.4676 11.0517 44.676 10.905 44.8293 10.715C44.9826 10.525 45.0593 10.3 45.0593 10.04C45.0593 9.88 45.031 9.74333 44.9743 9.63C44.921 9.51333 44.846 9.415 44.7493 9.335C44.656 9.25167 44.5493 9.18167 44.4293 9.125C44.3093 9.06833 44.1843 9.02167 44.0543 8.985L42.2193 8.44C42.0193 8.38 41.826 8.305 41.6393 8.215C41.4526 8.12167 41.286 8.00667 41.1393 7.87C40.9926 7.73 40.876 7.56333 40.7893 7.37C40.7026 7.17333 40.6593 6.94167 40.6593 6.675C40.6593 6.24833 40.7693 5.885 40.9893 5.585C41.2126 5.28167 41.5143 5.05 41.8943 4.89C42.2743 4.73 42.7026 4.65167 43.1793 4.655C43.6626 4.65833 44.0943 4.745 44.4743 4.915C44.8576 5.08167 45.1743 5.32167 45.4243 5.635C45.6776 5.94833 45.8476 6.32333 45.9343 6.76L44.9893 6.925C44.9393 6.63167 44.8276 6.38 44.6543 6.17C44.4843 5.95667 44.271 5.79333 44.0143 5.68C43.7576 5.56333 43.476 5.50333 43.1693 5.5C42.876 5.49667 42.611 5.54333 42.3743 5.64C42.1376 5.73667 41.9493 5.87167 41.8093 6.045C41.6693 6.215 41.5993 6.41167 41.5993 6.635C41.5993 6.855 41.6626 7.03333 41.7893 7.17C41.916 7.30333 42.071 7.41 42.2543 7.49C42.441 7.56667 42.6226 7.63 42.7993 7.68L44.1693 8.075C44.326 8.11833 44.506 8.17833 44.7093 8.255C44.916 8.33167 45.116 8.44 45.3093 8.58C45.5026 8.71667 45.6626 8.9 45.7893 9.13C45.916 9.35667 45.9793 9.64333 45.9793 9.99C45.9793 10.3367 45.9093 10.645 45.7693 10.915C45.6326 11.185 45.441 11.4117 45.1943 11.595C44.9476 11.775 44.661 11.9117 44.3343 12.005C44.0076 12.1017 43.6576 12.15 43.2843 12.15Z" fill="#1AAF74"/>
</svg>
