<svg width="16" height="16" viewBox="0 0 16 16" fill="none" xmlns="http://www.w3.org/2000/svg">
<path fill-rule="evenodd" clip-rule="evenodd" d="M4.84173 2.17429C4.92146 1.42094 5.55885 0.833984 6.33333 0.833984H9.66667C10.4411 0.833984 11.0785 1.42094 11.1583 2.17429C11.667 2.18464 12.1069 2.21096 12.4824 2.27995C12.9878 2.37277 13.4178 2.5496 13.7678 2.89955C14.169 3.30083 14.3416 3.80608 14.4223 4.40615C14.5 4.98413 14.5 5.71901 14.5 6.63074V10.7039C14.5 11.6156 14.5 12.3505 14.4223 12.9285C14.3416 13.5286 14.169 14.0338 13.7678 14.4351C13.3665 14.8364 12.8612 15.009 12.2612 15.0896C11.6832 15.1673 10.9483 15.1673 10.0366 15.1673H5.96342C5.05169 15.1673 4.31681 15.1673 3.73883 15.0896C3.13876 15.009 2.63351 14.8364 2.23223 14.4351C1.83096 14.0338 1.65836 13.5286 1.57768 12.9285C1.49998 12.3505 1.49999 11.6156 1.5 10.7039V6.63073C1.49999 5.71901 1.49998 4.98413 1.57768 4.40615C1.65836 3.80608 1.83096 3.30083 2.23223 2.89955C2.58219 2.5496 3.01224 2.37277 3.51757 2.27995C3.89315 2.21096 4.33301 2.18464 4.84173 2.17429ZM4.84331 3.17456C4.36452 3.18479 3.99557 3.20888 3.69823 3.26349C3.32036 3.3329 3.10164 3.44436 2.93934 3.60666C2.75483 3.79117 2.63453 4.05021 2.56877 4.5394C2.50106 5.04296 2.5 5.71037 2.5 6.66732V10.6673C2.5 11.6243 2.50106 12.2917 2.56877 12.7952C2.63453 13.2844 2.75483 13.5435 2.93934 13.728C3.12385 13.9125 3.3829 14.0328 3.87208 14.0986C4.37565 14.1663 5.04306 14.1673 6 14.1673H10C10.9569 14.1673 11.6244 14.1663 12.1279 14.0986C12.6171 14.0328 12.8762 13.9125 13.0607 13.728C13.2452 13.5435 13.3655 13.2844 13.4312 12.7952C13.4989 12.2917 13.5 11.6243 13.5 10.6673V6.66732C13.5 5.71037 13.4989 5.04296 13.4312 4.5394C13.3655 4.05021 13.2452 3.79117 13.0607 3.60666C12.8984 3.44436 12.6796 3.3329 12.3018 3.26349C12.0044 3.20888 11.6355 3.18479 11.1567 3.17456C11.0705 3.92106 10.4363 4.50065 9.66667 4.50065H6.33333C5.56373 4.50065 4.9295 3.92106 4.84331 3.17456ZM6.33333 1.83398C6.05719 1.83398 5.83333 2.05784 5.83333 2.33398V3.00065C5.83333 3.27679 6.05719 3.50065 6.33333 3.50065H9.66667C9.94281 3.50065 10.1667 3.27679 10.1667 3.00065V2.33398C10.1667 2.05784 9.94281 1.83398 9.66667 1.83398H6.33333ZM4.16667 7.00065C4.16667 6.72451 4.39052 6.50065 4.66667 6.50065H5C5.27614 6.50065 5.5 6.72451 5.5 7.00065C5.5 7.27679 5.27614 7.50065 5 7.50065H4.66667C4.39052 7.50065 4.16667 7.27679 4.16667 7.00065ZM6.5 7.00065C6.5 6.72451 6.72386 6.50065 7 6.50065H11.3333C11.6095 6.50065 11.8333 6.72451 11.8333 7.00065C11.8333 7.27679 11.6095 7.50065 11.3333 7.50065H7C6.72386 7.50065 6.5 7.27679 6.5 7.00065ZM4.16667 9.33398C4.16667 9.05784 4.39052 8.83398 4.66667 8.83398H5C5.27614 8.83398 5.5 9.05784 5.5 9.33398C5.5 9.61013 5.27614 9.83398 5 9.83398H4.66667C4.39052 9.83398 4.16667 9.61013 4.16667 9.33398ZM6.5 9.33398C6.5 9.05784 6.72386 8.83398 7 8.83398H11.3333C11.6095 8.83398 11.8333 9.05784 11.8333 9.33398C11.8333 9.61013 11.6095 9.83398 11.3333 9.83398H7C6.72386 9.83398 6.5 9.61013 6.5 9.33398ZM4.16667 11.6673C4.16667 11.3912 4.39052 11.1673 4.66667 11.1673H5C5.27614 11.1673 5.5 11.3912 5.5 11.6673C5.5 11.9435 5.27614 12.1673 5 12.1673H4.66667C4.39052 12.1673 4.16667 11.9435 4.16667 11.6673ZM6.5 11.6673C6.5 11.3912 6.72386 11.1673 7 11.1673H11.3333C11.6095 11.1673 11.8333 11.3912 11.8333 11.6673C11.8333 11.9435 11.6095 12.1673 11.3333 12.1673H7C6.72386 12.1673 6.5 11.9435 6.5 11.6673Z" fill="#858B93"/>
</svg>
