<svg width="20" height="20" viewBox="0 0 20 20" fill="none" xmlns="http://www.w3.org/2000/svg">
<path fill-rule="evenodd" clip-rule="evenodd" d="M3.50062 3.50068C3.72378 3.27752 4.08558 3.27752 4.30874 3.50068L9.99994 9.19188L15.6911 3.50073C15.9143 3.27757 16.2761 3.27757 16.4992 3.50073C16.7224 3.72389 16.7224 4.0857 16.4992 4.30885L10.8081 10L16.4992 15.6911C16.7223 15.9143 16.7223 16.2761 16.4992 16.4992C16.276 16.7224 15.9142 16.7224 15.691 16.4992L9.99994 10.8081L4.30879 16.4993C4.08564 16.7224 3.72383 16.7224 3.50067 16.4993C3.27751 16.2761 3.27751 15.9143 3.50067 15.6912L9.19182 10L3.50062 4.3088C3.27746 4.08565 3.27746 3.72384 3.50062 3.50068Z" fill="white" style="fill:white;fill-opacity:1;"/>
</svg>
