<svg width="20" height="20" viewBox="0 0 20 20" fill="none" xmlns="http://www.w3.org/2000/svg">
<path d="M7.71592 6.6448C7.96955 6.41067 7.98537 6.01526 7.75124 5.76162C7.51712 5.50798 7.1217 5.49217 6.86807 5.72629L4.99307 7.45706C4.86489 7.57538 4.79199 7.74188 4.79199 7.91632C4.79199 8.09075 4.86489 8.25725 4.99307 8.37557L6.86807 10.1063C7.1217 10.3405 7.51712 10.3246 7.75124 10.071C7.98537 9.81737 7.96955 9.42196 7.71592 9.18783L7.01552 8.54132H11.699C12.947 8.54132 13.9587 9.55298 13.9587 10.8009C13.9587 12.0489 12.947 13.0605 11.699 13.0605H7.917C7.57182 13.0605 7.292 13.3404 7.292 13.6855C7.292 14.0307 7.57182 14.3105 7.917 14.3105H11.699C13.6374 14.3105 15.2087 12.7392 15.2087 10.8009C15.2087 8.86262 13.6373 7.29132 11.699 7.29132H7.01552L7.71592 6.6448Z" fill="#858B93"/>
<path fill-rule="evenodd" clip-rule="evenodd" d="M9.95251 1.0415C8.02885 1.04149 6.52132 1.04148 5.34508 1.19963C4.14113 1.36149 3.19111 1.69928 2.44544 2.44495C1.69976 3.19063 1.36198 4.14065 1.20011 5.34459C1.04197 6.52083 1.04198 8.02836 1.04199 9.95202V10.0477C1.04198 11.9713 1.04197 13.4788 1.20011 14.6551C1.36198 15.859 1.69976 16.8091 2.44544 17.5547C3.19111 18.3004 4.14113 18.6382 5.34508 18.8C6.52132 18.9582 8.02885 18.9582 9.95252 18.9582H10.0481C11.9718 18.9582 13.4793 18.9582 14.6556 18.8C15.8595 18.6382 16.8095 18.3004 17.5552 17.5547C18.3009 16.8091 18.6387 15.859 18.8005 14.6551C18.9587 13.4788 18.9587 11.9713 18.9587 10.0476V9.95203C18.9587 8.02836 18.9587 6.52083 18.8005 5.34459C18.6387 4.14065 18.3009 3.19063 17.5552 2.44495C16.8095 1.69928 15.8595 1.36149 14.6556 1.19963C13.4793 1.04148 11.9718 1.04149 10.0481 1.0415H9.95251ZM3.32932 3.32883C3.80404 2.85412 4.4463 2.58171 5.51164 2.43848C6.59495 2.29283 8.01847 2.2915 10.0003 2.2915C11.9822 2.2915 13.4057 2.29283 14.489 2.43848C15.5543 2.58171 16.1966 2.85412 16.6713 3.32883C17.146 3.80355 17.4185 4.44582 17.5617 5.51115C17.7073 6.59447 17.7087 8.01798 17.7087 9.99984C17.7087 11.9817 17.7073 13.4052 17.5617 14.4885C17.4185 15.5539 17.146 16.1961 16.6713 16.6708C16.1966 17.1456 15.5543 17.418 14.489 17.5612C13.4057 17.7068 11.9822 17.7082 10.0003 17.7082C8.01847 17.7082 6.59495 17.7068 5.51164 17.5612C4.4463 17.418 3.80404 17.1456 3.32932 16.6708C2.85461 16.1961 2.5822 15.5539 2.43897 14.4885C2.29332 13.4052 2.29199 11.9817 2.29199 9.99984C2.29199 8.01798 2.29332 6.59447 2.43897 5.51115C2.5822 4.44582 2.85461 3.80355 3.32932 3.32883Z" fill="#858B93"/>
</svg>
