<svg width="20" height="20" viewBox="0 0 20 20" fill="none" xmlns="http://www.w3.org/2000/svg">
<path fill-rule="evenodd" clip-rule="evenodd" d="M8.13103 1.65369C8.13892 1.99877 7.86556 2.28492 7.52048 2.29281C5.16906 2.34657 4.06156 2.58376 3.33055 3.31478C2.85522 3.7901 2.58251 4.43317 2.43912 5.49965C2.29332 6.5841 2.29199 8.0091 2.29199 9.99293C2.29199 11.9768 2.29332 13.4018 2.43912 14.4862C2.58251 15.5527 2.85522 16.1958 3.33055 16.6711C3.80588 17.1464 4.44894 17.4191 5.51542 17.5625C6.59988 17.7083 8.02487 17.7096 10.0087 17.7096C11.9925 17.7096 13.4175 17.7083 14.502 17.5625C15.5685 17.4191 16.2115 17.1464 16.6869 16.6711C17.4179 15.9401 17.6551 14.8326 17.7088 12.4812C17.7167 12.1361 18.0029 11.8627 18.3479 11.8706C18.693 11.8785 18.9664 12.1646 18.9585 12.5097C18.9058 14.8151 18.6981 16.4276 17.5707 17.555C16.8244 18.3013 15.8736 18.6393 14.6685 18.8014C13.4912 18.9597 11.9822 18.9597 10.0565 18.9596H9.96089C8.03525 18.9597 6.52624 18.9597 5.34886 18.8014C4.14377 18.6393 3.19295 18.3013 2.44667 17.555C1.70038 16.8087 1.36229 15.8579 1.20027 14.6528C1.04197 13.4754 1.04198 11.9664 1.04199 10.0407V9.94511C1.04198 8.01948 1.04197 6.51047 1.20027 5.33309C1.36229 4.128 1.70038 3.17718 2.44667 2.43089C3.57408 1.30348 5.18655 1.09585 7.4919 1.04314C7.83699 1.03525 8.12314 1.3086 8.13103 1.65369ZM14.3841 2.29297C12.5456 2.29297 11.0596 3.7766 11.0596 5.60137C11.0596 6.01107 11.1535 6.37043 11.25 6.62985C11.2979 6.7585 11.3451 6.85921 11.3787 6.92512C11.3955 6.95796 11.4087 6.98184 11.4168 6.99588L11.4246 7.00933C11.579 7.25534 11.5425 7.57546 11.3367 7.78041L6.5587 12.5389C6.54639 12.5512 6.5227 12.5793 6.50074 12.6186C6.47921 12.6572 6.46629 12.6941 6.46122 12.7251C6.45661 12.7534 6.45826 12.7765 6.46568 12.7996C6.47293 12.8223 6.49332 12.8687 6.5587 12.9338L7.08717 13.4602C7.10298 13.4719 7.12755 13.4879 7.15866 13.5032C7.19932 13.5231 7.23871 13.5356 7.27219 13.5405C7.30392 13.5452 7.32517 13.5426 7.34022 13.538C7.35293 13.5342 7.3808 13.5235 7.42175 13.4827L8.06469 12.8424C8.30856 12.5995 8.7029 12.5995 8.94676 12.8424C9.04254 12.9378 9.12243 12.9774 9.1793 12.9948C9.2368 13.0124 9.2938 13.0142 9.35258 13.003C9.48282 12.978 9.60122 12.8919 9.65571 12.823C9.73115 12.7141 9.7287 12.6194 9.69263 12.5117C9.67261 12.4519 9.64375 12.398 9.61855 12.3583C9.60646 12.3392 9.59657 12.3256 9.59127 12.3186C9.58983 12.3167 9.58815 12.3146 9.58815 12.3146C9.38003 12.0663 9.39598 11.6995 9.62614 11.4703L9.80984 11.2873C10.0537 11.0444 10.448 11.0444 10.6919 11.2873C11.0119 11.606 11.224 11.602 11.3261 11.5826C11.4705 11.5552 11.6049 11.4515 11.6762 11.3597C11.77 11.2254 11.7704 11.1054 11.7441 10.995C11.7296 10.9345 11.7071 10.8817 11.688 10.8445C11.6788 10.8266 11.6714 10.8141 11.6677 10.8082L11.6669 10.8069L11.6432 10.7738L11.6212 10.7299C11.6132 10.7142 11.6005 10.6951 11.5601 10.6505C11.5588 10.649 11.5563 10.6464 11.5528 10.6428C11.522 10.6103 11.4135 10.4962 11.3469 10.3767C11.2329 10.1723 11.2013 9.9236 11.3002 9.66962C11.3764 9.47394 11.517 9.31273 11.6468 9.18342L12.1979 8.63455C12.4263 8.40713 12.7901 8.39063 13.0381 8.59645C13.1378 8.67918 13.3507 8.76841 13.6543 8.83127C13.9395 8.89031 14.2228 8.90977 14.3841 8.90977C16.2226 8.90977 17.7087 7.42614 17.7087 5.60137C17.7087 3.7766 16.2226 2.29297 14.3841 2.29297ZM10.9575 12.8149C10.9315 13.0526 10.8469 13.307 10.6669 13.558L10.6627 13.5639L10.6583 13.5697C10.4352 13.8659 10.0512 14.1419 9.58771 14.2307C9.26018 14.2934 8.91026 14.2586 8.57644 14.0969L8.30382 14.3684C7.92687 14.7438 7.47671 14.8343 7.08942 14.7771C6.73322 14.7244 6.43949 14.5516 6.26297 14.4009C6.25081 14.3905 6.23905 14.3797 6.22772 14.3684L5.67663 13.8195C5.27502 13.4196 5.15793 12.9497 5.2276 12.5235C5.29086 12.1365 5.49866 11.8304 5.67663 11.6532L10.136 7.21207C10.117 7.16624 10.0977 7.11735 10.0784 7.06556C9.94527 6.70753 9.80959 6.19789 9.80959 5.60137C9.80959 3.08143 11.8601 1.04297 14.3841 1.04297C16.9082 1.04297 18.9587 3.08143 18.9587 5.60137C18.9587 8.12131 16.9082 10.1598 14.3841 10.1598C14.1474 10.1598 13.7786 10.1335 13.4009 10.0553C13.2004 10.0138 12.9681 9.95197 12.7427 9.85616L12.6217 9.97673C12.654 10.0218 12.687 10.0731 12.7183 10.1308C12.7218 10.1362 12.7255 10.1421 12.7294 10.1483C12.749 10.18 12.7739 10.2225 12.8005 10.2746C12.8533 10.3775 12.9169 10.5248 12.9598 10.7044C13.0478 11.0726 13.0487 11.5909 12.6876 12.0944L12.6834 12.1003L12.679 12.1061C12.4735 12.379 12.0869 12.7106 11.5591 12.8107C11.3622 12.8481 11.1604 12.8505 10.9575 12.8149ZM14.3841 4.85425C13.966 4.85425 13.6314 5.19116 13.6314 5.60137C13.6314 6.01158 13.966 6.34848 14.3841 6.34848C14.8023 6.34848 15.1369 6.01158 15.1369 5.60137C15.1369 5.19116 14.8023 4.85425 14.3841 4.85425ZM12.3814 5.60137C12.3814 4.49598 13.2805 3.60425 14.3841 3.60425C15.4878 3.60425 16.3869 4.49598 16.3869 5.60137C16.3869 6.70675 15.4878 7.59848 14.3841 7.59848C13.2805 7.59848 12.3814 6.70676 12.3814 5.60137Z" fill="#858B93"/>
</svg>
