<svg width="16" height="16" viewBox="0 0 16 16" fill="none" xmlns="http://www.w3.org/2000/svg">
<path fill-rule="evenodd" clip-rule="evenodd" d="M7.99994 0.833252C5.14647 0.833252 2.83328 3.14645 2.83328 5.99992V6.46932C2.83328 6.93394 2.69575 7.38815 2.43803 7.77474L1.67229 8.92334C0.783564 10.2564 1.46204 12.0684 3.00776 12.49C3.51151 12.6274 4.0195 12.7436 4.53044 12.8386L4.5317 12.8421C5.04437 14.21 6.41457 15.1666 7.9999 15.1666C9.58523 15.1666 10.9554 14.21 11.4681 12.8421L11.4694 12.8387C11.9803 12.7436 12.4884 12.6274 12.9921 12.49C14.5379 12.0684 15.2163 10.2564 14.3276 8.92334L13.5619 7.77474C13.3041 7.38815 13.1666 6.93394 13.1666 6.46932V5.99992C13.1666 3.14645 10.8534 0.833252 7.99994 0.833252ZM10.2509 13.0246C8.75558 13.2032 7.24421 13.2032 5.74891 13.0246C6.22288 13.7056 7.04726 14.1666 7.9999 14.1666C8.95254 14.1666 9.77691 13.7056 10.2509 13.0246ZM3.83328 5.99992C3.83328 3.69873 5.69876 1.83325 7.99994 1.83325C10.3011 1.83325 12.1666 3.69873 12.1666 5.99992V6.46932C12.1666 7.13136 12.3626 7.77859 12.7298 8.32944L13.4955 9.47804C14.0057 10.2432 13.6162 11.2833 12.729 11.5252C9.63284 12.3697 6.36705 12.3697 3.27088 11.5252C2.38366 11.2833 1.99423 10.2432 2.50435 9.47804L3.27008 8.32944C3.63731 7.77859 3.83328 7.13136 3.83328 6.46932V5.99992Z" fill="#858B93"/>
</svg>
