<svg width="24" height="24" viewBox="0 0 24 24" fill="none" xmlns="http://www.w3.org/2000/svg">
<rect width="24" height="24" rx="12" fill="#5627DD" fill-opacity="0.2"/>
<path d="M15.4171 13.4296L15.0755 13.7693C15.0755 13.7693 14.2636 14.5766 12.0473 12.3729C9.83109 10.1693 10.643 9.36193 10.643 9.36193L10.8581 9.14804C11.3881 8.62113 11.438 7.77518 10.9757 7.15761L10.0299 5.89431C9.45771 5.12994 8.35197 5.02896 7.69609 5.68112L6.51889 6.85164C6.19367 7.17501 5.97574 7.59419 6.00217 8.0592C6.06978 9.24886 6.60804 11.8085 9.61152 14.7949C12.7966 17.9619 15.7851 18.0878 17.0072 17.9739C17.3938 17.9378 17.7299 17.7409 18.0008 17.4716L19.0663 16.4122C19.7854 15.6971 19.5827 14.4712 18.6625 13.971L17.2296 13.1921C16.6254 12.8636 15.8893 12.9601 15.4171 13.4296Z" fill="url(#paint0_linear_10496_23281)"/>
<defs>
<linearGradient id="paint0_linear_10496_23281" x1="12.75" y1="5.25" x2="12.75" y2="18" gradientUnits="userSpaceOnUse">
<stop stop-color="#9542FF"/>
<stop offset="1" stop-color="#6369FF"/>
</linearGradient>
</defs>
</svg>
