<svg width="16" height="17" viewBox="0 0 16 17" fill="none" xmlns="http://www.w3.org/2000/svg">
<path d="M7.99992 12.334C8.27606 12.334 8.49992 12.1101 8.49992 11.834V7.83398C8.49992 7.55784 8.27606 7.33398 7.99992 7.33398C7.72378 7.33398 7.49992 7.55784 7.49992 7.83398V11.834C7.49992 12.1101 7.72378 12.334 7.99992 12.334Z" fill="#858B93"/>
<path d="M7.99992 5.16732C8.36811 5.16732 8.66659 5.46579 8.66659 5.83398C8.66659 6.20217 8.36811 6.50065 7.99992 6.50065C7.63173 6.50065 7.33325 6.20217 7.33325 5.83398C7.33325 5.46579 7.63173 5.16732 7.99992 5.16732Z" fill="#858B93"/>
<path fill-rule="evenodd" clip-rule="evenodd" d="M0.833252 8.50065C0.833252 4.54261 4.04188 1.33398 7.99992 1.33398C11.958 1.33398 15.1666 4.54261 15.1666 8.50065C15.1666 12.4587 11.958 15.6673 7.99992 15.6673C4.04188 15.6673 0.833252 12.4587 0.833252 8.50065ZM7.99992 2.33398C4.59416 2.33398 1.83325 5.0949 1.83325 8.50065C1.83325 11.9064 4.59416 14.6673 7.99992 14.6673C11.4057 14.6673 14.1666 11.9064 14.1666 8.50065C14.1666 5.0949 11.4057 2.33398 7.99992 2.33398Z" fill="#858B93"/>
</svg>
