<svg width="20" height="21" viewBox="0 0 20 21" fill="none" xmlns="http://www.w3.org/2000/svg">
<path d="M9.99967 3.20801C10.3449 3.20801 10.6247 3.48783 10.6247 3.83301C10.6247 4.17819 10.3449 4.45801 9.99967 4.45801C6.66295 4.45801 3.95801 7.16295 3.95801 10.4997C3.95801 13.8364 6.66295 16.5413 9.99967 16.5413C10.3449 16.5413 10.6247 16.8212 10.6247 17.1663C10.6247 17.5115 10.3449 17.7913 9.99967 17.7913C5.9726 17.7913 2.70801 14.5268 2.70801 10.4997C2.70801 6.4726 5.9726 3.20801 9.99967 3.20801Z" fill="#858B93"/>
<path d="M13.7244 8.44162C13.4803 8.19754 13.4803 7.80181 13.7244 7.55773C13.9685 7.31365 14.3642 7.31365 14.6083 7.55773L17.1083 10.0577C17.3524 10.3018 17.3524 10.6975 17.1083 10.9416L14.6083 13.4416C14.3642 13.6857 13.9685 13.6857 13.7244 13.4416C13.4803 13.1975 13.4803 12.8018 13.7244 12.5577L15.1575 11.1247H8.33301C7.98783 11.1247 7.70801 10.8449 7.70801 10.4997C7.70801 10.1545 7.98783 9.87467 8.33301 9.87467H15.1575L13.7244 8.44162Z" fill="#858B93"/>
</svg>
