<svg width="18" height="18" viewBox="0 0 18 18" fill="none" xmlns="http://www.w3.org/2000/svg">
<path fill-rule="evenodd" clip-rule="evenodd" d="M9.00033 17.3327C13.6027 17.3327 17.3337 13.6017 17.3337 8.99935C17.3337 4.39698 13.6027 0.666016 9.00033 0.666016C4.39795 0.666016 0.666992 4.39698 0.666992 8.99935C0.666992 13.6017 4.39795 17.3327 9.00033 17.3327ZM9.62533 6.49935C9.62533 6.15417 9.3455 5.87435 9.00033 5.87435C8.65515 5.87435 8.37533 6.15417 8.37533 6.49935L8.37532 8.37437H6.50033C6.15515 8.37437 5.87533 8.65419 5.87533 8.99937C5.87533 9.34455 6.15515 9.62437 6.50033 9.62437H8.37532V11.4993C8.37532 11.8445 8.65515 12.1243 9.00032 12.1243C9.3455 12.1243 9.62532 11.8445 9.62532 11.4993L9.62533 9.62437H11.5003C11.8455 9.62437 12.1253 9.34455 12.1253 8.99937C12.1253 8.65419 11.8455 8.37437 11.5003 8.37437H9.62533V6.49935Z" fill="#1AAF74"/>
</svg>
