<svg width="17" height="16" viewBox="0 0 17 16" fill="none" xmlns="http://www.w3.org/2000/svg">
<path d="M11.6006 9.33366C11.9688 9.33366 12.2673 9.03518 12.2673 8.66699C12.2673 8.2988 11.9688 8.00033 11.6006 8.00033C11.2324 8.00033 10.9339 8.2988 10.9339 8.66699C10.9339 9.03518 11.2324 9.33366 11.6006 9.33366Z" fill="#858B93"/>
<path d="M11.6006 12.0003C11.9688 12.0003 12.2673 11.7018 12.2673 11.3337C12.2673 10.9655 11.9688 10.667 11.6006 10.667C11.2324 10.667 10.9339 10.9655 10.9339 11.3337C10.9339 11.7018 11.2324 12.0003 11.6006 12.0003Z" fill="#858B93"/>
<path d="M8.93392 8.66699C8.93392 9.03518 8.63544 9.33366 8.26725 9.33366C7.89906 9.33366 7.60059 9.03518 7.60059 8.66699C7.60059 8.2988 7.89906 8.00033 8.26725 8.00033C8.63544 8.00033 8.93392 8.2988 8.93392 8.66699Z" fill="#858B93"/>
<path d="M8.93392 11.3337C8.93392 11.7018 8.63544 12.0003 8.26725 12.0003C7.89906 12.0003 7.60059 11.7018 7.60059 11.3337C7.60059 10.9655 7.89906 10.667 8.26725 10.667C8.63544 10.667 8.93392 10.9655 8.93392 11.3337Z" fill="#858B93"/>
<path d="M4.93392 9.33366C5.30211 9.33366 5.60059 9.03518 5.60059 8.66699C5.60059 8.2988 5.30211 8.00033 4.93392 8.00033C4.56573 8.00033 4.26725 8.2988 4.26725 8.66699C4.26725 9.03518 4.56573 9.33366 4.93392 9.33366Z" fill="#858B93"/>
<path d="M4.93392 12.0003C5.30211 12.0003 5.60059 11.7018 5.60059 11.3337C5.60059 10.9655 5.30211 10.667 4.93392 10.667C4.56573 10.667 4.26725 10.9655 4.26725 11.3337C4.26725 11.7018 4.56573 12.0003 4.93392 12.0003Z" fill="#858B93"/>
<path fill-rule="evenodd" clip-rule="evenodd" d="M4.93392 1.16699C5.21006 1.16699 5.43392 1.39085 5.43392 1.66699V2.17547C5.87525 2.16698 6.36147 2.16699 6.89622 2.16699H9.6382C10.173 2.16699 10.6593 2.16698 11.1006 2.17547V1.66699C11.1006 1.39085 11.3244 1.16699 11.6006 1.16699C11.8767 1.16699 12.1006 1.39085 12.1006 1.66699V2.21838C12.2739 2.2316 12.438 2.2482 12.5933 2.26908C13.3749 2.37417 14.0075 2.59558 14.5064 3.09449C15.0053 3.5934 15.2267 4.22603 15.3318 5.00764C15.4339 5.76711 15.4339 6.73753 15.4339 7.96269V9.37127C15.4339 10.5964 15.4339 11.5669 15.3318 12.3263C15.2267 13.108 15.0053 13.7406 14.5064 14.2395C14.0075 14.7384 13.3749 14.9598 12.5933 15.0649C11.8338 15.167 10.8634 15.167 9.63822 15.167H6.89631C5.67115 15.167 4.70071 15.167 3.94124 15.0649C3.15962 14.9598 2.52699 14.7384 2.02808 14.2395C1.52917 13.7406 1.30776 13.108 1.20268 12.3263C1.10057 11.5669 1.10058 10.5964 1.10059 9.37127V7.96271C1.10058 6.73754 1.10057 5.76712 1.20268 5.00764C1.30776 4.22603 1.52917 3.5934 2.02808 3.09449C2.52699 2.59558 3.15962 2.37417 3.94124 2.26908C4.09652 2.2482 4.26062 2.2316 4.43392 2.21838V1.66699C4.43392 1.39085 4.65778 1.16699 4.93392 1.16699ZM4.07449 3.26016C3.40376 3.35034 3.01733 3.51945 2.73519 3.80159C2.45305 4.08373 2.28394 4.47017 2.19376 5.14089C2.17849 5.25448 2.16572 5.37407 2.15504 5.50033H14.3795C14.3688 5.37407 14.356 5.25448 14.3407 5.14089C14.2506 4.47017 14.0815 4.08373 13.7993 3.80159C13.5172 3.51945 13.1307 3.35034 12.46 3.26016C11.7749 3.16805 10.8718 3.16699 9.60059 3.16699H6.93392C5.66271 3.16699 4.75959 3.16805 4.07449 3.26016ZM2.10059 8.00033C2.10059 7.43098 2.1008 6.93548 2.10931 6.50033H14.4252C14.4337 6.93548 14.4339 7.43098 14.4339 8.00033V9.33366C14.4339 10.6049 14.4329 11.508 14.3407 12.1931C14.2506 12.8638 14.0815 13.2502 13.7993 13.5324C13.5172 13.8145 13.1307 13.9836 12.46 14.0738C11.7749 14.1659 10.8718 14.167 9.60059 14.167H6.93392C5.66271 14.167 4.75959 14.1659 4.07449 14.0738C3.40376 13.9836 3.01733 13.8145 2.73519 13.5324C2.45305 13.2502 2.28394 12.8638 2.19376 12.1931C2.10165 11.508 2.10059 10.6049 2.10059 9.33366V8.00033Z" fill="#858B93"/>
</svg>
