<svg width="20" height="20" viewBox="0 0 20 20" fill="none" xmlns="http://www.w3.org/2000/svg">
<path fill-rule="evenodd" clip-rule="evenodd" d="M5.62484 6.66602C5.62484 4.24977 7.58359 2.29102 9.99984 2.29102C12.0376 2.29102 13.7513 3.6847 14.237 5.5718C14.3231 5.90609 14.6638 6.10733 14.9981 6.02129C15.3324 5.93525 15.5336 5.59451 15.4476 5.26023C14.8232 2.83426 12.6217 1.04102 9.99984 1.04102C6.89324 1.04102 4.37484 3.55941 4.37484 6.66602V7.75166C4.18581 7.76495 4.00765 7.78225 3.84005 7.80478C3.08996 7.90563 2.45839 8.12138 1.9568 8.62297C1.4552 9.12457 1.23945 9.75613 1.13861 10.5062C1.04147 11.2287 1.04149 12.1473 1.0415 13.2869V13.3784C1.04149 14.5181 1.04147 15.4367 1.13861 16.1591C1.23945 16.9092 1.4552 17.5408 1.9568 18.0424C2.45839 18.544 3.08996 18.7597 3.84005 18.8606C4.56252 18.9577 5.48112 18.9577 6.62078 18.9577H13.3789C14.5186 18.9577 15.4372 18.9577 16.1596 18.8606C16.9097 18.7597 17.5413 18.544 18.0429 18.0424C18.5445 17.5408 18.7602 16.9092 18.8611 16.1591C18.9582 15.4367 18.9582 14.5181 18.9582 13.3784V13.287C18.9582 12.1473 18.9582 11.2287 18.8611 10.5062C18.7602 9.75613 18.5445 9.12457 18.0429 8.62297C17.5413 8.12138 16.9097 7.90563 16.1596 7.80478C15.4372 7.70765 14.5186 7.70767 13.3789 7.70768H6.62078C6.26784 7.70768 5.93611 7.70767 5.62484 7.71055V6.66602ZM2.84068 9.50686C3.07132 9.27622 3.39513 9.12585 4.00661 9.04364C4.63606 8.95901 5.47032 8.95768 6.6665 8.95768H13.3332C14.5294 8.95768 15.3636 8.95901 15.9931 9.04364C16.6046 9.12585 16.9284 9.27622 17.159 9.50686C17.3896 9.73749 17.54 10.0613 17.6222 10.6728C17.7068 11.3022 17.7082 12.1365 17.7082 13.3327C17.7082 14.5289 17.7068 15.3631 17.6222 15.9926C17.54 16.6041 17.3896 16.9279 17.159 17.1585C16.9284 17.3891 16.6046 17.5395 15.9931 17.6217C15.3636 17.7064 14.5294 17.7077 13.3332 17.7077H6.6665C5.47032 17.7077 4.63606 17.7064 4.00661 17.6217C3.39513 17.5395 3.07132 17.3891 2.84068 17.1585C2.61004 16.9279 2.45967 16.6041 2.37746 15.9926C2.29283 15.3631 2.29151 14.5289 2.29151 13.3327C2.29151 12.1365 2.29283 11.3022 2.37746 10.6728C2.45967 10.0613 2.61004 9.73749 2.84068 9.50686Z" fill="#858B93"/>
</svg>
