<svg width="20" height="20" viewBox="0 0 20 20" fill="none" xmlns="http://www.w3.org/2000/svg">
<path fill-rule="evenodd" clip-rule="evenodd" d="M13.7244 7.05822C13.4803 7.3023 13.4803 7.69803 13.7244 7.9421L15.1575 9.37516H8.33301C7.98783 9.37516 7.70801 9.65498 7.70801 10.0002C7.70801 10.3453 7.98783 10.6252 8.33301 10.6252H15.1575L13.7244 12.0582C13.4803 12.3023 13.4803 12.698 13.7244 12.9421C13.9685 13.1862 14.3642 13.1862 14.6083 12.9421L17.1083 10.4421C17.3524 10.198 17.3524 9.8023 17.1083 9.55822L14.6083 7.05822C14.3642 6.81414 13.9685 6.81414 13.7244 7.05822Z" fill="#858B93"/>
<path d="M3.33301 10.0002C3.33301 13.6821 6.31778 16.6668 9.99967 16.6668V13.5418C9.99967 12.7562 9.99967 12.3633 9.7556 12.1192C9.51152 11.8752 9.11868 11.8752 8.33301 11.8752C7.29747 11.8752 6.45801 11.0357 6.45801 10.0002C6.45801 8.96463 7.29747 8.12516 8.33301 8.12516C9.11868 8.12516 9.51152 8.12516 9.7556 7.88108C9.99967 7.63701 9.99967 7.24417 9.99967 6.4585V3.3335C6.31778 3.3335 3.33301 6.31826 3.33301 10.0002Z" fill="#858B93"/>
</svg>
