<svg width="16" height="16" viewBox="0 0 16 16" fill="none" xmlns="http://www.w3.org/2000/svg">
<path d="M7.99967 11.8335C8.27582 11.8335 8.49967 11.6096 8.49967 11.3335V7.3335C8.49967 7.05735 8.27582 6.8335 7.99967 6.8335C7.72353 6.8335 7.49967 7.05735 7.49967 7.3335V11.3335C7.49967 11.6096 7.72353 11.8335 7.99967 11.8335Z" fill="#858B93"/>
<path d="M7.99967 4.66683C8.36786 4.66683 8.66634 4.96531 8.66634 5.3335C8.66634 5.70169 8.36786 6.00016 7.99967 6.00016C7.63148 6.00016 7.33301 5.70169 7.33301 5.3335C7.33301 4.96531 7.63148 4.66683 7.99967 4.66683Z" fill="#858B93"/>
<path fill-rule="evenodd" clip-rule="evenodd" d="M0.833008 8.00016C0.833008 4.04212 4.04163 0.833496 7.99967 0.833496C11.9577 0.833496 15.1663 4.04212 15.1663 8.00016C15.1663 11.9582 11.9577 15.1668 7.99967 15.1668C4.04163 15.1668 0.833008 11.9582 0.833008 8.00016ZM7.99967 1.8335C4.59392 1.8335 1.83301 4.59441 1.83301 8.00016C1.83301 11.4059 4.59392 14.1668 7.99967 14.1668C11.4054 14.1668 14.1663 11.4059 14.1663 8.00016C14.1663 4.59441 11.4054 1.8335 7.99967 1.8335Z" fill="#858B93"/>
</svg>
