<svg width="20" height="20" viewBox="0 0 20 20" fill="none" xmlns="http://www.w3.org/2000/svg">
<path fill-rule="evenodd" clip-rule="evenodd" d="M5.12002 0H11.8134L17.4777 5.91241V17.3942C17.4777 18.8321 16.3171 20 14.8791 20H5.12002C3.68936 20 2.52148 18.8321 2.52148 17.3942V2.59853C2.52146 1.16788 3.68936 0 5.12002 0Z" fill="#1AAF74"/>
<path opacity="0.302" fill-rule="evenodd" clip-rule="evenodd" d="M11.8057 0V5.86131H17.4772L11.8057 0Z" fill="white"/>
<path d="M8.74025 14.562H7.76946L7.10523 13.4452L6.44099 14.562H5.46289L6.61619 12.6204L5.6016 10.9343H6.57967L7.10521 11.8102L7.62345 10.9343H8.60154L7.59423 12.6277L8.74025 14.562ZM9.08332 14.562V10.9343H10.0103V13.7737H11.587V14.562H9.08332V14.562ZM13.1198 14.6058C12.7548 14.6058 12.4337 14.489 12.1563 14.2628C11.8862 14.0438 11.733 13.7664 11.7111 13.4379L12.5067 13.2044C12.5286 13.3795 12.6016 13.5328 12.7257 13.6496C12.8571 13.7664 13.003 13.8248 13.1636 13.8248C13.295 13.8248 13.4045 13.7956 13.4921 13.7372C13.5724 13.6788 13.6162 13.5985 13.6162 13.5036C13.6162 13.4234 13.5797 13.3577 13.514 13.2993C13.4483 13.2482 13.3607 13.2044 13.2585 13.1679C13.1563 13.1314 13.0322 13.0949 12.9081 13.0657C12.7767 13.0292 12.6453 12.9854 12.5213 12.927C12.3899 12.8759 12.2731 12.8102 12.1709 12.7299C12.0614 12.6569 11.9811 12.5475 11.9154 12.4087C11.8497 12.2774 11.8132 12.1168 11.8132 11.9343C11.8132 11.635 11.9373 11.3869 12.1928 11.1898C12.4483 10.9854 12.7548 10.8905 13.1125 10.8905C13.4702 10.8905 13.784 10.9781 14.0468 11.146C14.3096 11.3212 14.4774 11.5474 14.5431 11.8248L13.711 12.1752C13.6745 12.0219 13.6015 11.8978 13.4993 11.8029C13.3971 11.7153 13.2658 11.6642 13.1125 11.6642C12.9957 11.6642 12.9081 11.6934 12.8351 11.7372C12.7694 11.781 12.7402 11.8467 12.7402 11.927C12.7402 12 12.784 12.0657 12.8716 12.1168C12.9592 12.1606 13.076 12.1971 13.2074 12.219C13.3387 12.2409 13.4847 12.2774 13.638 12.3285C13.7986 12.3869 13.9373 12.4453 14.076 12.5256C14.2074 12.5986 14.3168 12.7226 14.4044 12.8832C14.4993 13.0511 14.5431 13.2482 14.5431 13.4745C14.5431 13.8102 14.4117 14.0876 14.149 14.292C13.8862 14.4963 13.5432 14.6058 13.1198 14.6058Z" fill="white"/>
</svg>
