<svg width="16" height="16" viewBox="0 0 16 16" fill="none" xmlns="http://www.w3.org/2000/svg">
<path fill-rule="evenodd" clip-rule="evenodd" d="M8.00008 5.49992C6.61937 5.49992 5.50008 6.61921 5.50008 7.99992C5.50008 9.38063 6.61937 10.4999 8.00008 10.4999C9.38079 10.4999 10.5001 9.38063 10.5001 7.99992C10.5001 6.61921 9.38079 5.49992 8.00008 5.49992ZM6.50008 7.99992C6.50008 7.17149 7.17166 6.49992 8.00008 6.49992C8.82851 6.49992 9.50008 7.17149 9.50008 7.99992C9.50008 8.82835 8.82851 9.49992 8.00008 9.49992C7.17166 9.49992 6.50008 8.82835 6.50008 7.99992Z" fill="#858B93"/>
<path fill-rule="evenodd" clip-rule="evenodd" d="M7.98324 0.833252C7.68693 0.833247 7.43957 0.833243 7.2365 0.847099C7.0251 0.861523 6.82542 0.892618 6.63182 0.972807C6.1826 1.15888 5.8257 1.51578 5.63963 1.965C5.54276 2.19886 5.51653 2.44533 5.50651 2.71323C5.49845 2.92858 5.38977 3.10826 5.22938 3.20086C5.06899 3.29346 4.85905 3.29774 4.66852 3.19704C4.4315 3.07176 4.20494 2.97125 3.95397 2.93821C3.4719 2.87474 2.98436 3.00538 2.59861 3.30138C2.43237 3.42894 2.3056 3.58632 2.1874 3.76219C2.07387 3.93113 1.95019 4.14535 1.80204 4.40196L1.78521 4.43112C1.63705 4.68773 1.51337 4.90194 1.42383 5.08474C1.33062 5.27503 1.25771 5.46351 1.23036 5.67126C1.16689 6.15333 1.29753 6.64087 1.59352 7.02662C1.7476 7.22742 1.9479 7.37336 2.17486 7.51596C2.35738 7.63065 2.45867 7.81466 2.45866 7.99991C2.45865 8.18513 2.35736 8.36912 2.17486 8.48378C1.94787 8.6264 1.74755 8.77235 1.59346 8.97317C1.29746 9.35892 1.16683 9.84646 1.23029 10.3285C1.25764 10.5363 1.33055 10.7248 1.42376 10.9151C1.5133 11.0978 1.63698 11.3121 1.78513 11.5687L1.80198 11.5978C1.95013 11.8544 2.0738 12.0687 2.18734 12.2376C2.30553 12.4135 2.4323 12.5709 2.59854 12.6984C2.9843 12.9944 3.47183 13.125 3.9539 13.0616C4.20486 13.0285 4.43141 12.928 4.66842 12.8028C4.85897 12.7021 5.06894 12.7063 5.22935 12.799C5.38976 12.8916 5.49845 13.0713 5.50651 13.2866C5.51653 13.5545 5.54276 13.801 5.63963 14.0348C5.8257 14.4841 6.1826 14.841 6.63182 15.027C6.82542 15.1072 7.0251 15.1383 7.2365 15.1527C7.43957 15.1666 7.68693 15.1666 7.98324 15.1666H8.01691C8.31322 15.1666 8.56058 15.1666 8.76365 15.1527C8.97505 15.1383 9.17474 15.1072 9.36833 15.027C9.81754 14.841 10.1744 14.4841 10.3605 14.0348C10.4574 13.801 10.4836 13.5545 10.4936 13.2866C10.5017 13.0712 10.6104 12.8916 10.7708 12.7989C10.9312 12.7063 11.1411 12.702 11.3317 12.8027C11.5687 12.928 11.7952 13.0285 12.0462 13.0615C12.5283 13.125 13.0158 12.9944 13.4015 12.6984C13.5678 12.5708 13.6946 12.4134 13.8127 12.2376C13.9263 12.0686 14.0499 11.8544 14.1981 11.5978L14.2149 11.5686C14.3631 11.3121 14.4868 11.0978 14.5763 10.915C14.6695 10.7247 14.7424 10.5362 14.7698 10.3285C14.8333 9.84642 14.7026 9.35888 14.4066 8.97313C14.2525 8.77232 14.0522 8.62637 13.8252 8.48375C13.6428 8.36909 13.5415 8.18511 13.5415 7.99988C13.5415 7.81468 13.6428 7.63073 13.8252 7.51608C14.0523 7.37345 14.2526 7.22749 14.4067 7.02666C14.7027 6.64091 14.8333 6.15338 14.7699 5.67131C14.7425 5.46355 14.6696 5.27508 14.5764 5.08479C14.4869 4.902 14.3632 4.6878 14.215 4.43122L14.1982 4.40204C14.05 4.14542 13.9263 3.93117 13.8128 3.76223C13.6946 3.58637 13.5678 3.42898 13.4016 3.30142C13.0159 3.00542 12.5283 2.87479 12.0462 2.93825C11.7953 2.97129 11.5687 3.0718 11.3317 3.19706C11.1412 3.29778 10.9312 3.29349 10.7708 3.20088C10.6104 3.10827 10.5017 2.92857 10.4936 2.71319C10.4836 2.44531 10.4574 2.19885 10.3605 1.965C10.1744 1.51578 9.81755 1.15888 9.36833 0.972807C9.17474 0.892618 8.97505 0.861523 8.76365 0.847099C8.56058 0.833243 8.31322 0.833247 8.01691 0.833252H7.98324ZM7.01451 1.89669C7.06594 1.87538 7.14409 1.85573 7.30457 1.84478C7.46955 1.83352 7.68261 1.83325 8.00008 1.83325C8.31754 1.83325 8.5306 1.83352 8.69558 1.84478C8.85606 1.85573 8.93421 1.87538 8.98564 1.89669C9.18983 1.98126 9.35206 2.14349 9.43664 2.34768C9.46332 2.41209 9.48544 2.5125 9.49434 2.75057C9.5141 3.27882 9.78676 3.78744 10.2708 4.06691C10.7548 4.34637 11.3317 4.32819 11.799 4.08117C12.0096 3.96985 12.1077 3.9388 12.1768 3.9297C12.3959 3.90085 12.6175 3.96023 12.7928 4.09477C12.837 4.12867 12.8931 4.18651 12.9828 4.32002C13.0751 4.45727 13.1818 4.64165 13.3406 4.91659C13.4993 5.19152 13.6056 5.37617 13.6783 5.52467C13.7491 5.66913 13.7711 5.74663 13.7784 5.80183C13.8073 6.02095 13.7479 6.24256 13.6133 6.4179C13.5709 6.47322 13.495 6.54258 13.2932 6.66934C12.8457 6.95055 12.5415 7.44095 12.5415 7.99983C12.5415 8.55877 12.8456 9.04924 13.2932 9.33049C13.4949 9.45722 13.5708 9.52658 13.6133 9.58189C13.7478 9.75723 13.8072 9.97884 13.7783 10.198C13.7711 10.2532 13.749 10.3307 13.6783 10.4751C13.6055 10.6236 13.4992 10.8083 13.3405 11.0832C13.1818 11.3581 13.075 11.5425 12.9828 11.6798C12.893 11.8133 12.8369 11.8711 12.7928 11.905C12.6174 12.0396 12.3958 12.0989 12.1767 12.0701C12.1076 12.061 12.0096 12.0299 11.799 11.9186C11.3316 11.6716 10.7548 11.6534 10.2707 11.9329C9.78672 12.2124 9.51409 12.721 9.49434 13.2492C9.48544 13.4873 9.46332 13.5877 9.43664 13.6522C9.35206 13.8563 9.18984 14.0186 8.98564 14.1032C8.93421 14.1245 8.85606 14.1441 8.69558 14.1551C8.5306 14.1663 8.31754 14.1666 8.00008 14.1666C7.68261 14.1666 7.46955 14.1663 7.30457 14.1551C7.14409 14.1441 7.06594 14.1245 7.01451 14.1032C6.81032 14.0186 6.64809 13.8563 6.56351 13.6522C6.53683 13.5877 6.51471 13.4873 6.50581 13.2493C6.48605 12.721 6.21339 12.2124 5.72935 11.9329C5.2453 11.6535 4.66849 11.6717 4.20114 11.9187C3.99051 12.03 3.8925 12.061 3.82338 12.0701C3.60426 12.099 3.38265 12.0396 3.20731 11.9051C3.16314 11.8712 3.10705 11.8133 3.01732 11.6798C2.92508 11.5426 2.81832 11.3582 2.65959 11.0833C2.50085 10.8083 2.39456 10.6237 2.32182 10.4752C2.25106 10.3307 2.229 10.2532 2.22174 10.198C2.19289 9.97888 2.25227 9.75728 2.38681 9.58193C2.42925 9.52662 2.50515 9.45726 2.70688 9.33052C3.15447 9.04929 3.45863 8.55887 3.45866 7.99996C3.45869 7.44099 3.15452 6.9505 2.70689 6.66924C2.5052 6.54251 2.42931 6.47316 2.38688 6.41786C2.25233 6.24252 2.19295 6.02091 2.2218 5.80179C2.22907 5.74659 2.25112 5.66909 2.32188 5.52463C2.39462 5.37613 2.50092 5.19148 2.65965 4.91654C2.81839 4.6416 2.92515 4.45722 3.01739 4.31998C3.10711 4.18647 3.1632 4.12862 3.20737 4.09473C3.38271 3.96018 3.60432 3.9008 3.82344 3.92965C3.89257 3.93875 3.99059 3.96981 4.20124 4.08114C4.66857 4.32815 5.24536 4.34633 5.72938 4.06689C6.2134 3.78744 6.48606 3.27883 6.50581 2.7506C6.51471 2.51251 6.53683 2.4121 6.56351 2.34768C6.64809 2.14349 6.81032 1.98126 7.01451 1.89669Z" fill="#858B93"/>
</svg>
