<svg width="24" height="25" viewBox="0 0 24 25" fill="none" xmlns="http://www.w3.org/2000/svg">
<path d="M5.34736 4.52406C4.98194 4.15865 4.38948 4.15865 4.02406 4.52406C3.65865 4.88948 3.65865 5.48194 4.02406 5.84736L10.6767 12.5L4.02413 19.1526C3.65871 19.5181 3.65871 20.1105 4.02413 20.4759C4.38955 20.8414 4.98201 20.8414 5.34743 20.4759L12 13.8233L18.6526 20.4759C19.018 20.8413 19.6105 20.8413 19.9759 20.4759C20.3413 20.1105 20.3413 19.518 19.9759 19.1526L13.3233 12.5L19.9759 5.84742C20.3414 5.482 20.3414 4.88954 19.9759 4.52412C19.6105 4.1587 19.0181 4.1587 18.6526 4.52412L12 11.1767L5.34736 4.52406Z" fill="#858B93"/>
</svg>
