<svg width="20" height="20" viewBox="0 0 20 20" fill="none" xmlns="http://www.w3.org/2000/svg">
<path fill-rule="evenodd" clip-rule="evenodd" d="M8.96325 2.28523C4.72576 2.28523 1.2906 5.72039 1.2906 9.95788C1.2906 14.1954 4.72576 17.6305 8.96325 17.6305C9.00075 17.6312 9.0393 17.6322 9.07898 17.6332L9.07949 17.6332C9.51499 17.6438 10.0856 17.6576 10.88 17.4302C11.2062 17.3369 11.562 17.4866 11.6895 17.801C11.8199 18.1228 11.661 18.4907 11.3257 18.5812C10.3722 18.8384 9.39519 18.8876 8.96325 18.8747C4.0386 18.8747 0.0463867 14.8825 0.0463867 9.95788C0.0463867 5.03323 4.0386 1.04102 8.96325 1.04102C13.8879 1.04102 17.8801 5.03323 17.8801 9.95788V10.0499C17.8801 10.3935 17.6016 10.672 17.258 10.672C16.9144 10.672 16.6359 10.3935 16.6359 10.0499V9.95788C16.6359 5.72039 13.2007 2.28523 8.96325 2.28523ZM8.91967 6.01823H9.00592C9.75119 6.01821 10.3727 6.01819 10.866 6.08452C11.3868 6.15453 11.8569 6.30854 12.2347 6.68634C12.6125 7.06414 12.7665 7.53429 12.8365 8.05503C12.9028 8.54837 12.9028 9.16982 12.9028 9.91507V9.91511V10.0014V10.0014C12.9028 10.7467 12.9028 11.3681 12.8365 11.8615C12.7665 12.3822 12.6125 12.8523 12.2347 13.2301C11.8569 13.6079 11.3868 13.762 10.866 13.832C10.3727 13.8983 9.75123 13.8983 9.00599 13.8982H9.00592H8.91967H8.9196C8.17436 13.8983 7.55293 13.8983 7.05958 13.832C6.53884 13.762 6.0687 13.6079 5.69089 13.2301C5.31309 12.8523 5.15908 12.3822 5.08907 11.8615C5.02274 11.3681 5.02276 10.7466 5.02279 10.0014V9.91511C5.02276 9.16984 5.02274 8.54838 5.08907 8.05503C5.15908 7.53429 5.31309 7.06414 5.69089 6.68634C6.0687 6.30854 6.53884 6.15453 7.05958 6.08452C7.55294 6.01819 8.1744 6.01821 8.91967 6.01823ZM7.22537 7.31763C6.8426 7.3691 6.67878 7.45803 6.57069 7.56613C6.46259 7.67422 6.37365 7.83804 6.32219 8.22081C6.26832 8.62148 6.267 9.15862 6.267 9.95824C6.267 10.7579 6.26832 11.295 6.32219 11.6957C6.37365 12.0784 6.46259 12.2423 6.57069 12.3503C6.67878 12.4584 6.8426 12.5474 7.22537 12.5988C7.62604 12.6527 8.16317 12.654 8.9628 12.654C9.76242 12.654 10.2996 12.6527 10.7002 12.5988C11.083 12.5474 11.2468 12.4584 11.3549 12.3503C11.463 12.2423 11.5519 12.0784 11.6034 11.6957C11.6573 11.295 11.6586 10.7579 11.6586 9.95824C11.6586 9.15862 11.6573 8.62148 11.6034 8.22081C11.5519 7.83804 11.463 7.67422 11.3549 7.56613C11.2468 7.45803 11.083 7.3691 10.7002 7.31763C10.2996 7.26377 9.76242 7.26244 8.9628 7.26244C8.16317 7.26244 7.62604 7.26377 7.22537 7.31763ZM16.4696 11.9899C16.814 11.9899 16.9861 11.9899 17.122 12.0429C17.303 12.1137 17.4469 12.2493 17.5219 12.42C17.5561 12.498 17.5695 12.5886 17.5748 12.7208C17.5825 12.9151 17.6882 13.0949 17.8668 13.1922C18.0454 13.2894 18.2634 13.2857 18.4457 13.1949C18.5698 13.1331 18.6597 13.0987 18.7484 13.0877C18.9428 13.0636 19.1393 13.1132 19.2948 13.2257C19.4114 13.3101 19.4975 13.4507 19.6697 13.7318C19.8418 14.013 19.9279 14.1535 19.9471 14.2909C19.9727 14.4742 19.92 14.6594 19.8007 14.8061C19.7462 14.873 19.6697 14.9292 19.5509 14.9996C19.3763 15.1031 19.2639 15.2793 19.2639 15.4737C19.2639 15.6681 19.3762 15.8443 19.5509 15.9478C19.6697 16.0182 19.7462 16.0744 19.8007 16.1413C19.92 16.2879 19.9727 16.4732 19.9471 16.6564C19.9279 16.7938 19.8418 16.9344 19.6696 17.2156C19.4975 17.4967 19.4114 17.6373 19.2948 17.7217C19.1393 17.8342 18.9427 17.8838 18.7484 17.8597C18.6597 17.8487 18.5698 17.8143 18.4457 17.7525C18.2634 17.6617 18.0453 17.658 17.8667 17.7553C17.6882 17.8525 17.5825 18.0323 17.5748 18.2266C17.5695 18.3588 17.5561 18.4494 17.5219 18.5274C17.4469 18.6981 17.303 18.8337 17.122 18.9045C16.9861 18.9575 16.814 18.9575 16.4696 18.9575C16.1253 18.9575 15.9531 18.9575 15.8173 18.9045C15.6362 18.8337 15.4924 18.6981 15.4174 18.5274C15.3831 18.4494 15.3697 18.3588 15.3645 18.2266C15.3568 18.0323 15.2511 17.8525 15.0725 17.7553C14.8939 17.658 14.6759 17.6617 14.4935 17.7525C14.3695 17.8143 14.2795 17.8487 14.1908 17.8597C13.9965 17.8838 13.8 17.8342 13.6445 17.7217C13.5279 17.6373 13.4418 17.4968 13.2696 17.2156C13.0974 16.9344 13.0114 16.7939 12.9922 16.6565C12.9666 16.4733 13.0192 16.288 13.1386 16.1414C13.193 16.0744 13.2696 16.0182 13.3884 15.9478C13.563 15.8444 13.6754 15.6681 13.6754 15.4737C13.6754 15.2793 13.563 15.103 13.3884 14.9996C13.2696 14.9292 13.1931 14.8729 13.1386 14.806C13.0193 14.6594 12.9666 14.4741 12.9922 14.2909C13.0114 14.1535 13.0975 14.0129 13.2696 13.7318C13.4418 13.4506 13.5279 13.3101 13.6445 13.2257C13.8 13.1132 13.9965 13.0635 14.1909 13.0877C14.2796 13.0987 14.3695 13.133 14.4936 13.1949C14.6759 13.2857 14.8939 13.2894 15.0725 13.1921C15.2511 13.0949 15.3568 12.9151 15.3645 12.7208C15.3697 12.5886 15.3831 12.498 15.4174 12.42C15.4924 12.2493 15.6362 12.1137 15.8173 12.0429C15.9531 11.9899 16.1253 11.9899 16.4696 11.9899ZM17.5782 15.4737C17.5782 16.0509 17.0819 16.5188 16.4696 16.5188C15.8574 16.5188 15.3611 16.0509 15.3611 15.4737C15.3611 14.8965 15.8574 14.4286 16.4696 14.4286C17.0819 14.4286 17.5782 14.8965 17.5782 15.4737Z" fill="#858B93"/>
</svg>
