<svg width="20" height="21" viewBox="0 0 20 21" fill="none" xmlns="http://www.w3.org/2000/svg">
<path fill-rule="evenodd" clip-rule="evenodd" d="M14.167 2.79199C12.211 2.79199 10.6254 4.37765 10.6254 6.33366C10.6254 6.90134 10.7585 7.43614 10.9946 7.91021C11.1271 8.17624 11.182 8.50219 11.0946 8.82879L10.8837 9.61699L11.6719 9.4061C11.9985 9.31871 12.3244 9.3736 12.5905 9.5061C13.0645 9.74223 13.5993 9.87533 14.167 9.87533C16.123 9.87533 17.7087 8.28967 17.7087 6.33366C17.7087 4.37765 16.123 2.79199 14.167 2.79199ZM9.37536 6.33366C9.37536 3.68729 11.5207 1.54199 14.167 1.54199C16.8134 1.54199 18.9587 3.68729 18.9587 6.33366C18.9587 8.98002 16.8134 11.1253 14.167 11.1253C13.4016 11.1253 12.6765 10.9454 12.0332 10.625C12.0188 10.6178 12.0072 10.615 12.0002 10.6142C11.9969 10.6137 11.995 10.6138 11.9942 10.6138L11.0675 10.8618C10.2002 11.0938 9.40686 10.3004 9.63889 9.43322L9.88684 8.50653C9.8869 8.50573 9.88694 8.50378 9.88653 8.5005C9.88566 8.49349 9.88286 8.48191 9.87569 8.4675C9.55527 7.82421 9.37536 7.09905 9.37536 6.33366ZM3.09841 3.91043C4.12022 2.83465 5.81041 3.0362 6.65507 4.23085L7.70589 5.71709C8.3815 6.67265 8.32443 8.00112 7.51812 8.85002L7.31407 9.06484C7.31351 9.06632 7.31291 9.06793 7.31229 9.06967C7.30151 9.09997 7.27425 9.19646 7.30108 9.37958C7.3567 9.7592 7.64974 10.5306 8.83945 11.7831C10.0329 13.0396 10.7568 13.3358 11.0923 13.3902C11.237 13.4137 11.3127 13.3933 11.3368 13.3848L11.6773 13.0263C12.4055 12.2597 13.5408 12.1087 14.4562 12.6356L16.0482 13.552C17.409 14.3352 17.7257 16.2512 16.6382 17.3961L15.4545 18.6424C15.085 19.0314 14.5812 19.3634 13.9586 19.4249C12.4388 19.5749 8.91782 19.3795 5.22666 15.4934C1.78236 11.8672 1.12804 8.71312 1.04533 7.1721C1.00446 6.41071 1.34386 5.75763 1.7904 5.28751L2.24357 5.71794L1.7904 5.28751L3.09841 3.91043ZM5.63441 4.95249C5.20745 4.34862 4.44042 4.31259 4.00473 4.77129L2.69673 6.14837C2.42057 6.43911 2.27567 6.77236 2.29353 7.10511C2.36107 8.36329 2.90288 11.2319 6.13299 14.6325C9.5198 18.1982 12.64 18.299 13.8359 18.1809C14.0723 18.1576 14.3156 18.0264 14.5481 17.7816L15.7319 16.5353C16.2426 15.9976 16.1087 15.0291 15.4247 14.6353L13.8326 13.7189C13.4054 13.473 12.9049 13.549 12.5837 13.8872L12.2041 14.2868L11.751 13.8563C12.2041 14.2868 12.2035 14.2874 12.203 14.288L12.2018 14.2892L12.1993 14.2918L12.194 14.2971L12.1821 14.3089C12.1735 14.3172 12.1636 14.3264 12.1524 14.3362C12.13 14.3559 12.1023 14.3782 12.069 14.4019C12.0022 14.4492 11.9133 14.5013 11.8008 14.5456C11.5708 14.6364 11.2671 14.685 10.8919 14.6241C10.1606 14.5053 9.20218 13.9801 7.93313 12.644C6.66034 11.304 6.17321 10.3042 6.06428 9.5608C6.00884 9.18241 6.05321 8.87941 6.13463 8.6506C6.17467 8.53808 6.22195 8.44836 6.26554 8.38023C6.28728 8.34625 6.30801 8.31781 6.32632 8.29466C6.33548 8.28309 6.34405 8.27283 6.35184 8.26387L6.36295 8.25138L6.36803 8.24585L6.37045 8.24326L6.37163 8.24201C6.37221 8.2414 6.37278 8.24079 6.82595 8.67122L6.37278 8.24079L6.6118 7.98916C6.98308 7.59827 7.03702 6.93628 6.68523 6.43873L5.63441 4.95249Z" fill="#858B93"/>
</svg>
