<svg width="16" height="17" viewBox="0 0 16 17" fill="none" xmlns="http://www.w3.org/2000/svg">
<path d="M7.99414 2.45312C7.62614 2.45312 7.32747 2.75179 7.32747 3.11979V7.78646H2.66081C2.29281 7.78646 1.99414 8.08512 1.99414 8.45312C1.99414 8.82113 2.29281 9.11979 2.66081 9.11979H7.32747V13.7865C7.32747 14.1545 7.62614 14.4531 7.99414 14.4531C8.36214 14.4531 8.66081 14.1545 8.66081 13.7865V9.11979H13.3275C13.6955 9.11979 13.9941 8.82113 13.9941 8.45312C13.9941 8.08512 13.6955 7.78646 13.3275 7.78646H8.66081V3.11979C8.66081 2.75179 8.36214 2.45312 7.99414 2.45312Z" fill="#1AAF74"/>
</svg>
