<svg width="20" height="21" viewBox="0 0 20 21" fill="none" xmlns="http://www.w3.org/2000/svg">
<path d="M6.95983 17.368C7.66073 18.259 8.76182 18.8332 10 18.8332C11.2382 18.8332 12.3393 18.259 13.0402 17.368C11.022 17.6415 8.97798 17.6415 6.95983 17.368Z" fill="#858B93"/>
<path fill-rule="evenodd" clip-rule="evenodd" d="M15.6243 8.58659V7.99984C15.6243 4.77818 13.1062 2.1665 10 2.1665C6.8938 2.1665 4.37573 4.77818 4.37573 7.99984V8.58659C4.37573 9.29075 4.17476 9.97915 3.79816 10.565L2.8753 12.0008C2.03235 13.3122 2.67587 15.0948 4.14197 15.5095C7.97728 16.5943 12.0227 16.5943 15.858 15.5095C17.3241 15.0948 17.9676 13.3122 17.1247 12.0008L16.2018 10.565C15.8252 9.97915 15.6243 9.29075 15.6243 8.58659ZM10 4.87484C10.3452 4.87484 10.625 5.15466 10.625 5.49984V8.83317C10.625 9.17835 10.3452 9.45817 10 9.45817C9.65482 9.45817 9.375 9.17835 9.375 8.83317V5.49984C9.375 5.15466 9.65482 4.87484 10 4.87484Z" fill="#858B93"/>
</svg>
