<svg width="25" height="26" viewBox="0 0 25 26" fill="none" xmlns="http://www.w3.org/2000/svg">
<path d="M17.9314 9.68341C17.9312 5.40501 14.4618 1.93699 10.1834 1.93699C5.90511 1.93714 2.43714 5.40511 2.43699 9.68341C2.43699 13.9618 5.90501 17.4312 10.1834 17.4314V19.3668C4.83538 19.3667 0.5 15.0315 0.5 9.68341C0.500152 4.33548 4.83548 0.000152323 10.1834 0C15.5315 0 19.8667 4.33538 19.8668 9.68341C19.8668 15.0316 15.5316 19.3668 10.1834 19.3668V17.4314C14.4619 17.4314 17.9314 13.9619 17.9314 9.68341Z" fill="#858B93"/>
<path d="M18.1571 23.0673C17.1537 22.0639 17.1537 20.4371 18.1571 19.4337C19.1605 18.4303 20.7873 18.4303 21.7907 19.4337L23.9708 21.6139C24.9742 22.6173 24.9742 24.2441 23.9708 25.2475C22.9674 26.2508 21.3406 26.2508 20.3372 25.2475L18.1571 23.0673Z" fill="#858B93"/>
<path d="M14.8823 18.0586C14.2803 17.4566 14.2803 16.4805 14.8823 15.8785C15.4843 15.2764 16.4604 15.2764 17.0625 15.8785L17.7892 16.6052C18.3912 17.2072 18.3912 18.1833 17.7892 18.7853C17.1871 19.3874 16.2111 19.3874 15.609 18.7853L14.8823 18.0586Z" fill="#858B93"/>
</svg>
