<svg width="16" height="17" viewBox="0 0 16 17" fill="none" xmlns="http://www.w3.org/2000/svg">
<path d="M7.99967 12.333C8.27582 12.333 8.49967 12.1091 8.49967 11.833V7.83301C8.49967 7.55687 8.27582 7.33301 7.99967 7.33301C7.72353 7.33301 7.49967 7.55687 7.49967 7.83301V11.833C7.49967 12.1091 7.72353 12.333 7.99967 12.333Z" fill="#858B93"/>
<path d="M7.99967 5.16634C8.36786 5.16634 8.66634 5.46482 8.66634 5.83301C8.66634 6.2012 8.36786 6.49967 7.99967 6.49967C7.63148 6.49967 7.33301 6.2012 7.33301 5.83301C7.33301 5.46482 7.63148 5.16634 7.99967 5.16634Z" fill="#858B93"/>
<path fill-rule="evenodd" clip-rule="evenodd" d="M0.833008 8.49967C0.833008 4.54163 4.04163 1.33301 7.99967 1.33301C11.9577 1.33301 15.1663 4.54163 15.1663 8.49967C15.1663 12.4577 11.9577 15.6663 7.99967 15.6663C4.04163 15.6663 0.833008 12.4577 0.833008 8.49967ZM7.99967 2.33301C4.59392 2.33301 1.83301 5.09392 1.83301 8.49967C1.83301 11.9054 4.59392 14.6663 7.99967 14.6663C11.4054 14.6663 14.1663 11.9054 14.1663 8.49967C14.1663 5.09392 11.4054 2.33301 7.99967 2.33301Z" fill="#858B93"/>
</svg>
