<svg width="20" height="21" viewBox="0 0 20 21" fill="none" xmlns="http://www.w3.org/2000/svg">
<path fill-rule="evenodd" clip-rule="evenodd" d="M18.3337 10.4998C18.3337 15.1022 14.6027 18.8332 10.0003 18.8332C5.39795 18.8332 1.66699 15.1022 1.66699 10.4998C1.66699 5.89746 5.39795 2.1665 10.0003 2.1665C14.6027 2.1665 18.3337 5.89746 18.3337 10.4998ZM10.0003 6.95817C9.48256 6.95817 9.06283 7.3779 9.06283 7.89567C9.06283 8.24085 8.783 8.52067 8.43783 8.52067C8.09265 8.52067 7.81283 8.24085 7.81283 7.89567C7.81283 6.68755 8.7922 5.70817 10.0003 5.70817C11.2084 5.70817 12.1878 6.68755 12.1878 7.89567C12.1878 8.48804 11.9515 9.02649 11.5695 9.41981C11.4926 9.49895 11.4192 9.57223 11.3493 9.64214C11.1694 9.82185 11.0118 9.97928 10.8736 10.1569C10.6911 10.3914 10.6253 10.5638 10.6253 10.7082V11.3332C10.6253 11.6783 10.3455 11.9582 10.0003 11.9582C9.65515 11.9582 9.37533 11.6783 9.37533 11.3332V10.7082C9.37533 10.1622 9.6295 9.7202 9.88713 9.38918C10.0778 9.14425 10.3174 8.90512 10.5118 8.71106C10.5705 8.65252 10.625 8.59808 10.6729 8.54881C10.8375 8.37937 10.9378 8.14987 10.9378 7.89567C10.9378 7.3779 10.5181 6.95817 10.0003 6.95817ZM10.0003 14.6665C10.4606 14.6665 10.8337 14.2934 10.8337 13.8332C10.8337 13.3729 10.4606 12.9998 10.0003 12.9998C9.54009 12.9998 9.16699 13.3729 9.16699 13.8332C9.16699 14.2934 9.54009 14.6665 10.0003 14.6665Z" fill="#858B93"/>
</svg>
