<svg width="20" height="20" viewBox="0 0 20 20" fill="none" xmlns="http://www.w3.org/2000/svg">
<path fill-rule="evenodd" clip-rule="evenodd" d="M7.49115 4.42299C8.47445 2.42104 10.534 1.0415 12.917 1.0415C16.2537 1.0415 18.9587 3.74645 18.9587 7.08317C18.9587 7.97658 18.7643 8.8263 18.4151 9.59095C18.3239 9.79051 18.3062 9.979 18.3467 10.1305L18.4528 10.5272C18.7926 11.797 17.6309 12.9588 16.361 12.619L15.9643 12.5129C15.8516 12.4827 15.7183 12.4848 15.5753 12.5255C15.1502 16.1477 12.0701 18.9582 8.33366 18.9582C7.20869 18.9582 6.14156 18.703 5.18857 18.2467C4.99991 18.1564 4.81416 18.1381 4.66136 18.179L3.63966 18.4523C2.3698 18.7921 1.20805 17.6304 1.54782 16.3605L1.82119 15.3388C1.86208 15.186 1.84375 15.0003 1.75343 14.8116C1.29719 13.8586 1.04199 12.7915 1.04199 11.6665C1.04199 7.92438 3.86093 4.84065 7.49115 4.42299ZM8.94615 4.4002C12.5501 4.69993 15.4098 7.62076 15.6137 11.2512C15.8325 11.2303 16.0598 11.2445 16.2874 11.3053L16.6841 11.4115C17.0248 11.5026 17.3365 11.191 17.2453 10.8503L17.1392 10.4536C17.0082 9.96411 17.0936 9.47551 17.2781 9.07159C17.5544 8.46669 17.7087 7.7938 17.7087 7.08317C17.7087 4.43681 15.5634 2.2915 12.917 2.2915C11.2654 2.2915 9.808 3.1272 8.94615 4.4002ZM8.33366 5.62484C4.99694 5.62484 2.29199 8.32978 2.29199 11.6665C2.29199 12.6007 2.50359 13.4837 2.88089 14.2718C3.07705 14.6816 3.15932 15.1738 3.02872 15.6619L2.75535 16.6836C2.66419 17.0243 2.97588 17.336 3.31657 17.2448L4.33827 16.9714C4.82638 16.8408 5.31858 16.9231 5.72834 17.1193C6.51643 17.4966 7.39946 17.7082 8.33366 17.7082C11.6704 17.7082 14.3753 15.0032 14.3753 11.6665C14.3753 8.32978 11.6704 5.62484 8.33366 5.62484Z" fill="#858B93"/>
<path d="M6.25033 11.6665C6.25033 12.1267 5.87723 12.4998 5.41699 12.4998C4.95676 12.4998 4.58366 12.1267 4.58366 11.6665C4.58366 11.2063 4.95676 10.8332 5.41699 10.8332C5.87723 10.8332 6.25033 11.2063 6.25033 11.6665Z" fill="#858B93"/>
<path d="M9.16699 11.6665C9.16699 12.1267 8.7939 12.4998 8.33366 12.4998C7.87342 12.4998 7.50033 12.1267 7.50033 11.6665C7.50033 11.2063 7.87342 10.8332 8.33366 10.8332C8.7939 10.8332 9.16699 11.2063 9.16699 11.6665Z" fill="#858B93"/>
<path d="M12.0837 11.6665C12.0837 12.1267 11.7106 12.4998 11.2503 12.4998C10.7901 12.4998 10.417 12.1267 10.417 11.6665C10.417 11.2063 10.7901 10.8332 11.2503 10.8332C11.7106 10.8332 12.0837 11.2063 12.0837 11.6665Z" fill="#858B93"/>
</svg>
