<svg width="20" height="21" viewBox="0 0 20 21" fill="none" xmlns="http://www.w3.org/2000/svg">
<path fill-rule="evenodd" clip-rule="evenodd" d="M6.87533 8.00033C6.87533 6.27444 8.27444 4.87533 10.0003 4.87533C11.7262 4.87533 13.1253 6.27444 13.1253 8.00033C13.1253 9.72622 11.7262 11.1253 10.0003 11.1253C8.27444 11.1253 6.87533 9.72622 6.87533 8.00033ZM10.0003 6.12533C8.96479 6.12533 8.12533 6.96479 8.12533 8.00033C8.12533 9.03586 8.96479 9.87533 10.0003 9.87533C11.0359 9.87533 11.8753 9.03586 11.8753 8.00033C11.8753 6.96479 11.0359 6.12533 10.0003 6.12533Z" fill="#858B93"/>
<path fill-rule="evenodd" clip-rule="evenodd" d="M1.04199 10.5003C1.04199 5.55277 5.05277 1.54199 10.0003 1.54199C14.9479 1.54199 18.9587 5.55277 18.9587 10.5003C18.9587 15.4479 14.9479 19.4587 10.0003 19.4587C5.05277 19.4587 1.04199 15.4479 1.04199 10.5003ZM10.0003 2.79199C5.74313 2.79199 2.29199 6.24313 2.29199 10.5003C2.29199 12.6216 3.14888 14.5428 4.53541 15.9366C4.68574 15.1257 4.98111 14.3611 5.57397 13.7462C6.46076 12.8266 7.8788 12.3753 10.0003 12.3753C12.1218 12.3753 13.5398 12.8266 14.4266 13.7462C15.0195 14.3611 15.3148 15.1257 15.4652 15.9367C16.8517 14.5429 17.7087 12.6217 17.7087 10.5003C17.7087 6.24313 14.2575 2.79199 10.0003 2.79199ZM14.3284 16.8798C14.2435 15.8699 14.0242 15.1297 13.5268 14.6139C12.9856 14.0526 11.9827 13.6253 10.0003 13.6253C8.01782 13.6253 7.015 14.0526 6.47378 14.6139C5.97638 15.1297 5.75708 15.8699 5.67218 16.8798C6.90603 17.7185 8.39594 18.2087 10.0003 18.2087C11.6047 18.2087 13.0946 17.7185 14.3284 16.8798Z" fill="#858B93"/>
</svg>
