<svg width="24" height="24" viewBox="0 0 24 24" fill="none" xmlns="http://www.w3.org/2000/svg">
<rect width="24" height="24" rx="12" fill="#CE67FF" fill-opacity="0.2"/>
<path fill-rule="evenodd" clip-rule="evenodd" d="M5.37868 6.87868C4.5 7.75736 4.5 9.17157 4.5 12C4.5 14.8284 4.5 16.2426 5.37868 17.1213C6.25736 18 7.67157 18 10.5 18H13.5C16.3284 18 17.7426 18 18.6213 17.1213C19.5 16.2426 19.5 14.8284 19.5 12C19.5 9.17157 19.5 7.75736 18.6213 6.87868C17.7426 6 16.3284 6 13.5 6H10.5C7.67157 6 6.25736 6 5.37868 6.87868ZM12.5627 10.5C12.5627 10.1893 12.3108 9.9375 12.0002 9.9375C11.6895 9.9375 11.4377 10.1893 11.4377 10.5V11.0259L10.9821 10.7629C10.7131 10.6075 10.3691 10.6997 10.2137 10.9688C10.0584 11.2378 10.1506 11.5818 10.4196 11.7371L10.8748 11.9999L10.4194 12.2629C10.1504 12.4182 10.0582 12.7622 10.2135 13.0312C10.3689 13.3003 10.7129 13.3925 10.9819 13.2371L11.4377 12.974V13.5C11.4377 13.8107 11.6895 14.0625 12.0002 14.0625C12.3108 14.0625 12.5627 13.8107 12.5627 13.5V12.9744L13.0177 13.2371C13.2867 13.3925 13.6307 13.3003 13.7861 13.0312C13.9414 12.7622 13.8492 12.4182 13.5802 12.2629L13.1248 11.9999L13.58 11.7371C13.849 11.5818 13.9412 11.2378 13.7859 10.9688C13.6306 10.6997 13.2865 10.6075 13.0175 10.7629L12.5627 11.0255V10.5ZM8.04949 9.9375C8.36015 9.9375 8.61199 10.1893 8.61199 10.5V11.0255L9.06683 10.7629C9.33587 10.6075 9.67989 10.6997 9.83522 10.9688C9.99055 11.2378 9.89837 11.5818 9.62933 11.7371L9.17413 11.9999L9.6295 12.2629C9.89854 12.4182 9.99072 12.7622 9.83539 13.0312C9.68006 13.3003 9.33604 13.3925 9.067 13.2371L8.61199 12.9744V13.5C8.61199 13.8107 8.36015 14.0625 8.04949 14.0625C7.73883 14.0625 7.48699 13.8107 7.48699 13.5V12.974L7.03125 13.2371C6.76221 13.3925 6.41819 13.3003 6.26286 13.0312C6.10753 12.7622 6.19971 12.4182 6.46875 12.2629L6.92413 11.9999L6.46893 11.7371C6.19989 11.5818 6.10771 11.2378 6.26304 10.9688C6.41837 10.6997 6.76239 10.6075 7.03143 10.7629L7.48699 11.0259V10.5C7.48699 10.1893 7.73883 9.9375 8.04949 9.9375ZM16.5135 10.5C16.5135 10.1893 16.2617 9.9375 15.951 9.9375C15.6404 9.9375 15.3885 10.1893 15.3885 10.5V11.0259L14.933 10.7629C14.6639 10.6075 14.3199 10.6997 14.1646 10.9688C14.0093 11.2378 14.1014 11.5818 14.3705 11.7371L14.8257 11.9999L14.3703 12.2629C14.1013 12.4182 14.0091 12.7622 14.1644 13.0312C14.3197 13.3003 14.6638 13.3925 14.9328 13.2371L15.3885 12.974V13.5C15.3885 13.8107 15.6404 14.0625 15.951 14.0625C16.2617 14.0625 16.5135 13.8107 16.5135 13.5V12.9744L16.9686 13.2371C17.2376 13.3925 17.5816 13.3003 17.7369 13.0312C17.8923 12.7622 17.8001 12.4182 17.5311 12.2629L17.0757 11.9999L17.5309 11.7371C17.7999 11.5818 17.8921 11.2378 17.7368 10.9688C17.5814 10.6997 17.2374 10.6075 16.9684 10.7629L16.5135 11.0255V10.5Z" fill="url(#paint0_linear_10435_6975)"/>
<defs>
<linearGradient id="paint0_linear_10435_6975" x1="11.9996" y1="6.21345" x2="11.9996" y2="17.7849" gradientUnits="userSpaceOnUse">
<stop stop-color="#FC64FF"/>
<stop offset="1" stop-color="#CE65FF"/>
</linearGradient>
</defs>
</svg>
