<svg width="26" height="26" viewBox="0 0 26 26" fill="none" xmlns="http://www.w3.org/2000/svg">
<rect x="1" y="1" width="24" height="24" rx="12" fill="#FF7067" fill-opacity="0.2"/>
<path d="M8.97371 15.8308C8.67488 15.532 8.51034 15.1347 8.51036 14.7121V10.7614L6.66892 10.7614C6.52906 10.7614 6.39492 10.8169 6.29603 10.9158C6.19711 11.0147 6.14158 11.1488 6.1416 11.2887L6.1416 18.1356C6.1416 18.2812 6.20059 18.413 6.29603 18.5085C6.39144 18.6039 6.52332 18.6629 6.66891 18.6629L16.9393 18.6629C17.0792 18.6629 17.2133 18.6074 17.3122 18.5085C17.4111 18.4096 17.4667 18.2755 17.4666 18.1356L17.4666 16.2942L10.0924 16.2942C9.66987 16.2942 9.27255 16.1297 8.97371 15.8308Z" fill="url(#paint0_linear_10496_23269)"/>
<path d="M20.8902 7.86523C20.8902 7.57398 20.654 7.33787 20.3628 7.33789L10.0924 7.33789C9.95252 7.33789 9.81838 7.39343 9.71949 7.49232C9.6206 7.59121 9.56504 7.72532 9.56506 7.86521L9.56506 14.7121C9.56506 14.8578 9.62408 14.9896 9.71949 15.085C9.8149 15.1804 9.94675 15.2395 10.0924 15.2394L20.3628 15.2395C20.5026 15.2395 20.6368 15.1839 20.7357 15.085C20.8346 14.9861 20.8901 14.852 20.8901 14.7122L20.8902 7.86523Z" fill="url(#paint1_linear_10496_23269)"/>
<defs>
<linearGradient id="paint0_linear_10496_23269" x1="19.8798" y1="6.63648" x2="10.5754" y2="15.9409" gradientUnits="userSpaceOnUse">
<stop stop-color="#FF4B4B"/>
<stop offset="1" stop-color="#EB3E91"/>
</linearGradient>
<linearGradient id="paint1_linear_10496_23269" x1="19.8798" y1="6.63648" x2="10.5754" y2="15.9409" gradientUnits="userSpaceOnUse">
<stop stop-color="#FF4B4B"/>
<stop offset="1" stop-color="#EB3E91"/>
</linearGradient>
</defs>
</svg>
