<svg width="20" height="20" viewBox="0 0 20 20" fill="none" xmlns="http://www.w3.org/2000/svg">
<path fill-rule="evenodd" clip-rule="evenodd" d="M5.12517 0H11.8118L17.479 5.90705V17.3963C17.479 18.8356 16.3146 20 14.8803 20H5.12517C3.6859 20 2.52148 18.8356 2.52148 17.3963V2.60369C2.52146 1.16441 3.68587 0 5.12517 0Z" fill="#F34859"/>
<path opacity="0.302" fill-rule="evenodd" clip-rule="evenodd" d="M11.8066 0V5.86207H17.4788L11.8066 0Z" fill="white"/>
<path d="M5.41504 14.9226V11.2694H6.96927C7.35408 11.2694 7.65893 11.3744 7.88882 11.5893C8.1187 11.7991 8.23365 12.084 8.23365 12.4388C8.23365 12.7936 8.1187 13.0785 7.88882 13.2884C7.65893 13.5033 7.35408 13.6082 6.96927 13.6082H6.34957V14.9226H5.41504ZM6.34957 12.8137H6.86432C7.00424 12.8137 7.11419 12.7837 7.18917 12.7137C7.26412 12.6487 7.30412 12.5588 7.30412 12.4389C7.30412 12.3189 7.26414 12.229 7.18917 12.164C7.11422 12.094 7.00427 12.064 6.86432 12.064H6.34957V12.8137ZM8.61843 14.9226V11.2694H9.91279C10.1677 11.2694 10.4075 11.3044 10.6324 11.3794C10.8573 11.4543 11.0622 11.5593 11.2421 11.7042C11.422 11.8441 11.567 12.034 11.6719 12.2739C11.7718 12.5138 11.8268 12.7887 11.8268 13.0985C11.8268 13.4034 11.7719 13.6782 11.6719 13.9181C11.567 14.158 11.422 14.3479 11.2421 14.4878C11.0622 14.6327 10.8573 14.7377 10.6324 14.8126C10.4075 14.8876 10.1677 14.9226 9.91279 14.9226H8.61843ZM9.53298 14.128H9.80284C9.94776 14.128 10.0827 14.113 10.2076 14.078C10.3276 14.043 10.4425 13.9881 10.5525 13.9131C10.6574 13.8381 10.7424 13.7332 10.8023 13.5933C10.8623 13.4533 10.8923 13.2884 10.8923 13.0985C10.8923 12.9036 10.8623 12.7387 10.8023 12.5988C10.7424 12.4588 10.6574 12.3539 10.5525 12.2789C10.4425 12.204 10.3276 12.149 10.2076 12.114C10.0827 12.079 9.94776 12.064 9.80284 12.064H9.53298V14.128ZM12.2966 14.9226V11.2694H14.8953V12.064H13.2311V12.6487H14.5605V13.4383H13.2311V14.9226H12.2966Z" fill="white"/>
</svg>
