<svg width="18" height="18" viewBox="0 0 18 18" fill="none" xmlns="http://www.w3.org/2000/svg">
<path d="M2.34736 1.02406C1.98194 0.658645 1.38948 0.658645 1.02406 1.02406C0.658645 1.38948 0.658645 1.98194 1.02406 2.34736L7.67673 9.00003L1.02413 15.6526C0.658707 16.0181 0.658708 16.6105 1.02413 16.9759C1.38955 17.3414 1.98201 17.3414 2.34743 16.9759L9.00003 10.3233L15.6526 16.9759C16.018 17.3413 16.6105 17.3413 16.9759 16.9759C17.3413 16.6105 17.3413 16.018 16.9759 15.6526L10.3233 9.00003L16.9759 2.34742C17.3414 1.982 17.3414 1.38954 16.9759 1.02412C16.6105 0.658705 16.0181 0.658704 15.6526 1.02412L9.00003 7.67673L2.34736 1.02406Z" fill="#858B93"/>
</svg>
