<svg width="16" height="16" viewBox="0 0 16 16" fill="none" xmlns="http://www.w3.org/2000/svg">
<path fill-rule="evenodd" clip-rule="evenodd" d="M7.3446 1.86739C4.24682 2.19448 1.83301 4.81519 1.83301 7.99967C1.83301 11.4054 4.59392 14.1663 7.99967 14.1663C11.1842 14.1663 13.8049 11.7525 14.132 8.65475C13.2475 9.77757 11.8748 10.4997 10.333 10.4997C7.66363 10.4997 5.49967 8.33572 5.49967 5.66634C5.49967 4.12459 6.22178 2.75187 7.3446 1.86739ZM0.833008 7.99967C0.833008 4.04163 4.04163 0.833008 7.99967 0.833008C8.47743 0.833008 8.7166 1.21385 8.75757 1.51719C8.79698 1.80899 8.68911 2.18011 8.3537 2.38279C7.24145 3.05488 6.49967 4.27422 6.49967 5.66634C6.49967 7.78343 8.21592 9.49967 10.333 9.49967C11.7251 9.49967 12.9445 8.7579 13.6166 7.64565C13.8192 7.31024 14.1904 7.20237 14.4822 7.24178C14.7855 7.28275 15.1663 7.52192 15.1663 7.99967C15.1663 11.9577 11.9577 15.1663 7.99967 15.1663C4.04163 15.1663 0.833008 11.9577 0.833008 7.99967Z" fill="#858B93"/>
</svg>
