<svg width="20" height="21" viewBox="0 0 20 21" fill="none" xmlns="http://www.w3.org/2000/svg">
<path fill-rule="evenodd" clip-rule="evenodd" d="M18.3337 10.5013C18.3337 15.1037 14.6027 18.8346 10.0003 18.8346C5.39795 18.8346 1.66699 15.1037 1.66699 10.5013C1.66699 5.89893 5.39795 2.16797 10.0003 2.16797C14.6027 2.16797 18.3337 5.89893 18.3337 10.5013ZM13.3589 7.97603C13.603 8.22011 13.603 8.61583 13.3589 8.85991L9.19227 13.0266C8.94819 13.2707 8.55246 13.2707 8.30838 13.0266L6.64172 11.3599C6.39764 11.1158 6.39764 10.7201 6.64172 10.476C6.8858 10.2319 7.28152 10.2319 7.5256 10.476L8.75033 11.7008L12.4751 7.97603C12.7191 7.73195 13.1149 7.73195 13.3589 7.97603Z" fill="#1AAF74"/>
</svg>
