<svg width="20" height="21" viewBox="0 0 20 21" fill="none" xmlns="http://www.w3.org/2000/svg">
<path fill-rule="evenodd" clip-rule="evenodd" d="M7.49115 4.92347C8.47445 2.92153 10.534 1.54199 12.917 1.54199C16.2537 1.54199 18.9587 4.24694 18.9587 7.58366C18.9587 8.47707 18.7643 9.32679 18.4151 10.0914C18.3239 10.291 18.3062 10.4795 18.3467 10.631L18.4528 11.0277C18.7926 12.2975 17.6309 13.4593 16.361 13.1195L15.9643 13.0134C15.8516 12.9832 15.7183 12.9853 15.5753 13.0259C15.1502 16.6482 12.0701 19.4587 8.33366 19.4587C7.20869 19.4587 6.14156 19.2035 5.18857 18.7472C4.99991 18.6569 4.81416 18.6386 4.66136 18.6795L3.63966 18.9528C2.3698 19.2926 1.20805 18.1309 1.54782 16.861L1.82119 15.8393C1.86208 15.6865 1.84375 15.5007 1.75343 15.3121C1.29719 14.3591 1.04199 13.292 1.04199 12.167C1.04199 8.42487 3.86093 5.34114 7.49115 4.92347ZM8.94615 4.90069C12.5501 5.20042 15.4098 8.12125 15.6137 11.7517C15.8325 11.7308 16.0598 11.7449 16.2874 11.8058L16.6841 11.912C17.0248 12.0031 17.3365 11.6914 17.2453 11.3507L17.1392 10.954C17.0082 10.4646 17.0936 9.976 17.2781 9.57208C17.5544 8.96717 17.7087 8.29428 17.7087 7.58366C17.7087 4.93729 15.5634 2.79199 12.917 2.79199C11.2654 2.79199 9.808 3.62769 8.94615 4.90069ZM8.33366 6.12533C4.99694 6.12533 2.29199 8.83027 2.29199 12.167C2.29199 13.1012 2.50359 13.9842 2.88089 14.7723C3.07705 15.1821 3.15932 15.6743 3.02872 16.1624L2.75535 17.1841C2.66419 17.5248 2.97588 17.8365 3.31657 17.7453L4.33827 17.4719C4.82638 17.3413 5.31858 17.4236 5.72834 17.6198C6.51643 17.9971 7.39946 18.2087 8.33366 18.2087C11.6704 18.2087 14.3753 15.5037 14.3753 12.167C14.3753 8.83027 11.6704 6.12533 8.33366 6.12533Z" fill="#858B93"/>
<path d="M6.25033 12.167C6.25033 12.6272 5.87723 13.0003 5.41699 13.0003C4.95676 13.0003 4.58366 12.6272 4.58366 12.167C4.58366 11.7068 4.95676 11.3337 5.41699 11.3337C5.87723 11.3337 6.25033 11.7068 6.25033 12.167Z" fill="#858B93"/>
<path d="M9.16699 12.167C9.16699 12.6272 8.7939 13.0003 8.33366 13.0003C7.87342 13.0003 7.50033 12.6272 7.50033 12.167C7.50033 11.7068 7.87342 11.3337 8.33366 11.3337C8.7939 11.3337 9.16699 11.7068 9.16699 12.167Z" fill="#858B93"/>
<path d="M12.0837 12.167C12.0837 12.6272 11.7106 13.0003 11.2503 13.0003C10.7901 13.0003 10.417 12.6272 10.417 12.167C10.417 11.7068 10.7901 11.3337 11.2503 11.3337C11.7106 11.3337 12.0837 11.7068 12.0837 12.167Z" fill="#858B93"/>
</svg>
