<svg width="16" height="16" viewBox="0 0 16 16" fill="none" xmlns="http://www.w3.org/2000/svg">
<path fill-rule="evenodd" clip-rule="evenodd" d="M7.9997 0.833008C5.14623 0.833008 2.83303 3.1462 2.83303 5.99967V6.46908C2.83303 6.93369 2.69551 7.38791 2.43779 7.77449L1.67205 8.9231C0.78332 10.2562 1.46179 12.0682 3.00752 12.4898C3.51126 12.6271 4.01926 12.7434 4.53019 12.8384L4.53146 12.8418C5.04412 14.2097 6.41433 15.1663 7.99966 15.1663C9.58499 15.1663 10.9552 14.2097 11.4679 12.8418L11.4691 12.8384C11.9801 12.7434 12.4881 12.6272 12.9919 12.4898C14.5376 12.0682 15.2161 10.2562 14.3274 8.9231L13.5616 7.77449C13.3039 7.38791 13.1664 6.93369 13.1664 6.46908V5.99967C13.1664 3.1462 10.8532 0.833008 7.9997 0.833008ZM10.2506 13.0243C8.75534 13.203 7.24397 13.203 5.74867 13.0243C6.22264 13.7053 7.04702 14.1663 7.99966 14.1663C8.95229 14.1663 9.77667 13.7053 10.2506 13.0243ZM3.83303 5.99967C3.83303 3.69849 5.69851 1.83301 7.9997 1.83301C10.3009 1.83301 12.1664 3.69849 12.1664 5.99967V6.46908C12.1664 7.13112 12.3623 7.77834 12.7296 8.32919L13.4953 9.4778C14.0054 10.243 13.616 11.283 12.7288 11.525C9.6326 12.3694 6.36681 12.3694 3.27064 11.525C2.38342 11.283 1.99399 10.243 2.5041 9.4778L3.26984 8.32919C3.63707 7.77834 3.83303 7.13112 3.83303 6.46908V5.99967Z" fill="#858B93"/>
</svg>
