<svg width="12" height="12" viewBox="0 0 12 12" fill="none" xmlns="http://www.w3.org/2000/svg">
<path d="M6.00002 1.375C5.51077 1.375 5.09355 1.68751 4.93893 2.12497C4.86992 2.32024 4.65567 2.42258 4.4604 2.35356C4.26513 2.28455 4.16279 2.0703 4.2318 1.87503C4.48902 1.14729 5.18304 0.625 6.00002 0.625C6.81699 0.625 7.51101 1.14729 7.76823 1.87503C7.83724 2.0703 7.7349 2.28455 7.53963 2.35356C7.34436 2.42258 7.13012 2.32024 7.0611 2.12497C6.90648 1.68751 6.48926 1.375 6.00002 1.375Z" fill="#858B93"/>
<path d="M1.375 3C1.375 2.79289 1.54289 2.625 1.75 2.625H10.25C10.4571 2.625 10.625 2.79289 10.625 3C10.625 3.20711 10.4571 3.375 10.25 3.375H1.75C1.54289 3.375 1.375 3.20711 1.375 3Z" fill="#858B93"/>
<path d="M2.95754 4.22505C2.94377 4.01841 2.76508 3.86205 2.55843 3.87583C2.35178 3.88961 2.19543 4.0683 2.2092 4.27494L2.44093 7.75081C2.48368 8.39218 2.51821 8.91025 2.59919 9.31679C2.68339 9.73945 2.8266 10.0925 3.1224 10.3692C3.4182 10.6459 3.77997 10.7654 4.2073 10.8213C4.61832 10.875 5.13754 10.875 5.78033 10.875H6.21975C6.86254 10.875 7.38176 10.875 7.79278 10.8213C8.22011 10.7654 8.58188 10.6459 8.87768 10.3692C9.17348 10.0925 9.31669 9.73945 9.40089 9.31679C9.48187 8.91026 9.5164 8.39219 9.55915 7.75082L9.79088 4.27494C9.80465 4.0683 9.6483 3.88961 9.44165 3.87583C9.235 3.86205 9.05631 4.01841 9.04254 4.22505L8.81257 7.67461C8.76764 8.34854 8.73562 8.81745 8.66534 9.17026C8.59717 9.51248 8.502 9.69363 8.36529 9.82153C8.22859 9.94942 8.04151 10.0323 7.69551 10.0776C7.3388 10.1242 6.8688 10.125 6.19338 10.125H5.8067C5.13128 10.125 4.66127 10.1242 4.30457 10.0776C3.95857 10.0323 3.77149 9.94942 3.63479 9.82153C3.49808 9.69363 3.40291 9.51248 3.33474 9.17026C3.26446 8.81745 3.23244 8.34854 3.18751 7.67461L2.95754 4.22505Z" fill="#858B93"/>
<path d="M4.71273 5.12686C4.91881 5.10625 5.10257 5.25661 5.12318 5.46269L5.37318 7.96269C5.39379 8.16876 5.24344 8.35253 5.03736 8.37314C4.83128 8.39375 4.64751 8.24339 4.6269 8.03731L4.3769 5.53731C4.3563 5.33123 4.50665 5.14747 4.71273 5.12686Z" fill="#858B93"/>
<path d="M7.62318 5.53731C7.64379 5.33123 7.49344 5.14747 7.28736 5.12686C7.08128 5.10625 6.89751 5.25661 6.8769 5.46269L6.6269 7.96269C6.6063 8.16876 6.75665 8.35253 6.96273 8.37314C7.16881 8.39375 7.35257 8.24339 7.37318 8.03731L7.62318 5.53731Z" fill="#858B93"/>
</svg>
