<svg width="76" height="76" viewBox="0 0 76 76" fill="none" xmlns="http://www.w3.org/2000/svg">
<g filter="url(#filter0_dd_205_155976)">
<rect x="20" y="20" width="36" height="36" rx="16" fill="white" shape-rendering="crispEdges"/>
<rect x="20.5" y="20.5" width="35" height="35" rx="15.5" stroke="#1AAF74" shape-rendering="crispEdges"/>
<path fill-rule="evenodd" clip-rule="evenodd" d="M42.4641 30.7998H43.4062C43.7533 30.7998 44.0343 31.0809 44.0343 31.4279V33.8257L46.2691 35.1508C46.634 35.3672 46.8579 35.7604 46.8579 36.1846C46.8579 37.0189 46.0416 37.5698 45.2896 37.3427V44.6193C45.2896 45.313 44.7272 45.8754 44.0335 45.8754H32.7281C32.0344 45.8754 31.472 45.313 31.472 44.6193V37.3413C30.719 37.5716 29.8999 37.0201 29.8999 36.1846C29.8999 35.7604 30.1238 35.3675 30.4887 35.1508L37.3159 31.1016C37.9707 30.7135 38.7853 30.7135 39.44 31.1016L41.8361 32.5223V31.4279C41.8361 31.0809 42.1171 30.7998 42.4641 30.7998Z" fill="#22B24C"/>
<path d="M44.4189 35.5196L38.4209 31.999L32.4229 35.5196V44.3211C32.4229 44.9692 32.9111 45.4946 33.5134 45.4946H43.3284C43.9307 45.4946 44.4189 44.9692 44.4189 44.3211V35.5196Z" fill="#50E07A"/>
<path d="M42.4229 36.4338L38.4229 33.999L34.4229 36.4338V42.5208C34.4229 42.969 34.7485 43.3324 35.1501 43.3324H41.6956C42.0972 43.3324 42.4229 42.969 42.4229 42.5208V36.4338Z" fill="#79F99F"/>
<path d="M40.4219 38.1793L38.4219 36.875L36.4219 38.1793V41.4402C36.4219 41.6803 36.5847 41.875 36.7855 41.875H40.0582C40.2591 41.875 40.4219 41.6803 40.4219 41.4402V38.1793Z" fill="#9EFFBB"/>
</g>
<defs>
<filter id="filter0_dd_205_155976" x="0" y="0" width="76" height="76" filterUnits="userSpaceOnUse" color-interpolation-filters="sRGB">
<feFlood flood-opacity="0" result="BackgroundImageFix"/>
<feColorMatrix in="SourceAlpha" type="matrix" values="0 0 0 0 0 0 0 0 0 0 0 0 0 0 0 0 0 0 127 0" result="hardAlpha"/>
<feOffset/>
<feGaussianBlur stdDeviation="5"/>
<feComposite in2="hardAlpha" operator="out"/>
<feColorMatrix type="matrix" values="0 0 0 0 0.183016 0 0 0 0 0.514423 0 0 0 0 0.310055 0 0 0 0.15 0"/>
<feBlend mode="normal" in2="BackgroundImageFix" result="effect1_dropShadow_205_155976"/>
<feColorMatrix in="SourceAlpha" type="matrix" values="0 0 0 0 0 0 0 0 0 0 0 0 0 0 0 0 0 0 127 0" result="hardAlpha"/>
<feOffset/>
<feGaussianBlur stdDeviation="10"/>
<feComposite in2="hardAlpha" operator="out"/>
<feColorMatrix type="matrix" values="0 0 0 0 0.183016 0 0 0 0 0.514423 0 0 0 0 0.310055 0 0 0 0.15 0"/>
<feBlend mode="normal" in2="effect1_dropShadow_205_155976" result="effect2_dropShadow_205_155976"/>
<feBlend mode="normal" in="SourceGraphic" in2="effect2_dropShadow_205_155976" result="shape"/>
</filter>
</defs>
</svg>
