<svg width="16" height="16" viewBox="0 0 16 16" fill="none" xmlns="http://www.w3.org/2000/svg">
<path fill-rule="evenodd" clip-rule="evenodd" d="M7.34509 1.86837C4.24731 2.19546 1.8335 4.81617 1.8335 8.00065C1.8335 11.4064 4.59441 14.1673 8.00016 14.1673C11.1846 14.1673 13.8054 11.7535 14.1324 8.65573C13.248 9.77855 11.8752 10.5007 10.3335 10.5007C7.66412 10.5007 5.50016 8.33669 5.50016 5.66732C5.50016 4.12557 6.22226 2.75285 7.34509 1.86837ZM0.833496 8.00065C0.833496 4.04261 4.04212 0.833984 8.00016 0.833984C8.47792 0.833984 8.71709 1.21482 8.75806 1.51816C8.79747 1.80997 8.6896 2.18109 8.35419 2.38376C7.24193 3.05585 6.50016 4.2752 6.50016 5.66732C6.50016 7.78441 8.2164 9.50065 10.3335 9.50065C11.7256 9.50065 12.945 8.75888 13.617 7.64663C13.8197 7.31121 14.1908 7.20335 14.4827 7.24276C14.786 7.28372 15.1668 7.5229 15.1668 8.00065C15.1668 11.9587 11.9582 15.1673 8.00016 15.1673C4.04212 15.1673 0.833496 11.9587 0.833496 8.00065Z" fill="#858B93"/>
</svg>
