<svg width="20" height="20" viewBox="0 0 20 20" fill="none" xmlns="http://www.w3.org/2000/svg">
<path fill-rule="evenodd" clip-rule="evenodd" d="M2.8146 4.23518C2.5 4.6834 2.5 6.01573 2.5 8.68038V9.99264C2.5 14.691 6.03247 16.9711 8.2488 17.9392C8.85001 18.2019 9.15062 18.3332 10 18.3332C10.8494 18.3332 11.15 18.2019 11.7512 17.9392C13.9675 16.9711 17.5 14.691 17.5 9.99264V8.68038C17.5 6.01573 17.5 4.6834 17.1854 4.23518C16.8708 3.78695 15.6181 3.35813 13.1126 2.5005L12.6352 2.3371C11.3292 1.89004 10.6762 1.6665 10 1.6665C9.32384 1.6665 8.67082 1.89004 7.36477 2.3371L6.88743 2.5005C4.38194 3.35813 3.12919 3.78695 2.8146 4.23518ZM11.25 12.4998C11.25 12.9601 10.8769 13.3332 10.4167 13.3332H9.58333C9.1231 13.3332 8.75 12.9601 8.75 12.4998V11.332C8.00275 10.8998 7.5 10.0919 7.5 9.1665C7.5 7.78579 8.61929 6.6665 10 6.6665C11.3807 6.6665 12.5 7.78579 12.5 9.1665C12.5 10.0919 11.9973 10.8998 11.25 11.332V12.4998Z" fill="#858B93"/>
</svg>
