<svg width="24" height="24" viewBox="0 0 24 24" fill="none" xmlns="http://www.w3.org/2000/svg">
<rect width="24" height="24" rx="12" fill="#67A4FF" fill-opacity="0.2"/>
<path d="M12.0021 3.83594C9.66878 3.83594 7.76138 5.74334 7.76138 8.07668C7.76138 10.41 9.66878 12.3174 12.0021 12.3174C14.3355 12.3174 16.2429 10.41 16.2429 8.07668C16.2429 5.74334 14.3355 3.83594 12.0021 3.83594Z" fill="url(#paint0_linear_10418_86)"/>
<path d="M19.2805 15.7022C19.1693 15.4244 19.0212 15.1652 18.8546 14.9244C18.0027 13.6652 16.6879 12.8318 15.2064 12.6281C15.0213 12.6096 14.8175 12.6466 14.6694 12.7578C13.8916 13.3318 12.9657 13.6281 12.0027 13.6281C11.0397 13.6281 10.1138 13.3318 9.33603 12.7578C9.18787 12.6466 8.98416 12.5911 8.79899 12.6281C7.31751 12.8318 5.98419 13.6652 5.15086 14.9244C4.9842 15.1652 4.83603 15.443 4.72495 15.7022C4.6694 15.8133 4.68791 15.943 4.74345 16.0541C4.89161 16.3133 5.07678 16.5726 5.24345 16.7948C5.50269 17.1467 5.78048 17.4615 6.09531 17.7578C6.35456 18.017 6.65085 18.2578 6.94717 18.4985C8.41012 19.5911 10.1694 20.1652 11.9842 20.1652C13.799 20.1652 15.5583 19.5911 17.0212 18.4985C17.3175 18.2763 17.6138 18.017 17.8731 17.7578C18.1694 17.4615 18.4657 17.1467 18.725 16.7948C18.9101 16.5541 19.0768 16.3133 19.225 16.0541C19.3175 15.943 19.336 15.8133 19.2805 15.7022Z" fill="url(#paint1_linear_10418_86)"/>
<defs>
<linearGradient id="paint0_linear_10418_86" x1="12.0016" y1="20.1652" x2="12.0016" y2="3.83594" gradientUnits="userSpaceOnUse">
<stop stop-color="#3461FF"/>
<stop offset="1" stop-color="#00C0FF"/>
</linearGradient>
<linearGradient id="paint1_linear_10418_86" x1="12.0016" y1="20.1652" x2="12.0016" y2="3.83594" gradientUnits="userSpaceOnUse">
<stop stop-color="#3461FF"/>
<stop offset="1" stop-color="#00C0FF"/>
</linearGradient>
</defs>
</svg>
