<svg width="64" height="65" viewBox="0 0 64 65" fill="none" xmlns="http://www.w3.org/2000/svg">
<path fill-rule="evenodd" clip-rule="evenodd" d="M33.1971 18.5721C31.1221 18.3206 28.948 18.7159 27.0007 19.8403C22.2184 22.6013 20.5798 28.7164 23.3409 33.4987C24.8301 36.078 27.2949 37.7428 30 38.2961V44.4994C30 45.6039 30.8954 46.4994 32 46.4994C33.1046 46.4994 34 45.6039 34 44.4994V38.2987C35.0282 38.0887 36.0405 37.712 36.9993 37.1584C38.9467 36.0341 40.3761 34.349 41.1958 32.4262C42.3847 29.6373 42.2953 26.3341 40.6591 23.5C39.0229 20.666 36.2068 18.937 33.1971 18.5721ZM29.0007 23.3044C30.1722 22.628 31.4713 22.3922 32.7158 22.5431C34.5304 22.763 36.2144 23.8015 37.195 25.5C38.1756 27.1985 38.233 29.1761 37.5162 30.8576C37.0246 32.0108 36.1708 33.018 34.9993 33.6943C32.1302 35.3508 28.4615 34.3678 26.805 31.4987C25.1485 28.6296 26.1316 24.9608 29.0007 23.3044Z" fill="#1AAF74"/>
<path fill-rule="evenodd" clip-rule="evenodd" d="M32 3.83203C29.4999 3.83203 27.1129 4.64959 23.2624 5.96834L21.3225 6.6324C17.3723 7.98456 14.3237 9.0281 12.1414 9.91466C11.0421 10.3613 10.097 10.7938 9.33595 11.2358C8.60358 11.6611 7.86886 12.1916 7.36969 12.9028C6.87628 13.6058 6.62116 14.47 6.46084 15.302C6.29417 16.1669 6.19366 17.2044 6.1288 18.3957C6 20.761 6 24.0014 6 28.2044V32.4757C6 48.7451 18.2881 56.5454 25.5956 59.7375L25.6678 59.7691C26.5739 60.165 27.4256 60.5372 28.4043 60.7877C29.4375 61.0522 30.5353 61.1654 32 61.1654C33.4647 61.1654 34.5625 61.0522 35.5957 60.7877C36.5743 60.5372 37.426 60.1651 38.3321 59.7691L38.4044 59.7375C45.7119 56.5454 58 48.7451 58 32.4757V28.2049C58 24.0016 58 20.7611 57.8712 18.3957C57.8063 17.2044 57.7058 16.1669 57.5392 15.302C57.3788 14.47 57.1237 13.6058 56.6303 12.9028C56.1311 12.1916 55.3964 11.6611 54.664 11.2358C53.903 10.7938 52.9579 10.3613 51.8586 9.91466C49.6763 9.02809 46.6277 7.98456 42.6774 6.63238L40.7376 5.96834C36.8872 4.64959 34.5001 3.83203 32 3.83203ZM24.215 9.87016C28.5204 8.3964 30.246 7.83203 32 7.83203C33.754 7.83203 35.4796 8.3964 39.785 9.87016L41.3125 10.393C45.3461 11.7737 48.2877 12.7815 50.3531 13.6205C51.384 14.0393 52.1309 14.3903 52.6552 14.6948C52.9141 14.8451 53.0924 14.9691 53.2115 15.066C53.3125 15.148 53.351 15.1945 53.3565 15.2013C53.3617 15.2096 53.3948 15.265 53.4415 15.3961C53.4948 15.5458 53.5539 15.7603 53.6114 16.0589C53.7279 16.6632 53.8161 17.4934 53.8771 18.6131C53.9993 20.8563 54 23.9876 54 28.2764V32.4757C54 46.2759 43.6803 53.0679 36.8032 56.072C35.8126 56.5047 35.2406 56.7497 34.6037 56.9127C33.9955 57.0684 33.2533 57.1654 32 57.1654C30.7467 57.1654 30.0045 57.0684 29.3963 56.9127C28.7594 56.7497 28.1874 56.5047 27.1968 56.072C20.3197 53.0679 10 46.2759 10 32.4757V28.2764C10 23.9876 10.0007 20.8563 10.1229 18.6131C10.1839 17.4934 10.2721 16.6632 10.3886 16.0589C10.4461 15.7603 10.5052 15.5458 10.5585 15.3961C10.6051 15.2651 10.6383 15.2097 10.6434 15.2013C10.649 15.1946 10.6875 15.1481 10.7885 15.066C10.9076 14.9691 11.0859 14.8451 11.3448 14.6948C11.8691 14.3903 12.616 14.0393 13.6469 13.6205C15.7123 12.7815 18.6539 11.7737 22.6875 10.393L24.215 9.87016Z" fill="#1AAF74"/>
</svg>
