<svg width="101" height="100" viewBox="0 0 101 100" fill="none" xmlns="http://www.w3.org/2000/svg">
<path d="M50.4997 73.9583C52.2256 73.9583 53.6247 72.5592 53.6247 70.8333V45.8333C53.6247 44.1074 52.2256 42.7083 50.4997 42.7083C48.7738 42.7083 47.3747 44.1074 47.3747 45.8333V70.8333C47.3747 72.5592 48.7738 73.9583 50.4997 73.9583Z" fill="#F34859"/>
<path d="M50.4997 29.1666C52.8009 29.1666 54.6663 31.0321 54.6663 33.3333C54.6663 35.6345 52.8009 37.5 50.4997 37.5C48.1985 37.5 46.333 35.6345 46.333 33.3333C46.333 31.0321 48.1985 29.1666 50.4997 29.1666Z" fill="#F34859"/>
<path fill-rule="evenodd" clip-rule="evenodd" d="M5.70801 50C5.70801 25.2622 25.7619 5.20831 50.4997 5.20831C75.2374 5.20831 95.2913 25.2622 95.2913 50C95.2913 74.7377 75.2374 94.7916 50.4997 94.7916C25.7619 94.7916 5.70801 74.7377 5.70801 50ZM50.4997 11.4583C29.2137 11.4583 11.958 28.714 11.958 50C11.958 71.2859 29.2137 88.5416 50.4997 88.5416C71.7856 88.5416 89.0413 71.2859 89.0413 50C89.0413 28.714 71.7856 11.4583 50.4997 11.4583Z" fill="#F34859"/>
</svg>
