<svg width="96" height="96" viewBox="0 0 96 96" fill="none" xmlns="http://www.w3.org/2000/svg">
<g filter="url(#filter0_d_10467_129)">
<rect x="40" y="36" width="16" height="16" rx="8" fill="#EE7F70" fill-opacity="0.3"/>
<g filter="url(#filter1_d_10467_129)">
<path d="M52.7102 41.6578H52.0089C51.4124 40.2414 50.0989 39.2121 48.5867 39.0155C47.0882 38.8158 45.6158 39.3925 44.6525 40.5536C44.3694 40.895 44.1447 41.2661 43.9803 41.6578H43.2906C42.7367 41.6578 42.2861 42.1084 42.2861 42.6623V44.0016C42.2861 44.5554 42.7367 45.006 43.2906 45.006H44.6656L44.5218 44.5669C44.1029 43.2878 44.3387 41.9808 45.1682 40.9813C45.9833 39.9987 47.2281 39.5125 48.4997 39.6793C49.8445 39.8545 51.0118 40.8055 51.4743 42.1028L51.4771 42.1103C51.5517 42.3085 51.604 42.5122 51.6341 42.7218C51.7345 43.3479 51.6772 43.9826 51.469 44.5571L51.4675 44.5611C50.9505 46.0289 49.56 47.0149 48.007 47.0149C47.4495 47.0149 46.996 47.4655 46.996 48.0194C46.996 48.5733 47.4465 49.0239 48.0004 49.0239C48.5543 49.0239 49.0049 48.5733 49.0049 48.0194V47.5678C50.3418 47.2501 51.4647 46.3024 52.0045 45.006H52.7102C53.2641 45.006 53.7147 44.5554 53.7147 44.0015V42.6622C53.7147 42.1084 53.2641 41.6578 52.7102 41.6578Z" fill="url(#paint0_linear_10467_129)"/>
<path d="M45.3087 45.5946C45.1461 45.6828 44.9873 45.8254 44.9873 46.0103C44.9873 46.1952 45.1372 46.3451 45.3221 46.3451H48.0007C49.6624 46.3451 51.0141 44.9934 51.0141 43.3318C51.0141 41.6701 49.6624 40.3184 48.0007 40.3184C46.339 40.3184 44.9873 41.6701 44.9873 43.3318C44.9873 43.911 45.1536 44.4735 45.4618 44.9553C45.5606 45.1097 45.6131 45.3096 45.4924 45.4476C45.4406 45.507 45.3784 45.5568 45.3087 45.5946ZM49.0052 43.3318C49.0052 43.1468 49.1551 42.9969 49.34 42.9969C49.5249 42.9969 49.6748 43.1468 49.6748 43.3318C49.6748 43.5167 49.5249 43.6666 49.34 43.6666C49.1551 43.6666 49.0052 43.5167 49.0052 43.3318ZM47.6659 43.3318C47.6659 43.1468 47.8158 42.9969 48.0007 42.9969C48.1856 42.9969 48.3355 43.1468 48.3355 43.3318C48.3355 43.5167 48.1856 43.6666 48.0007 43.6666C47.8158 43.6666 47.6659 43.5167 47.6659 43.3318ZM46.3266 43.3318C46.3266 43.1468 46.4765 42.9969 46.6614 42.9969C46.8463 42.9969 46.9962 43.1468 46.9962 43.3318C46.9962 43.5167 46.8463 43.6666 46.6614 43.6666C46.4765 43.6666 46.3266 43.5167 46.3266 43.3318Z" fill="url(#paint1_linear_10467_129)"/>
</g>
</g>
<defs>
<filter id="filter0_d_10467_129" x="0" y="0" width="96" height="96" filterUnits="userSpaceOnUse" color-interpolation-filters="sRGB">
<feFlood flood-opacity="0" result="BackgroundImageFix"/>
<feColorMatrix in="SourceAlpha" type="matrix" values="0 0 0 0 0 0 0 0 0 0 0 0 0 0 0 0 0 0 127 0" result="hardAlpha"/>
<feOffset dy="4"/>
<feGaussianBlur stdDeviation="20"/>
<feColorMatrix type="matrix" values="0 0 0 0 0.958333 0 0 0 0 0.672111 0 0 0 0 0.511111 0 0 0 0.4 0"/>
<feBlend mode="normal" in2="BackgroundImageFix" result="effect1_dropShadow_10467_129"/>
<feBlend mode="normal" in="SourceGraphic" in2="effect1_dropShadow_10467_129" result="shape"/>
</filter>
<filter id="filter1_d_10467_129" x="34.2861" y="35.548" width="27.4287" height="26.0469" filterUnits="userSpaceOnUse" color-interpolation-filters="sRGB">
<feFlood flood-opacity="0" result="BackgroundImageFix"/>
<feColorMatrix in="SourceAlpha" type="matrix" values="0 0 0 0 0 0 0 0 0 0 0 0 0 0 0 0 0 0 127 0" result="hardAlpha"/>
<feOffset dy="4.57143"/>
<feGaussianBlur stdDeviation="4"/>
<feComposite in2="hardAlpha" operator="out"/>
<feColorMatrix type="matrix" values="0 0 0 0 0.365 0 0 0 0 0.166002 0 0 0 0 0.0219 0 0 0 0.45 0"/>
<feBlend mode="normal" in2="BackgroundImageFix" result="effect1_dropShadow_10467_129"/>
<feBlend mode="normal" in="SourceGraphic" in2="effect1_dropShadow_10467_129" result="shape"/>
</filter>
<linearGradient id="paint0_linear_10467_129" x1="48.0004" y1="49.0239" x2="48.0004" y2="38.9766" gradientUnits="userSpaceOnUse">
<stop stop-color="#EE7219"/>
<stop offset="1" stop-color="#FFAE4E"/>
</linearGradient>
<linearGradient id="paint1_linear_10467_129" x1="48.0007" y1="40.3184" x2="48.0007" y2="46.3451" gradientUnits="userSpaceOnUse">
<stop stop-color="#DD5E16"/>
<stop offset="1" stop-color="#E67157"/>
</linearGradient>
</defs>
</svg>
