<svg width="18" height="19" viewBox="0 0 18 19" fill="none" xmlns="http://www.w3.org/2000/svg">
<path fill-rule="evenodd" clip-rule="evenodd" d="M9 5.54199C7.27411 5.54199 5.875 6.9411 5.875 8.66699C5.875 9.69007 6.36689 10.5977 7.125 11.1671V12.0003C7.125 12.8057 7.77792 13.4587 8.58333 13.4587H9.41667C10.2221 13.4587 10.875 12.8057 10.875 12.0003V11.1671C11.6331 10.5977 12.125 9.69007 12.125 8.66699C12.125 6.9411 10.7259 5.54199 9 5.54199ZM7.125 8.66699C7.125 7.63146 7.96447 6.79199 9 6.79199C10.0355 6.79199 10.875 7.63146 10.875 8.66699C10.875 9.36022 10.4991 9.96639 9.93705 10.2915C9.74393 10.4032 9.625 10.6094 9.625 10.8325V12.0003C9.625 12.1154 9.53173 12.2087 9.41667 12.2087H8.58333C8.46827 12.2087 8.375 12.1154 8.375 12.0003V10.8325C8.375 10.6094 8.25607 10.4032 8.06295 10.2915C7.50088 9.96639 7.125 9.36022 7.125 8.66699Z" fill="#858B93"/>
<path fill-rule="evenodd" clip-rule="evenodd" d="M9 0.541992C8.21873 0.541992 7.47277 0.797478 6.26949 1.20959L5.66329 1.41711C4.42885 1.83966 3.47617 2.16576 2.79419 2.44281C2.45065 2.58238 2.15531 2.71755 1.91748 2.85566C1.68862 2.98858 1.45902 3.15436 1.30303 3.37661C1.14884 3.59629 1.06911 3.86636 1.01901 4.12634C0.966927 4.39662 0.93552 4.72085 0.915249 5.09313C0.875 5.8323 0.875 6.84492 0.875 8.15835V9.49312C0.875 14.5773 4.71502 17.0149 6.99861 18.0125L7.02119 18.0223C7.30436 18.1461 7.57051 18.2624 7.87634 18.3407C8.19922 18.4233 8.54228 18.4587 9 18.4587C9.45772 18.4587 9.80078 18.4233 10.1237 18.3407C10.4295 18.2624 10.6956 18.1461 10.9788 18.0223L11.0014 18.0125C13.285 17.0149 17.125 14.5773 17.125 9.49312V8.15851C17.125 6.845 17.125 5.83232 17.0847 5.09313C17.0645 4.72085 17.0331 4.39662 16.981 4.12634C16.9309 3.86636 16.8512 3.59629 16.697 3.37661C16.541 3.15436 16.3114 2.98858 16.0825 2.85566C15.8447 2.71755 15.5493 2.58238 15.2058 2.44281C14.5238 2.16576 13.5711 1.83966 12.3367 1.4171L11.7305 1.20959C10.5272 0.797478 9.78127 0.541992 9 0.541992ZM6.56718 2.42891C7.91262 1.96836 8.45188 1.79199 9 1.79199C9.54812 1.79199 10.0874 1.96836 11.4328 2.42891L11.9102 2.5923C13.1707 3.02377 14.0899 3.3387 14.7353 3.6009C15.0575 3.73177 15.2909 3.84145 15.4548 3.9366C15.5356 3.98358 15.5914 4.02234 15.6286 4.0526C15.6601 4.07823 15.6722 4.09276 15.6739 4.09489C15.6755 4.09749 15.6859 4.1148 15.7005 4.15577C15.7171 4.20253 15.7356 4.26957 15.7536 4.36287C15.79 4.55174 15.8175 4.81117 15.8366 5.16109C15.8748 5.86208 15.875 6.8406 15.875 8.18087V9.49312C15.875 13.8057 12.6501 15.9282 10.501 16.867C10.1914 17.0022 10.0127 17.0788 9.81367 17.1297C9.6236 17.1784 9.39167 17.2087 9 17.2087C8.60833 17.2087 8.3764 17.1784 8.18633 17.1297C7.98732 17.0788 7.80856 17.0022 7.49899 16.867C5.34991 15.9282 2.125 13.8057 2.125 9.49312V8.18087C2.125 6.8406 2.12523 5.86208 2.1634 5.16109C2.18245 4.81117 2.21003 4.55174 2.24643 4.36287C2.26441 4.26957 2.28287 4.20253 2.29952 4.15577C2.31411 4.11483 2.32446 4.09751 2.32608 4.0949C2.3278 4.09278 2.33983 4.07825 2.37139 4.0526C2.40861 4.02234 2.46435 3.98358 2.54524 3.9366C2.70908 3.84145 2.9425 3.73177 3.26466 3.6009C3.91008 3.3387 4.82934 3.02377 6.08984 2.5923L6.56718 2.42891Z" fill="#858B93"/>
</svg>
