<svg width="100" height="100" viewBox="0 0 100 100" fill="none" xmlns="http://www.w3.org/2000/svg">
<path d="M49.9997 73.9585C51.7256 73.9585 53.1247 72.5594 53.1247 70.8335V45.8335C53.1247 44.1076 51.7256 42.7085 49.9997 42.7085C48.2738 42.7085 46.8747 44.1076 46.8747 45.8335V70.8335C46.8747 72.5594 48.2738 73.9585 49.9997 73.9585Z" fill="#F34859"/>
<path d="M49.9997 29.1668C52.3009 29.1668 54.1663 31.0323 54.1663 33.3335C54.1663 35.6347 52.3009 37.5002 49.9997 37.5002C47.6985 37.5002 45.833 35.6347 45.833 33.3335C45.833 31.0323 47.6985 29.1668 49.9997 29.1668Z" fill="#F34859"/>
<path fill-rule="evenodd" clip-rule="evenodd" d="M5.20801 50.0002C5.20801 25.2624 25.2619 5.2085 49.9997 5.2085C74.7374 5.2085 94.7913 25.2624 94.7913 50.0002C94.7913 74.7379 74.7374 94.7918 49.9997 94.7918C25.2619 94.7918 5.20801 74.7379 5.20801 50.0002ZM49.9997 11.4585C28.7137 11.4585 11.458 28.7142 11.458 50.0002C11.458 71.2861 28.7137 88.5418 49.9997 88.5418C71.2856 88.5418 88.5413 71.2861 88.5413 50.0002C88.5413 28.7142 71.2856 11.4585 49.9997 11.4585Z" fill="#F34859"/>
</svg>
