<svg width="42" height="42" viewBox="0 0 42 42" fill="none" xmlns="http://www.w3.org/2000/svg">
<path d="M0 21C0 14.4768 0 11.2152 1.06569 8.64243C2.4866 5.21204 5.21204 2.4866 8.64243 1.06569C11.2152 0 14.4768 0 21 0C27.5232 0 30.7848 0 33.3576 1.06569C36.788 2.4866 39.5134 5.21204 40.9343 8.64243C42 11.2152 42 14.4768 42 21C42 27.5232 42 30.7848 40.9343 33.3576C39.5134 36.788 36.788 39.5134 33.3576 40.9343C30.7848 42 27.5232 42 21 42C14.4768 42 11.2152 42 8.64243 40.9343C5.21204 39.5134 2.4866 36.788 1.06569 33.3576C0 30.7848 0 27.5232 0 21Z" fill="#959595" fill-opacity="0.12"/>
<path d="M19.8599 17.8398H19.3599V17.9163C18.5291 18.1427 17.9299 18.9196 17.9299 19.8198C17.9299 19.9546 17.9435 20.085 17.969 20.2102C16.3227 19.9752 14.9247 18.9243 14.1699 17.4613V15.3598C14.1699 14.8253 14.0041 14.3244 13.7044 13.9083C14.2078 11.564 16.2496 9.81982 18.6699 9.81982C21.0894 9.81982 23.1306 11.5628 23.6349 13.9059C23.333 14.3211 23.1699 14.8303 23.1699 15.3598V17.4601C23.1048 17.5863 23.0376 17.7084 22.9684 17.8232C22.6405 17.9587 22.2665 18.0646 21.867 18.1339C21.5637 17.9397 21.2132 17.8398 20.8499 17.8398H19.8599Z" stroke="#838383"/>
<path d="M11.5503 14.2235L11.5324 14.5609L11.8387 14.7034C12.0995 14.8246 12.2696 15.0822 12.2696 15.37V17.87C12.2696 18.2749 11.9367 18.6193 11.5 18.6298L11.4707 18.62H11.3896C10.9403 18.62 10.5996 18.2686 10.5996 17.87V15.37C10.5996 15.0785 10.7734 14.8193 11.0465 14.6952L11.3246 14.5688L11.3391 14.2636C11.5159 10.5215 14.7152 7.5 18.6496 7.5C22.5841 7.5 25.7833 10.5215 25.9602 14.2636L25.9746 14.5688L26.2527 14.6952C26.5258 14.8193 26.6996 15.0785 26.6996 15.37V17.87C26.6996 18.2812 26.3563 18.63 25.9096 18.63H25.8496C25.6924 18.63 25.5477 18.5859 25.4321 18.5108L25.2082 18.3653L25.1238 18.1543C25.0872 18.0628 25.0696 17.9758 25.0696 17.87V15.37C25.0696 15.0882 25.2347 14.8332 25.509 14.6993L25.8074 14.5536L25.7888 14.222C25.5834 10.5568 22.4644 7.66 18.6696 7.66C14.8761 7.66 11.7451 10.5559 11.5503 14.2235ZM21.1636 19.6174L21.2372 19.7278L21.17 19.8519C21.1197 19.9447 21.0305 20 20.9296 20H19.8996C19.7429 20 19.6296 19.8711 19.6296 19.75C19.6296 19.6247 19.7371 19.5 19.8996 19.5H20.9296C21.0366 19.5 21.1186 19.5499 21.1636 19.6174Z" stroke="#838383"/>
<path d="M32.1494 24.3901H28.4294C28.0494 24.3901 27.7094 24.6101 27.5694 24.9401C27.4294 25.2701 27.5094 25.6501 27.7694 25.9001L28.9694 27.0401L25.1694 30.6501L22.1094 27.7401C21.8094 27.4501 21.3294 27.4001 20.9594 27.6101L11.1894 33.3501C10.7494 33.6101 10.6194 34.1501 10.8894 34.5701C11.0694 34.8401 11.3694 34.9901 11.6794 34.9901C11.8494 34.9901 12.0194 34.9501 12.1694 34.8601L21.3094 29.4801L24.5094 32.5201C24.8694 32.8701 25.4594 32.8701 25.8294 32.5201L30.2894 28.2801L31.4894 29.4201C31.6694 29.5901 31.9094 29.6801 32.1494 29.6801C32.2694 29.6801 32.3894 29.6601 32.5094 29.6101C32.8594 29.4701 33.0794 29.1501 33.0794 28.7901V25.2501C33.0794 24.7601 32.6594 24.3701 32.1494 24.3701V24.3901Z" fill="#838383"/>
<path d="M8.46973 28.8601C8.46973 25.4638 11.0456 22.6722 14.3584 22.3345L14.3597 22.3401H22.9062C24.2245 22.4667 25.4267 22.9777 26.3952 23.7601C26.2724 23.917 26.1642 24.0938 26.0804 24.2924C25.6601 25.2491 25.9032 26.3326 26.6227 27.041L25.1702 28.4202L23.2251 26.5685C23.225 26.5685 23.225 26.5684 23.2249 26.5683C22.389 25.77 21.1136 25.6488 20.146 26.2192C20.1459 26.2193 20.1458 26.2193 20.1457 26.2194L10.634 31.8105C9.94897 31.6519 9.44169 31.3933 9.09412 30.9976C8.72031 30.5721 8.46973 29.9173 8.46973 28.8601Z" stroke="#838383"/>
<g filter="url(#filter0_d_49_282130)">
<path d="M32.1495 20.2699H31.9695C31.9195 20.3899 31.8495 20.4999 31.7695 20.6099C31.6995 20.7099 31.5895 20.7999 31.4595 20.8799C31.3395 20.9599 31.1895 21.0299 31.0095 21.0699C30.8395 21.1199 30.6295 21.1399 30.3895 21.1399C30.0795 21.1399 29.7895 21.0899 29.5195 20.9799C29.2595 20.8699 29.0195 20.6999 28.8195 20.4799C28.6195 20.2599 28.4695 19.9899 28.3495 19.6699C28.2395 19.3499 28.1895 18.9899 28.1895 18.5699V18.3899C28.1895 17.9799 28.2495 17.6199 28.3595 17.2999C28.4795 16.9799 28.6395 16.7099 28.8495 16.4999C29.0595 16.2799 29.2995 16.1099 29.5695 15.9899C29.8495 15.8699 30.1395 15.8199 30.4395 15.8199C30.8495 15.8199 31.1695 15.8999 31.4095 16.0499C31.6495 16.1999 31.8295 16.4099 31.9695 16.6899H32.1495V15.5299H30.5695V14.3699H32.1495V13.8799H33.4295V14.3699H34.0395V15.5299H33.4295V20.9899H32.1495V20.2599V20.2699ZM30.8095 19.9199C31.2095 19.9199 31.5295 19.7899 31.7695 19.5399C32.0195 19.2799 32.1495 18.9499 32.1495 18.5299V18.4099C32.1495 17.9999 32.0195 17.6599 31.7695 17.4099C31.5295 17.1499 31.1995 17.0199 30.8095 17.0199C30.4195 17.0199 30.0795 17.1499 29.8295 17.3999C29.5895 17.6399 29.4595 17.9799 29.4595 18.4099V18.5299C29.4595 18.9599 29.5795 19.2999 29.8295 19.5499C30.0795 19.7899 30.4095 19.9199 30.8095 19.9199Z" fill="#838383"/>
<path d="M28.8193 21.8501H33.0493V22.7001H28.8193V21.8501Z" fill="#838383"/>
</g>
<defs>
<filter id="filter0_d_49_282130" x="24.1895" y="10.8799" width="13.8496" height="16.8203" filterUnits="userSpaceOnUse" color-interpolation-filters="sRGB">
<feFlood flood-opacity="0" result="BackgroundImageFix"/>
<feColorMatrix in="SourceAlpha" type="matrix" values="0 0 0 0 0 0 0 0 0 0 0 0 0 0 0 0 0 0 127 0" result="hardAlpha"/>
<feOffset dy="1"/>
<feGaussianBlur stdDeviation="2"/>
<feComposite in2="hardAlpha" operator="out"/>
<feColorMatrix type="matrix" values="0 0 0 0 0 0 0 0 0 0 0 0 0 0 0 0 0 0 0.25 0"/>
<feBlend mode="normal" in2="BackgroundImageFix" result="effect1_dropShadow_49_282130"/>
<feBlend mode="normal" in="SourceGraphic" in2="effect1_dropShadow_49_282130" result="shape"/>
</filter>
</defs>
</svg>
