<svg width="42" height="42" viewBox="0 0 42 42" fill="none" xmlns="http://www.w3.org/2000/svg">
<g clip-path="url(#clip0_49_281842)">
<rect width="42" height="42" rx="14" fill="#167B5E" fill-opacity="0.3"/>
<g filter="url(#filter0_d_49_281842)">
<path d="M20.1136 18.4758H21.126C21.4596 18.4758 21.777 18.592 22.0325 18.7988C22.6152 18.7189 23.1654 18.5639 23.6422 18.3528C23.7798 18.1443 23.8994 17.9228 24.0096 17.6958V15.429C24.0096 14.9165 24.196 14.4391 24.5192 14.0754C24.047 11.3332 21.7127 9.24854 18.8971 9.24854C16.0824 9.24854 13.7475 11.3334 13.2754 14.0756C13.5983 14.4391 13.7849 14.9165 13.7849 15.429V17.6958C14.7211 19.6184 16.6559 20.9421 18.8969 20.9421C18.9317 20.9421 18.9655 20.9375 19.0001 20.9367C18.7839 20.6752 18.6482 20.342 18.6482 19.9737C18.6485 19.1478 19.3058 18.4758 20.1136 18.4758Z" fill="url(#paint0_linear_49_281842)"/>
<path d="M11.4187 19.1258H11.4836C12.1961 19.1258 12.7743 18.5647 12.7743 17.8707V15.3669C12.7743 14.875 12.4819 14.4513 12.0562 14.2459C12.2402 10.8579 15.1375 8.15698 18.6732 8.15698C22.2089 8.15698 25.1073 10.8576 25.2908 14.2459C24.8651 14.451 24.5729 14.875 24.5729 15.3669V17.8707C24.5729 18.037 24.6063 18.1919 24.6648 18.337C23.9121 18.8586 22.8171 19.2311 21.584 19.3342C21.4443 19.1283 21.2064 18.9906 20.9344 18.9906H19.9072C19.479 18.9906 19.1328 19.3271 19.1328 19.741C19.1328 20.1555 19.4787 20.4925 19.9072 20.4925H20.9344C21.2336 20.4925 21.4887 20.327 21.6174 20.087C23.0492 19.9774 24.2942 19.5531 25.1688 18.9257C25.3691 19.0517 25.6068 19.1256 25.8634 19.1256H25.928C26.6414 19.1256 27.2185 18.5644 27.2185 17.8704V15.3667C27.2185 14.8679 26.9173 14.4374 26.4826 14.2375C26.2932 10.2171 22.8632 7 18.6735 7C14.4837 7 11.0531 10.2171 10.8652 14.238C10.43 14.4376 10.1279 14.8685 10.1279 15.3672V17.871C10.1279 18.5647 10.7067 19.1258 11.4187 19.1258Z" fill="url(#paint1_linear_49_281842)"/>
<path d="M32.1889 24.394H28.4675C28.0916 24.394 27.7511 24.6097 27.6078 24.9394C27.4636 25.2699 27.5436 25.65 27.8097 25.9027L29.0126 27.0455L25.2112 30.6568L22.1475 27.7464C21.8433 27.4556 21.3651 27.4052 21.0004 27.62L11.2317 33.3649C10.7944 33.6221 10.6604 34.1665 10.9302 34.581C11.1061 34.8515 11.4103 34.9999 11.722 34.9999C11.8894 34.9999 12.0578 34.9575 12.2104 34.8674L21.3521 29.4911L24.5525 32.5314C24.9163 32.877 25.5043 32.877 25.868 32.5314L30.3282 28.2952L31.5311 29.438C31.7088 29.6068 31.947 29.697 32.1889 29.697C32.3089 29.697 32.4298 29.6749 32.5452 29.6298C32.8932 29.4928 33.1192 29.1702 33.1192 28.8132V25.2779C33.1192 24.79 32.7034 24.394 32.1889 24.394Z" fill="url(#paint2_linear_49_281842)"/>
<path fill-rule="evenodd" clip-rule="evenodd" d="M14.4055 21.8433H22.9711C24.5878 21.9907 26.0468 22.6835 27.1627 23.7362C26.9184 23.933 26.7172 24.1885 26.5845 24.4931C26.2475 25.2657 26.4435 26.1449 27.0408 26.7123L27.3917 27.0456L25.2112 29.1171L22.9189 26.9395L22.9176 26.9381C22.243 26.2946 21.2177 26.1969 20.4345 26.6578L10.7513 32.3523C9.07784 32.0193 8 31.1455 8 28.869C8 25.191 10.8135 22.1714 14.4055 21.8433Z" fill="url(#paint3_linear_49_281842)"/>
<g filter="url(#filter1_d_49_281842)">
<path d="M34.3121 17.256C34.0436 17.0374 33.7246 16.8515 33.354 16.6916C32.9848 16.5335 32.5806 16.3812 32.1427 16.2353C31.9152 16.1629 31.7148 16.0913 31.544 16.0289C31.3723 15.9638 31.2287 15.8954 31.1127 15.8248C30.9975 15.7511 30.911 15.6725 30.8522 15.587C30.7947 15.5041 30.7663 15.4027 30.7663 15.2878C30.7663 15.1726 30.7924 15.0728 30.8459 14.9923C30.9001 14.913 30.973 14.8483 31.0629 14.7974C31.1537 14.7479 31.2594 14.7125 31.3796 14.6874C31.4991 14.6653 31.6269 14.6554 31.764 14.6554C31.8964 14.6554 32.0258 14.6739 32.1546 14.7142C32.2824 14.7528 32.405 14.8034 32.5199 14.8621C32.6355 14.9222 32.7441 14.9893 32.8448 15.0642C32.9469 15.1372 33.0393 15.2102 33.1219 15.2812L33.178 15.3294C33.2348 15.38 33.288 15.4209 33.3356 15.4549C33.3834 15.4876 33.4359 15.5031 33.4934 15.5031C33.5631 15.5031 33.6341 15.4691 33.7044 15.3981L34.6539 14.3873C34.7067 14.3305 34.747 14.2776 34.7734 14.233C34.8015 14.1865 34.8143 14.1389 34.8143 14.0834C34.8143 14.0309 34.7863 13.9665 34.7308 13.8909C34.6743 13.8166 34.5994 13.7397 34.5036 13.6565C34.4091 13.5729 34.2985 13.488 34.1734 13.3995C34.0466 13.31 33.9135 13.2248 33.7725 13.1423C33.5532 13.0221 33.3329 12.9237 33.113 12.8477C32.8914 12.7711 32.6652 12.7126 32.433 12.6694V11.8392C32.433 11.7563 32.3993 11.6916 32.3303 11.641C32.2629 11.5918 32.1976 11.5674 32.1371 11.5674H30.9701C30.8793 11.5674 30.8116 11.5941 30.766 11.647C30.7198 11.7015 30.6973 11.7642 30.6973 11.8392V12.7024C30.3377 12.7711 30.014 12.8807 29.7271 13.0264C29.4404 13.174 29.1967 13.352 28.9986 13.563C28.8001 13.7737 28.6475 14.0151 28.5395 14.2822C28.4322 14.5521 28.3787 14.8453 28.3787 15.1633C28.3787 15.5259 28.4401 15.8558 28.5646 16.152C28.6888 16.4476 28.8741 16.7171 29.1224 16.9638C29.3691 17.2095 29.6795 17.4324 30.0527 17.6325C30.4245 17.8353 30.8578 18.0215 31.3538 18.1936C31.4654 18.2322 31.5975 18.2784 31.7508 18.3329C31.9037 18.3891 32.0499 18.4564 32.1913 18.5357C32.3306 18.6146 32.4502 18.7038 32.5483 18.8055C32.644 18.9062 32.6929 19.0218 32.6929 19.1489C32.6929 19.2652 32.6757 19.3745 32.6404 19.4778C32.6061 19.5812 32.5473 19.672 32.4637 19.7513C32.3808 19.8279 32.2696 19.8933 32.1266 19.9402C31.9842 19.9861 31.8069 20.0108 31.5962 20.0108C31.3683 20.0108 31.1517 19.9719 30.945 19.8933C30.7379 19.8137 30.5295 19.7054 30.3195 19.565C30.1778 19.4699 30.054 19.3745 29.9447 19.2767C29.8337 19.1803 29.7446 19.1014 29.6739 19.0442C29.6164 18.994 29.5669 18.9567 29.5246 18.9333C29.4853 18.9065 29.446 18.8937 29.4074 18.8937C29.3536 18.8937 29.2839 18.9244 29.1964 18.9878L28.1241 20.0112C28.029 20.0984 27.9814 20.1766 27.9814 20.246C27.9814 20.3087 28.029 20.3913 28.1241 20.495C28.1287 20.4989 28.133 20.5009 28.136 20.5049C28.1403 20.5049 28.1439 20.5115 28.1489 20.5187C28.1532 20.5234 28.1581 20.527 28.1614 20.529C28.1654 20.531 28.1697 20.5376 28.1736 20.5432L28.1921 20.5637C28.2575 20.6323 28.3487 20.7265 28.4609 20.8411C28.5762 20.9583 28.7156 21.0759 28.8807 21.1961C29.1535 21.3945 29.4431 21.5666 29.7485 21.7099C30.0543 21.8545 30.37 21.9619 30.6973 22.0329V22.9381C30.6973 23.12 30.7875 23.2112 30.9701 23.2112H32.1371C32.3336 23.2112 32.433 23.1203 32.433 22.9381V22.05C32.83 21.9817 33.1949 21.8621 33.5271 21.6941C33.86 21.5289 34.1483 21.3173 34.393 21.0643C34.6364 20.8136 34.8262 20.5254 34.963 20.2017C35.0993 19.8748 35.1674 19.5208 35.1674 19.1318C35.1674 18.7021 35.0917 18.3359 34.9415 18.0344C34.7906 17.7325 34.5802 17.473 34.3121 17.256Z" fill="url(#paint4_linear_49_281842)"/>
</g>
</g>
</g>
<defs>
<filter id="filter0_d_49_281842" x="4.76837e-07" y="3.57143" width="43.167" height="44" filterUnits="userSpaceOnUse" color-interpolation-filters="sRGB">
<feFlood flood-opacity="0" result="BackgroundImageFix"/>
<feColorMatrix in="SourceAlpha" type="matrix" values="0 0 0 0 0 0 0 0 0 0 0 0 0 0 0 0 0 0 127 0" result="hardAlpha"/>
<feOffset dy="4.57143"/>
<feGaussianBlur stdDeviation="4"/>
<feComposite in2="hardAlpha" operator="out"/>
<feColorMatrix type="matrix" values="0 0 0 0 0.0706443 0 0 0 0 0.623333 0 0 0 0 0.557011 0 0 0 0.45 0"/>
<feBlend mode="normal" in2="BackgroundImageFix" result="effect1_dropShadow_49_281842"/>
<feBlend mode="normal" in="SourceGraphic" in2="effect1_dropShadow_49_281842" result="shape"/>
</filter>
<filter id="filter1_d_49_281842" x="23.9814" y="8.56738" width="15.1855" height="19.6436" filterUnits="userSpaceOnUse" color-interpolation-filters="sRGB">
<feFlood flood-opacity="0" result="BackgroundImageFix"/>
<feColorMatrix in="SourceAlpha" type="matrix" values="0 0 0 0 0 0 0 0 0 0 0 0 0 0 0 0 0 0 127 0" result="hardAlpha"/>
<feOffset dy="1"/>
<feGaussianBlur stdDeviation="2"/>
<feComposite in2="hardAlpha" operator="out"/>
<feColorMatrix type="matrix" values="0 0 0 0 0 0 0 0 0 0 0 0 0 0 0 0 0 0 0.25 0"/>
<feBlend mode="normal" in2="BackgroundImageFix" result="effect1_dropShadow_49_281842"/>
<feBlend mode="normal" in="SourceGraphic" in2="effect1_dropShadow_49_281842" result="shape"/>
</filter>
<linearGradient id="paint0_linear_49_281842" x1="18.8973" y1="20.9421" x2="18.8973" y2="9.24854" gradientUnits="userSpaceOnUse">
<stop stop-color="#D9D9D9"/>
<stop offset="0.5028" stop-color="#F2F2F2"/>
<stop offset="1" stop-color="white"/>
</linearGradient>
<linearGradient id="paint1_linear_49_281842" x1="18.6732" y1="7" x2="18.6732" y2="20.4925" gradientUnits="userSpaceOnUse">
<stop stop-color="#3FE4A8"/>
<stop offset="1" stop-color="#0D8732"/>
</linearGradient>
<linearGradient id="paint2_linear_49_281842" x1="21.9551" y1="34.9999" x2="21.9551" y2="24.394" gradientUnits="userSpaceOnUse">
<stop stop-color="#D9D9D9"/>
<stop offset="0.5028" stop-color="#F2F2F2"/>
<stop offset="1" stop-color="white"/>
</linearGradient>
<linearGradient id="paint3_linear_49_281842" x1="17.6959" y1="21.8433" x2="17.6959" y2="32.3523" gradientUnits="userSpaceOnUse">
<stop stop-color="#3FE4A8"/>
<stop offset="1" stop-color="#0D8732"/>
</linearGradient>
<linearGradient id="paint4_linear_49_281842" x1="31.5744" y1="23.2112" x2="31.5744" y2="11.5674" gradientUnits="userSpaceOnUse">
<stop stop-color="#D9D9D9"/>
<stop offset="0.5028" stop-color="#F2F2F2"/>
<stop offset="1" stop-color="white"/>
</linearGradient>
<clipPath id="clip0_49_281842">
<rect width="42" height="42" rx="14" fill="white"/>
</clipPath>
</defs>
</svg>
