<svg width="16" height="16" viewBox="0 0 16 16" fill="none" xmlns="http://www.w3.org/2000/svg">
<mask id="mask0_10603_24106" style="mask-type:luminance" maskUnits="userSpaceOnUse" x="0" y="0" width="16" height="16">
<path d="M7.99323 0.000488281C4.40263 0.000488281 1.13775 2.43566 0.236349 6.07849C-0.825476 10.3667 1.7904 14.7031 6.07821 15.7637C10.3668 16.8251 14.7025 14.2096 15.7639 9.92144C16.8249 5.63326 14.2102 1.29768 9.92161 0.236673C9.27625 0.0770558 8.63008 0.000488281 7.99363 0.000488281H7.99323Z" fill="white"/>
</mask>
<g mask="url(#mask0_10603_24106)">
<path d="M16.8249 0H-0.825439V16.8246H16.8249V0Z" fill="url(#paint0_radial_10603_24106)"/>
</g>
<path d="M0.236349 6.07848C1.29736 1.78949 5.63379 -0.825151 9.92161 0.236261C14.2102 1.29686 16.8249 5.63285 15.7639 9.92103C14.7025 14.2092 10.3668 16.8247 6.07821 15.7633C1.7904 14.7022 -0.825476 10.3663 0.236349 6.07848Z" fill="#223C72"/>
<path d="M13.674 2.36096L10.4577 4.50485V0.389247C10.2823 0.332936 10.1037 0.281485 9.92175 0.236517C8.41267 -0.137002 6.89792 -0.0547632 5.52172 0.395324V4.50526L2.31801 2.36987C1.58434 3.10881 0.988403 3.99845 0.583281 5.00598L1.43161 5.57153H0.380314C0.327648 5.73763 0.279034 5.90656 0.236496 6.07833C-0.139863 7.59793 -0.0539768 9.12361 0.404622 10.5075H1.45267L0.613259 11.067C1.02041 12.0449 1.61877 12.9366 2.37392 13.6853L5.52172 11.5871V15.6035C5.70403 15.6626 5.88957 15.7161 6.07876 15.7627C7.58015 16.1346 9.0872 16.0548 10.4577 15.6108V11.5867L13.6181 13.6929C14.3603 12.9621 14.9667 12.0794 15.3832 11.0775L14.5264 10.5063H15.5951C15.6583 10.3147 15.7146 10.119 15.764 9.91967C16.1327 8.42924 16.0569 6.93273 15.6218 5.57031H14.5478L15.4128 4.99383C15.0137 4.01304 14.4231 3.1157 13.674 2.36096Z" fill="#EFEBE7"/>
<path d="M4.29128 5.57235L1.32133 3.59699C1.12363 3.89678 0.944972 4.21155 0.787379 4.54091L2.33778 5.57235H4.29128ZM14.6665 3.58159C14.4671 3.28018 14.2468 2.99255 14.0077 2.7199L10.4576 5.08094V5.57275H11.6734L14.6665 3.58159ZM1.34321 12.4338C1.54334 12.7344 1.76413 13.0217 2.00356 13.2935L5.52123 10.9539V10.5079H4.23902L1.34321 12.4338ZM15.8766 6.60013H9.42945V0.1316C8.45229 -0.0466523 7.47919 -0.0389551 6.54943 0.13322V6.60013H0.12622C-0.048793 7.57728 -0.0370444 8.54997 0.138374 9.47891H6.54984V15.8652C7.52699 16.0463 8.5001 16.041 9.42985 15.8713V9.47891H15.8604C16.0447 8.50298 16.0423 7.53029 15.8766 6.60013ZM11.7419 10.5083L14.6523 12.444C14.8516 12.1454 15.0319 11.8314 15.1915 11.5033L13.6954 10.5083H11.7419Z" fill="#EF3827"/>
<path d="M10.4575 1.22217V1.22257V1.74072C10.4891 1.64228 10.5053 1.5491 10.5057 1.46159C10.5057 1.37611 10.4899 1.2959 10.4575 1.22217Z" fill="#303F66"/>
<defs>
<radialGradient id="paint0_radial_10603_24106" cx="0" cy="0" r="1" gradientUnits="userSpaceOnUse" gradientTransform="translate(7.99971 8.00021) scale(7.99986 7.99979)">
<stop stop-color="white"/>
<stop offset="0.7809" stop-color="white"/>
<stop offset="0.8218" stop-color="#F6F4F1"/>
<stop offset="0.8832" stop-color="#E5DED9"/>
<stop offset="0.9571" stop-color="#C9C0B7"/>
<stop offset="1" stop-color="#B6ABA1"/>
</radialGradient>
</defs>
</svg>
