<svg width="20" height="20" viewBox="0 0 20 20" fill="none" xmlns="http://www.w3.org/2000/svg">
<rect width="20" height="20" rx="10" fill="#33383F" fill-opacity="0.3"/>
<path d="M11.8645 5.94229C12.5817 5.22234 13.6307 5.20722 14.2114 5.79021C14.7933 6.3743 14.7776 7.42992 14.0599 8.15035L12.848 9.36697C12.7019 9.5137 12.7023 9.75114 12.8491 9.8973C12.9958 10.0435 13.2332 10.043 13.3794 9.89627L14.5913 8.67965C15.547 7.72029 15.6669 6.18863 14.7428 5.26091C13.8176 4.33208 12.2893 4.45314 11.3332 5.41299L8.90933 7.84621C7.95368 8.80557 7.8337 10.3373 8.75784 11.265C8.904 11.4117 9.14144 11.4122 9.28817 11.266C9.4349 11.1198 9.43536 10.8824 9.28919 10.7357C8.70737 10.1516 8.72304 9.09595 9.44069 8.37552L11.8645 5.94229Z" fill="#C7C7C7"/>
<path d="M11.2428 8.73567C11.0966 8.58894 10.8592 8.58848 10.7125 8.73465C10.5657 8.88081 10.5653 9.11825 10.7114 9.26498C11.2933 9.84907 11.2776 10.9047 10.5599 11.6251L8.13613 14.0584C7.41897 14.7783 6.36993 14.7934 5.7892 14.2104C5.20737 13.6264 5.22304 12.5707 5.94069 11.8503L7.15261 10.6336C7.29877 10.4869 7.29831 10.2495 7.15158 10.1033C7.00485 9.95716 6.76742 9.95762 6.62125 10.1043L5.40933 11.321C4.45368 12.2803 4.3337 13.812 5.25784 14.7397C6.18308 15.6686 7.71135 15.5475 8.66749 14.5877L11.0913 12.1544C12.047 11.1951 12.1669 9.6634 11.2428 8.73567Z" fill="#C7C7C7"/>
</svg>
