<svg width="20" height="20" viewBox="0 0 20 20" fill="none" xmlns="http://www.w3.org/2000/svg">
<path d="M13.6547 12.6189C13.9512 12.4422 14.0483 12.0586 13.8716 11.762C13.6949 11.4655 13.3112 11.3684 13.0147 11.5452L9.68138 13.5319C9.38488 13.7086 9.28777 14.0922 9.46449 14.3887C9.64122 14.6852 10.0248 14.7824 10.3214 14.6056L13.6547 12.6189Z" fill="#F34859"/>
<path fill-rule="evenodd" clip-rule="evenodd" d="M9.0342 2.94879C9.3435 2.80454 9.65224 2.70703 10.0014 2.70703C10.3505 2.70703 10.6592 2.80454 10.9685 2.94879C11.259 3.08425 11.59 3.28103 11.9792 3.51238L14.4953 5.00803C14.8847 5.23949 15.2157 5.43622 15.4746 5.62725C15.5999 5.71968 15.7162 5.8163 15.8219 5.92274L17.988 4.47867C18.2752 4.2872 18.6633 4.3648 18.8547 4.65201C19.0462 4.93922 18.9686 5.32726 18.6814 5.51873L16.3914 7.04539C16.4076 7.13645 16.4196 7.22928 16.4287 7.3242C16.4597 7.64871 16.4597 8.04045 16.4597 8.50462V11.4928C16.4597 11.9569 16.4597 12.3487 16.4287 12.6732C16.3957 13.0173 16.3246 13.334 16.1542 13.6377C15.9834 13.9424 15.7507 14.1664 15.4746 14.3701C15.2157 14.5612 14.8848 14.7579 14.4953 14.9894L11.9792 16.485C11.5901 16.7163 11.2589 16.9132 10.9685 17.0486C10.6592 17.1929 10.3505 17.2904 10.0014 17.2904C9.65224 17.2904 9.3435 17.1929 9.0342 17.0486C8.74381 16.9132 8.41283 16.7164 8.02372 16.4851L5.50741 14.9894C5.11797 14.7579 4.78703 14.5612 4.52813 14.3701C4.40286 14.2777 4.28652 14.1811 4.18084 14.0747L2.01472 15.5187C1.72752 15.7102 1.33947 15.6326 1.148 15.3454C0.956533 15.0582 1.03414 14.6701 1.32135 14.4787L3.61135 12.952C3.59516 12.8609 3.58317 12.7681 3.57408 12.6732C3.54301 12.3487 3.54302 11.957 3.54303 11.4928V8.50461C3.54302 8.04045 3.54301 7.6487 3.57408 7.3242C3.58317 7.22928 3.59516 7.13645 3.61135 7.04539L1.32135 5.51873C1.03414 5.32726 0.956533 4.93922 1.148 4.65201C1.33947 4.3648 1.72752 4.2872 2.01472 4.47867L4.18084 5.92274C4.28652 5.8163 4.40286 5.71968 4.52813 5.62725C4.78703 5.43621 5.11797 5.2395 5.50742 5.00803L8.02357 3.51238C8.41274 3.28103 8.74377 3.08425 9.0342 2.94879ZM9.56255 4.08165C9.33559 4.1875 9.05836 4.35144 8.63678 4.60204L6.17133 6.06755C5.74989 6.31806 5.47317 6.48338 5.27032 6.63306C5.07907 6.77418 4.99352 6.87344 4.93878 6.97106C4.8835 7.06963 4.84185 7.19834 4.81839 7.44333C4.79369 7.70126 4.79304 8.03287 4.79304 8.53319V11.4642C4.79304 11.9645 4.79369 12.2961 4.81839 12.5541C4.84185 12.7991 4.8835 12.9278 4.93878 13.0263C4.99352 13.124 5.07907 13.2232 5.27032 13.3643C5.47317 13.514 5.74989 13.6793 6.17133 13.9298L8.63678 15.3954C9.05836 15.646 9.33559 15.8099 9.56255 15.9158C9.77697 16.0158 9.89928 16.0404 10.0014 16.0404C10.1035 16.0404 10.2258 16.0158 10.4402 15.9158C10.6671 15.8099 10.9444 15.646 11.366 15.3954L13.8314 13.9298C14.2528 13.6793 14.5296 13.514 14.7324 13.3643C14.9237 13.2232 15.0092 13.124 15.064 13.0263C15.1192 12.9278 15.1609 12.7991 15.1843 12.5541C15.209 12.2961 15.2097 11.9645 15.2097 11.4642V8.53319C15.2097 8.03287 15.209 7.70126 15.1843 7.44333C15.1609 7.19834 15.1192 7.06963 15.064 6.97106C15.0092 6.87344 14.9237 6.77418 14.7324 6.63306C14.5296 6.48338 14.2528 6.31806 13.8314 6.06755L11.366 4.60204C10.9444 4.35144 10.6671 4.1875 10.4402 4.08165C10.2258 3.98164 10.1035 3.95703 10.0014 3.95703C9.89928 3.95703 9.77697 3.98164 9.56255 4.08165Z" fill="#F34859"/>
</svg>
