<svg width="16" height="16" viewBox="0 0 16 16" fill="none" xmlns="http://www.w3.org/2000/svg">
<path d="M10.9214 10.0962C11.1586 9.95487 11.2363 9.64796 11.0949 9.41076C10.9535 9.17355 10.6466 9.09587 10.4094 9.23725L7.74276 10.8266C7.50556 10.968 7.42787 11.2749 7.56925 11.5121C7.71063 11.7493 8.01753 11.827 8.25474 11.6856L10.9214 10.0962Z" fill="#1AAF74"/>
<path fill-rule="evenodd" clip-rule="evenodd" d="M7.22502 2.36016C7.47245 2.24476 7.71945 2.16675 7.99875 2.16675C8.27805 2.16675 8.52505 2.24476 8.77248 2.36016C9.00483 2.46852 9.26965 2.62595 9.58099 2.81103L11.5939 4.00755C11.9055 4.19272 12.1702 4.3501 12.3773 4.50292C12.4776 4.57687 12.5706 4.65417 12.6552 4.73932L14.3881 3.58406C14.6178 3.43088 14.9283 3.49297 15.0814 3.72273C15.2346 3.9525 15.1725 4.26293 14.9428 4.41611L13.1108 5.63744C13.1237 5.71028 13.1333 5.78455 13.1406 5.86048C13.1654 6.12009 13.1654 6.43348 13.1654 6.80482V9.19534C13.1654 9.56668 13.1654 9.88007 13.1406 10.1397C13.1142 10.415 13.0573 10.6683 12.921 10.9113C12.7844 11.1551 12.5982 11.3343 12.3773 11.4972C12.1702 11.6501 11.9055 11.8074 11.5939 11.9926L9.58101 13.1891C9.26971 13.3742 9.0048 13.5317 8.77248 13.64C8.52505 13.7554 8.27805 13.8334 7.99875 13.8334C7.71945 13.8334 7.47245 13.7554 7.22502 13.64C6.9927 13.5317 6.72792 13.3743 6.41663 13.1892L4.40358 11.9926C4.09203 11.8074 3.82728 11.6501 3.62016 11.4972C3.51995 11.4233 3.42688 11.346 3.34233 11.2608L1.60943 12.4161C1.37967 12.5693 1.06924 12.5072 0.916059 12.2774C0.762883 12.0477 0.82497 11.7372 1.05473 11.5841L2.88673 10.3627C2.87379 10.2899 2.86419 10.2156 2.85692 10.1397C2.83206 9.88007 2.83207 9.56669 2.83208 9.19535V6.80481C2.83207 6.43348 2.83207 6.12009 2.85692 5.86048C2.86419 5.78455 2.87379 5.71028 2.88673 5.63744L1.05473 4.41611C0.82497 4.26293 0.762883 3.9525 0.916059 3.72273C1.06924 3.49297 1.37967 3.43088 1.60943 3.58406L3.34233 4.73932C3.42688 4.65417 3.51995 4.57687 3.62016 4.50292C3.82728 4.35009 4.09203 4.19273 4.40359 4.00754L6.41651 2.81103C6.72785 2.62595 6.99267 2.46852 7.22502 2.36016ZM7.6477 3.26644C7.46613 3.35112 7.24434 3.48228 6.90708 3.68275L4.93472 4.85516C4.59757 5.05557 4.37619 5.18783 4.21391 5.30757C4.06091 5.42047 3.99247 5.49987 3.94868 5.57797C3.90446 5.65683 3.87113 5.75979 3.85237 5.95579C3.83261 6.16213 3.83208 6.42742 3.83208 6.82767V9.17249C3.83208 9.57274 3.83261 9.83803 3.85237 10.0444C3.87113 10.2404 3.90446 10.3433 3.94868 10.4222C3.99247 10.5003 4.06091 10.5797 4.21391 10.6926C4.37619 10.8123 4.59757 10.9446 4.93472 11.145L6.90708 12.3174C7.24434 12.5179 7.46613 12.649 7.6477 12.7337C7.81923 12.8137 7.91708 12.8334 7.99875 12.8334C8.08042 12.8334 8.17827 12.8137 8.3498 12.7337C8.53137 12.649 8.75316 12.5179 9.09042 12.3174L11.0628 11.145C11.3999 10.9446 11.6213 10.8123 11.7836 10.6926C11.9366 10.5797 12.005 10.5003 12.0488 10.4222C12.093 10.3433 12.1264 10.2404 12.1451 10.0444C12.1649 9.83803 12.1654 9.57274 12.1654 9.17249V6.82767C12.1654 6.42742 12.1649 6.16213 12.1451 5.95579C12.1264 5.75979 12.093 5.65683 12.0488 5.57797C12.005 5.49987 11.9366 5.42047 11.7836 5.30757C11.6213 5.18783 11.3999 5.05557 11.0628 4.85516L9.09042 3.68275C8.75316 3.48228 8.53137 3.35112 8.3498 3.26644C8.17827 3.18644 8.08042 3.16675 7.99875 3.16675C7.91708 3.16675 7.81923 3.18644 7.6477 3.26644Z" fill="#1AAF74"/>
</svg>
