<svg width="100" height="100" viewBox="0 0 100 100" fill="none" xmlns="http://www.w3.org/2000/svg">
<path d="M49.9997 55.2085C51.7256 55.2085 53.1247 56.6076 53.1247 58.3335V75.0002C53.1247 76.7261 51.7256 78.1252 49.9997 78.1252C48.2738 78.1252 46.8747 76.7261 46.8747 75.0002V58.3335C46.8747 56.6076 48.2738 55.2085 49.9997 55.2085Z" fill="#F34859"/>
<path fill-rule="evenodd" clip-rule="evenodd" d="M21.8747 38.7617V33.3335C21.8747 17.8005 34.4667 5.2085 49.9997 5.2085C65.5327 5.2085 78.1247 17.8005 78.1247 33.3335V38.7617C79.0698 38.8281 79.9606 38.9147 80.7987 39.0273C84.5491 39.5316 87.7069 40.6103 90.2149 43.1183C92.7229 45.6263 93.8016 48.7841 94.3058 52.5345C94.7915 56.1469 94.7914 60.7399 94.7914 66.4382V66.8955C94.7914 72.5937 94.7915 77.1868 94.3058 80.7991C93.8016 84.5496 92.7229 87.7074 90.2149 90.2154C87.7069 92.7234 84.5491 93.8021 80.7987 94.3063C77.1863 94.792 72.5933 94.7919 66.895 94.7918H33.1044C27.4061 94.7919 22.8131 94.792 19.2007 94.3063C15.4503 93.8021 12.2925 92.7234 9.78447 90.2154C7.27648 87.7074 6.19776 84.5496 5.69353 80.7991C5.20786 77.1868 5.20793 72.5938 5.20801 66.8955V66.4382C5.20793 60.7399 5.20786 56.1469 5.69353 52.5345C6.19776 48.7841 7.27648 45.6263 9.78447 43.1183C12.2925 40.6103 15.4503 39.5316 19.2007 39.0273C20.0387 38.9147 20.9295 38.8281 21.8747 38.7617ZM28.1247 33.3335C28.1247 21.2523 37.9185 11.4585 49.9997 11.4585C62.0809 11.4585 71.8747 21.2523 71.8747 33.3335V38.5562C70.3183 38.5418 68.6597 38.5418 66.895 38.5418H33.1044C31.3397 38.5418 29.681 38.5418 28.1247 38.5562V33.3335ZM20.0335 45.2216C16.9761 45.6327 15.3571 46.3845 14.2039 47.5377C13.0507 48.6909 12.2989 50.3099 11.8878 53.3673C11.4647 56.5146 11.458 60.6859 11.458 66.6668C11.458 72.6477 11.4647 76.819 11.8878 79.9663C12.2989 83.0237 13.0507 84.6428 14.2039 85.796C15.3571 86.9491 16.9761 87.701 20.0335 88.1121C23.1808 88.5352 27.3521 88.5418 33.333 88.5418H66.6664C72.6473 88.5418 76.8186 88.5352 79.9659 88.1121C83.0233 87.701 84.6423 86.9491 85.7955 85.796C86.9487 84.6428 87.7005 83.0237 88.1116 79.9663C88.5347 76.819 88.5414 72.6477 88.5414 66.6668C88.5414 60.6859 88.5347 56.5146 88.1116 53.3673C87.7005 50.3099 86.9487 48.6909 85.7955 47.5377C84.6423 46.3845 83.0233 45.6327 79.9659 45.2216C76.8186 44.7985 72.6473 44.7918 66.6664 44.7918H33.333C27.3521 44.7918 23.1808 44.7985 20.0335 45.2216Z" fill="#F34859"/>
</svg>
