<svg width="64" height="64" viewBox="0 0 64 64" fill="none" xmlns="http://www.w3.org/2000/svg">
<path d="M32.0002 35.3333C33.1047 35.3333 34.0002 36.2287 34.0002 37.3333V47.9999C34.0002 49.1045 33.1047 49.9999 32.0002 49.9999C30.8956 49.9999 30.0002 49.1045 30.0002 47.9999V37.3333C30.0002 36.2287 30.8956 35.3333 32.0002 35.3333Z" fill="#FF9F41"/>
<path fill-rule="evenodd" clip-rule="evenodd" d="M14.0002 24.8073V21.3333C14.0002 11.3921 22.059 3.33325 32.0002 3.33325C41.9413 3.33325 50.0002 11.3921 50.0002 21.3333V24.8073C50.6051 24.8498 51.1752 24.9052 51.7115 24.9773C54.1118 25.3 56.1328 25.9904 57.7379 27.5955C59.343 29.2006 60.0334 31.2216 60.3561 33.6219C60.6669 35.9338 60.6669 38.8734 60.6668 42.5203V42.8129C60.6669 46.4598 60.6669 49.3993 60.3561 51.7113C60.0334 54.1115 59.343 56.1325 57.7379 57.7377C56.1328 59.3428 54.1118 60.0331 51.7115 60.3559C49.3996 60.6667 46.4601 60.6666 42.8132 60.6666H21.1872C17.5403 60.6666 14.6007 60.6667 12.2888 60.3559C9.88854 60.0331 7.86754 59.3428 6.26243 57.7377C4.65732 56.1325 3.96694 54.1115 3.64423 51.7113C3.3334 49.3993 3.33344 46.4598 3.3335 42.813V42.5203C3.33344 38.8734 3.3334 35.9338 3.64423 33.6219C3.96694 31.2216 4.65732 29.2006 6.26243 27.5955C7.86754 25.9904 9.88854 25.3 12.2888 24.9773C12.8252 24.9052 13.3953 24.8498 14.0002 24.8073ZM18.0002 21.3333C18.0002 13.6013 24.2682 7.33325 32.0002 7.33325C39.7322 7.33325 46.0002 13.6013 46.0002 21.3333V24.6758C45.0041 24.6666 43.9426 24.6666 42.8132 24.6666H21.1872C20.0578 24.6666 18.9962 24.6666 18.0002 24.6758V21.3333ZM12.8218 28.9416C10.8651 29.2047 9.82889 29.6859 9.09086 30.4239C8.35282 31.162 7.87163 32.1982 7.60856 34.1549C7.33775 36.1692 7.3335 38.8388 7.3335 42.6666C7.3335 46.4944 7.33775 49.164 7.60856 51.1783C7.87163 53.135 8.35282 54.1712 9.09086 54.9092C9.82889 55.6473 10.8651 56.1284 12.8218 56.3915C14.8361 56.6623 17.5057 56.6666 21.3335 56.6666H42.6668C46.4946 56.6666 49.1642 56.6623 51.1785 56.3915C53.1353 56.1284 54.1714 55.6473 54.9095 54.9092C55.6475 54.1712 56.1287 53.135 56.3918 51.1783C56.6626 49.164 56.6668 46.4944 56.6668 42.6666C56.6668 38.8388 56.6626 36.1692 56.3918 34.1549C56.1287 32.1982 55.6475 31.162 54.9095 30.4239C54.1714 29.6859 53.1353 29.2047 51.1785 28.9416C49.1642 28.6708 46.4946 28.6666 42.6668 28.6666H21.3335C17.5057 28.6666 14.8361 28.6708 12.8218 28.9416Z" fill="#FF9F41"/>
</svg>
