<svg width="16" height="16" viewBox="0 0 16 16" fill="none" xmlns="http://www.w3.org/2000/svg">
<path d="M10.7626 0.833344C10.4864 0.833344 10.2626 1.0572 10.2626 1.33334C10.2626 1.60949 10.4864 1.83334 10.7626 1.83334H13.4602L9.6471 5.64646C9.45184 5.84172 9.45184 6.1583 9.6471 6.35356C9.84236 6.54883 10.1589 6.54883 10.3542 6.35356L14.1673 2.54045V5.23811C14.1673 5.51425 14.3912 5.73811 14.6673 5.73811C14.9435 5.73811 15.1673 5.51425 15.1673 5.23811V1.33334C15.1673 1.0572 14.9435 0.833344 14.6673 0.833344H10.7626Z" fill="#858B93"/>
<path d="M5.23875 15.1667C5.51489 15.1667 5.73875 14.9428 5.73875 14.6667C5.73875 14.3905 5.51489 14.1667 5.23875 14.1667H2.54109L6.3542 10.3536C6.54947 10.1583 6.54947 9.84172 6.3542 9.64646C6.15894 9.45119 5.84236 9.45119 5.6471 9.64646L1.83398 13.4596V10.7619C1.83398 10.4858 1.61013 10.2619 1.33398 10.2619C1.05784 10.2619 0.833984 10.4858 0.833984 10.7619V14.6667C0.833984 14.9428 1.05784 15.1667 1.33398 15.1667H5.23875Z" fill="#858B93"/>
</svg>
