<svg width="20" height="20" viewBox="0 0 20 20" fill="none" xmlns="http://www.w3.org/2000/svg">
<path d="M17.3813 8.12508C17.7265 8.12508 18.0063 7.84526 18.0063 7.50008C18.0063 7.1549 17.7265 6.87508 17.3813 6.87508H14.0092L18.7756 2.10869C19.0197 1.86461 19.0197 1.46888 18.7756 1.22481C18.5315 0.980729 18.1358 0.980729 17.8917 1.22481L13.1253 5.9912V2.61913C13.1253 2.27395 12.8455 1.99413 12.5003 1.99413C12.1551 1.99413 11.8753 2.27395 11.8753 2.61913V7.50008C11.8753 7.84526 12.1551 8.12508 12.5003 8.12508H17.3813Z" fill="#858B93"/>
<path d="M2.61937 11.8751C2.2742 11.8751 1.99437 12.1549 1.99437 12.5001C1.99437 12.8453 2.2742 13.1251 2.61937 13.1251H5.99144L1.22505 17.8915C0.980973 18.1356 0.980973 18.5313 1.22505 18.7754C1.46913 19.0194 1.86486 19.0194 2.10893 18.7754L6.87533 14.009V17.381C6.87533 17.7262 7.15515 18.006 7.50033 18.006C7.8455 18.006 8.12533 17.7262 8.12533 17.381V12.5001C8.12533 12.1549 7.8455 11.8751 7.50033 11.8751H2.61937Z" fill="#858B93"/>
</svg>
