<svg width="62" height="41" viewBox="0 0 62 41" fill="none" xmlns="http://www.w3.org/2000/svg">
<path d="M27.3613 0.5C29.5705 0.5 31.3613 2.29086 31.3613 4.5V7.5C31.3613 9.70914 29.5705 11.5 27.3613 11.5H4.36133C2.15219 11.5 0.361328 9.70914 0.361328 7.5V4.5C0.361328 2.29086 2.15219 0.5 4.36133 0.5H27.3613ZM4.7793 6.75391C3.99621 6.75391 3.36133 7.38877 3.36133 8.17188C3.36145 8.95487 3.99629 9.58984 4.7793 9.58984C5.56223 9.58975 6.19714 8.95482 6.19727 8.17188C6.19727 7.38883 5.5623 6.754 4.7793 6.75391ZM9.74219 7.1084C9.15486 7.1084 8.67871 7.58455 8.67871 8.17188C8.67884 8.75909 9.15494 9.23535 9.74219 9.23535H24.9844C25.5715 9.23526 26.0477 8.75904 26.0479 8.17188C26.0479 7.58461 25.5716 7.10849 24.9844 7.1084H9.74219ZM4.7793 2.5C3.99621 2.5 3.36133 3.13487 3.36133 3.91797C3.36138 4.70103 3.99624 5.33594 4.7793 5.33594C5.56227 5.33585 6.19721 4.70097 6.19727 3.91797C6.19727 3.13492 5.5623 2.50009 4.7793 2.5ZM9.74219 2.85449C9.15486 2.85449 8.67871 3.33064 8.67871 3.91797C8.67876 4.50525 9.15489 4.98145 9.74219 4.98145H28.8838C29.4709 4.98125 29.9472 4.50513 29.9473 3.91797C29.9473 3.33076 29.4709 2.85469 28.8838 2.85449H9.74219Z" fill="#858B93" fill-opacity="0.3"/>
<mask id="mask0_555_160022" style="mask-type:alpha" maskUnits="userSpaceOnUse" x="5" y="13" width="25" height="14">
<path d="M26.9384 16L28.4384 13.5H8.93835C7.77169 17.1667 5.43835 24.6 5.43835 25C5.43835 25.4 13.105 26.1667 16.9384 26.5H29.9384L27.4384 23.5L26.9384 16Z" fill="black"/>
</mask>
<g mask="url(#mask0_555_160022)">
<path d="M35.3613 14.5C37.5705 14.5 39.3613 16.2909 39.3613 18.5V21.5C39.3613 23.7091 37.5705 25.5 35.3613 25.5H12.3613C10.1522 25.5 8.36133 23.7091 8.36133 21.5V18.5C8.36133 16.2909 10.1522 14.5 12.3613 14.5H35.3613ZM12.7793 20.7539C11.9962 20.7539 11.3613 21.3888 11.3613 22.1719C11.3614 22.9549 11.9963 23.5898 12.7793 23.5898C13.5622 23.5898 14.1971 22.9548 14.1973 22.1719C14.1973 21.3888 13.5623 20.754 12.7793 20.7539ZM17.7422 21.1084C17.1549 21.1084 16.6787 21.5845 16.6787 22.1719C16.6788 22.7591 17.1549 23.2354 17.7422 23.2354H32.9844C33.5715 23.2353 34.0477 22.759 34.0479 22.1719C34.0479 21.5846 33.5716 21.1085 32.9844 21.1084H17.7422ZM12.7793 16.5C11.9962 16.5 11.3613 17.1349 11.3613 17.918C11.3614 18.701 11.9962 19.3359 12.7793 19.3359C13.5623 19.3358 14.1972 18.701 14.1973 17.918C14.1973 17.1349 13.5623 16.5001 12.7793 16.5ZM17.7422 16.8545C17.1549 16.8545 16.6787 17.3306 16.6787 17.918C16.6788 18.5053 17.1549 18.9814 17.7422 18.9814H36.8838C37.4709 18.9812 37.9472 18.5051 37.9473 17.918C37.9473 17.3308 37.4709 16.8547 36.8838 16.8545H17.7422Z" fill="#858B93" fill-opacity="0.3"/>
</g>
<path d="M27.3613 28.5C29.5705 28.5 31.3613 30.2909 31.3613 32.5V35.5C31.3613 37.7091 29.5705 39.5 27.3613 39.5H4.36133C2.15219 39.5 0.361328 37.7091 0.361328 35.5V32.5C0.361328 30.2909 2.15219 28.5 4.36133 28.5H27.3613ZM4.7793 34.7539C3.99621 34.7539 3.36133 35.3888 3.36133 36.1719C3.36145 36.9549 3.99629 37.5898 4.7793 37.5898C5.56223 37.5898 6.19714 36.9548 6.19727 36.1719C6.19727 35.3888 5.5623 34.754 4.7793 34.7539ZM9.74219 35.1084C9.15486 35.1084 8.67871 35.5845 8.67871 36.1719C8.67884 36.7591 9.15494 37.2354 9.74219 37.2354H24.9844C25.5715 37.2353 26.0477 36.759 26.0479 36.1719C26.0479 35.5846 25.5716 35.1085 24.9844 35.1084H9.74219ZM4.7793 30.5C3.99621 30.5 3.36133 31.1349 3.36133 31.918C3.36138 32.701 3.99624 33.3359 4.7793 33.3359C5.56227 33.3358 6.19721 32.701 6.19727 31.918C6.19727 31.1349 5.5623 30.5001 4.7793 30.5ZM9.74219 30.8545C9.15486 30.8545 8.67871 31.3306 8.67871 31.918C8.67876 32.5053 9.15489 32.9814 9.74219 32.9814H28.8838C29.4709 32.9812 29.9472 32.5051 29.9473 31.918C29.9473 31.3308 29.4709 30.8547 28.8838 30.8545H9.74219Z" fill="#858B93" fill-opacity="0.3"/>
<mask id="mask1_555_160022" style="mask-type:alpha" maskUnits="userSpaceOnUse" x="27" y="5" width="27" height="26">
<ellipse cx="40.514" cy="18.4005" rx="12.5839" ry="12.5841" fill="#D9D9D9"/>
</mask>
<g mask="url(#mask1_555_160022)">
<path d="M36.9631 12.5C40.1854 12.5001 42.7971 15.1126 42.7971 18.335V22.7109C42.7969 25.9331 40.1853 28.5448 36.9631 28.5449H3.41431C0.192059 28.5449 -2.42046 25.9331 -2.42065 22.7109V18.335C-2.42065 15.1126 0.191938 12.5 3.41431 12.5H36.9631ZM4.02368 21.6221C2.88149 21.6221 1.95542 22.5482 1.95532 23.6904C1.9555 24.8326 2.88154 25.7588 4.02368 25.7588C5.16569 25.7586 6.09187 24.8325 6.09204 23.6904C6.09195 22.5483 5.16574 21.6222 4.02368 21.6221ZM11.2629 22.1396C10.4063 22.1396 9.71128 22.8338 9.71118 23.6904C9.71136 24.547 10.4063 25.2422 11.2629 25.2422H33.4954C34.3518 25.242 35.0469 24.5469 35.0471 23.6904C35.047 22.8339 34.3519 22.1398 33.4954 22.1396H11.2629ZM4.02368 15.417C2.88153 15.417 1.95547 16.3432 1.95532 17.4854C1.9554 18.6276 2.88148 19.5537 4.02368 19.5537C5.16575 19.5536 6.09197 18.6275 6.09204 17.4854C6.09189 16.3433 5.1657 15.4172 4.02368 15.417ZM11.2629 15.9346C10.4063 15.9346 9.71133 16.6288 9.71118 17.4854C9.71126 18.342 10.4063 19.0371 11.2629 19.0371H39.1838C40.0402 19.0368 40.7345 18.3418 40.7346 17.4854C40.7345 16.629 40.0402 15.9349 39.1838 15.9346H11.2629Z" fill="#858B93" fill-opacity="0.3"/>
</g>
<path d="M49.6179 32.8C48.4678 31.7368 48.3973 29.9427 49.4604 28.7925C50.5235 27.6424 52.3177 27.5719 53.4678 28.6351L59.715 34.4099C60.8651 35.4731 60.9356 37.2673 59.8725 38.4174C58.8094 39.5675 57.0152 39.638 55.8652 38.5749L49.6179 32.8Z" fill="#858B93"/>
<path d="M46.0078 27.3945L47.9327 25.3121L51.3167 28.4401C51.8917 28.9717 51.9269 29.8688 51.3954 30.4439L-nan -nanL51.3954 30.4439C50.8638 31.0189 49.9668 31.0542 49.3917 30.5226L46.0078 27.3945Z" fill="#272B30"/>
<path fill-rule="evenodd" clip-rule="evenodd" d="M38.3872 28.5033C43.9667 28.5033 48.4897 23.9801 48.4897 18.4005C48.4897 12.8209 43.9667 8.29779 38.3872 8.29779C32.8077 8.29779 28.2847 12.8209 28.2847 18.4005C28.2847 23.9801 32.8077 28.5033 38.3872 28.5033ZM38.3872 30.9847C45.3371 30.9847 50.9711 25.3506 50.9711 18.4005C50.9711 11.4505 45.3371 5.81641 38.3872 5.81641C31.4373 5.81641 25.8033 11.4505 25.8033 18.4005C25.8033 25.3506 31.4373 30.9847 38.3872 30.9847Z" fill="#858B93"/>
</svg>
