<svg width="17" height="18" viewBox="0 0 17 18" fill="none" xmlns="http://www.w3.org/2000/svg">
<path fill-rule="evenodd" clip-rule="evenodd" d="M8.125 5C6.39911 5 5 6.39911 5 8.125C5 9.14808 5.49189 10.0557 6.25 10.6251V11.4583C6.25 12.2637 6.90292 12.9167 7.70833 12.9167H8.54167C9.34708 12.9167 10 12.2637 10 11.4583V10.6251C10.7581 10.0557 11.25 9.14808 11.25 8.125C11.25 6.39911 9.85089 5 8.125 5ZM6.25 8.125C6.25 7.08947 7.08947 6.25 8.125 6.25C9.16053 6.25 10 7.08947 10 8.125C10 8.81823 9.62411 9.4244 9.06205 9.74954C8.86893 9.86125 8.75 10.0674 8.75 10.2905V11.4583C8.75 11.5734 8.65673 11.6667 8.54167 11.6667H7.70833C7.59327 11.6667 7.5 11.5734 7.5 11.4583V10.2905C7.5 10.0674 7.38107 9.86125 7.18795 9.74954C6.62588 9.4244 6.25 8.81823 6.25 8.125Z" fill="#EFEFEF"/>
<path fill-rule="evenodd" clip-rule="evenodd" d="M8.125 0C7.34373 0 6.59777 0.255486 5.39449 0.667596L4.78829 0.875114C3.55385 1.29767 2.60117 1.62377 1.91919 1.90082C1.57565 2.04038 1.28031 2.17556 1.04248 2.31367C0.813619 2.44659 0.584018 2.61237 0.428027 2.83462C0.273837 3.0543 0.194111 3.32437 0.144012 3.58435C0.0919266 3.85463 0.0605199 4.17886 0.040249 4.55113C0 5.2903 0 6.30293 0 7.61636V8.95113C0 14.0353 3.84002 16.4729 6.12361 17.4705L6.14619 17.4803C6.42936 17.6041 6.69551 17.7204 7.00134 17.7987C7.32422 17.8813 7.66728 17.9167 8.125 17.9167C8.58272 17.9167 8.92578 17.8813 9.24866 17.7987C9.55448 17.7204 9.82063 17.6041 10.1038 17.4803L10.1264 17.4705C12.41 16.4729 16.25 14.0353 16.25 8.95113V7.61651C16.25 6.30301 16.25 5.29033 16.2097 4.55113C16.1895 4.17886 16.1581 3.85463 16.106 3.58435C16.0559 3.32437 15.9762 3.0543 15.822 2.83462C15.666 2.61237 15.4364 2.44659 15.2075 2.31367C14.9697 2.17556 14.6743 2.04038 14.3308 1.90082C13.6488 1.62377 12.6961 1.29766 11.4617 0.87511L10.8555 0.667598C9.65224 0.255486 8.90627 0 8.125 0ZM5.69218 1.88691C7.03762 1.42636 7.57688 1.25 8.125 1.25C8.67312 1.25 9.21238 1.42636 10.5578 1.88691L11.0352 2.05031C12.2957 2.48178 13.2149 2.79671 13.8603 3.05891C14.1825 3.18978 14.4159 3.29946 14.5798 3.39461C14.6606 3.44159 14.7164 3.48035 14.7536 3.5106C14.7851 3.53624 14.7972 3.55076 14.7989 3.5529C14.8005 3.5555 14.8109 3.57281 14.8255 3.61378C14.8421 3.66054 14.8606 3.72757 14.8786 3.82088C14.915 4.00974 14.9425 4.26918 14.9616 4.6191C14.9998 5.32009 15 6.29861 15 7.63888V8.95113C15 13.2637 11.7751 15.3862 9.62601 16.325C9.31644 16.4602 9.13768 16.5368 8.93867 16.5877C8.7486 16.6364 8.51667 16.6667 8.125 16.6667C7.73333 16.6667 7.5014 16.6364 7.31133 16.5877C7.11232 16.5368 6.93356 16.4602 6.62399 16.325C4.47491 15.3862 1.25 13.2637 1.25 8.95113V7.63888C1.25 6.29861 1.25023 5.32009 1.2884 4.6191C1.30745 4.26918 1.33503 4.00974 1.37143 3.82088C1.38941 3.72757 1.40787 3.66054 1.42452 3.61378C1.43911 3.57284 1.44946 3.55552 1.45108 3.55291C1.4528 3.55079 1.46483 3.53626 1.49639 3.5106C1.53361 3.48035 1.58935 3.44159 1.67024 3.39461C1.83408 3.29946 2.0675 3.18978 2.38966 3.05891C3.03508 2.79671 3.95434 2.48178 5.21484 2.05031L5.69218 1.88691Z" fill="#EFEFEF"/>
</svg>
