<svg width="16" height="20" viewBox="0 0 16 20" fill="none" xmlns="http://www.w3.org/2000/svg">
<path fill-rule="evenodd" clip-rule="evenodd" d="M2.70525 0H9.39191L15.0591 5.90705V17.3963C15.0591 18.8356 13.8947 20 12.4604 20H2.70525C1.26598 20 0.101563 18.8356 0.101563 17.3963V2.60369C0.101537 1.16441 1.26595 0 2.70525 0Z" fill="#F34859"/>
<path opacity="0.302" fill-rule="evenodd" clip-rule="evenodd" d="M9.38672 0V5.86207H15.0589L9.38672 0Z" fill="white"/>
<path d="M2.99512 14.9227V11.2695H4.54935C4.93416 11.2695 5.23901 11.3745 5.46889 11.5894C5.69877 11.7993 5.81373 12.0841 5.81373 12.4389C5.81373 12.7938 5.69877 13.0786 5.46889 13.2885C5.23901 13.5034 4.93416 13.6084 4.54935 13.6084H3.92965V14.9227H2.99512ZM3.92965 12.8138H4.4444C4.58432 12.8138 4.69427 12.7838 4.76924 12.7138C4.84419 12.6489 4.8842 12.5589 4.8842 12.439C4.8842 12.319 4.84422 12.2291 4.76924 12.1641C4.69429 12.0941 4.58434 12.0642 4.4444 12.0642H3.92965V12.8138ZM6.19851 14.9227V11.2695H7.49286C7.74774 11.2695 7.98762 11.3045 8.2125 11.3795C8.43738 11.4544 8.64229 11.5594 8.82219 11.7043C9.00211 11.8442 9.14704 12.0341 9.25198 12.274C9.35192 12.5139 9.40691 12.7888 9.40691 13.0986C9.40691 13.4035 9.35195 13.6783 9.25198 13.9182C9.14704 14.1581 9.00211 14.348 8.82219 14.4879C8.64227 14.6328 8.43738 14.7378 8.2125 14.8128C7.98762 14.8877 7.74774 14.9227 7.49286 14.9227H6.19851ZM7.11306 14.1281H7.38292C7.52784 14.1281 7.66278 14.1131 7.78771 14.0781C7.90765 14.0432 8.0226 13.9882 8.13255 13.9132C8.23749 13.8383 8.32245 13.7333 8.38242 13.5934C8.44238 13.4535 8.47238 13.2885 8.47238 13.0986C8.47238 12.9037 8.44238 12.7388 8.38242 12.5989C8.32245 12.459 8.23749 12.354 8.13255 12.279C8.0226 12.2041 7.90767 12.1491 7.78771 12.1141C7.66278 12.0792 7.52784 12.0641 7.38292 12.0641H7.11306V14.1281ZM9.87668 14.9227V11.2695H12.4754V12.0641H10.8112V12.6488H12.1405V13.4385H10.8112V14.9227H9.87668Z" fill="white"/>
</svg>
