<svg width="20" height="21" viewBox="0 0 20 21" fill="none" xmlns="http://www.w3.org/2000/svg">
<path fill-rule="evenodd" clip-rule="evenodd" d="M10.0001 18.8332C14.6025 18.8332 18.3334 15.1022 18.3334 10.4998C18.3334 5.89746 14.6025 2.1665 10.0001 2.1665C5.39771 2.1665 1.66675 5.89746 1.66675 10.4998C1.66675 15.1022 5.39771 18.8332 10.0001 18.8332ZM10.6251 7.99984C10.6251 7.65466 10.3453 7.37484 10.0001 7.37484C9.6549 7.37484 9.37508 7.65466 9.37508 7.99984L9.37508 9.87486H7.50008C7.1549 9.87486 6.87508 10.1547 6.87508 10.4999C6.87508 10.845 7.1549 11.1249 7.50008 11.1249H9.37508V12.9998C9.37508 13.345 9.6549 13.6248 10.0001 13.6248C10.3453 13.6248 10.6251 13.345 10.6251 12.9998L10.6251 11.1249H12.5001C12.8453 11.1249 13.1251 10.845 13.1251 10.4999C13.1251 10.1547 12.8453 9.87486 12.5001 9.87486H10.6251V7.99984Z" fill="#1AAF74"/>
</svg>
