<svg width="18" height="17" viewBox="0 0 18 17" fill="none" xmlns="http://www.w3.org/2000/svg">
<path fill-rule="evenodd" clip-rule="evenodd" d="M1.8864 1.3864C0.666016 2.60679 0.666016 4.57098 0.666016 8.49935C0.666016 12.4277 0.666016 14.3919 1.8864 15.6123C3.10679 16.8327 5.07098 16.8327 8.99935 16.8327C12.9277 16.8327 14.8919 16.8327 16.1123 15.6123C17.3327 14.3919 17.3327 12.4277 17.3327 8.49935C17.3327 4.57098 17.3327 2.60679 16.1123 1.3864C14.8919 0.166016 12.9277 0.166016 8.99935 0.166016C5.07098 0.166016 3.10679 0.166016 1.8864 1.3864ZM10.4577 6.83268C10.4577 7.17786 10.7375 7.45768 11.0827 7.45768H11.6571L9.98 9.13482C9.89864 9.21618 9.76673 9.21618 9.68537 9.13482L8.36388 7.81333C7.79436 7.24381 6.871 7.24382 6.30149 7.81333L4.39074 9.72407C4.14666 9.96815 4.14666 10.3639 4.39074 10.608C4.63482 10.852 5.03055 10.852 5.27462 10.608L7.18537 8.69721C7.26673 8.61585 7.39864 8.61585 7.48 8.69721L8.80149 10.0187C9.371 10.5882 10.2944 10.5882 10.8639 10.0187L12.541 8.34157V8.91602C12.541 9.26119 12.8208 9.54102 13.166 9.54102C13.5112 9.54102 13.791 9.26119 13.791 8.91602V6.83268C13.791 6.4875 13.5112 6.20768 13.166 6.20768H11.0827C10.7375 6.20768 10.4577 6.4875 10.4577 6.83268Z" fill="#858B93"/>
</svg>
