<svg width="17" height="16" viewBox="0 0 17 16" fill="none" xmlns="http://www.w3.org/2000/svg">
<path fill-rule="evenodd" clip-rule="evenodd" d="M12.743 2.03906C13.0191 2.03906 13.243 2.26292 13.243 2.53906V5.36749C13.243 5.64363 13.0191 5.86749 12.743 5.86749H9.91454C9.6384 5.86749 9.41454 5.64363 9.41454 5.36749C9.41454 5.09135 9.6384 4.86749 9.91454 4.86749H11.4881C9.59121 3.3721 6.83279 3.49949 5.08264 5.24964C3.19511 7.13717 3.19511 10.1975 5.08264 12.085C6.97018 13.9725 10.0305 13.9725 11.918 12.085C13.1826 10.8204 13.6006 9.02917 13.1696 7.41523C13.0983 7.14844 13.2569 6.8744 13.5237 6.80316C13.7904 6.73191 14.0645 6.89043 14.1357 7.15722C14.655 9.10186 14.1523 11.2649 12.6251 12.7921C10.3471 15.0702 6.65359 15.0702 4.37554 12.7921C2.09748 10.5141 2.09748 6.82059 4.37554 4.54253C6.53021 2.38785 9.95113 2.27116 12.243 4.19244V2.53906C12.243 2.26292 12.4668 2.03906 12.743 2.03906Z" fill="white" fill-opacity="0.3"/>
</svg>
