<svg width="20" height="20" viewBox="0 0 20 20" fill="none" xmlns="http://www.w3.org/2000/svg">
<path fill-rule="evenodd" clip-rule="evenodd" d="M15.303 2.54785C15.6482 2.54785 15.928 2.82767 15.928 3.17285V6.70838C15.928 7.05356 15.6482 7.33338 15.303 7.33338H11.7674C11.4223 7.33338 11.1424 7.05356 11.1424 6.70838C11.1424 6.36321 11.4223 6.08339 11.7674 6.08339H13.7344C11.3633 4.21415 7.91526 4.37338 5.72757 6.56107C3.36815 8.92049 3.36815 12.7459 5.72757 15.1053C8.08699 17.4647 11.9124 17.4647 14.2718 15.1053C15.8525 13.5246 16.375 11.2855 15.8362 9.26806C15.7472 8.93457 15.9453 8.59203 16.2788 8.50297C16.6123 8.41391 16.9549 8.61206 17.0439 8.94555C17.6931 11.3764 17.0647 14.0802 15.1557 15.9892C12.3081 18.8367 7.69126 18.8367 4.84369 15.9892C1.99611 13.1416 1.99611 8.52476 4.84369 5.67719C7.53703 2.98384 11.8132 2.83797 14.678 5.23957V3.17285C14.678 2.82767 14.9578 2.54785 15.303 2.54785Z" fill="#858B93"/>
</svg>
