<svg width="46" height="48" viewBox="0 0 46 48" fill="none" xmlns="http://www.w3.org/2000/svg">
<rect x="2" y="3" width="42" height="42" rx="14" fill="#FFC24D" fill-opacity="0.4"/>
<g filter="url(#filter1_d_10797_55857)">
<path d="M34.3668 31.0152C34.3668 37.2128 31.0029 37.4061 22.2752 37.4061C22.2716 37.4061 22.2698 37.4061 22.2661 37.4061C13.5385 37.4061 10.1746 37.2128 10.1746 31.0152C10.1746 25.8041 14.8355 22.8263 19.1903 15.8574H22.2661H22.2752H25.3511C29.7059 22.8263 34.3668 25.8041 34.3668 31.0152Z" fill="url(#paint0_linear_10797_55857)"/>
<path d="M27.6645 10.6378L25.6894 15.044H18.5762L16.6141 10.7873C16.5767 10.4714 16.9957 10.2143 17.4053 10.1941C17.815 10.174 18.204 10.3218 18.5706 10.463C18.9372 10.6042 19.33 10.747 19.7377 10.7184C20.6168 10.6579 21.3126 9.83115 22.1581 10.0311C22.6687 10.1504 22.9474 10.6142 23.4599 10.7319C24.0977 10.8798 24.6794 10.4361 25.2891 10.2311C26.084 9.96222 27.0922 10.1353 27.6645 10.6378Z" fill="url(#paint1_linear_10797_55857)"/>
<path fill-rule="evenodd" clip-rule="evenodd" d="M18.5766 14.8541L18.5764 14.8535C18.5764 14.8535 18.577 14.8537 18.5781 14.8541H25.6894L25.6898 14.8539L25.3681 15.9956C25.3681 15.9956 24.6542 15.9393 23.9523 15.9084L25.7451 20.8551C25.8729 21.2076 25.6118 21.5799 25.2368 21.5799C24.9844 21.5799 24.7655 21.4052 24.7096 21.1589L23.5735 16.1509L23.1688 19.7335C23.1368 20.0168 22.8971 20.2309 22.612 20.2309C22.2385 20.2309 21.9696 19.8724 22.0741 19.5138L23.1307 15.8888H22.1377H22.1283H20.9618C20.1436 15.897 18.8981 15.9952 18.8981 15.9952L18.5771 14.856L18.5764 14.8541H18.5766Z" fill="#FFFEFC"/>
<path d="M21.7887 24.3784V23.3764H24.9207V24.3784H21.7887ZM21.0807 31.5964C20.4767 31.5964 19.9547 31.4464 19.5147 31.1464C19.0787 30.8464 18.7407 30.4384 18.5007 29.9224C18.2647 29.4024 18.1467 28.8184 18.1467 28.1704C18.1467 27.5184 18.2667 26.9364 18.5067 26.4244C18.7467 25.9084 19.0867 25.5024 19.5267 25.2064C19.9707 24.9064 20.4967 24.7564 21.1047 24.7564C21.7167 24.7564 22.2307 24.9064 22.6467 25.2064C23.0667 25.5024 23.3827 25.9084 23.5947 26.4244C23.8107 26.9404 23.9187 27.5224 23.9187 28.1704C23.9187 28.8184 23.8107 29.4004 23.5947 29.9164C23.3787 30.4324 23.0607 30.8424 22.6407 31.1464C22.2207 31.4464 21.7007 31.5964 21.0807 31.5964ZM21.2547 30.4624C21.6667 30.4624 22.0027 30.3644 22.2627 30.1684C22.5227 29.9724 22.7127 29.7024 22.8327 29.3584C22.9527 29.0144 23.0127 28.6184 23.0127 28.1704C23.0127 27.7224 22.9507 27.3264 22.8267 26.9824C22.7067 26.6384 22.5187 26.3704 22.2627 26.1784C22.0107 25.9864 21.6887 25.8904 21.2967 25.8904C20.8807 25.8904 20.5387 25.9924 20.2707 26.1964C20.0027 26.4004 19.8027 26.6744 19.6707 27.0184C19.5427 27.3624 19.4787 27.7464 19.4787 28.1704C19.4787 28.5984 19.5427 28.9864 19.6707 29.3344C19.8027 29.6784 19.9987 29.9524 20.2587 30.1564C20.5227 30.3604 20.8547 30.4624 21.2547 30.4624ZM23.0127 31.4164V26.7544H22.8687V22.7764H24.1287V31.4164H23.0127Z" fill="white"/>
<path d="M35.6267 36.4618L35.6793 35.7477L35.4962 35.7351C35.0167 34.64 33.3039 33.7323 31.2027 33.5669C29.0442 33.3969 27.1679 34.0637 26.5729 35.1187L26.4298 35.1084L26.3803 35.7336C26.271 37.1318 28.2511 38.4277 30.8042 38.6292C33.3589 38.83 35.5174 37.8592 35.6267 36.4618Z" fill="#FE9C08"/>
<path d="M30.8548 38.0053C28.3017 37.8037 26.3216 36.5078 26.4316 35.1096C26.5409 33.7122 28.7002 32.7414 31.2525 32.943C33.8056 33.1445 35.7857 34.4404 35.6764 35.8386C35.5664 37.2353 33.4079 38.206 30.8548 38.0053Z" fill="#FFAC2F"/>
<path d="M31.1825 33.3731C33.4094 33.5487 35.156 34.6131 35.1835 35.7838C35.1906 35.7444 35.1961 35.7043 35.1993 35.6641C35.2952 34.447 33.5053 33.3141 31.2022 33.1322C28.899 32.9503 26.9535 33.7896 26.8584 35.0067C26.8553 35.0469 26.8545 35.087 26.8553 35.1272C27.0636 33.9754 28.9556 33.1967 31.1825 33.3731Z" fill="#FE9C08"/>
<path d="M30.8553 37.5376C33.0822 37.7132 34.9742 36.9345 35.1833 35.7835C35.1566 34.6128 33.4092 33.5484 31.1823 33.3728C28.9554 33.1973 27.0633 33.9759 26.8542 35.1269C26.881 36.2968 28.6284 37.362 30.8553 37.5376Z" fill="#FFDC69"/>
<path opacity="0.5" d="M31.6177 33.8864C32.1043 34.4966 32.5665 35.1233 33.0216 35.7578C33.3361 36.1963 33.6481 36.6364 33.9594 37.0773C34.2031 36.9632 34.4177 36.8325 34.5969 36.686C34.262 36.1869 33.9217 35.6909 33.5727 35.2004C33.1733 34.6407 32.7575 34.0943 32.337 33.5511C31.9801 33.4676 31.6028 33.407 31.209 33.3755C31.345 33.5455 31.4817 33.7156 31.6177 33.8864Z" fill="#FFDC69"/>
<path opacity="0.5" d="M28.2691 34.88C28.8382 35.5752 29.3821 36.2948 29.9135 37.0199C30.022 37.1671 30.1281 37.3159 30.2342 37.4647C30.4362 37.497 30.6437 37.5214 30.8552 37.5379C31.2066 37.5655 31.5485 37.5686 31.8779 37.5513C31.5579 37.1317 31.2333 36.7168 30.8984 36.3089C30.1603 35.4083 29.4073 34.5194 28.6888 33.603C28.2699 33.7282 27.9036 33.8959 27.6104 34.0974C27.8304 34.3573 28.0529 34.6163 28.2691 34.88Z" fill="#FFDC69"/>
<path opacity="0.6" d="M35.099 36.9326C35.099 36.9326 35.0801 36.9625 35.0353 37.0129C35.0133 37.0381 34.9858 37.0688 34.9496 37.1019C34.9315 37.1184 34.9135 37.1381 34.8922 37.1562C34.871 37.1735 34.8474 37.1924 34.8238 37.2129C34.7272 37.2924 34.5998 37.3774 34.4481 37.4656C34.3719 37.5089 34.2878 37.5483 34.1997 37.5932C34.1109 37.6341 34.0134 37.6703 33.9144 37.712C33.813 37.7483 33.7053 37.7813 33.5952 37.8183C33.4836 37.8514 33.3665 37.8766 33.2462 37.9073C33.1865 37.9238 33.1244 37.9333 33.0623 37.9443C32.9994 37.9553 32.9365 37.9671 32.8729 37.9781C32.7455 38.0049 32.6135 38.0144 32.4798 38.0301C32.413 38.0372 32.3454 38.0451 32.2778 38.0521C32.2094 38.0577 32.141 38.06 32.0719 38.064C31.9335 38.0695 31.7936 38.0821 31.6521 38.0813C31.5106 38.0797 31.3683 38.0781 31.2261 38.0773L31.1192 38.0766C31.0838 38.075 31.0476 38.0726 31.0123 38.0703L30.7977 38.0577C30.6554 38.0482 30.5131 38.0388 30.3708 38.0293C30.227 38.0183 30.0847 38.0002 29.9448 37.9781C29.6642 37.9341 29.3922 37.8679 29.1344 37.79C28.8758 37.7128 28.6321 37.6176 28.4073 37.5136C28.1825 37.4097 27.9781 37.294 27.7981 37.1759C27.6173 37.0578 27.4609 36.9366 27.3312 36.8193C27.2643 36.7626 27.2077 36.7027 27.1519 36.6516C27.0993 36.5972 27.0521 36.5461 27.0089 36.5004C26.9271 36.4059 26.865 36.3296 26.8257 36.2752C26.7856 36.2217 26.7644 36.1934 26.7644 36.1934C26.7644 36.1934 26.788 36.2201 26.832 36.2705C26.8548 36.2949 26.8807 36.3272 26.9145 36.3618C26.9483 36.3965 26.9869 36.4366 27.0293 36.4823C27.0749 36.5248 27.1236 36.5728 27.1794 36.6232C27.2368 36.6712 27.2958 36.7264 27.365 36.7783C27.4994 36.887 27.6605 36.9964 27.8421 37.1058C28.2052 37.3239 28.6604 37.5255 29.1697 37.6687C29.4236 37.742 29.6917 37.7979 29.966 37.8412C30.1036 37.8616 30.2419 37.8789 30.3811 37.8884C30.5225 37.8963 30.6648 37.9049 30.8063 37.9136L31.0178 37.9278C31.0531 37.9301 31.0885 37.9333 31.1239 37.9341L31.23 37.9356C31.3707 37.9372 31.5114 37.9396 31.6505 37.9419C31.7205 37.9451 31.7897 37.9388 31.8588 37.9372C31.928 37.9348 31.9964 37.9325 32.0648 37.9301C32.1332 37.927 32.2008 37.927 32.2684 37.9222C32.3352 37.9159 32.402 37.9096 32.468 37.9041C32.5993 37.8908 32.7306 37.8829 32.8556 37.8608C32.9184 37.8514 32.9813 37.8419 33.0426 37.8325C33.104 37.823 33.1653 37.816 33.2242 37.801C33.3421 37.7742 33.4585 37.7514 33.5693 37.7238C33.6786 37.6924 33.7855 37.664 33.8869 37.6325C33.9867 37.5963 34.0826 37.5632 34.173 37.5286C34.261 37.4892 34.3467 37.4554 34.4237 37.4168C34.577 37.3397 34.7075 37.2625 34.8073 37.1893C34.8576 37.1531 34.9025 37.12 34.9386 37.0885C34.9771 37.0586 35.0062 37.0302 35.0298 37.0066C35.0777 36.961 35.099 36.9326 35.099 36.9326Z" fill="white"/>
<path d="M30.9986 33.7356L30.8398 32.9397L30.6362 32.9822C29.781 31.9335 27.6366 31.4651 25.2949 31.9241C22.8888 32.3957 21.0447 33.6939 20.7162 35.026L20.5574 35.0591L20.6934 35.7558C20.9984 37.3139 23.5523 38.1256 26.3978 37.5674C29.2425 37.0092 31.3028 35.2937 30.9986 33.7356Z" fill="#FE9C08"/>
<path d="M26.2611 36.8707C23.4147 37.4281 20.8616 36.6172 20.5566 35.0591C20.2524 33.5011 22.3127 31.7856 25.1582 31.2282C28.0037 30.6708 30.5576 31.4817 30.8626 33.0397C31.1668 34.5978 29.1066 36.3133 26.2611 36.8707Z" fill="#FFAC2F"/>
<path d="M25.2125 31.718C27.6949 31.2314 29.9234 31.8621 30.3078 33.1304C30.3038 33.0847 30.2975 33.0398 30.2889 32.995C30.024 31.6392 27.7279 30.9472 25.1599 31.4503C22.5918 31.9534 20.7257 33.461 20.9906 34.8167C20.9993 34.8616 21.0103 34.9057 21.0236 34.949C20.9034 33.6295 22.7302 32.2045 25.2125 31.718Z" fill="#FE9C08"/>
<path d="M26.1195 36.3621C28.6019 35.8755 30.4295 34.4505 30.3076 33.131C29.9232 31.8627 27.6948 31.2329 25.2124 31.7186C22.73 32.2052 20.9024 33.6302 21.0235 34.9497C21.4087 36.218 23.6371 36.8486 26.1195 36.3621Z" fill="#FFDC69"/>
<path opacity="0.5" d="M25.8435 32.1455C26.5596 32.6628 27.2537 33.2052 27.9422 33.7587C28.4186 34.1413 28.8926 34.5271 29.3658 34.9128C29.5969 34.7144 29.7918 34.5058 29.9428 34.2917C29.4255 33.8484 28.9044 33.4115 28.3754 32.9832C27.7701 32.4935 27.1507 32.0243 26.5266 31.5605C26.1131 31.5779 25.6823 31.6275 25.2429 31.7117C25.4426 31.8574 25.643 32.0006 25.8435 32.1455Z" fill="#FFDC69"/>
<path opacity="0.5" d="M22.492 34.2483C23.3245 34.8332 24.1365 35.4528 24.9351 36.0819C25.0978 36.2102 25.259 36.3393 25.4193 36.4692C25.6496 36.4425 25.8831 36.407 26.1189 36.3606C26.5104 36.2834 26.8845 36.1834 27.2382 36.0638C26.7627 35.704 26.2816 35.3497 25.7935 35.0064C24.715 34.2491 23.624 33.5082 22.562 32.728C22.143 32.9918 21.7948 33.2862 21.5354 33.5956C21.8553 33.8121 22.1768 34.0263 22.492 34.2483Z" fill="#FFDC69"/>
<path opacity="0.6" d="M30.5656 34.4092C30.5656 34.4092 30.5538 34.4478 30.52 34.5163C30.5035 34.5501 30.4831 34.5926 30.454 34.6399C30.4398 34.6635 30.4257 34.6902 30.4084 34.7162C30.3903 34.7422 30.3707 34.7698 30.3502 34.7989C30.2685 34.9154 30.1561 35.0469 30.0169 35.1886C29.947 35.2595 29.8668 35.3279 29.7851 35.4035C29.7002 35.4752 29.6051 35.5444 29.5092 35.62C29.4093 35.6909 29.3024 35.7594 29.1932 35.8326C29.0815 35.9027 28.9613 35.9657 28.8394 36.0357C28.7797 36.0719 28.7145 36.1011 28.65 36.1326C28.5855 36.164 28.5203 36.1955 28.4535 36.227C28.323 36.2947 28.1815 36.3451 28.0408 36.4034C27.9701 36.4317 27.8985 36.4601 27.827 36.4892C27.7539 36.516 27.68 36.5396 27.6061 36.5648C27.4568 36.6128 27.3082 36.6687 27.1541 36.7112C27.0001 36.7529 26.8444 36.7947 26.688 36.8372L26.5709 36.8687C26.5316 36.8781 26.4915 36.886 26.4522 36.8947L26.214 36.9458C26.056 36.9789 25.898 37.012 25.74 37.045C25.5797 37.0765 25.4185 37.1001 25.2597 37.119C24.9406 37.1568 24.6238 37.1671 24.3188 37.1608C24.013 37.1552 23.7183 37.1253 23.4416 37.0805C23.1649 37.0356 22.9071 36.9718 22.6744 36.897C22.4417 36.823 22.2334 36.7388 22.0565 36.6498C21.9662 36.6089 21.8868 36.5608 21.8113 36.5215C21.7374 36.479 21.6706 36.4372 21.6093 36.401C21.4906 36.3223 21.4002 36.2577 21.3412 36.2105C21.2815 36.164 21.2493 36.1396 21.2493 36.1396C21.2493 36.1396 21.2831 36.1617 21.3467 36.2034C21.379 36.2231 21.4167 36.2506 21.4639 36.2782C21.511 36.3058 21.5653 36.338 21.6258 36.3735C21.6879 36.4065 21.7563 36.4435 21.8317 36.4821C21.9096 36.5168 21.9905 36.5593 22.0809 36.5947C22.2609 36.6718 22.47 36.7427 22.7011 36.8073C23.1633 36.934 23.7214 37.0159 24.3204 37.0167C24.6199 37.019 24.9296 36.9986 25.2409 36.9624C25.3965 36.9435 25.5529 36.9191 25.7078 36.8876C25.865 36.8545 26.0222 36.8199 26.1794 36.786L26.4152 36.7372C26.4545 36.7285 26.4938 36.7207 26.5331 36.712L26.6487 36.6813C26.8035 36.6404 26.9568 36.6002 27.1101 36.5608C27.1871 36.5427 27.261 36.5152 27.3349 36.4916C27.4096 36.4679 27.4835 36.4443 27.5574 36.4215C27.6313 36.3979 27.7052 36.3758 27.7767 36.3506C27.8474 36.3239 27.9182 36.2971 27.9881 36.2695C28.1281 36.2152 28.268 36.1672 28.3985 36.105C28.4645 36.0751 28.5297 36.046 28.5942 36.0176C28.6586 35.9885 28.7231 35.9617 28.7828 35.9279C28.9039 35.8633 29.0234 35.8035 29.1358 35.7389C29.2458 35.6712 29.3543 35.6074 29.4549 35.5429C29.5524 35.4728 29.6467 35.4075 29.7348 35.3421C29.8189 35.272 29.9022 35.2099 29.9745 35.1437C30.1184 35.0122 30.237 34.8886 30.3243 34.7792C30.3683 34.7241 30.4068 34.6745 30.4367 34.6288C30.4689 34.5847 30.4933 34.5446 30.5114 34.5115C30.5507 34.447 30.5656 34.4092 30.5656 34.4092Z" fill="white"/>
</g>
<defs>
<filter id="filter1_d_10797_55857" x="0.841227" y="0.666666" width="44.3879" height="47.3219" filterUnits="userSpaceOnUse" color-interpolation-filters="sRGB">
<feFlood flood-opacity="0" result="BackgroundImageFix"/>
<feColorMatrix in="SourceAlpha" type="matrix" values="0 0 0 0 0 0 0 0 0 0 0 0 0 0 0 0 0 0 127 0" result="hardAlpha"/>
<feOffset/>
<feGaussianBlur stdDeviation="4.66667"/>
<feComposite in2="hardAlpha" operator="out"/>
<feColorMatrix type="matrix" values="0 0 0 0 0.795833 0 0 0 0 0.238883 0 0 0 0 0.0630035 0 0 0 0.25 0"/>
<feBlend mode="normal" in2="BackgroundImageFix" result="effect1_dropShadow_10797_55857"/>
<feBlend mode="normal" in="SourceGraphic" in2="effect1_dropShadow_10797_55857" result="shape"/>
</filter>
<linearGradient id="paint0_linear_10797_55857" x1="22.2707" y1="15.8574" x2="22.2707" y2="37.4061" gradientUnits="userSpaceOnUse">
<stop stop-color="#FFAF14"/>
<stop offset="1" stop-color="#E64F20"/>
</linearGradient>
<linearGradient id="paint1_linear_10797_55857" x1="22.1382" y1="10" x2="22.1382" y2="15.044" gradientUnits="userSpaceOnUse">
<stop stop-color="#F47D4A"/>
<stop offset="1" stop-color="#FFCA42"/>
</linearGradient>
</defs>
</svg>
