<svg width="42" height="42" viewBox="0 0 42 42" fill="none" xmlns="http://www.w3.org/2000/svg">
<rect width="42" height="42" rx="14" fill="#959595" fill-opacity="0.12"/>
<path d="M31.9705 28.0152C31.9705 29.5277 31.7638 30.6121 31.3627 31.402C30.9709 32.1736 30.3739 32.7031 29.5016 33.0747C28.6116 33.4538 27.438 33.6667 25.9131 33.7804C24.392 33.8937 22.5638 33.906 20.3789 33.906H20.3789H20.3789H20.3789H20.3788H20.3788H20.3788H20.3788H20.3788H20.3787H20.3787H20.3787H20.3787H20.3786H20.3786H20.3786H20.3786H20.3786H20.3785H20.3785H20.3785H20.3785H20.3785H20.3784H20.3784H20.3784H20.3784H20.3784H20.3783H20.3783H20.3783H20.3783H20.3783H20.3782H20.3782H20.3782H20.3782H20.3782H20.3781H20.3781H20.3781H20.3781H20.3781H20.378H20.378H20.378H20.378H20.378H20.378H20.3779H20.3779H20.3779H20.3779H20.3779H20.3778H20.3778H20.3778H20.3778H20.3778H20.3777H20.3777H20.3777H20.3777H20.3777H20.3776H20.3776H20.3776H20.3776H20.3776H20.3776H20.3775H20.3775H20.3775H20.3775H20.3775H20.3774H20.3774H20.3774H20.3774H20.3774H20.3774H20.3773H20.3773H20.3773H20.3773H20.3773H20.3772H20.3772H20.3772H20.3772H20.3772H20.3772H20.3771H20.3771H20.3771H20.3771H20.3771H20.377H20.377H20.377H20.377H20.377H20.377H20.3769H20.3769H20.3769H20.3769H20.3769H20.3768H20.3768H20.3768H20.3768H20.3768H20.3768H20.3767H20.3767H20.3767H20.3767H20.3767H20.3767H20.3766H20.3766H20.3766H20.3766H20.3766H20.3766H20.3765H20.3765H20.3765H20.3765H20.3765H20.3765H20.3764H20.3764H20.3764H20.3764H20.3764H20.3763H20.3763H20.3763H20.3763H20.3763H20.3763H20.3762H20.3762H20.3762H20.3762H20.3762H20.3762H20.3761H20.3761H20.3761H20.3761H20.3761H20.3761H20.376H20.376H20.376H20.376H20.376H20.376H20.3759H20.3759H20.3759H20.3759H20.3759H20.3759H20.3758H20.3758H20.3758H20.3758H20.3758H20.3758H20.3757H20.3757H20.3757H20.3757H20.3757H20.3757H20.3757H20.3756H20.3756H20.3756H20.3756H20.3756H20.3756H20.3755H20.3755H20.3755H20.3755H20.3755H20.3755H20.3754H20.3754H20.3754H20.3754H20.3754H20.3754H20.3753H20.3753H20.3753H20.3753H20.3753H20.3753H20.3752H20.3752H20.3752H20.3752H20.3752H20.3752H20.3752H20.3751H20.3751H20.3751H20.3751H20.3751H20.3751H20.375H20.375H20.375H20.375H20.375H20.375H20.3749H20.3749H20.3749H20.3749H20.3749H20.3749H20.3748H20.3748H20.3748H20.3748H20.3748H20.3748H20.3748H20.3747H20.3747H20.3747H20.3747H20.3747H20.3747H20.3746H20.3746H20.3746H20.3746H20.3746H20.3746H20.3745H20.3745H20.3745H20.3745H20.3745H20.3745H20.3745H20.3744H20.3744H20.3744H20.3744H20.3744H20.3744H20.3743H20.3743H20.3743H20.3743H20.3743H20.3743H20.3742H20.3742H20.3742H20.3742H20.3742H20.3742H20.3742H20.3741H20.3741H20.3741H20.3741H20.3741H20.3741H20.374H20.374H20.374H20.374H20.374H20.374H20.3739H20.3739H20.3739H20.3739H20.3739H20.3739H20.3738H20.3738H20.3738H20.3738H20.3738H20.3738H20.3738H20.3737H20.3737H20.3737H20.3737H20.3737H20.3737H20.3736H20.3736H20.3736H20.3736H20.3736H20.3736H20.3735H20.3735H20.3735H20.3735H20.3735H20.3735H20.3734H20.3734H20.3734H20.3734H20.3734H20.3734H20.3734H20.3733H20.3733H20.3733H20.3733H20.3733H20.3733H20.3732H20.3732H20.3732H20.3732H20.3732H20.3732H20.3731H20.3731H20.3731H20.3731H20.3731H20.3731H20.373H20.373H20.373H20.373H20.373H20.373H20.3729H20.3729H20.3729H20.3729H20.3729H20.3729H20.3728H20.3728H20.3728H20.3728H20.3728H20.3728H20.3727H20.3727H20.3727H20.3727H20.3727H20.3727H20.3726H20.3726H20.3726H20.3726H20.3726H20.3726H20.3725H20.3725H20.3725H20.3725H20.3725H20.3725H20.3724H20.3724H20.3724H20.3724H20.3724H20.3724H20.3723H20.3723H20.3723H20.3723H20.3723H20.3723H20.3722H20.3722H20.3722H20.3722H20.3722H20.3721H20.3721H20.3721H20.3721H20.3721H20.3721H20.372H20.372H20.372H20.372H20.372H20.372H20.3719H20.3719H20.3719H20.3719H20.3719H20.3719H20.3718H20.3718H20.3718H20.3718H20.3718H20.3717H20.3717H20.3717H20.3717H20.3717H20.3717H20.3716H20.3716H20.3716H20.3716H20.3716H20.3715H20.3715H20.3715H20.3715H20.3715H20.3715H20.3714H20.3714H20.3714H20.3714H20.3714H20.3713H20.3713H20.3713H20.3713H20.3713H20.3712H20.3712H20.3712H20.3712H20.3712H20.3712H20.3711H20.3711H20.3711H20.3711H20.3711H20.371H20.371H20.371H20.371H20.371H20.3709H20.3709H20.3709H20.3709H20.3709H20.3708H20.3708H20.3708H20.3708H20.3708H20.3708H20.3707H20.3707H20.3707H20.3707H20.3707H20.3706H20.3706H20.3706H20.3706H20.3706H20.3705H20.3705H20.3705H20.3705H20.3705H20.3704H20.3704H20.3704H20.3704H20.3704H20.3703H20.3703H20.3703H20.3703H20.3703H20.3702H20.3702H20.3702H20.3702H20.3701H20.3701H20.3701H20.3701H20.3701H20.37H20.37H20.37H20.37H20.37H20.3699H20.3699C18.185 33.906 16.3569 33.8937 14.8358 33.7804C13.3108 33.6667 12.1372 33.4538 11.2472 33.0747C10.375 32.7031 9.77794 32.1736 9.38612 31.402C8.98503 30.6121 8.77832 29.5277 8.77832 28.0152C8.77832 25.5781 9.85946 23.6413 11.5523 21.3965C12.0431 20.7458 12.5871 20.0674 13.1662 19.3454C14.5205 17.6569 16.0664 15.7294 17.5701 13.3574H20.3699H20.3789H23.1787C24.6824 15.7295 26.2283 17.6569 27.5826 19.3454C28.1617 20.0674 28.7058 20.7458 29.1965 21.3965C30.8894 23.6413 31.9705 25.5781 31.9705 28.0152Z" stroke="#838383"/>
<path d="M25.6708 7.67482L23.6956 12.081L17.0786 12.0808L15.1166 7.82414C15.0792 7.50824 15.4981 7.25114 15.9078 7.23094C16.3174 7.21084 16.7064 7.35864 17.073 7.49984C17.4396 7.64104 17.9238 7.78401 18.3316 7.75541C19.2106 7.69491 19.416 6.83099 20.2615 7.03094C20.7721 7.15024 21.0508 7.61404 21.5633 7.73174C22.2011 7.87964 22.7828 7.43594 23.3925 7.23094C24.1875 6.96206 25.0984 7.17232 25.6708 7.67482Z" fill="#838383"/>
<path fill-rule="evenodd" clip-rule="evenodd" d="M16.998 11.8542H16.9995L23.7933 11.854L23.472 12.9955C23.472 12.9955 22.7581 12.9392 22.0562 12.9083L23.849 17.855C23.9768 18.2075 23.7157 18.5798 23.3407 18.5798C23.0882 18.5798 22.8694 18.4051 22.8135 18.1588L21.6774 13.1509L21.2727 16.7334C21.2407 17.0167 21.001 17.2308 20.7159 17.2308C20.3424 17.2308 20.0734 16.8723 20.178 16.5137L21.2346 12.8887H20.2416H20.2322H19.0657C18.2475 12.8969 17.3195 12.9953 17.3195 12.9953L16.9985 11.8561L16.998 11.8542Z" fill="#838383"/>
<path d="M33.7312 33.4618L33.7839 32.7477L33.6008 32.7351C33.1213 31.64 31.4084 30.7323 29.3073 30.5669C27.1488 30.3969 25.2725 31.0637 24.6774 32.1187L24.5344 32.1085L24.4848 32.7336C24.3756 34.1318 26.3557 35.4277 28.9088 35.6292C31.4635 35.83 33.622 34.8593 33.7312 33.4618Z" fill="#8F8F8F"/>
<path d="M28.9588 35.0053C26.4056 34.8038 24.4256 33.5079 24.5356 32.1097C24.6449 30.7122 26.8042 29.7415 29.3565 29.943C31.9096 30.1446 33.8897 31.4405 33.7804 32.8387C33.6704 34.2353 31.5119 35.2061 28.9588 35.0053Z" fill="#8F8F8F"/>
<path d="M29.2865 30.3726C31.5134 30.5481 33.2601 31.6126 33.2876 32.7833C33.2946 32.7439 33.3001 32.7037 33.3033 32.6636C33.3992 31.4464 31.6093 30.3135 29.3062 30.1317C27.003 29.9498 25.0575 30.7891 24.9624 32.0062C24.9593 32.0464 24.9585 32.0865 24.9593 32.1267C25.1676 30.9749 27.0596 30.1962 29.2865 30.3726Z" fill="#8F8F8F"/>
<path d="M28.9601 34.5376C31.187 34.7132 33.079 33.9346 33.2881 32.7836C33.2614 31.6129 31.514 30.5484 29.2871 30.3729C27.0602 30.1973 25.1681 30.9759 24.959 32.127C24.9858 33.2969 26.7332 34.3621 28.9601 34.5376Z" fill="#AFAFAF"/>
<path opacity="0.6" d="M33.2036 33.9322C33.2036 33.9322 33.1848 33.9621 33.14 34.0125C33.1179 34.0377 33.0904 34.0684 33.0543 34.1015C33.0362 34.118 33.0181 34.1377 32.9969 34.1558C32.9757 34.1731 32.9521 34.192 32.9285 34.2125C32.8318 34.292 32.7045 34.377 32.5528 34.4652C32.4765 34.5085 32.3924 34.5479 32.3044 34.5927C32.2156 34.6337 32.1181 34.6699 32.019 34.7116C31.9176 34.7478 31.8099 34.7809 31.6999 34.8179C31.5883 34.851 31.4712 34.8762 31.3509 34.9069C31.2911 34.9234 31.229 34.9328 31.167 34.9439C31.1041 34.9549 31.0412 34.9667 30.9775 34.9777C30.8502 35.0045 30.7181 35.0139 30.5845 35.0297C30.5177 35.0368 30.4501 35.0446 30.3825 35.0517C30.3141 35.0572 30.2457 35.0596 30.1765 35.0635C30.0382 35.069 29.8983 35.0816 29.7568 35.0809C29.6153 35.0793 29.473 35.0777 29.3307 35.0769L29.2238 35.0761C29.1884 35.0746 29.1523 35.0722 29.1169 35.0698L28.9023 35.0572C28.76 35.0478 28.6178 35.0383 28.4755 35.0289C28.3316 35.0179 28.1894 34.9998 28.0494 34.9777C27.7688 34.9336 27.4968 34.8675 27.239 34.7896C26.9804 34.7124 26.7367 34.6171 26.5119 34.5132C26.2871 34.4093 26.0827 34.2936 25.9027 34.1755C25.7219 34.0574 25.5655 33.9361 25.4358 33.8188C25.369 33.7621 25.3124 33.7023 25.2566 33.6511C25.2039 33.5968 25.1568 33.5456 25.1135 33.5C25.0318 33.4055 24.9697 33.3291 24.9304 33.2748C24.8903 33.2213 24.8691 33.1929 24.8691 33.1929C24.8691 33.1929 24.8926 33.2197 24.9367 33.2701C24.9595 33.2945 24.9854 33.3268 25.0192 33.3614C25.053 33.3961 25.0915 33.4362 25.134 33.4819C25.1796 33.5244 25.2283 33.5724 25.2841 33.6228C25.3415 33.6708 25.4004 33.7259 25.4696 33.7779C25.604 33.8865 25.7652 33.996 25.9467 34.1054C26.3099 34.3235 26.765 34.525 27.2744 34.6683C27.5283 34.7415 27.7963 34.7974 28.0707 34.8407C28.2082 34.8612 28.3466 34.8785 28.4857 34.888C28.6272 34.8958 28.7695 34.9045 28.911 34.9132L29.1224 34.9273C29.1578 34.9297 29.1932 34.9328 29.2285 34.9336L29.3347 34.9352C29.4754 34.9368 29.6161 34.9391 29.7552 34.9415C29.8252 34.9447 29.8943 34.9384 29.9635 34.9368C30.0327 34.9344 30.1011 34.9321 30.1694 34.9297C30.2378 34.9265 30.3054 34.9265 30.373 34.9218C30.4398 34.9155 30.5067 34.9092 30.5727 34.9037C30.704 34.8903 30.8352 34.8825 30.9602 34.8604C31.0231 34.851 31.086 34.8415 31.1473 34.8321C31.2086 34.8226 31.2699 34.8155 31.3289 34.8006C31.4468 34.7738 31.5631 34.751 31.674 34.7234C31.7832 34.6919 31.8901 34.6636 31.9915 34.6321C32.0914 34.5959 32.1873 34.5628 32.2776 34.5282C32.3657 34.4888 32.4514 34.455 32.5284 34.4164C32.6817 34.3392 32.8122 34.2621 32.912 34.1889C32.9623 34.1526 33.0071 34.1196 33.0433 34.0881C33.0818 34.0582 33.1109 34.0298 33.1345 34.0062C33.1824 33.9605 33.2036 33.9322 33.2036 33.9322Z" fill="#8F8F8F"/>
<path d="M29.1033 30.7356L28.9445 29.9397L28.7409 29.9822C27.8857 28.9335 25.7413 28.4651 23.3997 28.924C20.9935 29.3956 19.1495 30.6939 18.8209 32.026L18.6621 32.059L18.7981 32.7558C19.1031 34.3138 21.657 35.1255 24.5025 34.5673C27.3472 34.0091 29.4075 32.2936 29.1033 30.7356Z" fill="#8F8F8F"/>
<path d="M24.365 33.8707C21.5187 34.4281 18.9656 33.6172 18.6606 32.0591C18.3564 30.5011 20.4167 28.7856 23.2622 28.2282C26.1077 27.6708 28.6616 28.4817 28.9666 30.0397C29.2708 31.5978 27.2105 33.3133 24.365 33.8707Z" fill="#8F8F8F"/>
<path d="M23.3173 28.718C25.7996 28.2314 28.0281 28.8621 28.4125 30.1304C28.4086 30.0847 28.4023 30.0399 28.3936 29.995C28.1287 28.6393 25.8327 27.9472 23.2646 28.4503C20.6966 28.9534 18.8305 30.4611 19.0954 31.8168C19.104 31.8616 19.115 31.9057 19.1284 31.949C19.0081 30.6295 20.8349 29.2045 23.3173 28.718Z" fill="#8F8F8F"/>
<path d="M24.2238 33.3615C26.7061 32.875 28.5337 31.45 28.4119 30.1305C28.0275 28.8622 25.799 28.2324 23.3167 28.7182C20.8343 29.2047 19.0067 30.6296 19.1278 31.9491C19.5129 33.2175 21.7414 33.8481 24.2238 33.3615Z" fill="#AFAFAF"/>
<path opacity="0.6" d="M28.6699 31.4092C28.6699 31.4092 28.6581 31.4478 28.6243 31.5163C28.6078 31.5501 28.5873 31.5926 28.5583 31.6399C28.5441 31.6635 28.53 31.6903 28.5127 31.7162C28.4946 31.7422 28.4749 31.7698 28.4545 31.7989C28.3727 31.9154 28.2603 32.0469 28.1212 32.1886C28.0512 32.2595 27.9711 32.328 27.8893 32.4035C27.8044 32.4752 27.7093 32.5445 27.6134 32.62C27.5136 32.6909 27.4067 32.7594 27.2974 32.8326C27.1858 32.9027 27.0655 32.9657 26.9437 33.0357C26.884 33.0719 26.8187 33.1011 26.7543 33.1326C26.6898 33.1641 26.6246 33.1956 26.5577 33.227C26.4273 33.2948 26.2858 33.3451 26.1451 33.4034C26.0743 33.4317 26.0028 33.4601 25.9312 33.4892C25.8581 33.516 25.7843 33.5396 25.7104 33.5648C25.561 33.6128 25.4125 33.6687 25.2584 33.7112C25.1043 33.753 24.9487 33.7947 24.7923 33.8372L24.6751 33.8687C24.6358 33.8781 24.5957 33.886 24.5564 33.8947L24.3183 33.9458C24.1603 33.9789 24.0023 34.012 23.8443 34.045C23.6839 34.0765 23.5228 34.1001 23.364 34.119C23.0448 34.1568 22.7281 34.1671 22.4231 34.1608C22.1173 34.1553 21.8225 34.1253 21.5458 34.0805C21.2691 34.0356 21.0113 33.9718 20.7786 33.897C20.546 33.823 20.3377 33.7388 20.1608 33.6498C20.0704 33.6089 19.991 33.5609 19.9156 33.5215C19.8417 33.479 19.7749 33.4373 19.7135 33.401C19.5948 33.3223 19.5044 33.2577 19.4455 33.2105C19.3858 33.1641 19.3535 33.1397 19.3535 33.1397C19.3535 33.1397 19.3873 33.1617 19.451 33.2034C19.4832 33.2231 19.521 33.2507 19.5681 33.2782C19.6153 33.3058 19.6695 33.3381 19.73 33.3735C19.7921 33.4065 19.8605 33.4435 19.936 33.4821C20.0138 33.5168 20.0948 33.5593 20.1852 33.5947C20.3652 33.6719 20.5743 33.7427 20.8054 33.8073C21.2676 33.934 21.8257 34.0159 22.4246 34.0167C22.7241 34.0191 23.0338 33.9986 23.3451 33.9624C23.5008 33.9435 23.6572 33.9191 23.812 33.8876C23.9693 33.8545 24.1265 33.8199 24.2837 33.786L24.5195 33.7372C24.5588 33.7285 24.5981 33.7207 24.6374 33.712L24.753 33.6813C24.9078 33.6404 25.0611 33.6002 25.2144 33.5609C25.2914 33.5427 25.3653 33.5152 25.4392 33.4916C25.5139 33.468 25.5877 33.4443 25.6616 33.4215C25.7355 33.3979 25.8094 33.3758 25.8809 33.3506C25.9517 33.3239 26.0224 33.2971 26.0924 33.2696C26.2323 33.2152 26.3722 33.1672 26.5027 33.105C26.5687 33.0751 26.634 33.046 26.6984 33.0176C26.7629 32.9885 26.8274 32.9617 26.8871 32.9279C27.0081 32.8633 27.1276 32.8035 27.24 32.7389C27.3501 32.6712 27.4586 32.6074 27.5592 32.5429C27.6566 32.4728 27.751 32.4075 27.839 32.3421C27.9231 32.2721 28.0064 32.2099 28.0788 32.1437C28.2226 32.0123 28.3413 31.8887 28.4286 31.7792C28.4726 31.7241 28.5111 31.6745 28.541 31.6288C28.5732 31.5848 28.5976 31.5446 28.6156 31.5115C28.6549 31.447 28.6699 31.4092 28.6699 31.4092Z" fill="#8F8F8F"/>
<g filter="url(#filter0_d_49_282056)">
<path d="M21.489 25.4514H21.3327C21.2864 25.5498 21.2285 25.6453 21.1591 25.7378C21.0954 25.8247 21.0086 25.9028 20.8987 25.9722C20.7945 26.0417 20.6672 26.0966 20.5167 26.1372C20.3721 26.1777 20.1956 26.1979 19.9872 26.1979C19.721 26.1979 19.4722 26.1516 19.2407 26.059C19.015 25.9606 18.8154 25.8189 18.6417 25.6337C18.4739 25.4427 18.3408 25.2112 18.2424 24.9392C18.1498 24.6672 18.1035 24.3547 18.1035 24.0017V23.8455C18.1035 23.4983 18.1527 23.1887 18.2511 22.9167C18.3553 22.6447 18.4942 22.4161 18.6678 22.2309C18.8472 22.0399 19.0526 21.8953 19.2841 21.7969C19.5214 21.6985 19.7702 21.6493 20.0306 21.6493C20.3779 21.6493 20.6527 21.7159 20.8553 21.849C21.0578 21.9763 21.217 22.1586 21.3327 22.3958H21.489V21.4062H20.1348V20.4167H21.489V20H22.5827V20.4167H23.1035V21.4062H22.5827V26.0764H21.489V25.4514ZM20.3431 25.1562C20.6846 25.1562 20.9595 25.0492 21.1678 24.8351C21.3819 24.6152 21.489 24.3287 21.489 23.9757V23.8715C21.489 23.5185 21.3819 23.235 21.1678 23.0208C20.9595 22.8009 20.6846 22.691 20.3431 22.691C20.0017 22.691 19.7239 22.798 19.5098 23.0122C19.3015 23.2205 19.1973 23.5069 19.1973 23.8715V23.9757C19.1973 24.3403 19.3015 24.6296 19.5098 24.8437C19.7239 25.0521 20.0017 25.1562 20.3431 25.1562Z" fill="#838383"/>
<path d="M18.6406 26.7998H22.2575V27.5232H18.6406V26.7998Z" fill="#838383"/>
</g>
<defs>
<filter id="filter0_d_49_282056" x="14.1035" y="17" width="13" height="15.5234" filterUnits="userSpaceOnUse" color-interpolation-filters="sRGB">
<feFlood flood-opacity="0" result="BackgroundImageFix"/>
<feColorMatrix in="SourceAlpha" type="matrix" values="0 0 0 0 0 0 0 0 0 0 0 0 0 0 0 0 0 0 127 0" result="hardAlpha"/>
<feOffset dy="1"/>
<feGaussianBlur stdDeviation="2"/>
<feComposite in2="hardAlpha" operator="out"/>
<feColorMatrix type="matrix" values="0 0 0 0 0 0 0 0 0 0 0 0 0 0 0 0 0 0 0.25 0"/>
<feBlend mode="normal" in2="BackgroundImageFix" result="effect1_dropShadow_49_282056"/>
<feBlend mode="normal" in="SourceGraphic" in2="effect1_dropShadow_49_282056" result="shape"/>
</filter>
</defs>
</svg>
