<svg width="29" height="30" viewBox="0 0 29 30" fill="none" xmlns="http://www.w3.org/2000/svg">
<rect x="4" y="1" width="20" height="20" rx="6.67" fill="#708CEE" fill-opacity="0.2"/>
<g filter="url(#filter0_d_1797_216371)">
<path d="M20.1432 7.72949V15.542C20.1432 16.1882 19.6175 16.7139 18.9714 16.7139H10.1172C9.47102 16.7139 8.94531 16.1882 8.94531 15.542V15.0993H17.3568C18.0029 15.0993 18.5286 14.5736 18.5286 13.9274V6.55762H18.9714C19.6175 6.55762 20.1432 7.08332 20.1432 7.72949Z" fill="url(#paint0_linear_1797_216371)"/>
<path d="M18.0729 16.1331H9.21875C8.57258 16.1331 8.04688 15.6074 8.04688 14.9613V7.40918C8.04688 6.76301 8.57258 6.2373 9.21875 6.2373H18.0729C18.7191 6.2373 19.2448 6.76301 19.2448 7.40918V14.9613C19.2448 15.6074 18.7191 16.1331 18.0729 16.1331Z" fill="url(#paint1_linear_1797_216371)"/>
<path d="M9.47656 5.50488C9.47656 4.85871 10.0023 4.33301 10.6484 4.33301C11.2946 4.33301 11.8203 4.85871 11.8203 5.50488V6.15592H11.0391V5.50488C11.0391 5.28949 10.8638 5.11426 10.6484 5.11426C10.433 5.11426 10.2578 5.28949 10.2578 5.50488V7.06738C10.2578 7.28277 10.433 7.45801 10.6484 7.45801C10.8642 7.45801 11.0391 7.6329 11.0391 7.84863C11.0391 8.06436 10.8642 8.23926 10.6484 8.23926C10.0023 8.23926 9.47656 7.71355 9.47656 7.06738V5.50488Z" fill="url(#paint2_linear_1797_216371)"/>
<path d="M14.6849 5.50488C14.6849 4.85871 15.2106 4.33301 15.8568 4.33301C16.5029 4.33301 17.0286 4.85871 17.0286 5.50488V6.15592H16.2474V5.50488C16.2474 5.28949 16.0722 5.11426 15.8568 5.11426C15.6414 5.11426 15.4661 5.28949 15.4661 5.50488V7.06738C15.4661 7.28277 15.6414 7.45801 15.8568 7.45801C16.0725 7.45801 16.2474 7.6329 16.2474 7.84863C16.2474 8.06436 16.0725 8.23926 15.8568 8.23926C15.2106 8.23926 14.6849 7.71355 14.6849 7.06738V5.50488Z" fill="url(#paint3_linear_1797_216371)"/>
<path d="M16.638 9.28092C16.8538 9.28092 17.0286 9.45582 17.0286 9.67155C17.0286 9.88728 16.8538 10.0622 16.638 10.0622H16.1172C15.9015 10.0622 15.7266 9.88728 15.7266 9.67155C15.7266 9.45582 15.9015 9.28092 16.1172 9.28092H16.638Z" fill="url(#paint4_linear_1797_216371)"/>
<path d="M14.5547 9.28092C14.7704 9.28092 14.9453 9.45582 14.9453 9.67155C14.9453 9.88728 14.7704 10.0622 14.5547 10.0622H14.0339C13.8181 10.0622 13.6432 9.88728 13.6432 9.67155C13.6432 9.45582 13.8181 9.28092 14.0339 9.28092H14.5547Z" fill="url(#paint5_linear_1797_216371)"/>
<path d="M12.4714 9.28092C12.6871 9.28092 12.862 9.45582 12.862 9.67155C12.862 9.88728 12.6871 10.0622 12.4714 10.0622H11.9505C11.7348 10.0622 11.5599 9.88728 11.5599 9.67155C11.5599 9.45582 11.7348 9.28092 11.9505 9.28092H12.4714Z" fill="url(#paint6_linear_1797_216371)"/>
<path d="M10.388 9.28092C10.6038 9.28092 10.7786 9.45582 10.7786 9.67155C10.7786 9.88728 10.6038 10.0622 10.388 10.0622H9.86719C9.65146 10.0622 9.47656 9.88728 9.47656 9.67155C9.47656 9.45582 9.65146 9.28092 9.86719 9.28092H10.388Z" fill="url(#paint7_linear_1797_216371)"/>
<path d="M16.638 10.8434C16.8538 10.8434 17.0286 11.0183 17.0286 11.234C17.0286 11.4498 16.8538 11.6247 16.638 11.6247H16.1172C15.9015 11.6247 15.7266 11.4498 15.7266 11.234C15.7266 11.0183 15.9015 10.8434 16.1172 10.8434H16.638Z" fill="url(#paint8_linear_1797_216371)"/>
<path d="M14.5547 10.8434C14.7704 10.8434 14.9453 11.0183 14.9453 11.234C14.9453 11.4498 14.7704 11.6247 14.5547 11.6247H14.0339C13.8181 11.6247 13.6432 11.4498 13.6432 11.234C13.6432 11.0183 13.8181 10.8434 14.0339 10.8434H14.5547Z" fill="url(#paint9_linear_1797_216371)"/>
<path d="M12.4714 10.8434C12.6871 10.8434 12.862 11.0183 12.862 11.234C12.862 11.4498 12.6871 11.6247 12.4714 11.6247H11.9505C11.7348 11.6247 11.5599 11.4498 11.5599 11.234C11.5599 11.0183 11.7348 10.8434 11.9505 10.8434H12.4714Z" fill="url(#paint10_linear_1797_216371)"/>
<path d="M10.388 10.8434C10.6038 10.8434 10.7786 11.0183 10.7786 11.234C10.7786 11.4498 10.6038 11.6247 10.388 11.6247H9.86719C9.65146 11.6247 9.47656 11.4498 9.47656 11.234C9.47656 11.0183 9.65146 10.8434 9.86719 10.8434H10.388Z" fill="url(#paint11_linear_1797_216371)"/>
<path d="M16.638 12.4059C16.8538 12.4059 17.0286 12.5808 17.0286 12.7965C17.0286 13.0123 16.8538 13.1872 16.638 13.1872H16.1172C15.9015 13.1872 15.7266 13.0123 15.7266 12.7965C15.7266 12.5808 15.9015 12.4059 16.1172 12.4059H16.638Z" fill="url(#paint12_linear_1797_216371)"/>
<path d="M14.5547 12.4059C14.7704 12.4059 14.9453 12.5808 14.9453 12.7965C14.9453 13.0123 14.7704 13.1872 14.5547 13.1872H14.0339C13.8181 13.1872 13.6432 13.0123 13.6432 12.7965C13.6432 12.5808 13.8181 12.4059 14.0339 12.4059H14.5547Z" fill="url(#paint13_linear_1797_216371)"/>
<path d="M12.4714 12.4059C12.6871 12.4059 12.862 12.5808 12.862 12.7965C12.862 13.0123 12.6871 13.1872 12.4714 13.1872H11.9505C11.7348 13.1872 11.5599 13.0123 11.5599 12.7965C11.5599 12.5808 11.7348 12.4059 11.9505 12.4059H12.4714Z" fill="url(#paint14_linear_1797_216371)"/>
<path d="M10.388 12.4059C10.6038 12.4059 10.7786 12.5808 10.7786 12.7965C10.7786 13.0123 10.6038 13.1872 10.388 13.1872H9.86719C9.65146 13.1872 9.47656 13.0123 9.47656 12.7965C9.47656 12.5808 9.65146 12.4059 9.86719 12.4059H10.388Z" fill="url(#paint15_linear_1797_216371)"/>
<path d="M16.638 13.9684C16.8538 13.9684 17.0286 14.1433 17.0286 14.359C17.0286 14.5748 16.8538 14.7497 16.638 14.7497H16.1172C15.9015 14.7497 15.7266 14.5748 15.7266 14.359C15.7266 14.1433 15.9015 13.9684 16.1172 13.9684H16.638Z" fill="url(#paint16_linear_1797_216371)"/>
<path d="M14.5547 13.9684C14.7704 13.9684 14.9453 14.1433 14.9453 14.359C14.9453 14.5748 14.7704 14.7497 14.5547 14.7497H14.0339C13.8181 14.7497 13.6432 14.5748 13.6432 14.359C13.6432 14.1433 13.8181 13.9684 14.0339 13.9684H14.5547Z" fill="url(#paint17_linear_1797_216371)"/>
<path d="M12.4714 13.9684C12.6871 13.9684 12.862 14.1433 12.862 14.359C12.862 14.5748 12.6871 14.7497 12.4714 14.7497H11.9505C11.7348 14.7497 11.5599 14.5748 11.5599 14.359C11.5599 14.1433 11.7348 13.9684 11.9505 13.9684H12.4714Z" fill="url(#paint18_linear_1797_216371)"/>
<path d="M10.388 13.9684C10.6038 13.9684 10.7786 14.1433 10.7786 14.359C10.7786 14.5748 10.6038 14.7497 10.388 14.7497H9.86719C9.65146 14.7497 9.47656 14.5748 9.47656 14.359C9.47656 14.1433 9.65146 13.9684 9.86719 13.9684H10.388Z" fill="url(#paint19_linear_1797_216371)"/>
</g>
<defs>
<filter id="filter0_d_1797_216371" x="0.0468755" y="0.904437" width="28.0977" height="28.3809" filterUnits="userSpaceOnUse" color-interpolation-filters="sRGB">
<feFlood flood-opacity="0" result="BackgroundImageFix"/>
<feColorMatrix in="SourceAlpha" type="matrix" values="0 0 0 0 0 0 0 0 0 0 0 0 0 0 0 0 0 0 127 0" result="hardAlpha"/>
<feOffset dy="4.57143"/>
<feGaussianBlur stdDeviation="4"/>
<feComposite in2="hardAlpha" operator="out"/>
<feColorMatrix type="matrix" values="0 0 0 0 0.0292501 0 0 0 0 0.200785 0 0 0 0 0.325 0 0 0 0.45 0"/>
<feBlend mode="normal" in2="BackgroundImageFix" result="effect1_dropShadow_1797_216371"/>
<feBlend mode="normal" in="SourceGraphic" in2="effect1_dropShadow_1797_216371" result="shape"/>
</filter>
<linearGradient id="paint0_linear_1797_216371" x1="14.5443" y1="16.7139" x2="14.5443" y2="3.38053" gradientUnits="userSpaceOnUse">
<stop stop-color="#3A7DFF"/>
<stop offset="1" stop-color="#81CAFF"/>
</linearGradient>
<linearGradient id="paint1_linear_1797_216371" x1="13.6458" y1="16.1331" x2="13.6458" y2="6.2373" gradientUnits="userSpaceOnUse">
<stop stop-color="#EEEBFF"/>
<stop offset="1" stop-color="#FFF1FF"/>
</linearGradient>
<linearGradient id="paint2_linear_1797_216371" x1="14.8672" y1="17.6663" x2="14.8672" y2="4.33301" gradientUnits="userSpaceOnUse">
<stop stop-color="#3A7DFF"/>
<stop offset="1" stop-color="#81CAFF"/>
</linearGradient>
<linearGradient id="paint3_linear_1797_216371" x1="14.8672" y1="17.6663" x2="14.8672" y2="4.33301" gradientUnits="userSpaceOnUse">
<stop stop-color="#3A7DFF"/>
<stop offset="1" stop-color="#81CAFF"/>
</linearGradient>
<linearGradient id="paint4_linear_1797_216371" x1="14.8672" y1="17.6663" x2="14.8672" y2="4.33301" gradientUnits="userSpaceOnUse">
<stop stop-color="#3A7DFF"/>
<stop offset="1" stop-color="#81CAFF"/>
</linearGradient>
<linearGradient id="paint5_linear_1797_216371" x1="14.8672" y1="17.6663" x2="14.8672" y2="4.33301" gradientUnits="userSpaceOnUse">
<stop stop-color="#3A7DFF"/>
<stop offset="1" stop-color="#81CAFF"/>
</linearGradient>
<linearGradient id="paint6_linear_1797_216371" x1="14.8672" y1="17.6663" x2="14.8672" y2="4.33301" gradientUnits="userSpaceOnUse">
<stop stop-color="#3A7DFF"/>
<stop offset="1" stop-color="#81CAFF"/>
</linearGradient>
<linearGradient id="paint7_linear_1797_216371" x1="14.8672" y1="17.6663" x2="14.8672" y2="4.33301" gradientUnits="userSpaceOnUse">
<stop stop-color="#3A7DFF"/>
<stop offset="1" stop-color="#81CAFF"/>
</linearGradient>
<linearGradient id="paint8_linear_1797_216371" x1="14.8672" y1="17.6663" x2="14.8672" y2="4.33301" gradientUnits="userSpaceOnUse">
<stop stop-color="#3A7DFF"/>
<stop offset="1" stop-color="#81CAFF"/>
</linearGradient>
<linearGradient id="paint9_linear_1797_216371" x1="14.8672" y1="17.6663" x2="14.8672" y2="4.33301" gradientUnits="userSpaceOnUse">
<stop stop-color="#3A7DFF"/>
<stop offset="1" stop-color="#81CAFF"/>
</linearGradient>
<linearGradient id="paint10_linear_1797_216371" x1="14.8672" y1="17.6663" x2="14.8672" y2="4.33301" gradientUnits="userSpaceOnUse">
<stop stop-color="#3A7DFF"/>
<stop offset="1" stop-color="#81CAFF"/>
</linearGradient>
<linearGradient id="paint11_linear_1797_216371" x1="14.8672" y1="17.6663" x2="14.8672" y2="4.33301" gradientUnits="userSpaceOnUse">
<stop stop-color="#3A7DFF"/>
<stop offset="1" stop-color="#81CAFF"/>
</linearGradient>
<linearGradient id="paint12_linear_1797_216371" x1="14.8672" y1="17.6663" x2="14.8672" y2="4.33301" gradientUnits="userSpaceOnUse">
<stop stop-color="#3A7DFF"/>
<stop offset="1" stop-color="#81CAFF"/>
</linearGradient>
<linearGradient id="paint13_linear_1797_216371" x1="14.8672" y1="17.6663" x2="14.8672" y2="4.33301" gradientUnits="userSpaceOnUse">
<stop stop-color="#3A7DFF"/>
<stop offset="1" stop-color="#81CAFF"/>
</linearGradient>
<linearGradient id="paint14_linear_1797_216371" x1="14.8672" y1="17.6663" x2="14.8672" y2="4.33301" gradientUnits="userSpaceOnUse">
<stop stop-color="#3A7DFF"/>
<stop offset="1" stop-color="#81CAFF"/>
</linearGradient>
<linearGradient id="paint15_linear_1797_216371" x1="14.8672" y1="17.6663" x2="14.8672" y2="4.33301" gradientUnits="userSpaceOnUse">
<stop stop-color="#3A7DFF"/>
<stop offset="1" stop-color="#81CAFF"/>
</linearGradient>
<linearGradient id="paint16_linear_1797_216371" x1="14.8672" y1="17.6663" x2="14.8672" y2="4.33301" gradientUnits="userSpaceOnUse">
<stop stop-color="#3A7DFF"/>
<stop offset="1" stop-color="#81CAFF"/>
</linearGradient>
<linearGradient id="paint17_linear_1797_216371" x1="14.8672" y1="17.6663" x2="14.8672" y2="4.33301" gradientUnits="userSpaceOnUse">
<stop stop-color="#3A7DFF"/>
<stop offset="1" stop-color="#81CAFF"/>
</linearGradient>
<linearGradient id="paint18_linear_1797_216371" x1="14.8672" y1="17.6663" x2="14.8672" y2="4.33301" gradientUnits="userSpaceOnUse">
<stop stop-color="#3A7DFF"/>
<stop offset="1" stop-color="#81CAFF"/>
</linearGradient>
<linearGradient id="paint19_linear_1797_216371" x1="14.8672" y1="17.6663" x2="14.8672" y2="4.33301" gradientUnits="userSpaceOnUse">
<stop stop-color="#3A7DFF"/>
<stop offset="1" stop-color="#81CAFF"/>
</linearGradient>
</defs>
</svg>
