<svg width="42" height="42" viewBox="0 0 42 42" fill="none" xmlns="http://www.w3.org/2000/svg">
<path d="M0 21C0 14.4768 0 11.2152 1.06569 8.64243C2.4866 5.21204 5.21204 2.4866 8.64243 1.06569C11.2152 0 14.4768 0 21 0C27.5232 0 30.7848 0 33.3576 1.06569C36.788 2.4866 39.5134 5.21204 40.9343 8.64243C42 11.2152 42 14.4768 42 21C42 27.5232 42 30.7848 40.9343 33.3576C39.5134 36.788 36.788 39.5134 33.3576 40.9343C30.7848 42 27.5232 42 21 42C14.4768 42 11.2152 42 8.64243 40.9343C5.21204 39.5134 2.4866 36.788 1.06569 33.3576C0 30.7848 0 27.5232 0 21Z" fill="#8270EE" fill-opacity="0.3"/>
<path d="M20.2299 28.73C26.0599 30.31 32.0399 26.87 33.6199 21.04C35.1999 15.21 31.7599 9.23002 25.9299 7.65002C20.0999 6.07002 14.1199 9.51002 12.5399 15.34C10.9599 21.17 14.3999 27.15 20.2299 28.73Z" fill="url(#paint0_linear_10797_56009)"/>
<path d="M23.96 20.3501H24.7C24.94 20.3501 25.17 20.4301 25.36 20.5801C25.78 20.5201 26.18 20.4101 26.53 20.2601C26.63 20.1101 26.72 19.9501 26.8 19.7801V18.1301C26.8 17.7601 26.94 17.4101 27.17 17.1501C26.83 15.1601 25.13 13.6401 23.08 13.6401C21.03 13.6401 19.34 15.1601 18.99 17.1501C19.22 17.4101 19.36 17.7601 19.36 18.1301V19.7801C20.04 21.1801 21.45 22.1401 23.08 22.1401C23.11 22.1401 23.13 22.1401 23.16 22.1401C23 21.9501 22.9 21.7101 22.9 21.4401C22.9 20.8401 23.38 20.3501 23.97 20.3501H23.96Z" fill="url(#paint1_linear_10797_56009)"/>
<path d="M17.43 20.9402H17.4799C18.0399 20.9402 18.49 20.5002 18.49 19.9602V18.0102C18.49 17.6302 18.26 17.3002 17.93 17.1402C18.07 14.5002 20.33 12.4002 23.09 12.4002C25.85 12.4002 28.1 14.5002 28.25 17.1402C27.92 17.3002 27.69 17.6302 27.69 18.0102V19.9602C27.69 20.0902 27.72 20.2102 27.76 20.3202C27.17 20.7302 26.32 21.0202 25.36 21.1002C25.25 20.9402 25.07 20.8302 24.85 20.8302H24.0499C23.7199 20.8302 23.45 21.0902 23.45 21.4102C23.45 21.7302 23.7199 22.0002 24.0499 22.0002H24.85C25.08 22.0002 25.2799 21.8702 25.3799 21.6802C26.4999 21.5902 27.4699 21.2602 28.15 20.7802C28.3099 20.8802 28.49 20.9402 28.69 20.9402H28.74C29.3 20.9402 29.75 20.5002 29.75 19.9602V18.0102C29.75 17.6202 29.52 17.2902 29.18 17.1302C29.03 14.0002 26.36 11.4902 23.1 11.4902C19.84 11.4902 17.16 14.0002 17.02 17.1302C16.68 17.2902 16.45 17.6202 16.45 18.0102V19.9602C16.45 20.5002 16.8999 20.9402 17.4599 20.9402H17.43Z" fill="url(#paint2_linear_10797_56009)"/>
<path d="M30.5299 25.1399C27.9999 27.7599 24.1599 28.9599 20.3799 27.9399C18.4999 27.4299 16.8899 26.4299 15.6399 25.1299C15.0099 25.9699 14.6499 26.9899 14.6499 28.0499V29.7999C14.6499 31.0499 15.9799 31.1599 15.9799 31.1599H30.1899C30.1899 31.1599 31.5199 31.0599 31.5199 29.7999V28.0499C31.5199 26.9899 31.1599 25.9799 30.5299 25.1399Z" fill="url(#paint3_linear_10797_56009)"/>
<path d="M17.3499 26.3801L10.7099 33.0201C10.0899 33.6401 9.08988 33.6401 8.46988 33.0201C7.84988 32.4001 7.84988 31.4001 8.46988 30.7801L15.1099 24.1401" fill="url(#paint4_linear_10797_56009)"/>
<path fill-rule="evenodd" clip-rule="evenodd" d="M20.6699 27.11C25.5899 28.44 30.6699 25.52 31.9999 20.6C33.3299 15.68 30.4099 10.6 25.4899 9.27002C20.5699 7.94002 15.4899 10.86 14.1599 15.78C12.8299 20.7 15.7499 25.78 20.6699 27.11ZM33.6199 21.04C32.0399 26.87 26.0599 30.31 20.2299 28.73C14.3999 27.15 10.9599 21.17 12.5399 15.34C14.1199 9.51002 20.0999 6.07002 25.9299 7.65002C31.7599 9.23002 35.1999 15.21 33.6199 21.04Z" fill="url(#paint5_linear_10797_56009)"/>
<path fill-rule="evenodd" clip-rule="evenodd" d="M26.6298 22.8501H19.5298C18.7298 22.8501 17.9598 23.0701 17.2598 23.4401C18.2398 24.5201 19.5198 25.3501 21.0298 25.7601C23.9698 26.5601 26.9798 25.5601 28.8898 23.4401C28.1998 23.0701 27.4298 22.8501 26.6198 22.8501H26.6298Z" fill="url(#paint6_linear_10797_56009)"/>
<defs>
<linearGradient id="paint0_linear_10797_56009" x1="12.6461" y1="15.3673" x2="33.73" y2="21.0641" gradientUnits="userSpaceOnUse">
<stop stop-color="#7F42FF"/>
<stop offset="1" stop-color="#5721CC"/>
</linearGradient>
<linearGradient id="paint1_linear_10797_56009" x1="23.08" y1="22.1501" x2="23.08" y2="13.6401" gradientUnits="userSpaceOnUse">
<stop stop-color="#BFBEFF"/>
<stop offset="1" stop-color="#FFF1FF"/>
</linearGradient>
<linearGradient id="paint2_linear_10797_56009" x1="16.42" y1="16.7502" x2="29.74" y2="16.7502" gradientUnits="userSpaceOnUse">
<stop stop-color="#BFBEFF"/>
<stop offset="1" stop-color="#FFF1FF"/>
</linearGradient>
<linearGradient id="paint3_linear_10797_56009" x1="-9.84957e-05" y1="31.1499" x2="23.0799" y2="25.1399" gradientUnits="userSpaceOnUse">
<stop stop-color="#BFBEFF"/>
<stop offset="1" stop-color="#FFF1FF"/>
</linearGradient>
<linearGradient id="paint4_linear_10797_56009" x1="7.56988" y1="33.9001" x2="14.9899" y2="26.4801" gradientUnits="userSpaceOnUse">
<stop stop-color="#7F42FF"/>
<stop offset="1" stop-color="#5721CC"/>
</linearGradient>
<linearGradient id="paint5_linear_10797_56009" x1="25.9246" y1="7.64372" x2="20.2278" y2="28.7277" gradientUnits="userSpaceOnUse">
<stop stop-color="#7F89FF"/>
<stop offset="1" stop-color="#827ECC"/>
</linearGradient>
<linearGradient id="paint6_linear_10797_56009" x1="23.0798" y1="22.8501" x2="23.0798" y2="26.0301" gradientUnits="userSpaceOnUse">
<stop stop-color="#7F89FF"/>
<stop offset="1" stop-color="#827ECC"/>
</linearGradient>
</defs>
</svg>
