<svg width="16" height="16" viewBox="0 0 16 16" fill="none" xmlns="http://www.w3.org/2000/svg">
<path fill-rule="evenodd" clip-rule="evenodd" d="M8.00033 5.49967C6.61962 5.49967 5.50033 6.61896 5.50033 7.99967C5.50033 9.38039 6.61962 10.4997 8.00033 10.4997C9.38104 10.4997 10.5003 9.38039 10.5003 7.99967C10.5003 6.61896 9.38104 5.49967 8.00033 5.49967ZM6.50033 7.99967C6.50033 7.17125 7.1719 6.49967 8.00033 6.49967C8.82875 6.49967 9.50033 7.17125 9.50033 7.99967C9.50033 8.8281 8.82875 9.49967 8.00033 9.49967C7.1719 9.49967 6.50033 8.8281 6.50033 7.99967Z" fill="#858B93"/>
<path fill-rule="evenodd" clip-rule="evenodd" d="M7.98349 0.833008C7.68718 0.833003 7.43982 0.832999 7.23674 0.846855C7.02534 0.861278 6.82566 0.892374 6.63207 0.972562C6.18285 1.15863 5.82595 1.51554 5.63987 1.96476C5.543 2.19862 5.51677 2.44509 5.50675 2.71298C5.4987 2.92834 5.39002 3.10801 5.22963 3.20061C5.06924 3.29321 4.85929 3.29749 4.66877 3.19679C4.43175 3.07152 4.20518 2.971 3.95421 2.93796C3.47214 2.8745 2.98461 3.00513 2.59885 3.30113C2.43261 3.42869 2.30584 3.58608 2.18765 3.76194C2.07411 3.93088 1.95044 4.1451 1.80229 4.40172L1.78545 4.43088C1.63729 4.68749 1.51361 4.9017 1.42407 5.0845C1.33086 5.27479 1.25795 5.46326 1.2306 5.67102C1.16713 6.15309 1.29777 6.64062 1.59377 7.02637C1.74785 7.22717 1.94814 7.37311 2.1751 7.51572C2.35762 7.6304 2.45891 7.81442 2.4589 7.99966C2.45889 8.18489 2.35761 8.36887 2.17511 8.48354C1.94812 8.62616 1.7478 8.77211 1.5937 8.97293C1.29771 9.35868 1.16707 9.84622 1.23054 10.3283C1.25789 10.536 1.3308 10.7245 1.42401 10.9148C1.51354 11.0976 1.63722 11.3118 1.78538 11.5684L1.80222 11.5976C1.95037 11.8542 2.07405 12.0684 2.18758 12.2374C2.30578 12.4132 2.43255 12.5706 2.59879 12.6982C2.98454 12.9942 3.47208 13.1248 3.95415 13.0613C4.2051 13.0283 4.43166 12.9278 4.66866 12.8025C4.85921 12.7018 5.06918 12.7061 5.22959 12.7987C5.39 12.8913 5.4987 13.071 5.50675 13.2864C5.51677 13.5543 5.54301 13.8007 5.63987 14.0346C5.82595 14.4838 6.18285 14.8407 6.63207 15.0268C6.82566 15.107 7.02534 15.1381 7.23674 15.1525C7.43982 15.1663 7.68717 15.1663 7.98348 15.1663H8.01716C8.31346 15.1663 8.56082 15.1663 8.7639 15.1525C8.9753 15.1381 9.17498 15.107 9.36857 15.0268C9.81779 14.8407 10.1747 14.4838 10.3608 14.0346C10.4576 13.8007 10.4839 13.5542 10.4939 13.2863C10.5019 13.071 10.6106 12.8913 10.771 12.7987C10.9314 12.7061 11.1414 12.7018 11.3319 12.8025C11.5689 12.9278 11.7955 13.0283 12.0464 13.0613C12.5285 13.1248 13.016 12.9941 13.4018 12.6981C13.568 12.5706 13.6948 12.4132 13.813 12.2373C13.9265 12.0684 14.0502 11.8542 14.1983 11.5976L14.2152 11.5684C14.3633 11.3118 14.487 11.0975 14.5766 10.9148C14.6698 10.7245 14.7427 10.536 14.77 10.3282C14.8335 9.84617 14.7029 9.35863 14.4069 8.97288C14.2528 8.77207 14.0525 8.62613 13.8255 8.48351C13.643 8.36884 13.5417 8.18486 13.5417 7.99964C13.5417 7.81444 13.643 7.63048 13.8255 7.51584C14.0525 7.37321 14.2528 7.22725 14.4069 7.02642C14.7029 6.64067 14.8336 6.15313 14.7701 5.67106C14.7428 5.46331 14.6698 5.27483 14.5766 5.08454C14.4871 4.90176 14.3634 4.68756 14.2153 4.43098L14.1984 4.40179C14.0503 4.14518 13.9266 3.93093 13.8131 3.76199C13.6949 3.58612 13.5681 3.42874 13.4019 3.30118C13.0161 3.00518 12.5286 2.87454 12.0465 2.93801C11.7955 2.97105 11.569 3.07155 11.332 3.19682C11.1414 3.29753 10.9315 3.29325 10.771 3.20064C10.6106 3.10802 10.5019 2.92832 10.4939 2.71295C10.4839 2.44506 10.4576 2.19861 10.3608 1.96476C10.1747 1.51554 9.81779 1.15863 9.36857 0.972562C9.17498 0.892374 8.9753 0.861278 8.7639 0.846855C8.56082 0.832999 8.31346 0.833003 8.01715 0.833008H7.98349ZM7.01475 1.89644C7.06619 1.87514 7.14433 1.85548 7.30481 1.84454C7.46979 1.83328 7.68285 1.83301 8.00032 1.83301C8.31779 1.83301 8.53085 1.83328 8.69582 1.84454C8.85631 1.85548 8.93445 1.87514 8.98589 1.89644C9.19008 1.98102 9.35231 2.14325 9.43688 2.34744C9.46356 2.41185 9.48568 2.51226 9.49458 2.75032C9.51434 3.27857 9.787 3.7872 10.271 4.06666C10.7551 4.34613 11.3319 4.32794 11.7993 4.08093C12.0099 3.96961 12.1079 3.93855 12.177 3.92945C12.3961 3.90061 12.6177 3.95999 12.7931 4.09453C12.8373 4.12842 12.8933 4.18627 12.9831 4.31978C13.0753 4.45703 13.1821 4.64141 13.3408 4.91634C13.4995 5.19128 13.6058 5.37593 13.6786 5.52443C13.7493 5.66889 13.7714 5.74639 13.7787 5.80159C13.8075 6.02071 13.7481 6.24232 13.6136 6.41766C13.5711 6.47297 13.4952 6.54234 13.2935 6.6691C12.8459 6.95031 12.5418 7.44071 12.5417 7.99959C12.5417 8.55853 12.8459 9.049 13.2935 9.33024C13.4952 9.45698 13.5711 9.52633 13.6135 9.58165C13.7481 9.75699 13.8074 9.97859 13.7786 10.1977C13.7713 10.2529 13.7493 10.3304 13.6785 10.4749C13.6058 10.6234 13.4995 10.808 13.3407 11.083C13.182 11.3579 13.0752 11.5423 12.983 11.6795C12.8933 11.813 12.8372 11.8709 12.793 11.9048C12.6177 12.0393 12.3961 12.0987 12.177 12.0698C12.1078 12.0608 12.0098 12.0297 11.7992 11.9184C11.3318 11.6714 10.755 11.6532 10.271 11.9327C9.78696 12.2122 9.51434 12.7208 9.49459 13.249C9.48568 13.4871 9.46357 13.5875 9.43689 13.6519C9.35231 13.8561 9.19008 14.0183 8.98589 14.1029C8.93445 14.1242 8.85631 14.1439 8.69582 14.1548C8.53085 14.1661 8.31779 14.1663 8.00032 14.1663C7.68285 14.1663 7.46979 14.1661 7.30481 14.1548C7.14433 14.1439 7.06619 14.1242 7.01475 14.1029C6.81056 14.0183 6.64833 13.8561 6.56375 13.6519C6.53707 13.5875 6.51496 13.4871 6.50605 13.249C6.4863 12.7208 6.21364 12.2121 5.72959 11.9327C5.24555 11.6532 4.66874 11.6714 4.20138 11.9184C3.99076 12.0297 3.89274 12.0608 3.82362 12.0699C3.6045 12.0987 3.38289 12.0394 3.20755 11.9048C3.16338 11.8709 3.10729 11.8131 3.01757 11.6796C2.92533 11.5423 2.81856 11.3579 2.65983 11.083C2.5011 10.8081 2.3948 10.6234 2.32206 10.4749C2.2513 10.3305 2.22925 10.253 2.22198 10.1978C2.19313 9.97864 2.25251 9.75703 2.38706 9.58169C2.4295 9.52638 2.5054 9.45702 2.70713 9.33027C3.15471 9.04904 3.45887 8.55863 3.4589 7.99972C3.45893 7.44074 3.15476 6.95026 2.70713 6.66899C2.50545 6.54227 2.42956 6.47292 2.38712 6.41761C2.25258 6.24227 2.1932 6.02066 2.22205 5.80154C2.22931 5.74634 2.25137 5.66884 2.32212 5.52438C2.39486 5.37588 2.50116 5.19123 2.6599 4.9163C2.81863 4.64136 2.92539 4.45698 3.01763 4.31973C3.10736 4.18623 3.16345 4.12838 3.20761 4.09448C3.38296 3.95994 3.60456 3.90056 3.82369 3.92941C3.89281 3.93851 3.99083 3.96956 4.20148 4.0809C4.66882 4.32791 5.2456 4.34609 5.72962 4.06664C6.21365 3.78719 6.4863 3.27859 6.50605 2.75035C6.51496 2.51227 6.53707 2.41185 6.56375 2.34744C6.64833 2.14325 6.81056 1.98102 7.01475 1.89644Z" fill="#858B93"/>
</svg>
