<svg width="20" height="20" viewBox="0 0 20 20" fill="none" xmlns="http://www.w3.org/2000/svg">
<path fill-rule="evenodd" clip-rule="evenodd" d="M10 6.04102C8.27411 6.04102 6.875 7.44013 6.875 9.16602C6.875 10.1891 7.36689 11.0967 8.125 11.6662V12.4993C8.125 13.3048 8.77792 13.9577 9.58333 13.9577H10.4167C11.2221 13.9577 11.875 13.3048 11.875 12.4993V11.6662C12.6331 11.0967 13.125 10.1891 13.125 9.16602C13.125 7.44013 11.7259 6.04102 10 6.04102ZM8.125 9.16602C8.125 8.13048 8.96447 7.29102 10 7.29102C11.0355 7.29102 11.875 8.13048 11.875 9.16602C11.875 9.85924 11.4991 10.4654 10.937 10.7906C10.7439 10.9023 10.625 11.1085 10.625 11.3316V12.4993C10.625 12.6144 10.5317 12.7077 10.4167 12.7077H9.58333C9.46827 12.7077 9.375 12.6144 9.375 12.4993V11.3316C9.375 11.1085 9.25607 10.9023 9.06295 10.7906C8.50088 10.4654 8.125 9.85924 8.125 9.16602Z" fill="#EFEFEF"/>
<path fill-rule="evenodd" clip-rule="evenodd" d="M10 1.04102C9.21873 1.04102 8.47277 1.2965 7.26949 1.70861L6.66329 1.91613C5.42885 2.33868 4.47617 2.66479 3.79419 2.94184C3.45065 3.0814 3.15531 3.21657 2.91748 3.35469C2.68862 3.4876 2.45902 3.65338 2.30303 3.87563C2.14884 4.09532 2.06911 4.36539 2.01901 4.62537C1.96693 4.89565 1.93552 5.21988 1.91525 5.59215C1.875 6.33132 1.875 7.34394 1.875 8.65738V9.99215C1.875 15.0764 5.71502 17.5139 7.99861 18.5115L8.02119 18.5214C8.30435 18.6451 8.57051 18.7614 8.87634 18.8397C9.19922 18.9223 9.54228 18.9577 10 18.9577C10.4577 18.9577 10.8008 18.9223 11.1237 18.8397C11.4295 18.7614 11.6956 18.6451 11.9788 18.5214L12.0014 18.5115C14.285 17.514 18.125 15.0764 18.125 9.99215V8.65753C18.125 7.34402 18.125 6.33135 18.0847 5.59215C18.0645 5.21988 18.0331 4.89565 17.981 4.62537C17.9309 4.36539 17.8512 4.09532 17.697 3.87563C17.541 3.65338 17.3114 3.4876 17.0825 3.35469C16.8447 3.21657 16.5493 3.0814 16.2058 2.94184C15.5238 2.66478 14.5711 2.33868 13.3367 1.91613L12.7305 1.70861C11.5272 1.2965 10.7813 1.04102 10 1.04102ZM7.56718 2.92793C8.91262 2.46738 9.45188 2.29102 10 2.29102C10.5481 2.29102 11.0874 2.46738 12.4328 2.92793L12.9102 3.09133C14.1707 3.5228 15.0899 3.83772 15.7353 4.09992C16.0575 4.2308 16.2909 4.34047 16.4548 4.43563C16.5356 4.4826 16.5914 4.52136 16.6286 4.55162C16.6601 4.57726 16.6722 4.59178 16.6739 4.59392C16.6755 4.59651 16.6859 4.61382 16.7005 4.6548C16.7171 4.70155 16.7356 4.76859 16.7536 4.8619C16.79 5.05076 16.8175 5.31019 16.8366 5.66011C16.8748 6.36111 16.875 7.33963 16.875 8.6799V9.99215C16.875 14.3047 13.6501 16.4272 11.501 17.366C11.1914 17.5012 11.0127 17.5778 10.8137 17.6287C10.6236 17.6774 10.3917 17.7077 10 17.7077C9.60833 17.7077 9.3764 17.6774 9.18633 17.6287C8.98732 17.5778 8.80856 17.5012 8.49899 17.366C6.34991 16.4272 3.125 14.3047 3.125 9.99215V8.6799C3.125 7.33963 3.12523 6.36111 3.1634 5.66011C3.18245 5.31019 3.21003 5.05076 3.24643 4.8619C3.26441 4.76859 3.28287 4.70155 3.29952 4.6548C3.31411 4.61385 3.32446 4.59654 3.32608 4.59392C3.3278 4.5918 3.33983 4.57728 3.37139 4.55162C3.40861 4.52136 3.46435 4.4826 3.54524 4.43563C3.70908 4.34047 3.9425 4.2308 4.26466 4.09992C4.91008 3.83772 5.82934 3.5228 7.08984 3.09133L7.56718 2.92793Z" fill="#EFEFEF"/>
</svg>
