<svg width="64" height="65" viewBox="0 0 64 65" fill="none" xmlns="http://www.w3.org/2000/svg">
<path fill-rule="evenodd" clip-rule="evenodd" d="M33.1971 18.5731C31.1221 18.3216 28.948 18.7169 27.0007 19.8412C22.2184 22.6023 20.5798 28.7174 23.3409 33.4997C24.8301 36.0789 27.2949 37.7437 30 38.297V44.5003C30 45.6049 30.8954 46.5003 32 46.5003C33.1046 46.5003 34 45.6049 34 44.5003V38.2997C35.0282 38.0897 36.0405 37.713 36.9993 37.1594C38.9467 36.0351 40.3761 34.35 41.1958 32.4272C42.3847 29.6383 42.2953 26.3351 40.6591 23.501C39.0229 20.6669 36.2068 18.9379 33.1971 18.5731ZM29.0007 23.3053C30.1722 22.629 31.4713 22.3932 32.7158 22.5441C34.5304 22.764 36.2144 23.8025 37.195 25.501C38.1756 27.1995 38.233 29.1771 37.5162 30.8586C37.0246 32.0118 36.1708 33.019 34.9993 33.6953C32.1302 35.3518 28.4615 34.3688 26.805 31.4997C25.1485 28.6305 26.1316 24.9618 29.0007 23.3053Z" fill="#FF9F41"/>
<path fill-rule="evenodd" clip-rule="evenodd" d="M32 3.83301C29.4999 3.83301 27.1129 4.65056 23.2624 5.96932L21.3225 6.63337C17.3723 7.98554 14.3237 9.02907 12.1414 9.91564C11.0421 10.3622 10.097 10.7948 9.33595 11.2368C8.60358 11.6621 7.86886 12.1926 7.36969 12.9038C6.87628 13.6068 6.62116 14.471 6.46084 15.3029C6.29417 16.1678 6.19366 17.2054 6.1288 18.3966C6 20.762 6 24.0024 6 28.2054V32.4766C6 48.7461 18.2881 56.5464 25.5956 59.7385L25.6678 59.7701C26.5739 60.166 27.4256 60.5382 28.4043 60.7887C29.4375 61.0532 30.5353 61.1663 32 61.1663C33.4647 61.1663 34.5625 61.0532 35.5957 60.7887C36.5743 60.5382 37.426 60.166 38.3321 59.7701L38.4044 59.7385C45.7119 56.5464 58 48.7461 58 32.4766V28.2059C58 24.0026 58 20.7621 57.8712 18.3966C57.8063 17.2054 57.7058 16.1678 57.5392 15.3029C57.3788 14.471 57.1237 13.6068 56.6303 12.9038C56.1311 12.1926 55.3964 11.6621 54.664 11.2368C53.903 10.7948 52.9579 10.3622 51.8586 9.91564C49.6763 9.02907 46.6277 7.98553 42.6774 6.63336L40.7376 5.96932C36.8872 4.65056 34.5001 3.83301 32 3.83301ZM24.215 9.87113C28.5204 8.39737 30.246 7.83301 32 7.83301C33.754 7.83301 35.4796 8.39737 39.785 9.87113L41.3125 10.394C45.3461 11.7747 48.2877 12.7825 50.3531 13.6215C51.384 14.0403 52.1309 14.3913 52.6552 14.6958C52.9141 14.8461 53.0924 14.9701 53.2115 15.0669C53.3125 15.149 53.351 15.1955 53.3565 15.2023C53.3617 15.2106 53.3948 15.266 53.4415 15.3971C53.4948 15.5467 53.5539 15.7612 53.6114 16.0598C53.7279 16.6642 53.8161 17.4944 53.8771 18.6141C53.9993 20.8573 54 23.9886 54 28.2774V32.4766C54 46.2769 43.6803 53.0689 36.8032 56.073C35.8126 56.5057 35.2406 56.7506 34.6037 56.9137C33.9955 57.0694 33.2533 57.1663 32 57.1663C30.7467 57.1663 30.0045 57.0694 29.3963 56.9137C28.7594 56.7506 28.1874 56.5057 27.1968 56.073C20.3197 53.0689 10 46.2769 10 32.4766V28.2774C10 23.9886 10.0007 20.8573 10.1229 18.6141C10.1839 17.4944 10.2721 16.6642 10.3886 16.0598C10.4461 15.7612 10.5052 15.5467 10.5585 15.3971C10.6051 15.2661 10.6383 15.2107 10.6434 15.2023C10.649 15.1955 10.6875 15.149 10.7885 15.0669C10.9076 14.9701 11.0859 14.8461 11.3448 14.6958C11.8691 14.3913 12.616 14.0403 13.6469 13.6215C15.7123 12.7825 18.6539 11.7747 22.6875 10.394L24.215 9.87113Z" fill="#FF9F41"/>
</svg>
