<svg width="21" height="21" viewBox="0 0 21 21" fill="none" xmlns="http://www.w3.org/2000/svg">
<path fill-rule="evenodd" clip-rule="evenodd" d="M12.214 2.50977H8.78665C7.25518 2.50975 6.04215 2.50974 5.09281 2.63738C4.11579 2.76874 3.325 3.0455 2.70136 3.66914C2.07773 4.29277 1.80096 5.08356 1.66961 6.06058C1.54197 7.00992 1.54198 8.22295 1.54199 9.75441V11.5151C1.54198 13.0466 1.54197 14.2596 1.66961 15.209C1.80096 16.186 2.07773 16.9768 2.70136 17.6004C3.325 18.224 4.11579 18.5008 5.09281 18.6322C6.04215 18.7598 7.25516 18.7598 8.78661 18.7598H12.214C13.7455 18.7598 14.9585 18.7598 15.9078 18.6322C16.8849 18.5008 17.6757 18.224 18.2993 17.6004C18.9229 16.9768 19.1997 16.186 19.331 15.209C19.4587 14.2596 19.4587 13.0466 19.4587 11.5151V9.75442C19.4587 8.22297 19.4587 7.00992 19.331 6.06058C19.1997 5.08356 18.9229 4.29277 18.2993 3.66914C17.6757 3.0455 16.8849 2.76874 15.9078 2.63738C14.9585 2.50974 13.7455 2.50975 12.214 2.50977ZM3.58525 4.55302C3.93792 4.20034 4.42096 3.98895 5.25937 3.87623C5.78032 3.80619 6.40212 3.77827 7.16699 3.76714V7.30143L2.84211 7.30143C2.85838 6.82189 2.87992 6.43937 2.90846 6.22714C3.02118 5.38873 3.23257 4.90569 3.58525 4.55302ZM2.8131 8.55143L7.16699 8.55143V12.5098H2.79199V12.3014C2.79199 11.4101 2.79241 9.87704 2.8131 8.55143ZM13.0003 8.55143H8.41699V12.5098H13.0003V8.55143ZM13.0003 7.30143H8.41699V3.75988L12.167 3.75977C12.46 3.75977 12.7374 3.75981 13.0003 3.76061V7.30143ZM14.2503 8.55143V12.5098H18.2087V12.3014C18.2087 11.4101 18.2082 9.87704 18.1876 8.55143H14.2503ZM13.0003 13.7598H8.41699V17.5097L12.167 17.5098C12.46 17.5098 12.7374 17.5097 13.0003 17.5089V13.7598ZM14.2503 17.4942V13.7598H18.2087V13.9681C18.2087 14.8222 18.2083 14.8211 18.19 14.7704C18.1744 14.7267 18.1454 14.6463 18.0922 15.0424C17.9795 15.8808 17.7681 16.3638 17.4154 16.7165C17.0627 17.0692 16.5797 17.2806 15.7413 17.3933C15.3183 17.4502 14.8289 17.4793 14.2503 17.4942ZM14.2503 7.30143V3.77537C14.8289 3.79026 15.3183 3.81936 15.7413 3.87623C16.5797 3.98895 17.0627 4.20034 17.4154 4.55302C17.7681 4.90569 17.9795 5.38873 18.0922 6.22714C18.1207 6.43937 18.1423 6.82189 18.1585 7.30143H14.2503ZM7.16699 13.7598H2.79199V13.9681C2.79199 14.8222 2.79238 14.8211 2.81061 14.7704C2.8263 14.7267 2.8552 14.6463 2.90846 15.0424C3.02118 15.8808 3.23257 16.3638 3.58525 16.7165C3.93792 17.0692 4.42096 17.2806 5.25937 17.3933C5.78032 17.4633 6.40212 17.4913 7.16699 17.5024V13.7598Z" fill="#858B93"/>
</svg>
