<svg width="12" height="12" viewBox="0 0 12 12" fill="none" xmlns="http://www.w3.org/2000/svg">
<path d="M5.12501 2.00001C5.12501 1.84537 5.03008 1.70659 4.88595 1.65052C4.74183 1.59446 4.57807 1.63262 4.47357 1.74662L1.72357 4.74662C1.62309 4.85624 1.59687 5.01489 1.65675 5.15101C1.71663 5.28714 1.85129 5.37502 2.00001 5.37502H10C10.2071 5.37502 10.375 5.20712 10.375 5.00002C10.375 4.79291 10.2071 4.62502 10 4.62502L5.12501 4.62501V2.00001Z" fill="#1A1D1F"/>
<path d="M6.87501 10L6.87501 7.37502H2.00001C1.7929 7.37502 1.62501 7.20712 1.62501 7.00002C1.62501 6.79291 1.7929 6.62502 2.00001 6.62502L10 6.62501C10.1487 6.62501 10.2834 6.71289 10.3433 6.84902C10.4031 6.98514 10.3769 7.14379 10.2764 7.25341L7.52644 10.2534C7.42194 10.3674 7.25819 10.4056 7.11406 10.3495C6.96994 10.2934 6.87501 10.1547 6.87501 10Z" fill="#1A1D1F"/>
</svg>
