<svg width="9" height="10" viewBox="0 0 9 10" fill="none" xmlns="http://www.w3.org/2000/svg">
<path d="M3.62501 1.00001C3.62501 0.845371 3.53008 0.706586 3.38595 0.650524C3.24183 0.594462 3.07807 0.632622 2.97357 0.746618L0.223575 3.74662C0.123086 3.85624 0.0968709 4.01489 0.156752 4.15101C0.216633 4.28714 0.351295 4.37502 0.500008 4.37502H8.50001C8.70711 4.37502 8.87501 4.20712 8.87501 4.00002C8.87501 3.79291 8.70711 3.62502 8.50001 3.62502L3.62501 3.62501V1.00001Z" fill="#F9F9F9"/>
<path d="M5.37501 9.00001L5.37501 6.37502H0.500008C0.292901 6.37502 0.125008 6.20712 0.125008 6.00002C0.125008 5.79291 0.292901 5.62502 0.500008 5.62502L8.50001 5.62501C8.64872 5.62501 8.78338 5.71289 8.84326 5.84902C8.90314 5.98514 8.87693 6.14379 8.77644 6.25341L6.02644 9.25341C5.92194 9.36741 5.75819 9.40557 5.61406 9.3495C5.46994 9.29344 5.37501 9.15466 5.37501 9.00001Z" fill="#F9F9F9"/>
</svg>
