<svg width="42" height="42" viewBox="0 0 42 42" fill="none" xmlns="http://www.w3.org/2000/svg">
<g clip-path="url(#clip0_49_281860)">
<path d="M0 21C0 14.4768 0 11.2152 1.06569 8.64243C2.4866 5.21204 5.21204 2.4866 8.64243 1.06569C11.2152 0 14.4768 0 21 0C27.5232 0 30.7848 0 33.3576 1.06569C36.788 2.4866 39.5134 5.21204 40.9343 8.64243C42 11.2152 42 14.4768 42 21C42 27.5232 42 30.7848 40.9343 33.3576C39.5134 36.788 36.788 39.5134 33.3576 40.9343C30.7848 42 27.5232 42 21 42C14.4768 42 11.2152 42 8.64243 40.9343C5.21204 39.5134 2.4866 36.788 1.06569 33.3576C0 30.7848 0 27.5232 0 21Z" fill="#167B5E" fill-opacity="0.3"/>
<g filter="url(#filter0_d_49_281860)">
<path d="M19.8599 18.3398H20.8499C21.1799 18.3398 21.4899 18.4498 21.7399 18.6598C22.3099 18.5798 22.8499 18.4298 23.3099 18.2198C23.4399 18.0198 23.5599 17.7998 23.6699 17.5798V15.3598C23.6699 14.8598 23.8499 14.3898 24.1699 14.0398C23.7099 11.3598 21.4199 9.31982 18.6699 9.31982C15.9199 9.31982 13.6299 11.3598 13.1699 14.0398C13.4899 14.3998 13.6699 14.8598 13.6699 15.3598V17.5798C14.5899 19.4598 16.4799 20.7598 18.6699 20.7598C18.6999 20.7598 18.7399 20.7598 18.7699 20.7598C18.5599 20.4998 18.4299 20.1798 18.4299 19.8198C18.4299 19.0098 19.0699 18.3498 19.8599 18.3498V18.3398Z" fill="url(#paint0_linear_49_281860)"/>
<path d="M11.4196 19.13H11.4796C12.1896 19.13 12.7696 18.57 12.7696 17.87V15.37C12.7696 14.88 12.4796 14.45 12.0496 14.25C12.2296 10.86 15.1296 8.16 18.6696 8.16C22.2096 8.16 25.0996 10.86 25.2896 14.25C24.8596 14.46 24.5696 14.88 24.5696 15.37V17.87C24.5696 18.04 24.5996 18.19 24.6596 18.34C23.9096 18.86 22.8096 19.23 21.5796 19.34C21.4396 19.13 21.1996 19 20.9296 19H19.8996C19.4696 19 19.1296 19.34 19.1296 19.75C19.1296 20.16 19.4796 20.5 19.8996 20.5H20.9296C21.2296 20.5 21.4796 20.33 21.6096 20.09C23.0396 19.98 24.2896 19.56 25.1596 18.93C25.3596 19.06 25.5996 19.13 25.8496 19.13H25.9096C26.6196 19.13 27.1996 18.57 27.1996 17.87V15.37C27.1996 14.87 26.8996 14.44 26.4596 14.24C26.2696 10.22 22.8396 7 18.6496 7C14.4596 7 11.0296 10.22 10.8396 14.24C10.3996 14.44 10.0996 14.87 10.0996 15.37V17.87C10.0996 18.56 10.6796 19.12 11.3896 19.12L11.4196 19.13Z" fill="url(#paint1_linear_49_281860)"/>
<path d="M32.1494 24.3901H28.4294C28.0494 24.3901 27.7094 24.6101 27.5694 24.9401C27.4294 25.2701 27.5094 25.6501 27.7694 25.9001L28.9694 27.0401L25.1694 30.6501L22.1094 27.7401C21.8094 27.4501 21.3294 27.4001 20.9594 27.6101L11.1894 33.3501C10.7494 33.6101 10.6194 34.1501 10.8894 34.5701C11.0694 34.8401 11.3694 34.9901 11.6794 34.9901C11.8494 34.9901 12.0194 34.9501 12.1694 34.8601L21.3094 29.4801L24.5094 32.5201C24.8694 32.8701 25.4594 32.8701 25.8294 32.5201L30.2894 28.2801L31.4894 29.4201C31.6694 29.5901 31.9094 29.6801 32.1494 29.6801C32.2694 29.6801 32.3894 29.6601 32.5094 29.6101C32.8594 29.4701 33.0794 29.1501 33.0794 28.7901V25.2501C33.0794 24.7601 32.6594 24.3701 32.1494 24.3701V24.3901Z" fill="url(#paint2_linear_49_281860)"/>
<path fill-rule="evenodd" clip-rule="evenodd" d="M14.3597 21.8401H22.9297C24.5497 21.9901 26.0097 22.6801 27.1197 23.7301C26.8797 23.9301 26.6697 24.1801 26.5397 24.4901C26.1997 25.2601 26.3997 26.1401 26.9997 26.7101L27.3497 27.0401L25.1697 29.1101L22.8797 26.9301C22.2097 26.2901 21.1797 26.1901 20.3997 26.6501L10.7197 32.3401C9.04973 32.0101 7.96973 31.1301 7.96973 28.8601C7.96973 25.1801 10.7797 22.1601 14.3797 21.8301L14.3597 21.8401Z" fill="url(#paint3_linear_49_281860)"/>
<g filter="url(#filter1_d_49_281860)">
<path d="M32.1495 20.2699H31.9695C31.9195 20.3899 31.8495 20.4999 31.7695 20.6099C31.6995 20.7099 31.5895 20.7999 31.4595 20.8799C31.3395 20.9599 31.1895 21.0299 31.0095 21.0699C30.8395 21.1199 30.6295 21.1399 30.3895 21.1399C30.0795 21.1399 29.7895 21.0899 29.5195 20.9799C29.2595 20.8699 29.0195 20.6999 28.8195 20.4799C28.6195 20.2599 28.4695 19.9899 28.3495 19.6699C28.2395 19.3499 28.1895 18.9899 28.1895 18.5699V18.3899C28.1895 17.9799 28.2495 17.6199 28.3595 17.2999C28.4795 16.9799 28.6395 16.7099 28.8495 16.4999C29.0595 16.2799 29.2995 16.1099 29.5695 15.9899C29.8495 15.8699 30.1395 15.8199 30.4395 15.8199C30.8495 15.8199 31.1695 15.8999 31.4095 16.0499C31.6495 16.1999 31.8295 16.4099 31.9695 16.6899H32.1495V15.5299H30.5695V14.3699H32.1495V13.8799H33.4295V14.3699H34.0395V15.5299H33.4295V20.9899H32.1495V20.2599V20.2699ZM30.8095 19.9199C31.2095 19.9199 31.5295 19.7899 31.7695 19.5399C32.0195 19.2799 32.1495 18.9499 32.1495 18.5299V18.4099C32.1495 17.9999 32.0195 17.6599 31.7695 17.4099C31.5295 17.1499 31.1995 17.0199 30.8095 17.0199C30.4195 17.0199 30.0795 17.1499 29.8295 17.3999C29.5895 17.6399 29.4595 17.9799 29.4595 18.4099V18.5299C29.4595 18.9599 29.5795 19.2999 29.8295 19.5499C30.0795 19.7899 30.4095 19.9199 30.8095 19.9199Z" fill="url(#paint4_linear_49_281860)"/>
<path d="M28.8193 21.8501H33.0493V22.7001H28.8193V21.8501Z" fill="url(#paint5_linear_49_281860)"/>
</g>
</g>
</g>
<defs>
<filter id="filter0_d_49_281860" x="-0.030273" y="3.57143" width="42.0693" height="43.9902" filterUnits="userSpaceOnUse" color-interpolation-filters="sRGB">
<feFlood flood-opacity="0" result="BackgroundImageFix"/>
<feColorMatrix in="SourceAlpha" type="matrix" values="0 0 0 0 0 0 0 0 0 0 0 0 0 0 0 0 0 0 127 0" result="hardAlpha"/>
<feOffset dy="4.57143"/>
<feGaussianBlur stdDeviation="4"/>
<feComposite in2="hardAlpha" operator="out"/>
<feColorMatrix type="matrix" values="0 0 0 0 0.0706443 0 0 0 0 0.623333 0 0 0 0 0.557011 0 0 0 0.45 0"/>
<feBlend mode="normal" in2="BackgroundImageFix" result="effect1_dropShadow_49_281860"/>
<feBlend mode="normal" in="SourceGraphic" in2="effect1_dropShadow_49_281860" result="shape"/>
</filter>
<filter id="filter1_d_49_281860" x="24.1895" y="10.8799" width="13.8496" height="16.8203" filterUnits="userSpaceOnUse" color-interpolation-filters="sRGB">
<feFlood flood-opacity="0" result="BackgroundImageFix"/>
<feColorMatrix in="SourceAlpha" type="matrix" values="0 0 0 0 0 0 0 0 0 0 0 0 0 0 0 0 0 0 127 0" result="hardAlpha"/>
<feOffset dy="1"/>
<feGaussianBlur stdDeviation="2"/>
<feComposite in2="hardAlpha" operator="out"/>
<feColorMatrix type="matrix" values="0 0 0 0 0 0 0 0 0 0 0 0 0 0 0 0 0 0 0.25 0"/>
<feBlend mode="normal" in2="BackgroundImageFix" result="effect1_dropShadow_49_281860"/>
<feBlend mode="normal" in="SourceGraphic" in2="effect1_dropShadow_49_281860" result="shape"/>
</filter>
<linearGradient id="paint0_linear_49_281860" x1="18.6699" y1="20.7598" x2="18.6699" y2="9.31982" gradientUnits="userSpaceOnUse">
<stop stop-color="#D9D9D9"/>
<stop offset="0.5028" stop-color="#F2F2F2"/>
<stop offset="1" stop-color="white"/>
</linearGradient>
<linearGradient id="paint1_linear_49_281860" x1="18.6496" y1="7" x2="18.6496" y2="20.5" gradientUnits="userSpaceOnUse">
<stop stop-color="#3FE4A8"/>
<stop offset="1" stop-color="#0D8732"/>
</linearGradient>
<linearGradient id="paint2_linear_49_281860" x1="21.9142" y1="34.9901" x2="21.9142" y2="24.3701" gradientUnits="userSpaceOnUse">
<stop stop-color="#D9D9D9"/>
<stop offset="0.5028" stop-color="#F2F2F2"/>
<stop offset="1" stop-color="white"/>
</linearGradient>
<linearGradient id="paint3_linear_49_281860" x1="17.6597" y1="21.8301" x2="17.6597" y2="32.3401" gradientUnits="userSpaceOnUse">
<stop stop-color="#3FE4A8"/>
<stop offset="1" stop-color="#0D8732"/>
</linearGradient>
<linearGradient id="paint4_linear_49_281860" x1="31.1145" y1="21.1399" x2="31.1145" y2="13.8799" gradientUnits="userSpaceOnUse">
<stop stop-color="#D9D9D9"/>
<stop offset="0.5028" stop-color="#F2F2F2"/>
<stop offset="1" stop-color="white"/>
</linearGradient>
<linearGradient id="paint5_linear_49_281860" x1="30.9343" y1="22.7001" x2="30.9343" y2="21.8501" gradientUnits="userSpaceOnUse">
<stop stop-color="#D9D9D9"/>
<stop offset="0.5028" stop-color="#F2F2F2"/>
<stop offset="1" stop-color="white"/>
</linearGradient>
<clipPath id="clip0_49_281860">
<path d="M0 21C0 14.4768 0 11.2152 1.06569 8.64243C2.4866 5.21204 5.21204 2.4866 8.64243 1.06569C11.2152 0 14.4768 0 21 0C27.5232 0 30.7848 0 33.3576 1.06569C36.788 2.4866 39.5134 5.21204 40.9343 8.64243C42 11.2152 42 14.4768 42 21C42 27.5232 42 30.7848 40.9343 33.3576C39.5134 36.788 36.788 39.5134 33.3576 40.9343C30.7848 42 27.5232 42 21 42C14.4768 42 11.2152 42 8.64243 40.9343C5.21204 39.5134 2.4866 36.788 1.06569 33.3576C0 30.7848 0 27.5232 0 21Z" fill="white"/>
</clipPath>
</defs>
</svg>
