<svg width="42" height="42" viewBox="0 0 42 42" fill="none" xmlns="http://www.w3.org/2000/svg">
<path d="M0 21C0 14.4768 0 11.2152 1.06569 8.64243C2.4866 5.21204 5.21204 2.4866 8.64243 1.06569C11.2152 0 14.4768 0 21 0C27.5232 0 30.7848 0 33.3576 1.06569C36.788 2.4866 39.5134 5.21204 40.9343 8.64243C42 11.2152 42 14.4768 42 21C42 27.5232 42 30.7848 40.9343 33.3576C39.5134 36.788 36.788 39.5134 33.3576 40.9343C30.7848 42 27.5232 42 21 42C14.4768 42 11.2152 42 8.64243 40.9343C5.21204 39.5134 2.4866 36.788 1.06569 33.3576C0 30.7848 0 27.5232 0 21Z" fill="#FF79F4" fill-opacity="0.3"/>
<path d="M19.8599 18.3398H20.8499C21.1799 18.3398 21.4899 18.4498 21.7399 18.6598C22.3099 18.5798 22.8499 18.4298 23.3099 18.2198C23.4399 18.0198 23.5599 17.7998 23.6699 17.5798V15.3598C23.6699 14.8598 23.8499 14.3898 24.1699 14.0398C23.7099 11.3598 21.4199 9.31982 18.6699 9.31982C15.9199 9.31982 13.6299 11.3598 13.1699 14.0398C13.4899 14.3998 13.6699 14.8598 13.6699 15.3598V17.5798C14.5899 19.4598 16.4799 20.7598 18.6699 20.7598C18.6999 20.7598 18.7399 20.7598 18.7699 20.7598C18.5599 20.4998 18.4299 20.1798 18.4299 19.8198C18.4299 19.0098 19.0699 18.3498 19.8599 18.3498V18.3398Z" fill="url(#paint0_linear_10797_48802)"/>
<path d="M11.4199 19.13H11.4799C12.1899 19.13 12.7699 18.57 12.7699 17.87V15.37C12.7699 14.88 12.4799 14.45 12.0499 14.25C12.2299 10.86 15.1299 8.16 18.6699 8.16C22.2099 8.16 25.0999 10.86 25.2899 14.25C24.8599 14.46 24.5699 14.88 24.5699 15.37V17.87C24.5699 18.04 24.5999 18.19 24.6599 18.34C23.9099 18.86 22.8099 19.23 21.5799 19.34C21.4399 19.13 21.1999 19 20.9299 19H19.8999C19.4699 19 19.1299 19.34 19.1299 19.75C19.1299 20.16 19.4799 20.5 19.8999 20.5H20.9299C21.2299 20.5 21.4799 20.33 21.6099 20.09C23.0399 19.98 24.2899 19.56 25.1599 18.93C25.3599 19.06 25.5999 19.13 25.8499 19.13H25.9099C26.6199 19.13 27.1999 18.57 27.1999 17.87V15.37C27.1999 14.87 26.8999 14.44 26.4599 14.24C26.2699 10.22 22.8399 7 18.6499 7C14.4599 7 11.0299 10.22 10.8399 14.24C10.3999 14.44 10.0999 14.87 10.0999 15.37V17.87C10.0999 18.56 10.6799 19.12 11.3899 19.12L11.4199 19.13Z" fill="url(#paint1_linear_10797_48802)"/>
<path d="M32.1499 24.3901H28.4299C28.0499 24.3901 27.7099 24.6101 27.5699 24.9401C27.4299 25.2701 27.5099 25.6501 27.7699 25.9001L28.9699 27.0401L25.1699 30.6501L22.1099 27.7401C21.8099 27.4501 21.3299 27.4001 20.9599 27.6101L11.1899 33.3501C10.7499 33.6101 10.6199 34.1501 10.8899 34.5701C11.0699 34.8401 11.3699 34.9901 11.6799 34.9901C11.8499 34.9901 12.0199 34.9501 12.1699 34.8601L21.3099 29.4801L24.5099 32.5201C24.8699 32.8701 25.4599 32.8701 25.8299 32.5201L30.2899 28.2801L31.4899 29.4201C31.6699 29.5901 31.9099 29.6801 32.1499 29.6801C32.2699 29.6801 32.3899 29.6601 32.5099 29.6101C32.8599 29.4701 33.0799 29.1501 33.0799 28.7901V25.2501C33.0799 24.7601 32.6599 24.3701 32.1499 24.3701V24.3901Z" fill="url(#paint2_linear_10797_48802)"/>
<path fill-rule="evenodd" clip-rule="evenodd" d="M14.36 21.8401H22.93C24.55 21.9901 26.01 22.6801 27.12 23.7301C26.88 23.9301 26.67 24.1801 26.54 24.4901C26.2 25.2601 26.4 26.1401 27 26.7101L27.35 27.0401L25.17 29.1101L22.88 26.9301C22.21 26.2901 21.18 26.1901 20.4 26.6501L10.72 32.3401C9.04997 32.0101 7.96997 31.1301 7.96997 28.8601C7.96997 25.1801 10.78 22.1601 14.38 21.8301L14.36 21.8401Z" fill="url(#paint3_linear_10797_48802)"/>
<path d="M32.1499 20.2699H31.9699C31.9199 20.3899 31.8499 20.4999 31.7699 20.6099C31.6999 20.7099 31.5899 20.7999 31.4599 20.8799C31.3399 20.9599 31.1899 21.0299 31.0099 21.0699C30.8399 21.1199 30.6299 21.1399 30.3899 21.1399C30.0799 21.1399 29.7899 21.0899 29.5199 20.9799C29.2599 20.8699 29.0199 20.6999 28.8199 20.4799C28.6199 20.2599 28.4699 19.9899 28.3499 19.6699C28.2399 19.3499 28.1899 18.9899 28.1899 18.5699V18.3899C28.1899 17.9799 28.2499 17.6199 28.3599 17.2999C28.4799 16.9799 28.6399 16.7099 28.8499 16.4999C29.0599 16.2799 29.2999 16.1099 29.5699 15.9899C29.8499 15.8699 30.1399 15.8199 30.4399 15.8199C30.8499 15.8199 31.1699 15.8999 31.4099 16.0499C31.6499 16.1999 31.8299 16.4099 31.9699 16.6899H32.1499V15.5299H30.5699V14.3699H32.1499V13.8799H33.4299V14.3699H34.0399V15.5299H33.4299V20.9899H32.1499V20.2599V20.2699ZM30.8099 19.9199C31.2099 19.9199 31.5299 19.7899 31.7699 19.5399C32.0199 19.2799 32.1499 18.9499 32.1499 18.5299V18.4099C32.1499 17.9999 32.0199 17.6599 31.7699 17.4099C31.5299 17.1499 31.1999 17.0199 30.8099 17.0199C30.4199 17.0199 30.0799 17.1499 29.8299 17.3999C29.5899 17.6399 29.4599 17.9799 29.4599 18.4099V18.5299C29.4599 18.9599 29.5799 19.2999 29.8299 19.5499C30.0799 19.7899 30.4099 19.9199 30.8099 19.9199Z" fill="url(#paint4_linear_10797_48802)"/>
<path d="M28.8198 21.8501H33.0498V22.7001H28.8198V21.8501Z" fill="url(#paint5_linear_10797_48802)"/>
<defs>
<linearGradient id="paint0_linear_10797_48802" x1="18.6699" y1="20.7498" x2="18.6699" y2="9.30982" gradientUnits="userSpaceOnUse">
<stop stop-color="#FCDBFF"/>
<stop offset="1" stop-color="white"/>
</linearGradient>
<linearGradient id="paint1_linear_10797_48802" x1="18.6699" y1="20.49" x2="18.6699" y2="7" gradientUnits="userSpaceOnUse">
<stop stop-color="#A93AFF"/>
<stop offset="1" stop-color="#FF81FF"/>
</linearGradient>
<linearGradient id="paint2_linear_10797_48802" x1="21.9099" y1="35.0001" x2="21.9099" y2="24.3901" gradientUnits="userSpaceOnUse">
<stop stop-color="#FCDBFF"/>
<stop offset="1" stop-color="white"/>
</linearGradient>
<linearGradient id="paint3_linear_10797_48802" x1="17.65" y1="32.3501" x2="17.65" y2="21.8401" gradientUnits="userSpaceOnUse">
<stop stop-color="#A93AFF"/>
<stop offset="1" stop-color="#FF81FF"/>
</linearGradient>
<linearGradient id="paint4_linear_10797_48802" x1="29.7699" y1="24.2299" x2="32.0899" y2="13.6799" gradientUnits="userSpaceOnUse">
<stop stop-color="#FCDBFF"/>
<stop offset="1" stop-color="white"/>
</linearGradient>
<linearGradient id="paint5_linear_10797_48802" x1="30.4698" y1="24.3901" x2="32.7898" y2="13.8301" gradientUnits="userSpaceOnUse">
<stop stop-color="#FCDBFF"/>
<stop offset="1" stop-color="white"/>
</linearGradient>
</defs>
</svg>
