<svg width="16" height="16" viewBox="0 0 16 16" fill="none" xmlns="http://www.w3.org/2000/svg">
<path fill-rule="evenodd" clip-rule="evenodd" d="M7.96142 0.833008C6.4225 0.833 5.21647 0.832993 4.27548 0.959506C3.31232 1.089 2.55231 1.35923 1.95577 1.95577C1.35923 2.55231 1.089 3.31232 0.959506 4.27548C0.832993 5.21647 0.833 6.42249 0.833008 7.96141V8.03793C0.833 9.57685 0.832993 10.7829 0.959506 11.7239C1.089 12.687 1.35923 13.447 1.95577 14.0436C2.55231 14.6401 3.31232 14.9104 4.27548 15.0398C5.21647 15.1664 6.4225 15.1664 7.96143 15.1663H8.03792C9.57685 15.1664 10.7829 15.1664 11.7239 15.0398C12.687 14.9104 13.447 14.6401 14.0436 14.0436C14.6401 13.447 14.9104 12.687 15.0398 11.7239C15.1664 10.7829 15.1664 9.57685 15.1663 8.03792V7.96143C15.1664 6.4225 15.1664 5.21647 15.0398 4.27548C14.9104 3.31232 14.6401 2.55231 14.0436 1.95577C13.447 1.35923 12.687 1.089 11.7239 0.959506C10.7829 0.832993 9.57686 0.833 8.03794 0.833008H7.96142ZM7.49967 1.83319C6.17053 1.83459 5.18145 1.8467 4.40873 1.95059C3.55646 2.06517 3.04264 2.2831 2.66287 2.66287C2.2831 3.04264 2.06517 3.55646 1.95059 4.40873C1.8467 5.18145 1.83459 6.17053 1.83319 7.49967H4.60885C4.37487 7.20741 4.20004 6.86268 4.10471 6.48136C3.74588 5.04601 5.04602 3.74588 6.48136 4.10471C6.86268 4.20004 7.20741 4.37487 7.49967 4.60885V1.83319ZM1.83319 8.49967C1.83459 9.82882 1.8467 10.8179 1.95059 11.5906C2.06517 12.4429 2.2831 12.9567 2.66287 13.3365C3.04264 13.7162 3.55646 13.9342 4.40873 14.0488C5.18145 14.1527 6.17053 14.1648 7.49967 14.1662V9.41544C6.97991 10.4536 5.90636 11.1663 4.66634 11.1663C4.3902 11.1663 4.16634 10.9425 4.16634 10.6663C4.16634 10.3902 4.3902 10.1663 4.66634 10.1663C5.69087 10.1663 6.5493 9.45525 6.77503 8.49968H6.68973L6.6836 8.49967H1.83319ZM8.49967 14.1662C9.82882 14.1648 10.8179 14.1527 11.5906 14.0488C12.4429 13.9342 12.9567 13.7162 13.3365 13.3365C13.7162 12.9567 13.9342 12.4429 14.0488 11.5906C14.1527 10.8179 14.1648 9.82882 14.1662 8.49967H9.31576L9.30962 8.49968H9.22432C9.45004 9.45525 10.3085 10.1663 11.333 10.1663C11.6091 10.1663 11.833 10.3902 11.833 10.6663C11.833 10.9425 11.6091 11.1663 11.333 11.1663C10.093 11.1663 9.01943 10.4536 8.49967 9.41544V14.1662ZM14.1662 7.49967H11.3905C11.6245 7.20741 11.7993 6.86268 11.8946 6.48136C12.2535 5.04601 10.9533 3.74588 9.518 4.10471C9.13667 4.20004 8.79194 4.37487 8.49967 4.60885V1.83319C9.82882 1.83459 10.8179 1.8467 11.5906 1.95059C12.4429 2.06517 12.9567 2.2831 13.3365 2.66287C13.7162 3.04264 13.9342 3.55646 14.0488 4.40873C14.1527 5.18145 14.1648 6.17053 14.1662 7.49967ZM8.49968 7.49967L8.49968 6.68576C8.50148 5.9236 9.0208 5.25979 9.76053 5.07486C10.4635 4.89911 11.1002 5.53586 10.9245 6.23882C10.7396 6.97827 10.0763 7.49748 9.31447 7.49967H8.49968ZM7.49967 6.68467C7.49738 5.92297 6.9782 5.2597 6.23882 5.07486C5.53586 4.89911 4.89911 5.53586 5.07486 6.23882C5.25972 6.97827 5.92309 7.49748 6.68488 7.49967H7.49967V6.68467Z" fill="#858B93"/>
</svg>
