<svg width="64" height="65" viewBox="0 0 64 65" fill="none" xmlns="http://www.w3.org/2000/svg">
<path d="M32.0002 47.833C33.1047 47.833 34.0002 46.9376 34.0002 45.833V29.833C34.0002 28.7284 33.1047 27.833 32.0002 27.833C30.8956 27.833 30.0002 28.7284 30.0002 29.833V45.833C30.0002 46.9376 30.8956 47.833 32.0002 47.833Z" fill="#1AAF74"/>
<path d="M32.0002 19.1663C33.4729 19.1663 34.6668 20.3602 34.6668 21.833C34.6668 23.3058 33.4729 24.4997 32.0002 24.4997C30.5274 24.4997 29.3335 23.3058 29.3335 21.833C29.3335 20.3602 30.5274 19.1663 32.0002 19.1663Z" fill="#1AAF74"/>
<path fill-rule="evenodd" clip-rule="evenodd" d="M3.3335 32.4997C3.3335 16.6675 16.168 3.83301 32.0002 3.83301C47.8323 3.83301 60.6668 16.6675 60.6668 32.4997C60.6668 48.3318 47.8323 61.1663 32.0002 61.1663C16.168 61.1663 3.3335 48.3318 3.3335 32.4997ZM32.0002 7.83301C18.3771 7.83301 7.3335 18.8767 7.3335 32.4997C7.3335 46.1227 18.3771 57.1663 32.0002 57.1663C45.6232 57.1663 56.6668 46.1227 56.6668 32.4997C56.6668 18.8767 45.6232 7.83301 32.0002 7.83301Z" fill="#1AAF74"/>
</svg>
