<svg width="17" height="16" viewBox="0 0 17 16" fill="none" xmlns="http://www.w3.org/2000/svg">
<path d="M7.38892 11.7712L7.38892 4.22906C7.38892 3.82502 7.13452 3.55566 6.75293 3.55566C6.56213 3.55566 6.43493 3.623 6.30773 3.75768L2.74619 7.52873C2.4918 7.79809 2.4918 8.20213 2.74619 8.47149L6.30773 12.2425C6.56213 12.5119 6.94372 12.5119 7.19812 12.2425C7.32532 12.1079 7.38891 11.9732 7.38892 11.7712Z" fill="#858B93"/>
<path d="M9.22215 4.22906L9.22215 11.7712C9.22215 12.1752 9.47654 12.4446 9.85813 12.4446C10.0489 12.4446 10.1761 12.3772 10.3033 12.2425L13.8649 8.47149C14.1193 8.20213 14.1193 7.79809 13.8649 7.52873L10.3033 3.75768C10.0489 3.48832 9.66734 3.48832 9.41294 3.75768C9.28575 3.89236 9.22215 4.02704 9.22215 4.22906Z" fill="#858B93"/>
</svg>
