<svg width="20" height="21" viewBox="0 0 20 21" fill="none" xmlns="http://www.w3.org/2000/svg">
<path fill-rule="evenodd" clip-rule="evenodd" d="M14.3386 2.18206C13.4529 1.83315 12.597 2.06934 11.9912 2.60818C11.4002 3.13377 11.042 3.94348 11.042 4.80192V8.13526C11.042 8.94067 11.6949 9.59359 12.5003 9.59359H15.8337C16.6921 9.59359 17.5018 9.23539 18.0274 8.64442C18.5662 8.03856 18.8024 7.18265 18.4535 6.297C17.7135 4.4185 16.2171 2.92209 14.3386 2.18206ZM12.292 8.13526V4.80192C12.292 4.27966 12.5127 3.81715 12.8219 3.54222C13.1161 3.28053 13.4815 3.18789 13.8804 3.34506C15.4364 3.95804 16.6775 5.19918 17.2905 6.75516C17.4477 7.15413 17.3551 7.51948 17.0934 7.81372C16.8184 8.12285 16.3559 8.34359 15.8337 8.34359H12.5003C12.3853 8.34359 12.292 8.25032 12.292 8.13526Z" fill="#858B93"/>
<path fill-rule="evenodd" clip-rule="evenodd" d="M9.16304 3.02687C8.65428 2.69727 8.16213 2.60238 7.62174 2.69661C7.16282 2.77663 6.67161 2.99676 6.14879 3.23106L6.09246 3.2563C5.65758 3.45105 5.23788 3.6827 4.83817 3.94978C3.4335 4.88835 2.33869 6.22237 1.69219 7.78316C1.04569 9.34395 0.87654 11.0614 1.20612 12.7183C1.5357 14.3752 2.34922 15.8972 3.54379 17.0918C4.73837 18.2864 6.26035 19.0999 7.91727 19.4295C9.57419 19.759 11.2916 19.5899 12.8524 18.9434C14.4132 18.2969 15.7472 17.2021 16.6858 15.7974C16.9529 15.3977 17.1845 14.978 17.3793 14.5431L17.4045 14.4868C17.6388 13.964 17.859 13.4727 17.939 13.0138C18.0332 12.4734 17.9383 11.9813 17.6087 11.4725C17.2534 10.9241 16.7669 10.656 16.172 10.5346C15.6437 10.4268 14.9837 10.4268 14.2271 10.4269L12.917 10.4269C12.1137 10.4269 11.574 10.4256 11.1715 10.3715C10.7869 10.3198 10.6224 10.2304 10.5138 10.1218C10.4052 10.0132 10.3158 9.84864 10.2641 9.46409C10.21 9.06156 10.2087 8.52192 10.2087 7.71858L10.2087 6.40843C10.2087 5.65192 10.2088 4.99186 10.101 4.46362C9.97954 3.8687 9.71151 3.38221 9.16304 3.02687ZM6.60336 4.39712C7.20269 4.12872 7.5501 3.97796 7.83646 3.92803C8.05779 3.88943 8.23168 3.91288 8.48338 4.07595C8.69536 4.21328 8.80756 4.37721 8.87623 4.71363C8.95567 5.10277 8.95866 5.63395 8.95866 6.46858L8.95866 7.76191C8.95864 8.51063 8.95862 9.135 9.02526 9.63065C9.09559 10.1538 9.25032 10.6261 9.62988 11.0057C10.0094 11.3853 10.4818 11.54 11.0049 11.6103C11.5006 11.677 12.1249 11.6769 12.8736 11.6769L14.167 11.6769C15.0016 11.6769 15.5328 11.6799 15.9219 11.7593C16.2584 11.828 16.4223 11.9402 16.5596 12.1522C16.7227 12.4039 16.7461 12.5778 16.7075 12.7991C16.6576 13.0855 16.5069 13.4329 16.2385 14.0322C16.0722 14.4034 15.8745 14.7617 15.6465 15.1029C14.8452 16.3021 13.7064 17.2366 12.3741 17.7885C11.0417 18.3404 9.57557 18.4848 8.16113 18.2035C6.74669 17.9221 5.44743 17.2277 4.42768 16.2079C3.40792 15.1881 2.71345 13.8889 2.4321 12.4744C2.15075 11.06 2.29515 9.59389 2.84704 8.26151C3.39893 6.92914 4.33352 5.79033 5.53263 4.98912C5.87386 4.76111 6.23214 4.56337 6.60336 4.39712Z" fill="#858B93"/>
</svg>
