<svg width="42" height="42" viewBox="0 0 42 42" fill="none" xmlns="http://www.w3.org/2000/svg">
<path d="M0 21C0 14.4768 0 11.2152 1.06569 8.64243C2.4866 5.21204 5.21204 2.4866 8.64243 1.06569C11.2152 0 14.4768 0 21 0C27.5232 0 30.7848 0 33.3576 1.06569C36.788 2.4866 39.5134 5.21204 40.9343 8.64243C42 11.2152 42 14.4768 42 21C42 27.5232 42 30.7848 40.9343 33.3576C39.5134 36.788 36.788 39.5134 33.3576 40.9343C30.7848 42 27.5232 42 21 42C14.4768 42 11.2152 42 8.64243 40.9343C5.21204 39.5134 2.4866 36.788 1.06569 33.3576C0 30.7848 0 27.5232 0 21Z" fill="#708CEE" fill-opacity="0.2"/>
<path d="M26.2912 9.5498H12.0788C10.9307 9.5498 10 10.4542 10 11.5698V29.9898C10 31.1054 10.9307 32.0098 12.0788 32.0098H26.2912C27.4393 32.0098 28.37 31.1054 28.37 29.9898V11.5698C28.37 10.4542 27.4393 9.5498 26.2912 9.5498Z" fill="url(#paint0_linear_10797_55937)"/>
<path d="M31.3799 19.8096L30.0199 18.4296C29.3599 17.7696 28.2899 17.7696 27.6199 18.4296L21.7499 24.2996C21.4299 24.6196 21.2499 25.0496 21.2599 25.4996V26.8596C21.2599 27.7896 22.0199 28.5496 22.9499 28.5496H24.3399C24.7699 28.5496 25.1899 28.3896 25.5099 28.0996L31.3799 22.2296C32.0499 21.5696 32.0499 20.4896 31.3899 19.8196C31.3899 19.8196 31.3899 19.8196 31.3799 19.8096Z" fill="url(#paint1_linear_10797_55937)"/>
<line x1="12.6399" y1="17.3" x2="21.2399" y2="17.3" stroke="url(#paint2_linear_10797_55937)" stroke-width="1.4" stroke-linecap="round"/>
<g filter="url(#filter0_d_10797_55937)">
<path d="M17.3854 26.4514H17.2292C17.1829 26.5498 17.125 26.6453 17.0556 26.7378C16.9919 26.8247 16.9051 26.9028 16.7951 26.9722C16.691 27.0417 16.5637 27.0966 16.4132 27.1372C16.2685 27.1777 16.092 27.1979 15.8837 27.1979C15.6175 27.1979 15.3686 27.1516 15.1372 27.059C14.9115 26.9606 14.7118 26.8189 14.5382 26.6337C14.3704 26.4427 14.2373 26.2112 14.1389 25.9392C14.0463 25.6672 14 25.3547 14 25.0017V24.8455C14 24.4983 14.0492 24.1887 14.1476 23.9167C14.2517 23.6447 14.3906 23.4161 14.5642 23.2309C14.7436 23.0399 14.9491 22.8953 15.1806 22.7969C15.4178 22.6985 15.6667 22.6493 15.9271 22.6493C16.2743 22.6493 16.5492 22.7159 16.7517 22.849C16.9543 22.9763 17.1134 23.1586 17.2292 23.3958H17.3854V22.4062H16.0312V21.4167H17.3854V21H18.4792V21.4167H19V22.4062H18.4792V27.0764H17.3854V26.4514ZM16.2396 26.1562C16.581 26.1562 16.8559 26.0492 17.0642 25.8351C17.2784 25.6152 17.3854 25.3287 17.3854 24.9757V24.8715C17.3854 24.5185 17.2784 24.235 17.0642 24.0208C16.8559 23.8009 16.581 23.691 16.2396 23.691C15.8981 23.691 15.6204 23.798 15.4062 24.0122C15.1979 24.2205 15.0937 24.5069 15.0937 24.8715V24.9757C15.0937 25.3403 15.1979 25.6296 15.4062 25.8437C15.6204 26.0521 15.8981 26.1562 16.2396 26.1562Z" fill="white"/>
<path d="M14.5366 27.7998H18.1535V28.5232H14.5366V27.7998Z" fill="white"/>
</g>
<line x1="12.7" y1="17.3" x2="25.3" y2="17.3" stroke="url(#paint3_linear_10797_55937)" stroke-width="1.4" stroke-linecap="round"/>
<defs>
<filter id="filter0_d_10797_55937" x="13" y="21" width="7" height="9.52295" filterUnits="userSpaceOnUse" color-interpolation-filters="sRGB">
<feFlood flood-opacity="0" result="BackgroundImageFix"/>
<feColorMatrix in="SourceAlpha" type="matrix" values="0 0 0 0 0 0 0 0 0 0 0 0 0 0 0 0 0 0 127 0" result="hardAlpha"/>
<feOffset dy="1"/>
<feGaussianBlur stdDeviation="0.5"/>
<feComposite in2="hardAlpha" operator="out"/>
<feColorMatrix type="matrix" values="0 0 0 0 0 0 0 0 0 0 0 0 0 0 0 0 0 0 0.25 0"/>
<feBlend mode="normal" in2="BackgroundImageFix" result="effect1_dropShadow_10797_55937"/>
<feBlend mode="normal" in="SourceGraphic" in2="effect1_dropShadow_10797_55937" result="shape"/>
</filter>
<linearGradient id="paint0_linear_10797_55937" x1="19.1799" y1="32.1398" x2="19.1799" y2="9.67981" gradientUnits="userSpaceOnUse">
<stop stop-color="#2F7BEB"/>
<stop offset="1" stop-color="#75ADFF"/>
</linearGradient>
<linearGradient id="paint1_linear_10797_55937" x1="26.5716" y1="17.9346" x2="26.5716" y2="28.5496" gradientUnits="userSpaceOnUse">
<stop stop-color="#EAF6FF"/>
<stop offset="1" stop-color="#B7E0FF"/>
</linearGradient>
<linearGradient id="paint2_linear_10797_55937" x1="16.9399" y1="18" x2="16.9399" y2="19" gradientUnits="userSpaceOnUse">
<stop stop-color="#EAF6FF"/>
<stop offset="1" stop-color="#B7E0FF"/>
</linearGradient>
<linearGradient id="paint3_linear_10797_55937" x1="19" y1="18" x2="19" y2="19" gradientUnits="userSpaceOnUse">
<stop stop-color="#EAF6FF"/>
<stop offset="1" stop-color="#B7E0FF"/>
</linearGradient>
</defs>
</svg>
