<svg width="16" height="16" viewBox="0 0 16 16" fill="none" xmlns="http://www.w3.org/2000/svg">
<path fill-rule="evenodd" clip-rule="evenodd" d="M7.29545 0.833008H8.70195C9.61367 0.832994 10.3486 0.832983 10.9265 0.91069C11.5266 0.991368 12.0319 1.16396 12.4331 1.56524C12.6321 1.76422 12.7749 1.98876 12.8781 2.23776C13.4994 2.3156 14.0211 2.48657 14.4331 2.89861C14.8344 3.29989 15.007 3.80514 15.0877 4.40521C15.1654 4.98319 15.1654 5.71807 15.1654 6.6298V9.36962C15.1654 10.2814 15.1654 11.0162 15.0877 11.5942C15.007 12.1943 14.8344 12.6995 14.4331 13.1008C14.0211 13.5129 13.4994 13.6838 12.878 13.7617C12.7748 14.0106 12.6321 14.2351 12.4331 14.4341C12.0319 14.8354 11.5266 15.008 10.9265 15.0887C10.3486 15.1664 9.61367 15.1664 8.70194 15.1663H7.29545C6.38372 15.1664 5.64884 15.1664 5.07086 15.0887C4.47079 15.008 3.96554 14.8354 3.56426 14.4341C3.36531 14.2351 3.22256 14.0106 3.11937 13.7617C2.49799 13.6838 1.97632 13.5129 1.56427 13.1008C1.16299 12.6995 0.990391 12.1943 0.909714 11.5942C0.832007 11.0162 0.832018 10.2814 0.832032 9.36963V6.62979C0.832018 5.71807 0.832007 4.98319 0.909714 4.40521C0.990391 3.80514 1.16299 3.29989 1.56427 2.89861C1.97631 2.48657 2.49798 2.31559 3.11934 2.23776C3.22254 1.98876 3.36529 1.76422 3.56426 1.56524C3.96554 1.16396 4.47079 0.991368 5.07086 0.91069C5.64884 0.832983 6.38372 0.832994 7.29545 0.833008ZM2.88432 3.29332C2.59258 3.36363 2.4107 3.46639 2.27137 3.60572C2.08686 3.79023 1.96657 4.04927 1.9008 4.53846C1.83309 5.04202 1.83203 5.70943 1.83203 6.66638V9.33304C1.83203 10.29 1.83309 10.9574 1.9008 11.461C1.96657 11.9501 2.08686 12.2092 2.27137 12.3937C2.4107 12.533 2.59258 12.6358 2.88433 12.7061C2.83201 12.1653 2.83202 11.502 2.83203 10.7029V5.29642C2.83202 4.49736 2.83201 3.83413 2.88432 3.29332ZM13.1131 12.7061C13.4048 12.6358 13.5867 12.533 13.726 12.3937C13.9105 12.2092 14.0308 11.9501 14.0966 11.461C14.1643 10.9574 14.1654 10.29 14.1654 9.33304V6.66638C14.1654 5.70943 14.1643 5.04202 14.0966 4.53846C14.0308 4.04927 13.9105 3.79023 13.726 3.60572C13.5867 3.46639 13.4048 3.36363 13.1131 3.29332C13.1654 3.83413 13.1654 4.49736 13.1654 5.29643V10.7029C13.1654 11.502 13.1654 12.1653 13.1131 12.7061ZM5.20411 1.90177C4.71493 1.96754 4.45588 2.08784 4.27137 2.27235C4.08686 2.45686 3.96657 2.71591 3.9008 3.20509C3.83309 3.70866 3.83203 4.37606 3.83203 5.33301V10.6663C3.83203 11.6233 3.83309 12.2907 3.9008 12.7943C3.96657 13.2834 4.08686 13.5425 4.27137 13.727C4.45588 13.9115 4.71493 14.0318 5.20411 14.0976C5.70768 14.1653 6.37509 14.1663 7.33203 14.1663H8.66536C9.62231 14.1663 10.2897 14.1653 10.7933 14.0976C11.2825 14.0318 11.5415 13.9115 11.726 13.727C11.9105 13.5425 12.0308 13.2834 12.0966 12.7943C12.1643 12.2907 12.1654 11.6233 12.1654 10.6663V5.33301C12.1654 4.37606 12.1643 3.70866 12.0966 3.20509C12.0308 2.71591 11.9105 2.45686 11.726 2.27235C11.5415 2.08784 11.2825 1.96754 10.7933 1.90177C10.2897 1.83407 9.62231 1.83301 8.66536 1.83301H7.33203C6.37509 1.83301 5.70768 1.83407 5.20411 1.90177ZM5.4987 5.99967C5.4987 5.72353 5.72256 5.49967 5.9987 5.49967H9.9987C10.2748 5.49967 10.4987 5.72353 10.4987 5.99967C10.4987 6.27582 10.2748 6.49967 9.9987 6.49967H5.9987C5.72256 6.49967 5.4987 6.27582 5.4987 5.99967ZM5.4987 8.66634C5.4987 8.3902 5.72256 8.16634 5.9987 8.16634H9.9987C10.2748 8.16634 10.4987 8.3902 10.4987 8.66634C10.4987 8.94248 10.2748 9.16634 9.9987 9.16634H5.9987C5.72256 9.16634 5.4987 8.94248 5.4987 8.66634ZM5.4987 11.333C5.4987 11.0569 5.72256 10.833 5.9987 10.833H7.9987C8.27484 10.833 8.4987 11.0569 8.4987 11.333C8.4987 11.6091 8.27484 11.833 7.9987 11.833H5.9987C5.72256 11.833 5.4987 11.6091 5.4987 11.333Z" fill="#1AAF74"/>
</svg>
