<svg width="20" height="20" viewBox="0 0 20 20" fill="none" xmlns="http://www.w3.org/2000/svg">
<path d="M9.95214 1.04169C8.02848 1.04168 6.52095 1.04167 5.34471 1.19981C4.14077 1.36168 3.19075 1.69946 2.44507 2.44513C1.6994 3.19081 1.36161 4.14083 1.19975 5.34478C1.04161 6.52101 1.04162 8.02854 1.04163 9.9522V10.0478C1.04162 11.9715 1.04161 13.479 1.19975 14.6553C1.36161 15.8592 1.6994 16.8092 2.44507 17.5549C3.19075 18.3006 4.14077 18.6384 5.34471 18.8002C6.52095 18.9584 8.02849 18.9584 9.95215 18.9584H10.0478C11.9714 18.9584 13.479 18.9584 14.6552 18.8002C15.8592 18.6384 16.8092 18.3006 17.5548 17.5549C18.3005 16.8092 18.6383 15.8592 18.8002 14.6553C18.9583 13.479 18.9583 11.9715 18.9583 10.0478V8.75002C18.9583 8.40484 18.6785 8.12502 18.3333 8.12502C17.9881 8.12502 17.7083 8.40484 17.7083 8.75002V10C17.7083 11.9819 17.707 13.4054 17.5613 14.4887C17.4181 15.554 17.1457 16.1963 16.671 16.671C16.1962 17.1457 15.554 17.4181 14.4886 17.5614C13.4053 17.707 11.9818 17.7084 9.99996 17.7084C8.01811 17.7084 6.59459 17.707 5.51127 17.5614C4.44594 17.4181 3.80367 17.1457 3.32896 16.671C2.85424 16.1963 2.58183 15.554 2.4386 14.4887C2.29295 13.4054 2.29163 11.9819 2.29163 10C2.29163 8.01817 2.29295 6.59465 2.4386 5.51133C2.58183 4.446 2.85424 3.80373 3.32896 3.32902C3.80367 2.8543 4.44594 2.58189 5.51127 2.43866C6.59459 2.29301 8.01811 2.29169 9.99996 2.29169H11.25C11.5951 2.29169 11.875 2.01187 11.875 1.66669C11.875 1.32151 11.5951 1.04169 11.25 1.04169H9.95214Z" fill="#C7C7C7" style="fill:#C7C7C7;fill:color(display-p3 0.7804 0.7804 0.7804);fill-opacity:1;"/>
<path fill-rule="evenodd" clip-rule="evenodd" d="M15.8333 1.04169C14.1074 1.04169 12.7083 2.4408 12.7083 4.16669C12.7083 5.89258 14.1074 7.29169 15.8333 7.29169C17.5592 7.29169 18.9583 5.89258 18.9583 4.16669C18.9583 2.4408 17.5592 1.04169 15.8333 1.04169ZM13.9583 4.16669C13.9583 3.13115 14.7978 2.29169 15.8333 2.29169C16.8688 2.29169 17.7083 3.13115 17.7083 4.16669C17.7083 5.20222 16.8688 6.04169 15.8333 6.04169C14.7978 6.04169 13.9583 5.20222 13.9583 4.16669Z" fill="#C7C7C7" style="fill:#C7C7C7;fill:color(display-p3 0.7804 0.7804 0.7804);fill-opacity:1;"/>
</svg>
