<svg width="16" height="17" viewBox="0 0 16 17" fill="none" xmlns="http://www.w3.org/2000/svg">
<path d="M3.56491 3.18271C3.3213 2.9391 2.92632 2.9391 2.68271 3.18271C2.4391 3.42632 2.4391 3.8213 2.68271 4.06491L7.11782 8.50002L2.68275 12.9351C2.43914 13.1787 2.43914 13.5737 2.68275 13.8173C2.92636 14.0609 3.32134 14.0609 3.56495 13.8173L8.00002 9.38222L12.435 13.8172C12.6787 14.0609 13.0736 14.0609 13.3172 13.8173C13.5609 13.5736 13.5609 13.1787 13.3172 12.9351L8.88222 8.50002L13.3173 4.06495C13.5609 3.82134 13.5609 3.42636 13.3173 3.18275C13.0737 2.93914 12.6787 2.93914 12.4351 3.18275L8.00002 7.61782L3.56491 3.18271Z" fill="#F34859"/>
</svg>
