<svg width="16" height="16" viewBox="0 0 16 16" fill="none" xmlns="http://www.w3.org/2000/svg">
<path fill-rule="evenodd" clip-rule="evenodd" d="M14.6666 7.99998C14.6666 11.6819 11.6819 14.6666 7.99998 14.6666C4.31808 14.6666 1.33331 11.6819 1.33331 7.99998C1.33331 4.31808 4.31808 1.33331 7.99998 1.33331C11.6819 1.33331 14.6666 4.31808 14.6666 7.99998ZM7.99998 11.8333C8.27612 11.8333 8.49998 11.6095 8.49998 11.3333V7.33331C8.49998 7.05717 8.27612 6.83331 7.99998 6.83331C7.72384 6.83331 7.49998 7.05717 7.49998 7.33331V11.3333C7.49998 11.6095 7.72384 11.8333 7.99998 11.8333ZM7.99998 4.66665C8.36817 4.66665 8.66665 4.96512 8.66665 5.33331C8.66665 5.7015 8.36817 5.99998 7.99998 5.99998C7.63179 5.99998 7.33331 5.7015 7.33331 5.33331C7.33331 4.96512 7.63179 4.66665 7.99998 4.66665Z" fill="white" style="fill:white;fill-opacity:1;"/>
</svg>
