<svg width="16" height="16" viewBox="0 0 16 16" fill="none" xmlns="http://www.w3.org/2000/svg">
<path fill-rule="evenodd" clip-rule="evenodd" d="M14.6666 7.99998C14.6666 11.6819 11.6819 14.6666 7.99998 14.6666C4.31808 14.6666 1.33331 11.6819 1.33331 7.99998C1.33331 4.31808 4.31808 1.33331 7.99998 1.33331C11.6819 1.33331 14.6666 4.31808 14.6666 7.99998ZM5.97973 5.97975C6.17499 5.78448 6.49158 5.78448 6.68684 5.97975L7.99996 7.29287L9.31306 5.97976C9.50833 5.7845 9.82491 5.7845 10.0202 5.97976C10.2154 6.17502 10.2154 6.4916 10.0202 6.68687L8.70707 7.99997L10.0202 9.31307C10.2154 9.50833 10.2154 9.82491 10.0202 10.0202C9.8249 10.2154 9.50831 10.2154 9.31305 10.0202L7.99996 8.70708L6.68685 10.0202C6.49159 10.2154 6.17501 10.2154 5.97975 10.0202C5.78448 9.82492 5.78448 9.50834 5.97975 9.31308L7.29285 7.99997L5.97973 6.68685C5.78447 6.49159 5.78447 6.17501 5.97973 5.97975Z" fill="white" style="fill:white;fill-opacity:1;"/>
</svg>
