<svg width="16" height="16" viewBox="0 0 16 16" fill="none" xmlns="http://www.w3.org/2000/svg">
<path fill-rule="evenodd" clip-rule="evenodd" d="M14.6666 7.99998C14.6666 11.6819 11.6819 14.6666 7.99998 14.6666C4.31808 14.6666 1.33331 11.6819 1.33331 7.99998C1.33331 4.31808 4.31808 1.33331 7.99998 1.33331C11.6819 1.33331 14.6666 4.31808 14.6666 7.99998ZM10.6869 5.97976C10.8821 6.17502 10.8821 6.4916 10.6869 6.68687L7.35353 10.0202C7.15827 10.2155 6.84169 10.2155 6.64643 10.0202L5.31309 8.68687C5.11783 8.4916 5.11783 8.17502 5.31309 7.97976C5.50836 7.7845 5.82494 7.7845 6.0202 7.97976L6.99998 8.95954L9.97976 5.97976C10.175 5.7845 10.4916 5.7845 10.6869 5.97976Z" fill="white" style="fill:white;fill-opacity:1;"/>
</svg>
