<svg width="20" height="20" viewBox="0 0 20 20" fill="none" xmlns="http://www.w3.org/2000/svg">
<path d="M9.7988 4.20951C10.2224 3.96318 10.7463 3.96577 11.1675 4.21628L13.3836 5.53437C13.6922 5.71788 14.0911 5.61653 14.2746 5.30799C14.4581 4.99945 14.3567 4.60057 14.0482 4.41706L11.832 3.09897C11.0053 2.60723 9.97693 2.60214 9.14534 3.08569L5.30966 5.31599C5.04977 5.4671 4.82174 5.65861 4.63163 5.87994L2.46154 4.46831C2.16062 4.27257 1.75799 4.35783 1.56224 4.65875C1.36649 4.95967 1.45175 5.3623 1.75268 5.55804L4.05026 7.05261C4.01173 7.23279 3.99172 7.41841 3.99172 7.60687V11.1057C3.99172 11.4647 4.28273 11.7557 4.64172 11.7557C5.0007 11.7557 5.29172 11.4647 5.29172 11.1057V7.60687C5.29172 7.12605 5.54746 6.68151 5.96312 6.43982L9.7988 4.20951Z" fill="#858B93"/>
<path d="M11.0868 15.7895C10.658 16.0388 10.127 16.0329 9.70389 15.7742L7.52123 14.4394C7.21497 14.2522 6.81487 14.3486 6.62759 14.6549C6.4403 14.9611 6.53676 15.3612 6.84302 15.5485L9.02568 16.8833C9.85631 17.3912 10.8986 17.4027 11.7403 16.9133L15.5616 14.6914C16.3775 14.2169 16.8795 13.3443 16.8795 12.4005V9.0041C16.8795 8.64511 16.5885 8.3541 16.2295 8.3541C15.8705 8.3541 15.5795 8.64511 15.5795 9.0041V12.4005C15.5795 12.8813 15.3238 13.3258 14.9081 13.5675L11.0868 15.7895Z" fill="#858B93"/>
<path d="M18.4279 4.63995C18.2272 4.34234 17.8232 4.26381 17.5256 4.46455L1.7732 15.0897C1.47559 15.2904 1.39706 15.6944 1.5978 15.992C1.79854 16.2896 2.20254 16.3682 2.50015 16.1674L18.2525 5.5423C18.5501 5.34156 18.6287 4.93756 18.4279 4.63995Z" fill="#858B93"/>
<path d="M14.3723 11.7524C14.549 12.0489 14.4519 12.4325 14.1554 12.6092L10.822 14.596C10.5255 14.7727 10.1419 14.6756 9.96518 14.3791C9.78845 14.0826 9.88556 13.6989 10.1821 13.5222L13.5154 11.5355C13.8119 11.3588 14.1955 11.4559 14.3723 11.7524Z" fill="#858B93"/>
</svg>
