<svg width="18" height="19" viewBox="0 0 18 19" fill="none" xmlns="http://www.w3.org/2000/svg">
<path fill-rule="evenodd" clip-rule="evenodd" d="M9 5.54166C7.27411 5.54166 5.875 6.94077 5.875 8.66666C5.875 9.68973 6.36689 10.5974 7.125 11.1668V12C7.125 12.8054 7.77792 13.4583 8.58333 13.4583H9.41667C10.2221 13.4583 10.875 12.8054 10.875 12V11.1668C11.6331 10.5974 12.125 9.68973 12.125 8.66666C12.125 6.94077 10.7259 5.54166 9 5.54166ZM7.125 8.66666C7.125 7.63112 7.96447 6.79166 9 6.79166C10.0355 6.79166 10.875 7.63112 10.875 8.66666C10.875 9.35989 10.4991 9.96606 9.93705 10.2912C9.74393 10.4029 9.625 10.6091 9.625 10.8322V12C9.625 12.115 9.53173 12.2083 9.41667 12.2083H8.58333C8.46827 12.2083 8.375 12.115 8.375 12V10.8322C8.375 10.6091 8.25607 10.4029 8.06295 10.2912C7.50088 9.96606 7.125 9.35989 7.125 8.66666Z" fill="#1A1D1F"/>
<path fill-rule="evenodd" clip-rule="evenodd" d="M9 0.541656C8.21873 0.541656 7.47277 0.797142 6.26949 1.20925L5.66329 1.41677C4.42885 1.83932 3.47617 2.16543 2.79419 2.44248C2.45065 2.58204 2.15531 2.71721 1.91748 2.85533C1.68862 2.98824 1.45902 3.15402 1.30303 3.37627C1.14884 3.59596 1.06911 3.86603 1.01901 4.12601C0.966927 4.39629 0.93552 4.72052 0.915249 5.09279C0.875 5.83196 0.875 6.84458 0.875 8.15802V9.49279C0.875 14.577 4.71502 17.0146 6.99861 18.0121L7.02119 18.022C7.30436 18.1457 7.57051 18.262 7.87634 18.3403C8.19922 18.423 8.54228 18.4583 9 18.4583C9.45772 18.4583 9.80078 18.423 10.1237 18.3403C10.4295 18.262 10.6956 18.1457 10.9788 18.022L11.0014 18.0121C13.285 17.0146 17.125 14.577 17.125 9.49279V8.15817C17.125 6.84466 17.125 5.83199 17.0847 5.09279C17.0645 4.72052 17.0331 4.39629 16.981 4.12601C16.9309 3.86603 16.8512 3.59596 16.697 3.37627C16.541 3.15402 16.3114 2.98824 16.0825 2.85533C15.8447 2.71721 15.5493 2.58204 15.2058 2.44248C14.5238 2.16543 13.5711 1.83932 12.3367 1.41677L11.7305 1.20925C10.5272 0.797143 9.78127 0.541656 9 0.541656ZM6.56718 2.42857C7.91262 1.96802 8.45188 1.79166 9 1.79166C9.54812 1.79166 10.0874 1.96802 11.4328 2.42857L11.9102 2.59197C13.1707 3.02344 14.0899 3.33836 14.7353 3.60056C15.0575 3.73144 15.2909 3.84111 15.4548 3.93627C15.5356 3.98324 15.5914 4.022 15.6286 4.05226C15.6601 4.0779 15.6722 4.09242 15.6739 4.09456C15.6755 4.09715 15.6859 4.11446 15.7005 4.15544C15.7171 4.2022 15.7356 4.26923 15.7536 4.36254C15.79 4.5514 15.8175 4.81083 15.8366 5.16075C15.8748 5.86175 15.875 6.84027 15.875 8.18054V9.49279C15.875 13.8054 12.6501 15.9279 10.501 16.8666C10.1914 17.0019 10.0127 17.0784 9.81367 17.1294C9.6236 17.178 9.39167 17.2083 9 17.2083C8.60833 17.2083 8.3764 17.178 8.18633 17.1294C7.98732 17.0784 7.80856 17.0019 7.49899 16.8666C5.34991 15.9279 2.125 13.8054 2.125 9.49279V8.18054C2.125 6.84027 2.12523 5.86175 2.1634 5.16075C2.18245 4.81083 2.21003 4.5514 2.24643 4.36254C2.26441 4.26923 2.28287 4.2022 2.29952 4.15544C2.31411 4.11449 2.32446 4.09718 2.32608 4.09456C2.3278 4.09244 2.33983 4.07792 2.37139 4.05226C2.40861 4.022 2.46435 3.98324 2.54524 3.93627C2.70908 3.84111 2.9425 3.73144 3.26466 3.60056C3.91008 3.33836 4.82934 3.02344 6.08984 2.59197L6.56718 2.42857Z" fill="#1A1D1F"/>
</svg>
