<svg width="16" height="17" viewBox="0 0 16 17" fill="none" xmlns="http://www.w3.org/2000/svg">
<path d="M1.33325 4.8335C1.33325 3.41928 1.33325 2.71218 1.77259 2.27284C2.21193 1.8335 2.91904 1.8335 4.33325 1.8335C5.74747 1.8335 6.45457 1.8335 6.89391 2.27284C7.33325 2.71218 7.33325 3.41928 7.33325 4.8335C7.33325 6.24771 7.33325 6.95482 6.89391 7.39416C6.45457 7.8335 5.74747 7.8335 4.33325 7.8335C2.91904 7.8335 2.21193 7.8335 1.77259 7.39416C1.33325 6.95482 1.33325 6.24771 1.33325 4.8335Z" fill="#1AAF74"/>
<path d="M8.66659 12.1668C8.66659 10.7526 8.66659 10.0455 9.10593 9.60617C9.54527 9.16683 10.2524 9.16683 11.6666 9.16683C13.0808 9.16683 13.7879 9.16683 14.2272 9.60617C14.6666 10.0455 14.6666 10.7526 14.6666 12.1668C14.6666 13.581 14.6666 14.2881 14.2272 14.7275C13.7879 15.1668 13.0808 15.1668 11.6666 15.1668C10.2524 15.1668 9.54527 15.1668 9.10593 14.7275C8.66659 14.2881 8.66659 13.581 8.66659 12.1668Z" fill="#1AAF74"/>
<path d="M1.33325 12.1668C1.33325 10.7526 1.33325 10.0455 1.77259 9.60617C2.21193 9.16683 2.91904 9.16683 4.33325 9.16683C5.74747 9.16683 6.45457 9.16683 6.89391 9.60617C7.33325 10.0455 7.33325 10.7526 7.33325 12.1668C7.33325 13.581 7.33325 14.2881 6.89391 14.7275C6.45457 15.1668 5.74747 15.1668 4.33325 15.1668C2.91904 15.1668 2.21193 15.1668 1.77259 14.7275C1.33325 14.2881 1.33325 13.581 1.33325 12.1668Z" fill="#1AAF74"/>
<path d="M8.66659 4.8335C8.66659 3.41928 8.66659 2.71218 9.10593 2.27284C9.54527 1.8335 10.2524 1.8335 11.6666 1.8335C13.0808 1.8335 13.7879 1.8335 14.2272 2.27284C14.6666 2.71218 14.6666 3.41928 14.6666 4.8335C14.6666 6.24771 14.6666 6.95482 14.2272 7.39416C13.7879 7.8335 13.0808 7.8335 11.6666 7.8335C10.2524 7.8335 9.54527 7.8335 9.10593 7.39416C8.66659 6.95482 8.66659 6.24771 8.66659 4.8335Z" fill="#1AAF74"/>
</svg>
