<svg width="16" height="20" viewBox="0 0 16 20" fill="none" xmlns="http://www.w3.org/2000/svg">
<path fill-rule="evenodd" clip-rule="evenodd" d="M2.70058 0H9.39401L15.0582 5.91241V17.3942C15.0582 18.8321 13.8977 20 12.4597 20H2.70058C1.26993 20 0.102051 18.8321 0.102051 17.3942V2.59853C0.102026 1.16788 1.26993 0 2.70058 0Z" fill="#1AAF74"/>
<path opacity="0.302" fill-rule="evenodd" clip-rule="evenodd" d="M9.38672 0V5.86131H15.0583L9.38672 0Z" fill="white"/>
<path d="M6.32082 14.5621H5.35002L4.6858 13.4454L4.02156 14.5621H3.04346L4.19675 12.6205L3.18216 10.9344H4.16024L4.68578 11.8103L5.20401 10.9344H6.18211L5.1748 12.6278L6.32082 14.5621ZM6.66388 14.5621V10.9344H7.59088V13.7738H9.16753V14.5621H6.66388V14.5621ZM10.7004 14.6059C10.3354 14.6059 10.0142 14.4891 9.73688 14.2629C9.4668 14.0439 9.31354 13.7665 9.29163 13.4381L10.0873 13.2045C10.1092 13.3797 10.1821 13.533 10.3062 13.6497C10.4376 13.7665 10.5836 13.8249 10.7442 13.8249C10.8756 13.8249 10.9851 13.7957 11.0727 13.7373C11.1529 13.6789 11.1967 13.5987 11.1967 13.5038C11.1967 13.4235 11.1602 13.3578 11.0945 13.2994C11.0288 13.2483 10.9412 13.2045 10.8391 13.168C10.7369 13.1315 10.6128 13.095 10.4887 13.0658C10.3573 13.0293 10.2259 12.9855 10.1018 12.9271C9.97045 12.876 9.85366 12.8103 9.75146 12.7301C9.64197 12.657 9.56169 12.5476 9.49599 12.4089C9.43028 12.2775 9.39379 12.1169 9.39379 11.9344C9.39379 11.6352 9.51787 11.387 9.77335 11.1899C10.0288 10.9855 10.3354 10.8906 10.693 10.8906C11.0507 10.8906 11.3646 10.9782 11.6274 11.1461C11.8901 11.3213 12.058 11.5476 12.1237 11.8249L11.2916 12.1753C11.2551 12.022 11.1821 11.8979 11.0799 11.803C10.9777 11.7155 10.8463 11.6644 10.693 11.6644C10.5763 11.6644 10.4887 11.6936 10.4157 11.7374C10.35 11.7812 10.3208 11.8469 10.3208 11.9271C10.3208 12.0002 10.3646 12.0658 10.4522 12.1169C10.5398 12.1607 10.6566 12.1972 10.7879 12.2191C10.9193 12.241 11.0653 12.2775 11.2186 12.3286C11.3792 12.387 11.5179 12.4454 11.6565 12.5257C11.7879 12.5987 11.8974 12.7228 11.985 12.8834C12.0799 13.0513 12.1237 13.2483 12.1237 13.4746C12.1237 13.8104 11.9923 14.0878 11.7295 14.2921C11.4667 14.4965 11.1237 14.6059 10.7004 14.6059Z" fill="white"/>
</svg>
