<svg width="25" height="24" viewBox="0 0 25 24" fill="none" xmlns="http://www.w3.org/2000/svg">
<path d="M8.12921 17.1126L7.35156 8.03872L14.2863 6.54834L19.0824 9.14085L17.3325 17.1126H8.12921Z" fill="white"/>
<g clip-path="url(#clip0_869_730143)">
<path d="M22.549 7.61356C22.549 7.61356 22.343 6.15919 21.7085 5.52058C20.9051 4.68009 20.0069 4.67597 19.5949 4.62653C16.645 4.41229 12.216 4.41229 12.216 4.41229H12.2077C12.2077 4.41229 7.77868 4.41229 4.82874 4.62653C4.41673 4.67597 3.51857 4.68009 2.71516 5.52058C2.08067 6.15919 1.87879 7.61356 1.87879 7.61356C1.87879 7.61356 1.66455 9.32337 1.66455 11.0291V12.6276C1.66455 14.3333 1.87467 16.0431 1.87467 16.0431C1.87467 16.0431 2.08067 17.4975 2.71104 18.1361C3.51445 18.9766 4.56918 18.9478 5.03886 19.0384C6.72807 19.1991 12.2118 19.2485 12.2118 19.2485C12.2118 19.2485 16.645 19.2403 19.5949 19.0302C20.0069 18.9807 20.9051 18.9766 21.7085 18.1361C22.343 17.4975 22.549 16.0431 22.549 16.0431C22.549 16.0431 22.7591 14.3375 22.7591 12.6276V11.0291C22.7591 9.32337 22.549 7.61356 22.549 7.61356ZM10.0323 14.5682V8.63945L15.7303 11.6141L10.0323 14.5682Z" fill="#FF0000"/>
</g>
<defs>
<clipPath id="clip0_869_730143">
<rect width="21.0946" height="21.0946" fill="white" transform="translate(1.66455 1.28516)"/>
</clipPath>
</defs>
</svg>
