<svg width="25" height="24" viewBox="0 0 25 24" fill="none" xmlns="http://www.w3.org/2000/svg">
<g clip-path="url(#clip0_869_730008)">
<rect x="2.76514" y="1.97046" width="20.0566" height="20.059" rx="2.80724" fill="white"/>
<path d="M6.89854 18.3755C6.83195 18.3442 6.78301 18.3087 6.86163 18.2385C6.90977 18.1996 6.96192 18.1641 7.01406 18.1286C7.50104 17.7954 7.95833 17.4309 8.25998 16.8939C8.51269 16.4474 8.47178 16.1844 8.15569 15.8555C6.39231 13.9967 5.61893 11.7743 6.00562 9.14855C6.22464 7.66696 6.86805 6.38495 7.8051 5.27206C8.37069 4.59808 9.04299 4.05263 9.77947 3.59851C9.8244 3.57145 9.88697 3.56299 9.895 3.4928C9.87975 3.4539 9.85408 3.46574 9.83162 3.46574C8.57848 3.46574 7.32534 3.43868 6.07622 3.47335C4.87844 3.51225 3.84512 4.48814 3.84913 5.8877C3.85635 9.9756 3.84913 14.0644 3.84913 18.1565C3.84913 19.4267 4.76773 20.4888 5.96871 20.5362C6.98358 20.5793 7.99925 20.5438 9.01812 20.5404C9.09273 20.5446 9.16654 20.548 9.24115 20.548H14.6107C15.9497 20.548 17.2879 20.5556 18.6268 20.548C19.8687 20.548 20.8764 19.4901 20.8764 18.1844V18.1607V15.8673C20.8764 15.8123 20.8948 15.754 20.8611 15.6948C20.7946 15.699 20.7681 15.7574 20.7312 15.7971C20.0099 16.5616 19.1579 17.1772 18.2249 17.6119C15.9376 18.674 13.6103 18.7484 11.2492 17.8943C11.0446 17.8157 10.8216 17.8081 10.6098 17.863C10.2977 17.9451 9.98886 18.0432 9.67999 18.1413C8.77263 18.4381 7.84601 18.5709 6.89854 18.3755ZM9.59415 11.7701C9.65753 11.6838 9.69122 11.6331 9.72812 11.5824C10.2151 10.932 10.7021 10.2809 11.1899 9.62635C11.331 9.43861 11.4722 9.2458 11.5621 9.01917C11.6664 8.7604 11.5549 8.51769 11.3022 8.42298C11.1907 8.38746 11.0719 8.37224 10.9524 8.37985C10.2905 8.37562 9.62463 8.37562 8.96276 8.37985C8.8697 8.37985 8.77664 8.39169 8.68759 8.41537C8.479 8.47034 8.35304 8.69359 8.40519 8.91684C8.4421 9.06568 8.55361 9.18322 8.69561 9.21874C8.78466 9.24242 8.87773 9.25426 8.97079 9.25003C9.37272 9.25426 9.77786 9.25003 10.179 9.25426C10.2239 9.25426 10.2793 9.22297 10.313 9.29316C10.2793 9.34052 10.2464 9.38703 10.2127 9.43016C9.63667 10.198 9.06385 10.9709 8.48702 11.7388C8.34582 11.9308 8.27121 12.1422 8.37551 12.3781C8.4798 12.6141 8.6916 12.6563 8.90741 12.6724C9.07829 12.6842 9.25318 12.6766 9.42808 12.6766C10.0306 12.6766 10.6291 12.6809 11.2316 12.6724C11.5517 12.6682 11.7226 12.4644 11.6889 12.1515C11.6632 11.9045 11.5027 11.7752 11.2051 11.7709C10.6796 11.7667 10.1557 11.7701 9.59415 11.7701ZM13.9079 9.70838C13.4434 9.28132 12.93 9.25341 12.4277 9.56715C11.818 9.94347 11.595 10.5591 11.6688 11.272C11.7394 11.9384 12.0146 12.483 12.6764 12.7062C13.0888 12.8475 13.4723 12.7967 13.8108 12.5067C13.8999 12.4322 13.9264 12.4475 13.9889 12.5303C14.1117 12.6952 14.3235 12.7578 14.5096 12.6834C14.6957 12.6242 14.8185 12.4441 14.8185 12.2403C14.8225 11.4563 14.8257 10.6724 14.8185 9.8885C14.8145 9.57476 14.5361 9.37519 14.2457 9.43777C14.086 9.47328 13.997 9.58745 13.9079 9.70838ZM16.4848 11.1629C16.4696 12.143 17.2397 12.8838 18.2065 12.7815C19.0954 12.6876 19.6714 11.9857 19.6417 10.9938C19.612 10.0137 18.9205 9.3439 17.9722 9.37519C17.0833 9.40309 16.4551 10.1557 16.4848 11.1629ZM16.1575 10.3832C16.1575 9.76757 16.1615 9.15616 16.1575 8.54052C16.1575 8.22679 15.9681 8.03059 15.6849 8.03482C15.4098 8.03905 15.2276 8.2344 15.2236 8.5363C15.2196 8.72065 15.2236 8.90077 15.2236 9.08513V12.2014C15.2236 12.4441 15.3648 12.6563 15.551 12.7071C15.8077 12.7815 16.0716 12.6208 16.1382 12.3502C16.1494 12.3029 16.1567 12.2563 16.1535 12.2056C16.1615 11.5976 16.1575 10.9904 16.1575 10.3832Z" fill="#FDFEFE"/>
<path d="M12.5928 11.1394C12.5888 10.5863 12.8752 10.2531 13.2804 10.2768C13.4552 10.2844 13.6189 10.3749 13.7232 10.528C13.9318 10.8223 13.9318 11.3161 13.7232 11.6138C13.5226 11.8962 13.1392 11.9546 12.868 11.7432C12.8231 11.7077 12.7821 11.6645 12.7452 11.6138C12.6522 11.4768 12.6 11.3119 12.5928 11.1394ZM17.4192 11.0692C17.4192 10.5829 17.7016 10.2582 18.1036 10.281C18.2785 10.2853 18.4421 10.3791 18.5464 10.528C18.7582 10.8256 18.7582 11.3314 18.5424 11.6256C18.3338 11.9039 17.9471 11.9512 17.6832 11.7313C17.6423 11.7001 17.6086 11.6612 17.5789 11.618C17.4682 11.4574 17.416 11.2654 17.4192 11.0692Z" fill="#FDFEFE"/>
<path d="M8.44538 22.0099C7.25478 22.0099 6.05948 22.0516 4.86795 22.005C3.459 21.9455 2.38135 20.6994 2.38135 19.2132C2.38135 14.4175 2.38982 9.62076 2.38135 4.82005C2.38135 3.17815 3.59829 2.03328 4.99877 1.99161C6.46419 1.94995 7.93432 1.98269 9.40444 1.98269C9.43079 1.98269 9.46562 1.9688 9.47879 2.01443C9.47032 2.09678 9.39126 2.1067 9.34326 2.13844C8.4802 2.67318 7.69055 3.31208 7.02702 4.10377C5.93242 5.40935 5.17289 6.9084 4.91595 8.65149C4.4623 11.728 5.3743 14.3401 7.43737 16.5197C7.80349 16.9106 7.85149 17.2142 7.55973 17.738C7.20678 18.368 6.66937 18.7956 6.09807 19.1865C6.0369 19.2232 5.97572 19.2688 5.91454 19.3105C5.82325 19.3928 5.87972 19.4345 5.95784 19.4712C5.97572 19.5129 5.99736 19.5496 6.02372 19.5863C6.52537 20.0555 7.00066 20.5565 7.49384 21.0347C7.72537 21.2599 7.95596 21.495 8.17902 21.7292C8.27032 21.8165 8.42373 21.8443 8.44538 22.0099Z" fill="#0180C7"/>
<path d="M8.44506 22.0109C8.42341 21.8501 8.27094 21.8224 8.17871 21.7261C7.95659 21.487 7.72506 21.2569 7.49353 21.0317C7.00035 20.5535 6.52505 20.0525 6.0234 19.5832C5.99705 19.5465 5.9754 19.5098 5.95752 19.4681C7.07 19.6983 8.15612 19.5416 9.2253 19.1973C9.58765 19.0822 9.94907 18.9671 10.3161 18.8709C10.5646 18.8015 10.8262 18.8153 11.0662 18.9076C13.8324 19.9096 16.5627 19.8183 19.2498 18.5763C20.3444 18.0663 21.3439 17.3481 22.1901 16.4522C22.2334 16.4066 22.2644 16.3371 22.3425 16.3322C22.3821 16.3966 22.3604 16.4651 22.3604 16.5345V19.2251C22.3689 20.7608 21.1999 22.0119 19.743 22.0257H19.7213C18.1505 22.0347 16.5806 22.0257 15.0098 22.0257H8.70671C8.61918 22.0148 8.53259 22.0109 8.44506 22.0109Z" fill="#0180C7"/>
<path d="M9.12553 11.7192C9.78436 11.7192 10.4037 11.7143 11.0192 11.7192C11.3637 11.7242 11.551 11.876 11.5867 12.1657C11.6263 12.5288 11.4258 12.7728 11.0502 12.7768C10.3434 12.7857 9.6413 12.7818 8.93447 12.7818C8.7293 12.7818 8.52883 12.7907 8.32365 12.7768C8.07047 12.7629 7.822 12.7073 7.69965 12.4315C7.57729 12.1557 7.66482 11.9077 7.83047 11.6815C8.50247 10.7807 9.17824 9.87395 9.85495 8.97313C9.89448 8.91758 9.93307 8.86301 9.9726 8.81242C9.9293 8.73404 9.86813 8.77075 9.81542 8.76678C9.34389 8.76182 8.86859 8.76678 8.398 8.76182C8.28882 8.76182 8.17965 8.74793 8.07518 8.72511C7.8267 8.66559 7.67423 8.40368 7.7307 8.14573C7.77023 7.97113 7.90106 7.82827 8.06671 7.7866C8.17118 7.75882 8.28035 7.74493 8.38953 7.74493C9.16601 7.73997 9.94718 7.73997 10.7237 7.74493C10.863 7.73997 10.9985 7.75882 11.134 7.79553C11.4305 7.90168 11.5575 8.19137 11.439 8.49495C11.3345 8.75686 11.1688 8.98206 11.0022 9.20727C10.431 9.97514 9.85965 10.7381 9.28742 11.497C9.23848 11.5585 9.19518 11.618 9.12553 11.7192Z" fill="#0180C7"/>
<path d="M14.1853 9.29929C14.2898 9.15643 14.3989 9.02349 14.5778 8.98679C14.9222 8.91337 15.2451 9.1475 15.2498 9.51557C15.2629 10.4352 15.2582 11.3549 15.2498 12.2746C15.2498 12.5137 15.1011 12.725 14.8874 12.7944C14.6691 12.8817 14.4206 12.8133 14.2766 12.6148C14.2022 12.5186 14.1721 12.4998 14.0676 12.5871C13.6705 12.9274 13.2215 12.9869 12.7368 12.8212C11.9603 12.5543 11.6422 11.9154 11.5547 11.1386C11.4634 10.2973 11.7288 9.58005 12.445 9.13858C13.038 8.76654 13.6394 8.79829 14.1853 9.29929ZM12.6408 10.9779C12.6493 11.1803 12.7105 11.3737 12.8243 11.5345C13.0596 11.8658 13.5095 11.9343 13.8276 11.6863C13.8803 11.6446 13.9283 11.594 13.9716 11.5345C14.2163 11.1852 14.2163 10.6098 13.9716 10.2606C13.8493 10.0811 13.6573 9.9759 13.4521 9.97094C12.9721 9.93919 12.6361 10.3301 12.6408 10.9779ZM17.2084 11.0057C17.1735 9.82411 17.9105 8.94115 18.958 8.90841C20.0705 8.8717 20.8818 9.65843 20.9166 10.8073C20.9514 11.971 20.2757 12.7934 19.2328 12.9045C18.094 13.0246 17.1905 12.1555 17.2084 11.0057ZM18.303 10.8956C18.2945 11.1257 18.3594 11.3509 18.4902 11.5394C18.7302 11.8708 19.1792 11.9353 19.4935 11.6773C19.5415 11.6406 19.5811 11.595 19.6197 11.5484C19.8728 11.1991 19.8728 10.6098 19.6244 10.2606C19.502 10.086 19.31 9.9759 19.1048 9.97094C18.6352 9.94316 18.303 10.3202 18.303 10.8956ZM16.8244 10.091C16.8244 10.8033 16.8291 11.5166 16.8244 12.2289C16.8291 12.5553 16.5844 12.8272 16.2747 12.8361C16.222 12.8361 16.1655 12.8311 16.1128 12.8172C15.8945 12.7577 15.7288 12.5137 15.7288 12.224V8.56813C15.7288 8.35185 15.7241 8.14054 15.7288 7.92426C15.7335 7.57009 15.9472 7.33992 16.27 7.33992C16.6013 7.33496 16.8244 7.56513 16.8244 7.93319C16.8291 8.65146 16.8244 9.3737 16.8244 10.091Z" fill="#0180C7"/>
<path d="M5.23812 2H19.5516C21.1177 2 22.3874 3.33832 22.3874 4.98916V18.922C22.3874 20.5729 21.1177 21.9112 19.5516 21.9112H5.23812C3.672 21.9112 2.40234 20.5729 2.40234 18.922V4.98916C2.40234 3.33832 3.672 2 5.23812 2Z" stroke="#0180C7" stroke-width="0.0804599" stroke-miterlimit="54.3289"/>
</g>
<defs>
<clipPath id="clip0_869_730008">
<rect x="2.76514" y="1.97046" width="20.0566" height="20.059" rx="2.80724" fill="white"/>
</clipPath>
</defs>
</svg>
