<svg width="21" height="20" viewBox="0 0 21 20" fill="none" xmlns="http://www.w3.org/2000/svg">
<path d="M17.8813 8.12435C18.2265 8.12435 18.5063 7.84453 18.5063 7.49935C18.5063 7.15417 18.2265 6.87435 17.8813 6.87435H14.5092L19.2756 2.10796C19.5197 1.86388 19.5197 1.46815 19.2756 1.22407C19.0315 0.979996 18.6358 0.979996 18.3917 1.22407L13.6253 5.99047V2.6184C13.6253 2.27322 13.3455 1.9934 13.0003 1.9934C12.6551 1.9934 12.3753 2.27322 12.3753 2.6184V7.49935C12.3753 7.84453 12.6551 8.12435 13.0003 8.12435H17.8813Z" fill="#858B93"/>
<path d="M3.11937 11.8743C2.7742 11.8743 2.49437 12.1542 2.49437 12.4993C2.49437 12.8445 2.7742 13.1243 3.11937 13.1243H6.49144L1.72505 17.8907C1.48097 18.1348 1.48097 18.5305 1.72505 18.7746C1.96913 19.0187 2.36486 19.0187 2.60893 18.7746L7.37533 14.0082V17.3803C7.37533 17.7255 7.65515 18.0053 8.00033 18.0053C8.3455 18.0053 8.62533 17.7255 8.62533 17.3803V12.4993C8.62533 12.1542 8.3455 11.8743 8.00033 11.8743H3.11937Z" fill="#858B93"/>
</svg>
