<svg width="21" height="20" viewBox="0 0 21 20" fill="none" xmlns="http://www.w3.org/2000/svg">
<path d="M13.9523 1.04102C13.6072 1.04102 13.3273 1.32084 13.3273 1.66602C13.3273 2.01119 13.6072 2.29102 13.9523 2.29102H17.3244L12.558 7.05741C12.3139 7.30149 12.3139 7.69721 12.558 7.94129C12.8021 8.18537 13.1978 8.18537 13.4419 7.94129L18.2083 3.1749V6.54697C18.2083 6.89215 18.4881 7.17197 18.8333 7.17197C19.1785 7.17197 19.4583 6.89215 19.4583 6.54697V1.66602C19.4583 1.32084 19.1785 1.04102 18.8333 1.04102H13.9523Z" fill="#858B93"/>
<path d="M7.04758 18.9577C7.39276 18.9577 7.67258 18.6779 7.67258 18.3327C7.67258 17.9875 7.39276 17.7077 7.04758 17.7077H3.67551L8.4419 12.9413C8.68598 12.6972 8.68598 12.3015 8.4419 12.0574C8.19782 11.8133 7.8021 11.8133 7.55802 12.0574L2.79163 16.8238V13.4517C2.79163 13.1066 2.5118 12.8267 2.16663 12.8267C1.82145 12.8267 1.54163 13.1066 1.54163 13.4517V18.3327C1.54163 18.6779 1.82145 18.9577 2.16663 18.9577H7.04758Z" fill="#858B93"/>
</svg>
