<svg width="17" height="17" viewBox="0 0 17 17" fill="none" xmlns="http://www.w3.org/2000/svg">
<path d="M8.82886 1.98047C8.46086 1.98047 8.16219 2.27914 8.16219 2.64714V7.3138H3.49552C3.12752 7.3138 2.82886 7.61247 2.82886 7.98047C2.82886 8.34847 3.12752 8.64714 3.49552 8.64714H8.16219V13.3138C8.16219 13.6818 8.46086 13.9805 8.82886 13.9805C9.19686 13.9805 9.49552 13.6818 9.49552 13.3138V8.64714H14.1622C14.5302 8.64714 14.8289 8.34847 14.8289 7.98047C14.8289 7.61247 14.5302 7.3138 14.1622 7.3138H9.49552V2.64714C9.49552 2.27914 9.19686 1.98047 8.82886 1.98047Z" fill="#1AAF74"/>
</svg>
