<svg width="17" height="16" viewBox="0 0 17 16" fill="none" xmlns="http://www.w3.org/2000/svg">
<path fill-rule="evenodd" clip-rule="evenodd" d="M5.33971 2.99111C5.51759 2.11785 6.29468 1.5 7.18498 1.5H9.3632C10.2535 1.5 11.0306 2.11785 11.2085 2.99111C11.2495 3.1927 11.4322 3.34057 11.6221 3.34057H11.633L11.6439 3.34105C12.5796 3.38196 13.2982 3.49678 13.8982 3.89039C14.2762 4.13838 14.6014 4.45745 14.8548 4.82976C15.17 5.29298 15.3091 5.82463 15.3757 6.46763C15.4408 7.09586 15.4408 7.88333 15.4408 8.8807V8.93748C15.4408 9.93485 15.4408 10.7223 15.3757 11.3505C15.3091 11.9936 15.17 12.5252 14.8548 12.9884C14.6014 13.3607 14.2762 13.6798 13.8982 13.9278C13.4292 14.2355 12.8916 14.3711 12.2394 14.4362C11.601 14.5 10.8001 14.5 9.78304 14.5H6.76513C5.74808 14.5 4.9472 14.5 4.30873 14.4362C3.65662 14.3711 3.11896 14.2355 2.64999 13.9278C2.27197 13.6798 1.94679 13.3607 1.69341 12.9884C1.37817 12.5252 1.23913 11.9936 1.1725 11.3505C1.10741 10.7223 1.10742 9.93485 1.10742 8.93748V8.88071C1.10742 7.88334 1.10741 7.09586 1.1725 6.46763C1.23913 5.82463 1.37817 5.29298 1.69341 4.82976C1.94679 4.45745 2.27197 4.13838 2.64999 3.89039C3.24997 3.49678 3.96862 3.38196 4.90424 3.34105L4.91516 3.34057H4.92609C5.11601 3.34057 5.29864 3.1927 5.33971 2.99111ZM7.18498 2.5C6.75757 2.5 6.40012 2.79533 6.31958 3.19071C6.18914 3.83106 5.62142 4.33458 4.93831 4.34052C4.03924 4.38046 3.55766 4.49091 3.19851 4.72652C2.92948 4.90301 2.6991 5.1294 2.52013 5.39238C2.33603 5.6629 2.22539 6.00883 2.16718 6.57069C2.10805 7.14138 2.10742 7.87707 2.10742 8.90909C2.10742 9.94111 2.10805 10.6768 2.16718 11.2475C2.22539 11.8093 2.33603 12.1553 2.52013 12.4258C2.6991 12.6888 2.92948 12.9152 3.19852 13.0917C3.47687 13.2743 3.83305 13.3838 4.40811 13.4412C4.99108 13.4994 5.74204 13.5 6.79261 13.5H9.75557C10.8061 13.5 11.5571 13.4994 12.1401 13.4412C12.7151 13.3838 13.0713 13.2743 13.3497 13.0917C13.6187 12.9152 13.8491 12.6888 14.028 12.4258C14.2122 12.1553 14.3228 11.8093 14.381 11.2475C14.4401 10.6768 14.4408 9.94111 14.4408 8.90909C14.4408 7.87707 14.4401 7.14138 14.381 6.57069C14.3228 6.00883 14.2122 5.6629 14.028 5.39238C13.8491 5.1294 13.6187 4.90301 13.3497 4.72652C12.9905 4.49091 12.5089 4.38046 11.6099 4.34052C10.9268 4.33458 10.359 3.83106 10.2286 3.19071C10.1481 2.79533 9.79061 2.5 9.3632 2.5H7.18498ZM8.27409 7.16667C7.44566 7.16667 6.77409 7.83824 6.77409 8.66667C6.77409 9.49509 7.44566 10.1667 8.27409 10.1667C9.10252 10.1667 9.77409 9.49509 9.77409 8.66667C9.77409 7.83824 9.10252 7.16667 8.27409 7.16667ZM5.77409 8.66667C5.77409 7.28595 6.89338 6.16667 8.27409 6.16667C9.6548 6.16667 10.7741 7.28595 10.7741 8.66667C10.7741 10.0474 9.6548 11.1667 8.27409 11.1667C6.89338 11.1667 5.77409 10.0474 5.77409 8.66667ZM11.7741 6.66667C11.7741 6.39052 11.9979 6.16667 12.2741 6.16667H12.9408C13.2169 6.16667 13.4408 6.39052 13.4408 6.66667C13.4408 6.94281 13.2169 7.16667 12.9408 7.16667H12.2741C11.9979 7.16667 11.7741 6.94281 11.7741 6.66667Z" fill="white"/>
</svg>
