<svg width="17" height="17" viewBox="0 0 17 17" fill="none" xmlns="http://www.w3.org/2000/svg">
<path fill-rule="evenodd" clip-rule="evenodd" d="M6.00116 3.49111C6.17904 2.61785 6.95613 2 7.84643 2H10.0246C10.915 2 11.692 2.61785 11.8699 3.49111C11.911 3.6927 12.0936 3.84057 12.2835 3.84057H12.2945L12.3054 3.84105C13.241 3.88196 13.9597 3.99678 14.5596 4.39039C14.9377 4.63838 15.2628 4.95745 15.5162 5.32976C15.8315 5.79298 15.9705 6.32463 16.0371 6.96763C16.1022 7.59586 16.1022 8.38333 16.1022 9.3807V9.43748C16.1022 10.4349 16.1022 11.2223 16.0371 11.8505C15.9705 12.4936 15.8315 13.0252 15.5162 13.4884C15.2628 13.8607 14.9377 14.1798 14.5596 14.4278C14.0907 14.7355 13.553 14.8711 12.9009 14.9362C12.2624 15 11.4616 15 10.4445 15H7.42659C6.40953 15 5.60865 15 4.97018 14.9362C4.31807 14.8711 3.78042 14.7355 3.31144 14.4278C2.93342 14.1798 2.60824 13.8607 2.35487 13.4884C2.03962 13.0252 1.90058 12.4936 1.83396 11.8505C1.76886 11.2223 1.76887 10.4348 1.76888 9.43748V9.38071C1.76887 8.38334 1.76886 7.59586 1.83396 6.96763C1.90058 6.32463 2.03962 5.79298 2.35487 5.32976C2.60824 4.95745 2.93342 4.63838 3.31144 4.39039C3.91143 3.99678 4.63007 3.88196 5.5657 3.84105L5.57661 3.84057H5.58754C5.77746 3.84057 5.96009 3.6927 6.00116 3.49111ZM7.84643 3C7.41902 3 7.06158 3.29533 6.98104 3.69071C6.85059 4.33106 6.28287 4.83458 5.59976 4.84052C4.70069 4.88046 4.21912 4.99091 3.85997 5.22652C3.59094 5.40301 3.36055 5.6294 3.18158 5.89238C2.99748 6.1629 2.88685 6.50883 2.82863 7.07069C2.7695 7.64138 2.76888 8.37707 2.76888 9.40909C2.76888 10.4411 2.7695 11.1768 2.82863 11.7475C2.88685 12.3093 2.99748 12.6553 3.18158 12.9258C3.36055 13.1888 3.59094 13.4152 3.85997 13.5917C4.13832 13.7743 4.4945 13.8838 5.06957 13.9412C5.65253 13.9994 6.4035 14 7.45406 14H10.417C11.4676 14 12.2186 13.9994 12.8015 13.9412C13.3766 13.8838 13.7328 13.7743 14.0111 13.5917C14.2801 13.4152 14.5105 13.1888 14.6895 12.9258C14.8736 12.6553 14.9842 12.3093 15.0425 11.7475C15.1016 11.1768 15.1022 10.4411 15.1022 9.40909C15.1022 8.37707 15.1016 7.64138 15.0425 7.07069C14.9842 6.50883 14.8736 6.1629 14.6895 5.89238C14.5105 5.6294 14.2801 5.40301 14.0111 5.22652C13.652 4.99091 13.1704 4.88046 12.2713 4.84052C11.5882 4.83458 11.0205 4.33106 10.89 3.69071C10.8095 3.29533 10.4521 3 10.0246 3H7.84643ZM8.93554 7.66667C8.10711 7.66667 7.43554 8.33824 7.43554 9.16667C7.43554 9.99509 8.10711 10.6667 8.93554 10.6667C9.76397 10.6667 10.4355 9.99509 10.4355 9.16667C10.4355 8.33824 9.76397 7.66667 8.93554 7.66667ZM6.43554 9.16667C6.43554 7.78595 7.55483 6.66667 8.93554 6.66667C10.3163 6.66667 11.4355 7.78595 11.4355 9.16667C11.4355 10.5474 10.3163 11.6667 8.93554 11.6667C7.55483 11.6667 6.43554 10.5474 6.43554 9.16667ZM12.4355 7.16667C12.4355 6.89052 12.6594 6.66667 12.9355 6.66667H13.6022C13.8784 6.66667 14.1022 6.89052 14.1022 7.16667C14.1022 7.44281 13.8784 7.66667 13.6022 7.66667H12.9355C12.6594 7.66667 12.4355 7.44281 12.4355 7.16667Z" fill="#272B30"/>
</svg>
