<svg width="21" height="20" viewBox="0 0 21 20" fill="none" xmlns="http://www.w3.org/2000/svg">
<path fill-rule="evenodd" clip-rule="evenodd" d="M12.957 1.0415H14.7103C15.4591 1.04148 16.0834 1.04146 16.5791 1.1081C17.1022 1.17844 17.5746 1.33316 17.9541 1.71272C18.3337 2.09228 18.4884 2.56461 18.5587 3.08777C18.6254 3.58343 18.6254 4.20778 18.6253 4.95651V17.7082H18.8337C19.1788 17.7082 19.4587 17.988 19.4587 18.3332C19.4587 18.6783 19.1788 18.9582 18.8337 18.9582H2.16699C1.82181 18.9582 1.54199 18.6783 1.54199 18.3332C1.54199 17.988 1.82181 17.7082 2.16699 17.7082H2.37533L2.37532 7.45651C2.3753 6.70777 2.37528 6.08342 2.44192 5.58777C2.51226 5.06461 2.66698 4.59228 3.04654 4.21272C3.4261 3.83316 3.89843 3.67844 4.42159 3.6081C4.91724 3.54146 5.54159 3.54148 6.29032 3.5415L9.06532 3.54151C9.10819 2.81303 9.24249 2.18343 9.71321 1.71272C10.0928 1.33316 10.5651 1.17844 11.0883 1.1081C11.5839 1.04146 12.2083 1.04148 12.957 1.0415ZM9.67269 4.79151C9.67162 4.79151 9.67054 4.79151 9.66947 4.79151C9.66865 4.79151 9.66782 4.79151 9.66699 4.79151H6.33366C5.53032 4.79151 4.99068 4.79283 4.58815 4.84695C4.2036 4.89865 4.03902 4.98801 3.93042 5.0966C3.82183 5.2052 3.73247 5.36978 3.68077 5.75433C3.62665 6.15686 3.62533 6.6965 3.62533 7.49984V17.7082H7.37533V15.8332C7.37533 15.488 7.65515 15.2082 8.00033 15.2082C8.3455 15.2082 8.62533 15.488 8.62533 15.8332V17.7082H12.3753V7.49984C12.3753 6.6965 12.374 6.15686 12.3199 5.75433C12.2682 5.36978 12.1788 5.2052 12.0702 5.0966C11.9616 4.98801 11.7971 4.89865 11.4125 4.84695C11.0109 4.79296 10.4729 4.79151 9.67269 4.79151ZM13.6253 17.7082L13.6253 7.45651C13.6254 6.70778 13.6254 6.08343 13.5587 5.58777C13.4884 5.06461 13.3337 4.59228 12.9541 4.21272C12.5746 3.83316 12.1022 3.67844 11.5791 3.6081C11.2246 3.56044 10.8043 3.54688 10.3198 3.54303C10.3616 2.96 10.4533 2.74036 10.5971 2.5966C10.7057 2.48801 10.8703 2.39865 11.2548 2.34695C11.6573 2.29283 12.197 2.29151 13.0003 2.29151H14.667C15.4703 2.29151 16.01 2.29283 16.4125 2.34695C16.7971 2.39865 16.9616 2.48801 17.0702 2.5966C17.1788 2.7052 17.2682 2.86978 17.3199 3.25433C17.374 3.65686 17.3753 4.1965 17.3753 4.99984V17.7082H13.6253ZM4.87533 6.66651C4.87533 6.32133 5.15515 6.04151 5.50033 6.04151H10.5003C10.8455 6.04151 11.1253 6.32133 11.1253 6.66651C11.1253 7.01168 10.8455 7.29151 10.5003 7.29151H5.50033C5.15515 7.29151 4.87533 7.01168 4.87533 6.66651ZM4.87533 9.1665C4.87533 8.82133 5.15515 8.54151 5.50033 8.54151H10.5003C10.8455 8.54151 11.1253 8.82133 11.1253 9.1665C11.1253 9.51168 10.8455 9.7915 10.5003 9.7915H5.50033C5.15515 9.7915 4.87533 9.51168 4.87533 9.1665ZM4.87533 11.6665C4.87533 11.3213 5.15515 11.0415 5.50033 11.0415H10.5003C10.8455 11.0415 11.1253 11.3213 11.1253 11.6665C11.1253 12.0117 10.8455 12.2915 10.5003 12.2915H5.50033C5.15515 12.2915 4.87533 12.0117 4.87533 11.6665Z" fill="#1AAF74"/>
</svg>
