<svg width="17" height="17" viewBox="0 0 17 17" fill="none" xmlns="http://www.w3.org/2000/svg">
<path d="M8.8349 1.86133C8.18257 1.86133 7.62628 2.27801 7.42012 2.86128C7.3281 3.12164 7.04244 3.2581 6.78208 3.16608C6.52172 3.07406 6.38526 2.7884 6.47728 2.52804C6.82024 1.55772 7.7456 0.861328 8.8349 0.861328C9.9242 0.861328 10.8496 1.55772 11.1925 2.52804C11.2845 2.7884 11.1481 3.07406 10.8877 3.16608C10.6274 3.2581 10.3417 3.12164 10.2497 2.86128C10.0435 2.27801 9.48723 1.86133 8.8349 1.86133Z" fill="#272B30"/>
<path d="M2.66821 4.02799C2.66821 3.75185 2.89207 3.52799 3.16821 3.52799H14.5016C14.7777 3.52799 15.0016 3.75185 15.0016 4.02799C15.0016 4.30414 14.7777 4.52799 14.5016 4.52799H3.16821C2.89207 4.52799 2.66821 4.30414 2.66821 4.02799Z" fill="#272B30"/>
<path d="M4.77827 5.6614C4.7599 5.38587 4.52165 5.1774 4.24612 5.19577C3.97059 5.21414 3.76212 5.45239 3.78048 5.72792L4.08945 10.3624C4.14645 11.2176 4.19249 11.9083 4.30047 12.4504C4.41273 13.0139 4.60368 13.4846 4.99808 13.8536C5.39248 14.2226 5.87484 14.3818 6.44461 14.4563C6.99263 14.528 7.68493 14.528 8.54199 14.528H9.12788C9.98494 14.528 10.6772 14.528 11.2253 14.4563C11.795 14.3818 12.2774 14.2226 12.6718 13.8536C13.0662 13.4846 13.2571 13.0139 13.3694 12.4504C13.4774 11.9083 13.5234 11.2176 13.5804 10.3624L13.8894 5.72792C13.9077 5.45239 13.6993 5.21414 13.4237 5.19577C13.1482 5.1774 12.91 5.38587 12.8916 5.6614L12.585 10.2608C12.5251 11.1594 12.4824 11.7846 12.3887 12.255C12.2978 12.7113 12.1709 12.9528 11.9886 13.1234C11.8063 13.2939 11.5569 13.4044 11.0956 13.4648C10.62 13.527 9.99328 13.528 9.09272 13.528H8.57714C7.67658 13.528 7.04991 13.527 6.57431 13.4648C6.11298 13.4044 5.86354 13.2939 5.68126 13.1234C5.49899 12.9528 5.3721 12.7113 5.2812 12.255C5.18749 11.7846 5.1448 11.1594 5.0849 10.2608L4.77827 5.6614Z" fill="#272B30"/>
<path d="M7.11852 6.86381C7.39329 6.83633 7.63831 7.0368 7.66579 7.31158L7.99912 10.6449C8.0266 10.9197 7.82613 11.1647 7.55136 11.1922C7.27658 11.2197 7.03156 11.0192 7.00409 10.7444L6.67075 7.41108C6.64328 7.13631 6.84375 6.89129 7.11852 6.86381Z" fill="#272B30"/>
<path d="M10.9991 7.41108C11.0266 7.13631 10.8261 6.89129 10.5514 6.86381C10.2766 6.83633 10.0316 7.0368 10.0041 7.31158L9.67075 10.6449C9.64328 10.9197 9.84375 11.1647 10.1185 11.1922C10.3933 11.2197 10.6383 11.0192 10.6658 10.7444L10.9991 7.41108Z" fill="#272B30"/>
</svg>
