<svg width="16" height="17" viewBox="0 0 16 17" fill="none" xmlns="http://www.w3.org/2000/svg">
<path fill-rule="evenodd" clip-rule="evenodd" d="M9.39982 2.09471C10.4141 1.08041 12.0586 1.08041 13.0729 2.09471C14.0872 3.10902 14.0872 4.75353 13.0729 5.76783L8.01027 10.8305C7.72494 11.1159 7.55068 11.2901 7.35647 11.4416C7.12765 11.6201 6.88007 11.7731 6.6181 11.898C6.39576 12.0039 6.16195 12.0819 5.77911 12.2094L3.99734 12.8034L3.56957 12.946C3.18667 13.0736 2.76452 12.9739 2.47912 12.6885C2.19373 12.4031 2.09407 11.981 2.2217 11.5981L2.95821 9.38855C3.08581 9.0057 3.16373 8.7719 3.26969 8.54955C3.39454 8.28759 3.54755 8.04001 3.72603 7.81119C3.87751 7.61697 4.05179 7.44272 4.33716 7.15738L9.39982 2.09471ZM3.97428 11.757L3.4107 11.1934L3.89631 9.73654C4.0377 9.31237 4.0961 9.13991 4.17242 8.97977C4.26602 8.78337 4.38073 8.59776 4.51454 8.42621C4.62364 8.28633 4.75178 8.15697 5.06793 7.84082L8.99525 3.9135C9.15736 4.32016 9.43164 4.81098 9.89416 5.2735C10.3567 5.73602 10.8475 6.0103 11.2542 6.17241L7.32684 10.0997C7.01069 10.4159 6.88133 10.544 6.74145 10.6531C6.5699 10.7869 6.38428 10.9016 6.18788 10.9952C6.02775 11.0716 5.85529 11.13 5.43112 11.2713L3.97428 11.757ZM12.051 5.37559C11.9684 5.35747 11.8652 5.3302 11.7479 5.28948C11.4252 5.17753 11.0007 4.96584 10.6013 4.56639C10.2018 4.16694 9.99013 3.74249 9.87818 3.41981C9.83746 3.30245 9.81019 3.19923 9.79207 3.11668L10.1069 2.80182C10.7307 2.17804 11.7421 2.17804 12.3658 2.80182C12.9896 3.4256 12.9896 4.43695 12.3658 5.06073L12.051 5.37559ZM2.16701 15.1673C2.16701 14.8912 2.39086 14.6673 2.66701 14.6673H13.3337V15.6673H2.66701C2.39086 15.6673 2.16701 15.4435 2.16701 15.1673Z" fill="#1AAF74"/>
</svg>
