<svg width="25" height="25" viewBox="0 0 25 25" fill="none" xmlns="http://www.w3.org/2000/svg">
<path fill-rule="evenodd" clip-rule="evenodd" d="M16.9336 7.25C16.2432 7.25 15.6836 7.80964 15.6836 8.5C15.6836 9.19036 16.2432 9.75 16.9336 9.75C17.624 9.75 18.1836 9.19036 18.1836 8.5C18.1836 7.80964 17.624 7.25 16.9336 7.25ZM14.1836 8.5C14.1836 6.98122 15.4148 5.75 16.9336 5.75C18.4524 5.75 19.6836 6.98122 19.6836 8.5C19.6836 10.0188 18.4524 11.25 16.9336 11.25C15.4148 11.25 14.1836 10.0188 14.1836 8.5Z" fill="#858B93"/>
<path fill-rule="evenodd" clip-rule="evenodd" d="M12.8762 1.75H12.991C15.2994 1.74999 17.1084 1.74998 18.5199 1.93975C19.9646 2.13399 21.1046 2.53933 21.9995 3.43414C22.8943 4.32895 23.2996 5.46897 23.4938 6.91371C23.6836 8.32519 23.6836 10.1342 23.6836 12.4426V12.5574C23.6836 14.8658 23.6836 16.6748 23.4938 18.0863C23.2996 19.531 22.8943 20.6711 21.9995 21.5659C21.1046 22.4607 19.9646 22.866 18.5199 23.0603C17.1084 23.25 15.2994 23.25 12.991 23.25H12.8762C10.5678 23.25 8.75879 23.25 7.3473 23.0603C5.90256 22.866 4.76254 22.4607 3.86773 21.5659C2.97292 20.6711 2.56758 19.531 2.37334 18.0863C2.18357 16.6748 2.18358 14.8658 2.18359 12.5574V12.4426C2.18358 10.1342 2.18357 8.32519 2.37334 6.91371C2.56758 5.46897 2.97292 4.32895 3.86773 3.43414C4.76254 2.53933 5.90256 2.13399 7.3473 1.93975C8.75879 1.74998 10.5678 1.74999 12.8762 1.75ZM4.92839 20.5052C4.35873 19.9355 4.03184 19.1648 3.85996 17.8864C3.70649 16.7449 3.68655 15.2885 3.68398 13.3401L5.17906 12.0319C5.79317 11.4946 6.71874 11.5254 7.29575 12.1024L11.5855 16.3922C12.5304 17.3371 14.0179 17.4659 15.1112 16.6975L15.4094 16.488C16.2676 15.8849 17.4287 15.9547 18.2083 16.6564L21.4319 19.5576C21.467 19.5892 21.5042 19.6168 21.5431 19.6406C21.3814 19.9815 21.1823 20.2617 20.9388 20.5052C20.3691 21.0749 19.5984 21.4018 18.32 21.5736C17.02 21.7484 15.3118 21.75 12.9336 21.75C10.5554 21.75 8.84715 21.7484 7.54717 21.5736C6.26877 21.4018 5.49805 21.0749 4.92839 20.5052ZM7.54717 3.42637C6.26877 3.59825 5.49805 3.92514 4.92839 4.4948C4.35873 5.06445 4.03184 5.83517 3.85996 7.11358C3.71483 8.19307 3.68912 9.55407 3.68457 11.3465L4.1913 10.9031C5.39973 9.84572 7.221 9.90636 8.35641 11.0418L12.6461 15.3315C13.0757 15.761 13.7518 15.8196 14.2488 15.4703L14.547 15.2607C15.9773 14.2555 17.9124 14.372 19.2118 15.5415L21.9858 18.0381C21.9932 17.9883 22.0003 17.9378 22.0072 17.8864C22.182 16.5864 22.1836 14.8782 22.1836 12.5C22.1836 10.1218 22.182 8.41356 22.0072 7.11358C21.8353 5.83517 21.5085 5.06445 20.9388 4.4948C20.3691 3.92514 19.5984 3.59825 18.32 3.42637C17.02 3.25159 15.3118 3.25 12.9336 3.25C10.5554 3.25 8.84715 3.25159 7.54717 3.42637Z" fill="#858B93"/>
</svg>
