<svg width="25" height="25" viewBox="0 0 25 25" fill="none" xmlns="http://www.w3.org/2000/svg">
<path fill-rule="evenodd" clip-rule="evenodd" d="M16.9355 7.25C16.2452 7.25 15.6855 7.80964 15.6855 8.5C15.6855 9.19036 16.2452 9.75 16.9355 9.75C17.6259 9.75 18.1855 9.19036 18.1855 8.5C18.1855 7.80964 17.6259 7.25 16.9355 7.25ZM14.1855 8.5C14.1855 6.98122 15.4168 5.75 16.9355 5.75C18.4543 5.75 19.6855 6.98122 19.6855 8.5C19.6855 10.0188 18.4543 11.25 16.9355 11.25C15.4168 11.25 14.1855 10.0188 14.1855 8.5Z" fill="#1AAF74"/>
<path fill-rule="evenodd" clip-rule="evenodd" d="M12.8782 1.75H12.9929C15.3013 1.74999 17.1104 1.74998 18.5218 1.93975C19.9666 2.13399 21.1066 2.53933 22.0014 3.43414C22.8962 4.32895 23.3016 5.46897 23.4958 6.91371C23.6856 8.32519 23.6856 10.1342 23.6855 12.4426V12.5574C23.6856 14.8658 23.6856 16.6748 23.4958 18.0863C23.3016 19.531 22.8962 20.6711 22.0014 21.5659C21.1066 22.4607 19.9666 22.866 18.5218 23.0603C17.1104 23.25 15.3013 23.25 12.9929 23.25H12.8782C10.5698 23.25 8.76074 23.25 7.34925 23.0603C5.90452 22.866 4.76449 22.4607 3.86968 21.5659C2.97487 20.6711 2.56953 19.531 2.37529 18.0863C2.18552 16.6748 2.18553 14.8658 2.18555 12.5574V12.4426C2.18553 10.1342 2.18552 8.32519 2.37529 6.91371C2.56953 5.46897 2.97487 4.32895 3.86968 3.43414C4.76449 2.53933 5.90452 2.13399 7.34925 1.93975C8.76074 1.74998 10.5698 1.74999 12.8782 1.75ZM4.93034 20.5052C4.36069 19.9355 4.03379 19.1648 3.86192 17.8864C3.70844 16.7449 3.68851 15.2885 3.68593 13.3401L5.18101 12.0319C5.79513 11.4946 6.72069 11.5254 7.2977 12.1024L11.5874 16.3922C12.5324 17.3371 14.0198 17.4659 15.1132 16.6975L15.4114 16.488C16.2696 15.8849 17.4306 15.9547 18.2103 16.6564L21.4338 19.5576C21.4689 19.5892 21.5061 19.6168 21.545 19.6406C21.3834 19.9815 21.1842 20.2617 20.9408 20.5052C20.3711 21.0749 19.6004 21.4018 18.322 21.5736C17.022 21.7484 15.3138 21.75 12.9355 21.75C10.5573 21.75 8.8491 21.7484 7.54912 21.5736C6.27072 21.4018 5.5 21.0749 4.93034 20.5052ZM7.54912 3.42637C6.27072 3.59825 5.5 3.92514 4.93034 4.4948C4.36069 5.06445 4.03379 5.83517 3.86192 7.11358C3.71678 8.19307 3.69107 9.55407 3.68652 11.3465L4.19326 10.9031C5.40168 9.84572 7.22295 9.90636 8.35836 11.0418L12.6481 15.3315C13.0776 15.761 13.7537 15.8196 14.2507 15.4703L14.5489 15.2607C15.9792 14.2555 17.9143 14.372 19.2137 15.5415L21.9877 18.0381C21.9951 17.9883 22.0023 17.9378 22.0092 17.8864C22.184 16.5864 22.1855 14.8782 22.1855 12.5C22.1855 10.1218 22.184 8.41356 22.0092 7.11358C21.8373 5.83517 21.5104 5.06445 20.9408 4.4948C20.3711 3.92514 19.6004 3.59825 18.322 3.42637C17.022 3.25159 15.3138 3.25 12.9355 3.25C10.5573 3.25 8.8491 3.25159 7.54912 3.42637Z" fill="#1AAF74"/>
</svg>
