<svg width="20" height="21" viewBox="0 0 20 21" fill="none" xmlns="http://www.w3.org/2000/svg">
<path fill-rule="evenodd" clip-rule="evenodd" d="M10.0003 3.02858C9.95188 3.11245 9.89801 3.20903 9.83453 3.32291L9.75261 3.46988C9.74682 3.48025 9.74063 3.49158 9.73399 3.50372C9.66855 3.6234 9.56018 3.82158 9.37947 3.95877C9.19499 4.09881 8.97308 4.14699 8.84332 4.17517C8.83032 4.17799 8.81825 4.18061 8.80723 4.18311L8.64814 4.2191C8.50216 4.25213 8.38325 4.27908 8.28158 4.30463C8.34771 4.38604 8.43362 4.48712 8.54535 4.61778L8.65381 4.74461C8.6615 4.75361 8.66987 4.76324 8.67878 4.77351C8.76873 4.87711 8.91395 5.04438 8.9811 5.26034C9.04747 5.47375 9.02457 5.69353 9.01013 5.83219C9.00869 5.84602 9.00734 5.85905 9.00616 5.87117L8.98976 6.04039C8.97456 6.19727 8.96274 6.32249 8.95487 6.42431C9.04171 6.38607 9.14049 6.34062 9.25785 6.28658L9.40681 6.218C9.41706 6.21328 9.4283 6.20798 9.44044 6.20225C9.56003 6.14585 9.7681 6.04772 10.0003 6.04772C10.2326 6.04772 10.4406 6.14585 10.5602 6.20225C10.5724 6.20798 10.5836 6.21328 10.5939 6.218L10.7428 6.28658C10.8602 6.34062 10.9589 6.38607 11.0458 6.42431C11.0379 6.32249 11.0261 6.19727 11.0109 6.04038L10.9945 5.87117C10.9933 5.85905 10.992 5.84602 10.9905 5.83219C10.9761 5.69353 10.9532 5.47375 11.0196 5.26034C11.0867 5.04438 11.2319 4.87711 11.3219 4.77351C11.3308 4.76324 11.3392 4.75361 11.3469 4.74461L11.4553 4.61778C11.567 4.48712 11.6529 4.38604 11.7191 4.30463C11.6174 4.27908 11.4985 4.25213 11.3525 4.2191L11.1934 4.18311C11.1824 4.18061 11.1703 4.17799 11.1573 4.17517C11.0276 4.14699 10.8057 4.09881 10.6212 3.95877C10.4405 3.82159 10.3321 3.6234 10.2667 3.50372C10.26 3.49158 10.2538 3.48025 10.2481 3.46988L10.1661 3.32291C10.1026 3.20903 10.0488 3.11245 10.0003 3.02858ZM9.17824 1.99953C9.32172 1.81218 9.58225 1.5415 10.0003 1.5415C10.4184 1.5415 10.6789 1.81218 10.8224 1.99953C10.9594 2.17835 11.0973 2.42587 11.2386 2.67964C11.2451 2.69118 11.2515 2.70273 11.2579 2.71428L11.3399 2.86125C11.3589 2.89533 11.3738 2.92215 11.3869 2.94508C11.4097 2.95043 11.4362 2.95643 11.4693 2.96392L11.6284 2.99992C11.6414 3.00287 11.6544 3.00581 11.6675 3.00876C11.9406 3.07048 12.2121 3.13183 12.4205 3.21396C12.6506 3.30465 12.9626 3.48126 13.0828 3.86785C13.2009 4.24762 13.0519 4.5693 12.9217 4.77606C12.8012 4.96741 12.6182 5.18139 12.4307 5.40046C12.4223 5.41036 12.4138 5.42027 12.4053 5.43019L12.2968 5.55701C12.2681 5.59062 12.2465 5.61596 12.2282 5.63789C12.2307 5.66817 12.2341 5.70344 12.2387 5.75061L12.2551 5.91982C12.2563 5.93273 12.2576 5.94562 12.2588 5.9585C12.2873 6.25177 12.3148 6.53518 12.3047 6.7619C12.2941 6.9996 12.2371 7.35944 11.9144 7.60437C11.5816 7.85704 11.214 7.80197 10.9809 7.73518C10.7661 7.67363 10.5123 7.5567 10.2567 7.43892C10.2445 7.43329 10.2323 7.42765 10.22 7.42201L10.0711 7.35343C10.0432 7.34059 10.0203 7.33006 10.0003 7.32102C9.98037 7.33006 9.95747 7.34059 9.92959 7.35343L9.78064 7.42201C9.7684 7.42765 9.75616 7.43328 9.74393 7.43892C9.48832 7.5567 9.23454 7.67363 9.01974 7.73518C8.78664 7.80197 8.41905 7.85704 8.08621 7.60437C7.76357 7.35944 7.70652 6.99961 7.69593 6.7619C7.68583 6.53519 7.71336 6.25177 7.74184 5.9585C7.74309 5.94562 7.74434 5.93273 7.74559 5.91982L7.76199 5.75061C7.76656 5.70344 7.76996 5.66817 7.77245 5.63789C7.7542 5.61596 7.73255 5.59062 7.70381 5.55701L7.59535 5.43019C7.58687 5.42027 7.57839 5.41035 7.56992 5.40045C7.38249 5.18138 7.19942 4.96741 7.07896 4.77606C6.94881 4.5693 6.79978 4.24762 6.91787 3.86785C7.03809 3.48126 7.35001 3.30465 7.58013 3.21396C7.78853 3.13183 8.06002 3.07049 8.3332 3.00876C8.34623 3.00581 8.35926 3.00287 8.37229 2.99992L8.53137 2.96393C8.56448 2.95643 8.59097 2.95043 8.61374 2.94508C8.62683 2.92215 8.64179 2.89533 8.66079 2.86125L8.74271 2.71428C8.74915 2.70273 8.75559 2.69118 8.76201 2.67964C8.9034 2.42587 9.0413 2.17835 9.17824 1.99953ZM9.12586 8.20817H10.8748C11.4289 8.20814 11.9062 8.20811 12.2885 8.25951C12.6982 8.31459 13.0909 8.43881 13.4095 8.75735C13.728 9.07588 13.8522 9.4686 13.9073 9.8783C13.9587 10.2606 13.9587 10.738 13.9587 11.292L13.9587 13.3477C14.095 13.3064 14.2359 13.2787 14.3788 13.2595C14.7611 13.2081 15.2385 13.2081 15.7925 13.2082H15.8748C16.4289 13.2081 16.9062 13.2081 17.2885 13.2595C17.6982 13.3146 18.091 13.4388 18.4095 13.7573C18.728 14.0759 18.8522 14.4686 18.9073 14.8783C18.9587 15.2606 18.9587 15.738 18.9587 16.292V18.8332C18.9587 19.1783 18.6788 19.4582 18.3337 19.4582C17.9885 19.4582 17.7087 19.1783 17.7087 18.8332V16.3332C17.7087 15.7262 17.7073 15.3339 17.6685 15.0449C17.632 14.7738 17.5732 14.6888 17.5256 14.6412C17.478 14.5937 17.3931 14.5348 17.122 14.4984C16.8329 14.4595 16.4406 14.4582 15.8337 14.4582C15.2267 14.4582 14.8344 14.4595 14.5454 14.4984C14.2743 14.5348 14.1893 14.5937 14.1417 14.6412C14.0941 14.6888 14.0353 14.7738 13.9989 15.0449C13.96 15.3339 13.9587 15.7262 13.9587 16.3332V18.8332C13.9587 19.1783 13.6788 19.4582 13.3337 19.4582C12.9885 19.4582 12.7087 19.1783 12.7087 18.8332L12.7087 16.292C12.7087 16.2647 12.7087 16.2377 12.7087 16.2107V11.3332C12.7087 10.7262 12.7073 10.3339 12.6685 10.0449C12.632 9.77377 12.5732 9.68881 12.5256 9.64123C12.478 9.59365 12.3931 9.53481 12.122 9.49836C11.8329 9.4595 11.4406 9.45817 10.8337 9.45817H9.167C8.56007 9.45817 8.16775 9.4595 7.87868 9.49836C7.6076 9.53481 7.52263 9.59365 7.47505 9.64123C7.42748 9.68881 7.36863 9.77377 7.33219 10.0449C7.29332 10.3339 7.292 10.7262 7.292 11.3332V18.7108C7.292 18.7377 7.292 18.7648 7.292 18.792L7.292 18.8332C7.292 19.1783 7.01217 19.4582 6.667 19.4582C6.32182 19.4582 6.042 19.1783 6.042 18.8332C6.042 18.2262 6.04067 17.8339 6.0018 17.5449C5.96536 17.2738 5.90652 17.1888 5.85894 17.1412C5.81136 17.0937 5.72639 17.0348 5.45531 16.9984C5.16624 16.9595 4.77392 16.9582 4.167 16.9582C3.56007 16.9582 3.16775 16.9595 2.87869 16.9984C2.6076 17.0348 2.52263 17.0937 2.47505 17.1412C2.42748 17.1888 2.36863 17.2738 2.33219 17.5449C2.29332 17.8339 2.292 18.2262 2.292 18.8332C2.292 19.1783 2.01217 19.4582 1.667 19.4582C1.32182 19.4582 1.042 19.1783 1.042 18.8332L1.04199 18.792C1.04196 18.238 1.04194 17.7606 1.09333 17.3783C1.14842 16.9686 1.27263 16.5759 1.59117 16.2573C1.90971 15.9388 2.30243 15.8146 2.71213 15.7595C3.09441 15.7081 3.5718 15.7081 4.12585 15.7082H4.20814C4.76219 15.7081 5.23958 15.7081 5.62187 15.7595C5.76478 15.7787 5.90564 15.8064 6.042 15.8477L6.04199 11.292C6.04196 10.738 6.04194 10.2606 6.09333 9.8783C6.14842 9.4686 6.27263 9.07588 6.59117 8.75735C6.90971 8.43881 7.30243 8.31459 7.71213 8.25951C8.09441 8.20811 8.5718 8.20814 9.12586 8.20817Z" fill="#1AAF74"/>
</svg>
