<svg width="20" height="21" viewBox="0 0 20 21" fill="none" xmlns="http://www.w3.org/2000/svg">
<path d="M10 1.54199C14.9476 1.54199 18.958 5.55245 18.958 10.5C18.958 15.4476 14.9476 19.458 10 19.458C5.05245 19.458 1.04199 15.4476 1.04199 10.5C1.04199 5.55245 5.05245 1.54199 10 1.54199ZM10 2.79199C5.74281 2.79199 2.29199 6.24281 2.29199 10.5C2.29199 14.7572 5.74281 18.208 10 18.208C14.2572 18.208 17.708 14.7572 17.708 10.5C17.708 6.24281 14.2572 2.79199 10 2.79199ZM10 13C10.4601 13 10.8328 13.3729 10.833 13.833C10.833 14.2932 10.4602 14.667 10 14.667C9.53976 14.667 9.16699 14.2932 9.16699 13.833C9.16717 13.3729 9.53987 13 10 13ZM10 5.70801C11.208 5.70801 12.1873 6.68753 12.1875 7.89551C12.1875 8.69829 11.7543 9.39947 11.1123 9.7793C10.9487 9.87614 10.8137 9.9822 10.7256 10.0859C10.64 10.1868 10.625 10.2533 10.625 10.292V11.333C10.625 11.6782 10.3452 11.958 10 11.958C9.65482 11.958 9.375 11.6782 9.375 11.333V10.292C9.375 9.87042 9.55986 9.52786 9.77246 9.27734C9.98245 9.02997 10.2445 8.8414 10.4766 8.7041C10.754 8.53993 10.9375 8.23845 10.9375 7.89551C10.9373 7.37789 10.5177 6.95801 10 6.95801C9.48234 6.95801 9.06268 7.37789 9.0625 7.89551C9.0625 8.24069 8.78268 8.52051 8.4375 8.52051C8.09232 8.52051 7.8125 8.24069 7.8125 7.89551C7.81268 6.68753 8.79199 5.70801 10 5.70801Z" fill="#1AAF74"/>
</svg>
