<svg width="20" height="20" viewBox="0 0 20 20" fill="none" xmlns="http://www.w3.org/2000/svg">
<path d="M7.1875 16.875H4.0625C3.7311 16.8746 3.41337 16.7428 3.17903 16.5085C2.9447 16.2741 2.81288 15.9564 2.8125 15.625V6.875C2.81288 6.5436 2.9447 6.22587 3.17903 5.99154C3.41337 5.7572 3.7311 5.62538 4.0625 5.625H7.1875C7.5189 5.62538 7.83663 5.7572 8.07096 5.99154C8.3053 6.22587 8.43712 6.5436 8.4375 6.875V15.625C8.43712 15.9564 8.3053 16.2741 8.07096 16.5085C7.83663 16.7428 7.5189 16.8746 7.1875 16.875ZM4.0625 6.875V15.625H7.18813L7.1875 6.875H4.0625Z" fill="#1AAF74"/>
<path d="M15.9375 14.375H12.8125C12.4811 14.3746 12.1634 14.2428 11.929 14.0085C11.6947 13.7741 11.5629 13.4564 11.5625 13.125V4.375C11.5629 4.0436 11.6947 3.72587 11.929 3.49153C12.1634 3.2572 12.4811 3.12538 12.8125 3.125H15.9375C16.2689 3.12538 16.5866 3.2572 16.821 3.49153C17.0553 3.72587 17.1871 4.0436 17.1875 4.375V13.125C17.1871 13.4564 17.0553 13.7741 16.821 14.0085C16.5866 14.2428 16.2689 14.3746 15.9375 14.375ZM12.8125 4.375V13.125H15.9381L15.9375 4.375H12.8125Z" fill="#1AAF74"/>
<path d="M5.625 19.375C5.54292 19.375 5.46164 19.3589 5.3858 19.3275C5.30996 19.2961 5.24105 19.25 5.18301 19.192C5.12497 19.1339 5.07893 19.065 5.04753 18.9892C5.01613 18.9134 4.99998 18.8321 5 18.75V16.25C5 16.0842 5.06585 15.9253 5.18306 15.8081C5.30027 15.6908 5.45924 15.625 5.625 15.625C5.79076 15.625 5.94973 15.6908 6.06694 15.8081C6.18415 15.9253 6.25 16.0842 6.25 16.25V18.75C6.25002 18.8321 6.23387 18.9134 6.20247 18.9892C6.17107 19.065 6.12503 19.1339 6.06699 19.192C6.00895 19.25 5.94004 19.2961 5.8642 19.3275C5.78836 19.3589 5.70708 19.375 5.625 19.375Z" fill="#1AAF74"/>
<path d="M5.625 6.875C5.54292 6.87502 5.46164 6.85887 5.3858 6.82747C5.30996 6.79607 5.24105 6.75003 5.18301 6.69199C5.12497 6.63395 5.07893 6.56504 5.04753 6.4892C5.01613 6.41336 4.99998 6.33208 5 6.25V1.25C5 1.08424 5.06585 0.925268 5.18306 0.808058C5.30027 0.690848 5.45924 0.625 5.625 0.625C5.79076 0.625 5.94973 0.690848 6.06694 0.808058C6.18415 0.925268 6.25 1.08424 6.25 1.25V6.25C6.25002 6.33208 6.23387 6.41336 6.20247 6.4892C6.17107 6.56504 6.12503 6.63395 6.06699 6.69199C6.00895 6.75003 5.94004 6.79607 5.8642 6.82747C5.78836 6.85887 5.70708 6.87502 5.625 6.875Z" fill="#1AAF74"/>
<path d="M14.375 4.375C14.2929 4.37502 14.2116 4.35887 14.1358 4.32747C14.06 4.29607 13.9911 4.25003 13.933 4.19199C13.875 4.13395 13.8289 4.06504 13.7975 3.9892C13.7661 3.91336 13.75 3.83208 13.75 3.75V1.25C13.75 1.08424 13.8158 0.925268 13.9331 0.808058C14.0503 0.690848 14.2092 0.625 14.375 0.625C14.5408 0.625 14.6997 0.690848 14.8169 0.808058C14.9342 0.925268 15 1.08424 15 1.25V3.75C15 3.83208 14.9839 3.91336 14.9525 3.9892C14.9211 4.06504 14.875 4.13395 14.817 4.19199C14.7589 4.25003 14.69 4.29607 14.6142 4.32747C14.5384 4.35887 14.4571 4.37502 14.375 4.375Z" fill="#1AAF74"/>
<path d="M14.375 19.375C14.2929 19.375 14.2116 19.3589 14.1358 19.3275C14.06 19.2961 13.9911 19.25 13.933 19.192C13.875 19.1339 13.8289 19.065 13.7975 18.9892C13.7661 18.9134 13.75 18.8321 13.75 18.75V13.75C13.75 13.5842 13.8158 13.4253 13.9331 13.3081C14.0503 13.1908 14.2092 13.125 14.375 13.125C14.5408 13.125 14.6997 13.1908 14.8169 13.3081C14.9342 13.4253 15 13.5842 15 13.75V18.75C15 18.8321 14.9839 18.9134 14.9525 18.9892C14.9211 19.065 14.875 19.1339 14.817 19.192C14.7589 19.25 14.69 19.2961 14.6142 19.3275C14.5384 19.3589 14.4571 19.375 14.375 19.375Z" fill="#1AAF74"/>
</svg>
