<svg width="20" height="21" viewBox="0 0 20 21" fill="none" xmlns="http://www.w3.org/2000/svg">
<path fill-rule="evenodd" clip-rule="evenodd" d="M8.33366 3.83398H11.667C14.8097 3.83398 16.381 3.83398 17.3573 4.8103C18.3337 5.78661 18.3337 7.35795 18.3337 10.5007C18.3337 13.6433 18.3337 15.2147 17.3573 16.191C16.381 17.1673 14.8097 17.1673 11.667 17.1673H8.33366C5.19096 17.1673 3.61961 17.1673 2.6433 16.191C1.66699 15.2147 1.66699 13.6433 1.66699 10.5007C1.66699 7.35795 1.66699 5.78661 2.6433 4.8103C3.61961 3.83398 5.19096 3.83398 8.33366 3.83398ZM11.042 8.00065C11.042 7.65547 11.3218 7.37565 11.667 7.37565H15.8337C16.1788 7.37565 16.4587 7.65547 16.4587 8.00065C16.4587 8.34583 16.1788 8.62565 15.8337 8.62565H11.667C11.3218 8.62565 11.042 8.34583 11.042 8.00065ZM11.8753 10.5007C11.8753 10.1555 12.1551 9.87565 12.5003 9.87565H15.8337C16.1788 9.87565 16.4587 10.1555 16.4587 10.5007C16.4587 10.8458 16.1788 11.1257 15.8337 11.1257H12.5003C12.1551 11.1257 11.8753 10.8458 11.8753 10.5007ZM12.7087 13.0007C12.7087 12.6555 12.9885 12.3757 13.3337 12.3757H15.8337C16.1788 12.3757 16.4587 12.6555 16.4587 13.0007C16.4587 13.3458 16.1788 13.6257 15.8337 13.6257H13.3337C12.9885 13.6257 12.7087 13.3458 12.7087 13.0007ZM9.16699 8.00065C9.16699 8.92113 8.4208 9.66732 7.50033 9.66732C6.57985 9.66732 5.83366 8.92113 5.83366 8.00065C5.83366 7.08018 6.57985 6.33398 7.50033 6.33398C8.4208 6.33398 9.16699 7.08018 9.16699 8.00065ZM7.50033 14.6673C10.8337 14.6673 10.8337 13.9211 10.8337 13.0007C10.8337 12.0802 9.34127 11.334 7.50033 11.334C5.65938 11.334 4.16699 12.0802 4.16699 13.0007C4.16699 13.9211 4.16699 14.6673 7.50033 14.6673Z" fill="#858B93"/>
</svg>
