<svg width="20" height="21" viewBox="0 0 20 21" fill="none" xmlns="http://www.w3.org/2000/svg">
<path fill-rule="evenodd" clip-rule="evenodd" d="M2.88738 3.38689C1.66699 4.60728 1.66699 6.57147 1.66699 10.4998C1.66699 14.4282 1.66699 16.3924 2.88738 17.6128C4.10777 18.8332 6.07195 18.8332 10.0003 18.8332C13.9287 18.8332 15.8929 18.8332 17.1133 17.6128C18.3337 16.3924 18.3337 14.4282 18.3337 10.4998C18.3337 6.57147 18.3337 4.60728 17.1133 3.38689C15.8929 2.1665 13.9287 2.1665 10.0003 2.1665C6.07195 2.1665 4.10777 2.1665 2.88738 3.38689ZM14.6471 9.23329C14.8681 8.96811 14.8323 8.57401 14.5671 8.35303C14.3019 8.13205 13.9078 8.16788 13.6869 8.43306L12.1894 10.2299C11.8805 10.6007 11.6907 10.8261 11.5344 10.9672C11.4619 11.0327 11.4189 11.0588 11.3983 11.0688C11.3941 11.0708 11.3911 11.072 11.3892 11.0727C11.3892 11.0727 11.3856 11.0713 11.3828 11.07L11.3802 11.0688C11.3595 11.0588 11.3165 11.0327 11.2441 10.9672C11.0877 10.8261 10.898 10.6007 10.589 10.2299L10.3453 9.93754C10.0716 9.60901 9.82484 9.31284 9.59435 9.1047C9.34356 8.87824 9.02768 8.67655 8.61144 8.67655C8.1952 8.67655 7.87931 8.87824 7.62853 9.1047C7.39803 9.31284 7.15127 9.60901 6.87755 9.93755L5.35352 11.7664C5.13254 12.0316 5.16837 12.4257 5.43354 12.6466C5.69872 12.8676 6.09282 12.8318 6.3138 12.5666L7.81121 10.7697C8.1202 10.3989 8.30995 10.1736 8.46627 10.0324C8.53877 9.96697 8.58177 9.94087 8.60238 9.9309C8.60459 9.92983 8.60646 9.92899 8.60802 9.92833L8.61144 9.92695C8.61332 9.92765 8.6163 9.92887 8.62049 9.9309C8.6411 9.94087 8.68411 9.96697 8.7566 10.0324C8.91292 10.1736 9.10267 10.3989 9.41167 10.7697L9.65533 11.0621C9.92905 11.3907 10.1758 11.6868 10.4063 11.895C10.6571 12.1214 10.973 12.3231 11.3892 12.3231C11.8055 12.3231 12.1213 12.1214 12.3721 11.895C12.6026 11.6868 12.8494 11.3907 13.1231 11.0621L14.6471 9.23329Z" fill="#858B93"/>
</svg>
