<svg width="20" height="21" viewBox="0 0 20 21" fill="none" xmlns="http://www.w3.org/2000/svg">
<path fill-rule="evenodd" clip-rule="evenodd" d="M9.95202 1.54102L11.2498 1.54102C11.595 1.54102 11.8748 1.82084 11.8748 2.16602C11.8748 2.51119 11.595 2.79102 11.2498 2.79102H9.99984C8.01798 2.79102 6.59447 2.79234 5.51115 2.93799C4.44582 3.08122 3.80355 3.35363 3.32883 3.82835C2.85412 4.30306 2.58171 4.94533 2.43848 6.01066C2.29283 7.09398 2.2915 8.51749 2.2915 10.4993C2.2915 12.4812 2.29283 13.9047 2.43848 14.988C2.58171 16.0534 2.85412 16.6956 3.32883 17.1704C3.80355 17.6451 4.44582 17.9175 5.51115 18.0607C6.59447 18.2064 8.01798 18.2077 9.99984 18.2077C11.9817 18.2077 13.4052 18.2064 14.4885 18.0607C15.5539 17.9175 16.1961 17.6451 16.6708 17.1704C17.1456 16.6956 17.418 16.0534 17.5612 14.988C17.7068 13.9047 17.7082 12.4812 17.7082 10.4993V9.24935C17.7082 8.90417 17.988 8.62435 18.3332 8.62435C18.6783 8.62435 18.9582 8.90417 18.9582 9.24935V10.5472C18.9582 12.4708 18.9582 13.9784 18.8 15.1546C18.6382 16.3585 18.3004 17.3086 17.5547 18.0542C16.809 18.7999 15.859 19.1377 14.6551 19.2996C13.4788 19.4577 11.9713 19.4577 10.0476 19.4577H9.95203C8.02836 19.4577 6.52083 19.4577 5.34459 19.2996C4.14065 19.1377 3.19063 18.7999 2.44495 18.0542C1.69928 17.3086 1.36149 16.3585 1.19963 15.1546C1.04148 13.9784 1.04149 12.4708 1.0415 10.5472V10.4515C1.04149 8.52787 1.04148 7.02034 1.19963 5.8441C1.36149 4.64016 1.69928 3.69014 2.44495 2.94446C3.19063 2.19879 4.14065 1.861 5.34459 1.69914C6.52083 1.541 8.02836 1.54101 9.95202 1.54102ZM13.9753 2.39594C15.1152 1.25604 16.9633 1.25604 18.1032 2.39594C19.2431 3.53585 19.2431 5.384 18.1032 6.52391L12.5632 12.064C12.2538 12.3734 12.0599 12.5673 11.8437 12.736C11.5889 12.9347 11.3133 13.105 11.0216 13.244C10.774 13.362 10.514 13.4487 10.0988 13.587L7.67839 14.3938C7.23152 14.5428 6.73884 14.4265 6.40576 14.0934C6.07269 13.7603 5.95638 13.2677 6.10534 12.8208L6.91214 10.4004C7.05049 9.98523 7.13716 9.72518 7.25517 9.47756C7.39416 9.18591 7.56451 8.91028 7.76321 8.65553C7.93191 8.43924 8.12575 8.24542 8.43521 7.93601L13.9753 2.39594ZM17.2194 3.27983C16.5676 2.62808 15.5109 2.62808 14.8592 3.27983L14.5453 3.59368C14.5642 3.67356 14.5907 3.76874 14.6275 3.8749C14.747 4.21912 14.9729 4.67244 15.3998 5.09934C15.8267 5.52624 16.2801 5.75224 16.6243 5.87166C16.7304 5.90849 16.8256 5.93495 16.9055 5.95387L17.2194 5.64002C17.8711 4.98827 17.8711 3.93158 17.2194 3.27983ZM15.9208 6.93859C15.4908 6.75368 14.99 6.45723 14.516 5.98323C14.042 5.50922 13.7455 5.00837 13.5606 4.5784L9.34776 8.79123C9.00067 9.13833 8.86454 9.27598 8.74885 9.42431C8.60599 9.60747 8.48351 9.80564 8.38357 10.0153C8.30264 10.1851 8.2404 10.3685 8.08517 10.8341L7.72526 11.9139L8.58531 12.7739L9.66505 12.414C10.1307 12.2588 10.314 12.1965 10.4839 12.1156C10.6935 12.0157 10.8917 11.8932 11.0749 11.7503C11.2232 11.6346 11.3609 11.4985 11.708 11.1514L15.9208 6.93859Z" fill="#858B93"/>
</svg>
