<svg width="21" height="21" viewBox="0 0 21 21" fill="none" xmlns="http://www.w3.org/2000/svg">
<path fill-rule="evenodd" clip-rule="evenodd" d="M12.6543 2.32884C13.9222 1.06096 15.9778 1.06096 17.2457 2.32884C18.5136 3.59672 18.5136 5.65236 17.2457 6.92024L10.9174 13.2486C10.5607 13.6053 10.3429 13.8231 10.1001 14.0125C9.8141 14.2356 9.50463 14.4268 9.17717 14.5829C8.89924 14.7154 8.60698 14.8128 8.12843 14.9722L5.90122 15.7147L5.3665 15.8929C4.88788 16.0524 4.36019 15.9279 4.00344 15.5711C3.6467 15.2144 3.52213 14.6867 3.68167 14.2081L4.60231 11.4461C4.7618 10.9676 4.8592 10.6753 4.99166 10.3974C5.14772 10.0699 5.33898 9.76046 5.56208 9.47443C5.75143 9.23166 5.96928 9.01384 6.32599 8.65717L12.6543 2.32884ZM5.87239 14.4066L5.16791 13.7022L5.77493 11.8811C5.95167 11.3509 6.02466 11.1353 6.12006 10.9352C6.23706 10.6897 6.38046 10.4576 6.54772 10.2432C6.68409 10.0684 6.84427 9.90666 7.23946 9.51147L12.1486 4.60232C12.3512 5.11065 12.6941 5.72417 13.2722 6.30232C13.8504 6.88048 14.4639 7.22332 14.9722 7.42596L10.0631 12.3351C9.6679 12.7303 9.5062 12.8905 9.33135 13.0268C9.11692 13.1941 8.88489 13.3375 8.6394 13.4545C8.43923 13.5499 8.22365 13.6229 7.69344 13.7996L5.87239 14.4066ZM15.9683 6.42993C15.8651 6.40728 15.736 6.3732 15.5894 6.3223C15.186 6.18236 14.6554 5.91775 14.1561 5.41844C13.6568 4.91913 13.3922 4.38856 13.2523 3.98521C13.2014 3.83852 13.1673 3.70949 13.1446 3.6063L13.5382 3.21272C14.3179 2.433 15.5821 2.433 16.3618 3.21272C17.1416 3.99245 17.1416 5.25663 16.3618 6.03636L15.9683 6.42993ZM3.6133 18.6696C3.6133 18.3244 3.89312 18.0446 4.2383 18.0446H17.5716V19.2946H4.2383C3.89312 19.2946 3.6133 19.0148 3.6133 18.6696Z" fill="#1AAF74"/>
</svg>
